<svg width="80" height="80" viewBox="0 0 80 80" fill="none" xmlns="http://www.w3.org/2000/svg">
<path fill-rule="evenodd" clip-rule="evenodd" d="M40 10L43.1476 18.9125H53.3333L45.0929 24.4208L48.2405 33.3333L40 27.8251L31.7595 33.3333L34.9071 24.4208L26.6667 18.9125H36.8524L40 10ZM34.3333 36.6667C33.781 36.6667 33.3333 37.1144 33.3333 37.6667V69C33.3333 69.5523 33.781 70 34.3333 70H45.6667C46.2189 70 46.6667 69.5523 46.6667 69V37.6667C46.6667 37.1144 46.2189 36.6667 45.6667 36.6667H34.3333ZM11 50C10.4477 50 10 50.4477 10 51V69C10 69.5523 10.4477 70 11 70H22.3333C22.8856 70 23.3333 69.5523 23.3333 69V51C23.3333 50.4477 22.8856 50 22.3333 50H11ZM57.6667 43.3333C57.1144 43.3333 56.6667 43.7811 56.6667 44.3333V69C56.6667 69.5523 57.1144 70 57.6667 70H69C69.5523 70 70 69.5523 70 69V44.3333C70 43.7811 69.5523 43.3333 69 43.3333H57.6667Z" fill="#3BBBE9"/>
</svg>
