<svg width="1199" height="179" viewBox="0 0 1199 179" fill="none" xmlns="http://www.w3.org/2000/svg">
<path opacity="0.99" fill-rule="evenodd" clip-rule="evenodd" d="M469.154 40.2C460.071 40.2 451.895 42.0273 444.629 46.1387C437.362 50.25 431.912 56.1886 427.825 63.9545C423.737 71.2636 421.92 79.9432 421.92 89.5364C421.92 99.1296 423.737 107.809 427.825 115.118C431.912 122.427 437.362 128.366 444.629 132.477C451.441 136.589 460.071 138.415 469.154 138.415C485.049 138.415 498.675 131.564 509.575 118.316L540.458 146.182C531.829 156.689 521.837 164.911 509.12 170.393C496.404 175.875 482.325 178.616 466.883 178.616C449.17 178.616 432.82 174.962 418.741 167.196C404.208 159.887 393.308 149.379 385.133 135.675C376.958 121.971 372.87 106.896 372.87 89.5364C372.87 72.1773 376.958 57.1023 385.133 43.3977C393.308 29.6932 404.662 19.1864 418.741 11.4205C432.82 3.65455 449.17 0 466.883 0C482.325 0 496.404 2.74091 509.12 8.22272C521.837 14.1614 532.283 21.9272 540.458 32.4341L509.575 60.3C498.22 47.0523 485.049 40.2 469.154 40.2ZM0 40.6569H52.2292V174.047H100.825V40.6569H153.054V2.28418H0V40.6569ZM242.979 105.069H318.825V68.9796H242.979V39.7433H329.27V2.28418H195.291V174.047H332.45V136.589H242.979V105.069ZM700.325 68.0661H634.471V3.6547H586.329V174.962H634.471V108.266H700.325V174.962H748.467V3.6547H700.325V68.0661ZM807.054 3.6547H855.196V175.418H807.054V3.6547ZM961.92 3.6547H913.781V175.418H961.92V3.6547ZM1075.47 3.6547H1123.15L1199 175.418H1149.04L1135.42 142.07H1062.75L1049.12 175.418H1000.07L1075.47 3.6547ZM1099.08 51.1638L1077.28 105.982H1120.89L1099.08 51.1638Z" fill="#F5F7FA"/>
</svg>
