<svg viewBox="0 0 394 88" fill="none" xmlns="http://www.w3.org/2000/svg">
<g opacity="0.08" transform="translate(0.658203 -92.3889) rotate(-51.5511)">
<path d="M87.1056 284.108C81.1924 275.467 81.1924 264.326 87.1056 255.458C87.333 255.003 87.7879 254.549 88.0153 254.094C88.2427 253.867 88.4702 253.412 88.925 253.184C81.1924 260.461 71.8678 265.918 64.3626 265.918C56.8574 265.918 47.5328 260.688 39.8002 253.184C40.0276 253.412 40.2551 253.867 40.7099 254.094C40.9373 254.549 41.3922 255.003 41.6196 255.458C47.7602 264.099 47.7602 275.24 41.6196 284.108C41.3922 284.562 40.9373 285.017 40.7099 285.472C40.4825 285.699 40.2551 286.154 39.8002 286.382C47.5328 279.105 56.63 273.648 64.3626 273.648C72.0952 273.648 81.1924 278.878 88.925 286.382C88.6976 286.154 88.4702 285.699 88.0153 285.472C87.7879 284.79 87.5604 284.562 87.1056 284.108Z" fill="#010E28"/>
<path d="M128.953 269.783C128.953 256.849 118.465 246.363 105.528 246.363C92.5902 246.363 82.1024 256.849 82.1024 269.783C82.1024 282.717 92.5902 293.203 105.528 293.203C118.465 293.203 128.953 282.717 128.953 269.783Z" fill="#010E28"/>
<path d="M46.8505 269.783C46.8505 256.849 36.3627 246.363 23.4253 246.363C10.4878 246.363 0 256.849 0 269.783C0 282.717 10.4878 293.203 23.4253 293.203C36.3627 293.203 46.8505 282.717 46.8505 269.783Z" fill="#010E28"/>
<path d="M128.953 187.7C128.953 174.765 118.465 164.28 105.528 164.28C92.5902 164.28 82.1024 174.765 82.1024 187.7C82.1024 200.634 92.5902 211.12 105.528 211.12C118.465 211.12 128.953 200.634 128.953 187.7Z" fill="#010E28"/>
<path d="M46.8505 187.7C46.8505 174.765 36.3627 164.28 23.4253 164.28C10.4878 164.28 0 174.765 0 187.7C0 200.634 10.4878 211.12 23.4253 211.12C36.3627 211.12 46.8505 200.634 46.8505 187.7Z" fill="#010E28"/>
<path d="M128.953 105.617C128.953 92.6822 118.465 82.1968 105.528 82.1968C92.5902 82.1968 82.1024 92.6822 82.1024 105.617C82.1024 118.551 92.5902 129.036 105.528 129.036C118.465 129.036 128.953 118.551 128.953 105.617Z" fill="#010E28"/>
<path d="M46.8505 105.617C46.8505 92.6822 36.3627 82.1968 23.4253 82.1968C10.4878 82.1968 0 92.6822 0 105.617C0 118.551 10.4878 129.036 23.4253 129.036C36.3627 129.036 46.8505 118.551 46.8505 105.617Z" fill="#010E28"/>
<path d="M128.953 23.5334C128.953 10.599 118.465 0.113602 105.528 0.113602C92.5902 0.113602 82.1024 10.599 82.1024 23.5334C82.1024 36.4679 92.5902 46.9533 105.528 46.9533C118.465 46.9533 128.953 36.4679 128.953 23.5334Z" fill="#010E28"/>
<path d="M46.8505 23.5334C46.8505 10.599 36.3627 0.113602 23.4253 0.113602C10.4878 0.113602 0 10.599 0 23.5334C0 36.4679 10.4878 46.9533 23.4253 46.9533C36.3627 46.9533 46.8505 36.4679 46.8505 23.5334Z" fill="#010E28"/>
<path d="M251.083 255.458C260.635 243.18 278.829 243.18 288.381 255.458C294.749 263.871 294.749 275.695 288.381 284.108C278.829 296.386 260.635 296.386 251.083 284.108C244.714 275.695 244.714 263.871 251.083 255.458Z" fill="#010E28"/>
<path d="M251.083 173.375C260.635 161.097 278.829 161.097 288.381 173.375C294.749 181.788 294.749 193.612 288.381 202.025C278.829 214.303 260.635 214.303 251.083 202.025C244.714 193.612 244.714 181.788 251.083 173.375Z" fill="#010E28"/>
<path d="M168.98 173.375C178.532 161.097 196.727 161.097 206.279 173.375C212.647 181.788 212.647 193.612 206.279 202.025C196.727 214.303 178.532 214.303 168.98 202.025C162.612 193.612 162.612 181.788 168.98 173.375Z" fill="#010E28"/>
<path d="M251.083 91.2919C260.635 79.0135 278.829 79.0135 288.381 91.2919C294.749 99.7048 294.749 111.528 288.381 119.941C278.829 132.22 260.635 132.22 251.083 119.941C244.714 111.528 244.714 99.7048 251.083 91.2919Z" fill="#010E28"/>
<path d="M168.98 91.2919C178.532 79.0135 196.727 79.0135 206.279 91.2919C212.647 99.7048 212.647 111.528 206.279 119.941C196.727 132.22 178.532 132.22 168.98 119.941C162.612 111.528 162.612 99.7048 168.98 91.2919Z" fill="#010E28"/>
<path d="M293.157 23.5334C293.157 10.599 282.669 0.113602 269.732 0.113602C256.794 0.113602 246.306 10.599 246.306 23.5334C246.306 36.4679 256.794 46.9533 269.732 46.9533C282.669 46.9533 293.157 36.4679 293.157 23.5334Z" fill="#010E28"/>
<path d="M168.98 9.20877C178.532 -3.06959 196.727 -3.06959 206.279 9.20877C212.647 17.6217 212.647 29.4453 206.279 37.8583C196.727 50.1367 178.532 50.1367 168.98 37.8583C162.612 29.4453 162.612 17.6217 168.98 9.20877Z" fill="#010E28"/>
<path d="M333.184 255.458C342.736 243.18 360.931 243.18 370.483 255.458C376.851 263.871 376.851 275.695 370.483 284.108C360.931 296.386 342.736 296.386 333.184 284.108C326.816 275.695 326.816 263.871 333.184 255.458Z" fill="#010E28"/>
<path d="M333.184 173.375C342.736 161.097 360.931 161.097 370.483 173.375C376.851 181.788 376.851 193.612 370.483 202.025C360.931 214.303 342.736 214.303 333.184 202.025C326.816 193.612 326.816 181.788 333.184 173.375Z" fill="#010E28"/>
<path d="M375.259 105.617C375.259 92.6822 364.771 82.1968 351.834 82.1968C338.896 82.1968 328.408 92.6822 328.408 105.617C328.408 118.551 338.896 129.036 351.834 129.036C364.771 129.036 375.259 118.551 375.259 105.617Z" fill="#010E28"/>
<path d="M375.259 23.5334C375.259 10.599 364.771 0.113602 351.834 0.113602C338.896 0.113602 328.408 10.599 328.408 23.5334C328.408 36.4679 338.896 46.9533 351.834 46.9533C364.771 46.9533 375.259 36.4679 375.259 23.5334Z" fill="#010E28"/>
<path d="M83.0117 23.0787C84.8312 34.9023 93.7009 43.77 105.527 45.589C106.21 45.589 106.664 45.8164 107.347 45.8164C107.802 45.8164 108.256 45.8164 108.711 45.8164C89.1523 48.7723 80.2826 53.0925 66.8642 66.5077C53.4459 79.923 49.1247 89.4728 46.623 108.8C46.623 108.345 46.623 107.89 46.623 107.436C46.623 106.753 46.3955 106.299 46.3955 105.617C44.5761 93.3382 35.2515 84.2431 22.9703 82.1968C22.288 82.1968 21.6057 81.9694 21.1509 81.9694C20.696 81.9694 20.2411 81.9694 19.7863 81.9694C40.2549 80.3777 50.0344 73.7838 62.0882 61.7328C74.142 49.6818 80.2826 39.4499 82.7843 19.8954C82.7843 20.3502 82.7843 20.8049 82.7843 21.2597C83.0117 21.9418 83.0117 22.3966 83.0117 23.0787Z" fill="#010E28"/>
<path d="M173.301 169.51C181.944 163.598 193.088 163.598 201.957 169.51C202.412 169.737 202.867 170.192 203.322 170.419C203.55 170.646 204.004 170.874 204.232 171.329C196.954 163.598 191.496 154.275 191.496 146.772C191.496 139.268 196.727 129.946 204.232 122.215C204.004 122.443 203.55 122.67 203.322 123.125C202.867 123.352 202.412 123.807 201.957 124.034C193.315 129.946 182.171 129.946 173.301 124.034C172.846 123.807 172.392 123.352 171.937 123.125C171.709 122.897 171.254 122.67 171.027 122.215C178.305 129.946 183.763 139.041 183.763 146.772C183.763 154.503 178.532 163.598 171.027 171.329C171.254 171.101 171.709 170.874 171.937 170.419C172.619 169.964 172.846 169.737 173.301 169.51Z" fill="#010E28"/>
<path d="M333.639 284.108C327.726 275.467 327.726 264.326 333.639 255.458C333.867 255.003 334.322 254.549 334.549 254.094C334.776 253.867 335.004 253.412 335.459 253.184C327.726 260.461 318.401 265.918 310.896 265.918C303.391 265.918 294.066 260.688 286.334 253.184C286.561 253.412 286.789 253.867 287.244 254.094C287.471 254.549 287.926 255.003 288.153 255.458C294.066 264.099 294.066 275.24 288.153 284.108C287.926 284.562 287.471 285.017 287.244 285.472C287.016 285.699 286.789 286.154 286.334 286.382C294.066 279.105 303.164 273.648 310.896 273.648C318.629 273.648 327.726 278.878 335.459 286.382C335.231 286.154 335.004 285.699 334.549 285.472C334.322 285.017 333.867 284.562 333.639 284.108Z" fill="#010E28"/>
</g>
</svg>
