<svg width="285" height="90" viewBox="0 0 285 90" fill="none" xmlns="http://www.w3.org/2000/svg">
    <path d="M156.441 50.6706C164.098 52.1054 169.959 57.9669 171.514 65.7431C171.633 66.102 171.633 66.5805 171.753 66.9394C171.753 67.1787 171.872 67.5376 171.753 67.8965C171.993 60.0005 174.028 52.2239 177.976 48.2754C181.924 44.327 189.581 42.1726 197.597 42.0521C197.358 42.0521 196.999 41.9325 196.64 42.0522C196.281 41.9326 195.803 41.9327 195.444 41.8131C187.667 40.498 181.806 34.6364 180.371 26.7406C180.252 26.3817 180.252 25.9032 180.132 25.5443C180.132 25.305 180.012 24.9461 180.132 24.5872C179.892 32.4832 177.977 40.1402 173.909 44.2083C169.841 48.2764 162.303 50.311 154.288 50.4316C154.527 50.4316 154.886 50.5512 155.245 50.4315C155.723 50.6707 155.963 50.6707 156.441 50.6706Z" fill="#DDDDDD"/>
    <path d="M141.962 80.2226C148.766 87.0273 159.8 87.0261 166.607 80.2197C173.413 73.4134 173.414 62.3794 166.61 55.5747C159.805 48.7699 148.771 48.7712 141.965 55.5775C135.158 62.3839 135.157 73.4178 141.962 80.2226Z" fill="#DDDDDD"/>
    <path d="M185.155 37.0288C191.96 43.8336 202.994 43.8323 209.801 37.0259C216.607 30.2196 216.608 19.1856 209.803 12.3809C202.999 5.57612 191.965 5.57739 185.158 12.3837C178.352 19.1901 178.351 30.224 185.155 37.0288Z" fill="#DDDDDD"/>
    <path d="M185.145 123.406C191.95 130.211 202.984 130.21 209.79 123.403C216.597 116.597 216.598 105.563 209.793 98.7584C202.989 91.9536 191.955 91.9549 185.148 98.7612C178.342 105.568 178.341 116.602 185.145 123.406Z" fill="#DDDDDD"/>
    <path d="M228.339 80.2125C235.144 87.0173 246.178 87.016 252.984 80.2097C259.791 73.4033 259.792 62.3694 252.987 55.5646C246.182 48.7598 235.148 48.7611 228.342 55.5674C221.536 62.3738 221.534 73.4078 228.339 80.2125Z" fill="#DDDDDD"/>
    <path d="M228.329 166.59C235.134 173.395 246.168 173.393 252.974 166.587C259.78 159.781 259.782 148.747 252.977 141.942C246.172 135.137 235.138 135.139 228.332 141.945C221.526 148.751 221.524 159.785 228.329 166.59Z" fill="#DDDDDD"/>
    <path d="M271.523 123.396C278.328 130.201 289.362 130.2 296.168 123.393C302.974 116.587 302.976 105.553 296.171 98.7483C289.366 91.9435 278.332 91.9448 271.526 98.7511C264.719 105.557 264.718 116.591 271.523 123.396Z" fill="#DDDDDD"/>
    <path d="M271.513 209.774C278.318 216.578 289.351 216.577 296.158 209.771C302.964 202.965 302.965 191.931 296.161 185.126C289.356 178.321 278.322 178.322 271.516 185.129C264.709 191.935 264.708 202.969 271.513 209.774Z" fill="#DDDDDD"/>
    <path d="M314.707 166.58C321.511 173.385 332.545 173.383 339.352 166.577C346.158 159.771 346.159 148.737 339.354 141.932C332.55 135.127 321.516 135.129 314.709 141.935C307.903 148.741 307.902 159.775 314.707 166.58Z" fill="#DDDDDD"/>
    <path d="M85.2459 152.011C86.6802 163.496 77.1082 173.068 65.6232 171.633C57.847 170.558 51.6266 164.337 50.5508 156.561C49.1165 145.076 58.6885 135.504 70.1734 136.938C77.9497 138.014 84.17 144.235 85.2459 152.011Z" fill="#DDDDDD"/>
    <path d="M128.43 195.194C129.864 206.679 120.292 216.251 108.807 214.817C101.031 213.741 94.8103 207.521 93.7345 199.745C92.3002 188.26 101.872 178.688 113.357 180.122C121.133 181.198 127.354 187.418 128.43 195.194Z" fill="#DDDDDD"/>
    <path d="M171.623 152.001C173.058 163.486 163.486 173.058 152.001 171.623C144.224 170.547 138.004 164.327 136.928 156.551C135.494 145.066 145.066 135.494 156.551 136.928C164.327 138.004 170.547 144.224 171.623 152.001Z" fill="#DDDDDD"/>
    <path d="M171.613 238.378C173.048 249.863 163.476 259.435 151.991 258.001C144.214 256.925 137.994 250.705 136.918 242.928C135.484 231.443 145.056 221.871 156.541 223.306C164.317 224.382 170.537 230.602 171.613 238.378Z" fill="#DDDDDD"/>
    <path d="M214.807 195.184C216.241 206.669 206.669 216.241 195.184 214.807C187.408 213.731 181.188 207.511 180.112 199.735C178.678 188.25 188.25 178.678 199.735 180.112C207.511 181.188 213.731 187.408 214.807 195.184Z" fill="#DDDDDD"/>
    <path d="M185.125 296.161C191.93 302.966 202.964 302.964 209.771 296.158C216.577 289.352 216.578 278.318 209.773 271.513C202.969 264.708 191.935 264.71 185.128 271.516C178.322 278.322 178.321 289.356 185.125 296.161Z" fill="#DDDDDD"/>
    <path d="M257.991 238.368C259.425 249.853 249.853 259.425 238.368 257.991C230.592 256.915 224.371 250.695 223.296 242.918C221.861 231.433 231.433 221.861 242.918 223.296C250.695 224.372 256.915 230.592 257.991 238.368Z" fill="#DDDDDD"/>
    <path d="M42.0524 195.204C43.4867 206.689 33.9147 216.261 22.4298 214.827C14.6535 213.751 8.43316 207.531 7.35734 199.754C5.92303 188.27 15.495 178.698 26.9799 180.132C34.7562 181.208 40.9765 187.428 42.0524 195.204Z" fill="#DDDDDD"/>
    <path d="M85.236 238.388C86.6703 249.873 77.0983 259.445 65.6134 258.011C57.8372 256.935 51.6168 250.714 50.541 242.938C49.1067 231.453 58.6787 221.881 70.1636 223.316C77.9398 224.391 84.1602 230.612 85.236 238.388Z" fill="#DDDDDD"/>
    <path d="M98.7483 296.171C105.553 302.976 116.587 302.974 123.393 296.168C130.2 289.362 130.201 278.328 123.396 271.523C116.591 264.718 105.557 264.719 98.7511 271.526C91.9448 278.332 91.9435 289.366 98.7483 296.171Z" fill="#DDDDDD"/>
    <path d="M141.932 339.354C148.737 346.159 159.771 346.158 166.577 339.352C173.383 332.545 173.385 321.511 166.58 314.707C159.775 307.902 148.741 307.903 141.935 314.709C135.128 321.516 135.127 332.55 141.932 339.354Z" fill="#DDDDDD"/>
    <path d="M295.922 185.843C288.744 180.58 279.412 180.581 272.234 185.846C271.875 186.205 271.516 186.325 271.157 186.684C270.917 186.923 270.678 187.162 270.439 187.402C279.174 175.557 281.567 168.617 281.569 154.5C281.57 140.383 278.82 133.086 269.968 121.602C270.207 121.841 270.446 122.08 270.686 122.32C271.044 122.678 271.403 122.798 271.762 123.157C279.179 128.659 288.87 128.539 296.407 123.154C296.766 122.795 297.245 122.556 297.484 122.316C297.723 122.077 297.963 121.838 298.202 121.599C288.271 133.204 286.595 141.818 286.594 154.5C286.592 167.181 288.744 175.795 297.716 187.399C297.477 187.159 297.237 186.92 296.998 186.681C296.52 186.442 296.28 186.202 295.922 185.843Z" fill="#DDDDDD"/>
    <path d="M171.384 156.308C169.947 163.965 164.084 169.827 156.308 171.384C155.949 171.503 155.47 171.503 155.111 171.623C154.872 171.623 154.513 171.743 154.154 171.623C162.05 171.861 169.826 173.894 173.774 177.842C177.721 181.789 179.874 189.446 179.993 197.462C179.993 197.222 180.112 196.863 179.993 196.504C180.112 196.146 180.112 195.667 180.232 195.308C181.669 187.651 187.532 181.788 195.308 180.232C195.667 180.112 196.146 180.112 196.504 179.993C196.744 179.993 197.103 179.873 197.462 179.993C189.566 179.754 181.909 177.841 177.842 173.774C173.775 169.707 171.742 162.17 171.623 154.154C171.623 154.393 171.503 154.752 171.623 155.111C171.503 155.709 171.503 155.949 171.384 156.308Z" fill="#DDDDDD"/>
    <path d="M26.7406 180.371C34.3972 181.806 40.2587 187.667 41.813 195.444C41.9327 195.803 41.9326 196.281 42.0522 196.64C42.0521 196.879 42.1717 197.238 42.0521 197.597C42.2922 189.701 44.327 181.924 48.2754 177.976C52.2239 174.028 59.8808 171.873 67.8965 171.753C67.6572 171.753 67.2983 171.633 66.9394 171.753C66.5805 171.633 66.102 171.633 65.7431 171.514C58.0865 170.079 52.225 164.217 50.6706 156.441C50.551 156.082 50.5511 155.604 50.4315 155.245C50.4315 155.006 50.3119 154.647 50.4316 154.288C50.1914 162.184 48.2764 169.841 44.2083 173.909C40.1402 177.977 32.6028 180.012 24.5872 180.132C24.8265 180.132 25.1853 180.252 25.5443 180.132C25.9032 180.252 26.3817 180.252 26.7406 180.371Z" fill="#DDDDDD"/>
</svg>
