<svg width="48" height="44" viewBox="0 0 48 44" fill="none" xmlns="http://www.w3.org/2000/svg">
<path fill-rule="evenodd" clip-rule="evenodd" d="M34.9303 0.000906982C41.7614 0.000906982 47.2199 5.51721 47.9207 13.1204C47.9751 13.4562 48.2023 15.2237 47.5119 18.1052C46.5167 22.2636 44.2178 26.0443 40.8662 29.0395L24.5225 43.4142C24.1424 43.7484 23.5725 43.746 23.1953 43.4085L7.13376 29.0386C3.78187 26.0443 1.48326 22.2627 0.488119 18.1052C-0.202385 15.2228 0.0247062 13.4553 0.0800945 13.1195C0.779832 5.5163 6.23923 0 13.0695 0C17.5477 0 21.5439 2.36543 23.8675 6.28535C26.2122 2.41547 30.3792 0.000906982 34.9303 0.000906982ZM36.1317 22.4772C35.4048 21.7479 34.4205 21.5592 33.4279 21.3688C32.7305 21.2351 32.029 21.1006 31.4097 20.7773C30.0332 20.0584 28.7261 18.7519 27.9352 17.4172C27.5806 16.8019 27.3223 16.1356 27.1692 15.4416C27.1091 15.1867 27.0657 14.9299 27.0227 14.6748V14.6748C26.9083 13.9964 26.7959 13.3303 26.375 12.744C26.1252 12.4011 25.8105 12.1111 25.4489 11.8903C25.0873 11.6695 24.6859 11.5223 24.2676 11.4572C23.8494 11.3921 23.4224 11.4102 23.0111 11.5107C22.5998 11.6111 22.2123 11.7918 21.8707 12.0426C21.529 12.2933 21.2399 12.609 21.0199 12.9719C20.7998 13.3347 20.6532 13.7374 20.5882 14.1571C20.5233 14.5768 20.5414 15.0052 20.6415 15.4179C20.7416 15.8306 20.9218 16.2194 21.1716 16.5622C21.9051 17.5557 23.0123 17.7833 24.1349 18.014C24.8002 18.1508 25.4708 18.2886 26.0723 18.5876C27.3959 19.2516 28.6004 20.4137 29.459 21.6223C29.8664 22.1916 30.1736 22.8266 30.3674 23.4999C30.4691 23.8541 30.5168 24.2199 30.5644 24.5848C30.6174 24.9913 30.6703 25.3967 30.7975 25.7842C30.9505 26.2474 31.206 26.6698 31.5448 27.0198C31.8836 27.3698 32.2971 27.6383 32.7541 27.8051C33.2111 27.972 33.6998 28.0328 34.1835 27.9831C34.6673 27.9334 35.1336 27.7745 35.5474 27.5182C35.9612 27.2619 36.3118 26.9149 36.573 26.5032C36.8341 26.0916 36.9989 25.626 37.0552 25.1413C37.1114 24.6566 37.0575 24.1655 36.8975 23.7047C36.7376 23.2438 36.4758 22.8254 36.1317 22.4806V22.4772ZM12.0999 22.2653C12.6759 21.7907 13.3981 21.5313 14.1433 21.5311C14.5666 21.5298 14.9859 21.6127 15.3769 21.7752C15.768 21.9376 16.1231 22.1763 16.4216 22.4773C16.9486 23.006 17.2767 23.7017 17.3499 24.4458C17.4231 25.19 17.2369 25.9366 16.823 26.5585C16.4091 27.1803 15.7931 27.6389 15.08 27.8562C14.3668 28.0734 13.6007 28.0358 12.9121 27.7498C12.2235 27.4638 11.6551 26.9471 11.3036 26.2877C10.9521 25.6283 10.8394 24.867 10.9846 24.1335C11.1298 23.4001 11.524 22.7398 12.0999 22.2653ZM21.718 22.2652C22.2936 21.7909 23.0152 21.5314 23.76 21.5311C24.1833 21.5298 24.6026 21.6127 24.9936 21.7752C25.3847 21.9376 25.7398 22.1763 26.0383 22.4773C26.5649 23.0058 26.8927 23.7011 26.9657 24.4449C27.0388 25.1886 26.8526 25.9348 26.4388 26.5562C26.0251 27.1776 25.4094 27.6359 24.6967 27.853C23.984 28.07 23.2183 28.0324 22.5302 27.7466C21.842 27.4608 21.2738 26.9444 20.9225 26.2854C20.5712 25.6264 20.4585 24.8656 20.6036 24.1325C20.7486 23.3995 21.1425 22.7396 21.718 22.2652Z" fill="#3BBBE9"/>
</svg>
