<svg width="410" height="33" fill="none" xmlns="http://www.w3.org/2000/svg">
  <path d="M10.884 22.14H6.723v10.206H.237V2.49h12.096c6 0 10.476 4.082 10.476 9.866a9.421 9.421 0 0 1-1.447 5.147 9.479 9.479 0 0 1-4.02 3.542l6.629 11.282h-7.244L10.884 22.14zm-4.161-5.961h5.186c2.734 0 4.333-1.626 4.333-3.865 0-2.239-1.62-3.865-4.333-3.865H6.723v7.73z" fill="#fff"/>
  <path d="M10.884 22.14H6.723v10.206H.237V2.49h12.096c6 0 10.476 4.082 10.476 9.866a9.421 9.421 0 0 1-1.447 5.147 9.479 9.479 0 0 1-4.02 3.542l6.629 11.282h-7.244L10.884 22.14zm-4.161-5.961h5.186c2.734 0 4.333-1.626 4.333-3.865 0-2.239-1.62-3.865-4.333-3.865H6.723v7.73z" fill="url(#paint0_linear)"/>
  <path d="M49.987 20.738c0 .61-.042 1.219-.123 1.823H32.376c.54 3.137 2.618 4.866 5.645 4.866a5.486 5.486 0 0 0 2.822-.662 5.457 5.457 0 0 0 2.085-2.006h6.567a11.78 11.78 0 0 1-4.37 6 11.864 11.864 0 0 1-7.104 2.213c-6.834 0-11.986-5.26-11.986-12.16 0-6.899 5.125-12.152 11.986-12.152 7.1 0 11.966 5.444 11.966 12.078zm-17.474-2.43h11.2c-.881-2.81-2.91-4.34-5.72-4.34-2.808 0-4.728 1.619-5.48 4.34z" fill="#fff"/>
  <path d="M49.987 20.738c0 .61-.042 1.219-.123 1.823H32.376c.54 3.137 2.618 4.866 5.645 4.866a5.486 5.486 0 0 0 2.822-.662 5.457 5.457 0 0 0 2.085-2.006h6.567a11.78 11.78 0 0 1-4.37 6 11.864 11.864 0 0 1-7.104 2.213c-6.834 0-11.986-5.26-11.986-12.16 0-6.899 5.125-12.152 11.986-12.152 7.1 0 11.966 5.444 11.966 12.078zm-17.474-2.43h11.2c-.881-2.81-2.91-4.34-5.72-4.34-2.808 0-4.728 1.619-5.48 4.34z" fill="url(#paint1_linear)"/>
  <path d="M62.642 32.972c-5.801 0-9.676-3.293-9.71-8.226h6.096c0 2.041 1.605 3.069 3.847 3.069 1.736 0 3.287-.783 3.287-2.32 0-1.539-2.002-2.042-4.442-2.457-3.697-.613-8.392-1.592-8.392-7.022 0-4.355 3.718-7.363 9.3-7.363 5.584 0 9.24 3.096 9.267 7.696h-5.897c0-1.83-1.312-2.722-3.492-2.722-1.948 0-3.096.892-3.096 2.205 0 1.538 1.975 1.892 4.374 2.327 3.772.68 8.59 1.47 8.59 7.077 0 4.695-3.861 7.75-9.697 7.75l-.035-.014z" fill="#fff"/>
  <path d="M62.642 32.972c-5.801 0-9.676-3.293-9.71-8.226h6.096c0 2.041 1.605 3.069 3.847 3.069 1.736 0 3.287-.783 3.287-2.32 0-1.539-2.002-2.042-4.442-2.457-3.697-.613-8.392-1.592-8.392-7.022 0-4.355 3.718-7.363 9.3-7.363 5.584 0 9.24 3.096 9.267 7.696h-5.897c0-1.83-1.312-2.722-3.492-2.722-1.948 0-3.096.892-3.096 2.205 0 1.538 1.975 1.892 4.374 2.327 3.772.68 8.59 1.47 8.59 7.077 0 4.695-3.861 7.75-9.697 7.75l-.035-.014z" fill="url(#paint2_linear)"/>
  <path d="M98.622 18.343v13.983h-6.246V19.398c0-3.444-1.223-5.158-4.032-5.158-3.116 0-5.186 2.259-5.186 6.001v12.085h-6.226v-31.3h6.253v10.417a10.118 10.118 0 0 1 6.984-2.68c5.214 0 8.453 3.714 8.453 9.58z" fill="#fff"/>
  <path d="M98.622 18.343v13.983h-6.246V19.398c0-3.444-1.223-5.158-4.032-5.158-3.116 0-5.186 2.259-5.186 6.001v12.085h-6.226v-31.3h6.253v10.417a10.118 10.118 0 0 1 6.984-2.68c5.214 0 8.453 3.714 8.453 9.58z" fill="url(#paint3_linear)"/>
  <path d="M104.028 22.61V9.306h6.253v12.58c0 3.28 1.736 5.233 4.626 5.233 2.891 0 4.593-2 4.593-5.232V9.307h6.246v13.302c0 6.212-4.299 10.363-10.839 10.363s-10.879-4.15-10.879-10.363z" fill="#fff"/>
  <path d="M104.028 22.61V9.306h6.253v12.58c0 3.28 1.736 5.233 4.626 5.233 2.891 0 4.593-2 4.593-5.232V9.307h6.246v13.302c0 6.212-4.299 10.363-10.839 10.363s-10.879-4.15-10.879-10.363z" fill="url(#paint4_linear)"/>
  <path d="M161.609 14.75h-5.816v17.576h-6.253V14.75h-9.738v17.576h-6.253V14.75h-3.997V9.64h4.038V7.537c0-4.409 2.481-7.226 7.34-7.226h4.647v4.892h-3.417c-1.647 0-2.535.844-2.535 2.484V9.64h9.963V7.537c0-4.409 2.474-7.226 7.333-7.226h4.647v4.892h-3.417c-1.647 0-2.535.844-2.535 2.484V9.64h5.979l.014 5.11z" fill="#fff"/>
  <path d="M161.609 14.75h-5.816v17.576h-6.253V14.75h-9.738v17.576h-6.253V14.75h-3.997V9.64h4.038V7.537c0-4.409 2.481-7.226 7.34-7.226h4.647v4.892h-3.417c-1.647 0-2.535.844-2.535 2.484V9.64h9.963V7.537c0-4.409 2.474-7.226 7.333-7.226h4.647v4.892h-3.417c-1.647 0-2.535.844-2.535 2.484V9.64h5.979l.014 5.11z" fill="url(#paint5_linear)"/>
  <path d="M165.217 1.012h6.246v31.3h-6.246v-31.3z" fill="#fff"/>
  <path d="M165.217 1.012h6.246v31.3h-6.246v-31.3z" fill="url(#paint6_linear)"/>
  <path d="M199.891 20.738c-.001.61-.04 1.219-.116 1.823h-17.494c.54 3.137 2.617 4.866 5.651 4.866a5.486 5.486 0 0 0 2.818-.664 5.461 5.461 0 0 0 2.082-2.004h6.567a11.774 11.774 0 0 1-4.366 6 11.858 11.858 0 0 1-7.101 2.213c-6.834 0-11.993-5.26-11.993-12.16 0-6.899 5.132-12.152 11.993-12.152 7.094 0 11.966 5.444 11.966 12.078h-.007zm-17.446-2.43h11.2c-.881-2.81-2.911-4.34-5.713-4.34s-4.763 1.619-5.487 4.34z" fill="#fff"/>
  <path d="M199.891 20.738c-.001.61-.04 1.219-.116 1.823h-17.494c.54 3.137 2.617 4.866 5.651 4.866a5.486 5.486 0 0 0 2.818-.664 5.461 5.461 0 0 0 2.082-2.004h6.567a11.774 11.774 0 0 1-4.366 6 11.858 11.858 0 0 1-7.101 2.213c-6.834 0-11.993-5.26-11.993-12.16 0-6.899 5.132-12.152 11.993-12.152 7.094 0 11.966 5.444 11.966 12.078h-.007zm-17.446-2.43h11.2c-.881-2.81-2.911-4.34-5.713-4.34s-4.763 1.619-5.487 4.34z" fill="url(#paint7_linear)"/>
  <path d="M245.11 32.326l-2.952-19.474-8.932 19.42h-1.599l-8.932-19.414-2.938 19.468h-6.629l4.695-29.837h6.492l8.105 18.29 8.146-18.29h6.526l4.647 29.837h-6.629z" fill="#fff"/>
  <path d="M245.11 32.326l-2.952-19.474-8.932 19.42h-1.599l-8.932-19.414-2.938 19.468h-6.629l4.695-29.837h6.492l8.105 18.29 8.146-18.29h6.526l4.647 29.837h-6.629z" fill="url(#paint8_linear)"/>
  <path d="M279.539 9.273v23.019h-4.9l-.533-2.042a11.277 11.277 0 0 1-7.517 2.722c-6.957 0-12.13-5.226-12.13-12.193-.045-1.6.237-3.193.831-4.68a11.784 11.784 0 0 1 2.619-3.975 11.885 11.885 0 0 1 8.68-3.464 11.31 11.31 0 0 1 7.592 2.81l.683-2.197h4.675zm-6.151 11.506a6.255 6.255 0 0 0-1.079-3.477 6.291 6.291 0 0 0-2.835-2.296 6.328 6.328 0 0 0-6.856 1.385 6.257 6.257 0 0 0 .978 9.644 6.317 6.317 0 0 0 3.498 1.051 6.172 6.172 0 0 0 4.528-1.795 6.117 6.117 0 0 0 1.794-4.512h-.028z" fill="#fff"/>
  <path d="M279.539 9.273v23.019h-4.9l-.533-2.042a11.277 11.277 0 0 1-7.517 2.722c-6.957 0-12.13-5.226-12.13-12.193-.045-1.6.237-3.193.831-4.68a11.784 11.784 0 0 1 2.619-3.975 11.885 11.885 0 0 1 8.68-3.464 11.31 11.31 0 0 1 7.592 2.81l.683-2.197h4.675zm-6.151 11.506a6.255 6.255 0 0 0-1.079-3.477 6.291 6.291 0 0 0-2.835-2.296 6.328 6.328 0 0 0-6.856 1.385 6.257 6.257 0 0 0 .978 9.644 6.317 6.317 0 0 0 3.498 1.051 6.172 6.172 0 0 0 4.528-1.795 6.117 6.117 0 0 0 1.794-4.512h-.028z" fill="url(#paint9_linear)"/>
  <path d="M308.773 1.012v31.3h-4.62l-.738-1.919A11.038 11.038 0 0 1 296.178 33c-7.011 0-12.15-5.232-12.15-12.193 0-6.96 5.139-12.16 12.15-12.16 2.26-.02 4.471.645 6.342 1.906V1.026l6.253-.014zm-5.781 19.808a6.253 6.253 0 0 0-1.079-3.477 6.296 6.296 0 0 0-2.834-2.295 6.328 6.328 0 0 0-6.855 1.382 6.26 6.26 0 0 0-1.351 6.832 6.284 6.284 0 0 0 2.321 2.81 6.32 6.32 0 0 0 3.497 1.055 6.156 6.156 0 0 0 4.514-1.804 6.113 6.113 0 0 0 1.787-4.503z" fill="#fff"/>
  <path d="M308.773 1.012v31.3h-4.62l-.738-1.919A11.038 11.038 0 0 1 296.178 33c-7.011 0-12.15-5.232-12.15-12.193 0-6.96 5.139-12.16 12.15-12.16 2.26-.02 4.471.645 6.342 1.906V1.026l6.253-.014zm-5.781 19.808a6.253 6.253 0 0 0-1.079-3.477 6.296 6.296 0 0 0-2.834-2.295 6.328 6.328 0 0 0-6.855 1.382 6.26 6.26 0 0 0-1.351 6.832 6.284 6.284 0 0 0 2.321 2.81 6.32 6.32 0 0 0 3.497 1.055 6.156 6.156 0 0 0 4.514-1.804 6.113 6.113 0 0 0 1.787-4.503z" fill="url(#paint10_linear)"/>
  <path d="M336.497 18.377v13.949h-6.252V19.398c0-3.478-1.326-5.158-4.025-5.158-3.226 0-5.187 2.3-5.187 6.001v12.085h-6.253V9.306h4.291l1.217 2.845a9.915 9.915 0 0 1 3.448-2.546 9.953 9.953 0 0 1 4.206-.856c5.255.013 8.555 3.796 8.555 9.628z" fill="#fff"/>
  <path d="M336.497 18.377v13.949h-6.252V19.398c0-3.478-1.326-5.158-4.025-5.158-3.226 0-5.187 2.3-5.187 6.001v12.085h-6.253V9.306h4.291l1.217 2.845a9.915 9.915 0 0 1 3.448-2.546 9.953 9.953 0 0 1 4.206-.856c5.255.013 8.555 3.796 8.555 9.628z" fill="url(#paint11_linear)"/>
  <path d="M364.632 20.738c-.001.61-.04 1.219-.116 1.823h-17.494c.54 3.137 2.617 4.866 5.644 4.866a5.487 5.487 0 0 0 2.822-.662 5.453 5.453 0 0 0 2.085-2.006h6.567a11.769 11.769 0 0 1-4.369 6.002 11.856 11.856 0 0 1-7.105 2.211c-6.833 0-11.986-5.26-11.986-12.16 0-6.899 5.132-12.152 11.986-12.152 7.101 0 11.973 5.444 11.973 12.078h-.007zm-17.426-2.43h11.201c-.882-2.81-2.911-4.34-5.72-4.34-2.809 0-4.756 1.619-5.481 4.34z" fill="#fff"/>
  <path d="M364.632 20.738c-.001.61-.04 1.219-.116 1.823h-17.494c.54 3.137 2.617 4.866 5.644 4.866a5.487 5.487 0 0 0 2.822-.662 5.453 5.453 0 0 0 2.085-2.006h6.567a11.769 11.769 0 0 1-4.369 6.002 11.856 11.856 0 0 1-7.105 2.211c-6.833 0-11.986-5.26-11.986-12.16 0-6.899 5.132-12.152 11.986-12.152 7.101 0 11.973 5.444 11.973 12.078h-.007zm-17.426-2.43h11.201c-.882-2.81-2.911-4.34-5.72-4.34-2.809 0-4.756 1.619-5.481 4.34z" fill="url(#paint12_linear)"/>
  <path d="M377.316 32.972c-5.802 0-9.684-3.293-9.711-8.226h6.096c0 2.041 1.606 3.069 3.847 3.069 1.736 0 3.287-.783 3.287-2.32 0-1.539-2.002-2.042-4.448-2.457-3.691-.613-8.392-1.592-8.392-7.022 0-4.355 3.724-7.363 9.3-7.363 5.577 0 9.246 3.096 9.267 7.696h-5.932c0-1.83-1.312-2.722-3.492-2.722-1.941 0-3.089.892-3.089 2.205 0 1.538 1.968 1.892 4.374 2.327 3.765.68 8.583 1.47 8.583 7.077 0 4.695-3.854 7.75-9.69 7.75v-.014z" fill="#fff"/>
  <path d="M377.316 32.972c-5.802 0-9.684-3.293-9.711-8.226h6.096c0 2.041 1.606 3.069 3.847 3.069 1.736 0 3.287-.783 3.287-2.32 0-1.539-2.002-2.042-4.448-2.457-3.691-.613-8.392-1.592-8.392-7.022 0-4.355 3.724-7.363 9.3-7.363 5.577 0 9.246 3.096 9.267 7.696h-5.932c0-1.83-1.312-2.722-3.492-2.722-1.941 0-3.089.892-3.089 2.205 0 1.538 1.968 1.892 4.374 2.327 3.765.68 8.583 1.47 8.583 7.077 0 4.695-3.854 7.75-9.69 7.75v-.014z" fill="url(#paint13_linear)"/>
  <path d="M399.785 32.972c-5.802 0-9.676-3.293-9.711-8.226h6.096c.034 2.041 1.606 3.069 3.848 3.069 1.735 0 3.287-.783 3.287-2.32 0-1.539-2.003-2.042-4.442-2.457-3.697-.613-8.392-1.592-8.392-7.022 0-4.355 3.717-7.363 9.3-7.363 5.584 0 9.24 3.096 9.281 7.696h-5.946c0-1.83-1.312-2.722-3.492-2.722-1.947 0-3.095.892-3.095 2.205 0 1.538 1.975 1.892 4.373 2.327 3.772.68 8.59 1.47 8.59 7.077 0 4.695-3.861 7.75-9.697 7.75v-.014z" fill="#fff"/>
  <path d="M399.785 32.972c-5.802 0-9.676-3.293-9.711-8.226h6.096c.034 2.041 1.606 3.069 3.848 3.069 1.735 0 3.287-.783 3.287-2.32 0-1.539-2.003-2.042-4.442-2.457-3.697-.613-8.392-1.592-8.392-7.022 0-4.355 3.717-7.363 9.3-7.363 5.584 0 9.24 3.096 9.281 7.696h-5.946c0-1.83-1.312-2.722-3.492-2.722-1.947 0-3.095.892-3.095 2.205 0 1.538 1.975 1.892 4.373 2.327 3.772.68 8.59 1.47 8.59 7.077 0 4.695-3.861 7.75-9.697 7.75v-.014z" fill="url(#paint14_linear)"/>
  <defs>
    <linearGradient id="paint0_linear" x1="-17.556" y1="33" x2="518.219" y2="33" gradientUnits="userSpaceOnUse">
      <stop stop-color="#253B3E"/>
      <stop offset="1" stop-color="#66AAA2"/>
    </linearGradient>
    <linearGradient id="paint1_linear" x1="-17.556" y1="33" x2="518.219" y2="33" gradientUnits="userSpaceOnUse">
      <stop stop-color="#253B3E"/>
      <stop offset="1" stop-color="#66AAA2"/>
    </linearGradient>
    <linearGradient id="paint2_linear" x1="-17.556" y1="33" x2="518.219" y2="33" gradientUnits="userSpaceOnUse">
      <stop stop-color="#253B3E"/>
      <stop offset="1" stop-color="#66AAA2"/>
    </linearGradient>
    <linearGradient id="paint3_linear" x1="-17.556" y1="33" x2="518.219" y2="33" gradientUnits="userSpaceOnUse">
      <stop stop-color="#253B3E"/>
      <stop offset="1" stop-color="#66AAA2"/>
    </linearGradient>
    <linearGradient id="paint4_linear" x1="-17.556" y1="33" x2="518.219" y2="33" gradientUnits="userSpaceOnUse">
      <stop stop-color="#253B3E"/>
      <stop offset="1" stop-color="#66AAA2"/>
    </linearGradient>
    <linearGradient id="paint5_linear" x1="-17.556" y1="33" x2="518.219" y2="33" gradientUnits="userSpaceOnUse">
      <stop stop-color="#253B3E"/>
      <stop offset="1" stop-color="#66AAA2"/>
    </linearGradient>
    <linearGradient id="paint6_linear" x1="-17.556" y1="33" x2="518.219" y2="33" gradientUnits="userSpaceOnUse">
      <stop stop-color="#253B3E"/>
      <stop offset="1" stop-color="#66AAA2"/>
    </linearGradient>
    <linearGradient id="paint7_linear" x1="-17.556" y1="33" x2="518.219" y2="33" gradientUnits="userSpaceOnUse">
      <stop stop-color="#253B3E"/>
      <stop offset="1" stop-color="#66AAA2"/>
    </linearGradient>
    <linearGradient id="paint8_linear" x1="-17.556" y1="33" x2="518.219" y2="33" gradientUnits="userSpaceOnUse">
      <stop stop-color="#253B3E"/>
      <stop offset="1" stop-color="#66AAA2"/>
    </linearGradient>
    <linearGradient id="paint9_linear" x1="-17.556" y1="33" x2="518.219" y2="33" gradientUnits="userSpaceOnUse">
      <stop stop-color="#253B3E"/>
      <stop offset="1" stop-color="#66AAA2"/>
    </linearGradient>
    <linearGradient id="paint10_linear" x1="-17.556" y1="33" x2="518.219" y2="33" gradientUnits="userSpaceOnUse">
      <stop stop-color="#253B3E"/>
      <stop offset="1" stop-color="#66AAA2"/>
    </linearGradient>
    <linearGradient id="paint11_linear" x1="-17.556" y1="33" x2="518.219" y2="33" gradientUnits="userSpaceOnUse">
      <stop stop-color="#253B3E"/>
      <stop offset="1" stop-color="#66AAA2"/>
    </linearGradient>
    <linearGradient id="paint12_linear" x1="-17.556" y1="33" x2="518.219" y2="33" gradientUnits="userSpaceOnUse">
      <stop stop-color="#253B3E"/>
      <stop offset="1" stop-color="#66AAA2"/>
    </linearGradient>
    <linearGradient id="paint13_linear" x1="-17.556" y1="33" x2="518.219" y2="33" gradientUnits="userSpaceOnUse">
      <stop stop-color="#253B3E"/>
      <stop offset="1" stop-color="#66AAA2"/>
    </linearGradient>
    <linearGradient id="paint14_linear" x1="-17.556" y1="33" x2="518.219" y2="33" gradientUnits="userSpaceOnUse">
      <stop stop-color="#253B3E"/>
      <stop offset="1" stop-color="#66AAA2"/>
    </linearGradient>
  </defs>
</svg>
