<svg xmlns="http://www.w3.org/2000/svg" viewBox="0 0 438 303" fill="none">
  <path
    d="M418.9 170.927C429.448 170.927 438 162.376 438 151.826C438 141.277 429.448 132.726 418.9 132.726C408.351 132.726 399.799 141.277 399.799 151.826C399.799 162.376 408.351 170.927 418.9 170.927Z"
    fill="#3BBBE9"/>
  <path
    d="M285.851 170.927C296.4 170.927 304.951 162.376 304.951 151.826C304.951 141.277 296.4 132.726 285.851 132.726C275.302 132.726 266.75 141.277 266.75 151.826C266.75 162.376 275.302 170.927 285.851 170.927Z"
    fill="#3BBBE9"/>
  <path
    d="M352.294 170.927C362.843 170.927 371.394 162.376 371.394 151.826C371.394 141.277 362.843 132.726 352.294 132.726C341.745 132.726 333.194 141.277 333.194 151.826C333.194 162.376 341.745 170.927 352.294 170.927Z"
    fill="#3BBBE9"/>
  <path
    d="M352.294 104.319C362.843 104.319 371.394 95.7678 371.394 85.2187C371.394 74.6697 362.843 66.118 352.294 66.118C341.745 66.118 333.194 74.6697 333.194 85.2187C333.194 95.7678 341.745 104.319 352.294 104.319Z"
    fill="#3BBBE9"/>
  <path
    d="M404.208 163.418C399.31 156.398 399.31 147.255 404.208 140.235C404.534 139.909 404.697 139.582 405.024 139.256C405.187 138.929 405.514 138.766 405.677 138.44C399.473 144.317 391.801 148.725 385.76 148.725C379.72 148.725 372.047 144.317 365.844 138.44C366.007 138.766 366.334 138.929 366.497 139.256C366.66 139.582 366.986 139.909 367.313 140.235C372.21 147.255 372.21 156.398 367.313 163.418C366.986 163.744 366.823 164.071 366.497 164.397C366.334 164.724 366.007 164.887 365.844 165.213C372.047 159.336 379.393 154.928 385.76 154.928C392.127 154.928 399.473 159.336 405.677 165.213C405.514 164.887 405.187 164.724 405.024 164.397C404.697 164.071 404.371 163.744 404.208 163.418Z"
    fill="#3BBBE9"/>
  <path
    d="M340.54 100.075C330.745 92.4019 330.745 77.709 340.54 70.0361C347.233 64.812 356.865 64.812 363.558 70.0361C373.353 77.709 373.353 92.4019 363.558 100.075C356.865 105.299 347.233 105.299 340.54 100.075Z"
    fill="#3BBBE9"/>
  <path
    d="M274.423 100.075C264.628 92.4019 264.628 77.709 274.423 70.0361C281.117 64.812 290.748 64.812 297.442 70.0361C307.237 77.709 307.237 92.4019 297.442 100.075C290.748 105.299 281.117 105.299 274.423 100.075Z"
    fill="#3BBBE9"/>
  <path
    d="M274.423 166.193C264.628 158.52 264.628 143.827 274.423 136.154C281.117 130.93 290.748 130.93 297.442 136.154C307.237 143.827 307.237 158.52 297.442 166.193C290.748 171.417 281.117 171.417 274.423 166.193Z"
    fill="#3BBBE9"/>
  <path
    d="M274.424 33.9569C264.629 26.2839 264.629 11.5911 274.424 3.9181C281.117 -1.30603 290.749 -1.30603 297.442 3.9181C307.237 11.5911 307.237 26.2839 297.442 33.9569C290.749 39.181 281.117 39.181 274.424 33.9569Z"
    fill="#3BBBE9"/>
  <path
    d="M271.158 229.699C266.26 222.679 266.26 213.7 271.158 206.68C271.484 206.353 271.648 206.027 271.974 205.7C272.137 205.374 272.464 205.211 272.627 204.884C266.424 210.761 258.751 215.006 252.874 215.006C246.834 215.006 239.324 210.761 233.121 204.884C233.284 205.211 233.61 205.374 233.774 205.7C233.937 206.027 234.263 206.353 234.59 206.68C239.487 213.7 239.487 222.679 234.59 229.699C234.263 230.025 234.1 230.352 233.774 230.678C233.61 231.005 233.284 231.168 233.121 231.495C239.324 225.617 246.67 221.373 252.874 221.373C259.077 221.373 266.424 225.617 272.627 231.495C272.464 231.168 272.137 231.005 271.974 230.678C271.811 230.352 271.484 230.025 271.158 229.699Z"
    fill="#3BBBE9"/>
  <path
    d="M219.734 303C230.193 303 238.671 294.595 238.671 284.226C238.671 273.857 230.193 265.452 219.734 265.452C209.276 265.452 200.797 273.857 200.797 284.226C200.797 294.595 209.276 303 219.734 303Z"
    fill="#3BBBE9"/>
  <path
    d="M286.014 236.882C296.473 236.882 304.951 228.477 304.951 218.108C304.951 207.739 296.473 199.334 286.014 199.334C275.556 199.334 267.077 207.739 267.077 218.108C267.077 228.477 275.556 236.882 286.014 236.882Z"
    fill="#3BBBE9"/>
  <path
    d="M204.715 206.68C212.388 196.885 227.081 196.885 234.754 206.68C239.978 213.373 239.978 223.005 234.754 229.699C227.081 239.494 212.388 239.494 204.715 229.699C199.655 223.005 199.655 213.373 204.715 206.68Z"
    fill="#3BBBE9"/>
  <path
    d="M204.715 140.399C212.388 130.603 227.081 130.603 234.754 140.399C239.978 147.092 239.978 156.724 234.754 163.418C227.081 173.213 212.388 173.213 204.715 163.418C199.655 156.724 199.655 147.092 204.715 140.399Z"
    fill="#3BBBE9"/>
  <path
    d="M208.307 269.533C215.327 264.635 224.305 264.635 231.325 269.533C231.652 269.859 231.978 270.023 232.305 270.349C232.631 270.512 232.794 270.839 233.121 271.002C227.244 264.798 222.999 257.126 222.999 251.248C222.999 245.208 227.244 237.698 233.121 231.495C232.794 231.658 232.631 231.984 232.305 232.148C231.978 232.311 231.652 232.637 231.325 232.964C224.305 237.862 215.327 237.862 208.307 232.964C207.98 232.637 207.654 232.474 207.327 232.148C207.001 231.984 206.838 231.658 206.511 231.495C212.388 237.698 216.633 245.045 216.633 251.248C216.633 257.452 212.388 264.798 206.511 271.002C206.838 270.839 207.001 270.512 207.327 270.349C207.654 270.023 207.98 269.859 208.307 269.533Z"
    fill="#3BBBE9"/>
  <path
    d="M139.742 136.481C146.762 131.583 155.741 131.583 162.76 136.481C163.087 136.807 163.413 136.97 163.74 137.297C164.066 137.46 164.23 137.787 164.556 137.95C158.679 131.746 154.435 124.073 154.435 118.196C154.435 112.156 158.679 104.646 164.556 98.4423C164.23 98.6056 164.066 98.9321 163.74 99.0953C163.413 99.2586 163.087 99.5851 162.76 99.9116C155.741 104.809 146.762 104.809 139.742 99.9116C139.416 99.5851 139.089 99.4218 138.763 99.0953C138.436 98.9321 138.273 98.6056 137.946 98.4423C143.823 104.646 148.068 111.992 148.068 118.196C148.068 124.4 143.823 131.746 137.946 137.95C138.273 137.787 138.436 137.46 138.763 137.297C139.089 136.97 139.416 136.807 139.742 136.481Z"
    fill="#3BBBE9"/>
  <path
    d="M96.6443 70.0361C106.439 77.709 106.439 92.4019 96.6443 100.075C89.951 105.299 80.3193 105.299 73.626 100.075C63.831 92.4019 63.831 77.709 73.626 70.0361C80.3193 64.812 89.951 64.812 96.6443 70.0361Z"
    fill="#3BBBE9"/>
  <path
    d="M162.761 136.154C172.556 143.827 172.556 158.52 162.761 166.193C156.067 171.417 146.436 171.417 139.742 166.193C129.947 158.52 129.947 143.827 139.742 136.154C146.436 131.093 156.067 131.093 162.761 136.154Z"
    fill="#3BBBE9"/>
  <path
    d="M162.761 70.0361C172.556 77.709 172.556 92.4019 162.761 100.075C156.067 105.299 146.436 105.299 139.742 100.075C129.947 92.4019 129.947 77.709 139.742 70.0361C146.436 64.812 156.067 64.812 162.761 70.0361Z"
    fill="#3BBBE9"/>
  <path
    d="M228.877 70.0361C238.672 77.709 238.672 92.4019 228.877 100.075C222.183 105.299 212.552 105.299 205.858 100.075C196.063 92.4019 196.063 77.709 205.858 70.0361C212.552 64.812 222.183 64.812 228.877 70.0361Z"
    fill="#3BBBE9"/>
  <path
    d="M99.7461 73.4644C104.644 80.4844 104.644 89.4634 99.7461 96.4833C99.4196 96.8098 99.2564 97.1363 98.9299 97.4628C98.7666 97.7893 98.4401 97.9526 98.2769 98.2791C104.48 92.4019 112.153 88.1573 118.03 88.1573C124.07 88.1573 131.58 92.4019 137.783 98.2791C137.62 97.9526 137.294 97.7893 137.13 97.4628C136.967 97.1363 136.641 96.8098 136.314 96.4833C131.417 89.4634 131.417 80.4844 136.314 73.4644C136.641 73.1379 136.804 72.8114 137.13 72.4849C137.294 72.1584 137.62 71.9951 137.783 71.6686C131.58 77.5458 124.234 81.7904 118.03 81.7904C111.827 81.7904 104.48 77.5458 98.2769 71.6686C98.4401 71.9951 98.7666 72.1584 98.9299 72.4849C99.2564 72.8114 99.5828 73.1379 99.7461 73.4644Z"
    fill="#3BBBE9"/>
  <path
    d="M96.6441 171.417C89.6243 176.315 80.6456 176.315 73.6258 171.417C73.2993 171.09 72.9728 170.927 72.6463 170.601C72.3198 170.437 72.1566 170.111 71.8301 169.948C77.7071 176.151 81.9516 183.824 81.9516 189.701C81.9516 195.742 77.7071 203.252 71.8301 209.455C72.1566 209.292 72.3198 208.965 72.6463 208.802C72.9728 208.639 73.2993 208.312 73.6258 207.986C80.6456 203.088 89.6243 203.088 96.6441 207.986C96.9706 208.312 97.2971 208.476 97.6236 208.802C97.9501 208.965 98.1133 209.292 98.4398 209.455C92.5628 203.252 88.3183 195.905 88.3183 189.701C88.3183 183.498 92.5628 176.151 98.4398 169.948C98.1133 170.111 97.9501 170.437 97.6236 170.601C97.2971 170.764 96.9706 171.09 96.6441 171.417Z"
    fill="#3BBBE9"/>
  <path
    d="M139.742 237.861C129.947 230.189 129.947 215.496 139.742 207.823C146.436 202.599 156.067 202.599 162.761 207.823C172.556 215.496 172.556 230.189 162.761 237.861C156.067 242.922 146.436 242.922 139.742 237.861Z"
    fill="#3BBBE9"/>
  <path
    d="M73.626 171.58C63.831 163.907 63.831 149.214 73.626 141.541C80.3193 136.317 89.951 136.317 96.6443 141.541C106.439 149.214 106.439 163.907 96.6443 171.58C89.951 176.804 80.3193 176.804 73.626 171.58Z"
    fill="#3BBBE9"/>
  <path
    d="M73.626 237.861C63.831 230.189 63.831 215.496 73.626 207.823C80.3193 202.599 89.951 202.599 96.6443 207.823C106.439 215.496 106.439 230.189 96.6443 237.861C89.951 242.922 80.3193 242.922 73.626 237.861Z"
    fill="#3BBBE9"/>
  <path
    d="M7.34625 237.861C-2.44875 230.189 -2.44875 215.496 7.34625 207.823C14.0395 202.599 23.6713 202.599 30.3645 207.823C40.1595 215.496 40.1595 230.189 30.3645 237.861C23.6713 242.922 14.0395 242.922 7.34625 237.861Z"
    fill="#3BBBE9"/>
  <path
    d="M136.477 234.27C131.579 227.25 131.579 218.271 136.477 211.251C136.803 210.925 136.966 210.598 137.293 210.272C137.456 209.945 137.783 209.782 137.946 209.455C131.742 215.332 124.07 219.577 118.193 219.577C112.152 219.577 104.643 215.332 98.4398 209.455C98.6031 209.782 98.9292 209.945 99.0925 210.272C99.2557 210.598 99.5822 210.925 99.9087 211.251C104.806 218.271 104.806 227.25 99.9087 234.27C99.5822 234.596 99.419 234.923 99.0925 235.249C98.9292 235.576 98.6027 235.739 98.4395 236.066C104.643 230.189 111.989 225.944 118.193 225.944C124.396 225.944 131.742 230.189 137.946 236.066C137.783 235.739 137.456 235.576 137.293 235.249C136.966 235.086 136.803 234.596 136.477 234.27Z"
    fill="#3BBBE9"/>
</svg>
