<?xml version="1.0" encoding="UTF-8"?>
<svg viewBox="0 0 40 40" xmlns="http://www.w3.org/2000/svg">
    <circle cx="20" cy="20" r="20" fill="#010E28"/>
    <path d="m31.202 22.18c-0.4042-0.4042-0.933-0.6529-1.4923-0.7461-2.1761-0.2796-3.2641-0.777-4.7564-2.3002-1.4917-1.4918-1.9887-2.5175-2.3311-4.6936-0.064-0.6153-0.3258-1.1933-0.7461-1.6473-0.2478-0.251-0.543-0.4504-0.8685-0.5864s-0.6747-0.2061-1.0275-0.2061-0.702 0.0701-1.0275 0.2061c-0.3254 0.136-0.6207 0.3354-0.8685 0.5864-0.2512 0.2478-0.4506 0.5431-0.5867 0.8687-0.1362 0.3255-0.2063 0.6749-0.2063 1.0278 0 0.3528 0.0701 0.7022 0.2063 1.0277 0.1361 0.3256 0.3355 0.6209 0.5867 0.8687 0.4268 0.4238 0.9869 0.6872 1.5855 0.7457h-0.031c2.2075 0.2796 3.3888 0.9634 4.7564 2.3625 1.3677 1.3676 2.1133 2.4871 2.3002 4.8182v-0.0314c0.1005 0.5587 0.3595 1.0767 0.7461 1.4922 0.2479 0.2512 0.5432 0.4507 0.8687 0.5868 0.3256 0.1361 0.6749 0.2062 1.0278 0.2062s0.7022-0.0701 1.0278-0.2062c0.3255-0.1361 0.6208-0.3356 0.8687-0.5868 0.4961-0.5085 0.7712-1.1926 0.7651-1.9031-6e-3 -0.7104-0.2927-1.3897-0.7974-1.8898zm-13.118 0c-0.2511 0.2479-0.4506 0.5431-0.5867 0.8687s-0.2062 0.6749-0.2062 1.0278 0.0701 0.7022 0.2062 1.0278c0.1361 0.3255 0.3356 0.6208 0.5867 0.8686 0.2479 0.2512 0.5432 0.4507 0.8687 0.5868 0.3256 0.1361 0.6749 0.2062 1.0278 0.2062s0.7022-0.0701 1.0278-0.2062c0.3255-0.1361 0.6208-0.3356 0.8687-0.5868 0.2511-0.2478 0.4506-0.5431 0.5867-0.8686 0.1361-0.3256 0.2062-0.6749 0.2062-1.0278s-0.0701-0.7022-0.2062-1.0278-0.3356-0.6208-0.5867-0.8687c-0.2479-0.2511-0.5432-0.4506-0.8687-0.5867-0.3256-0.1361-0.6749-0.2062-1.0278-0.2062s-0.7022 0.0701-1.0278 0.2062c-0.3255 0.1361-0.6208 0.3356-0.8687 0.5867zm-7.4603 4.5695c0.354 0.0047 0.7055-0.061 1.0339-0.1933s0.6273-0.3284 0.8792-0.5771c0.252-0.2487 0.4521-0.545 0.5887-0.8716 0.1365-0.3267 0.2068-0.6772 0.2068-1.0312 0-0.3541-0.0703-0.7046-0.2068-1.0313-0.1366-0.3266-0.3367-0.6229-0.5887-0.8716-0.2519-0.2487-0.5508-0.4448-0.8792-0.5771s-0.6799-0.198-1.0339-0.1933c-0.7003 0.013-1.3676 0.3003-1.8582 0.8002s-0.76557 1.1724-0.76557 1.8728c0 0.7005 0.2749 1.373 0.76557 1.8728 0.49067 0.4999 1.1579 0.7877 1.8582 0.8007z" fill="#30C0F3"/>
</svg>
