<svg width="30" height="18" viewBox="0 0 30 18" fill="none" xmlns="http://www.w3.org/2000/svg">
<path d="M27.4863 12.0344C27.0086 11.5567 26.3839 11.2628 25.7225 11.1525C23.1502 10.8218 21.8641 10.2339 20.1002 8.4333C18.3364 6.66947 17.7485 5.45684 17.3443 2.88459C17.2708 2.18641 16.9768 1.48823 16.4624 0.937033C15.213 -0.312344 13.2287 -0.312344 11.9793 0.937033C10.7299 2.18641 10.7299 4.17072 11.9793 5.42009C12.4937 5.93455 13.1552 6.22852 13.8534 6.30201H13.8166C16.4256 6.63273 17.822 7.44115 19.4388 9.09474C21.0557 10.7116 21.9376 12.0344 22.158 14.7904V14.7537C22.2683 15.3784 22.5623 16.0031 23.04 16.5175C24.2893 17.7669 26.2736 17.7669 27.523 16.5175C28.7357 15.2681 28.7357 13.2838 27.4863 12.0344Z" transform="translate(0.660156 0.000976562)" fill="#718792"/>
<path d="M11.9793 12.0344C10.7299 13.2838 10.7299 15.2681 11.9793 16.5175C13.2287 17.7669 15.213 17.7669 16.4624 16.5175C17.7117 15.2681 17.7117 13.2838 16.4624 12.0344C15.213 10.7851 13.2287 10.7851 11.9793 12.0344Z" transform="translate(0.660156 0.000976562)" fill="#718792"/>
<path d="M3.16019 17.4362C4.90552 17.4362 6.32038 16.0213 6.32038 14.276C6.32038 12.5307 4.90552 11.1158 3.16019 11.1158C1.41487 11.1158 0 12.5307 0 14.276C0 16.0213 1.41487 17.4362 3.16019 17.4362Z" transform="translate(0.660156 0.000976562)" fill="#718792"/>
</svg>
