<svg width="54" height="33" viewBox="0 0 54 33" fill="none" xmlns="http://www.w3.org/2000/svg"><path d="M51.407 22.063c-.876-.876-2.02-1.415-3.234-1.617-4.715-.606-7.073-1.684-10.307-4.985-3.234-3.233-4.31-5.456-5.053-10.172a6.2 6.2 0 0 0-1.616-3.57 5.774 5.774 0 0 0-8.22 0 5.774 5.774 0 0 0 0 8.22 5.658 5.658 0 0 0 3.436 1.616h-.067c4.783.606 7.343 2.088 10.307 5.12 2.965 2.964 4.582 5.39 4.986 10.442v-.068a6.414 6.414 0 0 0 1.616 3.234 5.774 5.774 0 0 0 8.22 0 5.835 5.835 0 0 0-.07-8.22zM22.978 22.063a5.774 5.774 0 0 0 0 8.22 5.774 5.774 0 0 0 8.22 0 5.774 5.774 0 0 0 0-8.22 5.774 5.774 0 0 0-8.22 0zM6.81 31.966a5.794 5.794 0 1 0 0-11.587 5.794 5.794 0 0 0 0 11.586z" fill="#30C0F3"/></svg>