<svg width="83" height="24" viewBox="0 0 83 24" fill="none" xmlns="http://www.w3.org/2000/svg">
    <path d="M56.0842 4.09262L56.64 2.07157L57.2968 0.151566H60.0758L57.4989 7.3263H55.0737L54.0632 4.64841L53.0526 7.3263H50.5768L48 0.151566H50.7284L51.3853 2.12209L51.9411 4.14314L53.2042 0.202092H54.8211L56.0842 4.09262Z" fill="#010E28"/>
    <path d="M67.6042 3.38526C67.6042 3.73895 67.5537 4.09263 67.5031 4.44632H62.5516C62.7537 5.05263 63.5621 5.35579 64.1684 5.35579C64.9263 5.35579 65.5326 5.15368 65.9873 4.8L67.301 6.26526C66.4421 7.07368 65.28 7.42737 64.0673 7.42737C61.8442 7.42737 59.9242 6.31579 59.9242 3.73895C59.9242 1.16211 61.9452 0 63.8652 0C65.9873 0 67.6042 1.21263 67.6042 3.38526ZM63.8147 1.92C63.2084 1.92 62.5516 2.22316 62.501 2.77895H65.0779C65.0779 2.17263 64.4716 1.92 63.8147 1.92Z" fill="#010E28"/>
    <path d="M47.7981 23.8737V13.7684H50.1728L50.2738 14.5263C50.8802 13.8189 51.7896 13.5663 52.5981 13.6168C54.6696 13.7179 55.8317 15.0316 55.8317 17.3053C55.8317 19.4779 54.4675 20.9937 52.396 20.9937C51.4865 20.9937 50.8296 20.6905 50.4254 20.2358V23.8231H47.7981V23.8737ZM53.2044 17.3558C53.2044 16.3453 52.5981 15.7895 51.7896 15.7895C50.8802 15.7895 50.3749 16.5474 50.3749 17.2547C50.3749 18.1137 50.8802 18.9221 51.7896 18.9221C52.5981 18.9221 53.2044 18.3158 53.2044 17.3558Z" fill="#3BBBE9"/>
    <path d="M59.5201 20.8926H56.8927V10.7874H59.5201V20.8926Z" fill="#3BBBE9"/>
    <path d="M68.716 13.7684V20.8926H66.2907L66.1896 20.1347C65.5833 20.8421 64.6739 21.0947 63.8654 21.0442C61.7433 20.9431 60.6317 19.4274 60.6317 17.3558C60.6317 15.2337 61.996 13.6168 64.0675 13.6168C65.0781 13.6168 65.7854 13.9705 66.1391 14.5263L66.2907 13.7684H68.716ZM63.1581 17.3558C63.1581 18.3663 63.7644 18.9221 64.5728 18.9221C65.4823 18.9221 66.0381 18.2147 66.0381 17.3558C66.0381 16.3958 65.4823 15.7895 64.5728 15.7895C63.8149 15.7389 63.1581 16.3453 63.1581 17.3558Z" fill="#3BBBE9"/>
    <path d="M74.0214 23.8737H71.2424L72.6572 20.5389L69.8277 13.7179H72.6572L73.2635 15.4358L74.0214 17.9116L74.8803 15.4358L75.5371 13.7684H78.3666L74.0214 23.8737Z" fill="#3BBBE9"/>
    <path d="M79.3265 19.5284C79.3265 18.821 79.8317 18.1137 80.8422 18.1137C81.8528 18.1137 82.358 18.821 82.358 19.5284C82.358 20.2358 81.8528 20.9431 80.8422 20.9431C79.8317 20.9431 79.3265 20.2358 79.3265 19.5284ZM79.478 10.7874H82.257L82.2065 17.5579H79.5286L79.478 10.7874Z" fill="#3BBBE9"/>
    <path d="M37.7937 16.5474C37.1368 15.8905 36.2779 15.4863 35.3684 15.3347C31.8315 14.88 30.0631 14.0716 27.6379 11.5958C25.2126 9.17052 24.4042 7.50315 23.8484 3.96631C23.7473 3.00631 23.3431 2.04631 22.6357 1.28842C20.9179 -0.429473 18.1894 -0.429473 16.4715 1.28842C14.7536 3.00631 14.7536 5.73473 16.4715 7.45263C17.1789 8.15999 18.0884 8.56421 19.0484 8.66526H18.9979C22.5852 9.11999 24.5052 10.2316 26.7284 12.5053C28.9515 14.7284 30.1642 16.5474 30.4673 20.3368V20.2863C30.6189 21.1453 31.0231 22.0042 31.68 22.7116C33.3979 24.4295 36.1263 24.4295 37.8442 22.7116C39.5115 20.9937 39.5115 18.2653 37.7937 16.5474Z" fill="#3BBBE9"/>
    <path d="M16.4715 16.5474C14.7536 18.2652 14.7536 20.9937 16.4715 22.7116C18.1894 24.4295 20.9179 24.4295 22.6357 22.7116C24.3536 20.9937 24.3536 18.2652 22.6357 16.5474C20.9179 14.8295 18.1894 14.8295 16.4715 16.5474Z" fill="#3BBBE9"/>
    <path d="M4.34527 23.9747C6.74509 23.9747 8.69053 22.0293 8.69053 19.6295C8.69053 17.2296 6.74509 15.2842 4.34527 15.2842C1.94544 15.2842 0 17.2296 0 19.6295C0 22.0293 1.94544 23.9747 4.34527 23.9747Z" fill="#3BBBE9"/>
</svg>
