<svg width="119" height="24" viewBox="0 0 119 24" fill="none" xmlns="http://www.w3.org/2000/svg">
<path d="M0.822293 23.6711C0.603015 23.6711 0.405665 23.5943 0.230242 23.4408C0.0767474 23.2654 0 23.0681 0 22.8488V1.50206C0 1.26085 0.0767474 1.0635 0.230242 0.910005C0.383737 0.734582 0.581087 0.646871 0.822293 0.646871H10.1307C12.9813 0.646871 15.2179 1.29374 16.8406 2.58748C18.4632 3.88123 19.2746 5.77798 19.2746 8.27775C19.2746 10.7775 18.4632 12.6524 16.8406 13.9022C15.2179 15.1302 12.9813 15.7442 10.1307 15.7442H6.381V22.8488C6.381 23.0681 6.30425 23.2654 6.15075 23.4408C5.99726 23.5943 5.79991 23.6711 5.5587 23.6711H0.822293ZM9.96619 11.0407C10.8652 11.0407 11.5669 10.8104 12.0713 10.3499C12.5975 9.86752 12.8607 9.16583 12.8607 8.24486C12.8607 7.38968 12.6195 6.69895 12.137 6.17268C11.6766 5.64641 10.9529 5.38328 9.96619 5.38328H6.28232V11.0407H9.96619Z" fill="white"/>
<path d="M31.8626 24C28.7488 24 26.2929 23.2435 24.4948 21.7305C22.6967 20.2175 21.7429 17.9918 21.6332 15.0535C21.6113 14.4395 21.6004 13.4966 21.6004 12.2248C21.6004 10.9529 21.6113 9.99909 21.6332 9.36318C21.721 6.46871 22.6748 4.24303 24.4948 2.68616C26.3368 1.10736 28.7927 0.317954 31.8626 0.317954C34.9105 0.317954 37.3445 1.10736 39.1645 2.68616C41.0065 4.24303 41.9713 6.46871 42.059 9.36318C42.1029 10.635 42.1248 11.5889 42.1248 12.2248C42.1248 12.8826 42.1029 13.8255 42.059 15.0535C41.9494 17.9918 40.9955 20.2175 39.1974 21.7305C37.4213 23.2435 34.9763 24 31.8626 24ZM31.8626 19.0662C33.0028 19.0662 33.9128 18.7264 34.5926 18.0466C35.2724 17.3449 35.6342 16.2814 35.678 14.8561C35.7219 13.5843 35.7438 12.6743 35.7438 12.1261C35.7438 11.5779 35.7219 10.6898 35.678 9.46186C35.6342 8.03655 35.2724 6.98401 34.5926 6.30425C33.9128 5.60256 33.0028 5.25171 31.8626 5.25171C30.7004 5.25171 29.7794 5.60256 29.0997 6.30425C28.4199 6.98401 28.0581 8.03655 28.0142 9.46186C27.9923 10.0758 27.9814 10.9639 27.9814 12.1261C27.9814 13.3102 27.9923 14.2202 28.0142 14.8561C28.0581 16.2814 28.4199 17.3449 29.0997 18.0466C29.7794 18.7264 30.7004 19.0662 31.8626 19.0662Z" fill="white"/>
<path d="M46.2969 23.6711C46.0557 23.6711 45.8583 23.5943 45.7049 23.4408C45.5514 23.2654 45.4746 23.0571 45.4746 22.8159V19.757C45.4746 19.5158 45.5514 19.3184 45.7049 19.1649C45.8803 18.9895 46.0776 18.9018 46.2969 18.9018H50.4084C50.6496 18.9018 50.8469 18.9895 51.0004 19.1649C51.1758 19.3184 51.2636 19.5158 51.2636 19.757V22.8159C51.2636 23.0571 51.1758 23.2654 51.0004 23.4408C50.8469 23.5943 50.6496 23.6711 50.4084 23.6711H46.2969ZM46.2969 17.1037C46.0776 17.1037 45.8803 17.027 45.7049 16.8735C45.5514 16.698 45.4746 16.5007 45.4746 16.2814V0.822294C45.4746 0.581088 45.5514 0.383738 45.7049 0.230244C45.8803 0.0767483 46.0776 0 46.2969 0H50.4084C50.6496 0 50.8469 0.0767483 51.0004 0.230244C51.1758 0.383738 51.2636 0.581088 51.2636 0.822294V16.2814C51.2636 16.5226 51.1758 16.72 51.0004 16.8735C50.8469 17.027 50.6496 17.1037 50.4084 17.1037H46.2969Z" fill="white"/>
<path d="M56.1986 23.6711C55.9793 23.6711 55.782 23.5943 55.6065 23.4408C55.4531 23.2654 55.3763 23.0681 55.3763 22.8488V1.50206C55.3763 1.26085 55.4531 1.0635 55.6065 0.910005C55.76 0.734582 55.9574 0.646871 56.1986 0.646871H59.9154C60.4197 0.646871 60.7925 0.855185 61.0337 1.27181L68.7961 13.5404V1.50206C68.7961 1.26085 68.8729 1.0635 69.0264 0.910005C69.1799 0.734582 69.3772 0.646871 69.6184 0.646871H73.7957C74.0369 0.646871 74.2342 0.734582 74.3877 0.910005C74.5412 1.0635 74.618 1.26085 74.618 1.50206V22.8159C74.618 23.0571 74.5412 23.2654 74.3877 23.4408C74.2342 23.5943 74.0369 23.6711 73.7957 23.6711H70.0789C69.5746 23.6711 69.2018 23.4628 68.9606 23.0461L61.231 11.2709V22.8488C61.231 23.09 61.1433 23.2873 60.9679 23.4408C60.8144 23.5943 60.6171 23.6711 60.3758 23.6711H56.1986Z" fill="white"/>
<path d="M85.002 23.6711C84.7608 23.6711 84.5525 23.5943 84.3771 23.4408C84.2236 23.2873 84.1468 23.09 84.1468 22.8488V6.00822H78.3579C78.1167 6.00822 77.9083 5.93148 77.7329 5.77798C77.5794 5.62449 77.5027 5.42714 77.5027 5.18593V1.50206C77.5027 1.26085 77.5794 1.0635 77.7329 0.910005C77.9083 0.734582 78.1167 0.646871 78.3579 0.646871H96.2181C96.4593 0.646871 96.6566 0.734582 96.8101 0.910005C96.9855 1.0635 97.0732 1.26085 97.0732 1.50206V5.18593C97.0732 5.42714 96.9855 5.62449 96.8101 5.77798C96.6566 5.93148 96.4593 6.00822 96.2181 6.00822H90.4291V22.8488C90.4291 23.09 90.3414 23.2873 90.166 23.4408C90.0125 23.5943 89.8151 23.6711 89.5739 23.6711H85.002Z" fill="white"/>
<path d="M108.612 24C106.485 24 104.676 23.693 103.185 23.079C101.694 22.4651 100.565 21.6537 99.7971 20.645C99.0296 19.6364 98.624 18.54 98.5801 17.3559C98.5801 17.1585 98.6459 16.9941 98.7775 16.8625C98.9309 16.7309 99.1064 16.6651 99.3037 16.6651H103.678C103.941 16.6651 104.15 16.709 104.303 16.7967C104.479 16.8844 104.665 17.0379 104.862 17.2572C105.147 17.7835 105.586 18.222 106.178 18.5729C106.792 18.9018 107.603 19.0662 108.612 19.0662C109.796 19.0662 110.706 18.8908 111.342 18.54C111.978 18.1672 112.296 17.6629 112.296 17.027C112.296 16.5665 112.131 16.1937 111.803 15.9086C111.474 15.6016 110.947 15.3385 110.224 15.1192C109.5 14.878 108.459 14.6149 107.099 14.3298C104.446 13.8036 102.461 13.0032 101.146 11.9287C99.83 10.8543 99.1722 9.31932 99.1722 7.32389C99.1722 5.96437 99.5449 4.75834 100.29 3.7058C101.058 2.63134 102.132 1.79808 103.514 1.20603C104.917 0.61398 106.54 0.317954 108.382 0.317954C110.311 0.317954 111.978 0.657835 113.381 1.3376C114.807 1.99543 115.892 2.82869 116.638 3.83737C117.405 4.82412 117.811 5.79991 117.855 6.76473C117.855 6.96208 117.789 7.13751 117.657 7.291C117.526 7.42257 117.361 7.48835 117.164 7.48835H112.559C112.077 7.48835 111.704 7.291 111.441 6.8963C111.309 6.43582 110.969 6.05208 110.421 5.74509C109.873 5.41617 109.193 5.25171 108.382 5.25171C107.461 5.25171 106.748 5.41617 106.244 5.74509C105.74 6.07401 105.487 6.55642 105.487 7.19233C105.487 7.82823 105.816 8.33257 106.474 8.70535C107.132 9.05619 108.36 9.418 110.158 9.79077C112.219 10.1635 113.853 10.635 115.059 11.2051C116.287 11.7533 117.186 12.4769 117.756 13.376C118.348 14.2531 118.644 15.3714 118.644 16.7309C118.644 18.222 118.216 19.5158 117.361 20.6122C116.506 21.7085 115.322 22.5528 113.809 23.1448C112.296 23.7149 110.564 24 108.612 24Z" fill="white"/>
</svg>
