<svg width="162" height="62" viewBox="0 0 162 62" fill="none" xmlns="http://www.w3.org/2000/svg">
<mask id="path-1-outside-1" maskUnits="userSpaceOnUse" x="0" y="0" width="162" height="62" fill="black">
<rect fill="white" width="162" height="62"/>
<path fill-rule="evenodd" clip-rule="evenodd" d="M16.5539 24.7736V1H23.3624V21.3774H36.9795V24.7736H16.5539ZM43.788 24.7736V21.3774H40.3837V4.39622H43.788V1H60.8092V4.39622H64.2135V21.3774H60.8092V24.7736H43.788ZM47.1922 21.3774H57.405V4.39622H47.1922V21.3774ZM71.022 21.3774V24.7736H88.0433V21.3774H91.4475V4.39622H88.0433V1H71.022V4.39622H67.6178V21.3774H71.022ZM84.639 21.3774H74.4263V4.39622H84.639V21.3774ZM94.8518 24.7736V1H101.66V4.39622H105.065V7.79245H108.469V11.1887H111.873V1H118.682V24.7736H111.873V17.9811H108.469V14.5849H105.065V11.1887H101.66V24.7736H94.8518ZM132.299 14.5849V24.7736H139.107V14.5849H142.511V11.1887H145.916V1H139.107V11.1887H132.299V1H125.49V11.1887H128.894V14.5849H132.299ZM1 37.2264V61H18.0213V57.6038H21.4255V54.2075H24.8298V44.0189H21.4255V40.6226H18.0213V37.2264H1ZM14.617 57.6038H7.80851V40.6226H14.617V44.0189H18.0213V54.2075H14.617V57.6038ZM28.234 37.2264V61H35.0426V54.2075H38.4468V57.6038H41.8511V61H52.0638V57.6038H48.6596V54.2075H45.2553V50.8113H52.0638V40.6226H48.6596V37.2264H28.234ZM41.8511 50.8113H35.0426V40.6226H45.2553V47.4151H41.8511V50.8113ZM55.4681 61V44.0189H58.8723V40.6226H62.2766V37.2264H72.4894V40.6226H75.8936V44.0189H79.2979V61H72.4894V54.2075H62.2766V61H55.4681ZM62.2766 50.8113H72.4894V44.0189H69.0851V40.6226H65.6809V44.0189H62.2766V50.8113ZM89.5106 57.6038V61H106.532V47.4151H96.3192V50.8113H99.7234V57.6038H92.9149V54.2075H89.5106V44.0189H92.9149V40.6226H106.532V37.2264H89.5106V40.6226H86.1064V44.0189H82.7021V54.2075H86.1064V57.6038H89.5106ZM113.34 61V57.6038H109.936V40.6226H113.34V37.2264H130.362V40.6226H133.766V57.6038H130.362V61H113.34ZM116.745 57.6038H126.957V40.6226H116.745V57.6038ZM137.17 37.2264V61H143.979V47.4151H147.383V50.8113H150.787V54.2075H154.191V61H161V37.2264H154.191V47.4151H150.787V44.0189H147.383V40.6226H143.979V37.2264H137.17Z"/>
</mask>
<path fill-rule="evenodd" clip-rule="evenodd" d="M16.5539 24.7736V1H23.3624V21.3774H36.9795V24.7736H16.5539ZM43.788 24.7736V21.3774H40.3837V4.39622H43.788V1H60.8092V4.39622H64.2135V21.3774H60.8092V24.7736H43.788ZM47.1922 21.3774H57.405V4.39622H47.1922V21.3774ZM71.022 21.3774V24.7736H88.0433V21.3774H91.4475V4.39622H88.0433V1H71.022V4.39622H67.6178V21.3774H71.022ZM84.639 21.3774H74.4263V4.39622H84.639V21.3774ZM94.8518 24.7736V1H101.66V4.39622H105.065V7.79245H108.469V11.1887H111.873V1H118.682V24.7736H111.873V17.9811H108.469V14.5849H105.065V11.1887H101.66V24.7736H94.8518ZM132.299 14.5849V24.7736H139.107V14.5849H142.511V11.1887H145.916V1H139.107V11.1887H132.299V1H125.49V11.1887H128.894V14.5849H132.299ZM1 37.2264V61H18.0213V57.6038H21.4255V54.2075H24.8298V44.0189H21.4255V40.6226H18.0213V37.2264H1ZM14.617 57.6038H7.80851V40.6226H14.617V44.0189H18.0213V54.2075H14.617V57.6038ZM28.234 37.2264V61H35.0426V54.2075H38.4468V57.6038H41.8511V61H52.0638V57.6038H48.6596V54.2075H45.2553V50.8113H52.0638V40.6226H48.6596V37.2264H28.234ZM41.8511 50.8113H35.0426V40.6226H45.2553V47.4151H41.8511V50.8113ZM55.4681 61V44.0189H58.8723V40.6226H62.2766V37.2264H72.4894V40.6226H75.8936V44.0189H79.2979V61H72.4894V54.2075H62.2766V61H55.4681ZM62.2766 50.8113H72.4894V44.0189H69.0851V40.6226H65.6809V44.0189H62.2766V50.8113ZM89.5106 57.6038V61H106.532V47.4151H96.3192V50.8113H99.7234V57.6038H92.9149V54.2075H89.5106V44.0189H92.9149V40.6226H106.532V37.2264H89.5106V40.6226H86.1064V44.0189H82.7021V54.2075H86.1064V57.6038H89.5106ZM113.34 61V57.6038H109.936V40.6226H113.34V37.2264H130.362V40.6226H133.766V57.6038H130.362V61H113.34ZM116.745 57.6038H126.957V40.6226H116.745V57.6038ZM137.17 37.2264V61H143.979V47.4151H147.383V50.8113H150.787V54.2075H154.191V61H161V37.2264H154.191V47.4151H150.787V44.0189H147.383V40.6226H143.979V37.2264H137.17Z" fill="white"/>
<path d="M16.5539 1V0H15.5539V1H16.5539ZM16.5539 24.7736H15.5539V25.7736H16.5539V24.7736ZM23.3624 1H24.3624V0H23.3624V1ZM23.3624 21.3774H22.3624V22.3774H23.3624V21.3774ZM36.9795 21.3774H37.9795V20.3774H36.9795V21.3774ZM36.9795 24.7736V25.7736H37.9795V24.7736H36.9795ZM43.788 21.3774H44.788V20.3774H43.788V21.3774ZM43.788 24.7736H42.788V25.7736H43.788V24.7736ZM40.3837 21.3774H39.3837V22.3774H40.3837V21.3774ZM40.3837 4.39622V3.39622H39.3837V4.39622H40.3837ZM43.788 4.39622V5.39622H44.788V4.39622H43.788ZM43.788 1V0H42.788V1H43.788ZM60.8092 1H61.8092V0H60.8092V1ZM60.8092 4.39622H59.8092V5.39622H60.8092V4.39622ZM64.2135 4.39622H65.2135V3.39622H64.2135V4.39622ZM64.2135 21.3774V22.3774H65.2135V21.3774H64.2135ZM60.8092 21.3774V20.3774H59.8092V21.3774H60.8092ZM60.8092 24.7736V25.7736H61.8092V24.7736H60.8092ZM57.405 21.3774V22.3774H58.405V21.3774H57.405ZM47.1922 21.3774H46.1922V22.3774H47.1922V21.3774ZM57.405 4.39622H58.405V3.39622H57.405V4.39622ZM47.1922 4.39622V3.39622H46.1922V4.39622H47.1922ZM71.022 24.7736H70.022V25.7736H71.022V24.7736ZM71.022 21.3774H72.022V20.3774H71.022V21.3774ZM88.0433 24.7736V25.7736H89.0433V24.7736H88.0433ZM88.0433 21.3774V20.3774H87.0433V21.3774H88.0433ZM91.4475 21.3774V22.3774H92.4475V21.3774H91.4475ZM91.4475 4.39622H92.4475V3.39622H91.4475V4.39622ZM88.0433 4.39622H87.0433V5.39622H88.0433V4.39622ZM88.0433 1H89.0433V0H88.0433V1ZM71.022 1V0H70.022V1H71.022ZM71.022 4.39622V5.39622H72.022V4.39622H71.022ZM67.6178 4.39622V3.39622H66.6178V4.39622H67.6178ZM67.6178 21.3774H66.6178V22.3774H67.6178V21.3774ZM74.4263 21.3774H73.4263V22.3774H74.4263V21.3774ZM84.639 21.3774V22.3774H85.639V21.3774H84.639ZM74.4263 4.39622V3.39622H73.4263V4.39622H74.4263ZM84.639 4.39622H85.639V3.39622H84.639V4.39622ZM94.8518 1V0H93.8518V1H94.8518ZM94.8518 24.7736H93.8518V25.7736H94.8518V24.7736ZM101.66 1H102.66V0H101.66V1ZM101.66 4.39622H100.66V5.39622H101.66V4.39622ZM105.065 4.39622H106.065V3.39622H105.065V4.39622ZM105.065 7.79245H104.065V8.79245H105.065V7.79245ZM108.469 7.79245H109.469V6.79245H108.469V7.79245ZM108.469 11.1887H107.469V12.1887H108.469V11.1887ZM111.873 11.1887V12.1887H112.873V11.1887H111.873ZM111.873 1V0H110.873V1H111.873ZM118.682 1H119.682V0H118.682V1ZM118.682 24.7736V25.7736H119.682V24.7736H118.682ZM111.873 24.7736H110.873V25.7736H111.873V24.7736ZM111.873 17.9811H112.873V16.9811H111.873V17.9811ZM108.469 17.9811H107.469V18.9811H108.469V17.9811ZM108.469 14.5849H109.469V13.5849H108.469V14.5849ZM105.065 14.5849H104.065V15.5849H105.065V14.5849ZM105.065 11.1887H106.065V10.1887H105.065V11.1887ZM101.66 11.1887V10.1887H100.66V11.1887H101.66ZM101.66 24.7736V25.7736H102.66V24.7736H101.66ZM132.299 24.7736H131.299V25.7736H132.299V24.7736ZM132.299 14.5849H133.299V13.5849H132.299V14.5849ZM139.107 24.7736V25.7736H140.107V24.7736H139.107ZM139.107 14.5849V13.5849H138.107V14.5849H139.107ZM142.511 14.5849V15.5849H143.511V14.5849H142.511ZM142.511 11.1887V10.1887H141.511V11.1887H142.511ZM145.916 11.1887V12.1887H146.916V11.1887H145.916ZM145.916 1H146.916V0H145.916V1ZM139.107 1V0H138.107V1H139.107ZM139.107 11.1887V12.1887H140.107V11.1887H139.107ZM132.299 11.1887H131.299V12.1887H132.299V11.1887ZM132.299 1H133.299V0H132.299V1ZM125.49 1V0H124.49V1H125.49ZM125.49 11.1887H124.49V12.1887H125.49V11.1887ZM128.894 11.1887H129.894V10.1887H128.894V11.1887ZM128.894 14.5849H127.894V15.5849H128.894V14.5849ZM1 61H0V62H1V61ZM1 37.2264V36.2264H0V37.2264H1ZM18.0213 61V62H19.0213V61H18.0213ZM18.0213 57.6038V56.6038H17.0213V57.6038H18.0213ZM21.4255 57.6038V58.6038H22.4255V57.6038H21.4255ZM21.4255 54.2075V53.2075H20.4255V54.2075H21.4255ZM24.8298 54.2075V55.2075H25.8298V54.2075H24.8298ZM24.8298 44.0189H25.8298V43.0189H24.8298V44.0189ZM21.4255 44.0189H20.4255V45.0189H21.4255V44.0189ZM21.4255 40.6226H22.4255V39.6226H21.4255V40.6226ZM18.0213 40.6226H17.0213V41.6226H18.0213V40.6226ZM18.0213 37.2264H19.0213V36.2264H18.0213V37.2264ZM7.80851 57.6038H6.80851V58.6038H7.80851V57.6038ZM14.617 57.6038V58.6038H15.617V57.6038H14.617ZM7.80851 40.6226V39.6226H6.80851V40.6226H7.80851ZM14.617 40.6226H15.617V39.6226H14.617V40.6226ZM14.617 44.0189H13.617V45.0189H14.617V44.0189ZM18.0213 44.0189H19.0213V43.0189H18.0213V44.0189ZM18.0213 54.2075V55.2075H19.0213V54.2075H18.0213ZM14.617 54.2075V53.2075H13.617V54.2075H14.617ZM28.234 61H27.234V62H28.234V61ZM28.234 37.2264V36.2264H27.234V37.2264H28.234ZM35.0426 61V62H36.0426V61H35.0426ZM35.0426 54.2075V53.2075H34.0426V54.2075H35.0426ZM38.4468 54.2075H39.4468V53.2075H38.4468V54.2075ZM38.4468 57.6038H37.4468V58.6038H38.4468V57.6038ZM41.8511 57.6038H42.8511V56.6038H41.8511V57.6038ZM41.8511 61H40.8511V62H41.8511V61ZM52.0638 61V62H53.0638V61H52.0638ZM52.0638 57.6038H53.0638V56.6038H52.0638V57.6038ZM48.6596 57.6038H47.6596V58.6038H48.6596V57.6038ZM48.6596 54.2075H49.6596V53.2075H48.6596V54.2075ZM45.2553 54.2075H44.2553V55.2075H45.2553V54.2075ZM45.2553 50.8113V49.8113H44.2553V50.8113H45.2553ZM52.0638 50.8113V51.8113H53.0638V50.8113H52.0638ZM52.0638 40.6226H53.0638V39.6226H52.0638V40.6226ZM48.6596 40.6226H47.6596V41.6226H48.6596V40.6226ZM48.6596 37.2264H49.6596V36.2264H48.6596V37.2264ZM35.0426 50.8113H34.0426V51.8113H35.0426V50.8113ZM41.8511 50.8113V51.8113H42.8511V50.8113H41.8511ZM35.0426 40.6226V39.6226H34.0426V40.6226H35.0426ZM45.2553 40.6226H46.2553V39.6226H45.2553V40.6226ZM45.2553 47.4151V48.4151H46.2553V47.4151H45.2553ZM41.8511 47.4151V46.4151H40.8511V47.4151H41.8511ZM55.4681 44.0189V43.0189H54.4681V44.0189H55.4681ZM55.4681 61H54.4681V62H55.4681V61ZM58.8723 44.0189V45.0189H59.8723V44.0189H58.8723ZM58.8723 40.6226V39.6226H57.8723V40.6226H58.8723ZM62.2766 40.6226V41.6226H63.2766V40.6226H62.2766ZM62.2766 37.2264V36.2264H61.2766V37.2264H62.2766ZM72.4894 37.2264H73.4894V36.2264H72.4894V37.2264ZM72.4894 40.6226H71.4894V41.6226H72.4894V40.6226ZM75.8936 40.6226H76.8936V39.6226H75.8936V40.6226ZM75.8936 44.0189H74.8936V45.0189H75.8936V44.0189ZM79.2979 44.0189H80.2979V43.0189H79.2979V44.0189ZM79.2979 61V62H80.2979V61H79.2979ZM72.4894 61H71.4894V62H72.4894V61ZM72.4894 54.2075H73.4894V53.2075H72.4894V54.2075ZM62.2766 54.2075V53.2075H61.2766V54.2075H62.2766ZM62.2766 61V62H63.2766V61H62.2766ZM72.4894 50.8113V51.8113H73.4894V50.8113H72.4894ZM62.2766 50.8113H61.2766V51.8113H62.2766V50.8113ZM72.4894 44.0189H73.4894V43.0189H72.4894V44.0189ZM69.0851 44.0189H68.0851V45.0189H69.0851V44.0189ZM69.0851 40.6226H70.0851V39.6226H69.0851V40.6226ZM65.6809 40.6226V39.6226H64.6809V40.6226H65.6809ZM65.6809 44.0189V45.0189H66.6809V44.0189H65.6809ZM62.2766 44.0189V43.0189H61.2766V44.0189H62.2766ZM89.5106 61H88.5106V62H89.5106V61ZM89.5106 57.6038H90.5106V56.6038H89.5106V57.6038ZM106.532 61V62H107.532V61H106.532ZM106.532 47.4151H107.532V46.4151H106.532V47.4151ZM96.3192 47.4151V46.4151H95.3192V47.4151H96.3192ZM96.3192 50.8113H95.3192V51.8113H96.3192V50.8113ZM99.7234 50.8113H100.723V49.8113H99.7234V50.8113ZM99.7234 57.6038V58.6038H100.723V57.6038H99.7234ZM92.9149 57.6038H91.9149V58.6038H92.9149V57.6038ZM92.9149 54.2075H93.9149V53.2075H92.9149V54.2075ZM89.5106 54.2075H88.5106V55.2075H89.5106V54.2075ZM89.5106 44.0189V43.0189H88.5106V44.0189H89.5106ZM92.9149 44.0189V45.0189H93.9149V44.0189H92.9149ZM92.9149 40.6226V39.6226H91.9149V40.6226H92.9149ZM106.532 40.6226V41.6226H107.532V40.6226H106.532ZM106.532 37.2264H107.532V36.2264H106.532V37.2264ZM89.5106 37.2264V36.2264H88.5106V37.2264H89.5106ZM89.5106 40.6226V41.6226H90.5106V40.6226H89.5106ZM86.1064 40.6226V39.6226H85.1064V40.6226H86.1064ZM86.1064 44.0189V45.0189H87.1064V44.0189H86.1064ZM82.7021 44.0189V43.0189H81.7021V44.0189H82.7021ZM82.7021 54.2075H81.7021V55.2075H82.7021V54.2075ZM86.1064 54.2075H87.1064V53.2075H86.1064V54.2075ZM86.1064 57.6038H85.1064V58.6038H86.1064V57.6038ZM113.34 57.6038H114.34V56.6038H113.34V57.6038ZM113.34 61H112.34V62H113.34V61ZM109.936 57.6038H108.936V58.6038H109.936V57.6038ZM109.936 40.6226V39.6226H108.936V40.6226H109.936ZM113.34 40.6226V41.6226H114.34V40.6226H113.34ZM113.34 37.2264V36.2264H112.34V37.2264H113.34ZM130.362 37.2264H131.362V36.2264H130.362V37.2264ZM130.362 40.6226H129.362V41.6226H130.362V40.6226ZM133.766 40.6226H134.766V39.6226H133.766V40.6226ZM133.766 57.6038V58.6038H134.766V57.6038H133.766ZM130.362 57.6038V56.6038H129.362V57.6038H130.362ZM130.362 61V62H131.362V61H130.362ZM126.957 57.6038V58.6038H127.957V57.6038H126.957ZM116.745 57.6038H115.745V58.6038H116.745V57.6038ZM126.957 40.6226H127.957V39.6226H126.957V40.6226ZM116.745 40.6226V39.6226H115.745V40.6226H116.745ZM137.17 61H136.17V62H137.17V61ZM137.17 37.2264V36.2264H136.17V37.2264H137.17ZM143.979 61V62H144.979V61H143.979ZM143.979 47.4151V46.4151H142.979V47.4151H143.979ZM147.383 47.4151H148.383V46.4151H147.383V47.4151ZM147.383 50.8113H146.383V51.8113H147.383V50.8113ZM150.787 50.8113H151.787V49.8113H150.787V50.8113ZM150.787 54.2075H149.787V55.2075H150.787V54.2075ZM154.191 54.2075H155.191V53.2075H154.191V54.2075ZM154.191 61H153.191V62H154.191V61ZM161 61V62H162V61H161ZM161 37.2264H162V36.2264H161V37.2264ZM154.191 37.2264V36.2264H153.191V37.2264H154.191ZM154.191 47.4151V48.4151H155.191V47.4151H154.191ZM150.787 47.4151H149.787V48.4151H150.787V47.4151ZM150.787 44.0189H151.787V43.0189H150.787V44.0189ZM147.383 44.0189H146.383V45.0189H147.383V44.0189ZM147.383 40.6226H148.383V39.6226H147.383V40.6226ZM143.979 40.6226H142.979V41.6226H143.979V40.6226ZM143.979 37.2264H144.979V36.2264H143.979V37.2264ZM15.5539 1V24.7736H17.5539V1H15.5539ZM23.3624 0H16.5539V2H23.3624V0ZM24.3624 21.3774V1H22.3624V21.3774H24.3624ZM36.9795 20.3774H23.3624V22.3774H36.9795V20.3774ZM37.9795 24.7736V21.3774H35.9795V24.7736H37.9795ZM16.5539 25.7736H36.9795V23.7736H16.5539V25.7736ZM42.788 21.3774V24.7736H44.788V21.3774H42.788ZM40.3837 22.3774H43.788V20.3774H40.3837V22.3774ZM39.3837 4.39622V21.3774H41.3837V4.39622H39.3837ZM43.788 3.39622H40.3837V5.39622H43.788V3.39622ZM42.788 1V4.39622H44.788V1H42.788ZM60.8092 0H43.788V2H60.8092V0ZM61.8092 4.39622V1H59.8092V4.39622H61.8092ZM64.2135 3.39622H60.8092V5.39622H64.2135V3.39622ZM65.2135 21.3774V4.39622H63.2135V21.3774H65.2135ZM60.8092 22.3774H64.2135V20.3774H60.8092V22.3774ZM61.8092 24.7736V21.3774H59.8092V24.7736H61.8092ZM43.788 25.7736H60.8092V23.7736H43.788V25.7736ZM57.405 20.3774H47.1922V22.3774H57.405V20.3774ZM56.405 4.39622V21.3774H58.405V4.39622H56.405ZM47.1922 5.39622H57.405V3.39622H47.1922V5.39622ZM48.1922 21.3774V4.39622H46.1922V21.3774H48.1922ZM72.022 24.7736V21.3774H70.022V24.7736H72.022ZM88.0433 23.7736H71.022V25.7736H88.0433V23.7736ZM87.0433 21.3774V24.7736H89.0433V21.3774H87.0433ZM91.4475 20.3774H88.0433V22.3774H91.4475V20.3774ZM90.4475 4.39622V21.3774H92.4475V4.39622H90.4475ZM88.0433 5.39622H91.4475V3.39622H88.0433V5.39622ZM87.0433 1V4.39622H89.0433V1H87.0433ZM71.022 2H88.0433V0H71.022V2ZM72.022 4.39622V1H70.022V4.39622H72.022ZM67.6178 5.39622H71.022V3.39622H67.6178V5.39622ZM68.6178 21.3774V4.39622H66.6178V21.3774H68.6178ZM71.022 20.3774H67.6178V22.3774H71.022V20.3774ZM74.4263 22.3774H84.639V20.3774H74.4263V22.3774ZM73.4263 4.39622V21.3774H75.4263V4.39622H73.4263ZM84.639 3.39622H74.4263V5.39622H84.639V3.39622ZM85.639 21.3774V4.39622H83.639V21.3774H85.639ZM93.8518 1V24.7736H95.8518V1H93.8518ZM101.66 0H94.8518V2H101.66V0ZM102.66 4.39622V1H100.66V4.39622H102.66ZM105.065 3.39622H101.66V5.39622H105.065V3.39622ZM106.065 7.79245V4.39622H104.065V7.79245H106.065ZM108.469 6.79245H105.065V8.79245H108.469V6.79245ZM109.469 11.1887V7.79245H107.469V11.1887H109.469ZM111.873 10.1887H108.469V12.1887H111.873V10.1887ZM110.873 1V11.1887H112.873V1H110.873ZM118.682 0H111.873V2H118.682V0ZM119.682 24.7736V1H117.682V24.7736H119.682ZM111.873 25.7736H118.682V23.7736H111.873V25.7736ZM110.873 17.9811V24.7736H112.873V17.9811H110.873ZM108.469 18.9811H111.873V16.9811H108.469V18.9811ZM107.469 14.5849V17.9811H109.469V14.5849H107.469ZM105.065 15.5849H108.469V13.5849H105.065V15.5849ZM104.065 11.1887V14.5849H106.065V11.1887H104.065ZM101.66 12.1887H105.065V10.1887H101.66V12.1887ZM102.66 24.7736V11.1887H100.66V24.7736H102.66ZM94.8518 25.7736H101.66V23.7736H94.8518V25.7736ZM133.299 24.7736V14.5849H131.299V24.7736H133.299ZM139.107 23.7736H132.299V25.7736H139.107V23.7736ZM138.107 14.5849V24.7736H140.107V14.5849H138.107ZM142.511 13.5849H139.107V15.5849H142.511V13.5849ZM141.511 11.1887V14.5849H143.511V11.1887H141.511ZM145.916 10.1887H142.511V12.1887H145.916V10.1887ZM144.916 1V11.1887H146.916V1H144.916ZM139.107 2H145.916V0H139.107V2ZM140.107 11.1887V1H138.107V11.1887H140.107ZM132.299 12.1887H139.107V10.1887H132.299V12.1887ZM131.299 1V11.1887H133.299V1H131.299ZM125.49 2H132.299V0H125.49V2ZM126.49 11.1887V1H124.49V11.1887H126.49ZM128.894 10.1887H125.49V12.1887H128.894V10.1887ZM129.894 14.5849V11.1887H127.894V14.5849H129.894ZM132.299 13.5849H128.894V15.5849H132.299V13.5849ZM2 61V37.2264H0V61H2ZM18.0213 60H1V62H18.0213V60ZM17.0213 57.6038V61H19.0213V57.6038H17.0213ZM21.4255 56.6038H18.0213V58.6038H21.4255V56.6038ZM20.4255 54.2075V57.6038H22.4255V54.2075H20.4255ZM24.8298 53.2075H21.4255V55.2075H24.8298V53.2075ZM23.8298 44.0189V54.2075H25.8298V44.0189H23.8298ZM21.4255 45.0189H24.8298V43.0189H21.4255V45.0189ZM20.4255 40.6226V44.0189H22.4255V40.6226H20.4255ZM18.0213 41.6226H21.4255V39.6226H18.0213V41.6226ZM17.0213 37.2264V40.6226H19.0213V37.2264H17.0213ZM1 38.2264H18.0213V36.2264H1V38.2264ZM7.80851 58.6038H14.617V56.6038H7.80851V58.6038ZM6.80851 40.6226V57.6038H8.80851V40.6226H6.80851ZM14.617 39.6226H7.80851V41.6226H14.617V39.6226ZM15.617 44.0189V40.6226H13.617V44.0189H15.617ZM18.0213 43.0189H14.617V45.0189H18.0213V43.0189ZM19.0213 54.2075V44.0189H17.0213V54.2075H19.0213ZM14.617 55.2075H18.0213V53.2075H14.617V55.2075ZM15.617 57.6038V54.2075H13.617V57.6038H15.617ZM29.234 61V37.2264H27.234V61H29.234ZM35.0426 60H28.234V62H35.0426V60ZM34.0426 54.2075V61H36.0426V54.2075H34.0426ZM38.4468 53.2075H35.0426V55.2075H38.4468V53.2075ZM39.4468 57.6038V54.2075H37.4468V57.6038H39.4468ZM41.8511 56.6038H38.4468V58.6038H41.8511V56.6038ZM42.8511 61V57.6038H40.8511V61H42.8511ZM52.0638 60H41.8511V62H52.0638V60ZM51.0638 57.6038V61H53.0638V57.6038H51.0638ZM48.6596 58.6038H52.0638V56.6038H48.6596V58.6038ZM47.6596 54.2075V57.6038H49.6596V54.2075H47.6596ZM45.2553 55.2075H48.6596V53.2075H45.2553V55.2075ZM44.2553 50.8113V54.2075H46.2553V50.8113H44.2553ZM52.0638 49.8113H45.2553V51.8113H52.0638V49.8113ZM51.0638 40.6226V50.8113H53.0638V40.6226H51.0638ZM48.6596 41.6226H52.0638V39.6226H48.6596V41.6226ZM47.6596 37.2264V40.6226H49.6596V37.2264H47.6596ZM28.234 38.2264H48.6596V36.2264H28.234V38.2264ZM35.0426 51.8113H41.8511V49.8113H35.0426V51.8113ZM34.0426 40.6226V50.8113H36.0426V40.6226H34.0426ZM45.2553 39.6226H35.0426V41.6226H45.2553V39.6226ZM46.2553 47.4151V40.6226H44.2553V47.4151H46.2553ZM41.8511 48.4151H45.2553V46.4151H41.8511V48.4151ZM42.8511 50.8113V47.4151H40.8511V50.8113H42.8511ZM54.4681 44.0189V61H56.4681V44.0189H54.4681ZM58.8723 43.0189H55.4681V45.0189H58.8723V43.0189ZM57.8723 40.6226V44.0189H59.8723V40.6226H57.8723ZM62.2766 39.6226H58.8723V41.6226H62.2766V39.6226ZM61.2766 37.2264V40.6226H63.2766V37.2264H61.2766ZM72.4894 36.2264H62.2766V38.2264H72.4894V36.2264ZM73.4894 40.6226V37.2264H71.4894V40.6226H73.4894ZM75.8936 39.6226H72.4894V41.6226H75.8936V39.6226ZM76.8936 44.0189V40.6226H74.8936V44.0189H76.8936ZM79.2979 43.0189H75.8936V45.0189H79.2979V43.0189ZM80.2979 61V44.0189H78.2979V61H80.2979ZM72.4894 62H79.2979V60H72.4894V62ZM71.4894 54.2075V61H73.4894V54.2075H71.4894ZM62.2766 55.2075H72.4894V53.2075H62.2766V55.2075ZM63.2766 61V54.2075H61.2766V61H63.2766ZM55.4681 62H62.2766V60H55.4681V62ZM72.4894 49.8113H62.2766V51.8113H72.4894V49.8113ZM71.4894 44.0189V50.8113H73.4894V44.0189H71.4894ZM69.0851 45.0189H72.4894V43.0189H69.0851V45.0189ZM68.0851 40.6226V44.0189H70.0851V40.6226H68.0851ZM65.6809 41.6226H69.0851V39.6226H65.6809V41.6226ZM66.6809 44.0189V40.6226H64.6809V44.0189H66.6809ZM62.2766 45.0189H65.6809V43.0189H62.2766V45.0189ZM63.2766 50.8113V44.0189H61.2766V50.8113H63.2766ZM90.5106 61V57.6038H88.5106V61H90.5106ZM106.532 60H89.5106V62H106.532V60ZM105.532 47.4151V61H107.532V47.4151H105.532ZM96.3192 48.4151H106.532V46.4151H96.3192V48.4151ZM97.3192 50.8113V47.4151H95.3192V50.8113H97.3192ZM99.7234 49.8113H96.3192V51.8113H99.7234V49.8113ZM100.723 57.6038V50.8113H98.7234V57.6038H100.723ZM92.9149 58.6038H99.7234V56.6038H92.9149V58.6038ZM91.9149 54.2075V57.6038H93.9149V54.2075H91.9149ZM89.5106 55.2075H92.9149V53.2075H89.5106V55.2075ZM88.5106 44.0189V54.2075H90.5106V44.0189H88.5106ZM92.9149 43.0189H89.5106V45.0189H92.9149V43.0189ZM91.9149 40.6226V44.0189H93.9149V40.6226H91.9149ZM106.532 39.6226H92.9149V41.6226H106.532V39.6226ZM105.532 37.2264V40.6226H107.532V37.2264H105.532ZM89.5106 38.2264H106.532V36.2264H89.5106V38.2264ZM90.5106 40.6226V37.2264H88.5106V40.6226H90.5106ZM86.1064 41.6226H89.5106V39.6226H86.1064V41.6226ZM87.1064 44.0189V40.6226H85.1064V44.0189H87.1064ZM82.7021 45.0189H86.1064V43.0189H82.7021V45.0189ZM83.7021 54.2075V44.0189H81.7021V54.2075H83.7021ZM86.1064 53.2075H82.7021V55.2075H86.1064V53.2075ZM87.1064 57.6038V54.2075H85.1064V57.6038H87.1064ZM89.5106 56.6038H86.1064V58.6038H89.5106V56.6038ZM112.34 57.6038V61H114.34V57.6038H112.34ZM109.936 58.6038H113.34V56.6038H109.936V58.6038ZM108.936 40.6226V57.6038H110.936V40.6226H108.936ZM113.34 39.6226H109.936V41.6226H113.34V39.6226ZM112.34 37.2264V40.6226H114.34V37.2264H112.34ZM130.362 36.2264H113.34V38.2264H130.362V36.2264ZM131.362 40.6226V37.2264H129.362V40.6226H131.362ZM133.766 39.6226H130.362V41.6226H133.766V39.6226ZM134.766 57.6038V40.6226H132.766V57.6038H134.766ZM130.362 58.6038H133.766V56.6038H130.362V58.6038ZM131.362 61V57.6038H129.362V61H131.362ZM113.34 62H130.362V60H113.34V62ZM126.957 56.6038H116.745V58.6038H126.957V56.6038ZM125.957 40.6226V57.6038H127.957V40.6226H125.957ZM116.745 41.6226H126.957V39.6226H116.745V41.6226ZM117.745 57.6038V40.6226H115.745V57.6038H117.745ZM138.17 61V37.2264H136.17V61H138.17ZM143.979 60H137.17V62H143.979V60ZM142.979 47.4151V61H144.979V47.4151H142.979ZM147.383 46.4151H143.979V48.4151H147.383V46.4151ZM148.383 50.8113V47.4151H146.383V50.8113H148.383ZM150.787 49.8113H147.383V51.8113H150.787V49.8113ZM151.787 54.2075V50.8113H149.787V54.2075H151.787ZM154.191 53.2075H150.787V55.2075H154.191V53.2075ZM155.191 61V54.2075H153.191V61H155.191ZM161 60H154.191V62H161V60ZM160 37.2264V61H162V37.2264H160ZM154.191 38.2264H161V36.2264H154.191V38.2264ZM155.191 47.4151V37.2264H153.191V47.4151H155.191ZM150.787 48.4151H154.191V46.4151H150.787V48.4151ZM149.787 44.0189V47.4151H151.787V44.0189H149.787ZM147.383 45.0189H150.787V43.0189H147.383V45.0189ZM146.383 40.6226V44.0189H148.383V40.6226H146.383ZM143.979 41.6226H147.383V39.6226H143.979V41.6226ZM142.979 37.2264V40.6226H144.979V37.2264H142.979ZM137.17 38.2264H143.979V36.2264H137.17V38.2264Z" fill="#3BBBE9" mask="url(#path-1-outside-1)"/>
</svg>
