<?xml version="1.0" encoding="UTF-8"?><!DOCTYPE svg PUBLIC "-//W3C//DTD SVG 1.1//EN" "http://www.w3.org/Graphics/SVG/1.1/DTD/svg11.dtd"><svg xmlns="http://www.w3.org/2000/svg"><defs>
        <radialGradient id="bronzeCup-a" cx="0" cy="0" r="1" gradientUnits="userSpaceOnUse" gradientTransform="rotate(-114.394 9.082 1.61) scale(11.275 7.81942)">
            <stop stop-color="#EF893C"/>
            <stop offset=".9" stop-color="#D97226"/>
        </radialGradient>
        <linearGradient id="bronzeCup-b" x1="3.71" y1="4.91" x2="5.851" y2="4.91" gradientUnits="userSpaceOnUse">
            <stop offset=".1" stop-color="#D1722C"/>
            <stop offset=".341" stop-color="#EF893C"/>
        </linearGradient>
        <linearGradient id="bronzeCup-c" x1="14.04" y1="1.798" x2="10.598" y2="13.101" gradientUnits="userSpaceOnUse">
            <stop stop-color="#fff"/>
            <stop offset="1" stop-color="#fff" stop-opacity="0"/>
        </linearGradient>
        <linearGradient id="bronzeCup-d" x1="13.343" y1="19.145" x2="12.423" y2="18.774" gradientUnits="userSpaceOnUse">
            <stop stop-color="#fff"/>
            <stop offset="1" stop-color="#fff" stop-opacity="0"/>
        </linearGradient>
        <linearGradient id="bronzeCup-e" x1="13.808" y1="21.358" x2="11.379" y2="21.738" gradientUnits="userSpaceOnUse">
            <stop stop-color="#fff"/>
            <stop offset="1" stop-color="#fff" stop-opacity="0"/>
        </linearGradient>
        <linearGradient id="bronzeCup-f" x1="17.745" y1="4.91" x2="19.907" y2="4.91" gradientUnits="userSpaceOnUse">
            <stop offset=".1" stop-color="#D1722C"/>
            <stop offset=".341" stop-color="#EF893C"/>
        </linearGradient>
    
        <radialGradient id="cup-bronze-without-number-a" cx="0" cy="0" r="1" gradientUnits="userSpaceOnUse" gradientTransform="matrix(-6.20934 -13.69223 9.49579 -4.30628 15.158 14.062)">
            <stop stop-color="#EF893C"/>
            <stop offset=".9" stop-color="#D97226"/>
        </radialGradient>
        <linearGradient id="cup-bronze-without-number-b" x1="4.947" y1="6.548" x2="7.801" y2="6.548" gradientUnits="userSpaceOnUse">
            <stop offset=".1" stop-color="#D1722C"/>
            <stop offset=".341" stop-color="#EF893C"/>
        </linearGradient>
        <linearGradient id="cup-bronze-without-number-c" x1="18.721" y1="2.397" x2="14.132" y2="17.47" gradientUnits="userSpaceOnUse">
            <stop stop-color="#fff"/>
            <stop offset="1" stop-color="#fff" stop-opacity="0"/>
        </linearGradient>
        <linearGradient id="cup-bronze-without-number-d" x1="17.792" y1="25.529" x2="16.565" y2="25.034" gradientUnits="userSpaceOnUse">
            <stop stop-color="#fff"/>
            <stop offset="1" stop-color="#fff" stop-opacity="0"/>
        </linearGradient>
        <linearGradient id="cup-bronze-without-number-e" x1="18.413" y1="28.48" x2="15.173" y2="28.986" gradientUnits="userSpaceOnUse">
            <stop stop-color="#fff"/>
            <stop offset="1" stop-color="#fff" stop-opacity="0"/>
        </linearGradient>
        <linearGradient id="cup-bronze-without-number-f" x1="23.662" y1="6.547" x2="26.545" y2="6.547" gradientUnits="userSpaceOnUse">
            <stop offset=".1" stop-color="#D1722C"/>
            <stop offset=".341" stop-color="#EF893C"/>
        </linearGradient>
    
        <clipPath id="gmail-a"/>
    
        <clipPath id="gold-star-a">
            <path d="M0 0h24v24H0z"/>
        </clipPath>
    
        <linearGradient id="goldCup-b" x1="8.721" y1="11.143" x2="8.69" y2="10.964" gradientUnits="userSpaceOnUse">
            <stop stop-color="#fff"/>
            <stop offset="1" stop-color="#fff" stop-opacity="0"/>
        </linearGradient>
        <radialGradient id="goldCup-c" cx="0" cy="0" r="1" gradientUnits="userSpaceOnUse" gradientTransform="rotate(65.583 -1.738 12.665) scale(13.605 8.09146)">
            <stop stop-color="#FFD700"/>
            <stop offset=".339" stop-color="#FAD000"/>
            <stop offset=".837" stop-color="#EDBC00"/>
            <stop offset="1" stop-color="#E8B400"/>
        </radialGradient>
        <radialGradient id="goldCup-d" cx="0" cy="0" r="1" gradientUnits="userSpaceOnUse" gradientTransform="matrix(.8688 1.91371 -1.13816 .51671 4.336 4.697)">
            <stop stop-color="#FFD700"/>
            <stop offset=".339" stop-color="#FAD000"/>
            <stop offset=".837" stop-color="#EDBC00"/>
            <stop offset="1" stop-color="#E8B400"/>
        </radialGradient>
        <linearGradient id="goldCup-e" x1="13.939" y1="1.469" x2="10.37" y2="13.191" gradientUnits="userSpaceOnUse">
            <stop stop-color="#fff"/>
            <stop offset="1" stop-color="#fff" stop-opacity="0"/>
        </linearGradient>
        <linearGradient id="goldCup-f" x1="13.219" y1="19.463" x2="12.265" y2="19.078" gradientUnits="userSpaceOnUse">
            <stop stop-color="#fff"/>
            <stop offset="1" stop-color="#fff" stop-opacity="0"/>
        </linearGradient>
        <linearGradient id="goldCup-g" x1="13.698" y1="21.761" x2="11.178" y2="22.155" gradientUnits="userSpaceOnUse">
            <stop stop-color="#fff"/>
            <stop offset="1" stop-color="#fff" stop-opacity="0"/>
        </linearGradient>
        <radialGradient id="goldCup-h" cx="0" cy="0" r="1" gradientUnits="userSpaceOnUse" gradientTransform="rotate(114.709 7.969 8.394) scale(2.10299 1.26172)">
            <stop stop-color="#FFD700"/>
            <stop offset=".339" stop-color="#FAD000"/>
            <stop offset=".837" stop-color="#EDBC00"/>
            <stop offset="1" stop-color="#E8B400"/>
        </radialGradient>
        <clipPath id="goldCup-a">
            <path d="M0 0h24v24H0z"/>
        </clipPath>
    
        <linearGradient id="silverCup-b" x1="8.721" y1="11.143" x2="8.69" y2="10.964" gradientUnits="userSpaceOnUse">
            <stop stop-color="#fff"/>
            <stop offset="1" stop-color="#fff" stop-opacity="0"/>
        </linearGradient>
        <linearGradient id="silverCup-c" x1="7.246" y1="11.685" x2="9.695" y2="8.991" gradientUnits="userSpaceOnUse">
            <stop offset=".044" stop-color="#9DBACC"/>
            <stop offset=".997" stop-color="#ADCEE1"/>
        </linearGradient>
        <linearGradient id="silverCup-d" x1="3.226" y1="4.697" x2="5.446" y2="4.697" gradientUnits="userSpaceOnUse">
            <stop offset=".044" stop-color="#9DBACC"/>
            <stop offset=".997" stop-color="#ADCEE1"/>
        </linearGradient>
        <linearGradient id="silverCup-e" x1="13.939" y1="1.469" x2="10.37" y2="13.191" gradientUnits="userSpaceOnUse">
            <stop stop-color="#fff"/>
            <stop offset="1" stop-color="#fff" stop-opacity="0"/>
        </linearGradient>
        <linearGradient id="silverCup-f" x1="13.219" y1="19.463" x2="12.265" y2="19.078" gradientUnits="userSpaceOnUse">
            <stop stop-color="#fff"/>
            <stop offset="1" stop-color="#fff" stop-opacity="0"/>
        </linearGradient>
        <linearGradient id="silverCup-g" x1="13.698" y1="21.761" x2="11.178" y2="22.155" gradientUnits="userSpaceOnUse">
            <stop stop-color="#fff"/>
            <stop offset="1" stop-color="#fff" stop-opacity="0"/>
        </linearGradient>
        <linearGradient id="silverCup-h" x1="17.782" y1="4.697" x2="20.025" y2="4.697" gradientUnits="userSpaceOnUse">
            <stop offset=".044" stop-color="#9DBACC"/>
            <stop offset=".997" stop-color="#ADCEE1"/>
        </linearGradient>
        <clipPath id="silverCup-a">
            <path d="M0 0h24v24H0z"/>
        </clipPath>
    </defs><symbol id="ic-arrow" viewBox="0 0 18 10">
    <path d="M9.319 8.877l7.548-7.145a.411.411 0 0 0 0-.606.47.47 0 0 0-.64 0L9 7.966l-7.225-6.84a.47.47 0 0 0-.64 0 .407.407 0 0 0 0 .603l7.547 7.144a.468.468 0 0 0 .637.004z"/>
    <path d="M9.405 8.967l7.548-7.144a.536.536 0 0 0 0-.788.594.594 0 0 0-.813 0L9 7.794 1.86 1.035a.594.594 0 0 0-.812 0 .532.532 0 0 0 0 .785l7.547 7.143a.593.593 0 0 0 .81.004z" stroke-width=".25"/>
</symbol><symbol id="ic-arrowsRight" viewBox="0 0 24 24">
    <path fill-rule="evenodd" clip-rule="evenodd" d="M10 10l6-5-6-5v4H0v2h10v4zm-2 8h10v-4l6 5-6 5v-4H8v-2z"/>
</symbol><symbol id="ic-badge" viewBox="0 0 32 32">
    <path fill-rule="evenodd" clip-rule="evenodd" d="M3 12a1 1 0 0 1 1-1h24a1 1 0 0 1 1 1v16a1 1 0 0 1-1 1H4a1 1 0 0 1-1-1V12zm9 2a1 1 0 0 1 1-1h6a1 1 0 1 1 0 2h-6a1 1 0 0 1-1-1zm4.898 6.764L16 18l-.898 2.764h-2.906l2.35 1.708-.897 2.764L16 23.528l2.351 1.708-.898-2.764 2.351-1.708h-2.906zm-8.837.963L7.501 20l-.562 1.727H5.122l1.47 1.068-.561 1.727 1.47-1.067 1.469 1.068-.562-1.728 1.47-1.068H8.06zM24.378 20l.56 1.727h1.817l-1.47 1.068.562 1.727-1.47-1.067-1.469 1.068.561-1.728L22 21.727h1.816L24.378 20z"/>
    <rect x="15" y="2" width="2" height="12" rx="1"/>
</symbol><symbol id="ic-checkThin" viewBox="0 0 18 14">
    <path d="M6 11.2L1.8 7 .4 8.4 6 14 18 2 16.6.6 6 11.2z"/>
</symbol><symbol id="ic-cs-league" viewBox="0 0 16 20">
    <path d="M12.66 3.51c-.97.82-.67 2.77-1.25 2.82-.58.06-1.19-1.38-1.36-2.28-.17-.9-.62-2.24-3.02-3.75.58 3.31-1.69 3.66-1.69 6.84-.41-.98-1.42-1.67-2.8-2.06C3.55 7.46.98 8.49.92 12.41c-.06 3.92 3.27 7.3 7.3 7.3 4.03 0 7.25-3.17 7.3-7.3.06-4.12-2.86-7.66-2.86-8.9z"/>
</symbol><symbol id="ic-defuse" viewBox="0 0 24 24">
    <path d="M3.278 5.96a.949.949 0 0 0 0 1.343l3.474 3.474a.949.949 0 0 0 .788.27l1.156-.144c-.117.413-.243.909-.352 1.455-.302 1.51-.512 3.557.072 5.309.38 1.14.778 1.935 1.462 2.923a.949.949 0 1 0 1.56-1.08 8.664 8.664 0 0 1-1.221-2.443c-.423-1.268-.297-2.911-.012-4.337a17.547 17.547 0 0 1 .527-1.999l.265-.085c.433-.134 1.04-.303 1.734-.442 1.426-.285 3.069-.411 4.336.012.97.323 1.604.64 2.444 1.221a.949.949 0 1 0 1.08-1.56 10.544 10.544 0 0 0-2.923-1.462c-1.752-.584-3.799-.374-5.309-.072a19.28 19.28 0 0 0-1.456.352l.145-1.155a.949.949 0 0 0-.27-.789L7.302 3.277a.949.949 0 0 0-1.341 0L7.98 7.025a.949.949 0 1 1-.954.954L3.278 5.96z"/>
</symbol><symbol id="ic-doubleArrow" viewBox="0 0 24 24">
    <path fill-rule="evenodd" clip-rule="evenodd" d="M8.412 18.244l5.359-5.661a.851.851 0 0 0-.004-1.167L8.413 5.76a.805.805 0 0 0-1.182-.003.852.852 0 0 0 0 1.168L12.036 12 7.23 17.076a.852.852 0 0 0 0 1.168.808.808 0 0 0 1.181 0zm4 0l5.359-5.661a.851.851 0 0 0-.004-1.167L12.413 5.76a.805.805 0 0 0-1.181-.003.852.852 0 0 0 0 1.168L16.035 12l-4.805 5.076a.852.852 0 0 0 0 1.168.808.808 0 0 0 1.181 0z"/>
</symbol><symbol id="ic-exclamation" viewBox="0 0 24 24">
    <path fill-rule="evenodd" clip-rule="evenodd" d="M12 24c6.627 0 12-5.373 12-12S18.627 0 12 0 0 5.373 0 12s5.373 12 12 12zm-2-10V4h4v10h-4zm4 4a2 2 0 1 1-4 0 2 2 0 0 1 4 0z"/>
</symbol><symbol id="ic-exit" viewBox="0 0 16 16">
    <path d="M15.948 7.079a.674.674 0 0 0-.144-.218l-2-2a.667.667 0 0 0-.942.944l.862.862H10A.666.666 0 1 0 10 8h3.724l-.862.862a.666.666 0 1 0 .943.942l1.999-1.999a.667.667 0 0 0 .145-.727z"/>
    <path d="M11.333 9.333a.666.666 0 0 0-.666.667v3.333H8V2.667a.667.667 0 0 0-.475-.639l-2.316-.695h5.458v3.334a.666.666 0 1 0 1.333 0v-4A.666.666 0 0 0 11.333 0H.667C.643 0 .62.01.598.013A.668.668 0 0 0 .315.11C.301.121.283.121.27.132.263.136.26.143.256.147a.66.66 0 0 0-.177.211C.069.376.067.395.06.414.039.464.015.514.007.57.004.59.01.609.01.628.01.641 0 .653 0 .667V14c0 .318.225.591.536.653l6.667 1.334A.666.666 0 0 0 8 15.334v-.667h3.333A.666.666 0 0 0 12 14v-4a.666.666 0 0 0-.667-.667z"/>
</symbol><symbol id="ic-facebook-chapter" viewBox="0 0 13 27">
    <path d="M12.028 13.783H8.459v13.074H3.052V13.783H.481V9.188h2.571V6.215c0-2.127 1.01-5.456 5.455-5.456l4.005.017v4.46H9.607c-.477 0-1.147.238-1.147 1.252v2.704h4.04l-.472 4.59z"/>
</symbol><symbol id="ic-faceit" viewBox="0 0 20 16">
    <path d="M20 .142c0-.152-.189-.19-.265-.076-2.419 3.742-3.817 5.859-5.027 7.824H.194c-.19 0-.265.227-.114.303C6.09 10.46 14.784 13.9 19.66 15.79c.113.038.34-.076.34-.151V.142z"/>
</symbol><symbol id="ic-fire" viewBox="0 0 14 18">
    <path d="M5.324 8.467c.04.315-.296.538-.591.37-1.085-.593-1.617-1.687-2.327-2.633C1.262 7.911.395 9.561.395 11.323c0 3.58 2.7 6.306 6.507 6.306 3.805 0 6.704-2.727 6.704-6.306 0-4.488-4.989-5.267-4.93-10.942-2.011 1.335-3.904 4.321-3.352 8.086z"/>
    <path d="M6.901 18C2.9 18 0 15.2 0 11.323c0-1.947 1.006-3.709 2.07-5.322a.385.385 0 0 1 .316-.167c.138 0 .256.055.335.148.178.223.335.464.493.705.493.723.966 1.41 1.716 1.817-.572-3.839 1.36-7.01 3.51-8.438a.412.412 0 0 1 .414-.019.349.349 0 0 1 .216.334c-.039 2.875 1.302 4.451 2.583 5.953C12.817 7.688 14 9.08 14 11.324 14 15.124 10.944 18 6.901 18zM2.425 6.89C1.538 8.264.79 9.748.79 11.324c0 3.431 2.563 5.935 6.112 5.935 3.59 0 6.31-2.56 6.31-5.935 0-1.984-1.005-3.153-2.169-4.525C9.84 5.388 8.5 3.812 8.302 1.141c-1.696 1.447-3.057 4.1-2.584 7.27a.716.716 0 0 1-.355.724.826.826 0 0 1-.828 0c-.907-.5-1.44-1.298-1.972-2.059a.668.668 0 0 1-.138-.185z"/>
    <path d="M11.14 14.105a6.162 6.162 0 0 0 1.085-3.524l-1.084 3.524z"/>
    <path d="M11.14 14.476a.417.417 0 0 1-.216-.056.367.367 0 0 1-.118-.519 5.787 5.787 0 0 0 1.025-3.32c0-.204.177-.37.394-.37.217 0 .395.166.395.37a6.543 6.543 0 0 1-1.144 3.728.395.395 0 0 1-.335.167z"/>
    <path d="M9.938 15.403a3.83 3.83 0 0 0 .414-.37l-.414.37z"/>
    <path d="M9.938 15.774a.364.364 0 0 1-.296-.13.36.36 0 0 1 .04-.519c.118-.111.276-.222.374-.334a.418.418 0 0 1 .552-.037.36.36 0 0 1 .04.52 4.498 4.498 0 0 1-.454.408.43.43 0 0 1-.256.092z"/>
    <path d="M5.324 8.467c.04.315-.296.538-.591.37-1.085-.593-1.617-1.687-2.327-2.633C1.262 7.911.395 9.561.395 11.323c0 3.58 2.7 6.306 6.507 6.306 3.805 0 6.704-2.727 6.704-6.306 0-4.488-4.989-5.267-4.93-10.942-2.011 1.335-3.904 4.321-3.352 8.086z"/>
    <path d="M6.901 18C2.9 18 0 15.2 0 11.323c0-1.947 1.006-3.709 2.07-5.322a.385.385 0 0 1 .316-.167c.138 0 .256.055.335.148.178.223.335.464.493.705.493.723.966 1.41 1.716 1.817-.572-3.839 1.36-7.01 3.51-8.438a.412.412 0 0 1 .414-.019.349.349 0 0 1 .216.334c-.039 2.875 1.302 4.451 2.583 5.953C12.817 7.688 14 9.08 14 11.324 14 15.124 10.944 18 6.901 18zM2.425 6.89C1.538 8.264.79 9.748.79 11.324c0 3.431 2.563 5.935 6.112 5.935 3.59 0 6.31-2.56 6.31-5.935 0-1.984-1.005-3.153-2.169-4.525C9.84 5.388 8.5 3.812 8.302 1.141c-1.696 1.447-3.057 4.1-2.584 7.27a.716.716 0 0 1-.355.724.826.826 0 0 1-.828 0c-.907-.5-1.44-1.298-1.972-2.059a.668.668 0 0 1-.138-.185z"/>
    <circle cx="7.25" cy="12" r="2"/>
</symbol><symbol id="ic-gamepad" viewBox="0 0 24 16">
    <path d="M23.916 11.713l-2.85-8.937a1.562 1.562 0 0 0-.277-.517 4.439 4.439 0 0 0-7.337-.577h-2.983a4.438 4.438 0 0 0-7.385.65c-.072.12-.12.24-.18.36v.157l-.132.433L.102 11.7a1.72 1.72 0 0 0 .817 2.104l3.609 1.456a1.443 1.443 0 0 0 1.888-.998l.433-1.396a1.732 1.732 0 0 1 1.6-1.263h7.024a1.72 1.72 0 0 1 1.6 1.263l.444 1.396a1.432 1.432 0 0 0 1.877.998l3.608-1.455a1.72 1.72 0 0 0 .914-2.093zM8.364 6.373h-.89v.914a.704.704 0 0 1-1.407 0v-.914h-.902a.698.698 0 0 1-.697-.686.698.698 0 0 1 .697-.698h.902v-.926a.704.704 0 0 1 1.407 0v.902h.89a.698.698 0 0 1 .686.698.686.686 0 0 1-.686.71zm6.627.192a.902.902 0 1 1 .903-.902.903.903 0 0 1-.89.926l-.012-.024zm1.997 1.756a.902.902 0 1 1 .902-.902.902.902 0 0 1-.89.89l-.012.012zm0-3.476a.902.902 0 1 1 .902-.902.902.902 0 0 1-.89.89l-.012.012zm2.009 1.744a.902.902 0 1 1 0-1.804.902.902 0 0 1 0 1.804z"/>
</symbol><symbol id="ic-google-plus" viewBox="0 0 16 16">
    <path d="M16 7.111H8.533V9.6h4.556A5.335 5.335 0 0 1 2.667 8a5.333 5.333 0 0 1 9.125-3.75l1.806-1.964A8 8 0 1 0 8 16c3.87 0 7.259-2.749 8-6.4V7.111z"/>
</symbol><symbol id="ic-instagram" viewBox="0 0 16 16">
    <g>
        <path d="M11.585 0h-7.17A4.42 4.42 0 0 0 0 4.415v7.17A4.42 4.42 0 0 0 4.415 16h7.17A4.42 4.42 0 0 0 16 11.585v-7.17A4.42 4.42 0 0 0 11.585 0zm2.995 11.585a3 3 0 0 1-2.995 2.995h-7.17a3 3 0 0 1-2.995-2.995v-7.17A3 3 0 0 1 4.415 1.42h7.17a3 3 0 0 1 2.995 2.995v7.17z"/>
        <path d="M8 3.877A4.127 4.127 0 0 0 3.877 8 4.127 4.127 0 0 0 8 12.123 4.127 4.127 0 0 0 12.123 8 4.127 4.127 0 0 0 8 3.877zm0 6.826A2.706 2.706 0 0 1 5.297 8 2.706 2.706 0 0 1 8 5.297 2.706 2.706 0 0 1 10.703 8 2.706 2.706 0 0 1 8 10.703z"/>
        <path d="M12.296 2.674a1.045 1.045 0 0 0-1.041 1.04c0 .274.111.543.305.737.193.193.462.305.736.305.274 0 .542-.112.736-.305.194-.194.305-.463.305-.736 0-.275-.111-.544-.305-.737a1.046 1.046 0 0 0-.736-.304z"/>
    </g>
</symbol><symbol id="ic-linkedin" viewBox="0 0 16 17">
    <path d="M14.75.375H1.25a1.11 1.11 0 0 0-.809.352c-.21.21-.316.468-.316.773V15c0 .305.105.563.316.773.235.235.504.352.809.352h13.5a.997.997 0 0 0 .773-.352.997.997 0 0 0 .352-.773V1.5a.997.997 0 0 0-.352-.773 1.001 1.001 0 0 0-.773-.352zm-9.879 13.5h-2.32V6.352h2.355v7.523h-.035zm-1.16-8.543a1.29 1.29 0 0 1-.95-.387 1.37 1.37 0 0 1-.386-.949c0-.375.129-.691.387-.95.258-.28.574-.421.949-.421s.691.14.95.422c.28.258.421.574.421.95 0 .35-.14.667-.422.948a1.29 1.29 0 0 1-.95.387zm9.914 8.543h-2.32v-3.656c0-.61-.059-1.055-.176-1.336-.164-.445-.516-.668-1.055-.668-.539 0-.926.2-1.16.598-.164.304-.246.75-.246 1.335v3.727h-2.32V6.352h2.25v1.02h.035c.164-.329.422-.599.773-.81a2.709 2.709 0 0 1 1.442-.386c1.078 0 1.84.34 2.285 1.02.328.538.492 1.394.492 2.566v4.113z"/>
</symbol><symbol id="ic-next" viewBox="0 0 10 18">
    <path fill-rule="evenodd" d="M1.823 1.047l7.144 7.548c.21.223.21.587-.003.81L1.82 16.95a.532.532 0 0 1-.785.002.594.594 0 0 1 0-.813L7.795 9l-6.76-7.14a.594.594 0 0 1 0-.813c.218-.23.57-.23.788 0z"/>
    <path d="M1.823 1.047l7.144 7.548c.21.223.21.587-.003.81L1.82 16.95a.532.532 0 0 1-.785.002.594.594 0 0 1 0-.813L7.795 9l-6.76-7.14a.594.594 0 0 1 0-.813c.218-.23.57-.23.788 0z" stroke-width=".25" stroke-miterlimit="8"/>
</symbol><symbol id="ic-scorebox" viewBox="0 0 24 24">
    <path fill-rule="evenodd" clip-rule="evenodd" d="M4 6h16v2H4V6zM2 9V6a2 2 0 0 1 2-2h16a2 2 0 0 1 2 2v12a2 2 0 0 1-2 2H4a2 2 0 0 1-2-2V9zm18 1v8H4v-8h16zm-5.264 7c-.745 0-1.3-.206-1.667-.617-.361-.41-.559-.95-.592-1.616-.005-.15-.008-.406-.008-.767 0-.367.003-.628.008-.783.028-.656.228-1.19.6-1.6.372-.411.925-.617 1.659-.617.733 0 1.286.206 1.658.617.372.41.572.944.6 1.6.01.31.017.572.017.783 0 .211-.006.467-.017.767-.034.666-.233 1.205-.6 1.616-.361.411-.914.617-1.658.617zm0-.975c.344 0 .602-.111.774-.333.173-.228.264-.55.276-.967.005-.161.008-.408.008-.742 0-.333-.003-.575-.008-.725-.012-.405-.103-.722-.275-.95-.173-.227-.431-.344-.775-.35-.345.006-.603.123-.776.35-.172.228-.263.545-.275.95-.005.15-.008.392-.008.725 0 .334.003.58.008.742.012.417.103.739.275.967.173.222.431.333.775.333zM8 16.858a.193.193 0 0 0 .142.059h.775c.055 0 .102-.02.141-.059a.193.193 0 0 0 .059-.141v-5.434a.193.193 0 0 0-.059-.141.193.193 0 0 0-.141-.059h-.75a.38.38 0 0 0-.209.059l-1.866 1.45a.2.2 0 0 0-.092.166.2.2 0 0 0 .042.117l.358.467a.184.184 0 0 0 .158.083c.05 0 .092-.014.125-.042l1.259-.966v4.3c0 .055.02.102.058.141zm2.282-2.916a.193.193 0 0 0 .142.058h.833c.061 0 .111-.02.15-.058a.193.193 0 0 0 .059-.142V13a.203.203 0 0 0-.059-.15.203.203 0 0 0-.15-.058h-.833a.193.193 0 0 0-.142.058.203.203 0 0 0-.058.15v.8c0 .056.02.103.058.142zm0 2.916a.193.193 0 0 0 .142.059h.833c.061 0 .111-.02.15-.059a.193.193 0 0 0 .059-.141v-.8a.203.203 0 0 0-.059-.15.203.203 0 0 0-.15-.059h-.833a.193.193 0 0 0-.142.059.203.203 0 0 0-.058.15v.8c0 .055.02.102.058.141z"/>
</symbol><symbol id="ic-star" viewBox="0 0 24 24">
    <path d="M12 3l2.02 6.219h6.54l-5.29 3.843 2.02 6.22L12 15.437 6.71 19.28l2.02-6.219L3.44 9.22h6.54L12 3z"/>
</symbol><symbol id="ic-team-new" viewBox="0 0 24 24">
    <path fill-rule="evenodd" clip-rule="evenodd" d="M12 10.2A3.6 3.6 0 1 0 12 3a3.6 3.6 0 0 0 0 7.2zM7.236 4.056a3.6 3.6 0 1 0 1.228 6.625A5.387 5.387 0 0 1 6.6 6.6c0-.92.23-1.787.636-2.545zM17.4 6.6c0 1.63-.721 3.09-1.863 4.08a3.6 3.6 0 1 0 1.228-6.625c.405.759.635 1.625.635 2.545zM6.69 13.704a1 1 0 0 1 .677-1.06l4.317-1.438a.999.999 0 0 1 .632 0l4.317 1.438a1 1 0 0 1 .678 1.06l-.712 6.406a1 1 0 0 1-.994.89h-7.21a1 1 0 0 1-.994-.89l-.712-6.406zm-2.923-1.06l1.138-.38L6 21H4.795a1 1 0 0 1-.994-.89l-.712-6.407a1 1 0 0 1 .678-1.059zM19.205 21h-1.204l1.095-8.735 1.137.38a1 1 0 0 1 .678 1.058l-.712 6.407a1 1 0 0 1-.994.89z"/>
</symbol><symbol id="ic-telegram" viewBox="0 0 16 14">
    <path d="M.283 6.68l3.686 1.376 1.427 4.589c.092.294.451.402.69.207l2.055-1.675a.613.613 0 0 1 .747-.02l3.707 2.69a.434.434 0 0 0 .68-.262L15.991.524a.435.435 0 0 0-.582-.494L.279 5.867a.435.435 0 0 0 .004.813zm4.883.643l7.206-4.437c.13-.08.262.095.151.198L6.577 8.612a1.233 1.233 0 0 0-.382.737l-.203 1.501c-.027.2-.308.22-.364.027L4.85 8.139a.725.725 0 0 1 .317-.816z"/>
</symbol><symbol id="ic-telegramMedia" viewBox="0 0 20 17">
    <path d="M7.835 11.07l7.412 5.476c.846.467 1.456.225 1.667-.785L19.93 1.544C20.24.305 19.459-.256 18.65.11L.934 6.942c-1.21.485-1.202 1.16-.22 1.46l4.546 1.42 10.525-6.64c.497-.302.953-.14.578.192"/>
</symbol><symbol id="ic-terrorists" viewBox="0 0 24 24">
    <path fill-rule="evenodd" clip-rule="evenodd" d="M12.516 3.39a.536.536 0 0 0-1.032 0l-.336 1.08a.545.545 0 0 1-.516.39H9.543c-.525 0-.743.7-.318 1.021l.88.667c.19.144.27.399.197.631l-.336 1.08c-.162.52.41.952.834.63l.881-.666a.525.525 0 0 1 .638 0l.88.667c.426.321.997-.112.835-.632l-.336-1.079a.578.578 0 0 1 .197-.631l.88-.667c.425-.322.207-1.022-.318-1.022h-1.09a.545.545 0 0 1-.515-.39l-.336-1.079zm-2.268 8.943L3 5s.017 2.944.659 4.667C4.189 11.087 5.636 13 5.636 13a.924.924 0 0 1 1.318 0 .95.95 0 0 1 0 1.334l.658.666-.328.332a.475.475 0 0 0 0 .667.462.462 0 0 0 .659 0l.33-.334 1.09 1.105-.84.85a1.014 1.014 0 0 0 0 1.423l1.229 1.245a.986.986 0 0 0 1.406 0l.842-.852.841.852a.986.986 0 0 0 1.406 0l1.23-1.245a1.014 1.014 0 0 0 0-1.422l-.841-.851 1.09-1.104.33.333a.462.462 0 0 0 .66 0 .475.475 0 0 0 0-.667l-.33-.332.66-.666a.95.95 0 0 1 0-1.333.924.924 0 0 1 1.317 0c.013-.017 1.45-1.92 1.977-3.334C20.982 7.944 21 5 21 5l-7.25 7.333-.33-.334a.462.462 0 0 0-.659 0 .475.475 0 0 0 0 .666l.33.334L12 14.103l-1.092-1.104.33-.334a.475.475 0 0 0 0-.666.462.462 0 0 0-.66 0l-.33.334z"/>
</symbol><symbol id="ic-triangle" viewBox="0 0 8 4">
    <path d="M0 4l4-4 4 4H0z"/>
</symbol><symbol id="ic-votingTime" viewBox="0 0 24 24">
    <path fill-rule="evenodd" clip-rule="evenodd" d="M9 2h6v2h-2v2.062a7.95 7.95 0 0 1 3.215 1.137l1.2-1.2 1.413 1.415-1.051 1.052a8 8 0 1 1-11.637.088L5 7.414 6.414 6 7.68 7.266A7.951 7.951 0 0 1 11 6.062V4H9V2zm3 18a6 6 0 1 0 0-12 6 6 0 0 0 0 12zm4-7.78l-4.647 4.38L8 13.441l1.295-1.22 2.058 1.939L14.706 11 16 12.22z"/>
</symbol><symbol id="ic-winRate" viewBox="0 0 24 24">
    <path fill-rule="evenodd" clip-rule="evenodd" d="M5.693 2l.872 2.764h2.819L7.103 6.472l.871 2.764-2.28-1.708-2.281 1.708.87-2.764-2.28-1.708h2.819L5.693 2zm12.734 10.876l.871 2.764h2.82l-2.281 1.708.87 2.764-2.28-1.708-2.28 1.708.87-2.764-2.28-1.708h2.819l.871-2.764zm.644-7.947a1 1 0 0 0-1.414 0L4.929 17.657a1 1 0 1 0 1.414 1.414L19.07 6.343a1 1 0 0 0 0-1.414z"/>
</symbol><symbol id="ic-bronzeCup" viewBox="0 0 24 24">
    <path d="M21.896 3.834c-1.036-1.036-2.302-1.15-2.992-1.036-.23 0-.46.115-.576.115V1.878l.115-.23v-.346l.115-.69S14.3.381 12.343.381h-.921C9.465.495 5.206.725 5.206.725l.115.921.23.23v.921c-.23.115-.46 0-.575 0-.806-.115-2.072.115-3.108 1.036C1.293 4.41.718 5.331.602 6.942v.46c0 .23 0 .46.115.806.576 3.799 5.065 5.64 7.021 6.216.576.575 1.267 1.15 2.418 1.842l-.46.805s.23.23.46.576c.23.345.575.69.575 1.036 0 .92-.46.805-.46 1.036 0 .23.345.345.46.46v.115c0 1.266-1.266 1.842-2.072 2.072l-.345 1.151h6.791l-.345-1.15c-.69-.231-2.072-.807-2.072-2.073.115-.115.345-.345.345-.46v-.115c0-.23-.46-.115-.46-1.036 0-.346.23-.576.46-.921l.115-.115c.23-.345.576-.576.576-.576l-.46-.805c1.15-.691 1.841-1.267 2.417-1.842 1.266-.345 3.338-1.151 4.95-2.532 1.035-.921 1.956-2.187 2.186-3.684.576-2.302-.23-3.683-.92-4.374zM1.983 7.978c-.115-1.381.115-2.417.806-3.223.345-.345.806-.575 1.151-.69-.115.23-.23.46-.23.69 0 .576.46 1.036 1.036 1.036.345 0 .69-.23.805-.46v.115c0 1.841.23 4.144.576 5.41.23.69.345 1.266.576 1.726-1.842-.69-4.374-2.187-4.72-4.604zm15.079 4.604c.23-.46.345-1.036.575-1.726.346-1.266.576-3.569.576-5.41.23.23.46.345.69.345.576 0 1.037-.46 1.037-1.036 0-.23-.116-.46-.23-.69.23 0 .575.115.805.345h.115l.346.345c.69.69 1.035 1.842.805 3.223-.345 2.417-2.877 3.914-4.72 4.604z"/>
    <path d="M5.551 5.33s0 4.605 1.151 7.367c.346.69.691 1.267 1.036 1.727 1.151 1.266 2.648 1.957 3.684 1.957 1.381 0 1.957 0 2.647-.46.69-.461 1.727-1.382 1.727-1.382s-4.835-.46-6.446-3.798C7.738 7.403 7.508 1.762 7.508 1.762l-1.957.23V3.03c0-.116 1.151.805 0 2.302z"/>
    <path d="M5.552 1.993c5.18-.46 12.661 0 12.661 0l.23-.346s-1.841-.345-6.446-.23c-4.604 0-6.676.23-6.676.23l.23.346z"/>
    <path d="M8.775 15.23s.806.575 1.496 1.035c.69.46 2.878.23 3.338 0 .46-.23 1.381-.805 1.842-1.266.46-.345.575-.69.575-.69s-3.107 2.647-7.251.92z"/>
    <path d="M13.954 17.071s-.345.23-.575.576c-.46.115-1.496.23-3.108 0-.23-.23-.46-.46-.46-.576.115 0 .46.345 1.956.345 1.382-.115 2.187-.345 2.187-.345z"/>
    <path d="M13.378 19.719c-.115.115-.345.345-.345.46-.46 0-1.151.115-2.187 0l-.46-.46c.345.115 1.61.46 2.992 0z"/>
    <path d="M15.22 23.517H8.544l.345-1.15s2.533.344 6.216 0l.115 1.15z"/>
    <path d="M5.782 4.985c0 .115-.115.346-.345.46v-.114c-.116.23-.346.46-.691.46-.576 0-1.036-.46-1.036-1.036 0-.23.115-.46.23-.69.23-.116.46-.116.46-.116-.46.23-.46 1.266.461 1.382 1.036 0 1.036-.806.92-.346z"/>
    <path d="M7.854 14.424c-2.072-.576-6.561-2.302-7.022-6.216 0-.23-.115-.575-.115-.806.115 1.151.806 2.878 2.533 4.144 2.647 1.957 4.028 2.187 4.028 2.187s.346.576.576.69z"/>
    <path d="M5.897 3.72c0-.346-.346-.461-.346-.461s-1.38-.46-2.992.575C1.177 4.64.717 6.367.602 6.942a4.35 4.35 0 0 1 1.266-3.108c1.036-1.036 2.302-1.15 2.993-1.036.23 0 .46.115.575.115l.346.346c.23.46.115.805.115.46z"/>
    <path d="M18.558.727l-.115.69c-.575-.115-1.726-.23-3.913-.345-3.338-.23-8.058-.23-9.439-.23 0 0 4.259-.23 6.216-.23h.92c2.072-.116 6.331.115 6.331.115z"/>
    <path d="M5.551 4.87c-.115.346-.46.46-.69.46a.787.787 0 0 1-.806-.805c0-.345.23-.576.46-.69 0 .114-.115.23-.115.345 0 .46.345.69.806.69.115.115.23.115.345 0z"/>
    <path d="M13.954 17.071c-.23.115-1.151.46-3.223.23 0 0 1.957 0 2.648-.345 0 0 .23-.115.23-.23s-.115-.575-.115-.575l.46.92z"/>
    <path opacity=".45" d="M7.738 1.762s5.295-.23 10.475.116c0 0 0 3.683-.115 5.18-.115 1.496-.346 5.41-2.302 6.79-1.957 1.382-5.64-1.38-6.792-4.834-1.15-3.453-1.266-7.252-1.266-7.252z"/>
    <path d="M11.5 11.19c-.552 0-1.017-.095-1.394-.284-.372-.194-.648-.433-.828-.716A1.738 1.738 0 0 1 9 9.342c0-.056.017-.103.051-.14a.19.19 0 0 1 .135-.057h1.166a.25.25 0 0 1 .16.047c.04.025.076.069.11.132.107.307.403.461.887.461.276 0 .49-.072.642-.216.152-.145.228-.34.228-.585 0-.47-.282-.706-.845-.706h-.946a.222.222 0 0 1-.16-.066.281.281 0 0 1-.06-.18v-.555c0-.145.048-.251.144-.32l1.36-1.244H9.54a.212.212 0 0 1-.152-.066.268.268 0 0 1-.06-.17v-.932c0-.07.02-.126.06-.17.04-.05.09-.075.152-.075h3.936c.062 0 .112.025.152.075.04.044.06.1.06.17v.838a.384.384 0 0 1-.136.311l-1.25 1.272.059.019c.507.082.91.276 1.208.584.298.308.447.75.447 1.329 0 .42-.11.79-.329 1.111a2.065 2.065 0 0 1-.895.726c-.377.17-.808.254-1.293.254z"/>
    <path opacity=".58" d="M13.379 19.719c-.23.115-.46.115-.921.23-.46 0-.46 0-.46-.115s.115-.23.69-1.266c.345-.691.576-.806.69-.806-.23.345-.345.575-.46.92-.115.922.346.806.46 1.037z"/>
    <path opacity=".58" d="M14.99 22.366c-.92.23-2.992.23-4.028.23-1.036-.115-1.151-.23-1.151-.23s.92 0 1.496-.115c.575-.115 1.151-1.036 1.266-1.381.115-.23.23-.46.345-.576 0 1.266 1.267 1.842 2.072 2.072z"/>
    <path d="M20.17 11.431c-2.072 1.842-3.799 2.187-3.799 2.187l.69-.92c1.958-.806 4.375-2.188 4.72-4.605.23-1.381-.115-2.532-.806-3.223l-.345-.345c1.266.806 1.381 1.842 1.496 2.647 0 .69.115 2.417-1.956 4.26z"/>
    <path d="M18.213 2.913s-.576.346-.576 1.267c0 .92.346 1.15.69 1.38.346.231.346-2.416-.114-2.647z"/>
    <path d="M20.515 12.352l.115-.115c-.115 0-.115 0-.115.115z"/>
    <path d="M23.047 8.208c-.23 1.497-1.036 2.763-2.187 3.684.69-.691 1.842-2.187 1.957-3.338.115-1.382.23-3.569-1.266-4.72-1.496-1.15-3.223-.92-3.223-.92.115 0 .345-.116.46-.116.806-.115 2.072.115 2.993 1.036.806.69 1.612 2.072 1.266 4.374z"/>
    <path d="M17.753 4.985c.115.46.805.806 1.15.806.576 0 1.037-.46 1.037-1.036 0-.23-.116-.46-.23-.69-.23-.116-.461-.116-.461-.116.46.115.46 1.266-.46 1.266-.691.116-.921-.115-1.036-.23 0-.115 0 0 0 0z"/>
    <path d="M18.098 4.87c.115.23.345.46.69.46.461 0 .806-.345.806-.805 0-.345-.23-.576-.46-.69 0 .114.115.23.115.345 0 .46-.345.69-.806.69-.23.115-.23.115-.345 0z"/>
    <path d="M5.897 5.446s0 5.525 1.957 8.057c1.956 2.532 5.294 1.957 5.294 1.957s-3.683 0-5.18-2.993C6.473 9.474 5.898 5.446 5.898 5.446z"/>
    <path d="M9.81 17.071l.461-.805s.92.23 1.727.23c.805 0 1.38-.115 1.38-.115s-.46.23-1.61.23c-1.267.115-1.382 0-1.382 0l-.575.46z"/>
    <path d="M10.731 17.877s.345.345.345.806c0 .46 0 .46-.23.805 0 0 .921-.345-.115-1.611z"/>
    <path d="M10.962 20.294s.115.69-.576 1.266c-.69.576-1.151.691-1.151.691s.576-.115 1.151-.576c.576-.46.69-1.15.69-1.15s.921.115 1.497 0c0-.116-1.151 0-1.611-.23z"/>
    <path d="M14.875 22.481l.23.921-6.33-.115 5.985-.115.115-.69z"/>
    <path d="M18.213 5.446s0 4.95-1.151 7.136c-1.151 2.187-2.763 2.187-2.763 2.187s1.382-.23 2.532-2.762c1.152-2.533 1.152-6.791 1.152-6.791l.23.23z"/>
    
</symbol><symbol id="ic-color-fire" viewBox="0 0 14 18">
    <path d="M5.324 8.467c.04.315-.296.538-.591.37-1.085-.593-1.617-1.687-2.327-2.633C1.262 7.911.395 9.561.395 11.323c0 3.58 2.7 6.306 6.507 6.306 3.805 0 6.704-2.727 6.704-6.306 0-4.488-4.989-5.267-4.93-10.942-2.011 1.335-3.904 4.321-3.352 8.086z"/>
    <path d="M6.901 18C2.9 18 0 15.2 0 11.323c0-1.947 1.006-3.709 2.07-5.322a.385.385 0 0 1 .316-.167c.138 0 .256.055.335.148.178.223.335.464.493.705.493.723.966 1.41 1.716 1.817-.572-3.839 1.36-7.01 3.51-8.438a.412.412 0 0 1 .414-.019.349.349 0 0 1 .216.334c-.039 2.875 1.302 4.451 2.583 5.953C12.817 7.688 14 9.08 14 11.324 14 15.124 10.944 18 6.901 18zM2.425 6.89C1.538 8.264.79 9.748.79 11.324c0 3.431 2.563 5.935 6.112 5.935 3.59 0 6.31-2.56 6.31-5.935 0-1.984-1.005-3.153-2.169-4.525C9.84 5.388 8.5 3.812 8.302 1.141c-1.696 1.447-3.057 4.1-2.584 7.27a.716.716 0 0 1-.355.724.826.826 0 0 1-.828 0c-.907-.5-1.44-1.298-1.972-2.059a.668.668 0 0 1-.138-.185z"/>
    <path d="M11.14 14.105a6.162 6.162 0 0 0 1.085-3.524l-1.084 3.524z"/>
    <path d="M11.14 14.476a.417.417 0 0 1-.216-.056.367.367 0 0 1-.118-.519 5.787 5.787 0 0 0 1.025-3.32c0-.204.177-.37.394-.37.217 0 .395.166.395.37a6.543 6.543 0 0 1-1.144 3.728.395.395 0 0 1-.335.167z"/>
    <path d="M9.938 15.403a3.83 3.83 0 0 0 .414-.37l-.414.37z"/>
    <path d="M9.938 15.774a.364.364 0 0 1-.296-.13.36.36 0 0 1 .04-.519c.118-.111.276-.222.374-.334a.418.418 0 0 1 .552-.037.36.36 0 0 1 .04.52 4.498 4.498 0 0 1-.454.408.43.43 0 0 1-.256.092z"/>
    <circle cx="7.25" cy="12" r="2"/>
</symbol><symbol id="ic-comments" viewBox="0 0 48 34">
    <path opacity=".7" d="M43.781.125H21.188a4.213 4.213 0 0 0-4.22 4.218v8.438c0 .646.45 1.21 1.07 1.35C18.29 14.215 29.372 17 29.625 17h5.906l4.275 5.118c.366.45.985.619 1.547.422.563-.197.928-.731.928-1.322V17h1.5A4.213 4.213 0 0 0 48 12.78V4.344A4.213 4.213 0 0 0 43.781.125z"/>
    <path d="M26.812 11.374H4.22A4.213 4.213 0 0 0 0 15.595v8.437a4.213 4.213 0 0 0 4.219 4.219h1.5v4.218c0 .563.337 1.069.872 1.294a1.343 1.343 0 0 0 1.518-.31l5.232-5.202h13.471a4.213 4.213 0 0 0 4.22-4.22v-8.437a4.213 4.213 0 0 0-4.22-4.219z"/>
    <path d="M26.812 11.374H4.22A4.213 4.213 0 0 0 0 15.595v8.437a4.213 4.213 0 0 0 4.219 4.219h1.5v4.218c0 .563.337 1.069.872 1.294a1.343 1.343 0 0 0 1.518-.31l5.232-5.202h13.471a4.213 4.213 0 0 0 4.22-4.22v-8.437a4.213 4.213 0 0 0-4.22-4.219z" fill-opacity=".3"/>
    <path d="M38.063 9.969a1.406 1.406 0 1 0 0-2.813 1.406 1.406 0 0 0 0 2.813z"/>
    <path d="M33.844 8.562c0 .787-.619 1.406-1.407 1.406a1.393 1.393 0 0 1-1.406-1.406c0-.788.619-1.406 1.407-1.406.787 0 1.406.618 1.406 1.406z"/>
    <path d="M26.813 9.969a1.406 1.406 0 1 0 0-2.813 1.406 1.406 0 0 0 0 2.813z"/>
    <path d="M21.188 21.219a1.406 1.406 0 1 0 0-2.813 1.406 1.406 0 0 0 0 2.813z"/>
    <path d="M16.969 19.812c0 .787-.619 1.406-1.407 1.406a1.393 1.393 0 0 1-1.406-1.406c0-.788.619-1.406 1.406-1.406.788 0 1.407.618 1.407 1.406z"/>
    <path d="M9.938 21.219a1.406 1.406 0 1 0 0-2.813 1.406 1.406 0 0 0 0 2.813z"/>
</symbol><symbol id="ic-cs-go" viewBox="0 0 16 20">
    <path d="M5.935.049c.319-.11.667-.018.96.126.203.131.408.264.636.35l.072.13-.036.088c.163.37.267.81.109 1.2-.108.13-.295.151-.447.202 0 .188.03.374.046.561.324.052.599-.173.92-.151.043-.18.077-.362.135-.539.066.117.069.252.07.383.084.024.169.045.255.066l.001.13c1.407.007 2.813-.007 4.22.007l-.013.193h.148c-.002-.255 0-.512-.001-.768l.14-.004.004.604.123.151.092-.108c.107.1.046.237.042.36.393-.005.791.022 1.184-.01l.117-.086.162.063c.177-.004.355-.004.532-.005l-.01.275c-.228-.004-.458-.009-.683.03-.145-.125-.34-.085-.516-.09-.27.013-.548-.035-.81.051a.57.57 0 0 1-.462-.055c-.033.082.017.265-.12.258-.543.007-1.085-.005-1.627.004-.074.039-.15.076-.223.112-.079.234-.303.39-.494.532-.024.359.118.694.173 1.042-.107.03-.214.062-.32.097-.152.358-.059.847-.41 1.097-.269.156-.447.497-.81.443.184.154-.05.106-.026-.017-.657-.058-1.21-.444-1.78-.737-.027.16-.069.319-.112.476a.53.53 0 0 1 .434.423c.07.485-.07.966-.067 1.452.015.285-.107.546-.26.78-.133.15-.344-.005-.504-.027l-.107.212c.046.19.065.388.129.574.357.395.682.824.932 1.296a17.1 17.1 0 0 1 .686 1.64c.02.108.122.147.211.187l.035.337.107.153c.022.69-.063 1.377-.17 2.057-.066.307.114.607.04.916.01.158-.1.278-.15.418-.01.326-.027.657.009.983.025.239.227.393.364.571.15.159.275.372.502.429.213.063.416.156.604.277.058.142.047.292.02.44-.41.075-.828.037-1.242.044-.319.016-.603-.155-.913-.19-.3-.008-.666.14-.897-.128.098-.372.106-.773.285-1.12.057-.394-.052-.793-.029-1.19l-.137-.115c.025-.26-.103-.49-.146-.738a27.87 27.87 0 0 0-.103-1.086c-.033-.175.058-.336.182-.453.011-.203.039-.403.058-.605-.03-.13-.134-.228-.201-.34-.225.095-.528.05-.661-.17-.317-.47-.633-.942-.953-1.41-.126-.01-.259.004-.376-.046-.136-.14-.207-.325-.293-.494-.124.14-.115.353-.262.48-.31.297-.393.735-.555 1.117-.124.247-.054.546-.193.787-.074.13-.26.156-.31.304-.063.16-.139.326-.29.423-.162.107-.206.31-.278.478-.067.154.032.317.009.475-.104.505-.425.926-.56 1.42-.061.222-.15.473-.408.52-.294.526-.457 1.17-.29 1.761.102.186.096.396.065.6-.468.037-.948.1-1.407-.03-.108-.214-.092-.465-.07-.696.142-.606.33-1.202.445-1.814-.144-.128-.11-.324-.107-.496-.005-.32.212-.575.363-.837.057-.27.03-.559.17-.806.163-.309.302-.643.554-.893.048-.22.21-.387.276-.599.07-.187-.052-.377-.027-.569.06-.581.165-1.156.257-1.733-.173-.145-.118-.375-.173-.57a1.33 1.33 0 0 1 .103-.222l-.13-.12c.043-.205.03-.572.345-.506.02-.679-.216-1.336-.137-2.016l.125.149-.022-.23c.132-.07.271-.124.418-.152-.239-.031-.472-.092-.706-.146-.057-.15-.025-.308-.004-.46.09-.515.124-1.037.143-1.559.265-.092.557-.013.816-.137-.08-.652-.1-1.333.131-1.959.187-.533.544-1.047 1.1-1.234.263-.063.594-.134.78.121l.153-.141C4.465 1.454 4.972.222 5.935.049zM9.33 3.705c-.112.068-.222.147-.104.271a4.749 4.749 0 0 1-.173.099c-.09.07-.295.11-.271.25.102.165.19.337.263.516.223-.183.4-.43.52-.69l.102-.103a1.16 1.16 0 0 0-.085-.347l-.252.004z"/>
</symbol><symbol id="ic-cup-bronze-without-number" viewBox="0 0 32 33">
    <path d="M29.197 5.113c-1.381-1.382-3.07-1.535-3.99-1.382-.307 0-.614.154-.768.154V2.504l.154-.307v-.46l.153-.922S19.067.508 16.458.508H15.23c-2.609.154-8.288.46-8.288.46l.154 1.229.307.307V3.73c-.307.154-.614 0-.768 0-1.074-.153-2.763.154-4.144 1.382C1.724 5.88.956 7.108.803 9.257v.614c0 .307 0 .614.153 1.074.768 5.065 6.754 7.52 9.363 8.288.767.768 1.688 1.535 3.223 2.456l-.614 1.074s.307.307.614.768c.307.46.767.92.767 1.381 0 1.228-.614 1.075-.614 1.382 0 .306.46.46.614.613v.154c0 1.688-1.688 2.456-2.762 2.763l-.46 1.534h9.055l-.46-1.534c-.922-.307-2.763-1.075-2.763-2.763.153-.154.46-.46.46-.614v-.153c0-.307-.614-.154-.614-1.382 0-.46.307-.767.614-1.228l.153-.153c.307-.46.768-.768.768-.768l-.614-1.074c1.535-.92 2.456-1.688 3.223-2.456 1.688-.46 4.451-1.535 6.6-3.376 1.381-1.228 2.61-2.916 2.916-4.912.767-3.07-.307-4.911-1.228-5.832zM2.645 10.638c-.154-1.842.153-3.223 1.074-4.297.46-.46 1.074-.768 1.535-.921-.154.307-.307.614-.307.92 0 .768.614 1.382 1.381 1.382.46 0 .921-.307 1.075-.614v.154c0 2.455.307 5.525.767 7.213.307.921.46 1.689.767 2.303-2.455-.921-5.832-2.917-6.292-6.14zm20.106 6.14c.307-.614.46-1.382.767-2.303.46-1.688.768-4.758.768-7.213.307.307.614.46.92.46.768 0 1.382-.614 1.382-1.381 0-.307-.154-.614-.307-.921.307 0 .767.153 1.074.46h.154l.46.46c.921.922 1.382 2.456 1.075 4.298-.46 3.223-3.837 5.219-6.293 6.14z"/>
    <path d="M7.402 7.108s0 6.14 1.535 9.823c.46.92.921 1.688 1.382 2.302 1.534 1.689 3.53 2.61 4.911 2.61 1.842 0 2.61 0 3.53-.614.921-.614 2.302-1.842 2.302-1.842s-6.446-.614-8.595-5.065C10.32 9.87 10.012 2.35 10.012 2.35l-2.61.307v1.381c0-.153 1.535 1.075 0 3.07z"/>
    <path d="M7.403 2.657c6.906-.614 16.883 0 16.883 0l.307-.46s-2.456-.46-8.595-.307c-6.14 0-8.902.307-8.902.307l.307.46z"/>
    <path d="M11.7 20.308s1.075.767 1.995 1.38c.921.615 3.838.308 4.451 0 .614-.306 1.842-1.073 2.456-1.687.614-.46.768-.921.768-.921s-4.144 3.53-9.67 1.228z"/>
    <path d="M18.607 22.763s-.46.307-.767.768c-.614.153-1.996.307-4.144 0-.307-.307-.614-.614-.614-.768.153 0 .614.46 2.609.46 1.842-.153 2.916-.46 2.916-.46z"/>
    <path d="M17.84 26.294c-.154.153-.461.46-.461.613-.614 0-1.535.154-2.917 0l-.614-.613c.461.153 2.15.613 3.991 0z"/>
    <path d="M20.295 31.358h-8.902l.46-1.534s3.377.46 8.288 0l.154 1.534z"/>
    <path d="M7.71 6.648c0 .153-.154.46-.46.614v-.154c-.154.307-.461.614-.922.614a1.376 1.376 0 0 1-1.381-1.381c0-.307.153-.614.307-.921.307-.154.614-.154.614-.154-.614.307-.614 1.689.614 1.842 1.381 0 1.381-1.074 1.228-.46z"/>
    <path d="M10.472 19.233c-2.763-.767-8.748-3.07-9.362-8.288 0-.307-.154-.767-.154-1.074.154 1.535 1.075 3.837 3.377 5.525 3.53 2.61 5.372 2.916 5.372 2.916s.46.768.767.921z"/>
    <path d="M7.863 4.96c0-.461-.46-.615-.46-.615s-1.842-.614-3.991.768C1.57 6.187.956 8.489.802 9.257a5.8 5.8 0 0 1 1.689-4.144C3.872 3.73 5.56 3.578 6.48 3.73c.307 0 .614.154.768.154l.46.46c.307.614.154 1.075.154.614z"/>
    <path d="M24.746.969l-.153.92c-.768-.153-2.303-.306-5.219-.46-4.45-.307-10.744-.307-12.585-.307 0 0 5.678-.307 8.288-.307h1.228c2.762-.153 8.441.154 8.441.154z"/>
    <path d="M7.403 6.494c-.154.46-.614.614-.921.614a1.05 1.05 0 0 1-1.075-1.074c0-.46.307-.768.614-.921 0 .153-.153.307-.153.46 0 .614.46.921 1.074.921.154.154.307.154.46 0z"/>
    <path d="M18.607 22.763c-.307.154-1.535.614-4.298.307 0 0 2.61 0 3.53-.46 0 0 .308-.154.308-.307 0-.154-.154-.768-.154-.768l.614 1.228z"/>
    <path opacity=".45" d="M10.319 2.35s7.06-.307 13.966.154c0 0 0 4.911-.153 6.906-.154 1.996-.46 7.214-3.07 9.056-2.609 1.842-7.52-1.842-9.055-6.446-1.535-4.605-1.688-9.67-1.688-9.67z"/>
    <path opacity=".58" d="M17.84 26.294c-.308.153-.614.153-1.228.306-.614 0-.614 0-.614-.153s.153-.307.92-1.688c.461-.921.768-1.075.922-1.075-.308.46-.461.768-.614 1.228-.154 1.228.46 1.075.614 1.382z"/>
    <path opacity=".58" d="M19.988 29.824c-1.227.307-3.99.307-5.371.307-1.382-.154-1.535-.307-1.535-.307s1.227 0 1.995-.154c.767-.153 1.535-1.381 1.688-1.842.154-.307.307-.614.46-.767 0 1.688 1.689 2.456 2.763 2.763z"/>
    <path d="M26.895 15.243c-2.763 2.455-5.065 2.916-5.065 2.916l.92-1.228c2.61-1.074 5.833-2.916 6.293-6.14.307-1.841-.153-3.376-1.074-4.297l-.46-.46c1.688 1.074 1.841 2.455 1.995 3.53 0 .92.153 3.223-2.61 5.679z"/>
    <path d="M24.286 3.885s-.768.46-.768 1.688.46 1.535.921 1.842c.46.307.46-3.223-.153-3.53z"/>
    <path d="M27.355 16.47l.154-.153c-.154 0-.154 0-.154.154z"/>
    <path d="M30.732 10.945c-.307 1.995-1.382 3.684-2.916 4.912.92-.921 2.455-2.917 2.609-4.451.153-1.842.307-4.758-1.689-6.293-1.995-1.535-4.297-1.228-4.297-1.228.153 0 .46-.154.614-.154 1.074-.153 2.763.154 3.99 1.382 1.075.92 2.15 2.762 1.689 5.832z"/>
    <path d="M23.672 6.648c.153.614 1.074 1.074 1.535 1.074.767 0 1.38-.614 1.38-1.381 0-.307-.152-.614-.306-.921-.307-.154-.614-.154-.614-.154.614.154.614 1.689-.614 1.689-.92.153-1.228-.154-1.381-.307 0 0 0-.154 0 0z"/>
    <path d="M24.132 6.494c.154.307.46.614.921.614a1.05 1.05 0 0 0 1.075-1.074c0-.46-.308-.768-.614-.921 0 .153.153.307.153.46 0 .614-.46.921-1.074.921-.307.154-.307.154-.46 0z"/>
    <path d="M7.863 7.262s0 7.367 2.61 10.743c2.608 3.377 7.06 2.61 7.06 2.61s-4.912 0-6.907-3.99C8.63 12.632 7.863 7.261 7.863 7.261z"/>
    <path d="M13.082 22.764l.614-1.075s1.228.307 2.302.307 1.842-.153 1.842-.153-.614.306-2.15.306c-1.687.154-1.84 0-1.84 0l-.768.614z"/>
    <path d="M14.31 23.838s.46.46.46 1.074c0 .614 0 .614-.307 1.075 0 0 1.228-.46-.154-2.15z"/>
    <path d="M14.617 27.06s.153.922-.768 1.69c-.92.767-1.535.92-1.535.92s.768-.153 1.535-.767c.768-.614.92-1.535.92-1.535s1.229.153 1.996 0c0-.154-1.535 0-2.149-.307z"/>
    <path d="M19.835 29.977l.307 1.228-8.442-.154 7.981-.153.154-.92z"/>
    <path d="M24.286 7.262s0 6.6-1.535 9.516c-1.535 2.916-3.684 2.916-3.684 2.916s1.842-.307 3.377-3.684c1.535-3.377 1.535-9.055 1.535-9.055l.307.307z"/>
    
</symbol><symbol id="ic-dota2" viewBox="0 0 16 16">
    <path fill-rule="evenodd" clip-rule="evenodd" d="M3.05 9.558c.159.098.26.193.41.314l1.228 1.133c.257.242.913.901 1.166 1.191.173.2.247.222.374.417-.046.016-.62.147-.955.261-.695.238-1.33.619-1.935.414-.091-.03-.503-.42-.692-.554l-.347-.243c-.369-.257-.474-.078.014-1.213.127-.297.237-.564.36-.854.107-.247.253-.659.378-.866zm8.83-6.841c.255.088.867.435 1.016.623.127.157.09.171.043.4l-.249 1.938c-.345.012-.247-.028-.46-.171a50.55 50.55 0 0 1-1.985-1.46l-.76-.607c.054-.053-.02-.024.107-.057l1.125-.252c.587-.148.678-.186 1.164-.414zm-10.094.39c.26-.143.396-.036.831-.348.118-.083.386-.076.549-.052.167.024.557.345.735.454.103.062.567.414.641.538l.23.366c.316.015.261-.002.659.288l3.814 2.498c.819.566 1.776 1.144 2.6 1.715l2.349 1.527c-.067.146-.146.645-.192.845-.203.918-.46 1.306-.874 2.188-.596.024-1.065.02-1.647.01-.19-.002-.141.036-.244-.062-.34-.328-.96-1.047-1.305-1.38a9.522 9.522 0 0 1-.345-.347c-.953-1.009-.503-.704-.687-.956L6.984 8.59c-.44-.426-.835-.883-1.29-1.36-.117-.124-.175-.239-.297-.35l-.033-.031c-.034-.031-.02-.02-.05-.053l-.559-.628c-.098-.09-.088-.088-.16-.169l-.5-.513c-.11-.115-.197-.234-.302-.357l-.479-.505c-.072-.07-.122-.092-.194-.166-.227-.236-.419-.462-.649-.697-.182-.188-.63-.55-.685-.654zM4.085.295L.154.375c-.214.779-.003.384 0 1.197v1.47c-.032.426-.144.64-.144 1.209 0 .19-.043.63.05.78.163.264.16.49.23.873.062.34.127.305-.026.562l-.072.65.335.325.002.57c-.2.184.024.053-.4.358l.039 1.724.417.3-.087 1.47c-.44.314-.344.693-.33 1.083l.053 1.465-.096.752c.984.245.768.168 1.894.168.993 0 .866.01 1.848-.109l.026.167c.154-.01.31-.02.46-.034.42-.04.252-.088.395-.14.103-.038 1.226.221 1.408.26.1-.112.05-.067.19-.158.076.16.399.524.53.683l.408-.378.71.273.21-.173c.08.095.13.214.274.233.211.028.245-.319.712-.329l2.698-.09.093-.088.14-.112c.176.107.253.21.495.193.744-.05.354.178 1.314.128.165-.01.125-.05.27-.1l.312-.047c-.067-.18-.11-.155-.247-.29l1.71.342c-.024-1.998-.02-4.436.007-6.492l-.46.034c.017-.133.218-.083.233-.352.019-.338.016-1.497-.034-1.744-.026-.126-.35-.495-.436-.609.103-.278.113-.26.304-.488-.016-.15-.05-.19-.114-.359l.5-.164c.005-.285.038-1.434.02-1.798l-.204-1.96.155-.49.007-.505c-.433-.247-.375-.276-.675-.273-.27.002-.632-.012-.89-.072-.333-.076-.242-.128-.606.243l-.165-.357C13.085.146 11.42 0 11.026 0c-.505 0-.433.038-.603.609l-.726.074L9.601.37 8.943.364l.07-.076c.126-.121.08-.074.181-.288H6.546a.758.758 0 0 1-.435.345c-.264.088-.135-.052-.3.095-.124.112-.146.105-.342.1-.261-.005-.53-.014-.79-.024-.12-.005-.252.007-.369-.019C4.13.454 4.183.41 4.085.295z"/>
</symbol><symbol id="ic-email" viewBox="0 0 48 48">
    <path d="M7 9h34a2 2 0 0 1 2 2v26a2 2 0 0 1-2 2H7a2 2 0 0 1-2-2V11a2 2 0 0 1 2-2z" stroke-width="2"/>
    <path fill-rule="evenodd" clip-rule="evenodd" d="M7 8a3 3 0 0 0-3 3v26a3 3 0 0 0 3 3h34a3 3 0 0 0 3-3V11a3 3 0 0 0-3-3H7zm-1 4.767v23.74l13.062-12.983L6 12.767zM7.334 38h33.332L27.387 24.802 24 27.59l-3.387-2.79L7.334 38zM42 36.506V12.767L28.938 23.524 42 36.506zM39.068 10H8.932L24 22.41 39.068 10z"/>
</symbol><symbol id="ic-emptyCup" viewBox="0 0 25 24">
    <path d="M22.858 3.582c-1.087-1.075-2.416-1.194-3.14-1.075-.242 0-.484.12-.604.12V1.552l.241-.239V.955l.12-.716S15.008 0 12.954 0h-.966C9.933 0 5.464.239 5.464.239l.12.955.243.239v.955c-.363.12-.604.12-.725 0-.846-.12-2.175.12-3.262 1.194C1.236 4.18.632 5.134.512 6.806v.478c0 .238 0 .477.12.835.604 3.94 5.315 5.851 7.369 6.448.604.597 1.328 1.194 2.536 1.91l-.483.837s.242.238.483.596c.242.359.604.717.604 1.075 0 .955-.483.836-.483 1.075s.363.358.483.477v.12c0 1.313-1.328 1.91-2.174 2.149L8.605 24h7.126l-.362-1.194c-.725-.239-2.174-.836-2.174-2.15.12-.119.362-.357.362-.477v-.12c0-.238-.483-.119-.483-1.074 0-.358.242-.597.483-.955l.12-.12c.242-.358.605-.596.605-.596l-.483-.836c1.208-.717 1.932-1.314 2.536-1.91 1.33-.359 3.503-1.195 5.194-2.628 1.087-.955 2.054-2.268 2.295-3.82.604-2.508-.241-3.821-.966-4.538zM1.961 7.881c-.12-1.433.121-2.627.846-3.344.362-.358.845-.597 1.208-.716-.121.239-.242.478-.242.716 0 .597.483 1.075 1.087 1.075.363 0 .725-.239.846-.478v.12c0 2.03.241 4.298.604 5.731.241.716.362 1.314.604 1.791-1.933-.955-4.59-2.507-4.953-4.895zm15.824 4.776c.241-.478.362-1.075.604-1.791.362-1.314.604-3.702.604-5.612.241.239.483.358.725.358.604 0 1.087-.478 1.087-1.075 0-.238-.121-.477-.242-.716.242 0 .604.12.846.358h.12l.363.358c.724.717 1.087 1.91.845 3.344-.362 2.388-3.02 3.94-4.952 4.776z"/>
</symbol><symbol id="ic-flame" viewBox="0 0 20 24">
    <path d="M7.606 11.29c.056.42-.423.717-.845.494-1.55-.791-2.31-2.25-3.324-3.511C1.803 10.548.563 12.749.563 15.098c0 4.772 3.86 8.407 9.296 8.407 5.437 0 9.578-3.635 9.578-8.407 0-5.984-7.127-7.023-7.043-14.59C9.521 2.288 6.818 6.27 7.607 11.29z"/>
    <path d="M9.86 24C4.14 24 0 20.266 0 15.098 0 12.5 1.437 10.152 2.958 8a.563.563 0 0 1 .45-.223c.198 0 .367.074.48.198.253.297.478.618.704.94.704.964 1.38 1.88 2.45 2.423C6.225 6.22 8.986 1.992 12.056.088a.625.625 0 0 1 .592-.025c.197.074.31.247.31.445-.057 3.833 1.859 5.935 3.69 7.938C18.31 10.25 20 12.106 20 15.098 20 20.168 15.634 24 9.86 24zM3.464 9.188c-1.268 1.83-2.338 3.808-2.338 5.91 0 4.574 3.662 7.913 8.732 7.913 5.127 0 9.014-3.413 9.014-7.913 0-2.646-1.436-4.204-3.098-6.034-1.719-1.88-3.634-3.981-3.916-7.542a10.304 10.304 0 0 0-3.69 9.693c.056.396-.14.767-.507.965a1.254 1.254 0 0 1-1.183 0c-1.296-.668-2.056-1.731-2.817-2.745a.898.898 0 0 1-.197-.247z"/>
    <path d="M15.915 18.807a7.838 7.838 0 0 0 1.55-4.698l-1.55 4.698z"/>
    <path d="M15.915 19.302a.628.628 0 0 1-.31-.075c-.253-.148-.338-.445-.168-.692a7.362 7.362 0 0 0 1.464-4.426c0-.272.254-.495.564-.495.31 0 .563.223.563.495a8.322 8.322 0 0 1-1.634 4.97.578.578 0 0 1-.479.223z"/>
    <path d="M14.197 20.538c.197-.148.423-.321.592-.494l-.592.494z"/>
    <path d="M14.197 21.033a.537.537 0 0 1-.423-.174.46.46 0 0 1 .057-.692c.169-.148.394-.297.535-.445a.63.63 0 0 1 .789-.05.46.46 0 0 1 .056.693c-.197.198-.45.396-.648.544a.643.643 0 0 1-.366.124z"/>
</symbol><symbol id="ic-gb-flag" viewBox="0 0 46 30">
    <path d="M0 0h46v30H0V0z"/>
    <path d="M0 0v3.352L40.856 30H46v-3.352L5.144 0H0zm46 0v3.352L5.144 30H0v-3.352L40.856 0H46z"/>
    <path d="M19.168 0v30h7.664V0h-7.664zM0 10.002v9.996h46v-9.996H0z"/>
    <path d="M0 12v6h46v-6H0zM20.7 0v30h4.6V0h-4.6zM0 30l15.332-10.002h3.432L3.428 30H0zM0 0l15.332 10.002h-3.428L0 2.238V0zm27.24 10.002L42.573 0H46L30.668 10.002h-3.427zM46 30L30.668 19.998h3.428L46 27.762V30z"/>
</symbol><symbol id="ic-gmail" viewBox="0 0 48 48">
    <g clip-path="url(#gmail-a)">
        <path d="M45.466 11.513l-3.064 30.77H5.598l-2.47-30.174L24 23.794l21.466-12.28z"/>
        <path d="M44.426 5.717L24 24.906 3.573 5.716H44.426z"/>
        <path d="M5.598 14.578v27.705H2.263A2.263 2.263 0 0 1 0 40.02V10.497l3.656.1 1.942 3.98z"/>
        <path d="M48 10.497V40.02a2.264 2.264 0 0 1-2.264 2.263h-3.333V14.577l1.846-4.361 3.752.28z"/>
        <path d="M48 7.98v2.517l-5.598 4.08L24 27.99 5.598 14.578 0 10.497V7.98a2.264 2.264 0 0 1 2.263-2.263h1.31L24 20.606 44.427 5.716h1.309A2.264 2.264 0 0 1 48 7.98z"/>
        <path d="M5.598 14.577L0 13.71v-3.213l5.598 4.08z"/>
    </g>
    
</symbol><symbol id="ic-gold-star" viewBox="0 0 24 24">
    <g clip-path="url(#gold-star-a)">
        <path d="M12.701.449l3.112 6.343c.12.24.359.359.598.359l6.942.957c.598.12.837.838.478 1.317l-5.026 4.907c-.24.12-.24.478-.24.718l1.197 6.941c.12.599-.598 1.078-1.077.838l-6.223-3.231a.763.763 0 0 0-.718 0L5.52 22.829c-.598.24-1.197-.24-1.077-.838L5.64 15.05c0-.24 0-.479-.24-.718L.375 9.425c-.479-.479-.24-1.197.479-1.317l6.941-.957c.24 0 .479-.24.599-.36L11.504.45c.12-.599.838-.599 1.197 0z"/>
        <path d="M7.076 20.316c-.24 0-.36 0-.479-.12-.24-.24-.478-.598-.359-.838l.838-4.907v-.12l-3.59-3.47a.93.93 0 0 1-.24-.957c.12-.36.36-.599.718-.599l4.907-.718s.12 0 .12-.12l2.154-4.428c.12-.359.479-.479.838-.479s.718.24.838.48l2.154 4.427.12.12L20 9.305c.36 0 .599.24.719.599s0 .718-.24.957l-3.59 3.47v.12l.837 4.907c0 .36-.12.718-.358.838-.24.24-.599.24-.958.12l-4.428-2.274h-.12l-4.428 2.274c0-.12-.24 0-.359 0zm4.907-16.157s-.12 0-.12.12L9.59 8.707c-.12.24-.359.478-.718.478l-4.907.719c-.12 0-.12.12-.12.12v.119l3.591 3.47c.24.24.359.48.24.838l-.838 4.907c0 .12 0 .12.12.12h.119l4.428-2.274c.24-.12.598-.12.838 0l4.428 2.274h.12l.12-.12-.838-4.907c0-.239 0-.598.24-.837l3.59-3.471c.12-.12 0-.12 0-.12s0-.12-.12-.12l-4.907-.718c-.24 0-.598-.239-.718-.478l-2.155-4.428c0-.12-.12-.12-.12-.12z"/>
        <path opacity=".45" d="M5.52 15.05c0-.24 0-.479-.239-.718L.255 9.425c-.48-.479-.24-1.197.359-1.317l6.941-.957c.24 0 .479-.24.599-.36L11.265.45a.707.707 0 0 1 1.317 0l3.111 6.343c.12.24.36.359.599.359l4.428.598L5.042 17.922l.479-2.872z"/>
    </g>
    
</symbol><symbol id="ic-goldCup" viewBox="0 0 24 24">
    <g clip-path="url(#goldCup-a)">
        <path d="M8.9 11.2c-.1 0-.2-.1-.3-.1l.2-.1s0 .1.1.2z"/>
        <path d="M22.09 3.582c-1.075-1.075-2.389-1.194-3.105-1.075-.239 0-.478.12-.597.12V1.552l.12-.239V.955l.119-.716S14.209 0 12.179 0h-.955c-2.03.12-6.448.358-6.448.358l.12.955.238.24v.954c-.239.12-.477 0-.597 0-.836-.119-2.149.12-3.224 1.075C.716 4.18.12 5.134 0 6.806v.478c0 .238 0 .477.12.835.596 3.94 5.253 5.851 7.283 6.448.597.597 1.313 1.194 2.507 1.91l-.477.836s.239.24.477.597c.24.358.597.717.597 1.075 0 .955-.477.836-.477 1.075 0 .238.358.358.477.477v.12c0 1.313-1.313 1.91-2.149 2.149L8 24h7.045l-.359-1.194c-.716-.239-2.149-.836-2.149-2.15.12-.119.358-.358.358-.477v-.12c0-.238-.477-.119-.477-1.074 0-.358.239-.597.477-.955l.12-.12c.239-.358.597-.597.597-.597l-.478-.835c1.194-.717 1.91-1.314 2.508-1.911 1.313-.358 3.462-1.194 5.134-2.627 1.075-.955 2.03-2.268 2.269-3.82.597-2.389-.24-3.822-.956-4.538zM1.432 7.881c-.12-1.433.12-2.508.836-3.344.358-.358.835-.597 1.194-.716-.12.239-.24.477-.24.716a1.07 1.07 0 0 0 1.075 1.075c.359 0 .717-.239.836-.478v.12c0 1.91.24 4.298.597 5.612.24.716.359 1.313.597 1.79-1.91-.716-4.537-2.268-4.895-4.775zm15.642 4.776c.238-.478.358-1.075.597-1.791.358-1.314.596-3.702.596-5.612.24.238.478.358.717.358a1.07 1.07 0 0 0 1.075-1.075c0-.239-.12-.477-.24-.716.24 0 .598.12.837.358h.119l.358.358c.717.717 1.075 1.91.836 3.344-.358 2.507-2.985 4.06-4.895 4.776z"/>
        <path opacity=".71" d="M5.134 5.134s0 4.776 1.194 7.642c.358.716.716 1.313 1.074 1.791 1.194 1.313 2.747 2.03 3.821 2.03 1.433 0 2.03 0 2.746-.478.717-.477 1.792-1.433 1.792-1.433s-5.015-.477-6.687-3.94c-1.672-3.463-1.91-9.313-1.91-9.313l-2.03.239v1.074c0-.12 1.194.836 0 2.388z"/>
        <path d="M5.134 1.672c5.373-.478 13.134 0 13.134 0l.239-.358s-1.91-.358-6.687-.24c-4.776.12-6.925.24-6.925.24l.239.358z"/>
        <path d="M8.475 15.403s.836.597 1.553 1.074c.716.478 2.985.24 3.462 0 .478-.239 1.433-.835 1.91-1.313.478-.358.598-.716.598-.716s-3.224 2.746-7.523.955z"/>
        <path d="M13.85 17.313s-.358.239-.597.597c-.478.12-1.553.239-3.224 0-.239-.239-.478-.477-.478-.597.12 0 .478.358 2.03.358 1.433-.119 2.269-.358 2.269-.358z"/>
        <path d="M13.254 20.06c-.12.119-.358.358-.358.477-.478 0-1.194.12-2.269 0l-.478-.478c.359.12 1.672.597 3.105 0z"/>
        <path d="M15.164 24H8.24l.358-1.194s2.627.358 6.448 0l.12 1.194z"/>
        <path d="M5.372 4.776c0 .12-.119.358-.358.478v-.12c-.12.239-.358.478-.716.478a1.07 1.07 0 0 1-1.075-1.075c0-.239.12-.477.24-.716.238-.12.477-.12.477-.12-.478.24-.478 1.314.477 1.433 1.075 0 1.075-.836.955-.358z"/>
        <path d="M7.522 14.567C5.373 13.97.716 12.18.24 8.12c0-.24-.12-.597-.12-.836.12 1.194.836 2.985 2.627 4.298 2.746 2.03 4.18 2.269 4.18 2.269s.357.597.596.716z"/>
        <path d="M5.492 3.463c0-.358-.358-.478-.358-.478s-1.433-.477-3.104.597C.597 4.418.12 6.21.12 6.806c0-1.552.716-2.627 1.313-3.224C2.507 2.508 3.82 2.388 4.537 2.508c.24 0 .478.119.597.119l.358.358c.12.478 0 .836 0 .478z"/>
        <path d="M18.626.359l-.12.716c-.596-.12-1.79-.239-4.059-.358-3.462-.24-8.358-.24-9.79-.24 0 0 4.417-.238 6.447-.238h.955c2.15-.12 6.567.12 6.567.12z"/>
        <path d="M5.134 4.657c-.12.358-.478.478-.717.478a.816.816 0 0 1-.836-.836c0-.358.24-.597.478-.716 0 .119-.12.238-.12.358 0 .477.359.716.836.716.12.12.24.12.359 0z"/>
        <path d="M13.852 17.313c-.239.12-1.194.478-3.343.239 0 0 2.03 0 2.746-.358 0 0 .239-.12.239-.24 0-.119-.12-.596-.12-.596l.478.955z"/>
        <path opacity=".45" d="M7.403 1.433s5.492-.239 10.865.12c0 0 0 3.82-.119 5.373-.12 1.552-.358 5.612-2.388 7.044-2.03 1.433-5.85-1.432-7.045-5.014-1.194-3.583-1.313-7.523-1.313-7.523z"/>
        <path opacity=".58" d="M13.255 20.06c-.239.12-.477.12-.955.239-.478 0-.478 0-.478-.12s.12-.238.717-1.313c.358-.717.597-.836.716-.836a3.575 3.575 0 0 0-.477.955c-.12.956.358.836.477 1.075z"/>
        <path opacity=".58" d="M14.924 22.806c-.955.238-3.104.238-4.179.238-1.074-.119-1.194-.238-1.194-.238s.956 0 1.553-.12 1.194-1.074 1.313-1.433c.12-.238.239-.477.358-.597 0 1.314 1.313 1.91 2.15 2.15z"/>
        <path d="M11.343 4.418c-.239.478-.477.716-.835 1.075-.359.238-.836.477-1.433.716v1.552c.477-.12.836-.239 1.074-.358.24-.12.597-.358.836-.597v4.418h1.91V4.418h-1.552z"/>
        <path d="M20.298 11.462c-2.149 1.91-3.94 2.269-3.94 2.269l.717-.955c2.03-.836 4.537-2.269 4.895-4.776.239-1.433-.12-2.627-.836-3.344l-.358-.358c1.313.836 1.433 1.91 1.552 2.746 0 .717.12 2.508-2.03 4.418z"/>
        <path d="M18.269 2.627s-.597.358-.597 1.314c0 .955.358 1.194.716 1.432.358.359.358-2.507-.12-2.746z"/>
        <path d="M20.658 12.418l.12-.12c-.12 0-.12 0-.12.12 0 0 0-.12 0 0z"/>
        <path d="M23.284 8.12c-.239 1.551-1.075 2.865-2.269 3.82.717-.716 1.791-2.269 2.03-3.463.12-1.432.239-3.701-1.313-4.895-1.553-1.194-3.344-.955-3.344-.955.12 0 .24-.12.478-.12.836-.119 2.15.12 3.104 1.075.836.716 1.672 2.15 1.314 4.537z"/>
        <path d="M17.792 4.776c.12.478.836.836 1.194.836a1.07 1.07 0 0 0 1.075-1.075c0-.239-.12-.477-.239-.716-.239-.12-.477-.12-.477-.12.477.12.477 1.314-.478 1.314-.717.12-.955-.12-1.075-.239 0 0 0-.12 0 0z"/>
        <path d="M18.15 4.657c.12.239.359.478.717.478a.816.816 0 0 0 .836-.836c0-.358-.239-.597-.478-.716 0 .119.12.238.12.358 0 .477-.358.716-.836.716-.239.12-.239.12-.358 0z"/>
        <path d="M5.493 5.253s0 5.732 2.03 8.358c2.03 2.627 5.493 2.03 5.493 2.03s-3.821 0-5.373-3.104c-1.553-3.105-2.15-7.284-2.15-7.284z"/>
        <path d="M9.551 17.313l.478-.835s.955.238 1.79.238c.837 0 1.434-.12 1.434-.12s-.24.24-1.553.24c-1.313.12-1.432 0-1.432 0l-.717.477z"/>
        <path d="M10.507 18.149s.359.358.359.836c0 .477-.12.12-.359.716-.12 0 1.075-.239 0-1.552z"/>
        <path d="M10.746 20.656s.12.717-.597 1.314c-.716.597-1.194.716-1.194.716s.597-.12 1.194-.597.717-1.194.717-1.194.955.12 1.552 0c0-.12-1.194 0-1.672-.239z"/>
        <path d="M14.684 22.925l.359.955-6.568-.12 6.21-.119v-.716z"/>
        <path d="M12.896 4.418v6.806l-.12-6.687h-1.313s-.24.478-.717 1.075c-.597.478-1.432.716-1.432.716l-.24 1.314V6.209c.598-.239 1.075-.478 1.434-.716.358-.24.597-.597.835-1.075h1.553z"/>
    </g>
    
</symbol><symbol id="ic-goldenCoin" viewBox="0 0 24 24">
    <circle cx="12" cy="12" r="10.5"/>
    <path fill-rule="evenodd" clip-rule="evenodd" d="M13.575 1.617C8.523 2.377 4.65 6.737 4.65 12c0 5.264 3.873 9.623 8.925 10.383-.514.077-1.04.117-1.575.117-5.799 0-10.5-4.701-10.5-10.5S6.201 1.5 12 1.5c.535 0 1.061.04 1.575.117z"/>
    <path d="M20.502 12.955a1.726 1.726 0 0 0-.933-.455c-1.36-.17-2.04-.474-2.973-1.402-.932-.91-1.243-1.535-1.457-2.86a1.725 1.725 0 0 0-.466-1.005 1.702 1.702 0 0 0-2.37 0 1.62 1.62 0 0 0-.367.53 1.589 1.589 0 0 0 .367 1.782c.267.258.617.419.99.454h-.018c1.38.17 2.117.588 2.972 1.44.855.834 1.321 1.516 1.438 2.937v-.019c.063.34.225.656.466.91a1.7 1.7 0 0 0 2.37 0c.31-.31.483-.727.479-1.16a1.62 1.62 0 0 0-.498-1.152zm-8.2 0a1.622 1.622 0 0 0-.366.53 1.588 1.588 0 0 0 .367 1.782 1.701 1.701 0 0 0 2.37 0c.157-.151.282-.331.367-.53a1.589 1.589 0 0 0-.367-1.782 1.7 1.7 0 0 0-2.37 0zM7.64 15.74a1.71 1.71 0 0 0 1.196-.47 1.594 1.594 0 0 0 0-2.32 1.707 1.707 0 0 0-1.196-.47 1.691 1.691 0 0 0-1.162.489A1.609 1.609 0 0 0 6 14.11c0 .427.172.837.478 1.142.307.305.724.48 1.162.488z"/>
</symbol><symbol id="ic-invite" viewBox="0 0 24 24">
    <path fill-rule="evenodd" clip-rule="evenodd" d="M22 6H2v2a4 4 0 1 1 0 8v2h20v-2a4 4 0 0 1 0-8V6zm-6.763 6.194a.906.906 0 0 1 .763.893.92.92 0 0 1-.255.645.888.888 0 0 1-.632.268.876.876 0 0 1-.632-.268 1.008 1.008 0 0 1-.25-.506v.01c-.061-.789-.31-1.168-.766-1.63-.456-.474-.85-.706-1.585-.8h.01a.865.865 0 0 1-.529-.253.902.902 0 0 1-.264-.642.914.914 0 0 1 .554-.841.876.876 0 0 1 .975.198c.14.154.227.35.248.558.114.737.28 1.084.777 1.59.498.515.86.684 1.586.778zm-4.071.547a.903.903 0 0 1 .195-.294.888.888 0 0 1 .632-.268.876.876 0 0 1 .633.268.903.903 0 0 1 .264.642.916.916 0 0 1-.554.841.876.876 0 0 1-.975-.198.903.903 0 0 1-.264-.643c0-.12.023-.238.069-.348zM9.219 13.93a.88.88 0 0 1-.344.066.885.885 0 0 1-.62-.272.913.913 0 0 1 0-1.268.884.884 0 0 1 .62-.271.88.88 0 0 1 .637.26.906.906 0 0 1 .265.645.918.918 0 0 1-.265.645.89.89 0 0 1-.293.195z"/>
</symbol><symbol id="ic-jewels" viewBox="0 0 24 24">
    <path class="st0" d="M12 21.9C11.8 21.9.1 8 .1 8H7l5 13.9z"/>
    <path class="st1" d="M12 2.8L7.1 8 5.2 2.8z"/>
    <path class="st2" d="M5.2 2.8L7.1 8h-7z"/>
    <path class="st1" d="M18.8 2.8L16.9 8 12 2.8z"/>
    <path class="st2" d="M23.9 8h-7l1.9-5.2z"/>
    <path class="st0" d="M23.9 8S12.3 22 12 22l4.9-14h7z"/>
    <path class="st1" d="M16.6 8.9L12 22 7.4 8.9z"/>
    <path class="st3" d="M16.9 8H7.1L12 2.8z"/>
    <path class="st4" d="M5.2 2.8L7.1 8 12 2.8 7.6 6.1z"/>
    <path class="st4" d="M12 2.8L16.9 8l1.9-5.2-2 3.8z"/>
    <path class="st4" d="M.1 8l6.3.8L12 21.9 7.1 8z"/>
    <path class="st4" d="M12 21.9L16.9 8H23l-5.5.8z"/>
</symbol><symbol id="ic-liquipedia" viewBox="0 0 22 16">
    <path d="M3.82 10.924s.86-.428 1.131-.467c.271-.038.388.14.43.56l.067 4.257s.02.365.321.382c.3.017 4.371-.496 4.371-.496s.63-.132.747-.437c.117-.306.025-.578-.096-.798-.12-.221-.785-1.12-.814-1.774-.029-.654.246-1.503 1.069-1.88.822-.378 1.8-.06 2.354.564.556.624.401 1.638.347 2.08-.054.441-.347 1.124.213 1.468.56.344 3.982-.993 3.982-.993s.497-.149.522-.416c.025-.267-.977-2.988-.977-2.988s-.104-.424.25-.573c.356-.148.986.077 1.767.14.78.064 1.398-.365 1.765-.874.368-.51.539-1.159.376-2.037-.163-.879-.872-1.524-1.874-1.816-1.002-.293-2.317.62-2.55.691-.235.072-.481.077-.59-.343-.108-.42-.083-4.47-.083-4.47s.02-.229-.184-.335c-.204-.106-4.746.535-4.746.535s-.501.144-.526.535c-.025.39.159.78.48 1.286.321.505.676 1.175.242 2.122-.355.772-1.248 1.06-1.891.993-.53-.055-1.252-.437-1.653-1.256-.4-.82-.017-1.55.096-2.029.113-.48-.067-.93-.547-1.04-.48-.11-2.317.607-2.317.607L3.82 2.7s-.276.102-.263.353c.012.25.901 2.822.901 2.822s.147.484-.087.679c-.234.195-1.578-.106-2.05-.09-.472.018-1.269.187-1.8 1.236-.53 1.048.043 2.338.477 2.775.434.438 1.235.79 1.828.735.593-.056.994-.285.994-.285z"/>
    <path d="M4.688 6.2c.288.158.539.302.806.446.238-.297.467-.581.705-.874-.33-.301-.664-.59-.972-.9-.426-.428-.831-.874-1.244-1.311a.863.863 0 0 1-.097-.115c-.233-.356-.175-.53.213-.666.355-.123.714-.233 1.065-.365.142-.05.196-.013.275.11.506.777 1.023 1.55 1.537 2.322.02.034.054.063.079.093.313-.216.622-.428.94-.653.308 1.044.964 1.676 2.007 1.765.873.077 1.549-.314 1.991-1.129.222.119.439.238.656.357.342.186.685.373 1.031.551.113.056.146.124.138.247-.025.492.092.933.376 1.353.768 1.134 1.502 2.296 2.254 3.442.08.12.083.2 0 .319-.263.373-.514.755-.76 1.141-.067.106-.125.12-.238.068-.438-.2-.88-.382-1.32-.581-.066-.03-.141-.102-.158-.166-.405-1.464-1.862-2.113-3.185-1.413a.748.748 0 0 1-.07.03c-.368-.471-.565-1.023-.694-1.605a6.44 6.44 0 0 0 .15 1.919c.021.089.005.212-.041.288-.405.696-.435 1.4-.059 2.118.159.297.326.59.489.887.033.064.066.123.096.187.233.505.079.819-.472.912-.622.106-1.252.187-1.879.26-.76.088-1.52.16-2.279.245-.35.039-.41-.012-.413-.36-.017-1.307-.025-2.615-.05-3.926a2.119 2.119 0 0 0-.088-.56c-.096-.314-.3-.416-.618-.323a4.762 4.762 0 0 0-.409.153c-.134.055-.263.123-.434.2.033-.272.067-.51.1-.773-.296.034-.576.076-.856.093-.734.043-1.47.077-2.208.106-.067.005-.125-.02-.154-.072C.522 9.413.392 8.76.58 8.068c.53.119 1.044.255 1.562.34.697.114 1.402.186 2.108.284.146.021.22-.026.275-.174.105-.293.234-.573.347-.849-.89-.327-1.887-.687-2.78-1.018.004-.026.28-.056.358-.047.497.042.998.097 1.495.14.104.008.209.008.313-.009.292-.034.41-.225.43-.534zm7.372.238c.088.162.167.323.26.48.212.356.438.407.813.204-.254-.387-.672-.522-1.073-.684zm2.877 4.38c.22.51.22.51.739.395a.63.63 0 0 1 .087-.017 72.056 72.056 0 0 0-.826-.378z"/>
    <path d="M6.963 1.787c.434-.14.78-.157.919-.094a.63.63 0 0 1 .375.62c-.016.301-.163.632-.225.93a4.252 4.252 0 0 0-.075.789c-.305-.751-.664-1.426-.994-2.245z"/>
    <path d="M14.056 11.88l.793 1.022c-.33.05-.618.093-.918.136.041-.4.079-.76.125-1.159z"/>
</symbol><symbol id="ic-play-green" viewBox="0 0 32 32">
    <path d="M24 16a8 8 0 1 1-16 0 8 8 0 0 1 16 0z"/>
    <circle cx="16" cy="16" r="12" fill-opacity=".32"/>
    <path d="M20 16l-6.4 4v-8l6.4 4z"/>
</symbol><symbol id="ic-rf-flag" viewBox="0 0 46 30">
    <path d="M46 0H0v15h46V0z"/>
    <path d="M46 15H0v15h46V15z"/>
    <path d="M46 10H0v10h46V10z"/>
</symbol><symbol id="ic-silverCup" viewBox="0 0 24 24">
    <g clip-path="url(#silverCup-a)">
        <path d="M8.9 11.2c-.1 0-.2-.1-.3-.1l.2-.1s0 .1.1.2z"/>
        <path d="M22.09 3.582c-1.075-1.075-2.389-1.194-3.105-1.075-.239 0-.478.12-.597.12V1.552l.12-.239V.955l.119-.716S14.209 0 12.179 0h-.955c-2.03.12-6.448.358-6.448.358l.12.955.238.24v.954c-.239.12-.477 0-.597 0-.836-.119-2.149.12-3.224 1.075C.716 4.18.12 5.134 0 6.806v.478c0 .238 0 .477.12.835.596 3.94 5.253 5.851 7.283 6.448.597.597 1.313 1.194 2.507 1.91l-.477.836s.239.24.477.597c.24.358.597.717.597 1.075 0 .955-.477.836-.477 1.075 0 .238.358.358.477.477v.12c0 1.313-1.313 1.91-2.149 2.149L8 24h7.045l-.359-1.194c-.716-.239-2.149-.836-2.149-2.15.12-.119.358-.358.358-.477v-.12c0-.238-.477-.119-.477-1.074 0-.358.239-.597.477-.955l.12-.12c.239-.358.597-.597.597-.597l-.478-.835c1.194-.717 1.91-1.314 2.508-1.911 1.313-.358 3.462-1.194 5.134-2.627 1.075-.955 2.03-2.268 2.269-3.82.597-2.389-.24-3.822-.956-4.538zM1.432 7.881c-.12-1.433.12-2.508.836-3.344.358-.358.835-.597 1.194-.716-.12.239-.24.477-.24.716a1.07 1.07 0 0 0 1.075 1.075c.359 0 .717-.239.836-.478v.12c0 1.91.24 4.298.597 5.612.24.716.359 1.313.597 1.79-1.91-.716-4.537-2.268-4.895-4.775zm15.642 4.776c.238-.478.358-1.075.597-1.791.358-1.314.596-3.702.596-5.612.24.238.478.358.717.358a1.07 1.07 0 0 0 1.075-1.075c0-.239-.12-.477-.24-.716.24 0 .598.12.837.358h.119l.358.358c.717.717 1.075 1.91.836 3.344-.358 2.507-2.985 4.06-4.895 4.776z"/>
        <path d="M5.134 5.134s0 4.776 1.194 7.642c.358.716.716 1.313 1.074 1.791 1.194 1.313 2.747 2.03 3.821 2.03 1.433 0 2.03 0 2.746-.478.717-.477 1.792-1.433 1.792-1.433s-5.015-.477-6.687-3.94c-1.672-3.463-1.91-9.313-1.91-9.313l-2.03.239v1.074c0-.12 1.194.836 0 2.388z"/>
        <path d="M5.134 1.672c5.373-.478 13.134 0 13.134 0l.239-.358s-1.91-.358-6.687-.24c-4.776.12-6.925.24-6.925.24l.239.358z"/>
        <path d="M8.475 15.403s.836.597 1.553 1.074c.716.478 2.985.24 3.462 0 .478-.239 1.433-.835 1.91-1.313.478-.358.598-.716.598-.716s-3.224 2.746-7.523.955z"/>
        <path d="M13.85 17.313s-.358.239-.597.597c-.478.12-1.553.239-3.224 0-.239-.239-.478-.477-.478-.597.12 0 .478.358 2.03.358 1.433-.119 2.269-.358 2.269-.358z"/>
        <path d="M13.254 20.06c-.12.119-.358.358-.358.477-.478 0-1.194.12-2.269 0l-.478-.478c.359.12 1.672.597 3.105 0z"/>
        <path d="M15.164 24H8.24l.358-1.194s2.627.358 6.448 0l.12 1.194z"/>
        <path d="M5.372 4.776c0 .12-.119.358-.358.478v-.12c-.12.239-.358.478-.716.478a1.07 1.07 0 0 1-1.075-1.075c0-.239.12-.477.24-.716.238-.12.477-.12.477-.12-.478.24-.478 1.314.477 1.433 1.075 0 1.075-.836.955-.358z"/>
        <path d="M7.522 14.567C5.373 13.97.716 12.18.24 8.12c0-.24-.12-.597-.12-.836.12 1.194.836 2.985 2.627 4.298 2.746 2.03 4.18 2.269 4.18 2.269s.357.597.596.716z"/>
        <path d="M5.492 3.463c0-.358-.358-.478-.358-.478s-1.433-.477-3.104.597C.597 4.418.12 6.21.12 6.806c0-1.552.716-2.627 1.313-3.224C2.507 2.508 3.82 2.388 4.537 2.508c.24 0 .478.119.597.119l.358.358c.12.478 0 .836 0 .478z"/>
        <path d="M18.626.359l-.12.716c-.596-.12-1.79-.239-4.059-.358-3.462-.24-8.358-.24-9.79-.24 0 0 4.417-.238 6.447-.238h.955c2.15-.12 6.567.12 6.567.12z"/>
        <path d="M5.134 4.657c-.12.358-.478.478-.717.478a.816.816 0 0 1-.836-.836c0-.358.24-.597.478-.716 0 .119-.12.238-.12.358 0 .477.359.716.836.716.12.12.24.12.359 0z"/>
        <path d="M13.852 17.313c-.239.12-1.194.478-3.343.239 0 0 2.03 0 2.746-.358 0 0 .239-.12.239-.24 0-.119-.12-.596-.12-.596l.478.955z"/>
        <path opacity=".45" d="M7.403 1.433s5.492-.239 10.865.12c0 0 0 3.82-.119 5.373-.12 1.552-.358 5.612-2.388 7.044-2.03 1.433-5.85-1.432-7.045-5.014-1.194-3.583-1.313-7.523-1.313-7.523z"/>
        <path opacity=".58" d="M13.255 20.06c-.239.12-.477.12-.955.239-.478 0-.478 0-.478-.12s.12-.238.717-1.313c.358-.717.597-.836.716-.836a3.575 3.575 0 0 0-.477.955c-.12.956.358.836.477 1.075z"/>
        <path opacity=".58" d="M14.924 22.806c-.955.238-3.104.238-4.179.238-1.074-.119-1.194-.238-1.194-.238s.956 0 1.553-.12 1.194-1.074 1.313-1.433c.12-.238.239-.477.358-.597 0 1.314 1.313 1.91 2.15 2.15z"/>
        <path d="M20.298 11.462c-2.149 1.91-3.94 2.269-3.94 2.269l.717-.955c2.03-.836 4.537-2.269 4.895-4.776.239-1.433-.12-2.627-.836-3.344l-.358-.358c1.313.836 1.433 1.91 1.552 2.746 0 .717.12 2.508-2.03 4.418z"/>
        <path d="M18.269 2.627s-.597.358-.597 1.314c0 .955.358 1.194.716 1.432.358.359.358-2.507-.12-2.746z"/>
        <path d="M20.658 12.418l.12-.12c-.12 0-.12 0-.12.12 0 0 0-.12 0 0z"/>
        <path d="M23.284 8.12c-.239 1.551-1.075 2.865-2.269 3.82.717-.716 1.791-2.269 2.03-3.463.12-1.432.239-3.701-1.313-4.895-1.553-1.194-3.344-.955-3.344-.955.12 0 .358-.12.478-.12.836-.119 2.15.12 3.104 1.075.836.716 1.672 2.15 1.314 4.537z"/>
        <path d="M17.792 4.776c.12.478.836.836 1.194.836a1.07 1.07 0 0 0 1.075-1.075c0-.239-.12-.477-.239-.716-.239-.12-.477-.12-.477-.12.477.12.477 1.314-.478 1.314-.717.12-.955-.12-1.075-.239 0 0 0-.12 0 0z"/>
        <path d="M18.15 4.657c.12.239.359.478.717.478a.816.816 0 0 0 .836-.836c0-.358-.239-.597-.478-.716 0 .119.12.238.12.358 0 .477-.358.716-.836.716-.239.12-.239.12-.358 0z"/>
        <path d="M5.493 5.253s0 5.732 2.03 8.358c2.03 2.627 5.493 2.03 5.493 2.03s-3.821 0-5.373-3.104c-1.553-3.105-2.15-7.284-2.15-7.284z"/>
        <path d="M9.551 17.313l.478-.835s.955.238 1.79.238c.837 0 1.434-.12 1.434-.12s-.24.24-1.553.24c-1.313.12-1.432 0-1.432 0l-.717.477z"/>
        <path d="M10.507 18.149s.359.358.359.836c0 .477-.12.12-.359.716-.12 0 1.075-.239 0-1.552z"/>
        <path d="M10.746 20.656s.12.717-.597 1.314c-.597.597-1.194.716-1.194.716s.597-.12 1.194-.597.717-1.194.717-1.194.955.12 1.552 0c0-.12-1.194 0-1.672-.239z"/>
        <path d="M14.684 22.925l.359.955-6.568-.12 6.21-.119v-.716z"/>
        <path d="M18.27 5.254s0 5.134-1.195 7.402c-1.194 2.27-2.865 2.27-2.865 2.27s1.432-.24 2.627-2.867c1.194-2.626 1.194-7.044 1.194-7.044l.238.239z"/>
        <path d="M11.941 4.298c1.553 0 2.508.836 2.508 1.91 0 .836-.716 1.553-1.194 2.03l-1.552 1.433h2.865v1.314H9.554V9.91l2.626-2.388c.597-.478.717-.836.717-1.313 0-.478-.358-.717-.956-.717-.597 0-.955.358-.955.955H9.315c0-1.194 1.074-2.149 2.627-2.149z"/>
        <path d="M12.539 5.85c.119.12.119.24.119.478 0 .358-.239.716-.716 1.313L9.314 10.03v1.074h.239v-.955L12.18 7.76c.597-.478.717-.836.717-1.194s-.12-.478-.358-.717zm-.598-1.552c-1.552 0-2.626.836-2.626 2.15h.239c.119-1.195 1.074-2.03 2.507-2.03.716 0 1.313.119 1.672.477-.359-.358-1.075-.597-1.792-.597z"/>
    </g>
    
</symbol><symbol id="ic-stop" viewBox="0 0 24 24">
    <path d="M23.797 6.827L17.173.203a.692.692 0 0 0-.49-.203H7.317a.692.692 0 0 0-.49.203L.204 6.827a.692.692 0 0 0-.203.49v9.367c0 .183.073.36.203.49l6.624 6.623c.13.13.306.203.49.203h9.367c.183 0 .36-.073.49-.203l6.623-6.624a.693.693 0 0 0 .203-.49V7.317a.692.692 0 0 0-.203-.49z"/>
    <path d="M12 0H7.316a.692.692 0 0 0-.49.203L.204 6.827a.692.692 0 0 0-.203.49v9.367c0 .183.073.36.203.49l6.624 6.623c.13.13.306.203.49.203H12V0z"/>
    <path d="M5.077 15.461A2.08 2.08 0 0 1 3 13.384a.692.692 0 0 1 1.385 0 .693.693 0 1 0 .692-.692A2.08 2.08 0 0 1 3 10.615a2.08 2.08 0 0 1 2.077-2.077 2.08 2.08 0 0 1 2.077 2.077.692.692 0 0 1-1.385 0 .693.693 0 1 0-.692.693 2.08 2.08 0 0 1 2.077 2.077 2.08 2.08 0 0 1-2.077 2.076z"/>
    <path d="M11.077 8.538h-2.77a.692.692 0 0 0 0 1.385H9v4.846a.692.692 0 0 0 1.385 0V9.923h.692a.692.692 0 0 0 0-1.385z"/>
    <path d="M14.77 15.461h-.924c-.89 0-1.615-.724-1.615-1.615v-3.692c0-.89.725-1.616 1.615-1.616h.923c.891 0 1.616.725 1.616 1.616v3.692c0 .89-.725 1.615-1.616 1.615zm-.924-5.538a.231.231 0 0 0-.23.23v3.693c0 .127.103.23.23.23h.923c.128 0 .231-.103.231-.23v-3.692a.231.231 0 0 0-.23-.23h-.924z"/>
    <path d="M17.539 15.461a.692.692 0 0 1-.693-.692v-4.615c0-.89.725-1.616 1.616-1.616h.923c.89 0 1.615.725 1.615 1.616v.923c0 .89-.724 1.615-1.615 1.615H18.23v2.077c0 .383-.31.692-.692.692zm.692-4.153h1.154c.127 0 .23-.104.23-.231v-.923a.231.231 0 0 0-.23-.23h-.923a.231.231 0 0 0-.231.23v1.154z"/>
</symbol></svg>