<svg width="128" height="128" viewBox="0 0 128 128" fill="none" xmlns="http://www.w3.org/2000/svg">
    <path d="M61.4749 116.693C91.789 116.693 116.363 92.1181 116.363 61.804C116.363 31.49 91.789 6.91553 61.4749 6.91553C31.1609 6.91553 6.58643 31.49 6.58643 61.804C6.58643 92.1181 31.1609 116.693 61.4749 116.693Z" fill="#61537C"/>
    <path d="M60.3773 101.324C82.8097 101.324 100.995 83.1388 100.995 60.7064C100.995 38.2739 82.8097 20.0889 60.3773 20.0889C37.9448 20.0889 19.7598 38.2739 19.7598 60.7064C19.7598 83.1388 37.9448 101.324 60.3773 101.324Z" fill="#7D6599"/>
    <path d="M59.2794 79.3684C70.1925 79.3684 79.0393 70.5216 79.0393 59.6085C79.0393 48.6954 70.1925 39.8486 59.2794 39.8486C48.3663 39.8486 39.5195 48.6954 39.5195 59.6085C39.5195 70.5216 48.3663 79.3684 59.2794 79.3684Z" fill="#936AAD"/>
    <path d="M60.3775 72.7818C65.834 72.7818 70.2574 68.3584 70.2574 62.9019C70.2574 57.4454 65.834 53.022 60.3775 53.022C54.921 53.022 50.4976 57.4454 50.4976 62.9019C50.4976 68.3584 54.921 72.7818 60.3775 72.7818Z" fill="#F09372"/>
    <path d="M118.559 17.8935C119.772 17.8935 120.755 16.9105 120.755 15.698C120.755 14.4854 119.772 13.5024 118.559 13.5024C117.347 13.5024 116.364 14.4854 116.364 15.698C116.364 16.9105 117.347 17.8935 118.559 17.8935Z" fill="#F29C1F"/>
    <path d="M125.146 72.7822C126.358 72.7822 127.341 71.7992 127.341 70.5867C127.341 69.3741 126.358 68.3911 125.146 68.3911C123.933 68.3911 122.95 69.3741 122.95 70.5867C122.95 71.7992 123.933 72.7822 125.146 72.7822Z" fill="#F29C1F"/>
    <path d="M105.386 66.1953C106.599 66.1953 107.582 65.2123 107.582 63.9997C107.582 62.7872 106.599 61.8042 105.386 61.8042C104.173 61.8042 103.19 62.7872 103.19 63.9997C103.19 65.2123 104.173 66.1953 105.386 66.1953Z" fill="#38454F"/>
    <path d="M83.4304 99.1284C84.643 99.1284 85.6259 98.1454 85.6259 96.9328C85.6259 95.7203 84.643 94.7373 83.4304 94.7373C82.2178 94.7373 81.2349 95.7203 81.2349 96.9328C81.2349 98.1454 82.2178 99.1284 83.4304 99.1284Z" fill="#38454F"/>
    <path d="M82.7434 78.271C83.956 78.271 84.9389 77.288 84.9389 76.0754C84.9389 74.8629 83.956 73.8799 82.7434 73.8799C81.5308 73.8799 80.5479 74.8629 80.5479 76.0754C80.5479 77.288 81.5308 78.271 82.7434 78.271Z" fill="#84B5CB"/>
    <path d="M52.6931 82.6621C53.9057 82.6621 54.8886 81.6791 54.8886 80.4665C54.8886 79.254 53.9057 78.271 52.6931 78.271C51.4805 78.271 50.4976 79.254 50.4976 80.4665C50.4976 81.6791 51.4805 82.6621 52.6931 82.6621Z" fill="#F3D55B"/>
    <path d="M60.3772 65.0976C61.5897 65.0976 62.5727 64.1146 62.5727 62.9021C62.5727 61.6895 61.5897 60.7065 60.3772 60.7065C59.1646 60.7065 58.1816 61.6895 58.1816 62.9021C58.1816 64.1146 59.1646 65.0976 60.3772 65.0976Z" fill="#38454F"/>
    <path d="M70.2571 49.5796C71.4696 49.5796 72.4526 48.5966 72.4526 47.384C72.4526 46.1715 71.4696 45.1885 70.2571 45.1885C69.0445 45.1885 68.0615 46.1715 68.0615 47.384C68.0615 48.5966 69.0445 49.5796 70.2571 49.5796Z" fill="#84B5CB"/>
    <path d="M54.8884 46.4355C56.101 46.4355 57.084 45.4525 57.084 44.24C57.084 43.0274 56.101 42.0444 54.8884 42.0444C53.6758 42.0444 52.6929 43.0274 52.6929 44.24C52.6929 45.4525 53.6758 46.4355 54.8884 46.4355Z" fill="#38454F"/>
    <path d="M35.1286 64C36.3412 64 37.3242 63.017 37.3242 61.8044C37.3242 60.5919 36.3412 59.6089 35.1286 59.6089C33.9161 59.6089 32.9331 60.5919 32.9331 61.8044C32.9331 63.017 33.9161 64 35.1286 64Z" fill="#84B5CB"/>
    <path d="M107.581 123.279C108.794 123.279 109.777 122.296 109.777 121.084C109.777 119.871 108.794 118.888 107.581 118.888C106.369 118.888 105.386 119.871 105.386 121.084C105.386 122.296 106.369 123.279 107.581 123.279Z" fill="#F29C1F"/>
    <path d="M125.146 116.693C126.358 116.693 127.341 115.71 127.341 114.497C127.341 113.285 126.358 112.302 125.146 112.302C123.933 112.302 122.95 113.285 122.95 114.497C122.95 115.71 123.933 116.693 125.146 116.693Z" fill="#F3D55B"/>
    <path d="M122.95 125.475C124.163 125.475 125.146 124.492 125.146 123.28C125.146 122.067 124.163 121.084 122.95 121.084C121.738 121.084 120.755 122.067 120.755 123.28C120.755 124.492 121.738 125.475 122.95 125.475Z" fill="#F29C1F"/>
    <path d="M32.9333 125.475C34.1459 125.475 35.1289 124.492 35.1289 123.28C35.1289 122.067 34.1459 121.084 32.9333 121.084C31.7208 121.084 30.7378 122.067 30.7378 123.28C30.7378 124.492 31.7208 125.475 32.9333 125.475Z" fill="#F3D55B"/>
    <path d="M24.1511 116.693C25.3637 116.693 26.3466 115.71 26.3466 114.497C26.3466 113.285 25.3637 112.302 24.1511 112.302C22.9385 112.302 21.9556 113.285 21.9556 114.497C21.9556 115.71 22.9385 116.693 24.1511 116.693Z" fill="#FF5364"/>
    <path d="M4.39085 96.9331C5.60342 96.9331 6.58639 95.9501 6.58639 94.7375C6.58639 93.525 5.60342 92.542 4.39085 92.542C3.17829 92.542 2.19531 93.525 2.19531 94.7375C2.19531 95.9501 3.17829 96.9331 4.39085 96.9331Z" fill="#F3D55B"/>
    <path d="M4.39085 64C5.60342 64 6.58639 63.017 6.58639 61.8044C6.58639 60.5919 5.60342 59.6089 4.39085 59.6089C3.17829 59.6089 2.19531 60.5919 2.19531 61.8044C2.19531 63.017 3.17829 64 4.39085 64Z" fill="#F3D55B"/>
    <path d="M2.19554 81.5639C3.4081 81.5639 4.39108 80.581 4.39108 79.3684C4.39108 78.1558 3.4081 77.1729 2.19554 77.1729C0.982977 77.1729 0 78.1558 0 79.3684C0 80.581 0.982977 81.5639 2.19554 81.5639Z" fill="#38454F"/>
    <path d="M2.19554 13.5024C3.4081 13.5024 4.39108 12.5194 4.39108 11.3069C4.39108 10.0943 3.4081 9.11133 2.19554 9.11133C0.982977 9.11133 0 10.0943 0 11.3069C0 12.5194 0.982977 13.5024 2.19554 13.5024Z" fill="#F29C1F"/>
    <path d="M32.9333 17.8935C34.1459 17.8935 35.1289 16.9105 35.1289 15.698C35.1289 14.4854 34.1459 13.5024 32.9333 13.5024C31.7208 13.5024 30.7378 14.4854 30.7378 15.698C30.7378 16.9105 31.7208 17.8935 32.9333 17.8935Z" fill="#F3D55B"/>
    <path d="M57.0842 28.8711C58.2968 28.8711 59.2798 27.8881 59.2798 26.6755C59.2798 25.463 58.2968 24.48 57.0842 24.48C55.8716 24.48 54.8887 25.463 54.8887 26.6755C54.8887 27.8881 55.8716 28.8711 57.0842 28.8711Z" fill="#F3D55B"/>
    <path d="M26.3464 44.2397C27.559 44.2397 28.542 43.2567 28.542 42.0442C28.542 40.8316 27.559 39.8486 26.3464 39.8486C25.1339 39.8486 24.1509 40.8316 24.1509 42.0442C24.1509 43.2567 25.1339 44.2397 26.3464 44.2397Z" fill="#0096E6"/>
    <path d="M21.9553 90.3462C23.1679 90.3462 24.1508 89.3632 24.1508 88.1506C24.1508 86.9381 23.1679 85.9551 21.9553 85.9551C20.7427 85.9551 19.7598 86.9381 19.7598 88.1506C19.7598 89.3632 20.7427 90.3462 21.9553 90.3462Z" fill="#F3D55B"/>
    <path d="M59.2795 116.693C60.4921 116.693 61.4751 115.71 61.4751 114.497C61.4751 113.285 60.4921 112.302 59.2795 112.302C58.067 112.302 57.084 113.285 57.084 114.497C57.084 115.71 58.067 116.693 59.2795 116.693Z" fill="#F3D55B"/>
    <path d="M109.777 96.9331C110.99 96.9331 111.973 95.9501 111.973 94.7375C111.973 93.525 110.99 92.542 109.777 92.542C108.565 92.542 107.582 93.525 107.582 94.7375C107.582 95.9501 108.565 96.9331 109.777 96.9331Z" fill="#F3D55B"/>
    <path d="M103.19 9.1113C104.403 9.1113 105.386 8.12832 105.386 6.91576C105.386 5.70319 104.403 4.72021 103.19 4.72021C101.978 4.72021 100.995 5.70319 100.995 6.91576C100.995 8.12832 101.978 9.1113 103.19 9.1113Z" fill="#F29C1F"/>
    <path d="M76.844 17.8935C78.0565 17.8935 79.0395 16.9105 79.0395 15.698C79.0395 14.4854 78.0565 13.5024 76.844 13.5024C75.6314 13.5024 74.6484 14.4854 74.6484 15.698C74.6484 16.9105 75.6314 17.8935 76.844 17.8935Z" fill="#F3D55B"/>
    <path d="M122.95 37.6533C125.375 37.6533 127.341 35.6873 127.341 33.2622C127.341 30.837 125.375 28.8711 122.95 28.8711C120.525 28.8711 118.559 30.837 118.559 33.2622C118.559 35.6873 120.525 37.6533 122.95 37.6533Z" fill="#FF5364"/>
    <path d="M8.78219 44.2402C11.2073 44.2402 13.1733 42.2742 13.1733 39.8491C13.1733 37.424 11.2073 35.458 8.78219 35.458C6.35707 35.458 4.39111 37.424 4.39111 39.8491C4.39111 42.2742 6.35707 44.2402 8.78219 44.2402Z" fill="#F29C1F"/>
    <path d="M8.78219 116.693C11.2073 116.693 13.1733 114.727 13.1733 112.302C13.1733 109.877 11.2073 107.911 8.78219 107.911C6.35707 107.911 4.39111 109.877 4.39111 112.302C4.39111 114.727 6.35707 116.693 8.78219 116.693Z" fill="#14A085"/>
    <path d="M59.0402 53.0223C48.1174 53.0223 39.2803 61.8593 39.2803 72.7822C39.2803 83.705 50.3129 92.542 61.2357 92.542C79.8803 93.1546 94.7331 83.863 98.3909 65.5698C102.694 44.0491 88.7371 23.1146 67.2164 18.8092C41.8974 13.7463 17.2679 30.1667 12.2049 55.4857C6.24844 85.2726 25.5648 114.247 55.3517 120.206C84.5173 126.039 113.022 111.274 125.804 85.9554" stroke="#955BA5" stroke-width="2" stroke-miterlimit="10" stroke-linecap="round"/>
    <path d="M61.4752 72.7818C74.7845 73.5129 83.5799 64.3334 83.5799 53.4128C83.5799 42.4921 74.7428 33.6529 63.82 33.6529C45.1755 33.0403 28.1271 42.3319 24.4693 60.6251C20.1661 82.1458 34.1231 103.08 55.6438 107.386C80.9628 112.449 105.592 96.0304 110.655 70.7114C116.612 40.9245 97.2954 11.9478 67.5085 5.99129C43.0392 1.09523 19.0354 10.6985 4.39111 28.8688" stroke="#8697CB" stroke-width="2" stroke-miterlimit="10" stroke-linecap="round"/>
</svg>
