<svg width="24" height="24" viewBox="0 0 24 24" fill="none" xmlns="http://www.w3.org/2000/svg">
<path fill-rule="evenodd" clip-rule="evenodd" d="M11.0727 5.55432C11.0727 7.51732 9.48136 9.10864 7.51837 9.10864C5.55537 9.10864 3.96405 7.51732 3.96405 5.55432C3.96405 3.59132 5.55537 2 7.51837 2C9.48136 2 11.0727 3.59132 11.0727 5.55432ZM2.00401 12.9327C1.96185 12.4881 2.21966 12.0694 2.63569 11.9069L7.15428 10.1418C7.38824 10.0504 7.64803 10.0504 7.88199 10.1418L12.4006 11.9069C12.8166 12.0694 13.0744 12.4881 13.0323 12.9327L12.2585 21.094C12.2098 21.6075 11.7787 21.9997 11.2629 21.9997H3.77334C3.25762 21.9997 2.82648 21.6075 2.77781 21.094L2.00401 12.9327ZM17 9C17 8.44772 17.4477 8 18 8C18.5523 8 19 8.44772 19 9V11H21C21.5523 11 22 11.4477 22 12C22 12.5523 21.5523 13 21 13H19V15C19 15.5523 18.5523 16 18 16C17.4477 16 17 15.5523 17 15V13H15C14.4477 13 14 12.5523 14 12C14 11.4477 14.4477 11 15 11H17V9Z" fill="#919CB3"/>
</svg>
