<svg width="24" height="24" viewBox="0 0 24 24" fill="none" xmlns="http://www.w3.org/2000/svg">
<path fill-rule="evenodd" clip-rule="evenodd" d="M19.9918 12.3069C19.9972 12.205 20 12.1027 20 12L20 6.00013L20 6.00009L12 2V2.00005L12 2.00005L3.99997 6L3.99999 12C3.99999 17.5229 12 22 12 22C12 22 18.125 18.5722 19.6563 14.0153C19.8425 13.4612 19.9608 12.8903 19.9918 12.3069ZM12 19.6443C11.9572 19.6159 11.9134 19.5865 11.8686 19.5563C11.1724 19.0865 10.2526 18.4122 9.34187 17.5881C7.40485 15.8354 5.99999 13.8491 5.99999 12L5.99998 8.15581L5.99998 7.23607L12 4.23612L12 4.23613V7.99995L12 12.5L12 19.6443Z" fill="#919CB3"/>
</svg>
