<svg width="24" height="24" viewBox="0 0 24 24" fill="none" xmlns="http://www.w3.org/2000/svg">
<path d="M2 12C2 11.4477 2.44772 11 3 11L18.9239 11L14.3203 6.73345C13.9152 6.35804 13.8911 5.72533 14.2666 5.32026C14.642 4.91519 15.2747 4.89114 15.6797 5.26656L21.3445 10.5166C21.7815 10.9215 22 11.4608 22 12C22 12.5392 21.7815 13.0785 21.3445 13.4835L15.6797 18.7335C15.2747 19.1089 14.642 19.0848 14.2666 18.6797C13.8911 18.2747 13.9152 17.642 14.3203 17.2666L18.9239 13L3 13C2.44772 13 2 12.5523 2 12Z" fill="#3BBBE9"/>
</svg>
