<svg width="24" height="24" viewBox="0 0 24 24" fill="none" xmlns="http://www.w3.org/2000/svg">
<path fill-rule="evenodd" clip-rule="evenodd" d="M8.99994 16.625C8.41513 15.1177 7 13 7 13V11V8V5V3L9 2H17.5C18.3284 2 19 2.67157 19 3.5C19 4.32843 18.3284 5 17.5 5H18.5C19.3284 5 20 5.67157 20 6.5C20 7.32843 19.3284 8 18.5 8H19.5C20.3284 8 21 8.67157 21 9.5C21 10.3284 20.3284 11 19.5 11H20.5C21.3284 11 22 11.6716 22 12.5C22 13.3284 21.3284 14 20.5 14H11.9998C11.9998 14 12.7576 15.5654 12.9998 16.625C13.2245 17.6083 13.1855 19.2888 13.1149 20.5095C13.0658 21.3579 12.354 22 11.5041 22C10.6507 22 9.93604 21.3528 9.82081 20.5071C9.6533 19.278 9.37301 17.5866 8.99994 16.625ZM3 14C2.44772 14 2 13.5523 2 13V3C2 2.44772 2.44772 2 3 2H6V14H3Z" fill="#919CB3"/>
</svg>
