<svg width="20" height="20" viewBox="0 0 20 20" fill="none" xmlns="http://www.w3.org/2000/svg">
<path d="M16.33 2.52889C16.1924 2.33136 16.0072 2.1869 15.7748 2.09527C15.6267 2.03189 15.4716 2.00015 15.3094 2.00015V2H4.22664C4.06452 2 3.90951 2.03174 3.76142 2.09512C3.52881 2.18668 3.34369 2.33132 3.20624 2.52874C3.06882 2.72616 3 2.94462 3 3.18438V16.8156C3 17.0555 3.06882 17.2738 3.20624 17.4714C3.34369 17.6688 3.52881 17.8134 3.76142 17.905C3.90936 17.9683 4.06452 18 4.22664 18C4.55811 18 4.85053 17.8836 5.1044 17.6512L9.76805 13.1671L14.4317 17.6513C14.6785 17.8765 14.9711 17.9893 15.3094 17.9893C15.4857 17.9893 15.6408 17.9613 15.7748 17.9049C16.0072 17.8134 16.1924 17.6688 16.3299 17.4711C16.4674 17.2738 16.536 17.0554 16.536 16.8156V3.18452C16.5361 2.94477 16.4672 2.72631 16.33 2.52889ZM15.1825 16.4876L10.7093 12.1942L9.76805 11.2954L8.82691 12.1942L4.35372 16.4876V3.35376H15.1825V16.4876Z" fill="#919CB3"/>
</svg>
