<svg width="24" height="24" viewBox="0 0 24 24" fill="none" xmlns="http://www.w3.org/2000/svg">
<path d="M20.6625 2.66111C20.4906 2.41419 20.2591 2.23363 19.9685 2.11908C19.7834 2.03986 19.5895 2.00019 19.3867 2.00019L5.5333 2C5.33065 2 5.13688 2.03968 4.95178 2.1189C4.66102 2.23335 4.42961 2.41415 4.2578 2.66092C4.08602 2.9077 4 3.18077 4 3.48047V20.5195C4 20.8193 4.08602 21.0923 4.2578 21.3393C4.42961 21.586 4.66102 21.7668 4.95178 21.8812C5.1367 21.9604 5.33065 22 5.5333 22C5.94763 22 6.31317 21.8545 6.6305 21.564L12.4601 15.9589L18.2896 21.5641C18.5981 21.8456 18.9638 21.9867 19.3867 21.9867C19.6071 21.9867 19.801 21.9517 19.9684 21.8811C20.259 21.7667 20.4905 21.586 20.6624 21.3389C20.8342 21.0923 20.92 20.8192 20.92 20.5195V3.48065C20.9201 3.18096 20.8341 2.90788 20.6625 2.66111Z" fill="#3BBBE9"/>
</svg>
