<svg width="24" height="24" viewBox="0 0 24 24" fill="none" xmlns="http://www.w3.org/2000/svg">
<path d="M2 3C2 2.44772 2.44772 2 3 2H7C7.55228 2 8 2.44772 8 3V5L12 5C12.5523 5 13 5.44772 13 6V11H16V9C16 8.44772 16.4477 8 17 8H21C21.5523 8 22 8.44772 22 9V15C22 15.5523 21.5523 16 21 16H17C16.4477 16 16 15.5523 16 15V13H13L13 18C13 18.5523 12.5523 19 12 19H8V21C8 21.5523 7.55228 22 7 22H3C2.44772 22 2 21.5523 2 21V15C2 14.4477 2.44772 14 3 14H7C7.55228 14 8 14.4477 8 15V17H11L11 7H8V9C8 9.55228 7.55228 10 7 10H3C2.44772 10 2 9.55228 2 9V3Z" fill="#010E28"/>
</svg>
