<svg width="24" height="24" viewBox="0 0 24 24" fill="none" xmlns="http://www.w3.org/2000/svg">
<path fill-rule="evenodd" clip-rule="evenodd" d="M12.0002 1.20001L15.1634 4.36325H19.637V8.83676L22.8002 12L19.637 15.1632V19.6367H15.1635L12.0002 22.8L8.83693 19.6367H4.36344V15.1632L1.2002 12L4.36344 8.83676V4.36325H8.83696L12.0002 1.20001ZM9.30887 12.5158C9.25181 12.4684 9.20203 12.4271 9.13381 12.385C9.08413 12.4675 9.02856 12.6061 8.97835 12.7314C8.95553 12.7884 8.93382 12.8425 8.91429 12.8874C8.88979 12.9456 8.86613 13.0023 8.8426 13.0584C8.79808 13.1649 8.75405 13.2701 8.70587 13.383C8.46341 13.9463 8.47308 13.9519 8.61489 14.0352C8.63885 14.0493 8.66659 14.0655 8.69753 14.0871L8.899 14.2278C8.94726 14.2619 9.0205 14.3247 9.0919 14.3859C9.18292 14.464 9.27096 14.5395 9.30054 14.5495C9.57301 14.6416 9.85552 14.5295 10.1564 14.4102C10.2437 14.3755 10.3326 14.3404 10.4232 14.3093C10.5605 14.2625 10.767 14.2109 10.8859 14.1813C10.9355 14.1689 10.9698 14.1603 10.9776 14.1575C10.9338 14.0902 10.9009 14.0585 10.8603 14.0196C10.8327 13.993 10.8014 13.963 10.7608 13.9158C10.6135 13.7475 10.2328 13.365 10.0842 13.2243L9.3714 12.5671C9.349 12.5491 9.3285 12.5321 9.30887 12.5158ZM14.8471 8.77642C14.761 8.66736 14.4052 8.46582 14.258 8.41474C13.976 8.54726 13.9232 8.56936 13.5828 8.65494L12.9297 8.80127C12.8898 8.81176 12.8841 8.81167 12.8823 8.81426C12.8808 8.81644 12.8818 8.82052 12.8672 8.8344L13.309 9.18642C13.5382 9.37002 14.2525 9.89459 14.4609 10.034C14.4961 10.0576 14.5166 10.0764 14.5327 10.091C14.5729 10.1277 14.5845 10.1383 14.7277 10.1334L14.8722 9.00834C14.8767 8.98643 14.8812 8.96792 14.885 8.95188C14.9042 8.87081 14.9086 8.85247 14.8471 8.77642ZM8.55676 8.58761C8.50573 8.59873 8.45827 8.60908 8.40019 8.64114C8.41923 8.67731 8.51906 8.76634 8.619 8.85548C8.6869 8.91604 8.75485 8.97665 8.79757 9.02076C8.86707 9.09197 8.93054 9.16168 8.99405 9.23144C9.05244 9.29558 9.11088 9.35977 9.17411 9.42523C9.19566 9.44737 9.21388 9.46138 9.2322 9.47548C9.24931 9.48864 9.26652 9.50188 9.28665 9.52187L9.56453 9.81452C9.58625 9.84002 9.60657 9.86518 9.62661 9.88998C9.66297 9.935 9.69839 9.97888 9.7396 10.0216L10.03 10.3198C10.041 10.3322 10.0488 10.3413 10.0552 10.3488C10.0731 10.3698 10.0812 10.3792 10.1231 10.4178L10.4468 10.7822C10.4536 10.7895 10.4566 10.793 10.4588 10.7956C10.4625 10.7999 10.4638 10.8014 10.476 10.8126L10.4954 10.8305C10.535 10.8668 10.5629 10.9034 10.5916 10.9412C10.6144 10.9711 10.6377 11.0017 10.6677 11.0335C10.7605 11.131 10.8491 11.227 10.9359 11.3213C11.0962 11.4951 11.2509 11.6629 11.4166 11.8231L12.5282 12.8681C12.5613 12.9135 12.5592 12.9277 12.5568 12.9433C12.5515 12.978 12.5452 13.0191 12.927 13.4231C12.9964 13.4962 13.0575 13.5583 13.127 13.6246C13.2273 13.7215 13.3678 13.8747 13.5079 14.0272C13.6471 14.179 13.7859 14.3303 13.8843 14.4252C13.9101 14.4498 13.9196 14.4595 13.9309 14.4628C13.9458 14.4671 13.9638 14.4604 14.026 14.4611C14.3636 14.4666 14.6359 14.4694 14.982 14.4556C15.033 14.3469 15.0799 14.2511 15.1232 14.1625C15.284 13.834 15.3961 13.6053 15.4891 13.1856C15.497 13.1508 15.5066 13.1005 15.5173 13.0447C15.5422 12.9144 15.573 12.7546 15.6002 12.6955L14.2371 11.8093C13.9957 11.6419 13.7342 11.4734 13.4734 11.3053C13.2181 11.1407 12.9633 10.9765 12.7282 10.814L10.5149 9.3645C10.379 9.26524 10.3342 9.22783 10.2829 9.21216C10.2471 9.20124 10.2081 9.20086 10.1328 9.19746L9.99942 8.98487C9.95636 8.91308 9.6868 8.70877 9.62706 8.67288C9.59625 8.65386 9.55434 8.6238 9.50814 8.59067C9.40013 8.5132 9.26862 8.41889 9.2005 8.40922C9.10602 8.39542 8.95041 8.39128 8.88233 8.43959C8.72732 8.55043 8.63757 8.56999 8.55676 8.58761Z" fill="#010E28"/>
</svg>
