<svg width="24" height="24" viewBox="0 0 24 24" fill="none" xmlns="http://www.w3.org/2000/svg">
<path fill-rule="evenodd" clip-rule="evenodd" d="M8.00004 3C7.44775 3 7.00003 3.44772 7.00003 4.00001V5H9.00004V4C9.00004 3.44772 8.55233 3 8.00004 3ZM4.2 5C3.53726 5 3 5.53726 3 6.2V19.8C3 20.4628 3.53726 21 4.2 21H19.8C20.4628 21 21 20.4628 21 19.8V6.2C21 5.53727 20.4628 5 19.8 5H4.2ZM15 4C15 3.44772 15.4477 3 16 3C16.5523 3 17 3.44772 17 4V5H15V4ZM19 9H4.99996V19H19V9ZM11 12C11 11.4477 11.4477 11 12 11C12.5522 11 13 11.4477 13 12V13H14C14.5523 13 15 13.4477 15 14C15 14.5523 14.5523 15 14 15H13V16C13 16.5523 12.5522 17 12 17C11.4477 17 11 16.5523 11 16V15H10C9.44772 15 9 14.5523 9 14C9 13.4477 9.44772 13 10 13H11V12Z" fill="#010E28"/>
</svg>
