<svg width="24" height="24" viewBox="0 0 24 24" fill="none" xmlns="http://www.w3.org/2000/svg">
<path fill-rule="evenodd" clip-rule="evenodd" d="M6 4C6 3.44772 6.44772 3 7 3C7.55228 3 8 3.44772 8 4V5H16V4C16 3.44772 16.4477 3 17 3C17.5523 3 18 3.44772 18 4V5H21C21.5523 5 22 5.44772 22 6V20C22 20.5523 21.5523 21 21 21H3C2.44772 21 2 20.5523 2 20V6C2 5.44772 2.44772 5 3 5H6V4ZM4 8H20V19H4V8ZM6 12V10H8V12H6ZM11 10H13V12H11V10ZM18 12V10H16V12H18ZM6 17V15H8V17H6ZM13 15H11V17H13V15ZM16 17V15H18V17H16Z" fill="white"/>
</svg>
