<svg width="24" height="24" viewBox="0 0 24 24" fill="none" xmlns="http://www.w3.org/2000/svg">
<path fill-rule="evenodd" clip-rule="evenodd" d="M6 3C4.34315 3 3 4.34315 3 6V18C3 19.6569 4.34315 21 6 21H18C19.6569 21 21 19.6569 21 18V14C21 13.4477 20.5523 13 20 13C19.4477 13 19 13.4477 19 14V18C19 18.5523 18.5523 19 18 19H6C5.44772 19 5 18.5523 5 18V6C5 5.44772 5.44772 5 6 5H19C19 5.55228 19.4477 6 20 6C20.5523 6 21 5.55228 21 5C21 3.89543 20.1046 3 19 3H6ZM20.7278 9.46531C21.0907 9.1301 21.0907 8.58662 20.7278 8.25141C20.3649 7.9162 19.7766 7.9162 19.4137 8.25141L12.1859 14.9277L7.58635 10.6791C7.22345 10.3439 6.63507 10.3439 6.27217 10.6791C5.90928 11.0143 5.90928 11.5578 6.27217 11.893L11.5288 16.7486C11.7031 16.9096 11.9394 17 12.1859 17C12.4323 17 12.6687 16.9096 12.843 16.7486L20.7278 9.46531Z" fill="#919CB3"/>
</svg>
