<svg width="24" height="24" viewBox="0 0 24 24" fill="none" xmlns="http://www.w3.org/2000/svg">
<path fill-rule="evenodd" clip-rule="evenodd" d="M3.32863 3.29299C3.71916 2.90246 4.35232 2.90246 4.74284 3.29298L12.0106 10.5608L19.2784 3.29298C19.6689 2.90246 20.3021 2.90246 20.6926 3.29299L20.7283 3.32872C21.1189 3.71925 21.1189 4.35241 20.7283 4.74294L13.4606 12.0107L20.728 19.2782C21.1186 19.6687 21.1186 20.3019 20.728 20.6924L20.6923 20.7281C20.3018 21.1187 19.6686 21.1187 19.2781 20.7281L12.0106 13.4607L4.74314 20.7281C4.35262 21.1187 3.71945 21.1187 3.32893 20.7281L3.29319 20.6924C2.90267 20.3019 2.90267 19.6687 3.29319 19.2782L10.5607 12.0107L3.29289 4.74294C2.90237 4.35241 2.90237 3.71925 3.29289 3.32872L3.32863 3.29299Z" fill="#919CB3"/>
</svg>
