<svg width="24" height="24" viewBox="0 0 24 24" fill="none" xmlns="http://www.w3.org/2000/svg">
<path fill-rule="evenodd" clip-rule="evenodd" d="M11.9 5.3C11.9334 5.40012 11.9667 5.50835 12 5.62382C12.0333 5.50835 12.0666 5.40012 12.1 5.3C12.6763 3.57099 13.5775 2 15.4 2C17.2225 2 18.7 3.47746 18.7 5.3C20.5225 5.3 22 6.77746 22 8.6C22 10.4225 20.429 11.3237 18.7 11.9C18.5999 11.9334 18.4917 11.9667 18.3762 12C18.4917 12.0333 18.5999 12.0666 18.7 12.1C20.429 12.6763 22 13.5775 22 15.4C22 16.532 21.43 17.5309 20.5614 18.1253C20.67 18.2216 20.7732 18.3245 20.8709 18.434C21.7302 19.3964 22 20.6865 22 22H20C20 20.9135 19.7698 20.2036 19.3791 19.766C19.2108 19.5775 18.9789 19.4023 18.6515 19.2671C18.3826 20.8194 17.0292 22 15.4 22C13.5775 22 12.6763 20.429 12.1 18.7C12.0666 18.5999 12.0333 18.4917 12 18.3762C11.9667 18.4917 11.9334 18.5999 11.9 18.7C11.3237 20.429 10.4225 22 8.6 22C6.77746 22 5.3 20.5225 5.3 18.7C3.47746 18.7 2 17.2225 2 15.4C2 13.5775 3.57099 12.6763 5.3 12.1C5.40012 12.0666 5.50835 12.0333 5.62381 12C5.50835 11.9667 5.40012 11.9334 5.3 11.9C3.57099 11.3237 2 10.4225 2 8.6C2 6.77746 3.47746 5.3 5.3 5.3C5.3 3.47746 6.77746 2 8.6 2C10.4225 2 11.3237 3.57099 11.9 5.3ZM7.3 5.3V7.3L5.3 7.3C4.58203 7.3 4 7.88203 4 8.6C4 8.83699 4.06419 8.99265 4.30786 9.20281C4.62104 9.47293 5.15204 9.7425 5.93246 10.0026C6.58154 10.219 7.81183 10.4742 9.22659 10.6764C9.78374 10.7559 10.3433 10.8236 10.8761 10.8761C10.8236 10.3433 10.7559 9.78374 10.6764 9.22659C10.4742 7.81183 10.219 6.58154 10.0026 5.93246C9.74249 5.15204 9.47293 4.62104 9.20281 4.30786C8.99265 4.06419 8.83699 4 8.6 4C7.88203 4 7.3 4.58203 7.3 5.3ZM7.3 16.7V18.7C7.3 19.418 7.88203 20 8.6 20C8.83699 20 8.99265 19.9358 9.20281 19.6921C9.47293 19.379 9.74249 18.848 10.0026 18.0675C10.219 17.4185 10.4742 16.1882 10.6764 14.7734C10.7559 14.2163 10.8236 13.6567 10.8761 13.1239C10.3433 13.1764 9.78374 13.2441 9.22659 13.3236C7.81183 13.5258 6.58154 13.781 5.93246 13.9974C5.15204 14.2575 4.62104 14.5271 4.30786 14.7972C4.06419 15.0073 4 15.163 4 15.4C4 16.118 4.58203 16.7 5.3 16.7L7.3 16.7ZM16.7 16.7V18.7C16.7 19.418 16.118 20 15.4 20C15.163 20 15.0073 19.9358 14.7972 19.6921C14.5271 19.379 14.2575 18.848 13.9974 18.0675C13.781 17.4185 13.5258 16.1882 13.3236 14.7734C13.2441 14.2163 13.1764 13.6567 13.1239 13.1239C13.6567 13.1764 14.2163 13.2441 14.7734 13.3236C16.1882 13.5258 17.4185 13.781 18.0675 13.9974C18.848 14.2575 19.379 14.5271 19.6921 14.7972C19.9358 15.0073 20 15.163 20 15.4C20 16.118 19.418 16.7 18.7 16.7L16.7 16.7ZM16.7 7.3V5.3C16.7 4.58203 16.118 4 15.4 4C15.163 4 15.0073 4.06419 14.7972 4.30786C14.5271 4.62104 14.2575 5.15204 13.9974 5.93246C13.781 6.58154 13.5258 7.81183 13.3236 9.22659C13.2441 9.78374 13.1764 10.3433 13.1239 10.8761C13.6567 10.8236 14.2163 10.7559 14.7734 10.6764C16.1882 10.4742 17.4185 10.219 18.0675 10.0026C18.848 9.7425 19.379 9.47293 19.6921 9.20281C19.9358 8.99265 20 8.83699 20 8.6C20 7.88203 19.418 7.3 18.7 7.3L16.7 7.3Z" fill="#3BBBE9"/>
</svg>
