<svg width="24" height="24" viewBox="0 0 24 24" fill="none" xmlns="http://www.w3.org/2000/svg">
    <path fill-rule="evenodd" clip-rule="evenodd" d="M12 2C11.4477 2 11 2.44772 11 3V7.52241L9.78361 6.30602C9.37559 5.89799 8.71405 5.89799 8.30602 6.30602C7.89799 6.71405 7.89799 7.37559 8.30602 7.78361L11.2612 10.7388C11.6692 11.1468 12.3308 11.1468 12.7388 10.7388L15.694 7.78361C16.102 7.37559 16.102 6.71405 15.694 6.30602C15.286 5.89799 14.6244 5.89799 14.2164 6.30602L13 7.52241V3C13 2.44772 12.5523 2 12 2Z" fill="#3BBBE9"/>
    <path fill-rule="evenodd" clip-rule="evenodd" d="M12 22C11.4477 22 11 21.5523 11 21V16.5224L9.78361 17.7388C9.37559 18.1468 8.71405 18.1468 8.30602 17.7388C7.89799 17.3308 7.89799 16.6692 8.30602 16.2612L11.2612 13.306C11.6692 12.898 12.3308 12.898 12.7388 13.306L15.694 16.2612C16.102 16.6692 16.102 17.3308 15.694 17.7388C15.286 18.1468 14.6244 18.1468 14.2164 17.7388L13 16.5224V21C13 21.5523 12.5523 22 12 22Z" fill="#3BBBE9"/>
</svg>
