<svg width="48" height="48" viewBox="0 0 48 48" fill="none" xmlns="http://www.w3.org/2000/svg">
<path fill-rule="evenodd" clip-rule="evenodd" d="M8.77303 25.4998L9.06762 24.4004L8.27283 23.5857C6.86447 22.1419 6 20.1739 6 18C6 13.5817 9.58172 10 14 10C16.616 10 18.9387 11.2535 20.4016 13.2012L21.0016 14H22.0007H25.9993H26.9984L27.5984 13.2012C29.0613 11.2535 31.384 10 34 10C38.4183 10 42 13.5817 42 18C42 20.0028 41.2666 21.8294 40.051 23.2333L39.3566 24.0354L39.6312 25.0601L42.2486 34.8284L34.5212 36.8989L31.7536 26.5703L31.5107 25.6638L30.6583 25.2713C29.4455 24.7128 28.394 23.858 27.5984 22.7988L26.9984 22H25.9993H22.0007H21.0016L20.4016 22.7988C19.7136 23.7148 18.8339 24.4782 17.8238 25.0292L17.0714 25.4395L16.8496 26.2673L14.1754 36.2475L6.44801 34.1769L8.77303 25.4998ZM41.563 24.5425L44.1804 34.3108C44.4663 35.3777 43.8331 36.4744 42.7662 36.7602L35.0388 38.8308C33.9719 39.1167 32.8752 38.4835 32.5893 37.4166L29.8217 27.0879C28.3044 26.3892 26.9919 25.3215 25.9993 24H22.0007C21.1421 25.1431 20.0442 26.0962 18.7814 26.785L16.1073 36.7651C15.8214 37.832 14.7247 38.4652 13.6578 38.1793L5.93038 36.1088C4.86344 35.8229 4.23028 34.7262 4.51616 33.6593L6.84117 24.9822C5.08317 23.18 4 20.7165 4 18C4 12.4772 8.47715 8 14 8C17.2716 8 20.1763 9.57111 22.0007 12H25.9993C27.8237 9.57111 30.7284 8 34 8C39.5228 8 44 12.4772 44 18C44 20.5017 43.0814 22.7888 41.563 24.5425ZM13 16V14H15V16H13ZM16 17H18V19H16V17ZM12 17H10V19H12V17ZM13 22V20H15V22H13Z" fill="#3BBBE9"/>
<path d="M39.8278 17.826C39.6392 17.6343 39.3924 17.5164 39.1314 17.4722C38.1159 17.3397 37.6082 17.1039 36.9118 16.3818C36.2156 15.6745 35.9837 15.1883 35.8239 14.1566C35.794 13.8649 35.6719 13.5909 35.4757 13.3757C35.3601 13.2567 35.2223 13.1622 35.0704 13.0977C34.9186 13.0332 34.7556 13 34.5909 13C34.4263 13 34.2633 13.0332 34.1115 13.0977C33.9596 13.1622 33.8218 13.2567 33.7062 13.3757C33.5889 13.4932 33.4959 13.6332 33.4323 13.7875C33.3688 13.9419 33.3361 14.1075 33.3361 14.2748C33.3361 14.4421 33.3688 14.6077 33.4323 14.762C33.4959 14.9163 33.5889 15.0563 33.7062 15.1738C33.9053 15.3747 34.1667 15.4996 34.446 15.5273H34.4316C35.4618 15.6599 36.013 15.9841 36.6512 16.6473C37.2895 17.2957 37.6375 17.8264 37.7247 18.9315V18.9166C37.7716 19.1815 37.8924 19.4271 38.0729 19.6241C38.1885 19.7432 38.3263 19.8377 38.4782 19.9022C38.6302 19.9668 38.7932 20 38.9579 20C39.1225 20 39.2856 19.9668 39.4375 19.9022C39.5894 19.8377 39.7272 19.7432 39.8429 19.6241C40.0744 19.383 40.2028 19.0587 40.2 18.7219C40.1971 18.385 40.0634 18.063 39.8278 17.826ZM33.7059 17.826C33.5887 17.9434 33.4956 18.0834 33.4321 18.2378C33.3686 18.3921 33.3359 18.5577 33.3359 18.725C33.3359 18.8923 33.3686 19.0579 33.4321 19.2123C33.4956 19.3666 33.5887 19.5066 33.7059 19.6241C33.8216 19.7432 33.9594 19.8377 34.1113 19.9022C34.2632 19.9668 34.4263 20 34.5909 20C34.7556 20 34.9187 19.9668 35.0706 19.9022C35.2225 19.8377 35.3603 19.7432 35.476 19.6241C35.5932 19.5066 35.6863 19.3666 35.7498 19.2123C35.8133 19.0579 35.846 18.8923 35.846 18.725C35.846 18.5577 35.8133 18.3921 35.7498 18.2378C35.6863 18.0834 35.5932 17.9434 35.476 17.826C35.3603 17.7069 35.2225 17.6123 35.0706 17.5478C34.9187 17.4833 34.7556 17.45 34.5909 17.45C34.4263 17.45 34.2632 17.4833 34.1113 17.5478C33.9594 17.6123 33.8216 17.7069 33.7059 17.826ZM30.2245 19.9922C30.3897 19.9944 30.5537 19.9633 30.7069 19.9006C30.8602 19.8379 30.9996 19.7449 31.1172 19.627C31.2348 19.5091 31.3282 19.3686 31.3919 19.2138C31.4557 19.0589 31.4885 18.8927 31.4885 18.7249C31.4885 18.5571 31.4557 18.3909 31.3919 18.236C31.3282 18.0812 31.2348 17.9407 31.1172 17.8228C30.9996 17.7049 30.8602 17.6119 30.7069 17.5492C30.5537 17.4865 30.3897 17.4554 30.2245 17.4576C29.8976 17.4637 29.5862 17.6 29.3573 17.8369C29.1283 18.0739 29 18.3927 29 18.7248C29 19.0569 29.1283 19.3757 29.3573 19.6126C29.5862 19.8496 29.8976 19.9861 30.2245 19.9922Z" fill="#3BBBE9"/>
</svg>
