<svg width="24" height="24" viewBox="0 0 24 24" fill="none" xmlns="http://www.w3.org/2000/svg">
<path fill-rule="evenodd" clip-rule="evenodd" d="M4.21745 7.0292C4.56647 6.81934 4.79996 6.43696 4.79996 6.00005C4.79996 5.33731 4.26271 4.80005 3.59996 4.80005C2.93723 4.80005 2.39996 5.33731 2.39996 6.00005C2.39996 6.66279 2.93723 7.20006 3.59996 7.20006C3.65037 7.20006 3.70005 7.19694 3.74882 7.19091L4.79996 15.6001H19.1999L20.2511 7.19091C20.2999 7.19694 20.3495 7.20006 20.4 7.20006C21.0627 7.20006 21.6 6.66279 21.6 6.00005C21.6 5.33731 21.0627 4.80005 20.4 4.80005C19.7372 4.80005 19.2 5.33731 19.2 6.00005C19.2 6.43696 19.4335 6.81934 19.7825 7.0292L16.7999 12.0001L13.7999 9.60006L12.5367 7.0736C12.93 6.87658 13.1999 6.46985 13.1999 6.00005C13.1999 5.33731 12.6627 4.80005 11.9999 4.80005C11.3372 4.80005 10.7999 5.33731 10.7999 6.00005C10.7999 6.46985 11.0699 6.87659 11.4632 7.0736L10.1999 9.60006L7.19996 12.0001L4.21745 7.0292ZM19.1999 19.2001V16.8001H4.79996V19.2001H19.1999Z" fill="#010E28"/>
</svg>
