<svg width="32" height="32" viewBox="0 0 32 32" fill="none" xmlns="http://www.w3.org/2000/svg">
<path fill-rule="evenodd" clip-rule="evenodd" d="M5.62327 9.37219C6.08862 9.09238 6.39995 8.58254 6.39995 7.99999C6.39995 7.11634 5.68361 6.39999 4.79995 6.39999C3.9163 6.39999 3.19995 7.11634 3.19995 7.99999C3.19995 8.88365 3.9163 9.6 4.79995 9.6C4.86716 9.6 4.9334 9.59585 4.99842 9.58781L6.39995 20.8H25.5999L27.0015 9.58781C27.0665 9.59585 27.1327 9.6 27.2 9.6C28.0836 9.6 28.8 8.88365 28.8 7.99999C28.8 7.11634 28.0836 6.39999 27.2 6.39999C26.3163 6.39999 25.6 7.11634 25.6 7.99999C25.6 8.58254 25.9113 9.09238 26.3766 9.37219L22.3999 16L18.3999 12.8L16.7156 9.43139C17.24 9.1687 17.5999 8.62639 17.5999 7.99999C17.5999 7.11634 16.8836 6.39999 15.9999 6.39999C15.1163 6.39999 14.3999 7.11634 14.3999 7.99999C14.3999 8.62639 14.7599 9.16871 15.2842 9.43139L13.5999 12.8L9.59995 16L5.62327 9.37219ZM25.5999 25.6V22.4H6.39994V25.6H25.5999Z" fill="#3BBBE9"/>
</svg>
