<svg width="24" height="24" viewBox="0 0 24 24" fill="none" xmlns="http://www.w3.org/2000/svg">
<path fill-rule="evenodd" clip-rule="evenodd" d="M11.8 1L14.9632 4.16318H19.4368V8.63675L22.6 11.8L19.4368 14.9632V19.4367H14.9633L11.8 22.6L8.63669 19.4367H4.16325V14.9632L1 11.8L4.16325 8.63675V4.16318H8.63682L11.8 1ZM11.8 13C13.7882 13 15.4 11.3882 15.4 9.40002C15.4 7.4118 13.7882 5.80002 11.8 5.80002C9.81176 5.80002 8.19998 7.4118 8.19998 9.40002C8.19998 11.3882 9.81176 13 11.8 13ZM10.6 9.39999C10.6 8.28168 11.3649 7.34202 12.4 7.0756C12.2082 7.02624 12.0072 6.99998 11.8 6.99998C10.4745 6.99998 9.39999 8.0745 9.39999 9.39998C9.39999 10.7255 10.4745 11.8 11.8 11.8C12.0072 11.8 12.2082 11.7737 12.4 11.7244C11.3648 11.4579 10.6 10.5183 10.6 9.39999ZM8.19999 15.2C8.19999 14.6477 8.6477 14.2 9.19999 14.2H14.4C14.9523 14.2 15.4 14.6477 15.4 15.2V15.6C15.4 16.1523 14.9523 16.6 14.4 16.6H9.19999C8.6477 16.6 8.19999 16.1523 8.19999 15.6V15.2Z" fill="#010E28"/>
</svg>
