<svg width="24" height="24" viewBox="0 0 24 24" fill="none" xmlns="http://www.w3.org/2000/svg">
<path d="M11.9348 2.0488C12.2536 1.93832 12.6019 2.03055 12.8942 2.17467C13.0983 2.30614 13.3025 2.439 13.5312 2.52501C13.5487 2.55787 13.585 2.62291 13.6025 2.65507C13.5934 2.67675 13.576 2.7215 13.5669 2.74318C13.7298 3.1138 13.834 3.55294 13.6759 3.94236C13.5683 4.07383 13.3809 4.09418 13.2291 4.14508C13.2284 4.33319 13.2585 4.51927 13.2746 4.70597C13.599 4.75842 13.8737 4.53255 14.1947 4.55493C14.238 4.37521 14.2723 4.19256 14.3298 4.01642C14.3962 4.1332 14.3989 4.26753 14.3997 4.39899C14.4836 4.42277 14.5689 4.44444 14.6548 4.46535C14.6556 4.49759 14.6563 4.56192 14.6563 4.59409C16.0632 4.60248 17.4694 4.58772 18.8764 4.60178C18.8729 4.64989 18.866 4.74646 18.8632 4.79478C18.8996 4.79478 18.9737 4.79548 19.0106 4.79548C19.0092 4.53961 19.0106 4.28291 19.0099 4.02705C19.0456 4.02558 19.1155 4.02348 19.1505 4.02278C19.1513 4.22417 19.152 4.42556 19.154 4.62702C19.1847 4.66478 19.2463 4.74024 19.2772 4.778C19.3003 4.75065 19.3464 4.69695 19.3694 4.66961C19.4763 4.76967 19.4155 4.90673 19.4108 5.02966C19.8044 5.0254 20.2022 5.05197 20.5946 5.0198C20.624 4.99813 20.6827 4.95547 20.7121 4.93386C20.766 4.95477 20.8205 4.97582 20.8743 4.9975C21.0512 4.99316 21.2289 4.9926 21.4065 4.9919C21.4028 5.08351 21.4 5.17504 21.3965 5.26672C21.1679 5.26315 20.9385 5.25833 20.7134 5.29742C20.5679 5.17232 20.3728 5.21203 20.1973 5.20728C19.9274 5.21987 19.6489 5.17232 19.3875 5.25826C19.2322 5.30161 19.0617 5.29119 18.9246 5.20301C18.8916 5.28483 18.9421 5.46804 18.8042 5.46098C18.2616 5.46804 17.7196 5.45615 17.1777 5.46454C17.1036 5.5037 17.0288 5.54076 16.9548 5.57706C16.8764 5.81061 16.652 5.96648 16.4609 6.10913C16.4372 6.46786 16.5791 6.80281 16.6344 7.15098C16.5274 7.18168 16.4197 7.21328 16.3141 7.24825C16.1624 7.60628 16.2554 8.095 15.9043 8.34478C15.6351 8.50135 15.4569 8.84189 15.0939 8.78812C15.2785 8.94196 15.0435 8.89371 15.068 8.77063C14.4114 8.7126 13.8582 8.3273 13.2876 8.03367C13.2611 8.19443 13.2192 8.35254 13.1758 8.50988C13.3925 8.55113 13.5715 8.71057 13.61 8.93294C13.6792 9.4176 13.5408 9.89877 13.5429 10.3847C13.5583 10.67 13.4359 10.9315 13.2834 11.1643C13.1499 11.3154 12.9394 11.1601 12.7793 11.1377C12.7428 11.2084 12.7072 11.2791 12.6723 11.3503C12.7177 11.5405 12.7373 11.7384 12.8009 11.9244C13.1583 12.3194 13.4834 12.7475 13.7331 13.2195C13.9901 13.754 14.219 14.3016 14.4191 14.8599C14.4386 14.9684 14.5407 15.0073 14.6304 15.0466C14.6423 15.1585 14.6542 15.2702 14.6653 15.3836C14.7003 15.4346 14.736 15.4856 14.7723 15.5374C14.794 16.2269 14.7094 16.9135 14.6023 17.5939C14.536 17.901 14.7156 18.2009 14.6428 18.51C14.6512 18.6682 14.5423 18.7877 14.4911 18.9276C14.4813 19.2541 14.4652 19.5848 14.501 19.9108C14.5261 20.15 14.7283 20.3037 14.8653 20.4821C15.015 20.6409 15.1402 20.8541 15.3667 20.9107C15.58 20.9743 15.7835 21.0667 15.9714 21.1877C16.0288 21.3296 16.0183 21.4801 15.991 21.6275C15.5813 21.703 15.1631 21.6653 14.7491 21.6717C14.4301 21.6884 14.1456 21.5171 13.8357 21.4813C13.5357 21.4738 13.17 21.6226 12.9394 21.3541C13.0372 20.9816 13.045 20.5814 13.2239 20.2338C13.2812 19.8402 13.1723 19.4408 13.1952 19.0437C13.1611 19.015 13.0924 18.9576 13.0581 18.9288C13.0828 18.6695 12.9547 18.4386 12.912 18.1905C12.8842 17.828 12.8512 17.466 12.8092 17.1051C12.7763 16.9296 12.8672 16.7689 12.991 16.6521C13.0022 16.4493 13.0296 16.2485 13.049 16.0472C13.019 15.9164 12.9148 15.8192 12.8477 15.7074C12.6232 15.8019 12.3204 15.7571 12.1868 15.5374C11.8701 15.0661 11.554 14.5948 11.2337 14.1262C11.1079 14.1179 10.975 14.1311 10.8575 14.0808C10.722 13.9417 10.6512 13.7564 10.5647 13.5872C10.4408 13.7263 10.4499 13.9395 10.3031 14.0662C9.99267 14.3641 9.91015 14.8019 9.74792 15.1836C9.62359 15.4311 9.69352 15.7297 9.55492 15.971C9.4808 16.101 9.29479 16.1268 9.24584 16.2752C9.18151 16.4352 9.10599 16.601 8.95565 16.6984C8.79272 16.8052 8.74943 17.0081 8.67678 17.1758C8.61035 17.3304 8.70894 17.4926 8.68587 17.6514C8.58237 18.1556 8.26141 18.5772 8.12645 19.071C8.06491 19.2934 7.97673 19.5437 7.718 19.5912C7.42361 20.117 7.26145 20.7604 7.42787 21.3525C7.52997 21.5385 7.52437 21.7476 7.49291 21.9525C7.02516 21.9889 6.54539 22.0518 6.08604 21.9211C5.97835 21.7077 5.99374 21.4567 6.01611 21.2262C6.15799 20.6197 6.34617 20.024 6.46148 19.4115C6.31743 19.2835 6.35106 19.0878 6.35379 18.9164C6.34897 18.5968 6.56637 18.3409 6.71741 18.0787C6.77412 17.8094 6.74755 17.5201 6.88664 17.2731C7.05034 16.964 7.18872 16.6298 7.44123 16.3801C7.48941 16.1599 7.65178 15.9935 7.71737 15.7814C7.7873 15.594 7.66493 15.4038 7.68954 15.2123C7.74961 14.631 7.85527 14.0556 7.94687 13.4787C7.77352 13.334 7.8294 13.104 7.77415 12.9088C7.80142 12.8319 7.83569 12.7585 7.87695 12.6871C7.83359 12.6473 7.79101 12.6067 7.74758 12.5669C7.78954 12.3618 7.77765 11.9947 8.09232 12.0613C8.1119 11.3824 7.87625 10.725 7.95527 10.0453C7.99722 10.0941 8.03841 10.1439 8.08044 10.1935L8.05806 9.96346C8.18952 9.89353 8.32938 9.83968 8.47622 9.81241C8.23707 9.78101 8.00422 9.72018 7.76982 9.66556C7.71318 9.51655 7.74479 9.35788 7.76562 9.20544C7.85653 8.69078 7.89009 8.16912 7.90897 7.64746C8.174 7.5553 8.4663 7.63355 8.72503 7.51041C8.64475 6.85798 8.62447 6.17696 8.85649 5.55104C9.0432 5.01813 9.39989 4.50416 9.95644 4.31683C10.2194 4.25396 10.5501 4.18326 10.736 4.4385C10.787 4.39165 10.8381 4.3434 10.8891 4.29655C10.4647 3.45364 10.9717 2.22222 11.9348 2.0488V2.0488ZM15.3311 5.7046C15.2192 5.77313 15.1094 5.85152 15.227 5.97599C15.1697 6.01019 15.1122 6.04312 15.0541 6.07452C14.9632 6.14445 14.7591 6.18423 14.7828 6.32563C14.885 6.48962 14.9729 6.662 15.0458 6.84092C15.2688 6.65778 15.4464 6.4115 15.5667 6.15081C15.5919 6.12494 15.643 6.07319 15.6681 6.04795C15.6569 5.92837 15.6303 5.81152 15.5835 5.70111C15.4996 5.70257 15.415 5.7039 15.3311 5.7046V5.7046Z" fill="white"/>
</svg>
