<svg width="24" height="24" viewBox="0 0 24 24" fill="none" xmlns="http://www.w3.org/2000/svg">
<path d="M6.60414 4.74026C9.22067 4.12738 10.0515 4.00362 11.4659 4.00362C12.8803 4.00362 16.5045 4.74026 16.5045 4.74026C16.2 4.21971 15.5204 3.17862 15.2375 3.17862C14.9546 3.17862 14.3535 3.72862 14.0884 4.00362C13.4499 3.33575 12.0316 2 11.4659 2C10.9002 2 9.58015 3.33575 8.99084 4.00362C8.72565 3.72862 8.10099 3.17862 7.72383 3.17862C7.34667 3.17862 6.82022 4.21971 6.60414 4.74026Z" fill="#010E28"/>
<path d="M4.48259 5.30012C3.51612 5.60656 3.11736 5.99747 3.03879 6.15461C3.03879 6.15461 8.11241 4.51112 11.4659 4.50455C14.8533 4.49792 19.9814 6.15461 19.9814 6.15461C19.8537 5.95818 19.4157 5.51227 18.6849 5.30012C19.9814 5.15279 21.16 5.50638 20.5707 6.65553C19.9814 7.80468 19.3626 8.18773 18.6849 7.89307C18.1428 7.65735 14.8839 6.33141 11.4659 6.33141C8.04786 6.33141 4.48259 7.89307 4.48259 7.89307C4.08972 8.0404 3.15665 7.99915 2.56734 6.65553C1.97803 5.3119 3.03878 5.12333 4.48259 5.30012Z" fill="#010E28"/>
<path fill-rule="evenodd" clip-rule="evenodd" d="M16.9935 8.80144C16.913 8.77483 16.8117 8.74203 16.6923 8.70466C16.4312 8.62298 16.0841 8.51967 15.679 8.41183V8.65766L13.8521 8.36301V8.00348C13.3897 7.92142 12.9111 7.85438 12.4371 7.81486V8.30447H10.6102V7.82012C10.1354 7.86202 9.65694 7.93096 9.19558 8.01438V8.36227L7.36873 8.65692V8.42812C6.98966 8.53004 6.66424 8.6271 6.41635 8.70466C6.29693 8.74203 6.19562 8.77483 6.11509 8.80144C6.10945 8.89367 6.10316 9.01159 6.09759 9.15099C6.0911 9.3133 6.08562 9.50447 6.08331 9.7179H6.78049L6.89835 11.4858H6.14616C6.18633 11.9518 6.2488 12.4333 6.34263 12.9011H7.31068L7.8116 14.5217L7.11998 15.0463C7.31289 15.3906 7.53442 15.7283 7.77416 16.0556L8.48966 15.8767L9.38926 16.8192L11.263 14.0793L9.56783 11.6004L9.37433 11.7328L8.97562 11.1497L8.58572 11.4164L8.13319 9.0843L10.1423 10.3519L9.75393 10.6175L10.1526 11.2005L9.95698 11.3343L11.5486 13.6617L13.1403 11.3342L13.5294 11.6003L11.8341 14.0793L13.6693 16.7627L14.4708 15.8767L15.3115 16.0869C15.5599 15.7501 15.7893 15.4019 15.9883 15.047L15.2958 14.5217L15.7967 12.9011H16.766C16.8598 12.4333 16.9223 11.9518 16.9625 11.4858H16.2098L16.3277 9.7179H17.0253C17.023 9.50447 17.0175 9.3133 17.011 9.15099C17.0055 9.01159 16.9992 8.89367 16.9935 8.80144ZM14.5141 11.4164L14.9667 9.08432L12.9575 10.3519L14.5141 11.4164ZM13.3449 10.6168L14.1232 11.1491L13.724 11.7328L12.9457 11.2005L13.3449 10.6168Z" fill="#010E28"/>
<path d="M9.714 18.2167C9.57232 18.0828 9.42859 17.9432 9.28436 17.7984L9.33207 17.7311L9.33529 17.7333L9.46918 17.5375L9.72721 17.1732L9.72201 17.1678L11.5486 14.4968L13.4973 17.3464L13.7983 17.8244C13.6628 17.9599 13.5278 18.0909 13.3946 18.2167C12.8429 18.7383 12.3301 19.1657 11.9556 19.4626C11.7927 19.5917 11.6562 19.6959 11.5543 19.7722C11.4524 19.6959 11.3159 19.5917 11.153 19.4626C10.7785 19.1657 10.2658 18.7383 9.714 18.2167Z" fill="#010E28"/>
<path fill-rule="evenodd" clip-rule="evenodd" d="M11.5539 6.71527C8.91786 6.71527 4.95368 8.1296 4.95368 8.1296C4.95368 8.1296 4.92884 12.1753 5.89657 14.4941C7.17738 17.5631 11.5539 20.8587 11.5539 20.8587C11.5539 20.8587 15.9305 17.5631 17.2113 14.4941C18.179 12.1753 18.1542 8.1296 18.1542 8.1296C18.1542 8.1296 14.19 6.71527 11.5539 6.71527ZM17.3295 8.54216C17.3295 8.54216 14.1904 7.42247 11.5543 7.42247C8.91823 7.42247 5.77909 8.54216 5.77909 8.54216C5.77909 8.54216 5.45959 12.1164 6.42732 14.4352C7.70813 17.5042 11.5543 20.2105 11.5543 20.2105C11.5543 20.2105 15.4005 17.5042 16.6813 14.4352C17.649 12.1164 17.3295 8.54216 17.3295 8.54216Z" fill="#010E28"/>
<path d="M3.21528 13.9927C2.62598 13.0498 2.92063 12.4015 3.42154 12.4605C3.50994 13.9927 3.92241 16.291 5.01263 17.6464C5.88481 18.7307 7.71362 20.3179 8.51901 20.976C7.90024 21.1233 6.66269 20.151 6.27964 19.7974C5.89659 19.4438 5.21889 19.2375 4.83584 20.0036C4.45279 20.7697 4.65905 22.0073 7.36986 21.8305C5.89659 21.1823 5.57247 20.7108 5.8082 20.3572C6.54483 20.976 8.96099 22.5082 9.69763 21.8305C10.4343 21.1528 10.67 20.3572 9.87442 20.1804C8.81367 19.6206 5.15996 16.8803 4.62958 11.2819C2.567 11.5471 2.12502 12.1364 2.00716 12.7257C1.91287 13.1971 2.77329 13.7668 3.21528 13.9927Z" fill="#010E28"/>
<path d="M19.8292 13.9927C20.4185 13.0498 20.1239 12.4015 19.623 12.4605C19.5346 13.9927 19.1221 16.291 18.0319 17.6464C17.1597 18.7307 15.3309 20.3179 14.5255 20.976C15.1443 21.1233 16.3818 20.151 16.7649 19.7974C17.1479 19.4438 17.8256 19.2375 18.2087 20.0036C18.5917 20.7697 18.3855 22.0073 15.6747 21.8305C17.1479 21.1823 17.4721 20.7108 17.2363 20.3572C16.4997 20.976 14.0835 22.5082 13.3469 21.8305C12.6103 21.1528 12.3745 20.3572 13.1701 20.1804C14.2309 19.6206 17.8846 16.8803 18.4149 11.2819C20.4775 11.5471 20.9195 12.1364 21.0374 12.7257C21.1317 13.1971 20.2712 13.7668 19.8292 13.9927Z" fill="#010E28"/>
</svg>
