<svg width="24" height="24" viewBox="0 0 24 24" fill="none" xmlns="http://www.w3.org/2000/svg">
<path d="M3.27795 5.9609C2.9074 6.33145 2.9074 6.93222 3.27795 7.30276L6.75175 10.7766C6.95879 10.9836 7.24983 11.0835 7.54037 11.0471L8.69582 10.9027C8.57903 11.3158 8.4534 11.8117 8.3441 12.3582C8.04214 13.868 7.83249 15.9152 8.4163 17.6667C8.79626 18.8066 9.19425 19.6025 9.87818 20.5904C10.1765 21.0213 10.7675 21.1288 11.1984 20.8305C11.6292 20.5322 11.7367 19.9411 11.4384 19.5103C10.8569 18.6702 10.5397 18.0359 10.2166 17.0666C9.79401 15.7988 9.91982 14.1559 10.2049 12.7304C10.3438 12.036 10.5129 11.429 10.6472 10.9962C10.6776 10.8983 10.7061 10.8095 10.732 10.731C10.8105 10.7051 10.8993 10.6766 10.9972 10.6462C11.43 10.5119 12.037 10.3428 12.7314 10.2039C14.1569 9.91882 15.7998 9.793 17.0676 10.2156C18.0369 10.5387 18.6712 10.8559 19.5113 11.4374C19.9421 11.7357 20.5332 11.6282 20.8315 11.1974C21.1298 10.7665 21.0223 10.1755 20.5914 9.87718C19.6035 9.19324 18.8076 8.79526 17.6677 8.41529C15.9162 7.83148 13.869 8.04113 12.3592 8.34309C11.8126 8.45242 11.3166 8.57807 10.9035 8.69488L11.0479 7.5396C11.0842 7.24906 10.9844 6.95802 10.7773 6.75098L7.30353 3.27718C6.93299 2.90663 6.33222 2.90663 5.96167 3.27718L7.97966 7.02487C8.22076 7.02618 8.46145 7.11881 8.6454 7.30276C9.01594 7.67331 9.01594 8.27408 8.6454 8.64463C8.27485 9.01517 7.67408 9.01517 7.30353 8.64463C7.11958 8.46068 7.02695 8.21999 7.02564 7.97889L3.27795 5.9609Z" fill="#919CB3"/>
</svg>
