<svg width="24" height="24" viewBox="0 0 24 24" fill="none" xmlns="http://www.w3.org/2000/svg">
<path d="M3.27791 5.96096C2.90736 6.33151 2.90736 6.93228 3.27791 7.30282L6.75171 10.7766C6.95875 10.9837 7.24979 11.0835 7.54033 11.0472L8.69578 10.9028C8.57899 11.3158 8.45336 11.8117 8.34406 12.3583C8.0421 13.8681 7.83245 15.9153 8.41626 17.6667C8.79622 18.8066 9.19421 19.6026 9.87814 20.5905C10.1764 21.0213 10.7675 21.1288 11.1984 20.8305C11.6292 20.5322 11.7367 19.9412 11.4384 19.5103C10.8568 18.6703 10.5397 18.0359 10.2166 17.0666C9.79397 15.7989 9.91978 14.156 10.2049 12.7304C10.3438 12.0361 10.5129 11.4291 10.6472 10.9963C10.6776 10.8983 10.7061 10.8096 10.732 10.7311C10.8105 10.7052 10.8992 10.6767 10.9972 10.6463C11.43 10.512 12.037 10.3429 12.7313 10.204C14.1569 9.91888 15.7998 9.79306 17.0675 10.2157C18.0368 10.5388 18.6712 10.8559 19.5112 11.4375C19.9421 11.7358 20.5332 11.6283 20.8314 11.1975C21.1297 10.7666 21.0222 10.1755 20.5914 9.87724C19.6035 9.19331 18.8075 8.79532 17.6676 8.41535C15.9162 7.83155 13.869 8.04119 12.3592 8.34316C11.8126 8.45248 11.3166 8.57813 10.9035 8.69494L11.0479 7.53966C11.0842 7.24912 10.9843 6.95808 10.7773 6.75104L7.3035 3.27724C6.93295 2.90669 6.33218 2.90669 5.96163 3.27724L7.97962 7.02493C8.22072 7.02624 8.46141 7.11887 8.64536 7.30283C9.0159 7.67337 9.0159 8.27414 8.64536 8.64469C8.27481 9.01523 7.67404 9.01523 7.3035 8.64469C7.11954 8.46074 7.02691 8.22005 7.0256 7.97895L3.27791 5.96096Z" fill="#010E28"/>
</svg>
