<svg width="24" height="24" viewBox="0 0 24 24" fill="none" xmlns="http://www.w3.org/2000/svg">
    <path d="M19.6354 4.97711L19.5759 4.82615C19.5741 4.82181 19.5708 4.81824 19.5665 4.81631L19.4188 4.74921C18.2024 4.19673 16.4867 4.06041 14.9687 4H13.2589C13.2396 4 13.2337 4.02609 13.2511 4.03442L16.7631 5.71812C16.7829 5.72759 16.7719 5.75706 16.7506 5.75151C15.1712 5.33902 13.5756 5.13024 12 5.13024C10.4295 5.13024 8.83909 5.33775 7.26449 5.7476C7.24306 5.75315 7.23219 5.72335 7.25229 5.71407L10.8875 4.03461C10.9051 4.02646 10.8993 4.00009 10.8799 4.00009H9.03139C7.51344 4.06051 5.79763 4.19682 4.58131 4.7493L4.43355 4.8164C4.42927 4.81833 4.42588 4.82186 4.42418 4.82624L4.36467 4.9772C3.11987 8.13139 2.76615 13.4861 3.14336 16.8407L3.16314 17.0166L3.30308 17.1251C5.24769 18.633 7.8479 19.4083 9.48366 19.6141L9.69518 19.6407C9.76393 19.6493 9.82962 19.6096 9.85391 19.5447L10.9186 16.7003C10.9518 16.6116 10.8952 16.5148 10.8017 16.5001L10.475 16.4488C9.33586 16.2698 7.72185 15.7954 6.35787 14.5584C6.32877 14.532 6.35683 14.4845 6.39366 14.4982C6.5045 14.5394 6.62674 14.5871 6.7526 14.6363C7.06102 14.7568 7.37999 14.8814 7.58812 14.9308C9.05084 15.2786 10.5341 15.455 11.9999 15.455V15.4289H12.003L12.0032 15.455C13.466 15.455 14.9492 15.2786 16.4118 14.9308C16.62 14.8813 16.939 14.7568 17.2475 14.6362C17.3732 14.5871 17.4954 14.5393 17.6062 14.4982C17.643 14.4845 17.6711 14.532 17.642 14.5584C16.2826 15.7899 14.6666 16.2631 13.5248 16.442L13.1982 16.4931C13.1047 16.5077 13.0481 16.6045 13.0813 16.6931L14.1461 19.5445C14.1704 19.6095 14.2361 19.6493 14.3048 19.6406L14.5165 19.614C16.1522 19.4083 18.7522 18.633 20.6969 17.1251L20.8368 17.0165L20.8566 16.8406C21.2339 13.4861 20.8802 8.13134 19.6354 4.97711ZM8.52516 12.7212C7.2028 12.8391 6.0996 11.736 6.21736 10.4136C6.30768 9.39997 7.12389 8.58366 8.13758 8.49326C9.45993 8.37535 10.5631 9.47846 10.4454 10.8008C10.355 11.8145 9.5388 12.6308 8.52516 12.7212ZM15.8626 12.7212C14.5402 12.8391 13.437 11.736 13.5548 10.4136C13.6451 9.39997 14.4613 8.58366 15.475 8.49326C16.7973 8.37535 17.9006 9.47846 17.7828 10.8008C17.6924 11.8145 16.8762 12.6308 15.8626 12.7212Z" fill="#010E28"/>
</svg>
