<svg width="20" height="20" viewBox="0 0 20 20" fill="none" xmlns="http://www.w3.org/2000/svg">
    <path fill-rule="evenodd" clip-rule="evenodd" d="M5.36 11.4607C5.50814 11.5522 5.60242 11.6414 5.74383 11.7551L6.89533 12.8167C7.13551 13.0442 7.75054 13.6619 7.98847 13.934C8.15008 14.1213 8.21967 14.1414 8.33863 14.3243C8.29598 14.3399 7.75727 14.4625 7.44302 14.5696C6.79208 14.7926 6.19725 15.1494 5.62935 14.9576C5.54406 14.9286 5.15798 14.5629 4.98065 14.438C4.87516 14.3644 4.77639 14.2953 4.65518 14.2105C4.30951 13.9697 4.21074 14.1369 4.66865 13.0731C4.78762 12.7944 4.89087 12.5446 5.00535 12.2725C5.10635 12.0406 5.24328 11.6548 5.36 11.4607ZM13.6382 5.04683C13.8762 5.12935 14.4508 5.45495 14.5899 5.63113C14.7089 5.77832 14.6752 5.7917 14.6303 6.0058L14.3969 7.82337C14.0737 7.83452 14.1657 7.79661 13.9659 7.6628C13.6292 7.43756 12.4755 6.5901 12.1051 6.29349L11.3913 5.7248C11.443 5.67574 11.3734 5.7025 11.4923 5.67128L12.5473 5.43488C13.0973 5.29661 13.1826 5.26093 13.6382 5.04683ZM4.17483 5.41258C4.41725 5.27877 4.54519 5.37913 4.95372 5.08698C5.06371 5.00892 5.31511 5.01561 5.46774 5.03791C5.62487 5.06021 5.99074 5.36128 6.15684 5.46387C6.25336 5.52186 6.68882 5.85192 6.75841 5.96789L6.97389 6.31133C7.27018 6.32471 7.21856 6.3091 7.59117 6.58118L11.1669 8.92284C11.9345 9.45361 12.8324 9.99554 13.6046 10.5308L15.8065 11.9625C15.7437 12.0986 15.6696 12.5669 15.627 12.7542C15.4362 13.6151 15.196 13.9786 14.8077 14.806C14.2488 14.8283 13.8088 14.8238 13.2634 14.8149C13.086 14.8127 13.1309 14.8483 13.0344 14.7569C12.7157 14.4492 12.1343 13.7756 11.8111 13.4634C11.6989 13.3564 11.6001 13.256 11.4879 13.1378C10.5945 12.1922 11.0165 12.4777 10.8436 12.2413L9.04794 10.5531C8.63492 10.1539 8.26456 9.72569 7.83808 9.27743C7.72809 9.16146 7.67422 9.05442 7.55974 8.9496L7.52832 8.92061C7.49689 8.89161 7.51036 8.90277 7.48118 8.87154L6.95818 8.28278C6.86615 8.19804 6.87513 8.20027 6.80779 8.12444L6.33866 7.64273C6.23541 7.53568 6.1546 7.42418 6.05584 7.30821L5.60691 6.83541C5.53957 6.76851 5.49243 6.74844 5.42509 6.6793C5.21185 6.45852 5.03228 6.24665 4.8168 6.02587C4.6462 5.84969 4.22646 5.5107 4.17483 5.41258ZM6.32968 2.77654L2.64399 2.85236C2.44421 3.58162 2.64174 3.21142 2.64399 3.97413V5.35236C2.61481 5.75156 2.50931 5.95227 2.50931 6.48528C2.50931 6.66369 2.46891 7.07627 2.55645 7.21677C2.70908 7.46432 2.70684 7.67618 2.77193 8.03524C2.83029 8.35415 2.8909 8.3207 2.74724 8.56155L2.6799 9.17038L2.99415 9.47591L2.9964 10.0112C2.80785 10.1829 3.01884 10.0602 2.62154 10.3457L2.65746 11.9625L3.04802 12.2435L2.96721 13.6218C2.5542 13.9161 2.64399 14.2707 2.65746 14.6365L2.70684 16.0103L2.61705 16.715C3.5396 16.9447 3.33758 16.8733 4.39256 16.8733C5.32408 16.8733 5.20512 16.8822 6.12542 16.7707L6.15011 16.9269C6.29377 16.9179 6.43967 16.909 6.58108 16.8956C6.97389 16.8577 6.81677 16.8131 6.95145 16.764C7.04797 16.7284 8.1007 16.9715 8.27129 17.0071C8.36557 16.9023 8.31843 16.9447 8.44862 16.8599C8.52045 17.0094 8.82347 17.3506 8.94693 17.5L9.32852 17.1454L9.99517 17.4019L10.1905 17.2391C10.2668 17.3283 10.3139 17.4398 10.4486 17.4576C10.6461 17.4844 10.6775 17.1588 11.1152 17.1499L13.645 17.0651C13.6764 17.0339 13.6966 17.0161 13.7325 16.9826L13.8627 16.8778C14.0288 16.9781 14.1006 17.074 14.3273 17.0584C15.0254 17.0116 14.6595 17.2257 15.5596 17.1789C15.7145 17.1699 15.6763 17.132 15.8133 17.0852L16.1051 17.0406C16.0422 16.8711 16.0018 16.8956 15.8739 16.7685L17.4765 17.0897C17.4541 15.2163 17.4586 12.9304 17.4833 11.0036L17.0523 11.0348C17.068 10.9099 17.2566 10.9567 17.27 10.7047C17.288 10.388 17.2858 9.30196 17.2386 9.07003C17.2139 8.95183 16.9109 8.60616 16.8301 8.49911C16.9266 8.23818 16.9356 8.25602 17.1152 8.04193C17.0994 7.90143 17.068 7.86351 17.0074 7.70517L17.4765 7.55129C17.481 7.28368 17.5125 6.20651 17.4945 5.8653L17.3037 4.02765L17.4496 3.56824L17.4563 3.09545C17.0501 2.86351 17.1039 2.83675 16.8234 2.83898C16.5697 2.84121 16.2308 2.82783 15.9884 2.77208C15.6763 2.70071 15.7616 2.65165 15.4205 2.99955L15.2656 2.66503C14.7673 2.63604 13.2072 2.5 12.8369 2.5C12.3633 2.5 12.4306 2.53568 12.2712 3.07092L11.5911 3.14005L11.5013 2.8479L10.8841 2.84121L10.9491 2.76985C11.0681 2.65611 11.0255 2.70071 11.1197 2.5H8.63717C8.55412 2.65165 8.40597 2.76539 8.22864 2.82337C7.98173 2.90589 8.10294 2.77431 7.94806 2.91258C7.83134 3.0174 7.81114 3.0107 7.62708 3.00624C7.38242 3.00178 7.13102 2.99286 6.88635 2.98394C6.77412 2.97948 6.65066 2.99063 6.54068 2.9661C6.37233 2.92596 6.42171 2.88359 6.32968 2.77654Z" fill="#010E28"/>
</svg>
