<svg width="24" height="24" viewBox="0 0 24 24" fill="none" xmlns="http://www.w3.org/2000/svg">
<path fill-rule="evenodd" clip-rule="evenodd" d="M6.432 13.7529C6.60977 13.8626 6.7229 13.9697 6.8926 14.1062L8.2744 15.38C8.56261 15.653 9.30064 16.3943 9.58616 16.7208C9.7801 16.9456 9.8636 16.9697 10.0064 17.1891C9.95518 17.2079 9.30872 17.355 8.93162 17.4835C8.15049 17.7511 7.4367 18.1793 6.75523 17.9492C6.65287 17.9144 6.18958 17.4755 5.97678 17.3256C5.85019 17.2373 5.73167 17.1543 5.58622 17.0526C5.17141 16.7636 5.05289 16.9643 5.60238 15.6878C5.74514 15.3533 5.86904 15.0535 6.00641 14.727C6.12762 14.4487 6.29193 13.9857 6.432 13.7529ZM16.3659 6.0562C16.6514 6.15522 17.3409 6.54594 17.5079 6.75736C17.6507 6.93399 17.6103 6.95004 17.5564 7.20696L17.2763 9.38805C16.8884 9.40143 16.9988 9.35593 16.7591 9.19536C16.3551 8.92507 14.9706 7.90812 14.5262 7.55219L13.6696 6.86976C13.7316 6.81088 13.6481 6.843 13.7908 6.80553L15.0568 6.52186C15.7167 6.35593 15.8191 6.31311 16.3659 6.0562ZM5.0098 6.49509C5.3007 6.33452 5.45423 6.45495 5.94446 6.10437C6.07645 6.0107 6.37813 6.01873 6.56129 6.0455C6.74984 6.07226 7.18889 6.43354 7.38821 6.55665C7.50404 6.62623 8.02659 7.0223 8.11009 7.16146L8.36867 7.5736C8.72422 7.58965 8.66227 7.57092 9.1094 7.89741L13.4002 10.7074C14.3214 11.3443 15.3989 11.9946 16.3255 12.6369L18.9678 14.355C18.8924 14.5183 18.8035 15.0803 18.7524 15.3051C18.5234 16.3381 18.2352 16.7743 17.7692 17.7672C17.0985 17.7939 16.5706 17.7886 15.916 17.7779C15.7032 17.7752 15.7571 17.818 15.6413 17.7083C15.2588 17.339 14.5612 16.5308 14.1733 16.1561C14.0386 16.0277 13.9201 15.9072 13.7854 15.7654C12.7134 14.6307 13.2198 14.9732 13.0124 14.6896L10.8575 12.6637C10.3619 12.1847 9.91747 11.6708 9.40569 11.1329C9.27371 10.9938 9.20906 10.8653 9.07169 10.7395L9.03398 10.7047C8.99627 10.6699 9.01243 10.6833 8.97742 10.6459L8.34982 9.93934C8.23938 9.83765 8.25015 9.84032 8.16935 9.74933L7.60639 9.17128C7.48249 9.04282 7.38552 8.90901 7.267 8.76985L6.72829 8.2025C6.64748 8.12221 6.59092 8.09813 6.51011 8.01516C6.25422 7.75022 6.03874 7.49599 5.78015 7.23104C5.57544 7.01963 5.07175 6.61285 5.0098 6.49509ZM7.59562 3.33185L3.17278 3.42284C2.93306 4.29795 3.17009 3.8537 3.17278 4.76896V6.42284C3.13777 6.90187 3.01117 7.14273 3.01117 7.78234C3.01117 7.99643 2.96269 8.49153 3.06774 8.66013C3.2509 8.95718 3.2482 9.21142 3.32632 9.64228C3.39635 10.025 3.46908 9.98483 3.29669 10.2739L3.21588 11.0045L3.59298 11.3711L3.59567 12.0134C3.36941 12.2194 3.62261 12.0723 3.14585 12.4148L3.18895 14.355L3.65763 14.6922L3.56066 16.3461C3.06504 16.6994 3.17278 17.1249 3.18895 17.5638L3.2482 19.2123L3.14046 20.058C4.24752 20.3336 4.0051 20.248 5.27107 20.248C6.3889 20.248 6.24614 20.2587 7.3505 20.1249L7.38013 20.3122C7.55252 20.3015 7.7276 20.2908 7.8973 20.2748C8.36867 20.2293 8.18012 20.1757 8.34173 20.1169C8.45756 20.074 9.72084 20.3657 9.92555 20.4086C10.0387 20.2828 9.98212 20.3336 10.1383 20.2319C10.2245 20.4112 10.5882 20.8207 10.7363 21L11.1942 20.5745L11.9942 20.8822L12.2285 20.6869C12.3201 20.7939 12.3767 20.9277 12.5383 20.9492C12.7753 20.9813 12.8131 20.5905 13.3383 20.5798L16.3739 20.4781C16.4117 20.4407 16.4359 20.4193 16.479 20.3791L16.6352 20.2533C16.8345 20.3738 16.9207 20.4888 17.1928 20.4701C18.0305 20.4139 17.5914 20.6708 18.6716 20.6146C18.8574 20.6039 18.8116 20.5584 18.9759 20.5022L19.3261 20.4487C19.2507 20.2453 19.2022 20.2748 19.0487 20.1222L20.9719 20.5076C20.9449 18.2596 20.9503 15.5165 20.9799 13.2043L20.4628 13.2417C20.4816 13.0919 20.7079 13.1481 20.724 12.8457C20.7456 12.4657 20.7429 11.1624 20.6863 10.884C20.6567 10.7422 20.2931 10.3274 20.1961 10.1989C20.3119 9.88582 20.3227 9.90723 20.5382 9.65031C20.5193 9.48171 20.4816 9.43622 20.4089 9.24621L20.9719 9.06155C20.9772 8.74041 21.015 7.44781 20.9934 7.03836L20.7645 4.83318L20.9395 4.28189L20.9476 3.71454C20.4601 3.43622 20.5247 3.4041 20.188 3.40678C19.8837 3.40946 19.4769 3.3934 19.186 3.32649C18.8116 3.24086 18.914 3.18198 18.5046 3.59946L18.3187 3.19804C17.7207 3.16325 15.8487 3 15.4043 3C14.8359 3 14.9167 3.04282 14.7255 3.6851L13.9093 3.76806L13.8016 3.41748L13.0609 3.40946L13.139 3.32382C13.2817 3.18733 13.2306 3.24086 13.3437 3H10.3646C10.2649 3.18198 10.0872 3.31847 9.87437 3.38805C9.57808 3.48707 9.72353 3.32917 9.53768 3.49509C9.39761 3.62087 9.37337 3.61285 9.1525 3.60749C8.8589 3.60214 8.55722 3.59144 8.26362 3.58073C8.12894 3.57538 7.9808 3.58876 7.84881 3.55932C7.64679 3.51115 7.70605 3.4603 7.59562 3.33185Z" fill="white"/>
</svg>
