<svg width="24" height="24" viewBox="0 0 24 24" fill="none" xmlns="http://www.w3.org/2000/svg">
<path d="M21.7095 18.3291L13.4606 3.85558C13.1587 3.3261 12.6011 3 11.9975 3C11.394 3 10.8363 3.3261 10.5344 3.85558L2.22623 18.4333C1.92459 18.9627 1.92459 19.6149 2.22623 20.1444C2.52812 20.6739 3.08579 21 3.68932 21H20.306H20.3108C21.2437 21 22 20.2339 22 19.2888C21.9998 18.9332 21.8929 18.6027 21.7095 18.3291ZM11.9999 7.65193C13.2065 7.65193 13.5007 8.57082 13.4266 9.09713L12.7026 14.8004C12.6785 15.3162 12.2828 15.5123 11.9999 15.5123C11.6831 15.5123 11.325 15.3431 11.2972 14.8004L10.5733 9.09713C10.4992 8.55567 10.8008 7.65193 11.9999 7.65193ZM13.0429 18.8415C12.7709 19.1199 12.3897 19.2815 11.9999 19.2815C11.6097 19.2815 11.2287 19.1199 10.9538 18.8415C10.6792 18.5631 10.5226 18.1771 10.5226 17.7818C10.5226 17.3897 10.6792 17.0037 10.9538 16.7253C11.2287 16.4468 11.6097 16.2882 11.9999 16.2882C12.3897 16.2882 12.7709 16.4466 13.0429 16.7253C13.3204 17.0037 13.4773 17.3897 13.4773 17.7818C13.4773 18.1771 13.3207 18.5631 13.0429 18.8415Z" fill="#E30E2C"/>
</svg>
