<svg width="24" height="24" viewBox="0 0 24 24" fill="none" xmlns="http://www.w3.org/2000/svg">
<path fill-rule="evenodd" clip-rule="evenodd" d="M4 2C3.44772 2 3 2.44772 3 3V21C3 21.5523 3.44772 22 4 22H20C20.5523 22 21 21.5523 21 21V14C21 13.4477 20.5523 13 20 13C19.4477 13 19 13.4477 19 14V20H5V4H9C9.55228 4 10 3.55228 10 3C10 2.44772 9.55228 2 9 2H4ZM12 3C12 2.44772 12.4477 2 13 2H20.0711C20.6234 2 21.0711 2.44772 21.0711 3V10.0711C21.0711 10.6234 20.6234 11.0711 20.0711 11.0711C19.5188 11.0711 19.0711 10.6234 19.0711 10.0711V5.53553L14.1213 10.4853C13.7308 10.8758 13.0976 10.8758 12.7071 10.4853C12.3166 10.0948 12.3166 9.46159 12.7071 9.07106L17.7782 4L13 4C12.4477 4 12 3.55228 12 3Z" fill="white"/>
</svg>
