<svg width="35" height="24" viewBox="0 0 35 24" fill="none" xmlns="http://www.w3.org/2000/svg">
<path fill-rule="evenodd" clip-rule="evenodd" d="M17.5 3C18.3284 3 19 3.67157 19 4.5V16.2537L19.8437 15.035L21.4393 13.4393C22.0251 12.8536 22.9749 12.8536 23.5607 13.4393C24.1464 14.0251 24.1464 14.9749 23.5607 15.5607L22.1563 16.965L18.3298 22.4922C17.676 23.4365 16.6006 24 15.4521 24H11.5C9.01472 24 7 21.9853 7 19.5L7 12.5C7 11.6716 7.67157 11 8.5 11C9.32843 11 10 11.6716 10 12.5V11.5C10 10.6716 10.6716 10 11.5 10C12.3284 10 13 10.6716 13 11.5V10.5C13 9.67157 13.6716 9 14.5 9C15.3284 9 16 9.67157 16 10.5V4.5C16 3.67157 16.6716 3 17.5 3Z" fill="#3BBBE9"/>
<path opacity="0.64" fill-rule="evenodd" clip-rule="evenodd" d="M30.2929 0.292893C30.6834 -0.0976311 31.3166 -0.0976311 31.7071 0.292893L34.7071 3.29289C35.0976 3.68342 35.0976 4.31658 34.7071 4.70711L31.7071 7.70711C31.3166 8.09763 30.6834 8.09763 30.2929 7.70711C29.9024 7.31658 29.9024 6.68342 30.2929 6.29289L31.5858 5H26C25.4477 5 25 4.55228 25 4C25 3.44772 25.4477 3 26 3H31.5858L30.2929 1.70711C29.9024 1.31658 29.9024 0.683417 30.2929 0.292893Z" fill="#3BBBE9"/>
<path opacity="0.64" fill-rule="evenodd" clip-rule="evenodd" d="M4.70711 0.292893C4.31658 -0.0976311 3.68342 -0.0976311 3.29289 0.292893L0.292893 3.29289C-0.0976315 3.68342 -0.0976315 4.31658 0.292893 4.70711L3.29289 7.70711C3.68342 8.09763 4.31658 8.09763 4.70711 7.70711C5.09763 7.31658 5.09763 6.68342 4.70711 6.29289L3.41421 5H9C9.55228 5 10 4.55228 10 4C10 3.44772 9.55228 3 9 3H3.41421L4.70711 1.70711C5.09763 1.31658 5.09763 0.683417 4.70711 0.292893Z" fill="#3BBBE9"/>
</svg>
