<svg width="24" height="24" viewBox="0 0 24 24" fill="none" xmlns="http://www.w3.org/2000/svg">
<path fill-rule="evenodd" clip-rule="evenodd" d="M2 5C2 4.44772 2.44772 4 3 4H21C21.5523 4 22 4.44772 22 5V19C22 19.5523 21.5523 20 21 20H3C2.44772 20 2 19.5523 2 19V5ZM16.286 12.0367C16.1545 11.9737 15.9996 11.9935 15.8879 12.085L12.3752 14.959V11.617C12.5394 11.6768 12.7102 11.7144 12.8846 11.7144C13.1896 11.7144 13.4973 11.621 13.7635 11.4276C14.3033 11.0354 14.5054 10.3539 14.3059 9.74967C14.8226 9.37797 15.0595 8.70779 14.8533 8.07353C14.6471 7.43888 14.0429 7.05436 13.4251 7.03934C13.2314 6.43288 12.6674 6.00039 12.0002 6.00039C11.333 6.00039 10.769 6.43288 10.5753 7.03932C9.94322 7.04408 9.35326 7.43885 9.14708 8.07351C8.94089 8.70779 9.17785 9.37795 9.69456 9.74964C9.49497 10.3539 9.69711 11.0354 10.2369 11.4273C10.6556 11.7316 11.1736 11.7827 11.6252 11.6181V14.9591L8.11249 12.085C8.00005 11.9935 7.84479 11.9737 7.71442 12.0367C7.58367 12.0985 7.5002 12.2304 7.5002 12.3754V15.3754C7.5002 16.8227 8.67793 18.0004 10.1252 18.0004H13.8752C15.3225 18.0004 16.5002 16.8227 16.5002 15.3754V12.3754C16.5002 12.2304 16.4167 12.0985 16.286 12.0367ZM10.6778 10.8205C10.3519 10.5839 10.2731 10.1349 10.4984 9.79835C10.5625 9.70277 10.5789 9.58301 10.5434 9.47388C10.5079 9.36437 10.424 9.27722 10.316 9.23767C9.93622 9.09777 9.73589 8.68835 9.86041 8.30492C9.98493 7.92186 10.387 7.70982 10.7774 7.81859C10.8891 7.85045 11.0074 7.82921 11.1 7.76109C11.1931 7.69372 11.2498 7.58714 11.2542 7.47215C11.2696 7.06748 11.5973 6.75035 12.0002 6.75035C12.403 6.75035 12.7308 7.06748 12.7461 7.47215C12.7505 7.58714 12.8073 7.69372 12.9003 7.76109C12.9933 7.82846 13.1116 7.8497 13.223 7.81859C13.6148 7.70908 14.0154 7.92186 14.1399 8.30492C14.2645 8.68835 14.0641 9.09777 13.6844 9.23767C13.5763 9.27722 13.4925 9.36437 13.457 9.47388C13.4214 9.58301 13.4379 9.70277 13.502 9.79835C13.7272 10.1349 13.6485 10.5839 13.3226 10.8208C12.9963 11.057 12.5455 10.9937 12.295 10.675C12.2239 10.5846 12.1152 10.5319 12.0002 10.5319C11.8852 10.5319 11.7764 10.5846 11.7054 10.675C11.4549 10.9937 11.0034 11.0578 10.6778 10.8205ZM10.1252 17.2504C9.09137 17.2504 8.25018 16.4092 8.25018 15.3754V13.1668L11.6252 15.9282V17.2504H10.1252ZM15.7502 15.3754C15.7502 16.4092 14.909 17.2504 13.8752 17.2504H12.3752V15.9282L15.7502 13.1668V15.3754ZM12.5299 9.53071C12.8228 9.23784 12.8228 8.76297 12.5299 8.47007C12.2371 8.17716 11.7622 8.17716 11.4693 8.47007C11.1764 8.76295 11.1764 9.23781 11.4693 9.53071C11.7622 9.82362 12.237 9.82362 12.5299 9.53071Z" fill="#3BBBE9"/>
</svg>
