<svg width="24" height="24" viewBox="0 0 24 24" fill="none" xmlns="http://www.w3.org/2000/svg">
<path fill-rule="evenodd" clip-rule="evenodd" d="M3.42117 12.4917C2.54182 11.5906 2 10.3586 2 9C2 6.23858 4.23858 4 7 4C8.63582 4 10.0882 4.78555 11.0004 6H12.9996C13.9118 4.78555 15.3642 4 17 4C19.7614 4 22 6.23858 22 9C22 10.2511 21.5405 11.3948 20.7811 12.2717L21.8308 16.1895C22.1167 17.2564 21.4835 18.3531 20.4166 18.6389L18.4848 19.1566C17.4178 19.4425 16.3212 18.8093 16.0353 17.7424L14.9102 13.5437C14.1518 13.1943 13.4958 12.6606 12.9996 12H11.0004C10.5713 12.5713 10.0226 13.0477 9.39159 13.392L8.3132 17.4166C8.02731 18.4835 6.93064 19.1167 5.86371 18.8308L3.93185 18.3132C2.86492 18.0273 2.23176 16.9306 2.51764 15.8637L3.42117 12.4917ZM15 10C15.5523 10 16 9.55228 16 9C16 8.44772 15.5523 8 15 8C14.4477 8 14 8.44772 14 9C14 9.55228 14.4477 10 15 10ZM9 9C9 10.1046 8.10457 11 7 11C5.89543 11 5 10.1046 5 9C5 7.89543 5.89543 7 7 7C8.10457 7 9 7.89543 9 9ZM17 8C17.5523 8 18 7.55228 18 7C18 6.44772 17.5523 6 17 6C16.4477 6 16 6.44772 16 7C16 7.55228 16.4477 8 17 8ZM18 11C18 11.5523 17.5523 12 17 12C16.4477 12 16 11.5523 16 11C16 10.4477 16.4477 10 17 10C17.5523 10 18 10.4477 18 11ZM19 10C19.5523 10 20 9.55228 20 9C20 8.44772 19.5523 8 19 8C18.4477 8 18 8.44772 18 9C18 9.55228 18.4477 10 19 10Z" fill="#010E28"/>
</svg>
