<svg width="24" height="24" viewBox="0 0 24 24" fill="none" xmlns="http://www.w3.org/2000/svg">
<path d="M15.3719 11.4822C15.761 11.4822 16.0765 11.1667 16.0765 10.7775C16.0765 10.3884 15.761 10.0729 15.3719 10.0729C14.9827 10.0729 14.6672 10.3884 14.6672 10.7775C14.6672 11.1667 14.9827 11.4822 15.3719 11.4822Z" fill="#3BBBE9"/>
<path d="M16.5086 10.346C16.8978 10.346 17.2132 10.0305 17.2132 9.64135C17.2132 9.25218 16.8978 8.93671 16.5086 8.93671C16.1194 8.93671 15.804 9.25218 15.804 9.64135C15.804 10.0305 16.1194 10.346 16.5086 10.346Z" fill="#3BBBE9"/>
<path d="M7.56837 9.42465H6.53093V10.4103H5.54541V11.4477H6.53093V12.4332H7.56837V11.4477H8.55397V10.4103H7.56837V9.42465Z" fill="#3BBBE9"/>
<path d="M11.9996 0C5.37248 0 0 5.37288 0 11.9998C0 18.6266 5.37248 24 11.9996 24C18.6267 24 23.9998 18.627 23.9998 11.9998C23.9998 5.37256 18.6267 0 11.9996 0ZM18.165 17.2874H17.1027L14.8139 13.6364H12.2971H11.7026H9.18584L6.89688 17.2874H5.83456C4.99712 17.2874 4.318 16.6085 4.318 15.7708L4.65496 10.4629C4.65496 10.4458 4.65704 10.4326 4.65744 10.4166C4.6572 10.3996 4.65496 10.3832 4.65496 10.366C4.65496 8.57376 6.108 7.12072 7.90024 7.12072C8.64328 7.12072 9.1576 7.3732 9.70456 7.7936C10.4046 7.59048 10.753 7.41536 11.7025 7.36304H12.297C13.2464 7.41536 13.5948 7.59048 14.2949 7.7936C14.842 7.3732 15.3562 7.12072 16.0992 7.12072C17.8914 7.12072 19.3445 8.57376 19.3445 10.366C19.3445 10.3832 19.3422 10.3996 19.342 10.4166C19.3424 10.4324 19.3445 10.4459 19.3445 10.4629L19.6814 15.7708C19.6814 16.6085 19.0027 17.2874 18.165 17.2874Z" fill="#3BBBE9"/>
<path d="M17.6453 11.4823C18.0345 11.4823 18.35 11.1668 18.35 10.7777C18.35 10.3885 18.0345 10.073 17.6453 10.073C17.2562 10.073 16.9407 10.3885 16.9407 10.7777C16.9407 11.1668 17.2562 11.4823 17.6453 11.4823Z" fill="#3BBBE9"/>
<path d="M16.5086 12.6191C16.8978 12.6191 17.2132 12.3036 17.2132 11.9144C17.2132 11.5253 16.8978 11.2098 16.5086 11.2098C16.1194 11.2098 15.804 11.5253 15.804 11.9144C15.804 12.3036 16.1194 12.6191 16.5086 12.6191Z" fill="#3BBBE9"/>
</svg>
