<svg width="24" height="24" viewBox="0 0 24 24" fill="none" xmlns="http://www.w3.org/2000/svg">
<path d="M12 10.5677H21.4401C21.5443 11.1493 21.5964 11.7049 21.5964 12.2344C21.5964 14.1181 21.2014 15.7999 20.4115 17.2799C19.6215 18.76 18.4952 19.9167 17.0326 20.75C15.5699 21.5833 13.8924 22 12 22C10.6372 22 9.33941 21.7374 8.10677 21.2122C6.87413 20.6871 5.81076 19.9774 4.91667 19.0833C4.02257 18.1892 3.31293 17.1259 2.78776 15.8932C2.26259 14.6606 2 13.3628 2 12C2 10.6372 2.26259 9.33941 2.78776 8.10677C3.31293 6.87413 4.02257 5.81076 4.91667 4.91667C5.81076 4.02257 6.87413 3.31293 8.10677 2.78776C9.33941 2.26259 10.6372 2 12 2C14.6042 2 16.8394 2.8724 18.7057 4.61719L15.9844 7.23438C14.9167 6.20139 13.5885 5.6849 12 5.6849C10.8802 5.6849 9.84505 5.96701 8.89453 6.53125C7.94401 7.09549 7.19097 7.86155 6.63542 8.82943C6.07986 9.79731 5.80208 10.8542 5.80208 12C5.80208 13.1458 6.07986 14.2027 6.63542 15.1706C7.19097 16.1385 7.94401 16.9045 8.89453 17.4688C9.84505 18.033 10.8802 18.3151 12 18.3151C12.7552 18.3151 13.4497 18.2109 14.0833 18.0026C14.717 17.7943 15.2378 17.5339 15.6458 17.2214C16.0538 16.9089 16.4097 16.553 16.7135 16.1536C17.0174 15.7543 17.2409 15.3767 17.3841 15.0208C17.5273 14.6649 17.625 14.3264 17.6771 14.0052H12V10.5677Z" fill="#010E28"/>
</svg>
