<svg width="24" height="24" viewBox="0 0 24 24" fill="none" xmlns="http://www.w3.org/2000/svg">
<g clip-path="url(#clip0)">
<path d="M14.5953 15.1281C14.6268 15.1281 14.6268 15.1586 14.6583 15.1586C13.6195 14.0914 12.864 12.8717 12.864 11.8045C12.864 10.7983 13.5565 9.60908 14.5009 8.60288C14.5638 8.5724 14.5953 8.51139 14.6583 8.4809C15.9489 7.23074 15.9489 5.18779 14.6583 3.93762C13.3677 2.68746 11.2586 2.68746 9.96797 3.93762C8.67734 5.18779 8.67734 7.23074 9.96797 8.4809C10.0309 8.54186 10.0624 8.5724 10.1254 8.60288C11.0697 9.63961 11.7623 10.8287 11.7623 11.8045C11.7623 12.8107 11.0068 14.1219 9.96797 15.1586L9.99945 15.1281C9.99945 15.1586 9.96797 15.1891 9.96797 15.1891C8.67734 16.4392 8.67734 18.4822 9.96797 19.7324C11.2586 20.9825 13.3677 20.9825 14.6583 19.7324C15.9489 18.4822 15.9489 16.4392 14.6583 15.1891C14.6268 15.1586 14.6268 15.1586 14.5953 15.1281Z" fill="#010E28"/>
</g>
<defs>
<clipPath id="clip0">
<rect x="9" y="3" width="6.62625" height="17.67" fill="white"/>
</clipPath>
</defs>
</svg>
