<svg width="48" height="48" viewBox="0 0 48 48" fill="none" xmlns="http://www.w3.org/2000/svg">
<path fill-rule="evenodd" clip-rule="evenodd" d="M24 4C17.3726 4 12 9.37258 12 16V18C8.68629 18 6 20.6863 6 24C6 27.3137 8.68629 30 12 30H14V28V20V18V16C14 10.4772 18.4772 6 24 6C29.5228 6 34 10.4772 34 16V18V20V28V30V40H32C32 38.8954 31.1046 38 30 38H22C20.8954 38 20 38.8954 20 40V42C20 43.1046 20.8954 44 22 44H30C31.1046 44 32 43.1046 32 42H35C35.5523 42 36 41.5523 36 41V30C39.3137 30 42 27.3137 42 24C42 20.6863 39.3137 18 36 18V16C36 9.37258 30.6274 4 24 4ZM30 40H22V42H30V40ZM12 20C9.79086 20 8 21.7909 8 24C8 26.2091 9.79086 28 12 28V20ZM40 24C40 21.7909 38.2091 20 36 20V28C38.2091 28 40 26.2091 40 24Z" fill="#3BBBE9"/>
<path d="M31.4683 20.8942C31.1988 20.6205 30.8463 20.452 30.4735 20.3889C29.0228 20.1995 28.2974 19.8627 27.3026 18.8311C26.308 17.8208 25.9767 17.1261 25.7485 15.6523C25.7058 15.2356 25.5313 14.8442 25.2511 14.5367C25.0858 14.3667 24.889 14.2317 24.6721 14.1396C24.4551 14.0474 24.2222 14 23.9871 14C23.7519 14 23.5191 14.0474 23.3021 14.1396C23.0851 14.2317 22.8883 14.3667 22.7231 14.5367C22.5556 14.7046 22.4227 14.9045 22.3319 15.125C22.2412 15.3455 22.1944 15.5821 22.1944 15.8211C22.1944 16.0601 22.2412 16.2967 22.3319 16.5172C22.4227 16.7376 22.5556 16.9376 22.7231 17.1055C23.0076 17.3925 23.381 17.5708 23.78 17.6105H23.7594C25.2311 17.7998 26.0186 18.263 26.9303 19.2105C27.8421 20.1367 28.3392 20.8948 28.4638 22.4736V22.4523C28.5308 22.8307 28.7035 23.1815 28.9612 23.463C29.1265 23.6331 29.3233 23.7681 29.5403 23.8603C29.7574 23.9525 29.9903 24 30.2255 24C30.4608 24 30.6937 23.9525 30.9107 23.8603C31.1278 23.7681 31.3246 23.6331 31.4898 23.463C31.8206 23.1185 32.004 22.6553 31.9999 22.1741C31.9959 21.6929 31.8048 21.2329 31.4683 20.8942ZM22.7228 20.8942C22.5553 21.0621 22.4224 21.262 22.3316 21.4825C22.2409 21.703 22.1941 21.9396 22.1941 22.1786C22.1941 22.4176 22.2409 22.6542 22.3316 22.8747C22.4224 23.0951 22.5553 23.2951 22.7228 23.463C22.888 23.6331 23.0848 23.7681 23.3019 23.8603C23.5189 23.9525 23.7518 24 23.9871 24C24.2223 24 24.4552 23.9525 24.6723 23.8603C24.8893 23.7681 25.0861 23.6331 25.2514 23.463C25.4188 23.2951 25.5518 23.0951 25.6425 22.8747C25.7333 22.6542 25.78 22.4176 25.78 22.1786C25.78 21.9396 25.7333 21.703 25.6425 21.4825C25.5518 21.262 25.4188 21.0621 25.2514 20.8942C25.0861 20.7241 24.8893 20.589 24.6723 20.4968C24.4552 20.4047 24.2223 20.3572 23.9871 20.3572C23.7518 20.3572 23.5189 20.4047 23.3019 20.4968C23.0848 20.589 22.888 20.7241 22.7228 20.8942ZM17.7492 23.9889C17.9852 23.992 18.2195 23.9475 18.4384 23.858C18.6574 23.7684 18.8566 23.6355 19.0246 23.4671C19.1926 23.2987 19.326 23.098 19.417 22.8768C19.5081 22.6556 19.555 22.4182 19.555 22.1784C19.555 21.9387 19.5081 21.7013 19.417 21.48C19.326 21.2588 19.1926 21.0582 19.0246 20.8897C18.8566 20.7213 18.6574 20.5885 18.4384 20.4989C18.2195 20.4093 17.9852 20.3648 17.7492 20.368C17.2823 20.3768 16.8375 20.5714 16.5104 20.9099C16.1833 21.2485 16 21.7039 16 22.1783C16 22.6527 16.1833 23.1081 16.5104 23.4466C16.8375 23.7852 17.2823 23.9801 17.7492 23.9889Z" fill="#3BBBE9"/>
</svg>
