<svg width="24" height="24" viewBox="0 0 24 24" fill="none" xmlns="http://www.w3.org/2000/svg">
<path fill-rule="evenodd" clip-rule="evenodd" d="M20 12.5C20 16.0899 17.0899 19 13.5 19C11.1988 19 9.17689 17.8042 8.02182 16H5.75174C7.08573 18.9485 10.0533 21 13.5 21C18.1944 21 22 17.1944 22 12.5C22 7.80558 18.1944 4 13.5 4C9.50082 4 6.1467 6.76185 5.24093 10.4823L3.96238 8.26775C3.68624 7.78945 3.07465 7.62558 2.59636 7.90172C2.11807 8.17786 1.95419 8.78945 2.23033 9.26775L4.73033 13.5979C5.00648 14.0762 5.61807 14.24 6.09636 13.9639L10.4265 11.4639C10.9048 11.1878 11.0687 10.5762 10.7925 10.0979C10.5164 9.61958 9.90478 9.4557 9.42649 9.73185L7.16522 11.0374C7.82874 8.15187 10.4131 6 13.5 6C17.0899 6 20 8.91015 20 12.5ZM12.5 13.3636V9H13.5V13.028L17.1893 14.5372L16.8107 15.4628L12.8107 13.8264L12.5 13.6993V13.3636Z" fill="#010E28"/>
</svg>
