<svg width="24" height="24" viewBox="0 0 24 24" fill="none" xmlns="http://www.w3.org/2000/svg">
<path d="M4.70005 18.7C5.1971 18.7 5.60005 18.2971 5.60005 17.8C5.60005 17.303 5.1971 16.9 4.70005 16.9C4.20299 16.9 3.80005 17.303 3.80005 17.8C3.80005 18.2971 4.20299 18.7 4.70005 18.7Z" fill="#010E28"/>
<path d="M4.39995 14.3C4.78655 14.3 5.09995 13.9866 5.09995 13.6C5.09995 13.2134 4.78655 12.9 4.39995 12.9C4.01335 12.9 3.69995 13.2134 3.69995 13.6C3.69995 13.9866 4.01335 14.3 4.39995 14.3Z" fill="#010E28"/>
<path d="M6.0999 10.4C6.4865 10.4 6.7999 10.0866 6.7999 9.7C6.7999 9.3134 6.4865 9 6.0999 9C5.7133 9 5.3999 9.3134 5.3999 9.7C5.3999 10.0866 5.7133 10.4 6.0999 10.4Z" fill="#010E28"/>
<path d="M9.09985 7.6001C9.376 7.6001 9.59985 7.37624 9.59985 7.1001C9.59985 6.82396 9.376 6.6001 9.09985 6.6001C8.82371 6.6001 8.59985 6.82396 8.59985 7.1001C8.59985 7.37624 8.82371 7.6001 9.09985 7.6001Z" fill="#010E28"/>
<path d="M12.2999 7.10005C12.5208 7.10005 12.6999 6.92096 12.6999 6.70005C12.6999 6.47913 12.5208 6.30005 12.2999 6.30005C12.079 6.30005 11.8999 6.47913 11.8999 6.70005C11.8999 6.92096 12.079 7.10005 12.2999 7.10005Z" fill="#010E28"/>
<path d="M14.9999 7.70002C15.2208 7.70002 15.3999 7.52094 15.3999 7.30002C15.3999 7.07911 15.2208 6.90002 14.9999 6.90002C14.7789 6.90002 14.5999 7.07911 14.5999 7.30002C14.5999 7.52094 14.7789 7.70002 14.9999 7.70002Z" fill="#010E28"/>
<path d="M16.6999 8.80007C16.8656 8.80007 16.9999 8.66576 16.9999 8.50007C16.9999 8.33439 16.8656 8.20007 16.6999 8.20007C16.5342 8.20007 16.3999 8.33439 16.3999 8.50007C16.3999 8.66576 16.5342 8.80007 16.6999 8.80007Z" fill="#010E28"/>
<path d="M10.9 19.1001H6.90001C6.90001 19.1001 5.60001 17.9001 6.60001 16.1001C7.60001 14.3001 10.3 13.9001 13.1 12.7001C15.9 11.5001 19.6 9.2001 20.6 8.3001C21.6 7.4001 21.6 7.7001 21.6 7.7001C21.6 7.7001 17.7 11.7001 14.4 13.5001C11.6 15.0001 10.2 15.8001 9.80001 16.5001C9.30001 17.2001 9.50001 18.4001 10.9 19.1001Z" fill="#010E28"/>
</svg>
