<svg width="20" height="20" viewBox="0 0 20 20" fill="none" xmlns="http://www.w3.org/2000/svg">
<path d="M17.6081 4.39161C17.347 4.13053 17.0333 4 16.6665 4H3.33332C2.96667 4 2.65287 4.1305 2.39161 4.39161C2.1305 4.65275 2 4.96655 2 5.33324V15.4664C2 15.8332 2.1305 16.147 2.39161 16.4081C2.65287 16.6692 2.96667 16.7998 3.33332 16.7998H16.6667C17.0333 16.7998 17.3471 16.6692 17.6082 16.4081C17.8693 16.147 18 15.8332 18 15.4664V5.33324C18 4.96655 17.8693 4.65275 17.6081 4.39161ZM16.9331 15.4664C16.9331 15.5387 16.9069 15.6011 16.8541 15.654C16.8013 15.7065 16.7387 15.7329 16.6665 15.7329H3.33332C3.26114 15.7329 3.19862 15.7065 3.14585 15.654C3.09311 15.6011 3.06669 15.5387 3.06669 15.4664V5.33312C3.06669 5.26091 3.09302 5.19853 3.14585 5.14565C3.19865 5.09302 3.26117 5.06661 3.33332 5.06661H16.6667C16.7388 5.06661 16.8013 5.09302 16.8541 5.14565C16.9067 5.19853 16.9331 5.26091 16.9331 5.33312V15.4664Z" fill="#919CB3"/>
<path d="M5.73319 9.33269C6.17769 9.33269 6.55544 9.17721 6.86658 8.86607C7.17763 8.55492 7.3332 8.17721 7.3332 7.73282C7.3332 7.2883 7.17754 6.91058 6.86658 6.59941C6.55544 6.28838 6.17766 6.13281 5.73319 6.13281C5.28875 6.13281 4.91103 6.28838 4.59989 6.59941C4.28887 6.91055 4.1333 7.28827 4.1333 7.73282C4.1333 8.17721 4.28878 8.55501 4.59989 8.86607C4.91103 9.17712 5.28875 9.33269 5.73319 9.33269Z" fill="#919CB3"/>
<path d="M8.13324 11.7334L6.79989 10.4002L4.1333 13.0667V14.6668H15.8666V10.9335L12.3999 7.4668L8.13324 11.7334Z" fill="#919CB3"/>
</svg>
