<svg width="20" height="20" viewBox="0 0 20 20" fill="none" xmlns="http://www.w3.org/2000/svg">
<path fill-rule="evenodd" clip-rule="evenodd" d="M9.99935 18.3334C14.6017 18.3334 18.3327 14.6025 18.3327 10.0001C18.3327 5.39771 14.6017 1.66675 9.99935 1.66675C5.39698 1.66675 1.66602 5.39771 1.66602 10.0001C1.66602 14.6025 5.39698 18.3334 9.99935 18.3334ZM9.25935 6.53342C9.32157 6.59564 9.39713 6.62675 9.48602 6.62675H10.7127C10.8016 6.62675 10.8771 6.59564 10.9393 6.53342C11.0105 6.47119 11.046 6.39564 11.046 6.30675V5.33342C11.046 5.23564 11.0149 5.15564 10.9527 5.09342C10.8905 5.03119 10.8105 5.00008 10.7127 5.00008H9.48602C9.39713 5.00008 9.32157 5.03119 9.25935 5.09342C9.19713 5.15564 9.16602 5.23564 9.16602 5.33342V6.30675C9.16602 6.39564 9.19713 6.47119 9.25935 6.53342ZM9.31268 14.6001C9.37491 14.6623 9.45046 14.6934 9.53935 14.6934H10.6727C10.7616 14.6934 10.8371 14.6623 10.8993 14.6001C10.9616 14.5379 10.9927 14.4623 10.9927 14.3734V8.08008C10.9927 7.99119 10.9616 7.91564 10.8993 7.85342C10.8371 7.79119 10.7616 7.76008 10.6727 7.76008H9.53935C9.45046 7.76008 9.37491 7.79119 9.31268 7.85342C9.25046 7.90675 9.21935 7.9823 9.21935 8.08008V14.3734C9.21935 14.4623 9.25046 14.5379 9.31268 14.6001Z" fill="#3BBBE9"/>
</svg>
