<svg width="24" height="24" viewBox="0 0 24 24" fill="none" xmlns="http://www.w3.org/2000/svg">
<path fill-rule="evenodd" clip-rule="evenodd" d="M16.0325 3H7.96724C5.22831 3 3 5.22841 3 7.96735V16.0327C3 18.7717 5.22831 21 7.96724 21H16.0325C18.7717 21 21 18.7716 21 16.0327V7.96735C21.0001 5.22841 18.7717 3 16.0325 3ZM19.4031 16.0327C19.4031 17.8911 17.8911 19.403 16.0327 19.403H7.96724C6.10892 19.4031 4.59705 17.8911 4.59705 16.0327V7.96735C4.59705 6.10903 6.10892 4.59705 7.96724 4.59705H16.0325C17.891 4.59705 19.403 6.10903 19.403 7.96735V16.0327H19.4031ZM12.0008 7.36169C9.44325 7.36169 7.36261 9.44232 7.36261 11.9998C7.36261 14.5572 9.44325 16.6378 12.0008 16.6378C14.5583 16.6378 16.6389 14.5572 16.6389 11.9998C16.6389 9.44232 14.5583 7.36169 12.0008 7.36169ZM12.0008 15.0406C10.324 15.0406 8.95966 13.6765 8.95966 11.9997C8.95966 10.3228 10.3239 8.95863 12.0008 8.95863C13.6777 8.95863 15.0419 10.3228 15.0419 11.9997C15.0419 13.6765 13.6776 15.0406 12.0008 15.0406ZM16.0048 6.35101C16.2221 6.13274 16.5243 6.00817 16.832 6.00817C17.1408 6.00817 17.4432 6.13274 17.6604 6.35101C17.8786 6.5682 18.0032 6.87058 18.0032 7.17934C18.0032 7.48704 17.8786 7.78941 17.6604 8.00768C17.4421 8.22487 17.1408 8.35051 16.832 8.35051C16.5243 8.35051 16.222 8.22487 16.0048 8.00768C15.7865 7.78941 15.6609 7.48714 15.6609 7.17934C15.6609 6.87058 15.7864 6.5682 16.0048 6.35101Z" fill="#E34E81"/>
</svg>
