<svg width="24" height="24" viewBox="0 0 24 24" fill="none" xmlns="http://www.w3.org/2000/svg">
<path d="M11.9989 2C5.9238 2 1 6.62224 1 12.322C1 12.9167 1.05483 13.5008 1.15604 14.068C3.69913 15.0422 5.46832 17.2057 5.46832 19.7172C5.46832 20.0103 5.44513 20.2971 5.39873 20.5796C7.23752 21.8765 9.52334 22.6462 12.0011 22.6462C14.6622 22.6462 17.102 21.7584 19.004 20.2844C18.9956 20.1495 18.9893 20.0124 18.9893 19.8753C18.9893 17.3892 20.5434 15.2278 22.8334 14.1207C22.9431 13.5387 23 12.9378 23 12.3262C22.9958 6.62224 18.072 2 11.9989 2ZM12.0875 19.1183C7.84693 19.1183 4.40765 15.892 4.40765 11.9108C4.40765 7.92963 7.84482 4.70334 12.0875 4.70334C16.3302 4.70334 19.7674 7.93174 19.7674 11.9129C19.7674 15.892 16.3281 19.1183 12.0875 19.1183Z" fill="#15A3E5"/>
<path d="M10.312 11.0632C10.2614 11.0653 10.1981 11.1349 10.1981 11.1349L10.1475 11.1939L10.1117 11.2424L10.061 11.3225L10.0083 11.3879L9.96826 11.447L10.04 11.5397L10.1243 11.6726L10.1855 11.7337L10.2508 11.7759L10.3331 11.797L10.3921 11.7949H10.4258C10.4722 11.9636 10.5482 12.1217 10.6473 12.2651C10.6367 12.2757 10.6135 12.301 10.5882 12.3263C10.5545 12.3621 10.5587 12.457 10.5587 12.457L10.565 12.535L10.5735 12.5962L10.5924 12.689L10.603 12.7712L10.6177 12.8408L10.7337 12.8577L10.8877 12.8935H10.9741L11.05 12.8766L11.1238 12.8345L11.1639 12.7923L11.1913 12.7649C11.3663 12.8661 11.5645 12.9378 11.7733 12.9758C11.7733 12.9884 11.7754 13.0264 11.7754 13.0643C11.7775 13.1149 11.8471 13.1782 11.8471 13.1782L11.9062 13.2288L11.9547 13.2646L12.0348 13.3153L12.1002 13.368L12.1592 13.408L12.252 13.3363L12.3848 13.252L12.446 13.1908L12.4882 13.1255L12.5092 13.0432L12.5071 12.9842V12.9526C12.6948 12.9083 12.8698 12.8345 13.028 12.7375C13.0427 12.7522 13.0638 12.7733 13.0891 12.7986C13.1292 12.8387 13.2283 12.8408 13.2283 12.8408H13.3105L13.3738 12.8366L13.456 12.8387L13.5446 12.8345L13.6353 12.8113L13.6479 12.689L13.6796 12.5287L13.6775 12.438L13.6585 12.3558L13.6437 12.2946L13.629 12.2356L13.5931 12.1702C13.6711 12.0374 13.7302 11.894 13.766 11.7443C13.7808 11.7443 13.8124 11.7443 13.8483 11.7443C13.8946 11.7443 13.9579 11.6768 13.9579 11.6768L14.0064 11.6178L14.0423 11.5693L14.0929 11.5123L14.1435 11.447L14.1835 11.3668L14.1182 11.2719L14.0423 11.137L13.9853 11.0737L13.9242 11.0294L13.8778 10.9957L13.8335 10.9641L13.7428 10.9324V10.9451C13.6985 10.7975 13.6311 10.6562 13.5446 10.5297C13.553 10.5212 13.5762 10.4959 13.6036 10.4685C13.6353 10.4348 13.6311 10.342 13.6311 10.342L13.6226 10.2661L13.6121 10.207L13.6058 10.1311L13.5931 10.0489L13.5636 9.96454L13.4497 9.94556L13.2979 9.90761L13.2135 9.9055L13.1397 9.92026L13.0828 9.9308L13.028 9.94135L12.9415 9.98352L12.9563 9.99828C12.796 9.90972 12.621 9.84435 12.4333 9.8085C12.4333 9.79795 12.4333 9.78741 12.4333 9.77476C12.4333 9.72415 12.3595 9.65878 12.3595 9.65878L12.2963 9.60817L12.2435 9.57022L12.1571 9.5175L12.0854 9.46478L12.02 9.42261L11.9146 9.49009L11.7649 9.57022L11.6953 9.62926L11.6468 9.69252L11.6194 9.77476V9.8338C11.4443 9.88019 11.2799 9.95189 11.1323 10.0426L11.1344 10.0405C11.1344 10.0405 11.1006 10.0088 11.0648 9.97509C11.0289 9.94135 10.934 9.94556 10.934 9.94556L10.856 9.95189L10.7949 9.96032L10.7021 9.9793L10.6198 9.98985L10.5503 10.0046L10.5334 10.1206L10.4975 10.2745V10.361L10.5144 10.4369L10.5566 10.5107L10.5988 10.5508L10.6051 10.5571C10.506 10.711 10.4343 10.8797 10.3942 11.0611C10.3942 11.0611 10.3542 11.0611 10.312 11.0632Z" fill="#15A3E5"/>
<path d="M14.3921 14.9536C14.0822 14.7849 13.6183 14.6795 13.2281 14.6015C12.838 14.5256 12.4416 14.5256 11.7015 14.418C10.9634 14.3105 10.529 14.127 9.98076 13.7917C9.4325 13.4565 9.16891 13.0432 8.95593 12.6446C8.74295 12.2461 8.62065 11.5903 8.58902 11.4975C8.5595 11.4068 8.65017 11.3182 8.65017 11.3182C8.65017 11.3182 9.24693 11.1917 9.59698 10.5802C9.94702 9.96869 9.78043 9.55538 9.26169 9.11256C8.74295 8.66973 8.52787 8.47152 8.23687 8.10461C7.94587 7.73769 7.85519 7.17257 7.85519 7.17257C7.82356 7.02074 7.71813 7.11141 7.6865 7.17257C7.65698 7.23372 7.59583 7.29487 7.35122 7.52472C7.10661 7.75456 6.96954 7.90639 6.66378 8.31969C6.35802 8.733 5.99111 9.37404 5.85404 9.77258C5.71698 10.169 5.44074 11.1791 5.64107 12.4506C5.83928 13.7222 6.28211 14.6479 6.87887 15.504C7.47563 16.3601 8.5595 17.0939 9.15626 17.3997C9.75302 17.7055 10.5164 17.9184 11.2966 18.026C12.0768 18.1335 13.2071 18.0555 13.7427 17.9037C14.2783 17.7519 14.7211 17.4292 14.8729 17.2774C15.0248 17.1256 15.1175 16.9105 15.1471 16.2378C15.1766 15.5651 14.7021 15.1223 14.3921 14.9536Z" fill="#15A3E5"/>
<path d="M16.2921 7.44674C15.7565 7.02078 15.4044 6.78039 14.9236 6.55898C14.4428 6.33756 13.8692 6.05922 13.3906 5.98541C12.9098 5.91161 12.4185 5.764 11.7036 5.81882C10.9888 5.87365 10.7695 5.79985 10.2128 5.96643C9.65609 6.13302 9.47264 6.26165 9.28707 6.42824C9.10151 6.59482 8.98764 6.86263 8.97288 7.08826C8.95812 7.31389 9.0277 7.38769 9.19429 7.64706C9.36087 7.90643 9.98083 8.16369 9.98083 8.16369C9.98083 8.16369 11.0984 8.66556 11.5223 8.73937C11.9461 8.81317 12.7327 8.65713 13.3885 8.771C14.0443 8.88487 14.3922 9.25389 14.3922 9.25389L15.0058 9.8148C15.0058 9.8148 15.5309 10.7468 15.5689 10.9767C15.6068 11.2065 15.6806 11.6388 15.6806 11.6388C15.6806 11.6388 15.6427 11.5671 15.2547 11.816C14.8667 12.0648 14.7338 12.2778 14.6621 12.4486C14.5904 12.6194 14.5166 12.6868 14.5166 12.8387C14.5166 12.9905 14.4576 13.2646 14.6621 13.5598C14.8667 13.8572 15.0016 13.9162 15.3116 14.1903C15.63 14.4708 15.7186 14.6901 15.8662 14.9305C16.0138 15.1709 16.1614 15.6875 16.1614 15.6875L16.1993 16.4825C16.1993 16.4825 16.2542 16.6849 16.3659 16.5753C16.4777 16.4635 16.6991 16.299 17.0491 15.8731C17.4013 15.4471 17.9728 14.6163 18.1583 13.7665C18.3439 12.9167 18.5105 12.107 18.3797 11.3204C18.2511 10.5318 18.3249 10.7089 18.0107 9.94554C17.6965 9.1843 17.5848 8.83215 17.1968 8.37035C16.8088 7.91065 16.8277 7.87269 16.2921 7.44674Z" fill="#15A3E5"/>
</svg>
