<svg width="24" height="24" viewBox="0 0 24 24" fill="none" xmlns="http://www.w3.org/2000/svg">
<path fill-rule="evenodd" clip-rule="evenodd" d="M22 6H2V8C4.20914 8 6 9.79086 6 12C6 14.2091 4.20914 16 2 16V18H22V16C19.7909 16 18 14.2091 18 12C18 9.79086 19.7909 8 22 8V6ZM15.2367 12.1945C15.4232 12.226 15.5994 12.3102 15.7342 12.4471C15.9024 12.6164 15.998 12.8465 16 13.087C16.002 13.3276 15.9103 13.5593 15.7449 13.7315C15.6623 13.8165 15.5639 13.8841 15.4554 13.9302C15.3468 13.9763 15.2304 14 15.1128 14C14.9951 14 14.8787 13.9763 14.7702 13.9302C14.6617 13.8841 14.5632 13.8165 14.4806 13.7315C14.3517 13.5908 14.2654 13.4154 14.2319 13.2262V13.2368C14.1696 12.4474 13.9211 12.0684 13.4652 11.6052C13.0093 11.1315 12.6155 10.8999 11.8797 10.8052H11.89C11.6905 10.7854 11.5038 10.6962 11.3615 10.5527C11.2778 10.4688 11.2113 10.3688 11.166 10.2586C11.1206 10.1483 11.0972 10.03 11.0972 9.91055C11.0972 9.79106 11.1206 9.67276 11.166 9.56251C11.2113 9.45227 11.2778 9.35229 11.3615 9.26836C11.4441 9.18335 11.5426 9.11586 11.651 9.06979C11.7595 9.02372 11.8759 9 11.9935 9C12.1111 9 12.2275 9.02372 12.336 9.06979C12.4445 9.11586 12.5429 9.18335 12.6255 9.26836C12.7656 9.42209 12.8529 9.61781 12.8742 9.82617C12.9884 10.563 13.154 10.9104 13.6513 11.4155C14.1487 11.9313 14.5114 12.0998 15.2367 12.1945ZM11.1658 12.7413C11.2112 12.631 11.2777 12.531 11.3614 12.4471C11.444 12.3621 11.5424 12.2945 11.6509 12.2484C11.7595 12.2023 11.8759 12.1786 11.9935 12.1786C12.1112 12.1786 12.2276 12.2023 12.3361 12.2484C12.4446 12.2945 12.5431 12.3621 12.6257 12.4471C12.7094 12.531 12.7759 12.631 12.8213 12.7413C12.8666 12.8515 12.89 12.9698 12.89 13.0893C12.89 13.2088 12.8666 13.3271 12.8213 13.4373C12.7759 13.5476 12.7094 13.6476 12.6257 13.7315C12.5431 13.8165 12.4446 13.8841 12.3361 13.9302C12.2276 13.9763 12.1112 14 11.9935 14C11.8759 14 11.7595 13.9763 11.6509 13.9302C11.5424 13.8841 11.444 13.8165 11.3614 13.7315C11.2777 13.6476 11.2112 13.5476 11.1658 13.4373C11.1204 13.3271 11.0971 13.2088 11.0971 13.0893C11.0971 12.9698 11.1204 12.8515 11.1658 12.7413ZM9.21922 13.929C9.10975 13.9738 8.99261 13.996 8.87461 13.9945C8.64117 13.99 8.41875 13.8926 8.25519 13.7233C8.09163 13.554 8 13.3263 8 13.0891C8 12.8519 8.09163 12.6242 8.25519 12.455C8.41875 12.2857 8.64117 12.1884 8.87461 12.184C8.99261 12.1824 9.10975 12.2047 9.21922 12.2494C9.32869 12.2942 9.42832 12.3607 9.51231 12.4449C9.59631 12.5291 9.663 12.6294 9.70852 12.74C9.75404 12.8506 9.77748 12.9693 9.77748 13.0892C9.77748 13.2091 9.75404 13.3278 9.70852 13.4384C9.663 13.549 9.59631 13.6493 9.51231 13.7336C9.42832 13.8178 9.32869 13.8842 9.21922 13.929Z" fill="#919CB3"/>
</svg>
