<svg width="24" height="24" viewBox="0 0 24 24" fill="none" xmlns="http://www.w3.org/2000/svg">
<path d="M20.8998 3.10017C20.1666 2.36677 19.2832 2 18.2503 2H5.75003C4.71712 2 3.83372 2.36677 3.10018 3.10017C2.36677 3.83371 2 4.71707 2 5.75002V18.2501C2 19.283 2.36677 20.1664 3.10018 20.9C3.83372 21.6335 4.71712 22.0003 5.75003 22.0003H18.2502C19.2831 22.0003 20.1665 21.6335 20.8997 20.9C21.6332 20.1664 22 19.283 22 18.2501V5.75002C22 4.71707 21.6332 3.83358 20.8998 3.10017ZM8.09377 18.7449H5.0859V9.70829H8.09377V18.7449ZM7.82049 8.03525C7.50804 8.33475 7.09566 8.48452 6.58345 8.48452H6.57031C6.07557 8.48452 5.67423 8.33475 5.36597 8.03525C5.05767 7.73575 4.90361 7.36469 4.90361 6.92198C4.90361 6.47061 5.06214 6.09727 5.37888 5.80206C5.69585 5.50694 6.10595 5.35931 6.60935 5.35931C7.11281 5.35931 7.51648 5.50694 7.82035 5.80206C8.12414 6.09727 8.28044 6.47061 8.28906 6.92198C8.28901 7.36451 8.13294 7.73556 7.82049 8.03525ZM18.9142 18.7449H15.9064V13.9142C15.9064 12.5515 15.4031 11.87 14.3961 11.87C14.0141 11.87 13.6928 11.9763 13.4325 12.189C13.1718 12.4016 12.9766 12.6598 12.8466 12.9639C12.7857 13.12 12.7554 13.3629 12.7554 13.6927V18.7448H9.74752C9.77356 13.2935 9.77356 10.2812 9.74752 9.7082H12.7554V10.984C13.3878 9.9952 14.2859 9.49977 15.4508 9.49977C16.4925 9.49977 17.3303 9.84274 17.9639 10.5284C18.5976 11.2142 18.9144 12.2256 18.9144 13.5621L18.9142 18.7449Z" fill="white"/>
</svg>
