<svg width="24" height="24" viewBox="0 0 24 24" fill="none" xmlns="http://www.w3.org/2000/svg">
    <path d="M20 9C20 8.44772 19.5523 8 19 8L14 8C13.4477 8 13 7.55229 13 7C13 6.44772 13.4477 6 14 6L19 6C20.6569 6 22 7.34315 22 9V15C22 16.6569 20.6569 18 19 18L14 18C13.4477 18 13 17.5523 13 17C13 16.4477 13.4477 16 14 16L19 16C19.5523 16 20 15.5523 20 15V9Z" fill="#3BBBE9"/>
    <path d="M15 11C15.5523 11 16 11.4477 16 12C16 12.5523 15.5523 13 15 13L9 13C8.44771 13 8 12.5523 8 12C8 11.4477 8.44771 11 9 11L15 11Z" fill="#3BBBE9"/>
    <path d="M5 8C4.44772 8 4 8.44772 4 9L4 15C4 15.5523 4.44772 16 5 16H10C10.5523 16 11 16.4477 11 17C11 17.5523 10.5523 18 10 18H5C3.34315 18 2 16.6569 2 15L2 9C2 7.34315 3.34315 6 5 6L10 6C10.5523 6 11 6.44772 11 7C11 7.55228 10.5523 8 10 8L5 8Z" fill="#3BBBE9"/>
</svg>
