<svg width="24" height="24" viewBox="0 0 24 24" fill="none" xmlns="http://www.w3.org/2000/svg">
<path d="M9.60408 11.0747C9.32794 11.5529 9.49182 12.1645 9.97011 12.4407C10.4484 12.7168 11.06 12.5529 11.3361 12.0747L14.4597 6.66454C14.7358 6.18624 14.5719 5.57465 14.0936 5.29851L8.68352 2.17497C8.20523 1.89883 7.59364 2.06271 7.3175 2.541C7.04136 3.01929 7.20523 3.63088 7.68352 3.90702L10.5489 5.56136C6.59877 6.1935 3.58057 9.61683 3.58057 13.7451C3.58057 18.3226 7.29134 22.0333 11.8688 22.0333C16.4463 22.0333 20.1571 18.3226 20.1571 13.7451C20.1571 13.1928 19.7094 12.7451 19.1571 12.7451C18.6048 12.7451 18.1571 13.1928 18.1571 13.7451C18.1571 17.218 15.3417 20.0333 11.8688 20.0333C8.39591 20.0333 5.58057 17.218 5.58057 13.7451C5.58057 10.3315 8.30054 7.55323 11.6914 7.4593L9.60408 11.0747Z" fill="#010E28"/>
</svg>
