<svg width="24" height="24" viewBox="0 0 24 24" fill="none" xmlns="http://www.w3.org/2000/svg">
<path fill-rule="evenodd" clip-rule="evenodd" d="M16 8V10H8V8C8 5.79086 9.79086 4 12 4C14.2091 4 16 5.79086 16 8ZM6 10V8C6 4.68629 8.68629 2 12 2C15.3137 2 18 4.68629 18 8V10C19.1046 10 20 10.8954 20 12V20C20 21.1046 19.1046 22 18 22H6C4.89543 22 4 21.1046 4 20V12C4 10.8954 4.89543 10 6 10ZM12.9686 16.7502C13.5837 16.4091 14 15.7532 14 15C14 13.8954 13.1046 13 12 13C10.8954 13 10 13.8954 10 15C10 15.7532 10.4163 16.4091 11.0314 16.7502C11.0109 16.8301 11 16.9138 11 17V18C11 18.5523 11.4477 19 12 19C12.5523 19 13 18.5523 13 18V17C13 16.9138 12.9891 16.8301 12.9686 16.7502Z" fill="#010E28"/>
</svg>
