<svg width="36" height="40" viewBox="0 0 36 40" fill="none" xmlns="http://www.w3.org/2000/svg">
<path fill-rule="evenodd" clip-rule="evenodd" d="M5.92578 0H15.8023V34.1001H24.7811C24.7969 34.0914 24.8127 34.0827 24.8284 34.0739H30.6181C30.6095 34.0827 30.6009 34.0914 30.5923 34.1001H34.7347L29.6295 40H5.92578L8.95169 37.115V37.0181C8.93073 37.006 8.9098 36.9939 8.88889 36.9817V32.702C8.90977 32.7189 8.93071 32.7356 8.95169 32.7523V10.2873C8.93071 10.304 8.90977 10.3208 8.88889 10.3376V6.06307C8.9098 6.05088 8.93073 6.03874 8.95169 6.02663V3.32684L5.92578 0ZM17.7761 7.17321C17.8101 7.17297 17.8442 7.17285 17.8782 7.17285C25.8018 7.17285 32.2252 13.5962 32.2252 21.5198C32.2252 25.7073 30.4312 29.4758 27.5698 32.0986H32.302C34.4781 29.1366 35.7635 25.4796 35.7635 21.5224C35.7635 11.6466 27.7576 3.64062 17.8817 3.64062C17.8465 3.64062 17.8113 3.64073 17.7761 3.64093V7.17321ZM0 21.5224C0 15.7802 2.70658 10.6702 6.91358 7.39843V12.2667C4.80332 14.7647 3.53125 17.9937 3.53125 21.5198C3.53125 25.046 4.80332 28.275 6.91358 30.773V35.6463C2.70658 32.3746 0 27.2646 0 21.5224Z" fill="#E1E6F0"/>
</svg>
