<svg width="24" height="24" viewBox="0 0 24 24" fill="none" xmlns="http://www.w3.org/2000/svg">
<path fill-rule="evenodd" clip-rule="evenodd" d="M12 21C16.9706 21 21 16.9706 21 12C21 7.02944 16.9706 3 12 3C7.02944 3 3 7.02944 3 12C3 16.9706 7.02944 21 12 21ZM15.548 13.3412C15.1963 12.9897 14.7193 12.8983 14.2382 12.8061L14.2382 12.8061C13.9002 12.7413 13.5602 12.6762 13.2602 12.5201C12.593 12.1733 11.9593 11.5422 11.575 10.8979C11.4043 10.6011 11.28 10.2799 11.2066 9.94545C11.1772 9.82171 11.1561 9.69728 11.1352 9.57379L11.1352 9.57376C11.0797 9.24644 11.0252 8.92575 10.8217 8.6423C10.2967 7.91249 9.22622 7.78246 8.54223 8.36644C7.92921 8.89138 7.81822 9.83317 8.30025 10.4836C8.65573 10.9633 9.19217 11.0731 9.736 11.1845C10.0584 11.2505 10.3834 11.3171 10.6749 11.4615C11.3182 11.7803 11.9009 12.3462 12.3155 12.9263C12.5129 13.2014 12.6616 13.5083 12.7553 13.8336C12.8046 14.0045 12.8277 14.181 12.8507 14.3572V14.3572C12.8764 14.5534 12.902 14.7492 12.9637 14.9364C13.2879 15.9224 14.5211 16.3198 15.3606 15.7107C16.1252 15.1551 16.2175 14.0114 15.5484 13.3422L15.548 13.3412ZM14.5869 8.00749C14.9463 8.04282 15.2823 8.20166 15.5377 8.45695L15.538 8.45718C15.6835 8.60172 15.7988 8.77372 15.8773 8.96319C15.9558 9.15267 15.9958 9.35584 15.9952 9.56093C15.9952 9.92204 15.87 10.272 15.6409 10.5511C15.4118 10.8303 15.093 11.0214 14.7388 11.0919C14.3847 11.1623 14.017 11.1078 13.6985 10.9376C13.38 10.7674 13.1304 10.492 12.9922 10.1584C12.8539 9.82482 12.8357 9.4536 12.9404 9.10802C13.0452 8.76244 13.2666 8.46388 13.5668 8.26321C13.867 8.06253 14.2275 7.97216 14.5869 8.00749ZM9.7177 12.8803C10.0772 12.9158 10.4132 13.0747 10.6686 13.3302C10.8141 13.4748 10.9293 13.6468 11.0078 13.8363C11.0863 14.0257 11.1264 14.2289 11.1258 14.4339C11.1259 14.7951 11.0007 15.1452 10.7715 15.4244C10.5424 15.7037 10.2235 15.8948 9.86925 15.9653C9.51497 16.0358 9.14722 15.9813 8.82865 15.811C8.51008 15.6407 8.26041 15.3653 8.12218 15.0315C7.98394 14.6978 7.9657 14.3265 8.07056 13.9808C8.17542 13.6352 8.3969 13.3366 8.69724 13.1359C8.99759 12.9352 9.35823 12.8449 9.7177 12.8803Z" fill="#010E28"/>
</svg>
