<svg width="24" height="24" viewBox="0 0 24 24" fill="none" xmlns="http://www.w3.org/2000/svg">
    <path fill-rule="evenodd" clip-rule="evenodd" d="M12 4C8.50704 4 4 2 4 2V14C4 18.4183 7.58172 22 12 22C16.4183 22 20 18.4183 20 14V2C20 2 15.493 4 12 4ZM8.38823 9.05111L5.49045 8.27465C5.06162 9.87505 6.01137 11.5201 7.61177 11.9489C9.21217 12.3777 10.8572 11.428 11.286 9.82756L8.38823 9.05111ZM12.714 9.82762L15.6118 9.05117L18.5095 8.27471C18.9384 9.87511 17.9886 11.5201 16.3882 11.9489C14.7878 12.3778 13.1428 11.428 12.714 9.82762ZM12 15C8.68629 15 6 14 6 14C6 15.6569 8.68629 18 12 18C15.3137 18 18 15.6569 18 14C18 14 15.3137 15 12 15Z" fill="#919CB3"/>
</svg>
