<svg width="24" height="24" viewBox="0 0 24 24" fill="none" xmlns="http://www.w3.org/2000/svg">
<path fill-rule="evenodd" clip-rule="evenodd" d="M12 3L12.8981 5.76393H15.8042L13.4531 7.47214L14.3511 10.2361L12 8.52786L9.64886 10.2361L10.5469 7.47214L8.19577 5.76393H11.1019L12 3ZM3.69373 9L2.2906 10.3746L2.99217 11.062L2.2906 11.7493C1.90313 12.1289 1.90313 12.7443 2.2906 13.1239L3.69373 14.4985L2.99217 15.1859C2.6047 15.5655 2.6047 16.1809 2.99217 16.5605L4.07881 17.6251L3.38765 18.7979C3.11368 19.2628 3.27627 19.8573 3.75081 20.1257L5.06606 20.8696C5.5406 21.138 6.1474 20.9787 6.42138 20.5138L7.04588 19.4541C7.13159 19.3087 7.18232 19.1058 7.23031 18.9139C7.31886 18.5598 7.39804 18.2431 7.67038 18.3944C7.78161 18.4562 7.90313 18.6225 7.90313 18.6225C8.2906 19.002 8.9188 19.0021 9.30627 18.6225L10.7094 17.2478C11.0969 16.8682 11.0969 16.2528 10.7094 15.8732L3.69373 9ZM5.09687 15.8732L4.3953 15.1859L3.69373 15.8732L4.3953 16.5605L5.09687 15.8732ZM21.7094 10.3746L20.3063 9L13.2906 15.8732C12.9031 16.2528 12.9031 16.8682 13.2906 17.2478L14.6937 18.6225C15.0812 19.002 15.7094 19.002 16.0969 18.6225C16.0969 18.6225 16.2184 18.4562 16.3296 18.3944C16.602 18.2431 16.6811 18.5598 16.7697 18.9139C16.8177 19.1058 16.8684 19.3087 16.9541 19.4541L17.5786 20.5138C17.8526 20.9787 18.4594 21.138 18.9339 20.8696L20.2492 20.1257C20.7237 19.8573 20.8863 19.2628 20.6123 18.7979L19.9212 17.6251L21.0078 16.5605C21.3953 16.1809 21.3953 15.5655 21.0078 15.1859L20.3063 14.4985L21.7094 13.1239C22.0969 12.7443 22.0969 12.1289 21.7094 11.7493L21.0078 11.062L21.7094 10.3746ZM19.6047 15.1859L18.9031 15.8732L19.6047 16.5605L20.3063 15.8732L19.6047 15.1859Z" fill="#3BBBE9"/>
</svg>
