<svg width="24" height="24" viewBox="0 0 24 24" fill="none" xmlns="http://www.w3.org/2000/svg">
    <path fill-rule="evenodd" clip-rule="evenodd" d="M21.8705 13.6114C22.1371 13.1679 21.9789 12.6008 21.5173 12.3448L15.6877 9.11144L17.7001 7.99526C18.1617 7.73922 18.3199 7.17216 18.0534 6.72868L17.6141 5.99775L18.4499 5.53415L17.5281 4.00024L12.0002 7.06623L6.47193 4L5.55007 5.53391L6.38592 5.99751L5.94664 6.72844C5.68012 7.17191 5.83829 7.73898 6.29991 7.99502L8.31279 9.11144L2.48274 12.345C2.02111 12.6011 1.86295 13.1681 2.12947 13.6116L3.00803 15.0735C3.27455 15.517 3.86483 15.6689 4.32646 15.4129L4.33031 15.4107C4.37395 15.3892 4.75659 15.2234 4.95455 15.9125C5.09682 16.4078 5.57105 18.2054 5.86252 19.3148C5.99334 19.8127 6.51735 20.104 7.03208 19.9656L8.87627 19.4694C9.38957 19.3313 9.69873 18.8172 9.5668 18.321L8.68817 15.0166C8.74975 14.997 8.81045 14.9711 8.86944 14.9383L10.6112 13.9723C10.9829 13.7661 11.1682 13.3489 11.066 12.9484L10.8587 12.1368C10.8326 12.0345 10.7903 11.9411 10.7353 11.8582L12.0002 11.1567L13.2647 11.858C13.2097 11.9409 13.1674 12.0342 13.1413 12.1366L12.934 12.9481C12.8318 13.3486 13.0171 13.7659 13.3888 13.972L15.1306 14.9381C15.1896 14.9708 15.2503 14.9968 15.3118 15.0164L14.4332 18.3208C14.3013 18.8169 14.6104 19.3311 15.1237 19.4692L16.9679 19.9653C17.4827 20.1038 18.0067 19.8125 18.1375 19.3146C18.4289 18.2052 18.9032 16.4075 19.0455 15.9123C19.2434 15.2232 19.626 15.389 19.6697 15.4105L19.6735 15.4126C20.1352 15.6687 20.7255 15.5167 20.992 15.0732L21.8705 13.6114ZM13.8714 13.1691L15.5548 14.1027L15.7695 13.2953L14.0786 12.3575L13.8714 13.1691ZM10.1286 13.1693L8.44523 14.103L8.23052 13.2955L9.92135 12.3577L10.1286 13.1693Z" fill="#718792"/>
</svg>
