<svg width="24" height="24" viewBox="0 0 24 24" fill="none" xmlns="http://www.w3.org/2000/svg">
<path d="M12.0416 19.9994C12.1118 19.9994 12.155 20.0007 12.1984 19.9994C12.8514 19.9838 13.5047 19.9758 14.1574 19.9501C14.718 19.9275 15.2792 19.9022 15.8373 19.8469C16.517 19.7789 17.195 19.6914 17.8705 19.5867C18.6033 19.4732 19.3097 19.265 19.9903 18.9582C20.6223 18.6733 21.0455 18.2193 21.2917 17.5715C21.6225 16.7007 21.7907 15.7964 21.8799 14.8765C21.9394 14.2583 21.98 13.6371 21.9937 13.0168C22.0098 12.2717 21.991 11.5256 21.9819 10.7798C21.9714 9.92673 21.8997 9.0781 21.7648 8.23581C21.655 7.5545 21.4899 6.88902 21.2181 6.25097C20.9993 5.7372 20.6445 5.36395 20.1448 5.11244C19.3355 4.70438 18.4719 4.48199 17.5831 4.35877C16.8513 4.25728 16.1158 4.17457 15.3796 4.11718C14.602 4.0562 13.8218 4.00915 13.042 4.00218C11.9668 3.99227 10.8909 4.0178 9.81571 4.04481C9.25914 4.0581 8.70172 4.09122 8.14788 4.14672C7.4762 4.21423 6.80599 4.30285 6.13894 4.40519C5.39326 4.51849 4.67477 4.72927 3.98601 5.04577C3.39908 5.31584 2.98375 5.73129 2.74299 6.33411C2.38185 7.23738 2.20855 8.18179 2.11874 9.14224C2.06161 9.75286 2.01923 10.366 2.00616 10.9785C1.99035 11.7236 2.0089 12.4694 2.01797 13.2153C2.02809 14.0681 2.10061 14.9166 2.23533 15.7595C2.34517 16.4444 2.51087 17.1149 2.78642 17.7544C2.9964 18.2425 3.32444 18.6195 3.80533 18.8497C4.07392 18.9782 4.34568 19.1059 4.62586 19.2063C5.62917 19.5667 6.67907 19.6952 7.73109 19.8043C8.28049 19.861 8.83306 19.9022 9.38479 19.9258C10.2043 19.9615 11.0248 19.9758 11.8449 19.9994C11.8753 20.0005 11.9054 19.9948 11.9469 19.9902C11.9313 19.9524 11.9227 19.9222 11.9075 19.8956C11.6046 19.3713 11.2974 18.8493 10.9995 18.322C10.8201 18.0053 10.5473 17.8692 10.1952 17.853C9.80559 17.8353 9.41557 17.8201 9.02765 17.7827C8.22294 17.7298 7.61113 17.6812 6.74021 17.5392C6.26839 17.482 5.81659 17.3487 5.3922 17.1217C5.01926 16.9229 4.761 16.6376 4.6111 16.241C4.39606 15.6711 4.26957 15.0788 4.21876 14.4768C4.15361 13.7031 4.11187 12.9262 4.09817 12.1506C4.08215 11.2307 4.11503 10.3099 4.23267 9.39481C4.30541 8.82913 4.4123 8.27231 4.61785 7.73786C5.00872 6.89873 5.76705 6.67634 6.07021 6.60439C6.62489 6.47252 7.19243 6.38559 7.75891 6.31427C8.28724 6.24823 8.8202 6.21595 9.35232 6.18662C10.0719 6.14695 10.7918 6.11404 11.5122 6.09737C12.014 6.08534 12.5166 6.09526 13.0181 6.1153C13.8094 6.14611 14.6016 6.17565 15.3907 6.23895C16.0911 6.29528 16.7893 6.38685 17.4861 6.48054C18.816 6.64743 19.2465 7.21628 19.3989 7.62645C19.5117 7.93556 19.615 8.251 19.6892 8.57087C19.8579 9.30007 19.8944 10.0461 19.9005 10.7901C19.9104 11.9858 19.9424 13.1824 19.8396 14.377C19.7925 14.9174 19.7012 15.447 19.5541 15.9707C19.3863 16.5672 19.0401 16.9866 18.4639 17.2301C18.0929 17.3867 17.7109 17.4873 17.317 17.5397C16.6274 17.6584 15.2761 17.8017 13.8734 17.8511C13.4649 17.8694 13.1602 18.0237 12.958 18.3914C12.6852 18.8871 12.3945 19.373 12.112 19.8633C12.0907 19.8979 12.073 19.9368 12.0416 19.9994Z" fill="#010E28"/>
</svg>
