<svg width="14" height="12" viewBox="0 0 14 12" fill="none" xmlns="http://www.w3.org/2000/svg">
<path d="M6.53126 5.27979H6.53122L1.46875 5.2807C1.46874 5.2807 1.46872 5.2807 1.46871 5.2807C1.07178 5.28072 0.75 5.60247 0.75 5.99942C0.75 6.39638 1.0718 6.71814 1.46875 6.71814H6.28126V6.71979H6.53126H6.53127H6.53128H6.5313H6.53132H6.53135H6.53138H6.53141H6.53145H6.5315H6.53155H6.5316H6.53166H6.53173H6.5318H6.53187H6.53195H6.53203H6.53212H6.53221H6.53231H6.53241H6.53252H6.53263H6.53274H6.53286H6.53299H6.53312H6.53325H6.53339H6.53353H6.53368H6.53383H6.53399H6.53415H6.53432H6.53449H6.53466H6.53484H6.53503H6.53521H6.53541H6.53561H6.53581H6.53601H6.53623H6.53644H6.53666H6.53689H6.53711H6.53735H6.53759H6.53783H6.53807H6.53833H6.53858H6.53884H6.53911H6.53937H6.53965H6.53993H6.54021H6.54049H6.54078H6.54108H6.54138H6.54168H6.54199H6.5423H6.54262H6.54294H6.54326H6.54359H6.54393H6.54426H6.54461H6.54495H6.5453H6.54566H6.54602H6.54638H6.54675H6.54712H6.5475H6.54788H6.54826H6.54865H6.54904H6.54944H6.54984H6.55025H6.55065H6.55107H6.55149H6.55191H6.55233H6.55276H6.5532H6.55364H6.55408H6.55453H6.55498H6.55543H6.55589H6.55635H6.55682H6.55729H6.55776H6.55824H6.55873H6.55921H6.5597H6.5602H6.5607H6.5612H6.56171H6.56222H6.56273H6.56325H6.56377H6.5643H6.56483H6.56537H6.5659H6.56645H6.56699H6.56754H6.5681H6.56865H6.56922H6.56978H6.57035H6.57092H6.5715H6.57208H6.57267H6.57326H6.57385H6.57444H6.57505H6.57565H6.57626H6.57687H6.57748H6.5781H6.57872H6.57935H6.57998H6.58062H6.58125H6.58189H6.58254H6.58319H6.58384H6.5845H6.58516H6.58582H6.58649H6.58716H6.58783H6.58851H6.5892H6.58988H6.59057H6.59126H6.59196H6.59266H6.59336H6.59407H6.59478H6.5955H6.59621H6.59694H6.59766H6.59839H6.59912H6.59986H6.6006H6.60134H6.60209H6.60284H6.60359H6.60435H6.60511H6.60587H6.60664H6.60741H6.60818H6.60896H6.60974H6.61053H6.61131H6.61211H6.6129H6.6137H6.6145H6.6153H6.61611H6.61693H6.61774H6.61856H6.61938H6.62021H6.62104H6.62187H6.6227H6.62354H6.62438H6.62523H6.62608H6.62693H6.62778H6.62864H6.6295H6.63037H6.63124H6.63211H6.63298H6.63386H6.63474H6.63563H6.63651H6.6374H6.6383H6.6392H6.6401H6.641H6.64191H6.64282H6.64373H6.64464H6.64556H6.64649H6.64741H6.64834H6.64927H6.65021H6.65115H6.65209H6.65303H6.65398H6.65493H6.65588H6.65684H6.6578H6.65876H6.65973H6.66069H6.66167H6.66264H6.66362H6.6646H6.66558H6.66657H6.66756H6.66855H6.66955H6.67055H6.67155H6.67255H6.67356H6.67457H6.67558H6.6766H6.67762H6.67864H6.67966H6.68069H6.68172H6.68276H6.68379H6.68483H6.68587H6.68692H6.68797H6.68902H6.69007H6.69113H6.69218H6.69325H6.69431H6.69538H6.69645H6.69752H6.6986H6.69967H6.70076H6.70184H6.70293H6.70402H6.70511H6.7062H6.7073H6.7084H6.7095H6.71061H6.71172H6.71283H6.71394H6.71506H6.71618H6.7173H6.71842H6.71955H6.72068H6.72181H6.72294H6.72408H6.72522H6.72636H6.72751H6.72865H6.7298H6.73096H6.73211H6.73327H6.73443H6.73559H6.73676H6.73793H6.7391H6.74027H6.74144H6.74262H6.7438H6.74498H6.74617H6.74736H6.74855H6.74974H6.75093H6.75213H6.75333H6.75453H6.75574H6.75694H6.75815H6.75936H6.76058H6.7618H6.76301H6.76424H6.76546H6.76668H6.76791H6.76914H6.77038H6.77161H6.77285H6.77409H6.77533H6.77657H6.77782H6.77907H6.78032H6.78157H6.78283H6.78409H6.78535H6.78661H6.78787H6.78914H6.79041H6.79168H6.79295H6.79423H6.79551H6.79679H6.79807H6.79935H6.80064H6.80193H6.80322H6.80451H6.8058H6.8071H6.8084H6.8097H6.811H6.81231H6.81362H6.81492H6.81624H6.81755H6.81886H6.82018H6.8215H6.82282H6.82415H6.82547H6.8268H6.82813H6.82946H6.83079H6.83213H6.83347H6.83481H6.83615H6.83749H6.83884H6.84018H6.84153H6.84288H6.84424H6.84559H6.84695H6.84831H6.84967H6.85103H6.85239H6.85376H6.85513H6.8565H6.85787H6.85924H6.86062H6.86199H6.86337H6.86475H6.86614H6.86752H6.86891H6.87029H6.87168H6.87307H6.87447H6.87586H6.87726H6.87866H6.88006H6.88146H6.88286H6.88427H6.88567H6.88708H6.88849H6.8899H6.89132H6.89273H6.89415H6.89557H6.89699H6.89841H6.89983H6.90126H6.90268H6.90411H6.90554H6.90697H6.9084H6.90984H6.91127H6.91271H6.91415H6.91559H6.91703H6.91848H6.91992H6.92137H6.92282H6.92427H6.92572H6.92717H6.92862H6.93008H6.93154H6.93299H6.93445H6.93592H6.93738H6.93884H6.94031H6.94178H6.94324H6.94471H6.94618H6.94766H6.94913H6.95061H6.95208H6.95356H6.95504H6.95652H6.958H6.95949H6.96097H6.96246H6.96394H6.96543H6.96692H6.96841H6.96991H6.9714H6.9729H6.97439H6.97589H6.97739H6.97889H6.98039H6.98189H6.98339H6.9849H6.98641H6.98791H6.98942H6.99093H6.99244H6.99395H6.99547H6.99698H6.9985H7.00001H7.00153H7.00304H7.00456H7.00607H7.00758H7.00909H7.0106H7.01211H7.01362H7.01512H7.01663H7.01813H7.01963H7.02114H7.02264H7.02413H7.02563H7.02713H7.02862H7.03012H7.03161H7.0331H7.03459H7.03608H7.03757H7.03905H7.04054H7.04202H7.0435H7.04498H7.04646H7.04794H7.04942H7.05089H7.05237H7.05384H7.05531H7.05678H7.05825H7.05971H7.06118H7.06264H7.06411H7.06557H7.06703H7.06849H7.06994H7.0714H7.07285H7.07431H7.07576H7.07721H7.07865H7.0801H7.08155H7.08299H7.08443H7.08587H7.08731H7.08875H7.09018H7.09162H7.09305H7.09448H7.09591H7.09734H7.09877H7.10019H7.10161H7.10304H7.10446H7.10588H7.10729H7.10871H7.11012H7.11153H7.11294H7.11435H7.11576H7.11716H7.11857H7.11997H7.12137H7.12277H7.12416H7.12556H7.12695H7.12834H7.12973H7.13112H7.1325H7.13389H7.13527H7.13665H7.13803H7.13941H7.14078H7.14215H7.14353H7.1449H7.14626H7.14763H7.14899H7.15036H7.15172H7.15308H7.15443H7.15579H7.15714H7.15849H7.15984H7.16119H7.16253H7.16388H7.16522H7.16656H7.16789H7.16923H7.17056H7.17189H7.17322H7.17455H7.17588H7.1772H7.17852H7.17984H7.18116H7.18247H7.18379H7.1851H7.18641H7.18771H7.18902H7.19032H7.19162H7.19292H7.19422H7.19551H7.19681H7.1981H7.19939H7.20067H7.20196H7.20324H7.20452H7.20579H7.20707H7.20834H7.20961H7.21088H7.21215H7.21341H7.21468H7.21594H7.21719H7.21845H7.2197H7.22095H7.2222H7.22345H7.22469H7.22594H7.22717H7.22841H7.22965H7.23088H7.23211H7.23334H7.23456H7.23579H7.23701H7.23823H7.23944H7.24066H7.24187H7.24308H7.24429H7.24549H7.24669H7.24789H7.24909H7.25028H7.25148H7.25267H7.25385H7.25504H7.25622H7.2574H7.25858H7.25975H7.26093H7.2621H7.26327H7.26443H7.26559H7.26675H7.26791H7.26907H7.27022H7.27137H7.27252H7.27366H7.2748H7.27594H7.27708H7.27821H7.27935H7.28048H7.2816H7.28273H7.28385H7.28497H7.28608H7.2872H7.28831H7.28942H7.29052H7.29162H7.29272H7.29382H7.29492H7.29601H7.2971H7.29818H7.29927H7.30035H7.30143H7.3025H7.30358H7.30465H7.30571H7.30678H7.30784H7.3089H7.30995H7.31101H7.31206H7.31311H7.31415H7.31519H7.31623H7.31727H7.3183H7.31933H7.32036H7.32138H7.32241H7.32342H7.32444H7.32545H7.32646H7.32747H7.32848H7.32948H7.33048H7.33147H7.33246H7.33345H7.33444H7.33542H7.3364H7.33738H7.33836H7.33933H7.3403H7.34126H7.34223H7.34318H7.34414H7.34509H7.34604H7.34699H7.34794H7.34888H7.34982H7.35075H7.35168H7.35261H7.35354H7.35446H7.35538H7.35629H7.35721H7.35812H7.35902H7.35993H7.36083H7.36172H7.36262H7.36351H7.3644H7.36528H7.36616H7.36704H7.36792H7.36879H7.36965H7.37052H7.37138H7.37224H7.37309H7.37395H7.37479H7.37564H7.37648H7.37732H7.37816H7.37899H7.37982H7.38064H7.38146H7.38228H7.3831H7.38391H7.38472H7.38552H7.38632H7.38712H7.38792H7.38871H7.3895H7.39028H7.39106H7.39184H7.39261H7.39339H7.39415H7.39492H7.39568H7.39643H7.39719H7.39794H7.39868H7.39943H7.40017H7.4009H7.40163H7.40236H7.40309H7.40381H7.40453H7.40524H7.40595H7.40666H7.40736H7.40806H7.40876H7.40945H7.41014H7.41083H7.41151H7.41219H7.41286H7.41353H7.4142H7.41487H7.41552H7.41618H7.41683H7.41748H7.41813H7.41877H7.41941H7.42004H7.42067H7.4213H7.42192H7.42254H7.42315H7.42377H7.42437H7.42498H7.42558H7.42617H7.42677H7.42736H7.42794H7.42852H7.4291H7.42967H7.43024H7.43081H7.43137H7.43193H7.43248H7.43303H7.43358H7.43412H7.43466H7.43519H7.43572H7.43625H7.43677H7.43729H7.43781H7.43832H7.43882H7.43933H7.43982H7.44032H7.44081H7.4413H7.44178H7.44226H7.44273H7.4432H7.44367H7.44413H7.44459H7.44505H7.4455H7.44594H7.44639H7.44682H7.44726H7.44769H7.44811H7.44854H7.44895H7.44937H7.44978H7.45018H7.45058H7.45098H7.45137H7.45176H7.45215H7.45253H7.4529H7.45327H7.45364H7.45401H7.45436H7.45472H7.45507H7.45542H7.45576H7.4561H7.45643H7.45676H7.45708H7.45741H7.45772H7.45803H7.45834H7.45865H7.45894H7.45924H7.45953H7.45982H7.4601H7.46038H7.46065H7.46092H7.46118H7.46144H7.4617H7.46195H7.46219H7.46244H7.46267H7.46291H7.46314H7.46336H7.46358H7.4638H7.46401H7.46421H7.46442H7.46461H7.46481H7.465H7.46518H7.46536H7.46554H7.46571H7.46587H7.46603H7.46619H7.46634H7.46649H7.46663H7.46677H7.46691H7.46704H7.46716H7.46728H7.4674H7.46751H7.46761H7.46771H7.46781H7.4679H7.46799H7.46807H7.46815H7.46823H7.4683H7.46836H7.46842H7.46847H7.46852H7.46857H7.46861H7.46865H7.46868H7.4687H7.46872H7.46874H7.46875H7.46876H7.71876V6.71814H12.5313C12.9282 6.71814 13.25 6.39638 13.25 5.99942C13.25 5.60246 12.9282 5.2807 12.5313 5.2807H7.4693L7.46922 5.2807L7.46739 5.28069L7.46024 5.28066L7.43283 5.28056L7.33214 5.28024C7.24715 5.28001 7.12973 5.27979 7 5.27979L6.66855 5.27979L6.56809 5.27979L6.54078 5.27979H6.53368H6.53187H6.53141H6.5313H6.53127H6.53126Z" fill="#718792" stroke="#718792" stroke-width="0.5"/>
</svg>
