<svg width="24" height="24" viewBox="0 0 24 24" fill="none" xmlns="http://www.w3.org/2000/svg">
<path fill-rule="evenodd" clip-rule="evenodd" d="M20 12C20 16.4183 16.4183 20 12 20C7.58172 20 4 16.4183 4 12C4 7.58172 7.58172 4 12 4C16.4183 4 20 7.58172 20 12ZM22 12C22 17.5228 17.5228 22 12 22C6.47715 22 2 17.5228 2 12C2 6.47715 6.47715 2 12 2C17.5228 2 22 6.47715 22 12ZM13.1136 13.4069C13.307 13.6088 13.4038 13.8822 13.4038 14.2271C13.4038 14.5594 13.2965 14.8244 13.082 15.0221C12.8675 15.2156 12.5752 15.3123 12.205 15.3123C11.7592 15.3123 11.4164 15.1798 11.1767 14.9148C10.9411 14.6456 10.8233 14.2608 10.8233 13.7603H9C9 14.6225 9.23554 15.3144 9.70662 15.836C10.1819 16.3533 10.8507 16.6583 11.7129 16.7508V18H12.7161V16.7445C13.4984 16.6646 14.1125 16.4017 14.5584 15.9558C15.0042 15.51 15.2271 14.9295 15.2271 14.2145C15.2271 13.8318 15.1682 13.4974 15.0505 13.2114C14.9327 12.9211 14.7624 12.6646 14.5394 12.4416C14.3165 12.2145 14.0431 12.0126 13.7192 11.836C13.3954 11.6551 12.9811 11.4637 12.4763 11.2618C11.9758 11.0599 11.633 10.8623 11.4479 10.6688C11.2629 10.4753 11.1703 10.2187 11.1703 9.89905C11.1703 9.55415 11.265 9.28496 11.4543 9.09148C11.6435 8.8938 11.9106 8.79495 12.2555 8.79495C12.6046 8.79495 12.8822 8.92114 13.0883 9.1735C13.2986 9.42166 13.4038 9.79811 13.4038 10.3028H15.2271C15.2271 9.48265 15.0168 8.81598 14.5962 8.30284C14.1756 7.78549 13.5931 7.47424 12.8486 7.36909V6H11.8391V7.35016C11.0862 7.42587 10.4826 7.69085 10.0284 8.14511C9.57413 8.59937 9.347 9.18191 9.347 9.89274C9.347 10.3049 9.4122 10.6604 9.54259 10.959C9.67718 11.2576 9.86225 11.5184 10.0978 11.7413C10.3375 11.96 10.6236 12.1556 10.9558 12.3281C11.2881 12.4963 11.6835 12.6667 12.142 12.8391C12.6004 13.0116 12.9243 13.2008 13.1136 13.4069Z" fill="#919CB3"/>
</svg>
