<svg width="24" height="24" viewBox="0 0 24 24" fill="none" xmlns="http://www.w3.org/2000/svg">
<path d="M18.4586 3H4.54138C4.2424 3 4 3.23611 4 3.52734V20.4726C4 20.6554 4.09716 20.8252 4.25676 20.9212C4.4164 21.0173 4.6157 21.0261 4.78352 20.9443L11.5 17.6731L18.2165 20.9443C18.2928 20.9815 18.3757 21 18.4586 21C18.5575 21 18.6563 20.9735 18.7433 20.9212C18.9028 20.8252 19 20.6554 19 20.4726V3.52734C18.9999 3.23611 18.7575 3 18.4586 3ZM15.3572 9.75643L13.8214 11.2146L14.1789 13.2449C14.1878 13.2828 14.1925 13.3222 14.1925 13.3628C14.1925 13.6536 13.9507 13.8895 13.6521 13.8901C13.6515 13.8901 13.651 13.8901 13.6503 13.8901C13.5641 13.8901 13.4777 13.8701 13.3985 13.8295L11.5 12.8575L9.60151 13.8295C9.52233 13.8701 9.43581 13.8901 9.34966 13.8901C9.23741 13.8901 9.12571 13.8561 9.03136 13.7894C8.86469 13.6714 8.78117 13.4714 8.81604 13.2736L9.1787 11.2146L7.64275 9.75646C7.49517 9.61637 7.44204 9.40677 7.50575 9.21587C7.56945 9.02493 7.73887 8.88578 7.94278 8.85696L10.0653 8.55652L11.0144 6.68307C11.1056 6.50307 11.2938 6.38909 11.4999 6.38909C11.706 6.38909 11.8942 6.50303 11.9854 6.68303L12.9346 8.55652L15.0571 8.85696C15.261 8.88578 15.4304 9.02493 15.4941 9.21583C15.5579 9.40672 15.5048 9.6163 15.3572 9.75643Z" fill="#010E28"/>
</svg>
