<svg width="24" height="24" viewBox="0 0 24 24" fill="none" xmlns="http://www.w3.org/2000/svg">
<path fill-rule="evenodd" clip-rule="evenodd" d="M12 3C11.4477 3 11 3.39797 11 3.88889V5.07443C7.6077 5.58392 5 8.64718 5 12.35V16C4.44772 16 4 16.4477 4 17C4 17.5523 4.44772 18 5 18H19C19.5523 18 20 17.5523 20 17C20 16.4477 19.5523 16 19 16H18.9999L18.9999 15.1374V15.1143V15.1064C18.9999 14.1766 18.9999 13.0232 19 12.35C19 8.64718 16.3923 5.58392 13 5.07443L13 3.88889C13 3.39797 12.5523 3 12 3ZM15 19C15 20.6569 13.6569 22 12 22C10.3431 22 9 20.6569 9 19L12 19L15 19Z" fill="#3BBBE9"/>
</svg>
