<svg width="24" height="24" viewBox="0 0 24 24" fill="none" xmlns="http://www.w3.org/2000/svg">
<path d="M15 19C15 20.6569 13.6569 22 12 22C10.3431 22 9 20.6569 9 19C12 19 10.3431 19 12 19C13.6569 19 12 19 15 19Z" fill="#919CB3"/>
<path fill-rule="evenodd" clip-rule="evenodd" d="M12 3C11.4477 3 11 3.44772 11 4V5.07089C7.60771 5.55612 5 8.47353 5 12V16C4.44772 16 4 16.4477 4 17C4 17.5523 4.44772 18 5 18H19C19.5523 18 20 17.5523 20 17C20 16.4477 19.5523 16 19 16V12C19 8.47353 16.3923 5.55612 13 5.07089V4C13 3.44772 12.5523 3 12 3ZM12 7C9.23858 7 7 9.23858 7 12V16H17V12C17 9.23858 14.7614 7 12 7Z" fill="#919CB3"/>
</svg>
