<svg width="32" height="32" viewBox="0 0 32 32" fill="none" xmlns="http://www.w3.org/2000/svg">
<path fill-rule="evenodd" clip-rule="evenodd" d="M24.5028 6.66674L29.3341 15.0347L25.1309 17.4615L27.5613 18.8647C28.0396 19.1408 28.2034 19.7524 27.9273 20.2307L27.7195 20.5906C27.4433 21.0689 26.8317 21.2328 26.3535 20.9567L22.7152 18.8561L22.7148 18.8564L25.3073 20.3532C25.7856 20.6293 25.9495 21.2409 25.6734 21.7192L25.4655 22.0792C25.1894 22.5575 24.5778 22.7213 24.0995 22.4452L23.0848 21.8593C23.5389 22.1436 23.6896 22.7388 23.4196 23.2066L23.2118 23.5665C22.9356 24.0448 22.324 24.2087 21.8457 23.9326L15.3282 20.1697L15.328 20.17L20.7998 23.3291C21.2781 23.6052 21.4419 24.2168 21.1658 24.6951L20.958 25.0551C20.6818 25.5334 20.0702 25.6972 19.5919 25.4211L19.4119 25.3171C20.0783 24.1619 19.6823 22.685 18.5272 22.0181C17.9024 21.6573 17.1834 21.6075 16.5493 21.8205C16.4167 21.1649 16.014 20.5671 15.3892 20.2064C14.7645 19.8457 14.0457 19.7958 13.4118 20.0086C13.2791 19.353 12.8765 18.7554 12.2517 18.3947C11.127 17.7453 9.69708 18.1032 9.00664 19.1885L8.78254 19.0591L7.8389 15.7385L6.85087 17.4499L2.66687 15.0342L7.49813 6.66624L11.6821 9.08188L10.2663 11.5342L13.6138 10.6911L14.4767 11.1893L12.6254 14.3959C12.0731 15.3525 12.4009 16.5757 13.3574 17.1279L15.1233 18.1475C16.0799 18.6998 17.3031 18.372 17.8554 17.4154L18.4463 16.392L20.3581 17.4958L20.3576 17.495L18.4465 16.3916L21.3554 11.3533C21.8611 10.4773 21.6289 9.3779 20.8518 8.77468L24.5028 6.66674ZM12.0894 21.0896C11.7559 21.6673 11.0172 21.8652 10.4395 21.5317C9.86184 21.1982 9.66391 20.4595 9.99744 19.8818C10.331 19.3041 11.0697 19.1062 11.6473 19.4397C12.225 19.7732 12.423 20.5119 12.0894 21.0896ZM13.5776 23.3434C14.1553 23.6769 14.894 23.479 15.2275 22.9013C15.561 22.3236 15.3631 21.585 14.7854 21.2514C14.2077 20.9179 13.469 21.1158 13.1355 21.6935C12.802 22.2712 12.9999 23.0099 13.5776 23.3434ZM18.3656 24.7131C18.032 25.2907 17.2933 25.4887 16.7157 25.1551C16.138 24.8216 15.94 24.0829 16.2736 23.5052C16.6071 22.9275 17.3458 22.7296 17.9235 23.0631C18.5012 23.3967 18.6991 24.1354 18.3656 24.7131ZM14.1807 14.1172C13.68 14.9845 13.9771 16.0935 14.8444 16.5942C15.7117 17.095 16.8208 16.7978 17.3215 15.9305L19.8015 11.635C20.3022 10.7677 20.0051 9.65868 19.1378 9.15794C18.2705 8.6572 17.1614 8.95436 16.6607 9.82167L14.1807 14.1172Z" fill="#3BBBE9"/>
</svg>
