<svg width="24" height="24" viewBox="0 0 24 24" fill="none" xmlns="http://www.w3.org/2000/svg">
<path fill-rule="evenodd" clip-rule="evenodd" d="M20.63 15.4127V6.16565C20.63 5.88257 20.596 5.67303 20.4267 5.5034L16.1262 1.20326C15.9973 1.07428 15.8184 1 15.6355 1H4.91022C4.47192 1 4 1.33851 4 2.08132V15.4127H20.63ZM15.4562 2.25316C15.4562 2.08391 15.6606 1.99928 15.7803 2.11901L19.511 5.84968C19.6307 5.96941 19.5461 6.17378 19.3768 6.17378H15.4562V2.25316ZM8.40954 12.7352C8.4768 12.1336 9.22071 11.5039 10.6213 10.8623C11.1771 9.64427 11.706 8.14351 12.0212 6.88961C11.6524 6.08693 11.2939 5.04552 11.5552 4.43465C11.6468 4.22068 11.761 4.05659 11.9743 3.98564C12.0585 3.95755 12.2714 3.92208 12.3497 3.92208C12.5173 3.92208 12.6666 4.11616 12.7794 4.26275L12.7794 4.26284C12.792 4.27918 12.8041 4.29492 12.8157 4.30974L12.8182 4.31286C12.9284 4.45316 13.1683 4.75865 12.6779 6.82346C13.1761 7.8523 13.8819 8.90036 14.5582 9.61804C15.0427 9.53045 15.4595 9.48573 15.7992 9.48573C16.3779 9.48573 16.7286 9.62062 16.8716 9.89853C16.9899 10.1284 16.9415 10.3971 16.7275 10.6968C16.5217 10.9847 16.2378 11.1369 15.9071 11.1369C15.4577 11.1369 14.9344 10.8531 14.3509 10.2925C13.3025 10.5116 12.0777 10.9026 11.0884 11.3354C10.7795 11.991 10.4835 12.519 10.2078 12.9063C9.82974 13.4378 9.50305 13.685 9.17969 13.685C9.05109 13.685 8.92765 13.6432 8.82233 13.5645C8.43688 13.2752 8.38515 12.954 8.40954 12.7352ZM16.3057 10.1828C16.2972 10.2094 16.2758 10.2589 16.2207 10.3362C16.1069 10.4954 15.86 10.4991 15.7739 10.4988C15.627 10.4988 15.5488 10.4336 15.3936 10.3044L15.3935 10.3044C15.3406 10.2603 15.2788 10.2088 15.2022 10.1499C15.4505 10.1181 15.6848 10.11 15.8715 10.11C16.1747 10.11 16.2494 10.1516 16.2948 10.1768L16.3057 10.1828ZM10.1627 11.7897C9.56363 12.8954 9.24211 13.0421 9.18705 13.0595C9.01409 12.9272 9.02407 12.8377 9.02814 12.8037C9.05105 12.5983 9.37256 12.2335 10.1627 11.7897ZM9.22085 17.7662C9.31508 17.815 9.38825 17.8756 9.44073 17.948C9.49284 18.0208 9.52721 18.0966 9.54421 18.1756C9.56084 18.2544 9.56934 18.3246 9.56934 18.3852C9.56934 18.5367 9.55086 18.6638 9.5139 18.7666C9.47695 18.8693 9.42817 18.9491 9.36756 19.0064C9.30695 19.0637 9.24043 19.1051 9.168 19.1302C9.0952 19.1557 9.02202 19.1683 8.94811 19.1683H8.3923V17.693H8.84686C9.0017 17.693 9.12661 17.7174 9.22085 17.7662ZM12.4416 7.71356C12.177 8.62784 11.8285 9.61492 11.4534 10.5089C12.2258 10.2092 13.0654 9.94752 13.8541 9.76238C13.3552 9.18291 12.8566 8.45932 12.4416 7.71356ZM4 21.6948V16.1515H20.63V21.6948C20.63 22.0677 20.1791 22.4339 19.7198 22.4339H4.91022C4.45086 22.4339 4 22.0677 4 21.6948ZM9.79131 19.2835C9.90587 19.1792 9.9953 19.0503 10.0592 18.8969C10.1232 18.7435 10.1553 18.5728 10.1549 18.384C10.1549 18.2051 10.1169 18.0443 10.0411 17.9013C9.96537 17.7583 9.86596 17.636 9.74289 17.5351C9.61983 17.4342 9.48088 17.3584 9.32604 17.3078C9.17119 17.2572 9.0145 17.2321 8.85633 17.2321H7.78536V20.9557H8.3918V19.6116H8.84155C9.03667 19.6116 9.21554 19.5832 9.37703 19.5259C9.53853 19.4686 9.67674 19.3877 9.79131 19.2835ZM13.5253 20.3219C13.6266 20.1752 13.7097 19.9934 13.7755 19.7761C13.8413 19.5588 13.8742 19.2968 13.8738 18.99C13.8738 18.7676 13.835 18.551 13.7577 18.3407C13.6801 18.1304 13.5634 17.9423 13.4067 17.7775C13.25 17.6127 13.0526 17.48 12.8154 17.381C12.5781 17.2819 12.3028 17.2321 11.9894 17.2321H10.8678V20.9557H12.2773C12.3246 20.9557 12.397 20.9498 12.4946 20.9387C12.5922 20.9269 12.7001 20.8999 12.818 20.8578C12.9359 20.8153 13.0578 20.7524 13.1842 20.6682C13.3106 20.5839 13.424 20.4686 13.5253 20.3219ZM15.3694 17.6918H17.0823V17.2321H14.753V20.9557H15.3694V19.2783H16.9256V18.864H15.3694V17.6918ZM12.9679 18.1051C12.8618 17.982 12.7177 17.8826 12.5358 17.8068C12.354 17.7311 12.1182 17.693 11.8285 17.693H11.4748V20.5123H12.0761C12.4871 20.5123 12.7834 20.3812 12.9653 20.1184C13.1471 19.8556 13.238 19.475 13.238 18.9765C13.238 18.8216 13.2195 18.6683 13.1826 18.5167C13.1452 18.3652 13.0739 18.2281 12.9679 18.1051ZM12.2173 4.58899C12.1811 4.60119 11.7258 5.2383 12.2528 5.77748C12.6035 4.99587 12.2332 4.58382 12.2173 4.58899Z" fill="#3BBBE9"/>
</svg>
