<svg width="24" height="24" viewBox="0 0 24 24" fill="none" xmlns="http://www.w3.org/2000/svg">
<path fill-rule="evenodd" clip-rule="evenodd" d="M8.99994 7.375C8.41513 8.88234 7 11 7 11V13V16V19V21L9 22H17.5C18.3284 22 19 21.3284 19 20.5C19 19.6716 18.3284 19 17.5 19H18.5C19.3284 19 20 18.3284 20 17.5C20 16.6716 19.3284 16 18.5 16H19.5C20.3284 16 21 15.3284 21 14.5C21 13.6716 20.3284 13 19.5 13H20.5C21.3284 13 22 12.3284 22 11.5C22 10.6716 21.3284 10 20.5 10H11.9998C11.9998 10 12.7576 8.43459 12.9998 7.375C13.2245 6.39173 13.1855 4.71121 13.1149 3.49055C13.0658 2.64209 12.354 2 11.5041 2C10.6507 2 9.93604 2.64725 9.82081 3.49286C9.6533 4.72201 9.37301 6.4134 8.99994 7.375ZM3 10C2.44772 10 2 10.4477 2 11V21C2 21.5523 2.44772 22 3 22H6V10H3Z" fill="#919CB3"/>
</svg>
