<svg width="24" height="24" viewBox="0 0 24 24" fill="none" xmlns="http://www.w3.org/2000/svg">
<path d="M18.4382 9.49172V10.9734H17.3438V4.42298H14.8029V2.94127H9.24112V4.42298H8.03906V1.48172H5.56177V0H0V4.36969H5.56177V2.88797H6.63281V7.3643H5.56177V5.88253H0V10.2522H5.56177V8.77055H8.03906V5.82923H9.24112V7.31095H14.8029V5.82923H15.9375V18.1708H14.8029V16.689H9.24112V18.1708H8.03906V15.2295H5.56177V13.7478H0V18.1175H5.56177V16.6357H6.63281V21.112H5.56177V19.6303H0V24H5.56177V22.5183H8.03906V19.577H9.24112V21.0587H14.8029V19.577H17.3438V12.3797H18.4382V13.8614H24V9.49172H18.4382Z" fill="#718792"/>
</svg>
