<svg width="18" height="18" viewBox="0 0 18 18" fill="none" xmlns="http://www.w3.org/2000/svg">
<path d="M16.375 8.12455H9.87502V1.62496C9.87502 1.14171 9.48326 0.75 9.00002 0.75C8.51677 0.75 8.12501 1.14171 8.12501 1.62496V8.12455H1.625C1.14176 8.12455 0.75 8.51626 0.75 8.99952C0.75 9.48277 1.14176 9.87448 1.625 9.87448H8.12501V16.3741C8.12501 16.8573 8.51677 17.249 9.00002 17.249C9.48326 17.249 9.87502 16.8573 9.87502 16.3741V9.87448H16.375C16.8583 9.87448 17.25 9.48277 17.25 8.99952C17.25 8.51626 16.8583 8.12455 16.375 8.12455Z" fill="#718792" stroke="#718792" stroke-width="0.5"/>
</svg>
