<svg width="24" height="24" viewBox="0 0 24 24" fill="none" xmlns="http://www.w3.org/2000/svg">
<path d="M18.963 6.38595H13.8C13.5632 6.38595 13.3712 6.19395 13.3712 5.95713C13.3712 5.72032 13.5632 5.52832 13.8 5.52832H18.963C19.1998 5.52832 19.3918 5.72032 19.3918 5.95713C19.3918 6.19395 19.1998 6.38595 18.963 6.38595Z" fill="#3BBBE9"/>
<path d="M18.9631 8.27266H13.8C13.5632 8.27266 13.3712 8.08067 13.3712 7.84385C13.3712 7.60704 13.5632 7.41504 13.8 7.41504H18.9631C19.2 7.41504 19.392 7.60704 19.392 7.84385C19.392 8.08067 19.2 8.27266 18.9631 8.27266Z" fill="#3BBBE9"/>
<path d="M18.9631 10.1594H13.8C13.5632 10.1594 13.3712 9.96738 13.3712 9.73057C13.3712 9.49376 13.5632 9.30176 13.8 9.30176H18.9631C19.1999 9.30176 19.3919 9.49376 19.3919 9.73057C19.3919 9.96738 19.1999 10.1594 18.9631 10.1594Z" fill="#3BBBE9"/>
<path d="M20.4 13.1996H13.4582C13.3869 13.1996 13.3291 13.1107 13.3291 13.0011L13.5873 8.79477V4.52465C13.5873 4.01458 13.599 3.59961 13.9306 3.59961H19.9275C20.2593 3.59961 20.5291 4.01468 20.5291 4.52465V13.0011C20.5291 13.1107 20.4713 13.1996 20.4 13.1996ZM13.5873 12.8025H20.2709V4.52465C20.2709 4.23348 20.1168 3.99671 19.9275 3.99671H13.9306C13.7413 3.99671 13.5873 4.23358 13.5873 4.52465V12.8025Z" fill="#3BBBE9"/>
<path d="M11.9213 3.87032H5.06016C4.82335 3.87032 4.63135 3.67832 4.63135 3.44151C4.63135 3.2047 4.82335 3.0127 5.06016 3.0127H11.9213C12.1582 3.0127 12.3502 3.2047 12.3502 3.44151C12.3501 3.67832 12.1582 3.87032 11.9213 3.87032Z" fill="#6BDDDD"/>
<path d="M11.9213 5.75704H5.06016C4.82335 5.75704 4.63135 5.56504 4.63135 5.32823C4.63135 5.09141 4.82335 4.89941 5.06016 4.89941H11.9213C12.1582 4.89941 12.3502 5.09141 12.3502 5.32823C12.3501 5.56504 12.1582 5.75704 11.9213 5.75704Z" fill="#6BDDDD"/>
<path d="M11.9213 7.64473H5.06016C4.82335 7.64473 4.63135 7.45274 4.63135 7.21592C4.63135 6.97911 4.82335 6.78711 5.06016 6.78711H11.9213C12.1582 6.78711 12.3502 6.97911 12.3502 7.21592C12.3501 7.45274 12.1582 7.64473 11.9213 7.64473Z" fill="#6BDDDD"/>
<path d="M13.5469 11.625H3.4687C3.36523 11.625 3.28125 11.529 3.28125 11.4107V2.26384C3.28125 1.71342 3.67312 1.26562 4.15459 1.26562H12.861C13.3426 1.26562 13.7344 1.71353 13.7344 2.26384V11.4107C13.7344 11.529 13.6505 11.625 13.5469 11.625ZM3.65615 11.1965H13.3595V2.26384C13.3595 1.94964 13.1358 1.69414 12.861 1.69414H4.15459C3.87969 1.69414 3.65615 1.94974 3.65615 2.26384V11.1965Z" fill="#3BBBE9"/>
<path d="M11.9213 3.87032H5.06016C4.82335 3.87032 4.63135 3.67832 4.63135 3.44151C4.63135 3.2047 4.82335 3.0127 5.06016 3.0127H11.9213C12.1582 3.0127 12.3502 3.2047 12.3502 3.44151C12.3501 3.67832 12.1582 3.87032 11.9213 3.87032Z" fill="#3BBBE9"/>
<path d="M11.9213 5.75704H5.06016C4.82335 5.75704 4.63135 5.56504 4.63135 5.32823C4.63135 5.09141 4.82335 4.89941 5.06016 4.89941H11.9213C12.1582 4.89941 12.3502 5.09141 12.3502 5.32823C12.3501 5.56504 12.1582 5.75704 11.9213 5.75704Z" fill="#3BBBE9"/>
<path d="M11.9213 7.64473H5.06016C4.82335 7.64473 4.63135 7.45274 4.63135 7.21592C4.63135 6.97911 4.82335 6.78711 5.06016 6.78711H11.9213C12.1582 6.78711 12.3502 6.97911 12.3502 7.21592C12.3501 7.45274 12.1582 7.64473 11.9213 7.64473Z" fill="#3BBBE9"/>
<path d="M13.5469 11.3438H3.4687C3.36523 11.3438 3.28125 11.2504 3.28125 11.1353V2.23674C3.28125 1.70126 3.67312 1.26562 4.15459 1.26562H12.861C13.3426 1.26562 13.7344 1.70137 13.7344 2.23674V11.1353C13.7344 11.2504 13.6505 11.3438 13.5469 11.3438ZM3.65615 10.9269H13.3595V2.23674C13.3595 1.93107 13.1358 1.6825 12.861 1.6825H4.15459C3.87969 1.6825 3.65615 1.93117 3.65615 2.23674V10.9269Z" fill="#3BBBE9"/>
<path d="M9.2598 10.5898L7.33726 8.56936C7.14393 8.36614 6.86763 8.25 6.57767 8.25H1.97095C1.63314 8.25 1.35938 8.50746 1.35938 8.82515V10.9091V11.3208V19.9971V21.2299V21.8311C1.35938 22.1488 1.63323 22.4063 1.97095 22.4063H20.9978C21.3356 22.4063 21.6094 22.1487 21.6094 21.8311V21.2299V19.9971V11.4843C21.6094 11.1666 21.3355 10.9091 20.9978 10.9091H10.0194C9.72934 10.9091 9.45314 10.793 9.2598 10.5898V10.5898Z" fill="#3BBBE9"/>
</svg>
