<svg width="48" height="48" viewBox="0 0 48 48" fill="none" xmlns="http://www.w3.org/2000/svg">
<path fill-rule="evenodd" clip-rule="evenodd" d="M26.4161 16H25V23.9995H38H40V15.9995H36.5479L36.5465 16H26.4161ZM21.584 16H23V23.9995H10H8V15.9995H11.4521L11.4536 16H21.584ZM38.4613 13.9995H40C41.1046 13.9995 42 14.8949 42 15.9995V23.9995C42 25.1041 41.1046 25.9995 40 25.9995V40.9995C40 41.5518 39.5523 41.9995 39 41.9995H9C8.44772 41.9995 8 41.5518 8 40.9995L8 25.9995C6.89543 25.9995 6 25.1041 6 23.9995V15.9995C6 14.8949 6.89543 13.9995 8 13.9995H9.53876C8.84385 12.4196 8.76877 10.2667 9.6235 8.68015C11.0042 6.11721 14.0622 5.23909 16.4536 6.7188C18.0649 7.71578 20.9306 11.5826 22.6289 13.9995H25.3712C27.0695 11.5826 29.9352 7.71578 31.5465 6.7188C33.9379 5.23909 36.9959 6.11721 38.3766 8.68015C39.2313 10.2667 39.1562 12.4196 38.4613 13.9995ZM36.0793 13.9995H27.8275C28.0376 13.7093 28.2566 13.4102 28.4816 13.1076C29.2604 12.0601 30.0943 10.9922 30.8656 10.108C31.6839 9.17 32.2826 8.61519 32.5988 8.41956C33.9507 7.58307 35.7472 8.01629 36.6158 9.6287C37.017 10.3734 37.1188 11.4894 36.8524 12.5418C36.6361 13.3963 36.2931 13.8218 36.0793 13.9995ZM20.1726 13.9995C19.9625 13.7093 19.7435 13.4102 19.5185 13.1076C18.7397 12.0601 17.9058 10.9922 17.1345 10.108C16.3162 9.17 15.7175 8.61519 15.4013 8.41956C14.0494 7.58307 12.2529 8.01629 11.3842 9.6287C10.9831 10.3734 10.8813 11.4894 11.1477 12.5418C11.364 13.3963 11.707 13.8218 11.9208 13.9995H20.1726ZM25 25.9995H38V39.9995H25V25.9995ZM23 25.9995H10V39.9995H23V25.9995Z" fill="#3BBBE9"/>
</svg>
