<svg width="24" height="24" viewBox="0 0 24 24" fill="none" xmlns="http://www.w3.org/2000/svg">
<path fill-rule="evenodd" clip-rule="evenodd" d="M12.0001 7L6.98164 7C6.11554 6.71349 5.6973 5.09723 6.24959 4.07206C6.80187 3.04689 8.02505 2.69564 8.98164 3.28752C9.93822 3.8794 12.0001 7 12.0001 7ZM12.0002 7L17.0186 7C17.8847 6.71349 18.303 5.09723 17.7507 4.07206C17.1984 3.04689 15.9752 2.69564 15.0186 3.28752C14.062 3.8794 12.0002 7 12.0002 7ZM3 9C3 8.44772 3.44772 8 4 8H10V12H3V9ZM14 12H21V9C21 8.44772 20.5523 8 20 8H14V12ZM4 13H10V21H5C4.44772 21 4 20.5523 4 20V13ZM14 21V13H20V20C20 20.5523 19.5523 21 19 21H14Z" fill="#010E28"/>
</svg>
