<svg width="24" height="24" viewBox="0 0 24 24" fill="none" xmlns="http://www.w3.org/2000/svg">
    <path fill-rule="evenodd" clip-rule="evenodd" d="M12 12C14.7614 12 17 9.76142 17 7C17 4.23858 14.7614 2 12 2C9.23858 2 7 4.23858 7 7C7 9.76142 9.23858 12 12 12ZM4.8209 14.4014C4.26429 14.5116 3.90571 15.0444 4.02184 15.5887L5.00586 21.2027C5.10497 21.6672 5.52319 22 6.00783 22H17.9922C18.4768 22 18.895 21.6672 18.9941 21.2027L19.9782 15.5887C20.0943 15.0444 19.7357 14.5116 19.1791 14.4014L12.2029 13.0199C12.069 12.9934 11.931 12.9934 11.7971 13.0199L4.8209 14.4014Z" fill="#3BBBE9"/>
</svg>
