<svg width="24" height="24" viewBox="0 0 24 24" fill="none" xmlns="http://www.w3.org/2000/svg">
    <path fill-rule="evenodd" clip-rule="evenodd" d="M12 22C17.5228 22 22 17.5228 22 12C22 6.47715 17.5228 2 12 2C6.47715 2 2 6.47715 2 12C2 17.5228 6.47715 22 12 22ZM10.702 14.21C10.758 14.266 10.828 14.294 10.912 14.294H12.298C12.4007 14.294 12.48 14.266 12.536 14.21C12.592 14.154 12.6433 14.0653 12.69 13.944C12.6993 13.86 12.7227 13.7013 12.76 13.468C12.816 13.2067 12.9233 12.964 13.082 12.74C13.25 12.5067 13.4833 12.2313 13.782 11.914C14.1927 11.466 14.5007 11.0693 14.706 10.724C14.9207 10.3787 15.028 9.97267 15.028 9.506C15.028 9.09533 14.9113 8.69867 14.678 8.316C14.454 7.93333 14.09 7.62067 13.586 7.378C13.0913 7.126 12.4567 7 11.682 7C10.9353 7 10.2867 7.14 9.736 7.42C9.18533 7.69067 8.76067 8.05 8.462 8.498C8.17267 8.946 8.01867 9.42667 8 9.94C8 10.0427 8.028 10.1267 8.084 10.192C8.14933 10.2573 8.22867 10.29 8.322 10.29H9.54C9.74533 10.29 9.88067 10.1827 9.946 9.968C10.1327 9.06267 10.6787 8.61 11.584 8.61C11.9853 8.61 12.326 8.722 12.606 8.946C12.8953 9.17 13.0213 9.47333 12.984 9.856C12.9653 10.08 12.8767 10.2947 12.718 10.5C12.5687 10.7053 12.3353 10.9667 12.018 11.284C11.6073 11.6947 11.2853 12.068 11.052 12.404C10.8187 12.74 10.6787 13.1273 10.632 13.566C10.6227 13.6687 10.618 13.818 10.618 14.014C10.618 14.0887 10.646 14.154 10.702 14.21ZM10.632 16.842C10.6973 16.9073 10.7767 16.94 10.87 16.94H12.256C12.3587 16.94 12.4427 16.9073 12.508 16.842C12.5733 16.7767 12.606 16.6973 12.606 16.604V15.358C12.606 15.2647 12.5687 15.1853 12.494 15.12C12.4287 15.0547 12.3493 15.022 12.256 15.022H10.87C10.7767 15.022 10.6973 15.0547 10.632 15.12C10.5667 15.1853 10.534 15.2647 10.534 15.358V16.604C10.534 16.6973 10.5667 16.7767 10.632 16.842Z" fill="#010E28"/>
</svg>
