<svg width="24" height="24" viewBox="0 0 24 24" fill="none" xmlns="http://www.w3.org/2000/svg">
<path d="M21 11.4183C21 10.1248 19.9897 9.07245 18.748 9.07245C18.0551 9.07245 17.4177 9.39497 16.9927 9.94806C15.8003 9.38298 14.4407 9.03478 13.0025 8.92453L14.2383 4.85666L16.9983 5.47958C17.2096 6.3363 17.9571 6.97142 18.8445 6.97142C19.8956 6.97142 20.7508 6.08066 20.7508 4.98574C20.7508 3.89083 19.8956 3 18.8445 3C18.0852 3 17.429 3.46522 17.1227 4.13607L13.9379 3.41723C13.6135 3.34404 13.2884 3.54009 13.1882 3.87005L11.663 8.89068C9.97948 8.93344 8.38222 9.29638 7.00732 9.948C6.58227 9.39497 5.94488 9.07245 5.25203 9.07245C4.01026 9.07245 3 10.1248 3 11.4183C3 12.0465 3.23698 12.6364 3.65772 13.0744C3.40678 13.6354 3.2797 14.219 3.2797 14.8128C3.2797 16.4246 4.20599 17.9289 5.88806 19.0487C7.52542 20.1388 9.69611 20.7391 12 20.7391C14.304 20.7391 16.4746 20.1388 18.1119 19.0487C19.794 17.9289 20.7203 16.4246 20.7203 14.8128C20.7203 14.219 20.5932 13.6355 20.3423 13.0744C20.763 12.6363 21 12.0465 21 11.4183ZM3.9889 12.2224C3.84657 11.9818 3.77212 11.7071 3.77212 11.4183C3.77212 10.5683 4.43596 9.87675 5.25203 9.87675C5.60231 9.87675 5.93137 10.0008 6.1946 10.2292C5.25376 10.7856 4.51317 11.455 3.9889 12.2224ZM7.37794 13.5807C7.37794 12.6568 8.09955 11.9051 8.98653 11.9051C9.87351 11.9051 10.5951 12.6568 10.5951 13.5807C10.5951 14.5047 9.87351 15.2564 8.98653 15.2564C8.09955 15.2564 7.37794 14.5047 7.37794 13.5807ZM15.2999 17.4048C14.6728 18.1177 13.4084 18.5606 12 18.5606C10.5916 18.5606 9.32723 18.1177 8.7002 17.4048C8.58406 17.2727 8.52435 17.1015 8.53181 16.9227C8.53928 16.7438 8.61327 16.5787 8.73997 16.4578C8.85894 16.3442 9.01323 16.2817 9.17454 16.2817C9.35451 16.2817 9.5274 16.361 9.64895 16.4991C10.0223 16.9236 10.989 17.2201 12 17.2201C13.011 17.2201 13.9777 16.9236 14.3511 16.4991C14.4726 16.3609 14.6455 16.2817 14.8255 16.2817C14.9869 16.2817 15.1412 16.3442 15.2602 16.4578C15.3869 16.5787 15.4608 16.7438 15.4683 16.9227C15.4758 17.1015 15.416 17.2727 15.2999 17.4048ZM15.0135 15.2564C14.1265 15.2564 13.4049 14.5047 13.4049 13.5807C13.4049 12.6568 14.1265 11.9051 15.0135 11.9051C15.9004 11.9051 16.6221 12.6568 16.6221 13.5807C16.6221 14.5047 15.9004 15.2564 15.0135 15.2564ZM20.0111 12.2224C19.4869 11.455 18.7463 10.7857 17.8054 10.2292C18.0687 10.0007 18.3977 9.87675 18.748 9.87675C19.564 9.87675 20.2279 10.5683 20.2279 11.4183C20.2279 11.7071 20.1534 11.9818 20.0111 12.2224Z" fill="black"/>
</svg>
