<svg width="20" height="20" viewBox="0 0 20 20" fill="none" xmlns="http://www.w3.org/2000/svg">
<path fill-rule="evenodd" clip-rule="evenodd" d="M10.0007 15.3333C12.9462 15.3333 15.334 12.9454 15.334 9.99992C15.334 7.0544 12.9462 4.66659 10.0007 4.66659C7.05513 4.66659 4.66732 7.0544 4.66732 9.99992C4.66732 12.9454 7.05513 15.3333 10.0007 15.3333ZM10.0007 16.6666C13.6825 16.6666 16.6673 13.6818 16.6673 9.99992C16.6673 6.31802 13.6825 3.33325 10.0007 3.33325C6.31875 3.33325 3.33398 6.31802 3.33398 9.99992C3.33398 13.6818 6.31875 16.6666 10.0007 16.6666Z" fill="#3BBBE9"/>
<path fill-rule="evenodd" clip-rule="evenodd" d="M11.6858 14.028C12.2655 13.0617 12.6673 11.6408 12.6673 9.99992C12.6673 8.35908 12.2655 6.93813 11.6858 5.97187C11.0901 4.97906 10.4529 4.66659 10.0007 4.66659C9.54843 4.66659 8.91123 4.97906 8.31555 5.97187C7.73579 6.93813 7.33398 8.35908 7.33398 9.99992C7.33398 11.6408 7.73579 13.0617 8.31555 14.028C8.91123 15.0208 9.54843 15.3333 10.0007 15.3333C10.4529 15.3333 11.0901 15.0208 11.6858 14.028ZM10.0007 16.6666C12.2098 16.6666 14.0007 13.6818 14.0007 9.99992C14.0007 6.31802 12.2098 3.33325 10.0007 3.33325C7.79151 3.33325 6.00065 6.31802 6.00065 9.99992C6.00065 13.6818 7.79151 16.6666 10.0007 16.6666Z" fill="#3BBBE9"/>
<path d="M9.33398 4.66659H10.6673V15.3333H9.33398V4.66659Z" fill="#3BBBE9"/>
<path d="M15.334 9.33325V10.6666L4.66732 10.6666L4.66732 9.33325L15.334 9.33325Z" fill="#3BBBE9"/>
</svg>
