<svg width="24" height="24" viewBox="0 0 24 24" fill="none" xmlns="http://www.w3.org/2000/svg">
<path fill-rule="evenodd" clip-rule="evenodd" d="M12 20C16.4183 20 20 16.4183 20 12C20 7.58172 16.4183 4 12 4C7.58172 4 4 7.58172 4 12C4 16.4183 7.58172 20 12 20ZM12 22C17.5228 22 22 17.5228 22 12C22 6.47715 17.5228 2 12 2C6.47715 2 2 6.47715 2 12C2 17.5228 6.47715 22 12 22Z" fill="#919CB3"/>
<path fill-rule="evenodd" clip-rule="evenodd" d="M14.5277 18.0421C15.3973 16.5927 16 14.4613 16 12C16 9.53874 15.3973 7.40732 14.5277 5.95792C13.6341 4.46872 12.6783 4 12 4C11.3217 4 10.3659 4.46872 9.47235 5.95792C8.60271 7.40732 8 9.53874 8 12C8 14.4613 8.60271 16.5927 9.47235 18.0421C10.3659 19.5313 11.3217 20 12 20C12.6783 20 13.6341 19.5313 14.5277 18.0421ZM12 22C15.3137 22 18 17.5228 18 12C18 6.47715 15.3137 2 12 2C8.68629 2 6 6.47715 6 12C6 17.5228 8.68629 22 12 22Z" fill="#919CB3"/>
<path d="M11 4H13V20H11V4Z" fill="#919CB3"/>
<path d="M20 11V13L4 13L4 11L20 11Z" fill="#919CB3"/>
</svg>
