<svg width="24" height="24" viewBox="0 0 24 24" fill="none" xmlns="http://www.w3.org/2000/svg">
<path fill-rule="evenodd" clip-rule="evenodd" d="M13.5 19C17.0899 19 20 16.0899 20 12.5C20 8.91015 17.0899 6 13.5 6C10.4131 6 7.82874 8.15187 7.16522 11.0374L9.42649 9.73185C9.90478 9.4557 10.5164 9.61958 10.7925 10.0979C11.0687 10.5762 10.9048 11.1878 10.4265 11.4639L6.09636 13.9639C5.61807 14.24 5.00648 14.0762 4.73033 13.5979L2.23033 9.26775C1.95419 8.78945 2.11807 8.17786 2.59636 7.90172C3.07465 7.62558 3.68624 7.78945 3.96238 8.26775L5.24093 10.4823C6.1467 6.76185 9.50082 4 13.5 4C18.1944 4 22 7.80558 22 12.5C22 17.1944 18.1944 21 13.5 21C10.0533 21 7.08573 18.9485 5.75174 16H8.02182C9.17689 17.8042 11.1988 19 13.5 19Z" fill="#010E28"/>
</svg>
