<svg width="24" height="24" viewBox="0 0 24 24" fill="none" xmlns="http://www.w3.org/2000/svg">
<path fill-rule="evenodd" clip-rule="evenodd" d="M9 2C8.44772 2 8 2.44772 8 3V5C8 5.55228 8.44772 6 9 6H15C15.5523 6 16 5.55228 16 5V3C16 2.44772 15.5523 2 15 2H9ZM7 4H5C4.44772 4 4 4.44772 4 5V21C4 21.5523 4.44772 22 5 22H19C19.5523 22 20 21.5523 20 21V5C20 4.44772 19.5523 4 19 4H17V6C17 6.55228 16.5523 7 16 7H8C7.44772 7 7 6.55228 7 6V4ZM17 12.5556L11.1667 18L7 14.1111L8.66667 12.5556L11.1667 14.8889L15.3333 11L17 12.5556Z" fill="#919CB3"/>
</svg>
