<svg xmlns="http://www.w3.org/2000/svg" width="24" height="24" viewBox="0 0 24 24" fill="none">
    <path fill-rule="evenodd" clip-rule="evenodd" d="M4 6H20V8H4V6ZM2 9V6C2 4.89543 2.89543 4 4 4H20C21.1046 4 22 4.89543 22 6V9V18C22 19.1046 21.1046 20 20 20H4C2.89543 20 2 19.1046 2 18V9ZM20 10V18H4V10H20ZM14.7355 17C13.991 17 13.4355 16.7944 13.0688 16.3833C12.7077 15.9722 12.5105 15.4333 12.4771 14.7667C12.4716 14.6167 12.4688 14.3611 12.4688 14C12.4688 13.6333 12.4716 13.3722 12.4771 13.2167C12.5049 12.5611 12.7049 12.0278 13.0771 11.6167C13.4494 11.2056 14.0021 11 14.7355 11C15.4688 11 16.0216 11.2056 16.3938 11.6167C16.766 12.0278 16.966 12.5611 16.9938 13.2167C17.0049 13.5278 17.0105 13.7889 17.0105 14C17.0105 14.2111 17.0049 14.4667 16.9938 14.7667C16.9605 15.4333 16.7605 15.9722 16.3938 16.3833C16.0327 16.7944 15.4799 17 14.7355 17ZM14.7355 16.025C15.0799 16.025 15.3383 15.9139 15.5105 15.6917C15.6827 15.4639 15.7744 15.1417 15.7855 14.725C15.791 14.5639 15.7938 14.3167 15.7938 13.9833C15.7938 13.65 15.791 13.4083 15.7855 13.2583C15.7744 12.8528 15.6827 12.5361 15.5105 12.3083C15.3383 12.0806 15.0799 11.9639 14.7355 11.9583C14.391 11.9639 14.1327 12.0806 13.9605 12.3083C13.7883 12.5361 13.6966 12.8528 13.6855 13.2583C13.6799 13.4083 13.6771 13.65 13.6771 13.9833C13.6771 14.3167 13.6799 14.5639 13.6855 14.725C13.6966 15.1417 13.7883 15.4639 13.9605 15.6917C14.1327 15.9139 14.391 16.025 14.7355 16.025ZM8 16.8583C8.03889 16.8972 8.08611 16.9167 8.14167 16.9167H8.91667C8.97222 16.9167 9.01944 16.8972 9.05833 16.8583C9.09722 16.8194 9.11667 16.7722 9.11667 16.7167V11.2833C9.11667 11.2278 9.09722 11.1806 9.05833 11.1417C9.01944 11.1028 8.97222 11.0833 8.91667 11.0833H8.16667C8.08889 11.0833 8.01944 11.1028 7.95833 11.1417L6.09167 12.5917C6.03056 12.6361 6 12.6917 6 12.7583C6 12.7972 6.01389 12.8361 6.04167 12.875L6.4 13.3417C6.43889 13.3972 6.49167 13.425 6.55833 13.425C6.60833 13.425 6.65 13.4111 6.68333 13.3833L7.94167 12.4167V16.7167C7.94167 16.7722 7.96111 16.8194 8 16.8583ZM10.2822 13.9417C10.3211 13.9806 10.3683 14 10.4239 14H11.2572C11.3183 14 11.3683 13.9806 11.4072 13.9417C11.4461 13.9028 11.4656 13.8556 11.4656 13.8V13C11.4656 12.9389 11.4461 12.8889 11.4072 12.85C11.3683 12.8111 11.3183 12.7917 11.2572 12.7917H10.4239C10.3683 12.7917 10.3211 12.8111 10.2822 12.85C10.2433 12.8889 10.2239 12.9389 10.2239 13V13.8C10.2239 13.8556 10.2433 13.9028 10.2822 13.9417ZM10.2822 16.8583C10.3211 16.8972 10.3683 16.9167 10.4239 16.9167H11.2572C11.3183 16.9167 11.3683 16.8972 11.4072 16.8583C11.4461 16.8194 11.4656 16.7722 11.4656 16.7167V15.9167C11.4656 15.8556 11.4461 15.8056 11.4072 15.7667C11.3683 15.7278 11.3183 15.7083 11.2572 15.7083H10.4239C10.3683 15.7083 10.3211 15.7278 10.2822 15.7667C10.2433 15.8056 10.2239 15.8556 10.2239 15.9167V16.7167C10.2239 16.7722 10.2433 16.8194 10.2822 16.8583Z" fill="#010E28"/>
</svg>