<svg width="24" height="24" viewBox="0 0 24 24" fill="none" xmlns="http://www.w3.org/2000/svg">
<path fill-rule="evenodd" clip-rule="evenodd" d="M12 5.80245L13.5015 6.18891C14.0503 6.33018 14.5692 6.54748 15.0465 6.8295L16.3816 7.61842L17.1705 8.95352C17.4525 9.43079 17.6698 9.94966 17.8111 10.4985L18.1975 12L17.8111 13.5015C17.6698 14.0503 17.4525 14.5692 17.1705 15.0465L16.3816 16.3816L15.0465 17.1705C14.5692 17.4525 14.0503 17.6698 13.5015 17.8111L12 18.1975L10.4985 17.8111C9.94966 17.6698 9.43078 17.4525 8.95351 17.1705L7.61841 16.3816L6.8295 15.0465C6.54748 14.5692 6.33018 14.0503 6.18891 13.5015L5.80245 12L6.18891 10.4985C6.33018 9.94966 6.54748 9.43078 6.8295 8.95351L7.61841 7.61841L8.95352 6.8295C9.43078 6.54748 9.94966 6.33018 10.4985 6.18891L12 5.80245ZM19.748 10C19.559 9.26596 19.2685 8.57269 18.8924 7.93607L19.7782 7.05026C20.1687 6.65973 20.1687 6.02657 19.7782 5.63604L18.364 4.22183C17.9734 3.83131 17.3403 3.83131 16.9498 4.22183L16.0639 5.10764C15.4273 4.73146 14.734 4.44096 14 4.25203V3C14 2.44772 13.5523 2 13 2H11C10.4477 2 10 2.44772 10 3V4.25203C9.26596 4.44096 8.57269 4.73146 7.93607 5.10764L7.05025 4.22182C6.65972 3.83129 6.02656 3.83129 5.63604 4.22182L4.22182 5.63603C3.8313 6.02656 3.8313 6.65972 4.22182 7.05025L5.10764 7.93606C4.73146 8.57269 4.44096 9.26596 4.25203 10H3C2.44772 10 2 10.4477 2 11V13C2 13.5523 2.44772 14 3 14H4.25203C4.44096 14.734 4.73146 15.4273 5.10764 16.0639L4.22182 16.9498C3.83129 17.3403 3.83129 17.9734 4.22182 18.364L5.63603 19.7782C6.02656 20.1687 6.65972 20.1687 7.05025 19.7782L7.93606 18.8924C8.57269 19.2685 9.26596 19.559 10 19.748V21C10 21.5523 10.4477 22 11 22H13C13.5523 22 14 21.5523 14 21V19.748C14.734 19.559 15.4273 19.2685 16.0639 18.8924L16.9497 19.7782C17.3403 20.1687 17.9734 20.1687 18.364 19.7782L19.7782 18.364C20.1687 17.9734 20.1687 17.3403 19.7782 16.9498L18.8924 16.0639C19.2685 15.4273 19.559 14.734 19.748 14H21C21.5523 14 22 13.5523 22 13V11C22 10.4477 21.5523 10 21 10H19.748ZM14 12C14 13.1046 13.1046 14 12 14C10.8954 14 10 13.1046 10 12C10 10.8954 10.8954 10 12 10C13.1046 10 14 10.8954 14 12ZM16 12C16 14.2091 14.2091 16 12 16C9.79086 16 8 14.2091 8 12C8 9.79086 9.79086 8 12 8C14.2091 8 16 9.79086 16 12Z" fill="#3BBBE9"/>
</svg>
