<svg width="24" height="24" viewBox="0 0 24 24" fill="none" xmlns="http://www.w3.org/2000/svg">
<path d="M4.00516 2.89776C4.05637 2.3935 4.48223 2 5 2H15C15.5523 2 16 2.44772 16 3C16 3.55228 15.5523 4 15 4H6V20H15C15.5523 20 16 20.4477 16 21C16 21.5523 15.5523 22 15 22H5C4.44772 22 4 21.5523 4 21V3C4 2.96548 4.00175 2.93137 4.00516 2.89776Z" fill="#010E28"/>
<path d="M8 12C8 11.4477 8.44772 11 9 11H19C19.5523 11 20 11.4477 20 12C20 12.5523 19.5523 13 19 13H9C8.44772 13 8 12.5523 8 12Z" fill="#010E28"/>
<path fill-rule="evenodd" clip-rule="evenodd" d="M13.2929 6.29289C13.6834 5.90237 14.3166 5.90237 14.7071 6.29289L19.7071 11.2929C20.0976 11.6834 20.0976 12.3166 19.7071 12.7071L14.7071 17.7071C14.3166 18.0976 13.6834 18.0976 13.2929 17.7071C12.9024 17.3166 12.9024 16.6834 13.2929 16.2929L17.5858 12L13.2929 7.70711C12.9024 7.31658 12.9024 6.68342 13.2929 6.29289Z" fill="#010E28"/>
</svg>
