<svg width="24" height="24" viewBox="0 0 24 24" fill="none" xmlns="http://www.w3.org/2000/svg">
<path fill-rule="evenodd" clip-rule="evenodd" d="M19 5H5V9H19V5ZM3 5V10V19C3 20.1046 3.89543 21 5 21H19C20.1046 21 21 20.1046 21 19V10V5C21 3.89543 20.1046 3 19 3H5C3.89543 3 3 3.89543 3 5ZM19 19V11H5L5 19H19ZM7 8C7.55228 8 8 7.55228 8 7C8 6.44772 7.55228 6 7 6C6.44772 6 6 6.44772 6 7C6 7.55228 6.44772 8 7 8ZM11 7C11 7.55228 10.5523 8 10 8C9.44772 8 9 7.55228 9 7C9 6.44772 9.44772 6 10 6C10.5523 6 11 6.44772 11 7ZM13 8C13.5523 8 14 7.55228 14 7C14 6.44772 13.5523 6 13 6C12.4477 6 12 6.44772 12 7C12 7.55228 12.4477 8 13 8Z" fill="#3BBBE9"/>
</svg>
