<svg width="24" height="24" viewBox="0 0 24 24" fill="none" xmlns="http://www.w3.org/2000/svg">
    <path fill-rule="evenodd" clip-rule="evenodd" d="M16.0067 12.9375C18.3942 13.7891 20 14.3618 20 10.0292C20 5.59478 16.4183 2 12 2C7.58172 2 4 5.59478 4 10.0292C4 14.3618 5.60577 13.7891 7.99326 12.9375C8.08213 12.9058 8.17208 12.8738 8.26308 12.8415L9 18H15L15.7369 12.8415C15.8279 12.8738 15.9179 12.9058 16.0067 12.9375ZM7.609 10.6886C8.94266 11.046 10.3135 10.2545 10.6709 8.92085C9.29568 8.55235 9.13617 8.50951 9.00741 8.47494L5.84123 7.62676C5.48388 8.96042 6.27533 10.3313 7.609 10.6886ZM10 13.0002C10 11.8957 10.8954 11.0002 12 11.0002C13.1046 11.0002 14 11.8957 14 13.0002C14 13.5428 13.7839 13.3111 13.4331 12.9348C13.0698 12.5451 12.562 12.0005 12 12.0005C11.438 12.0005 10.9302 12.5451 10.5669 12.9348C10.2161 13.3111 10 13.5428 10 13.0002ZM16.2553 10.6886C14.9216 11.046 13.5507 10.2545 13.1934 8.92084C14.6042 8.54263 14.7355 8.50738 14.8668 8.47217C14.9602 8.44712 15.0537 8.42208 15.6081 8.27351C16.1804 8.12018 16.2616 8.09848 16.3585 8.07256C16.4875 8.03808 16.6444 7.99614 18.023 7.62675C18.3804 8.96041 17.5889 10.3313 16.2553 10.6886Z" fill="#FF1967"/>
    <path d="M9 20H10V22H9V20Z" fill="#FF1967"/>
    <path d="M13 22L13 20H11V22H13Z" fill="#FF1967"/>
    <path d="M14 20H15L15 22H14L14 20Z" fill="#FF1967"/>
</svg>
