<svg width="24" height="24" viewBox="0 0 24 24" fill="none" xmlns="http://www.w3.org/2000/svg">
<path fill-rule="evenodd" clip-rule="evenodd" d="M3 4C3 3.44772 3.44772 3 4 3H20C20.5523 3 21 3.44772 21 4V17C21 17.5523 20.5523 18 20 18H14V20H9.99998V18H4C3.44772 18 3 17.5523 3 17V4ZM7.49998 20.0004C7.22383 20.0004 6.99998 20.2242 6.99998 20.5004C6.99998 20.7765 7.22383 21.0004 7.49998 21.0004H16.5C16.7761 21.0004 17 20.7765 17 20.5004C17 20.2242 16.7761 20.0004 16.5 20.0004H7.49998ZM10 13.0004L15 10.5004L10 8.00039V13.0004Z" fill="#010E28"/>
</svg>
