<svg width="20" height="20" viewBox="0 0 20 20" fill="none" xmlns="http://www.w3.org/2000/svg">
<path d="M17.998 12.7455C17.9967 12.7107 17.9955 12.6758 17.9943 12.6407C17.993 12.6056 17.9917 12.5705 17.9904 12.5351L17.9894 12.5087L17.9889 12.4954L17.9888 12.4921L17.9885 12.4625L17.9884 12.4611L17.9879 12.4556L17.9845 12.4117C17.98 12.3531 17.9754 12.2942 17.9709 12.2354L17.9674 12.1909L17.9621 12.1331C17.9585 12.0947 17.9549 12.0563 17.9512 12.018C17.9475 11.9797 17.9437 11.9415 17.94 11.9034C17.938 11.8844 17.9361 11.8654 17.9342 11.8465C17.9319 11.829 17.9295 11.8115 17.9272 11.794C17.908 11.6552 17.8909 11.5187 17.8665 11.3876C17.8549 11.322 17.8442 11.2574 17.8322 11.1946C17.8192 11.1318 17.8064 11.0705 17.7939 11.0107C17.7703 10.8912 17.7406 10.7795 17.7156 10.6763C17.7092 10.6506 17.703 10.6253 17.6969 10.6007C17.69 10.5761 17.6834 10.5522 17.6769 10.5289C17.6637 10.4823 17.6512 10.4381 17.6395 10.3966C17.6275 10.3551 17.617 10.3162 17.606 10.2805C17.5946 10.245 17.5842 10.2123 17.5748 10.1828C17.5608 10.1395 17.5491 10.1029 17.5398 10.0741C17.5261 10.0315 17.4811 10.0075 17.438 10.0198L14.7329 10.7907C14.6917 10.8024 14.6662 10.8435 14.674 10.8856C14.6769 10.9014 14.6803 10.9194 14.684 10.9395C14.6879 10.9598 14.6922 10.9823 14.6968 11.0068C14.7012 11.0314 14.7047 11.0582 14.7091 11.0866C14.7134 11.1151 14.7181 11.1454 14.7229 11.1773C14.7253 11.1933 14.7281 11.2095 14.7303 11.2263C14.7322 11.2432 14.7342 11.2604 14.7362 11.278C14.7437 11.3485 14.755 11.424 14.76 11.5051C14.7633 11.5454 14.7668 11.5868 14.7703 11.629C14.7729 11.6714 14.7742 11.7149 14.7765 11.7589C14.7823 11.8467 14.7812 11.9381 14.7829 12.0303L14.7833 12.0646L14.7821 12.095C14.7814 12.1153 14.7807 12.1356 14.78 12.1559C14.7795 12.1762 14.7789 12.1965 14.7783 12.2169L14.7777 12.2473L14.7758 12.2911C14.7734 12.3501 14.7708 12.4091 14.7683 12.4678L14.7664 12.5118L14.7662 12.5173L14.7661 12.5187C14.7662 12.5253 14.7656 12.4663 14.7658 12.4918L14.7656 12.4939L14.7648 12.5026L14.7632 12.52C14.7611 12.5431 14.759 12.5661 14.7569 12.5891C14.7549 12.612 14.7529 12.6348 14.7509 12.6575C14.7482 12.6801 14.7456 12.7026 14.7429 12.7249C14.7371 12.7696 14.7336 12.8138 14.7265 12.8568C14.7203 12.8999 14.7141 12.9423 14.7081 12.9837C14.7009 13.0249 14.6939 13.0652 14.6871 13.1044C14.681 13.1437 14.6727 13.1815 14.6654 13.218C14.6577 13.2546 14.6516 13.29 14.6436 13.3237C14.6359 13.3573 14.6284 13.3895 14.6213 13.4202C14.6178 13.4353 14.6144 13.45 14.6111 13.4644C14.6077 13.4767 14.6044 13.4886 14.6012 13.5002C14.5993 13.5072 14.5975 13.5139 14.5957 13.5207H17.9042C17.9485 13.5207 17.9854 13.4859 17.9871 13.4416C17.9871 13.4414 17.9871 13.4411 17.9872 13.4408C17.9899 13.3792 17.9927 13.316 17.9956 13.2513C17.9969 13.1867 17.9981 13.1207 17.9994 13.0535C18.0013 12.9865 17.9993 12.9183 17.9991 12.8494C17.9987 12.8149 17.9983 12.7803 17.998 12.7455Z" fill="#63708A"/>
<path d="M17.1374 9.27379C17.1817 9.25593 17.202 9.20452 17.1815 9.16129C17.1724 9.14207 17.1618 9.11961 17.1498 9.09419C17.1384 9.07031 17.1258 9.04387 17.1122 9.01508C17.0945 8.97909 17.0754 8.94019 17.055 8.8986C17.0344 8.85719 17.0125 8.81311 16.9894 8.76666C16.9777 8.74251 16.9662 8.72259 16.9542 8.69992C16.9422 8.67775 16.9299 8.65508 16.9173 8.63192C16.8921 8.58571 16.8663 8.53739 16.8387 8.48791C16.8101 8.43896 16.7806 8.38834 16.7502 8.33629C16.735 8.31034 16.7195 8.28402 16.7039 8.25741C16.6875 8.2312 16.671 8.20467 16.6543 8.17786C16.6206 8.12445 16.5862 8.06987 16.5513 8.01439C16.4776 7.90576 16.4042 7.79214 16.3223 7.68157C16.3022 7.65373 16.282 7.62579 16.2617 7.59777L16.2312 7.55576L16.1995 7.51445C16.1571 7.45949 16.1144 7.40435 16.0718 7.34919C16.0285 7.29468 15.9836 7.2413 15.9396 7.18773C15.9174 7.16112 15.8959 7.13412 15.8732 7.10812C15.8504 7.0822 15.8277 7.05634 15.8051 7.03059C15.7825 7.00494 15.76 6.97934 15.7376 6.95389C15.7153 6.92834 15.6928 6.90323 15.6696 6.87895C15.6238 6.83009 15.5785 6.78183 15.5339 6.73436C15.4893 6.68703 15.4431 6.64255 15.3991 6.59809C15.3548 6.55386 15.3117 6.51042 15.2678 6.47009C15.2243 6.4294 15.182 6.38982 15.1411 6.35152C15.1004 6.31313 15.0588 6.27827 15.0201 6.24375C14.981 6.20959 14.9436 6.17687 14.908 6.14574C14.8715 6.11564 14.8368 6.08711 14.8043 6.0603C14.7717 6.03359 14.7412 6.0086 14.7131 5.98549C14.6848 5.96247 14.6578 5.94251 14.634 5.9239C14.5994 5.8973 14.5701 5.87484 14.5468 5.85698C14.5114 5.82977 14.4608 5.83558 14.4323 5.87005L12.9805 7.62746C12.9531 7.66061 12.9555 7.70904 12.986 7.73929C12.9981 7.75128 13.0121 7.76516 13.0279 7.78077C13.043 7.79595 13.0603 7.81202 13.0781 7.83078C13.0958 7.84952 13.115 7.86982 13.1355 7.89148C13.156 7.91304 13.1779 7.93597 13.2008 7.96016C13.223 7.98512 13.2464 8.01141 13.2707 8.03881C13.2947 8.06647 13.321 8.09392 13.346 8.12454C13.3712 8.15485 13.3973 8.18618 13.4241 8.2184C13.4514 8.25003 13.4774 8.28437 13.5044 8.31906C13.5311 8.354 13.5596 8.38844 13.5864 8.42537C13.6133 8.46219 13.6405 8.49961 13.6681 8.53751C13.6822 8.55615 13.6956 8.5756 13.7087 8.59534C13.722 8.61495 13.7354 8.63462 13.7488 8.65439C13.7623 8.67406 13.7758 8.69384 13.7893 8.71368C13.8028 8.73352 13.8152 8.75427 13.8283 8.77456C13.8539 8.81552 13.8805 8.85587 13.9057 8.89712C13.9302 8.93877 13.9548 8.98044 13.9793 9.02192L13.9976 9.05288L14.0148 9.08449C14.0263 9.10547 14.0377 9.12643 14.0491 9.14726C14.0962 9.2296 14.1359 9.3145 14.1775 9.39427C14.1966 9.43516 14.2153 9.47534 14.2336 9.51472C14.2428 9.53433 14.2518 9.55373 14.2608 9.57288C14.2691 9.59238 14.2773 9.61163 14.2853 9.63065C14.3016 9.66847 14.3174 9.70532 14.3327 9.74091C14.3468 9.777 14.3605 9.81187 14.3736 9.84531C14.3801 9.86202 14.3865 9.87838 14.3928 9.89436C14.3987 9.90995 14.4061 9.92683 14.41 9.93982C14.4194 9.96708 14.4282 9.99297 14.4365 10.0173C14.445 10.0414 14.453 10.064 14.4603 10.0849C14.47 10.1137 14.4788 10.1402 14.4868 10.164C14.4958 10.1907 14.5036 10.2143 14.5103 10.2345C14.5255 10.2799 14.5757 10.303 14.6201 10.2852L17.1374 9.27379Z" fill="#63708A"/>
<path d="M9.74437 6.13431C9.76637 6.1373 9.79069 6.14062 9.8172 6.14424C9.84354 6.14882 9.87203 6.15379 9.90247 6.1591C9.93285 6.16432 9.96518 6.16986 9.99926 6.17572C10.0289 6.18064 10.0595 6.18778 10.0914 6.19445L11.0077 4.32021C10.9622 4.31312 10.9172 4.30608 10.8731 4.2992C10.8428 4.2947 10.813 4.28953 10.7834 4.28582C10.7537 4.28224 10.7244 4.27868 10.6955 4.27518C10.6377 4.26832 10.5816 4.26164 10.5273 4.25519C10.4728 4.25052 10.4202 4.24601 10.3697 4.24168C10.3191 4.23781 10.2709 4.2327 10.2248 4.23051C10.1788 4.22826 10.1351 4.2261 10.094 4.22408C10.053 4.22214 10.0147 4.22034 9.97921 4.21866C9.94373 4.21808 9.91112 4.21756 9.88167 4.21709C9.84024 4.21658 9.80507 4.21616 9.77688 4.21583C9.73216 4.21529 9.69516 4.25023 9.69302 4.2949L9.60947 6.03937C9.60742 6.08235 9.63842 6.11977 9.68105 6.12562C9.6992 6.12811 9.72037 6.13102 9.74437 6.13431Z" fill="#63708A"/>
<path d="M12.2069 7.09482C12.2315 7.11273 12.2548 7.1297 12.2768 7.14569C12.2987 7.16142 12.3193 7.17614 12.3383 7.18976C12.3465 7.19542 12.3601 7.20573 12.3712 7.21398C12.3827 7.22252 12.3936 7.23066 12.4039 7.23837C12.4264 7.25519 12.4463 7.27005 12.4634 7.28277C12.5017 7.31136 12.5561 7.3017 12.5824 7.26171L13.7786 5.43945C13.8049 5.39947 13.7922 5.34569 13.7507 5.3219C13.7322 5.31132 13.7107 5.29896 13.6863 5.28496C13.6751 5.27853 13.6633 5.27177 13.6509 5.26467C13.6374 5.25704 13.6233 5.24905 13.6086 5.24073C13.5746 5.22197 13.5378 5.20171 13.4984 5.18003C13.4591 5.15859 13.4172 5.13579 13.3731 5.11172C13.331 5.09065 13.2868 5.06851 13.2407 5.04538C13.1944 5.02278 13.1471 4.99763 13.0964 4.97481C13.046 4.9517 12.9939 4.92781 12.9403 4.90323C12.887 4.8781 12.8309 4.85528 12.7738 4.83133C12.7166 4.80789 12.6589 4.78226 12.5988 4.75964C12.5835 4.75386 12.568 4.74801 12.5527 4.74219L12.0366 6.98217C12.0652 7.00009 12.092 7.01908 12.1185 7.03623C12.1493 7.05666 12.1788 7.07621 12.2069 7.09482Z" fill="#63708A"/>
<path d="M8.13799 6.12506C8.16109 6.12201 8.18378 6.11824 8.20643 6.11585C8.22908 6.11356 8.25147 6.11129 8.27353 6.10903C8.31757 6.10446 8.3604 6.10002 8.40185 6.09571C8.44342 6.09293 8.48359 6.09023 8.52214 6.08764C8.54137 6.08633 8.5602 6.08505 8.57861 6.08378C8.59697 6.08255 8.61536 6.08099 8.63112 6.08097C8.66361 6.08011 8.69445 6.07932 8.7234 6.07856C8.75227 6.07765 8.77925 6.07679 8.80424 6.076C8.83505 6.0758 8.86334 6.07561 8.88888 6.07545C8.917 6.07529 8.94186 6.07516 8.96311 6.07504C9.01095 6.07479 9.04854 6.03428 9.04541 5.98655L8.93772 4.34328C8.93457 4.29554 8.89202 4.26029 8.84458 4.26629C8.82348 4.26895 8.79884 4.27207 8.77093 4.27559C8.74506 4.27887 8.71641 4.28253 8.68522 4.2865C8.64837 4.29197 8.60852 4.29787 8.56593 4.30418C8.52347 4.31065 8.47826 4.31754 8.43062 4.3248C8.40623 4.32824 8.38378 4.3328 8.36022 4.33725C8.33672 4.34173 8.31269 4.34632 8.28815 4.35101C8.23916 4.36047 8.18814 4.37034 8.13529 4.38055C8.08286 4.39249 8.02863 4.40485 7.9729 4.41753C7.94509 4.42391 7.9169 4.4304 7.88837 4.43697C7.85987 4.44364 7.83129 4.45179 7.80231 4.45928C7.74445 4.47469 7.68539 4.49044 7.6253 4.50644C7.56581 4.52438 7.50533 4.5426 7.44412 4.56106C7.41361 4.57051 7.38277 4.57942 7.35212 4.58951C7.3216 4.59993 7.29086 4.61039 7.26004 4.62092C7.22927 4.63146 7.19838 4.64204 7.16741 4.65266C7.13642 4.66321 7.10538 4.6738 7.07476 4.68588C7.01337 4.7093 6.95175 4.73283 6.89012 4.75636C6.82876 4.78038 6.76842 4.80699 6.70794 4.83217C6.67779 4.84502 6.64756 4.85741 6.61777 4.8706C6.58817 4.88426 6.55868 4.89787 6.52929 4.91144C6.49997 4.92502 6.47075 4.93856 6.4417 4.95201C6.41265 4.96545 6.38371 4.97869 6.35558 4.99329C6.29913 5.02179 6.24337 5.04995 6.18853 5.07764C6.13367 5.10514 6.08139 5.13549 6.02947 5.16343C5.97778 5.1919 5.92695 5.21904 5.879 5.2483C5.83078 5.2769 5.78388 5.30474 5.73851 5.33165C5.693 5.35819 5.65079 5.38686 5.60943 5.41276C5.56835 5.43909 5.52899 5.46433 5.49155 5.48833C5.45492 5.51348 5.42016 5.53733 5.3875 5.55974C5.35493 5.58218 5.32444 5.60316 5.29625 5.62258C5.26809 5.642 5.24318 5.66125 5.22022 5.67789C5.18912 5.70086 5.16256 5.72047 5.14107 5.73633C5.10517 5.76282 5.09675 5.81286 5.12185 5.84976L5.80421 6.85297C5.82849 6.88868 5.87597 6.89988 5.91358 6.87864C5.93091 6.86887 5.95139 6.8573 5.97475 6.84413C5.99511 6.83287 6.01714 6.81956 6.04202 6.80661C6.06688 6.79364 6.09376 6.77966 6.12247 6.76471C6.1511 6.74973 6.18159 6.7338 6.21371 6.71701C6.24638 6.70135 6.28072 6.68487 6.31656 6.6677C6.35257 6.65092 6.3891 6.6317 6.42849 6.61495C6.46758 6.59778 6.50801 6.58005 6.54957 6.56181C6.59072 6.54286 6.6343 6.52631 6.6784 6.50862C6.72273 6.49144 6.76712 6.47201 6.81362 6.45559C6.85992 6.4389 6.90701 6.42194 6.95466 6.40476C6.97829 6.39578 7.00261 6.38819 7.02698 6.3804C7.0513 6.37257 7.07575 6.36471 7.10029 6.35681C7.12478 6.34889 7.14937 6.34094 7.17403 6.33296C7.19882 6.32543 7.22396 6.31869 7.24894 6.31149C7.29911 6.29761 7.34895 6.28222 7.39948 6.26931C7.45004 6.2568 7.5006 6.24429 7.55095 6.23184C7.57595 6.22519 7.60131 6.21998 7.62656 6.21478C7.65175 6.20947 7.67688 6.20419 7.70193 6.19891C7.72689 6.19361 7.75176 6.18834 7.77652 6.18308C7.80133 6.17813 7.82627 6.17431 7.85088 6.16988C7.90009 6.16134 7.9487 6.15289 7.99653 6.1446C8.04453 6.13798 8.09174 6.13145 8.13799 6.12506Z" fill="#63708A"/>
<path d="M3.48501 7.42194C3.46713 7.44724 3.44917 7.47265 3.43114 7.49817C3.41315 7.52367 3.39509 7.54927 3.37697 7.57495C3.35893 7.60067 3.34206 7.62735 3.32451 7.65359C3.28991 7.70642 3.25451 7.75885 3.22063 7.81227C3.18753 7.86615 3.15444 7.92003 3.12148 7.97371L3.09689 8.01389L3.07354 8.05473C3.05803 8.08188 3.04257 8.10898 3.02716 8.13595C2.96417 8.24295 2.90945 8.35232 2.85384 8.4562C2.82795 8.50917 2.80249 8.56126 2.77756 8.61226C2.7652 8.63773 2.75295 8.66295 2.74088 8.68785C2.72951 8.71308 2.71829 8.73802 2.70721 8.76264C2.68515 8.81179 2.66369 8.85962 2.64292 8.90587C2.62356 8.95271 2.60483 8.99795 2.58686 9.04136C2.56924 9.08492 2.55144 9.12613 2.53626 9.16613C2.52129 9.20617 2.50708 9.24416 2.4937 9.27985C2.4804 9.31551 2.46795 9.34887 2.45645 9.37972C2.44582 9.41088 2.43607 9.4395 2.42724 9.46535C2.41579 9.49934 2.40596 9.52851 2.39792 9.55239C2.38369 9.5946 2.40533 9.64039 2.44693 9.65634L3.08205 9.89983C3.12247 9.91532 3.16799 9.89723 3.18667 9.85818C3.19594 9.83884 3.207 9.81568 3.21972 9.78909C3.23026 9.76718 3.24191 9.74291 3.25463 9.71648C3.26814 9.69043 3.28274 9.6623 3.29835 9.6322C3.31391 9.60221 3.33045 9.57023 3.3479 9.53654C3.36549 9.50296 3.38573 9.46852 3.40582 9.43214C3.42617 9.39596 3.44737 9.35825 3.46932 9.31921C3.49244 9.28093 3.51634 9.24132 3.54093 9.20059C3.55317 9.18026 3.56559 9.15966 3.57815 9.13881C3.59137 9.11835 3.60476 9.09767 3.61829 9.0767C3.64533 9.03493 3.67297 8.99229 3.70108 8.94887C3.7608 8.86432 3.81921 8.77528 3.88522 8.6894C3.90133 8.66769 3.91752 8.64591 3.93375 8.62407L3.95809 8.59127L3.98359 8.55921C4.01754 8.51644 4.05163 8.47355 4.08572 8.43065C4.12043 8.38828 4.15646 8.347 4.19147 8.30536C4.20922 8.2847 4.22627 8.26361 4.24444 8.24352C4.26263 8.22346 4.28075 8.20345 4.29881 8.18353C4.31683 8.16362 4.33477 8.14379 4.35262 8.12406C4.3703 8.10422 4.38816 8.08473 4.4067 8.06605C4.44318 8.02827 4.47922 7.99095 4.51467 7.95422C4.55006 7.91755 4.58699 7.88353 4.62186 7.84914C4.65699 7.815 4.69098 7.78132 4.72597 7.75045C4.7604 7.71912 4.79388 7.68865 4.82629 7.65916C4.85842 7.6295 4.89153 7.60303 4.92212 7.57645C4.95291 7.55023 4.98241 7.5251 5.01047 7.5012C5.03803 7.47939 5.06416 7.45871 5.08872 7.43924C5.11314 7.4198 5.136 7.40159 5.15713 7.38475C5.16683 7.37674 5.17997 7.36714 5.19107 7.3587C5.20245 7.35009 5.21332 7.34191 5.22363 7.33414C5.24608 7.31718 5.2659 7.30223 5.28288 7.28943C5.32106 7.26061 5.32697 7.20567 5.29591 7.16929L4.5728 6.32215C4.54174 6.28577 4.48655 6.28299 4.4521 6.31617C4.4368 6.33092 4.41889 6.34815 4.39865 6.36767C4.38935 6.37661 4.37955 6.38606 4.36928 6.39595C4.35882 6.4061 4.34886 6.41535 4.33589 6.42861C4.3111 6.45362 4.28431 6.48068 4.25566 6.50958C4.22716 6.5385 4.19683 6.56927 4.16485 6.60171C4.13512 6.63391 4.10386 6.66776 4.07125 6.70308C4.03905 6.73867 4.00432 6.77453 3.97072 6.81384C3.93699 6.85294 3.90213 6.89338 3.86627 6.93493C3.82997 6.97599 3.79486 7.0201 3.75873 7.06485C3.72287 7.10984 3.68508 7.15472 3.64902 7.20228C3.61306 7.24985 3.57652 7.2982 3.53953 7.34718C3.52074 7.37145 3.50277 7.39651 3.48501 7.42194Z" fill="#63708A"/>
<path d="M2.17103 10.3926C2.1668 10.4134 2.16185 10.4378 2.15624 10.4654C2.15111 10.4907 2.14541 10.5187 2.13922 10.5492C2.13314 10.5804 2.12719 10.6172 2.12056 10.6548C2.11402 10.6928 2.10708 10.7331 2.09977 10.7757C2.09624 10.7969 2.09219 10.8189 2.08884 10.841C2.08586 10.863 2.08283 10.8854 2.07971 10.9084C2.06786 11.0002 2.05224 11.099 2.04325 11.2046C2.03803 11.2572 2.03267 11.3112 2.0272 11.3664C2.02269 11.4217 2.01967 11.4783 2.01578 11.5357C2.00669 11.6504 2.00502 11.7694 2.00123 11.8898L2 11.935L2.00022 11.9804C2.00039 12.0108 2.00056 12.0411 2.00072 12.0716C2.00091 12.102 2.00109 12.1325 2.00126 12.163L2.00155 12.2088L2.0033 12.2546C2.00578 12.3155 2.00825 12.3765 2.01073 12.4372L2.0126 12.4825L2.01317 12.4972L2.01398 12.5082L2.0156 12.5301C2.01775 12.5592 2.01989 12.5883 2.02203 12.6173C2.02417 12.6463 2.02631 12.6751 2.02841 12.7039C2.03133 12.7338 2.03421 12.7636 2.0371 12.7933C2.04002 12.8229 2.04291 12.8523 2.04579 12.8815C2.04724 12.8961 2.04869 12.9107 2.05014 12.9251C2.05194 12.9394 2.05374 12.9536 2.05553 12.9677C2.0627 13.0241 2.06976 13.0796 2.07667 13.134C2.085 13.188 2.09315 13.241 2.10107 13.2925C2.10848 13.344 2.11803 13.3938 2.1268 13.4419C2.12753 13.4458 2.12825 13.4496 2.12896 13.4534C2.13629 13.4928 2.17054 13.5213 2.21058 13.5213H2.43443C2.48222 13.5213 2.52015 13.4811 2.51734 13.4334C2.51658 13.4206 2.51581 13.4078 2.51495 13.3948C2.51215 13.3484 2.50878 13.3005 2.50771 13.2511C2.50609 13.2018 2.50444 13.1511 2.50274 13.0994C2.50242 13.0476 2.5021 12.9947 2.50178 12.941C2.50169 12.9275 2.50161 12.9141 2.50152 12.9005C2.50181 12.8872 2.50211 12.8738 2.50242 12.8604C2.50301 12.8336 2.5036 12.8065 2.5042 12.7793C2.50479 12.7522 2.5054 12.7249 2.506 12.6974C2.50735 12.6686 2.50868 12.6397 2.51005 12.6107C2.51139 12.5817 2.51276 12.5526 2.51411 12.5234L2.51513 12.5014L2.51564 12.4904L2.51571 12.489C2.51571 12.4856 2.51577 12.4923 2.51581 12.4911L2.51601 12.4885L2.51643 12.4832L2.51983 12.4407C2.52435 12.384 2.52888 12.3272 2.53342 12.2703L2.53689 12.2277L2.54179 12.1853C2.54506 12.157 2.54831 12.1288 2.55156 12.1006C2.5548 12.0724 2.55803 12.0443 2.56125 12.0164L2.56605 11.9744L2.57226 11.9328C2.58931 11.8222 2.60379 11.7133 2.62501 11.6091C2.63496 11.5569 2.64387 11.5055 2.6541 11.4555C2.66523 11.4057 2.67611 11.357 2.6867 11.3096C2.70631 11.2146 2.73172 11.1262 2.7524 11.0444C2.75771 11.0239 2.7629 11.0039 2.76797 10.9844C2.77332 10.9651 2.7791 10.9469 2.78442 10.9289C2.79515 10.8929 2.80534 10.8589 2.81491 10.8268C2.82469 10.7945 2.83272 10.7656 2.84209 10.7366C2.85191 10.7071 2.8609 10.68 2.86905 10.6555C2.87791 10.6287 2.88574 10.6052 2.89245 10.585C2.90752 10.5396 2.8812 10.491 2.83498 10.4787L2.27382 10.329C2.22759 10.3167 2.18056 10.3457 2.17103 10.3926Z" fill="#63708A"/>
<path d="M8.52343 13.3008C8.706 13.39 8.8994 13.4323 9.0898 13.4323C9.56775 13.4323 10.0271 13.1661 10.2511 12.7077C10.2943 12.6195 10.3277 12.5221 10.3494 12.4304L11.6559 6.75938L12.1535 4.59966L12.4618 3.26178C12.4977 3.10607 12.3738 3 12.2495 3C12.1768 3 12.1039 3.03636 12.0628 3.12039L11.4355 4.40347L10.5102 6.29629L7.93037 11.5731C7.61706 12.214 7.88259 12.9875 8.52343 13.3008ZM9.1377 11.4745C9.48733 11.4745 9.77076 11.758 9.77076 12.1076C9.77076 12.4572 9.48733 12.7407 9.1377 12.7407C8.78807 12.7407 8.50464 12.4572 8.50464 12.1076C8.50464 11.7579 8.78807 11.4745 9.1377 11.4745Z" fill="#63708A"/>
</svg>
