<svg width="24" height="24" viewBox="0 0 24 24" fill="none" xmlns="http://www.w3.org/2000/svg">
<path fill-rule="evenodd" clip-rule="evenodd" d="M11.0727 5.55432C11.0727 7.51732 9.48136 9.10864 7.51837 9.10864C5.55537 9.10864 3.96405 7.51732 3.96405 5.55432C3.96405 3.59132 5.55537 2 7.51837 2C9.48136 2 11.0727 3.59132 11.0727 5.55432ZM2.00401 12.9327C1.96185 12.4881 2.21966 12.0694 2.63569 11.9069L7.15428 10.1418C7.38824 10.0504 7.64803 10.0504 7.88199 10.1418L12.4006 11.9069C12.8166 12.0694 13.0744 12.4881 13.0323 12.9327L12.2585 21.094C12.2098 21.6075 11.7787 21.9997 11.2629 21.9997H3.77334C3.25762 21.9997 2.82648 21.6075 2.77781 21.094L2.00401 12.9327ZM18.9497 4.29289L21.7782 7.12132C22.1687 7.51184 22.1687 8.14501 21.7782 8.53553L18.9497 11.364C18.5592 11.7545 17.9261 11.7545 17.5355 11.364C17.145 10.9734 17.145 10.3403 17.5355 9.94975L18.6562 8.82911H15C14.4477 8.82911 14 8.38139 14 7.82911C14 7.27682 14.4477 6.82911 15 6.82911H18.6575L17.5355 5.70711C17.145 5.31658 17.145 4.68342 17.5355 4.29289C17.9261 3.90237 18.5592 3.90237 18.9497 4.29289ZM17.1215 13.2929L14.2931 16.1213C13.9026 16.5118 13.9026 17.145 14.2931 17.5355L17.1215 20.364C17.5121 20.7545 18.1452 20.7545 18.5358 20.364C18.9263 19.9734 18.9263 19.3403 18.5358 18.9497L17.4151 17.8291H21.0713C21.6236 17.8291 22.0713 17.3814 22.0713 16.8291C22.0713 16.2768 21.6236 15.8291 21.0713 15.8291H17.4138L18.5358 14.7071C18.9263 14.3166 18.9263 13.6834 18.5358 13.2929C18.1452 12.9024 17.5121 12.9024 17.1215 13.2929Z" fill="#010E28"/>
</svg>
