<svg width="24" height="24" viewBox="0 0 24 24" fill="none" xmlns="http://www.w3.org/2000/svg">
<path fill-rule="evenodd" clip-rule="evenodd" d="M2.41121 14.9177C3.6611 19.0175 7.47646 22 11.9893 22C17.5179 22 22 17.5227 22 12C22 6.47717 17.5179 2 11.9893 2C6.68391 2 2.34286 6.12266 2 11.3356C2.00136 11.3379 2.00272 11.3402 2.00407 11.3425L7.38172 13.5539C7.52806 13.4577 7.68402 13.3745 7.85046 13.3067C8.22804 13.1513 8.62623 13.0818 9.02305 13.0998L11.4727 9.54513C11.4719 9.52934 11.4719 9.51251 11.4719 9.49569C11.4719 7.39784 13.1776 5.69123 15.2742 5.69123C17.3718 5.69123 19.0766 7.39784 19.0766 9.49569C19.0766 11.5934 17.3718 13.3015 15.2742 13.3015C15.2459 13.3015 15.2167 13.3007 15.1883 13.2998L11.6832 15.802C11.6936 16.1882 11.6222 16.5753 11.4693 16.9444C10.8815 18.3565 9.2524 19.0286 7.83946 18.4389C6.97588 18.0792 6.39053 17.3316 6.19959 16.4792L2.41121 14.9177ZM8.08316 17.8535C9.17411 18.3075 10.4292 17.7899 10.8841 16.6989C11.1041 16.1719 11.1049 15.5882 10.8875 15.0595C10.6701 14.5307 10.2599 14.117 9.73119 13.8972C9.20677 13.6792 8.64548 13.6861 8.15173 13.8732L9.4313 14.4028C10.2354 14.7376 10.616 15.6612 10.2805 16.4655C9.9461 17.2689 9.02305 17.65 8.2185 17.3153L6.98069 16.8028C7.19989 17.2603 7.57987 17.644 8.08316 17.8535ZM12.741 9.49569C12.741 10.8938 13.8779 12.0311 15.2742 12.0311C16.6714 12.0311 17.8083 10.8938 17.8083 9.49569C17.8083 8.0987 16.6714 6.96101 15.2742 6.96101C13.8779 6.96101 12.741 8.0987 12.741 9.49569ZM15.2785 7.58702C14.2285 7.58702 13.376 8.44007 13.376 9.49183C13.376 10.5437 14.2285 11.3959 15.2785 11.3959C16.3294 11.3959 17.1818 10.5437 17.1818 9.49183C17.1818 8.44007 16.3294 7.58702 15.2785 7.58702Z" fill="#63708A"/>
</svg>
