<svg width="24" height="24" viewBox="0 0 24 24" fill="none" xmlns="http://www.w3.org/2000/svg">
<path fill-rule="evenodd" clip-rule="evenodd" d="M8.99991 2H14.9999V4H12.9999V6.06188C14.1686 6.2076 15.259 6.60539 16.2149 7.19913L17.4142 5.99985L18.8284 7.41406L17.7768 8.46568C19.1539 9.9027 20 11.8525 20 14C20 18.4183 16.4183 22 12 22C7.58172 22 4 18.4183 4 14C4 11.8962 4.81205 9.98211 6.13981 8.55402L5 7.41421L6.41421 6L7.67984 7.26562C8.66067 6.63511 9.78821 6.21302 10.9999 6.0619V4H8.99991V2ZM12 20C15.3137 20 18 17.3137 18 14C18 10.6863 15.3137 8 12 8C8.68629 8 6 10.6863 6 14C6 17.3137 8.68629 20 12 20ZM16 12.2205L11.3528 16.6L8 13.4412L9.29509 12.2205L11.3528 14.1597L14.7058 10.9999L16 12.2205Z" fill="#010E28"/>
</svg>
