<svg width="24" height="24" viewBox="0 0 24 24" fill="none" xmlns="http://www.w3.org/2000/svg">
<path fill-rule="evenodd" clip-rule="evenodd" d="M6 3C6 2.44772 6.44772 2 7 2H17C17.5523 2 18 2.44772 18 3V5H6V3ZM5 7C5 6.44772 5.44772 6 6 6H18C18.5523 6 19 6.44772 19 7V9H5V7ZM4 11C4 10.4477 4.44772 10 5 10H19C19.5523 10 20 10.4477 20 11V21C20 21.5523 19.5523 22 19 22H5C4.44772 22 4 21.5523 4 21V11ZM12 12L12.9443 15.0557H16L13.5279 16.9443L14.4721 20L12 18.1115L9.52786 20L10.4721 16.9443L8 15.0557H11.0557L12 12Z" fill="#010E28"/>
</svg>
