<svg width="24" height="24" viewBox="0 0 24 24" fill="none" xmlns="http://www.w3.org/2000/svg">
<path fill-rule="evenodd" clip-rule="evenodd" d="M3 3L7.01531 3.80306L12 9.55463L16.9847 3.80306L21 3L20.1969 7.01531L14.2592 12.1614L17.4551 15.849L18.6597 14.6444C18.8815 14.4226 19.241 14.4226 19.4628 14.6444C19.6845 14.8662 19.6845 15.2257 19.4628 15.4475L18.2582 16.6521L20.6674 19.0612C21.1109 19.5048 21.1109 20.2238 20.6674 20.6674C20.2238 21.1109 19.5048 21.1109 19.0612 20.6674L16.6521 18.2582L15.4475 19.4628C15.2257 19.6845 14.8662 19.6845 14.6444 19.4628C14.4226 19.241 14.4226 18.8815 14.6444 18.6597L15.849 17.4551L12 14.1193L8.15101 17.4551L9.3556 18.6597C9.57736 18.8815 9.57736 19.241 9.3556 19.4628C9.13384 19.6845 8.7743 19.6845 8.55254 19.4628L7.34795 18.2582L4.93876 20.6674C4.49524 21.1109 3.77616 21.1109 3.33264 20.6674C2.88912 20.2238 2.88912 19.5048 3.33264 19.0612L5.74182 16.6521L4.53723 15.4475C4.31547 15.2257 4.31547 14.8662 4.53723 14.6444C4.75899 14.4226 5.11853 14.4226 5.34029 14.6444L6.54489 15.849L9.74082 12.1614L3.80306 7.01531L3 3Z" fill="#010E28"/>
</svg>
