<svg xmlns="http://www.w3.org/2000/svg" width="24" height="24" viewBox="0 0 24 24" fill="none">
    <path fill-rule="evenodd" clip-rule="evenodd" d="M12.0002 10.2C13.9884 10.2 15.6002 8.58822 15.6002 6.6C15.6002 4.61177 13.9884 3 12.0002 3C10.012 3 8.40019 4.61177 8.40019 6.6C8.40019 8.58822 10.012 10.2 12.0002 10.2ZM7.23551 4.05592C7.02922 4.01917 6.81685 4 6.6 4C4.61177 4 3 5.61177 3 7.6C3 9.58822 4.61177 11.2 6.6 11.2C7.28198 11.2 7.91967 11.0104 8.46322 10.6809C7.32173 9.69084 6.59981 8.22977 6.59981 6.60009C6.59981 5.68018 6.82984 4.814 7.23551 4.05592ZM17.4004 6.60009C17.4004 8.22973 16.6785 9.69077 15.537 10.6809C16.0806 11.0103 16.7183 11.2 17.4004 11.2C19.3886 11.2 21.0004 9.58822 21.0004 7.6C21.0004 5.61177 19.3886 4 17.4004 4C17.1835 4 16.971 4.01918 16.7647 4.05595C17.1703 4.81402 17.4004 5.68019 17.4004 6.60009ZM6.68909 13.7035C6.63702 13.2349 6.91941 12.7935 7.36675 12.6444L11.6836 11.2055C11.8889 11.137 12.1108 11.137 12.316 11.2055L16.6329 12.6444C17.0802 12.7935 17.3626 13.2349 17.3105 13.7035L16.5987 20.1105C16.5424 20.6169 16.1143 21 15.6048 21H8.39486C7.88531 21 7.45724 20.6169 7.40097 20.1105L6.68909 13.7035ZM3.76696 12.6441L4.90494 12.2648L5.99992 20.9998H4.79507C4.28552 20.9998 3.85745 20.6166 3.80118 20.1102L3.0893 13.7032C3.03723 13.2346 3.31962 12.7932 3.76696 12.6441ZM19.2052 20.9998H18.0005L19.0955 12.2648L20.2333 12.6441C20.6807 12.7932 20.963 13.2346 20.911 13.7032L20.1991 20.1102C20.1428 20.6166 19.7148 20.9998 19.2052 20.9998Z" fill="#010E28"/>
</svg>