<svg width="24" height="24" viewBox="0 0 24 24" fill="none" xmlns="http://www.w3.org/2000/svg">
    <path fill-rule="evenodd" clip-rule="evenodd" d="M12.7574 2.16503C12.4456 2.04629 12.1134 1.99063 11.78 2.00129C11.4466 2.00107 11.1166 2.06807 10.8097 2.19829C10.5028 2.32851 10.2253 2.51928 9.99374 2.75919C9.76224 2.99909 9.58148 3.28322 9.46228 3.59457C9.34308 3.90592 9.28787 4.23811 9.29997 4.57129C9.31795 5.22852 9.58908 5.85341 10.0568 6.31551C10.5245 6.77762 11.1526 7.04122 11.81 7.05129C12.4917 7.04603 13.1438 6.7722 13.625 6.28921C14.1061 5.80622 14.3774 5.15301 14.38 4.47129C14.3735 4.13774 14.3009 3.8088 14.1664 3.50354C14.0318 3.19828 13.838 2.92277 13.5961 2.693C13.3542 2.46323 13.0692 2.28377 12.7574 2.16503ZM7.71324 4.27731C7.33985 3.91511 6.84002 3.71266 6.31982 3.71289C5.79962 3.71266 5.2998 3.91511 4.92641 4.27731C4.55301 4.6395 4.33543 5.13293 4.31982 5.65289C4.31982 6.18332 4.53054 6.69203 4.90561 7.0671C5.28068 7.44218 5.78939 7.65289 6.31982 7.65289C6.85026 7.65289 7.35896 7.44218 7.73404 7.0671C8.10911 6.69203 8.31982 6.18332 8.31982 5.65289C8.30422 5.13293 8.08663 4.6395 7.71324 4.27731ZM3 9.31133V14.8113C3.00262 14.9528 3.06067 15.0876 3.16165 15.1867C3.26264 15.2858 3.3985 15.3414 3.54 15.3413C3.6815 15.3413 3.81736 15.3968 3.91835 15.4959C4.01933 15.5951 4.07738 15.7299 4.08 15.8713V20.7413C4.08263 20.9252 4.15754 21.1007 4.28853 21.2299C4.41952 21.359 4.59607 21.4313 4.78 21.4313H7.69C7.77751 21.4327 7.86441 21.4166 7.94564 21.384C8.02688 21.3514 8.10082 21.303 8.16317 21.2416C8.22552 21.1802 8.27503 21.107 8.30882 21.0262C8.34261 20.9455 8.36001 20.8588 8.36 20.7713V16.6213C8.35884 16.5478 8.34266 16.4752 8.31245 16.4081C8.28224 16.341 8.23865 16.2808 8.18433 16.2312C8.13002 16.1816 8.06614 16.1436 7.99661 16.1195C7.92708 16.0955 7.85337 16.0859 7.78 16.0913C7.63678 16.0913 7.49943 16.0344 7.39816 15.9332C7.29689 15.8319 7.24 15.6945 7.24 15.5513V8.89133C7.23904 8.76267 7.19217 8.63858 7.10783 8.54142C7.0235 8.44425 6.90724 8.38039 6.78 8.36133H3.97C3.71844 8.36857 3.47886 8.47039 3.29907 8.64648C3.11927 8.82257 3.01248 9.05998 3 9.31133ZM15.9562 4.27731C16.3296 3.91511 16.8294 3.71266 17.3496 3.71289C17.8698 3.71266 18.3696 3.91511 18.743 4.27731C19.1164 4.6395 19.334 5.13293 19.3496 5.65289C19.3496 6.18332 19.1389 6.69203 18.7638 7.0671C18.3888 7.44218 17.88 7.65289 17.3496 7.65289C16.8192 7.65289 16.3105 7.44218 15.9354 7.0671C15.5603 6.69203 15.3496 6.18332 15.3496 5.65289C15.3652 5.13293 15.5828 4.6395 15.9562 4.27731ZM20.6696 9.31133V14.8113C20.667 14.9528 20.6089 15.0876 20.5079 15.1867C20.4069 15.2858 20.2711 15.3414 20.1296 15.3413C19.9881 15.3413 19.8522 15.3968 19.7512 15.4959C19.6502 15.5951 19.5922 15.7299 19.5896 15.8713V20.7413C19.5869 20.9252 19.512 21.1007 19.381 21.2299C19.2501 21.359 19.0735 21.4313 18.8896 21.4313H15.7296C15.6421 21.4327 15.5552 21.4166 15.4739 21.384C15.3927 21.3514 15.3188 21.303 15.2564 21.2416C15.1941 21.1802 15.1445 21.107 15.1107 21.0262C15.077 20.9455 15.0596 20.8588 15.0596 20.7713V16.6213C15.0622 16.4799 15.1202 16.3451 15.2212 16.2459C15.3222 16.1468 15.4581 16.0913 15.5996 16.0913C15.7996 16.0826 15.9896 16.0019 16.1348 15.8641C16.28 15.7262 16.3705 15.5406 16.3896 15.3413V8.89133C16.3922 8.74985 16.4502 8.61506 16.5512 8.51594C16.6522 8.41682 16.7881 8.3613 16.9296 8.36133H19.6996C19.9511 8.36857 20.1907 8.47039 20.3705 8.64648C20.5503 8.82257 20.6571 9.05998 20.6696 9.31133ZM8.77969 7.85156H11.7797H14.7897C14.9488 7.85156 15.1014 7.91478 15.214 8.0273C15.3265 8.13982 15.3897 8.29243 15.3897 8.45156V14.5516C15.3897 14.7107 15.3265 14.8633 15.214 14.9758C15.1014 15.0883 14.9488 15.1516 14.7897 15.1516C14.6306 15.1516 14.4779 15.2148 14.3654 15.3273C14.2529 15.4398 14.1897 15.5924 14.1897 15.7516V21.3516C14.1897 21.5107 14.1265 21.6633 14.014 21.7758C13.9014 21.8883 13.7488 21.9516 13.5897 21.9516H9.97969C9.82056 21.9516 9.66795 21.8883 9.55542 21.7758C9.4429 21.6633 9.37969 21.5107 9.37969 21.3516V15.7516C9.37969 15.5924 9.31647 15.4398 9.20395 15.3273C9.09143 15.2148 8.93882 15.1516 8.77969 15.1516C8.62056 15.1516 8.46795 15.0883 8.35542 14.9758C8.2429 14.8633 8.17969 14.7107 8.17969 14.5516V8.45156C8.17969 8.29243 8.2429 8.13982 8.35542 8.0273C8.46795 7.91478 8.62056 7.85156 8.77969 7.85156Z" fill="#3BBBE9"/>
</svg>
