<svg width="24" height="24" viewBox="0 0 24 24" fill="none" xmlns="http://www.w3.org/2000/svg">
<path d="M2.35326 11.3496L6.96167 13.0696L8.7454 18.8061C8.85953 19.1735 9.3088 19.3093 9.607 19.0655L12.1758 16.9714C12.4451 16.752 12.8286 16.741 13.11 16.9453L17.7432 20.3091C18.0622 20.541 18.5141 20.3662 18.5941 19.9807L21.9882 3.65463C22.0756 3.23356 21.6618 2.8823 21.2609 3.03736L2.34786 10.3334C1.88113 10.5134 1.88519 11.1742 2.35326 11.3496ZM8.45793 12.154L17.4645 6.6069C17.6263 6.5075 17.7929 6.72637 17.6539 6.8553L10.2209 13.7646C9.9596 14.0078 9.79107 14.3333 9.74334 14.6866L9.49014 16.563C9.4566 16.8135 9.10467 16.8384 9.03553 16.5959L8.06173 13.1742C7.9502 12.784 8.11273 12.3671 8.45793 12.154Z" fill="#919CB3"/>
</svg>
