<svg width="24" height="24" viewBox="0 0 24 24" fill="none" xmlns="http://www.w3.org/2000/svg">
    <path fill-rule="evenodd" clip-rule="evenodd" d="M18.9405 17.7969L19.1512 17.2788L15.9309 7.54887L15.0313 7.54561V7.87472C15.0313 7.87472 15.6498 7.8682 15.7497 7.87472C15.7841 7.98225 18.8139 17.2788 18.8139 17.2788L18.6053 17.7969H14.341V5.02679L18.6202 6.19985L19.1512 5.82838V3H4.78299V5.82512L5.34522 6.19659L9.59011 5.02679V17.8034H5.32411L5.11096 17.2788L8.1564 7.87472L8.90293 7.87798V7.54561H7.94088L4.77986 17.2788L4.98756 17.8034H3.95869C4.64357 15.7081 7.35261 7.43689 7.55985 7.06993H8.90297V6.19666L6.96325 6.20317L3.30087 16.9432H2.37795L2 17.9924H2.9027L2.92298 18.0514L2.49972 19.2926L4.0896 19.2991L4.41444 20.143H5.37025L4.82934 18.8005H5.38227L5.91371 20.143H6.33709L6.33859 20.1463H7.72856L8.06903 21H15.7998L16.2354 20.143H17.9862L18.5349 18.794H19.1087L18.5891 20.1398H19.5449L19.8354 19.2926H21.4377L21.0403 18.1282L21.1129 17.9859H22L21.5814 16.9399L20.6338 16.9371L16.968 6.19666L15.0282 6.20317V7.06993H16.3714C16.5785 7.43669 19.2966 15.6966 19.9863 17.7969H18.9405ZM18.1984 18.8077L17.715 19.8236H17.7894L18.1984 18.8077ZM17.3555 19.8236L17.8707 18.7973H14.341V18.9634L15.0282 19.8236H17.3555ZM13.7922 18.7973H11.9672L11.4112 17.9892L11.9672 17.2886L12.3951 17.7969H13.001L11.9702 16.4935L9.33527 19.8182L14.6058 19.8261L13.7922 18.7973ZM14.8538 20.1398H9.0804L9.07785 20.143H8.04844L8.25957 20.6742H15.6374L15.9137 20.143H14.8564L14.8538 20.1398ZM8.92326 19.8176L9.59011 18.9569V18.8005H6.04498L6.49164 19.8139L8.92326 19.8176ZM6.19182 19.8236L5.75266 18.8583L6.14485 19.8236H6.19182Z" fill="#010E28"/>
</svg>
