<svg width="24" height="24" viewBox="0 0 24 24" fill="none" xmlns="http://www.w3.org/2000/svg">
    <path fill-rule="evenodd" clip-rule="evenodd" d="M13 2L14.3306 3.73986L16.2539 2.69164L16.7618 4.82229L18.9452 4.64696L18.5426 6.8L20.6085 7.52786L19.3649 9.33102L20.9562 10.8362L19.0868 11.9777L19.9282 14L17.7561 14.2824L17.7023 16.4721L15.6031 15.8467L14.6633 17.8252L13 16.4L11.3367 17.8252L10.3969 15.8467L8.29772 16.4721L8.24387 14.2824L6.0718 14L6.91324 11.9777L5.04382 10.8362L6.63506 9.33102L5.39155 7.52786L7.45744 6.8L7.05484 4.64696L9.23817 4.82229L9.74611 2.69164L11.6694 3.73986L13 2ZM7.46438 14.7939L5 19.0624L8.09808 19.6963L10.1962 22.0624L12.8481 17.469L15.5001 22.0624L17.5982 19.6963L20.6963 19.0624L18.3459 14.9914L18.2896 17.2813L15.928 16.5777L14.8707 18.8035L12.9995 17.2002L11.1283 18.8035L10.071 16.5777L7.70944 17.2813L7.64887 14.8179L7.46438 14.7939ZM11.1241 13.7798C11.6154 13.9998 12.2204 14.1098 12.9391 14.1098C13.5698 14.1098 14.1308 14.0108 14.6221 13.8128C15.1208 13.6148 15.5094 13.3325 15.7881 12.9658C16.0741 12.5918 16.2171 12.1591 16.2171 11.6678C16.2171 10.9931 16.0228 10.4761 15.6341 10.1168C15.2454 9.75747 14.7211 9.53014 14.0611 9.4348L13.9841 9.4128L15.6121 7.9278C15.7294 7.83981 15.7881 7.7188 15.7881 7.56481V6.5858C15.7881 6.50514 15.7624 6.43914 15.7111 6.3878C15.6598 6.32914 15.5938 6.2998 15.5131 6.2998H10.3871C10.3064 6.2998 10.2404 6.32914 10.1891 6.3878C10.1378 6.43914 10.1121 6.50514 10.1121 6.5858V7.6748C10.1121 7.74814 10.1378 7.81414 10.1891 7.8728C10.2478 7.92414 10.3138 7.94981 10.3871 7.94981H13.4231L11.6521 9.4018C11.5274 9.48247 11.4651 9.60714 11.4651 9.77581V10.4248C11.4651 10.5055 11.4908 10.5751 11.5421 10.6338C11.6008 10.6851 11.6704 10.7108 11.7511 10.7108H12.9831C13.7164 10.7108 14.0831 10.9858 14.0831 11.5358C14.0831 11.8218 13.9841 12.0491 13.7861 12.2178C13.5881 12.3865 13.3094 12.4708 12.9501 12.4708C12.3194 12.4708 11.9344 12.2911 11.7951 11.9318C11.7511 11.8585 11.7034 11.8071 11.6521 11.7778C11.6008 11.7411 11.5311 11.7228 11.4431 11.7228H9.92511C9.85911 11.7228 9.80044 11.7448 9.74911 11.7888C9.70511 11.8328 9.68311 11.8878 9.68311 11.9538C9.69777 12.2838 9.81877 12.6138 10.0461 12.9438C10.2808 13.2738 10.6401 13.5525 11.1241 13.7798Z" fill="#718792"/>
</svg>