<svg width="24" height="24" viewBox="0 0 24 24" fill="none" xmlns="http://www.w3.org/2000/svg">
<path fill-rule="evenodd" clip-rule="evenodd" d="M8.40048 6.60002C8.40048 5.93729 8.93773 5.40002 9.60048 5.40002H14.4039C15.0666 5.40002 15.6039 5.93729 15.6039 6.60002V8.52205C15.6039 9.18479 15.0666 9.72205 14.4039 9.72205H12.3641V11.1628H15.9514L15.9602 11.1627L15.9689 11.1628H15.9704C16.1692 11.1628 16.3305 11.3241 16.3305 11.523C16.3305 11.5523 16.327 11.5808 16.3204 11.6081V12.6029H18.0003C18.663 12.6029 19.2003 13.1403 19.2003 13.8029V15.7249C19.2003 16.3877 18.663 16.9249 18.0003 16.9249H13.9173C13.2545 16.9249 12.7173 16.3877 12.7173 15.7249V13.8029C12.7173 13.1403 13.2545 12.6029 13.9173 12.6029H15.6V11.8832H8.40679V12.603H10.0831C10.7458 12.603 11.2831 13.1403 11.2831 13.803V15.7251C11.2831 16.3878 10.7458 16.9251 10.0831 16.9251H6.00005C5.33731 16.9251 4.80005 16.3878 4.80005 15.7251V13.803C4.80005 13.1403 5.33731 12.603 6.00005 12.603H7.68646V11.523C7.68646 11.3241 7.8477 11.1628 8.04663 11.1628H11.6438V9.72205H9.60048C8.93774 9.72205 8.40048 9.18479 8.40048 8.52205V6.60002Z" fill="#010E28"/>
</svg>
