<svg width="24" height="24" viewBox="0 0 24 24" fill="none" xmlns="http://www.w3.org/2000/svg">
<path fill-rule="evenodd" clip-rule="evenodd" d="M17 5V4C17.5523 4 18 3.55229 18 3C18 2.44772 17.5523 2 17 2L7 2C6.44772 2 6 2.44772 6 3C6 3.55228 6.44772 4 7 4V5H5C4.44772 5 4 5.44772 4 6L4 10C4 10.5523 4.44772 11 5 11H7.06913C7.33113 12.874 8.31703 14.4534 9.66999 15.3101C11.0229 16.1667 9 20 9 20H8C7.44771 20 7 20.4477 7 21C7 21.5523 7.44772 22 8 22H16C16.5523 22 17 21.5523 17 21C17 20.4477 16.5523 20 16 20H15C15 20 12.9771 16.1667 14.33 15.3101C15.683 14.4534 16.6689 12.874 16.9309 11L19 11C19.5523 11 20 10.5523 20 10V6C20 5.44772 19.5523 5 19 5H17ZM17 6V10L18 10C18.5523 10 19 9.55229 19 9V7C19 6.44772 18.5523 6 18 6H17ZM6 6H7L7 10H6C5.44772 10 5 9.55228 5 9L5 7C5 6.44772 5.44772 6 6 6ZM12.6735 7.07295L12 5L11.3265 7.07295H9.14683L10.9102 8.3541L10.2366 10.4271L12 9.1459L13.7634 10.4271L13.0898 8.3541L14.8532 7.07295H12.6735Z" fill="#3BBBE9"/>
</svg>
