<svg width="20" height="20" viewBox="0 0 20 20" fill="none" xmlns="http://www.w3.org/2000/svg">
<path fill-rule="evenodd" clip-rule="evenodd" d="M9.99992 1.66669C9.07944 1.66669 8.33325 2.41288 8.33325 3.33335H4.16659C3.70635 3.33335 3.33325 3.70645 3.33325 4.16669C3.33325 4.62692 3.70635 5.00002 4.16659 5.00002H15.8333C16.2935 5.00002 16.6666 4.62692 16.6666 4.16669C16.6666 3.70645 16.2935 3.33335 15.8333 3.33335H11.6666C11.6666 2.41288 10.9204 1.66669 9.99992 1.66669ZM15.8333 5.83335H4.16658L5.60183 16.5977C5.73431 17.5913 6.58188 18.3334 7.58429 18.3334H12.4156C13.418 18.3334 14.2655 17.5913 14.398 16.5977L15.8333 5.83335Z" fill="#3BBBE9"/>
</svg>
