<svg width="24" height="24" viewBox="0 0 24 24" fill="none" xmlns="http://www.w3.org/2000/svg">
<path fill-rule="evenodd" clip-rule="evenodd" d="M12 2C10.8954 2 10 2.89543 10 4H5C4.44772 4 4 4.44772 4 5C4 5.55228 4.44772 6 5 6H19C19.5523 6 20 5.55228 20 5C20 4.44772 19.5523 4 19 4H14C14 2.89543 13.1046 2 12 2ZM5 7H7.0177H16.9823H19L18.7333 9L17.2314 20.2643C17.0989 21.2579 16.2514 22 15.249 22H8.75103C7.74863 22 6.90106 21.2579 6.76858 20.2643L5.26667 9L5 7ZM8.75103 20L7.28437 9H16.7156L15.249 20H8.75103Z" fill="#919CB3"/>
</svg>
