<svg width="24" height="24" viewBox="0 0 24 24" fill="none" xmlns="http://www.w3.org/2000/svg">
<path fill-rule="evenodd" clip-rule="evenodd" d="M12.5157 3.39025C12.3533 2.86992 11.6467 2.86992 11.4843 3.39025L11.1478 4.46906C11.0752 4.70175 10.867 4.8593 10.6322 4.85931L9.54322 4.85935C9.018 4.85937 8.79963 5.55947 9.22452 5.88107L10.1055 6.54786C10.2955 6.69168 10.375 6.94659 10.3024 7.17929L9.96597 8.25813C9.80369 8.77847 10.3754 9.21115 10.8003 8.88959L11.6813 8.22287C11.8713 8.07906 12.1287 8.07906 12.3187 8.22287L13.1997 8.88959C13.6246 9.21115 14.1963 8.77847 14.034 8.25813L13.6976 7.17929C13.625 6.94659 13.7045 6.69168 13.8945 6.54786L14.7755 5.88107C15.2004 5.55947 14.982 4.85937 14.4568 4.85935L13.3678 4.85931C13.133 4.8593 12.9248 4.70175 12.8522 4.46906L12.5157 3.39025ZM10.2483 12.333L3 5C3 5 3.01697 7.94417 3.65898 9.66679C4.18839 11.0873 5.63593 13.0002 5.63593 13.0002L5.63608 13.0004C6.00004 12.6324 6.58994 12.6325 6.95381 13.0006C7.31768 13.3687 7.31776 13.9655 6.95404 14.3337L7.61237 14.9998L7.2839 15.3321C7.10192 15.5162 7.10192 15.8146 7.2839 15.9987C7.46587 16.1828 7.76091 16.1828 7.94288 15.9987L8.27232 15.6655L9.36365 16.7695L8.52207 17.6209C8.13382 18.0137 8.13382 18.6506 8.52207 19.0433L9.75203 20.2877C10.1403 20.6805 10.7698 20.6805 11.158 20.2877L11.9996 19.4363L12.8411 20.2877C13.2294 20.6805 13.8589 20.6805 14.2471 20.2877L15.4771 19.0433C15.8653 18.6506 15.8653 18.0137 15.4771 17.6209L14.6355 16.7695L15.7268 15.6655L16.0563 15.9987C16.2382 16.1828 16.5333 16.1828 16.7152 15.9987C16.8972 15.8146 16.8972 15.5162 16.7152 15.3321L16.3868 14.9998L17.0453 14.3335C16.6819 13.9653 16.682 13.3686 17.0458 13.0006C17.4096 12.6326 17.9993 12.6324 18.3633 13.0001C18.3757 12.9838 19.813 11.0812 20.3402 9.66679C20.9822 7.94417 20.9991 5 20.9991 5L13.7509 12.333L13.4203 11.9986C13.2384 11.8145 12.9433 11.8145 12.7614 11.9986C12.5794 12.1827 12.5794 12.4812 12.7614 12.6653L13.0909 12.9987L11.9996 14.1028L10.9082 12.9987L11.2378 12.6653C11.4198 12.4812 11.4198 12.1827 11.2378 11.9986C11.0558 11.8145 10.7608 11.8145 10.5788 11.9986L10.2483 12.333Z" fill="#919CB3"/>
</svg>
