<svg width="24" height="24" viewBox="0 0 24 24" fill="none" xmlns="http://www.w3.org/2000/svg">
<path d="M11.865 2C6.415 2 2 6.415 2 11.865C2 17.315 6.415 21.73 11.865 21.73C17.315 21.73 21.73 17.315 21.73 11.865C21.73 6.415 17.315 2 11.865 2ZM9.69 16.99C8.875 17.805 7.555 17.805 6.74 16.99C5.925 16.175 5.925 14.855 6.74 14.04C7.555 13.225 8.875 13.225 9.69 14.04C10.505 14.855 10.505 16.175 9.69 16.99ZM16.99 16.99C16.175 17.805 14.855 17.805 14.04 16.99C13.72 16.67 13.525 16.27 13.46 15.855C13.46 15.86 13.46 15.865 13.46 15.87C13.46 15.85 13.455 15.825 13.455 15.805C13.445 15.75 13.44 15.695 13.44 15.64C13.26 13.97 12.695 13.135 11.67 12.115C10.625 11.07 9.72 10.515 8.065 10.295C7.585 10.26 7.115 10.06 6.745 9.69C5.93 8.875 5.93 7.555 6.745 6.74C7.56 5.925 8.88 5.925 9.695 6.74C10.075 7.12 10.275 7.605 10.3 8.1C10.565 9.735 10.955 10.515 12.11 11.675C13.25 12.815 14.08 13.22 15.66 13.44C16.145 13.47 16.625 13.67 16.995 14.045C17.805 14.855 17.805 16.175 16.99 16.99ZM16.99 9.69C16.175 10.505 14.855 10.505 14.04 9.69C13.225 8.875 13.225 7.555 14.04 6.74C14.855 5.925 16.175 5.925 16.99 6.74C17.805 7.555 17.805 8.875 16.99 9.69Z" fill="white"/>
</svg>
