<svg width="20" height="20" viewBox="0 0 20 20" fill="none" xmlns="http://www.w3.org/2000/svg">
<path fill-rule="evenodd" clip-rule="evenodd" d="M2.5 3.5C2.5 2.94772 2.94772 2.5 3.5 2.5H16.5C17.0523 2.5 17.5 2.94772 17.5 3.5V13.1667C17.5 13.719 17.0523 14.1667 16.5 14.1667L11.6667 14.1667V15.8333H14.1667C14.6269 15.8333 15 16.2064 15 16.6667C15 17.1269 14.6269 17.5 14.1667 17.5H5.83333C5.3731 17.5 5 17.1269 5 16.6667C5 16.2064 5.3731 15.8333 5.83333 15.8333H8.33333V14.1667L3.5 14.1667C2.94772 14.1667 2.5 13.719 2.5 13.1667V3.5ZM12.5 8.33333L8.33333 10.8333L8.33333 5.83333L12.5 8.33333Z" fill="#3BBBE9"/>
</svg>
