<svg width="20" height="20" viewBox="0 0 20 20" fill="none" xmlns="http://www.w3.org/2000/svg">
    <path d="M18.017 6.87834C18.1079 6.81238 18.1975 6.74504 18.2884 6.67908C18.3108 6.67908 18.3108 6.70106 18.3332 6.70106C18.2884 6.79039 18.2422 6.87834 18.2198 6.96767C18.2422 6.96767 18.2646 6.94568 18.3108 6.92369C18.3332 7.05699 18.3332 7.16831 18.1975 7.27962C18.0617 7.39093 17.5413 7.8568 17.4279 7.99011L17.8351 7.67953L18.3094 7.27962V7.41292V8.87924C18.3094 8.94521 18.287 9.03453 18.2422 9.07851C15.5517 11.7212 12.7254 14.4312 10.0348 17.0739C9.8991 17.2072 9.83194 17.2291 9.69622 17.0739C9.58289 16.9406 9.42479 16.8073 9.28907 16.674C9.04002 16.4967 9.2443 16.4513 9.28907 16.296C9.22191 16.34 9.17574 16.362 9.13097 16.4074C9.13097 16.4074 8.97286 16.4074 8.97286 16.3854C9.04002 16.296 9.19952 16.0968 9.26668 16.0074C9.26668 16.0074 9.92288 15.2076 9.92288 15.1856C9.80955 15.275 8.95048 16.0968 8.85953 16.1847C8.79237 16.2507 8.76859 16.274 8.70143 16.1847C8.33905 15.8068 8.18094 15.6295 7.79618 15.2736L7.7514 15.2296C7.81856 15.0743 7.68425 15.007 7.5933 14.941C7.39042 14.7184 7.16376 14.5191 6.9371 14.2965L6.89233 14.2525C6.91471 14.2305 6.91471 14.1866 6.95949 14.1412C6.91471 14.0972 6.84616 14.0519 6.80138 14.0079C6.66566 13.8746 6.66566 13.8087 6.80138 13.6754L7.84235 12.6529L9.47096 11.0533C9.67384 10.854 9.92288 10.6754 10.1272 10.4761C10.3986 10.2095 10.6476 9.92092 10.9191 9.65432C11.122 9.43169 11.3486 9.23242 11.5529 9.00979L12.9325 7.65479C13.2263 7.3662 13.5425 7.12158 13.8377 6.85498C14.1315 6.56639 14.3806 6.25581 14.652 5.96584C14.8549 5.74322 15.0592 5.56594 15.2858 5.34331L15.3177 5.31004C15.6694 4.94323 16.0205 4.57707 16.394 4.23292C16.7563 3.87699 17.1397 3.54443 17.5021 3.1885C17.705 3.01122 17.8868 2.81058 18.0673 2.6333C18.1121 2.58933 18.2254 2.5 18.2702 2.5C18.2926 2.5 18.315 2.67728 18.315 2.74462C18.315 3.01122 18.3374 3.27782 18.315 3.54443C18.2926 3.7217 18.315 3.90035 18.315 4.07763C18.315 4.1436 18.2926 4.21093 18.2702 4.2769C18.0897 4.43219 17.5692 5.3653 18.2926 4.83209C18.315 4.87607 18.315 4.94341 18.315 4.98738V6.49768C18.315 6.54165 18.2926 6.60899 18.2478 6.63098L17.9649 6.90885C17.9887 6.89116 18.0094 6.87834 18.017 6.87834Z" fill="#010E28"/>
    <path d="M9.26528 3.63513C9.46956 3.43586 9.69622 3.23522 9.8991 3.05794C9.87531 3.03596 9.96626 2.88067 10.0796 2.948L10.102 3.25858L10.4182 3.08131C10.5091 3.12666 10.5091 3.25996 10.5091 3.32592C10.5091 3.39188 10.4867 3.45922 10.4644 3.5032C10.5777 3.5032 10.7134 3.48121 10.8491 3.48121C10.8729 3.48121 10.9177 3.5032 10.9401 3.52519C11.031 3.65849 11.0982 3.81378 11.1891 3.94708C11.1891 3.96907 11.2115 3.96907 11.2115 3.99106C11.1891 4.21368 11.3696 4.21368 11.5277 4.23567C11.641 4.25766 11.7544 4.36897 11.7991 4.48029C11.7991 4.52564 11.8677 4.54762 11.8901 4.5916C11.8677 4.63558 11.7991 4.68093 11.7544 4.74689C11.7082 4.81285 11.5725 4.99151 11.5277 5.05747C11.5277 5.05747 11.641 4.99013 11.7544 4.92417C11.8215 4.8582 11.8901 4.76888 11.9572 4.7249L11.9796 4.81423C11.9572 4.8582 11.753 5.01487 11.7306 5.08083V5.10282C11.7082 5.14679 11.4592 5.48074 11.5725 5.39141C11.6634 5.32407 12.0482 4.94615 12.1154 4.88019C12.1391 4.8582 12.1839 4.83622 12.2063 4.8582C12.2287 4.88157 12.2287 4.92554 12.2511 4.94753C12.4092 4.92417 12.3868 5.03548 12.5001 5.14679C12.6582 5.23612 12.8849 5.48074 12.952 5.76933C12.9744 5.79132 12.9968 5.79132 13.0192 5.8133C13.1773 5.74734 13.2221 5.76933 13.313 5.90263C13.3368 5.9466 13.3816 5.99195 13.404 6.03593C13.4264 6.08128 13.5173 6.05792 13.404 6.14724C13.2683 6.30253 13.1325 6.43584 12.9968 6.56914C11.753 7.81283 10.4867 9.03453 9.22051 10.2562C9.06241 10.4115 8.83575 10.5448 8.67764 10.7001C8.40621 10.9667 8.11239 11.2333 7.86334 11.4999C7.4338 11.9658 7.05043 12.455 6.55233 12.8549C6.46139 12.9209 6.37044 12.9662 6.30328 13.0322C6.1214 13.2095 5.96329 13.3881 5.7828 13.5874L5.76443 13.6074C5.56634 13.8234 5.36885 14.0386 5.14899 14.2319C4.08563 15.275 3.02368 16.3414 1.96033 17.3858C1.91555 17.4298 1.86938 17.4958 1.80222 17.4518C1.71268 17.4078 1.73506 17.3625 1.73506 17.2965C1.73506 15.8522 1.71268 14.5865 1.73506 13.1202C1.73506 12.9429 1.73506 12.6983 1.82601 12.587C1.82601 12.587 1.84839 12.587 1.84839 12.565C3.18178 11.0767 4.04226 10.2768 1.75745 12.187C1.73506 12.1417 1.75745 11.7198 1.75745 11.6758C1.75745 11.4766 1.77984 11.2759 1.73506 11.0767C1.73506 11.0327 1.73506 10.9873 1.77984 10.9434C3.49799 9.27777 5.21755 7.58883 6.91331 5.90125C7.0938 5.72398 7.32047 5.54533 7.50096 5.36805C7.70383 5.16741 7.88432 4.92279 8.11099 4.72353C8.36003 4.47891 8.63147 4.27965 8.88052 4.03503C9.01624 3.90173 9.12957 3.74644 9.26528 3.63513Z" fill="#010E28"/>
    <path d="M1.84703 2.56875C3.04609 3.74646 4.24515 4.92418 5.46519 6.10052C5.48898 6.12388 5.48898 6.12388 5.50856 6.14724L5.50857 6.14724L4.89854 6.74641C4.74044 6.61311 4.60472 6.47981 4.44661 6.32452H4.42423C4.51517 6.43584 4.58233 6.54578 4.67328 6.6351C4.83138 6.81238 4.83138 6.81238 4.65089 6.96767L2.23176 9.34374C2.20797 9.36572 2.1632 9.41107 2.14082 9.45505L1.68889 9.01117C1.6665 8.98781 1.6665 8.96582 1.6665 8.92184V5.61266C1.6665 5.61266 1.6665 5.59068 1.69029 5.56594C1.80362 5.69924 1.93934 5.81055 2.05267 5.94386L2.07506 5.92187C1.98411 5.81055 1.91695 5.70062 1.82601 5.61129C1.69029 5.47799 1.64552 5.34469 1.69029 5.14542C1.75745 5.21276 1.80362 5.30208 1.87078 5.36805L1.89317 5.34606C1.82601 5.25673 1.77984 5.16878 1.71268 5.07946C1.71268 5.07946 1.73506 5.07946 1.73506 5.05747L1.93794 5.25673C1.93794 5.25673 1.96033 5.25673 1.96033 5.23475C1.89177 5.14542 1.80082 5.05747 1.73366 4.96814C1.68889 4.90218 1.6665 4.83484 1.6665 4.76888V2.65804C1.6665 2.61406 1.68889 2.54672 1.73366 2.52474C1.75745 2.50275 1.82461 2.52474 1.84699 2.56871L1.84703 2.56875Z" fill="#010E28"/>
    <path d="M14.4212 13.876L17.7231 10.6328C17.8141 10.5654 17.8141 10.5654 17.8575 10.5448C18.0156 10.7001 18.1513 10.8554 18.3094 10.9887V11.0107V12.8989C18.3094 12.8989 18.3094 12.9209 18.287 12.9429C18.2184 12.8975 18.1051 12.7422 18.038 12.6983C18.038 12.7203 17.7441 12.4537 17.7441 12.4537C17.8127 12.5196 18.1751 12.9649 18.2422 13.0308C18.2646 13.0528 18.3094 13.1202 18.3094 13.1421V16.5626C18.1513 16.4293 17.4951 15.8961 17.3146 15.7408C17.3146 15.7408 17.6994 16.1407 17.677 16.1407C17.7679 16.2521 17.8798 16.34 17.9708 16.4513C18.0617 16.5407 18.1751 16.6286 18.2422 16.7179C18.2646 16.7413 18.2646 16.7853 18.2646 16.8073V17.2731C18.2422 17.4738 18.2646 17.4958 18.2198 17.4958C18.1737 17.5177 18.038 17.4504 17.9708 17.3844C17.5413 16.9406 17.0893 16.5187 16.6598 16.0968C15.914 15.3643 15.1669 14.6305 14.4212 13.92V13.876Z" fill="#010E28"/>
</svg>
