<svg width="24" height="24" viewBox="0 0 24 24" fill="none" xmlns="http://www.w3.org/2000/svg">
<path fill-rule="evenodd" clip-rule="evenodd" d="M16.5 3C14.0147 3 12 5.01472 12 7.5V10.2H4.8C3.80589 10.2 3 11.0059 3 12V19.2C3 20.1941 3.80589 21 4.8 21H15.6C16.5941 21 17.4 20.1941 17.4 19.2V12C17.4 11.0059 16.5941 10.2 15.6 10.2H13.8V7.5C13.8 6.00883 15.0088 4.8 16.5 4.8C17.9912 4.8 19.2 6.00883 19.2 7.5V8.4H21V7.5C21 5.01472 18.9853 3 16.5 3ZM11.0717 16.2752C11.6253 15.9682 12 15.3779 12 14.7C12 13.7059 11.1941 12.9 10.2 12.9C9.20589 12.9 8.4 13.7059 8.4 14.7C8.4 15.3779 8.77471 15.9682 9.3283 16.2752C9.30982 16.3471 9.3 16.4224 9.3 16.5V17.4C9.3 17.8971 9.70294 18.3 10.2 18.3C10.6971 18.3 11.1 17.8971 11.1 17.4V16.5C11.1 16.4224 11.0902 16.3471 11.0717 16.2752Z" fill="#010E28"/>
</svg>
