<svg width="24" height="24" viewBox="0 0 24 24" fill="none" xmlns="http://www.w3.org/2000/svg">
    <path fill-rule="evenodd" clip-rule="evenodd" d="M6 8C6 4.68629 8.68629 2 12 2C15.3137 2 18 4.68629 18 8H16C16 5.79086 14.2091 4 12 4C9.79086 4 8 5.79086 8 8V10H18C19.1046 10 20 10.8954 20 12V20C20 21.1046 19.1046 22 18 22H6C4.89543 22 4 21.1046 4 20V12C4 10.8954 4.89543 10 6 10V8ZM6 20V12H8H18V20H6ZM14 15C14 15.7532 13.5837 16.4091 12.9686 16.7502C12.9891 16.8301 13 16.9138 13 17V18C13 18.5523 12.5523 19 12 19C11.4477 19 11 18.5523 11 18V17C11 16.9138 11.0109 16.8301 11.0314 16.7502C10.4163 16.4091 10 15.7532 10 15C10 13.8954 10.8954 13 12 13C13.1046 13 14 13.8954 14 15Z" fill="#3BBBE9"/>
</svg>
