<svg width="24" height="24" viewBox="0 0 24 24" fill="none" xmlns="http://www.w3.org/2000/svg">
<path d="M20.98 8.99259C20.98 8.55212 21.025 7.07788 20.98 6.89809C20.9351 6.71831 20.8811 5.56768 20.8452 5.2171C20.8092 4.86651 20.6834 4.31817 20.6654 4.20131C20.6534 3.92058 20.605 3.6426 20.5216 3.37429C20.3879 3.18247 20.1848 3.05026 19.9552 3.00573C19.2261 2.98704 18.4966 3.01406 17.7709 3.08664L15.1999 3.22148C14.8583 3.22148 14.4898 3.22148 14.4898 3.22148C14.4898 3.22148 14.3459 3.37429 13.8066 3.41924C13.2672 3.46419 12.1795 3.57206 11.4963 3.58105C10.8131 3.59004 9.64454 3.55408 9.38385 3.51812H8.97034C8.78469 3.43084 8.59229 3.35869 8.39503 3.30238C8.01742 3.24019 7.63597 3.20415 7.25339 3.19451C7.05563 3.19451 6.84887 3.27541 6.76797 3.2844C6.68707 3.29339 4.36783 3.2844 4.36783 3.2844C4.0585 3.41399 3.75818 3.56415 3.4689 3.73386C3.25188 3.92042 3.0902 4.16294 3.00146 4.43503C2.99075 4.97205 3.03898 5.50862 3.14529 6.03512C3.24417 6.3048 3.43295 6.69134 3.37901 6.86213C3.2514 7.10563 3.22243 7.38891 3.29811 7.65319C3.41497 8.02175 3.18125 9.54993 3.23518 9.77466C3.28912 9.99939 3.57678 11.3478 3.58576 11.4736C3.59475 11.5995 3.31609 11.8152 3.29811 11.995C3.28013 12.1748 3.29811 13.9097 3.20821 14.2244C3.11832 14.539 3.07338 14.6289 3.1363 14.8446C3.30547 15.1598 3.39497 15.5117 3.39699 15.8694C3.25929 16.3657 3.17195 16.8747 3.1363 17.3886C3.1363 18.1527 3.2172 19.3123 3.22619 19.4921C3.239 19.6375 3.26305 19.7818 3.29811 19.9236C3.29811 20.0224 3.40598 20.2741 3.48688 20.3101C3.67126 20.3423 3.85984 20.3423 4.04422 20.3101C4.33469 20.2191 4.6419 20.1945 4.94315 20.2382C5.43344 20.2543 5.91338 20.3835 6.34547 20.6157C6.51199 20.7512 6.72507 20.8158 6.93877 20.7955C7.08114 20.8051 7.2241 20.7899 7.36126 20.7506C7.79986 20.5507 8.27303 20.4378 8.7546 20.418C9.59545 20.4654 10.4329 20.5614 11.2626 20.7056C11.5233 20.7056 11.9188 20.4719 12.0537 20.4629C12.1885 20.4539 12.9526 20.3191 13.1414 20.3191H13.6268C13.7957 20.2473 13.9745 20.2019 14.1572 20.1842C14.274 20.1842 14.6066 20.0494 14.9752 20.1033C15.3125 20.1749 15.6554 20.217 16 20.2292H17.2944C17.5389 20.1633 17.7885 20.1182 18.0405 20.0944C18.4752 20.0745 18.908 20.1641 19.299 20.355C19.6496 20.5438 19.7755 20.5888 19.9193 20.5798C20.0631 20.5708 20.3238 20.5798 20.3418 19.9146C20.3828 19.4839 20.4702 19.059 20.6025 18.6471C20.6025 18.3594 20.6474 15.8694 20.6834 15.6447C20.7472 15.3927 20.7983 15.1377 20.8362 14.8806C20.8362 14.6558 20.7733 14.3772 20.7733 14.1075C20.7733 13.8378 20.8362 12.4445 20.8362 12.4445C20.6543 12.0801 20.5765 11.6726 20.6115 11.2669C20.6924 10.6646 20.7643 10.4309 20.7733 10.2871C20.7823 10.1432 20.7283 9.76567 20.7733 9.72971C20.9022 9.50493 20.9732 9.25163 20.98 8.99259V8.99259ZM14.6875 5.45082C15.0448 5.08562 15.5028 4.83515 16.003 4.73135C16.5032 4.62756 17.023 4.67516 17.4961 4.86807C17.9692 5.06099 18.374 5.39047 18.659 5.81448C18.944 6.23848 19.0962 6.73779 19.0962 7.24867C19.0962 7.75956 18.944 8.25886 18.659 8.68287C18.374 9.10688 17.9692 9.43636 17.4961 9.62927C17.023 9.82219 16.5032 9.86978 16.003 9.76599C15.5028 9.6622 15.0448 9.41173 14.6875 9.04653C14.2197 8.56501 13.9579 7.92006 13.9579 7.24867C13.9579 6.57728 14.2197 5.93234 14.6875 5.45082V5.45082ZM9.29396 18.0808C8.93669 18.446 8.47873 18.6964 7.97849 18.8002C7.47826 18.904 6.95845 18.8564 6.48538 18.6635C6.01232 18.4706 5.60746 18.1411 5.32246 17.7171C5.03746 17.2931 4.88525 16.7938 4.88525 16.2829C4.88525 15.772 5.03746 15.2727 5.32246 14.8487C5.60746 14.4247 6.01232 14.0952 6.48538 13.9023C6.95845 13.7094 7.47826 13.6618 7.97849 13.7656C8.47873 13.8694 8.93669 14.1198 9.29396 14.485C9.76608 14.9643 10.0307 15.6101 10.0307 16.2829C10.0307 16.9557 9.76608 17.6015 9.29396 18.0808V18.0808ZM18.2832 18.0808C17.8039 18.5529 17.1582 18.8175 16.4854 18.8175C15.8126 18.8175 15.1668 18.5529 14.6875 18.0808C14.3089 17.6987 14.0577 17.2089 13.9684 16.6784V16.6155C13.9684 16.5526 13.9684 16.4807 13.9684 16.4177C13.9115 15.586 13.6899 14.7739 13.3164 14.0285C12.943 13.2832 12.4251 12.6194 11.793 12.0759C10.6391 10.7871 9.03924 9.98391 7.31632 9.8286C6.82307 9.79161 6.35096 9.61313 5.95662 9.31455C5.56227 9.01598 5.26243 8.60998 5.09304 8.14525C4.92366 7.68053 4.89193 7.17681 5.00166 6.69451C5.1114 6.2122 5.35793 5.77179 5.71169 5.42609C6.06546 5.08039 6.51144 4.84408 6.99615 4.7455C7.48085 4.64692 7.98371 4.69026 8.4444 4.87031C8.9051 5.05037 9.30407 5.35949 9.59348 5.76062C9.88288 6.16175 10.0504 6.63785 10.076 7.13181C10.2342 8.82693 11.0312 10.3984 12.3054 11.5276C13.4278 12.7874 14.9924 13.5665 16.6742 13.703C17.2955 13.7412 17.8811 14.0068 18.3192 14.4491C18.556 14.6895 18.743 14.9743 18.8695 15.2872C18.9959 15.6001 19.0593 15.9349 19.0559 16.2724C19.0526 16.6099 18.9826 16.9433 18.85 17.2537C18.7174 17.564 18.5248 17.8451 18.2832 18.0808Z" fill="white"/>
</svg>
