<svg xmlns="http://www.w3.org/2000/svg" width="20" height="20" viewBox="0 0 20 20" fill="none">
    <path d="M18.3874 7.62326L18.6614 4.99911L16.2504 3.92629C16.1716 3.89133 16.1087 3.82835 16.0737 3.74976L15.0012 1.33881L12.3766 1.61312C12.2914 1.62161 12.206 1.59853 12.1367 1.54845L10.0001 0L7.86345 1.54845C7.79403 1.59853 7.70864 1.62161 7.6236 1.61312L4.99877 1.33881L3.92629 3.74976C3.8915 3.82835 3.82852 3.89133 3.74976 3.92596L1.33881 4.99911L1.61279 7.62326C1.62161 7.70847 1.5987 7.79403 1.54845 7.86345L0 10.0001L1.54845 12.1367C1.5987 12.2061 1.62161 12.2917 1.61279 12.3769L1.33881 15.0009L3.74976 16.0737C3.82835 16.1087 3.89133 16.1716 3.92629 16.2504L4.99877 18.6614L7.6236 18.387C7.63531 18.387 7.64753 18.3852 7.65823 18.3852C7.73156 18.3852 7.80285 18.4084 7.8621 18.4517L10.0001 20L12.1367 18.4517C12.206 18.4013 12.2914 18.3782 12.3766 18.387L15.0012 18.6614L16.0737 16.2504C16.1087 16.1716 16.1716 16.1088 16.2504 16.074L18.6614 15.0009L18.3874 12.3769C18.3784 12.2917 18.4013 12.2061 18.4517 12.1367L20 10.0001L18.4517 7.86345C18.4013 7.79403 18.3784 7.70847 18.3874 7.62326ZM15.0433 7.53414L8.16001 14.4176C8.02421 14.5533 7.80421 14.5533 7.66841 14.4176L4.71682 11.466C4.65146 11.4009 4.6148 11.3122 4.6148 11.2199C4.6148 11.1276 4.65146 11.0389 4.71682 10.9738L5.70068 9.99346C5.83631 9.85817 6.05597 9.85817 6.1916 9.99346L7.91421 11.7125L13.5679 6.05885C13.7037 5.92305 13.9237 5.92305 14.0595 6.05885L15.0433 7.04255C15.1791 7.17835 15.1791 7.39851 15.0433 7.53414Z" fill="#28C772"/>
</svg>