<svg width="24" height="24" viewBox="0 0 24 24" fill="none" xmlns="http://www.w3.org/2000/svg">
<path fill-rule="evenodd" clip-rule="evenodd" d="M17.5563 3.68472C17.0973 3.37751 16.4762 3.50052 16.169 3.95947C15.8618 4.41842 15.9848 5.03952 16.4437 5.34674C18.5902 6.78356 20 9.22743 20 12.0002C20 14.7729 18.5902 17.2168 16.4437 18.6536C15.9848 18.9608 15.8618 19.5819 16.169 20.0409C16.4762 20.4998 17.0973 20.6229 17.5563 20.3156C20.2337 18.5234 22 15.4683 22 12.0002C22 8.5321 20.2337 5.47695 17.5563 3.68472ZM15.3175 7.00003C14.8575 6.69433 14.2369 6.81939 13.9312 7.27936C13.6255 7.73933 13.7505 8.36002 14.2105 8.66571C15.2912 9.38394 16 10.6095 16 12.0001C16 13.3907 15.2912 14.6162 14.2105 15.3345C13.7505 15.6402 13.6255 16.2608 13.9312 16.7208C14.2369 17.1808 14.8575 17.3058 15.3175 17.0001C16.9322 15.927 18 14.0885 18 12.0001C18 9.91172 16.9322 8.07317 15.3175 7.00003ZM2 10C2 8.89543 2.89543 8 4 8H6L10.4453 5.03647C11.1099 4.59343 12 5.06982 12 5.86852V18.1315C12 18.9302 11.1099 19.4066 10.4453 18.9635L6 16H4C2.89543 16 2 15.1046 2 14V10Z" fill="white"/>
</svg>
