<svg width="24" height="24" viewBox="0 0 24 24" fill="none" xmlns="http://www.w3.org/2000/svg">
<path fill-rule="evenodd" clip-rule="evenodd" d="M3 4.91705C3 3.81248 3.89543 2.91705 5 2.91705H19C20.1046 2.91705 21 3.81248 21 4.91705V6.80646H14C12.8954 6.80646 12 7.70189 12 8.80646V14.53C12 15.6345 12.8954 16.53 14 16.53H21V18.4194C21 19.5239 20.1046 20.4194 19 20.4194H5C3.89543 20.4194 3 19.5239 3 18.4194V4.91705ZM17 13.6129C18.1046 13.6129 19 12.7422 19 11.6682C19 10.5942 18.1046 9.72351 17 9.72351C15.8954 9.72351 15 10.5942 15 11.6682C15 12.7422 15.8954 13.6129 17 13.6129Z" fill="#010E28"/>
</svg>
