<svg width="24" height="24" viewBox="0 0 24 24" fill="none" xmlns="http://www.w3.org/2000/svg">
<path fill-rule="evenodd" clip-rule="evenodd" d="M12 22C17.5228 22 22 17.5228 22 12C22 6.47715 17.5228 2 12 2C6.47715 2 2 6.47715 2 12C2 17.5228 6.47715 22 12 22ZM10.3331 5.33328H13.6664V13.6666H10.3331V5.33328ZM13.6665 17C13.6665 17.9204 12.9203 18.6666 11.9999 18.6666C11.0794 18.6666 10.3332 17.9204 10.3332 17C10.3332 16.0795 11.0794 15.3333 11.9999 15.3333C12.9203 15.3333 13.6665 16.0795 13.6665 17Z" fill="#FF9F21"/>
</svg>
