<svg width="24" height="24" viewBox="0 0 24 24" fill="none" xmlns="http://www.w3.org/2000/svg">
<path fill-rule="evenodd" clip-rule="evenodd" d="M19.0926 13.5331C19.8467 13.6776 20.5944 13.8208 21.1456 14.3718L21.1461 14.3733C22.1949 15.4221 22.0503 17.2149 20.8518 18.0857C19.536 19.0405 17.6032 18.4174 17.0949 16.872C16.9982 16.5786 16.9581 16.2717 16.9178 15.9642C16.8817 15.6881 16.8455 15.4114 16.7682 15.1435C16.6214 14.6336 16.3883 14.1526 16.079 13.7215C15.4291 12.8122 14.5158 11.9252 13.5075 11.4256C13.0507 11.1991 12.5412 11.0948 12.0359 10.9913C11.1835 10.8168 10.3427 10.6446 9.78549 9.89279C9.02997 8.87329 9.20393 7.39714 10.1648 6.57436C11.2369 5.65904 12.9148 5.86284 13.7376 7.00674C14.0566 7.45101 14.1419 7.95367 14.2289 8.4667C14.2618 8.66027 14.2949 8.85532 14.3409 9.04927C14.456 9.57347 14.6507 10.0769 14.9184 10.5421C15.5207 11.552 16.5139 12.5412 17.5597 13.0848C18.0299 13.3294 18.5628 13.4315 19.0926 13.5331ZM11.7507 13.6552C11.1846 13.6553 10.6362 13.8517 10.1987 14.2109C9.76126 14.57 9.46185 15.0697 9.35152 15.6249C9.24118 16.18 9.32675 16.7563 9.59363 17.2554C9.86051 17.7546 10.2922 18.1457 10.8152 18.3623C11.3381 18.5788 11.92 18.6073 12.4616 18.443C13.0032 18.2786 13.4711 17.9316 13.7855 17.4609C14.0999 16.9903 14.2415 16.4252 14.186 15.8619C14.1305 15.2986 13.8814 14.772 13.4812 14.3718C13.2546 14.1438 12.985 13.963 12.688 13.84C12.3911 13.717 12.0726 13.6542 11.7512 13.6552H11.7507ZM4.44729 13.6552C3.88113 13.6552 3.33246 13.8514 2.89479 14.2106C2.45711 14.5697 2.15752 15.0695 2.04704 15.6248C1.93657 16.1801 2.02206 16.7565 2.28894 17.2558C2.55582 17.7552 2.98758 18.1465 3.51065 18.3631C4.03372 18.5798 4.61574 18.6084 5.15752 18.444C5.6993 18.2797 6.16733 17.9325 6.48185 17.4617C6.79638 16.991 6.93793 16.4257 6.8824 15.8623C6.82686 15.2989 6.57768 14.7721 6.1773 14.3718C5.95065 14.1439 5.68104 13.9632 5.38408 13.8402C5.08712 13.7172 4.76872 13.6543 4.44729 13.6552Z" fill="#010E28"/>
</svg>
