<svg width="24" height="24" viewBox="0 0 24 24" fill="none" xmlns="http://www.w3.org/2000/svg">
<path fill-rule="evenodd" clip-rule="evenodd" d="M5.69325 2L6.5645 4.76382L9.38357 4.76393L7.10295 6.47218L7.974 9.23607L5.69325 7.528L3.41251 9.23607L4.28355 6.47218L2.00293 4.76393L4.82201 4.76382L5.69325 2ZM18.4272 12.8757L19.2984 15.6396L22.1175 15.6397L19.8369 17.3479L20.7079 20.1118L18.4272 18.4037L16.1464 20.1118L17.0175 17.3479L14.7368 15.6397L17.5559 15.6396L18.4272 12.8757ZM19.0709 4.92903C18.6804 4.53851 18.0472 4.53851 17.6567 4.92903L4.92874 17.657C4.53822 18.0475 4.53822 18.6806 4.92874 19.0712C5.31927 19.4617 5.95243 19.4617 6.34295 19.0712L19.0709 6.34324C19.4614 5.95272 19.4614 5.31955 19.0709 4.92903Z" fill="#010E28"/>
</svg>
