<svg width="24" height="24" viewBox="0 0 24 24" fill="none" xmlns="http://www.w3.org/2000/svg">
<path d="M21.15 6.28485C20.6075 5.34909 20.0188 5.17697 18.82 5.11152C17.6225 5.03273 14.6112 5 12.0025 5C9.38875 5 6.37625 5.03273 5.18 5.1103C3.98375 5.17697 3.39375 5.34788 2.84625 6.28485C2.2875 7.21939 2 8.82909 2 11.663C2 11.6655 2 11.6667 2 11.6667C2 11.6691 2 11.6703 2 11.6703V11.6727C2 14.4945 2.2875 16.1164 2.84625 17.0412C3.39375 17.977 3.9825 18.1467 5.17875 18.2255C6.37625 18.2933 9.38875 18.3333 12.0025 18.3333C14.6112 18.3333 17.6225 18.2933 18.8212 18.2267C20.02 18.1479 20.6087 17.9782 21.1513 17.0424C21.715 16.1176 22 14.4958 22 11.6739C22 11.6739 22 11.6703 22 11.6679C22 11.6679 22 11.6655 22 11.6642C22 8.82909 21.715 7.21939 21.15 6.28485ZM9.5 15.303V8.0303L15.75 11.6667L9.5 15.303Z" fill="#FF0000"/>
</svg>
