<svg width="234" height="230" viewBox="0 0 234 230" fill="none" xmlns="http://www.w3.org/2000/svg">
<path d="M66.539 220.942C88.0032 204.128 88.0032 171.932 66.539 155.118C51.8718 143.671 30.7653 143.671 16.0981 155.118C-5.36605 171.932 -5.36605 204.128 16.0981 220.942C30.7653 232.389 51.8718 232.389 66.539 220.942Z" fill="#010E28"/>
<path d="M190.326 146.551C159.985 142.269 143.696 130.999 124.139 111.117C104.184 91.162 92.8869 73.6808 87.9472 43.726C88.4529 34.0638 85.61 24.2478 79.4188 16.3153C62.6052 -5.14893 30.4088 -5.14893 13.5952 16.3153C2.50532 30.9825 2.50532 52.089 13.5952 66.7562C21.8003 77.2308 33.6688 82.5938 45.6251 82.8451C77.4903 88.4992 92.9131 96.3467 115.911 119.345C136.975 140.409 145.606 156.223 150.545 183.057C148.893 196.89 154.16 211.395 166.347 220.942C181.014 232.389 202.121 232.389 216.788 220.942C238.252 204.128 238.252 171.932 216.788 155.118C209.115 149.129 199.679 146.274 190.326 146.551Z" fill="#010E28"/>
<path d="M220.986 12.259C232.257 23.5298 235.756 39.6293 231.484 53.8983C229.251 62.2977 224.352 70.1333 216.788 76.0585C202.121 87.506 181.014 87.506 166.347 76.0585C161.676 72.3994 158.022 68.0119 155.384 63.2128C145.84 47.1507 147.977 26.0762 161.795 12.259C178.14 -4.08635 204.641 -4.08631 220.986 12.259Z" fill="#010E28"/>
</svg>
