<svg width="128" height="128" viewBox="0 0 128 128" fill="none" xmlns="http://www.w3.org/2000/svg">
    <g clip-path="url(#clip0)">
        <path d="M109.359 7.78929L117.023 36.3899C124.921 34.2736 129.608 26.1557 127.492 18.258C125.375 10.3603 117.258 5.6733 109.359 7.78929Z" fill="#BCE8F7"/>
        <path d="M3.64113 58.7255L13.7002 56.0303L10.06 42.4443L0.000934142 45.1394L3.64113 58.7255Z" fill="#444242"/>
        <path d="M117.024 36.3897C124.922 34.2735 129.609 26.1555 127.492 18.2578L113.192 22.0895L117.024 36.3897Z" fill="#8EC1D6"/>
        <path d="M11.8804 49.2355L1.82129 51.9307L3.64103 58.7223L13.7001 56.0272L11.8804 49.2355Z" fill="#3A3839"/>
        <path d="M13.1512 61.2706L59.6201 48.8198L53.4336 25.7304L6.96467 38.1811L13.1512 61.2706Z" fill="#EDEEF0"/>
        <path d="M59.618 48.8181L56.5249 37.2739L10.056 49.7247L13.1491 61.2688L59.618 48.8181Z" fill="#DCDEE2"/>
        <path d="M53.4338 25.7288L47.2881 27.3755L53.4746 50.465L59.6203 48.8183L53.4338 25.7288Z" fill="#B7B9C0"/>
        <path d="M59.62 48.8171L56.5269 37.2729L50.3811 38.9196L53.4742 50.4638L59.62 48.8171Z" fill="#9B9DA6"/>
        <path d="M58.0343 52.7668L123.365 35.2622L115.417 5.59888L50.0864 23.1034L58.0343 52.7668Z" fill="#EDEEF0"/>
        <path d="M103.57 8.76951L99.8892 9.75586L107.837 39.4192L111.518 38.4329L103.57 8.76951Z" fill="#444242"/>
        <path d="M115.42 5.59377L109.095 7.28857L117.043 36.9519L123.368 35.2571L115.42 5.59377Z" fill="#444242"/>
        <path d="M123.366 35.26L119.392 20.4297L54.0612 37.9342L58.0348 52.7646L123.366 35.26Z" fill="#DCDEE2"/>
        <path d="M107.544 23.603L103.863 24.5894L107.836 39.4197L111.518 38.4334L107.544 23.603Z" fill="#3A3839"/>
        <path d="M123.37 35.2605L119.396 20.4302L113.071 22.125L117.045 36.9553L123.37 35.2605Z" fill="#3A3839"/>
        <path d="M52.7477 44.8315L19.9619 120.384L24.6226 122.407L36.1148 95.924H50.4177V121.396H52.7482H55.0787V95.924H69.3816L80.8738 122.407L85.5345 120.384L52.7477 44.8315ZM50.4175 90.8438H38.3193L50.4175 62.9639V90.8438ZM55.0785 90.8438V62.9639L67.1766 90.8438H55.0785Z" fill="#444242"/>
        <path d="M52.7471 44.8315V121.396H55.0776V95.9243H69.3805L80.8724 122.407L85.5329 120.384L52.7471 44.8315ZM55.0778 90.844V62.9642L67.176 90.8438H55.0778V90.844Z" fill="#3A3839"/>
        <path d="M52.9566 57.7853C56.8539 57.7853 60.0133 54.6259 60.0133 50.7286C60.0133 46.8313 56.8539 43.6719 52.9566 43.6719C49.0593 43.6719 45.8999 46.8313 45.8999 50.7286C45.8999 54.6259 49.0593 57.7853 52.9566 57.7853Z" fill="#F9D026"/>
        <path d="M52.9564 54.7034C55.1517 54.7034 56.9314 52.9237 56.9314 50.7284C56.9314 48.5331 55.1517 46.7534 52.9564 46.7534C50.7611 46.7534 48.9814 48.5331 48.9814 50.7284C48.9814 52.9237 50.7611 54.7034 52.9564 54.7034Z" fill="#E7C224"/>
    </g>
    <defs>
        <clipPath id="clip0">
            <rect width="128" height="128" fill="white"/>
        </clipPath>
    </defs>
</svg>
