<svg width="18" height="10" viewBox="0 0 18 10" fill="none" xmlns="http://www.w3.org/2000/svg">
<path d="M7.87661 7.68104L0.732358 0.133284C0.564146 -0.0444282 0.294371 -0.0444282 0.126159 0.133284C-0.0420531 0.310997 -0.0420531 0.596008 0.126159 0.77372L6.96573 7.99958L0.126159 15.2254C-0.0420531 15.4032 -0.0420531 15.6882 0.126159 15.8659C0.208678 15.9531 0.319762 16 0.427671 16C0.535581 16 0.646665 15.9564 0.729184 15.8659L7.87344 8.31812C8.04165 8.14376 8.04165 7.8554 7.87661 7.68104Z" transform="translate(17 1) rotate(90)" fill="#010E28"/>
<path d="M7.9674 7.59511L0.823139 0.047356C0.605617 -0.182452 0.2529 -0.182452 0.0353775 0.047356C-0.178459 0.27327 -0.178459 0.633735 0.0353775 0.859649L6.79361 7.99958L0.0353775 15.1395C-0.178459 15.3654 -0.178459 15.7259 0.0353775 15.9518C0.140611 16.063 0.284139 16.125 0.427671 16.125C0.568684 16.125 0.713477 16.0681 0.820707 15.951L7.9634 8.40491C7.96356 8.40475 7.96371 8.40459 7.96387 8.40443C8.17823 8.18171 8.17801 7.81762 7.9674 7.59511Z" transform="translate(17 1) rotate(90)" stroke="#010E28" stroke-width="0.25"/>
</svg>
