<svg width="24" height="24" viewBox="0 0 24 24" fill="none" xmlns="http://www.w3.org/2000/svg">
    <path d="M3.27791 5.9609C2.90736 6.33145 2.90736 6.93222 3.27791 7.30276L6.75171 10.7766C6.95875 10.9836 7.24979 11.0835 7.54033 11.0471L8.69578 10.9027C8.57899 11.3158 8.45336 11.8117 8.34406 12.3582C8.0421 13.868 7.83245 15.9152 8.41626 17.6667C8.79622 18.8066 9.19421 19.6025 9.87814 20.5904C10.1764 21.0213 10.7675 21.1288 11.1984 20.8305C11.6292 20.5322 11.7367 19.9411 11.4384 19.5103C10.8568 18.6702 10.5397 18.0359 10.2166 17.0666C9.79397 15.7988 9.91978 14.1559 10.2049 12.7304C10.3438 12.036 10.5129 11.429 10.6472 10.9962C10.6776 10.8983 10.7061 10.8095 10.732 10.731C10.8105 10.7051 10.8992 10.6766 10.9972 10.6462C11.43 10.5119 12.037 10.3428 12.7313 10.2039C14.1569 9.91882 15.7998 9.793 17.0675 10.2156C18.0368 10.5387 18.6712 10.8559 19.5112 11.4374C19.9421 11.7357 20.5332 11.6282 20.8314 11.1974C21.1297 10.7665 21.0222 10.1755 20.5914 9.87718C19.6035 9.19324 18.8075 8.79526 17.6676 8.41529C15.9162 7.83148 13.869 8.04113 12.3592 8.34309C11.8126 8.45242 11.3166 8.57807 10.9035 8.69488L11.0479 7.5396C11.0842 7.24906 10.9843 6.95802 10.7773 6.75098L7.3035 3.27718C6.93295 2.90663 6.33218 2.90663 5.96163 3.27718L7.97962 7.02487C8.22072 7.02618 8.46141 7.11881 8.64536 7.30276C9.0159 7.67331 9.0159 8.27408 8.64536 8.64463C8.27481 9.01517 7.67404 9.01517 7.3035 8.64463C7.11954 8.46068 7.02691 8.21999 7.0256 7.97889L3.27791 5.9609Z" fill="#919CB3"/>
</svg>
