<svg width="24" height="24" viewBox="0 0 24 24" fill="none" xmlns="http://www.w3.org/2000/svg">
    <path fill-rule="evenodd" clip-rule="evenodd" d="M8.41239 18.2438L13.7706 12.5829C14.0766 12.2596 14.0775 11.7405 13.7669 11.4163L8.41251 5.75951C8.2518 5.58566 8.03387 5.5 7.82075 5.5C7.59733 5.5 7.38424 5.59551 7.23149 5.75688C6.92284 6.08297 6.92284 6.59854 7.23149 6.92463L12.0358 12.0003L7.23149 17.076C6.92284 17.4021 6.92284 17.9177 7.23149 18.2438C7.55489 18.5854 8.08899 18.5854 8.41239 18.2438ZM12.4124 18.2438L17.7706 12.5829C18.0766 12.2596 18.0775 11.7405 17.7669 11.4163L12.4125 5.75951C12.2518 5.58566 12.0339 5.5 11.8208 5.5C11.5973 5.5 11.3842 5.59551 11.2315 5.75688C10.9228 6.08297 10.9228 6.59854 11.2315 6.92463L16.0358 12.0003L11.2315 17.076C10.9228 17.4021 10.9228 17.9177 11.2315 18.2438C11.5549 18.5854 12.089 18.5854 12.4124 18.2438Z" fill="#718792"/>
</svg>