<svg width="24" height="16" viewBox="0 0 24 16" fill="none" xmlns="http://www.w3.org/2000/svg">
    <path d="M23.9158 11.7128L21.0653 2.77645C21.0066 2.58815 20.9127 2.41267 20.7887 2.25927C20.4309 1.62676 19.9233 1.09178 19.3105 0.701301C18.6976 0.310826 17.9983 0.0768088 17.2738 0.019804C16.5494 -0.0372007 15.8221 0.0845511 15.1557 0.374366C14.4893 0.66418 13.9043 1.11319 13.452 1.68196H10.4692C10.0128 1.10594 9.42054 0.652279 8.74553 0.361689C8.07052 0.0710996 7.33391 -0.0473185 6.60183 0.0170661C5.86976 0.0814508 5.16512 0.326623 4.5512 0.730572C3.93727 1.13452 3.43326 1.6846 3.08442 2.33144C3.01226 2.45171 2.96415 2.57198 2.90401 2.69226V2.76442V2.84861L2.77171 3.2816L0.101636 11.7007C-0.038909 12.0912 -0.0335325 12.5193 0.116774 12.9062C0.267081 13.293 0.55218 13.6124 0.919496 13.8055L4.5277 15.2608C4.71684 15.3292 4.91817 15.3572 5.11879 15.3432C5.3194 15.3292 5.51487 15.2734 5.69266 15.1794C5.87045 15.0854 6.02663 14.9553 6.1512 14.7974C6.27576 14.6395 6.36595 14.4573 6.416 14.2626L6.84898 12.8674C6.94787 12.5148 7.15597 12.2027 7.44338 11.9758C7.73079 11.7489 8.08272 11.6189 8.44862 11.6045H15.4726C15.839 11.617 16.1919 11.7463 16.4796 11.9735C16.7674 12.2007 16.975 12.5139 17.0722 12.8674L17.5172 14.2626C17.5659 14.4569 17.6547 14.6389 17.7781 14.7967C17.9015 14.9545 18.0566 15.0847 18.2335 15.1788C18.4103 15.2729 18.6049 15.3288 18.8048 15.343C19.0046 15.3571 19.2052 15.3291 19.3935 15.2608L23.0017 13.8055C23.3837 13.629 23.6878 13.3184 23.8562 12.9328C24.0247 12.5471 24.0459 12.113 23.9158 11.7128ZM8.36443 6.37263H7.4744V7.28671C7.4744 7.47331 7.40027 7.65227 7.26832 7.78422C7.13637 7.91618 6.95741 7.99031 6.7708 7.99031C6.5842 7.99031 6.40523 7.91618 6.27328 7.78422C6.14133 7.65227 6.0672 7.47331 6.0672 7.28671V6.37263H5.16515C4.98221 6.37265 4.80657 6.30081 4.67609 6.17258C4.5456 6.04435 4.47072 5.86999 4.46757 5.68707C4.46757 5.50206 4.54106 5.32462 4.67188 5.1938C4.80271 5.06298 4.98014 4.98948 5.16515 4.98948H6.0672V4.06337C6.0672 3.87677 6.14133 3.6978 6.27328 3.56585C6.40523 3.4339 6.5842 3.35977 6.7708 3.35977C6.95741 3.35977 7.13637 3.4339 7.26832 3.56585C7.40027 3.6978 7.4744 3.87677 7.4744 4.06337V4.96543H8.36443C8.54735 4.96858 8.72171 5.04347 8.84994 5.17395C8.97817 5.30443 9.05001 5.48007 9.04999 5.66301C9.05322 5.75504 9.03787 5.84679 9.00487 5.93276C8.97187 6.01873 8.92188 6.09717 8.8579 6.1634C8.79391 6.22963 8.71724 6.28229 8.63246 6.31824C8.54767 6.35419 8.45652 6.37268 8.36443 6.37263ZM14.9915 6.56506C14.8131 6.56506 14.6387 6.51216 14.4903 6.41304C14.342 6.31392 14.2264 6.17304 14.1581 6.00821C14.0898 5.84338 14.072 5.66201 14.1068 5.48703C14.1416 5.31205 14.2275 5.15132 14.3537 5.02517C14.4798 4.89901 14.6405 4.8131 14.8155 4.77829C14.9905 4.74349 15.1719 4.76135 15.3367 4.82963C15.5015 4.8979 15.6424 5.01352 15.7415 5.16186C15.8406 5.3102 15.8936 5.4846 15.8936 5.66301C15.8967 5.78247 15.8762 5.90138 15.833 6.01283C15.7899 6.12427 15.725 6.22603 15.6422 6.31219C15.5594 6.39836 15.4603 6.46721 15.3507 6.51475C15.241 6.56229 15.123 6.58757 15.0035 6.58912L14.9915 6.56506ZM16.988 8.32106C16.8096 8.32106 16.6352 8.26815 16.4869 8.16903C16.3385 8.06992 16.2229 7.92903 16.1547 7.76421C16.0864 7.59938 16.0685 7.418 16.1033 7.24302C16.1381 7.06804 16.224 6.90731 16.3502 6.78116C16.4763 6.655 16.6371 6.56909 16.8121 6.53429C16.987 6.49948 17.1684 6.51734 17.3332 6.58562C17.4981 6.65389 17.639 6.76951 17.7381 6.91785C17.8372 7.06619 17.8901 7.2406 17.8901 7.41901C17.887 7.65409 17.7922 7.87866 17.626 8.0449C17.4597 8.21115 17.2351 8.30592 17.0001 8.30903L16.988 8.32106ZM16.988 4.84515C16.8096 4.84515 16.6352 4.79225 16.4869 4.69313C16.3385 4.59401 16.2229 4.45313 16.1547 4.2883C16.0864 4.12347 16.0685 3.9421 16.1033 3.76712C16.1381 3.59214 16.224 3.43141 16.3502 3.30525C16.4763 3.1791 16.6371 3.09319 16.8121 3.05838C16.987 3.02358 17.1684 3.04144 17.3332 3.10971C17.4981 3.17799 17.639 3.29361 17.7381 3.44195C17.8372 3.59029 17.8901 3.76469 17.8901 3.9431C17.887 4.17818 17.7922 4.40276 17.626 4.569C17.4597 4.73524 17.2351 4.83001 17.0001 4.83313L16.988 4.84515ZM18.9966 6.58912C18.8182 6.58912 18.6438 6.53621 18.4955 6.4371C18.3471 6.33798 18.2315 6.1971 18.1632 6.03227C18.0949 5.86744 18.0771 5.68607 18.1119 5.51109C18.1467 5.33611 18.2326 5.17537 18.3588 5.04922C18.4849 4.92307 18.6456 4.83715 18.8206 4.80235C18.9956 4.76754 19.177 4.78541 19.3418 4.85368C19.5066 4.92196 19.6475 5.03757 19.7466 5.18591C19.8458 5.33426 19.8987 5.50866 19.8987 5.68707C19.8987 5.92631 19.8036 6.15575 19.6345 6.32491C19.4653 6.49408 19.2358 6.58912 18.9966 6.58912Z" fill="white"/>
</svg>
