<svg width="16" height="16" viewBox="0 0 16 16" xmlns="http://www.w3.org/2000/svg">
<path d="M16 7.11103H8.53338V9.59993H13.0888C12.4092 11.7637 10.3881 13.3333 7.99998 13.3333C5.0544 13.3333 2.66667 10.9454 2.66667 7.99994C2.66667 5.05435 5.05448 2.66663 7.99998 2.66663C9.48328 2.66663 10.8249 3.2723 11.7916 4.24963L13.5982 2.28591C12.1554 0.872078 10.1797 1.07247e-08 7.99998 1.07247e-08C3.58173 -4.23766e-05 0 3.58169 0 7.99994C0 12.4182 3.58173 16 8.00002 16C11.8703 16 15.2588 13.2514 16.0001 9.59997V7.11107L16 7.11103Z" fill="#718792"/>
</svg>
