<svg width="16" height="16" viewBox="0 0 16 16" fill="none" xmlns="http://www.w3.org/2000/svg">
<g>
<path d="M11.5845 0H4.41533C1.98072 0 0 1.98081 0 4.41542V11.5846C0 14.0193 1.98072 16 4.41533 16H11.5845C14.0193 16 16 14.0192 16 11.5846V4.41542C16.0001 1.98081 14.0193 0 11.5845 0ZM14.5805 11.5846C14.5805 13.2365 13.2365 14.5804 11.5846 14.5804H4.41533C2.76348 14.5805 1.4196 13.2365 1.4196 11.5846V4.41542C1.4196 2.76358 2.76348 1.4196 4.41533 1.4196H11.5845C13.2364 1.4196 14.5804 2.76358 14.5804 4.41542V11.5846H14.5805Z" fill="#718792"/>
<path d="M7.99999 3.8774C5.72665 3.8774 3.8772 5.72685 3.8772 8.00019C3.8772 10.2734 5.72665 12.1228 7.99999 12.1228C10.2733 12.1228 12.1228 10.2734 12.1228 8.00019C12.1228 5.72685 10.2733 3.8774 7.99999 3.8774ZM7.99999 10.7031C6.50951 10.7031 5.29679 9.49058 5.29679 8.0001C5.29679 6.50952 6.50942 5.2969 7.99999 5.2969C9.49057 5.2969 10.7032 6.50952 10.7032 8.0001C10.7032 9.49058 9.49048 10.7031 7.99999 10.7031Z" fill="#718792"/>
<path d="M12.2957 2.67367C12.0222 2.67367 11.7535 2.7844 11.5603 2.97841C11.3662 3.17148 11.2546 3.44025 11.2546 3.71471C11.2546 3.98831 11.3663 4.257 11.5603 4.45101C11.7534 4.64407 12.0222 4.75575 12.2957 4.75575C12.5701 4.75575 12.838 4.64407 13.032 4.45101C13.226 4.257 13.3367 3.98822 13.3367 3.71471C13.3367 3.44025 13.226 3.17148 13.032 2.97841C12.8389 2.7844 12.5701 2.67367 12.2957 2.67367Z" fill="#718792"/>
</g>
</svg>
