<svg viewBox="0 0 16 17" width="100%" height="100%" xmlns="http://www.w3.org/2000/svg">
    <path d="M14.75.375H1.25C.945.375.676.492.441.727c-.21.21-.316.468-.316.773V15c0 .305.105.563.316.773.235.235.504.352.809.352h13.5c.305 0 .563-.117.773-.352.235-.21.352-.468.352-.773V1.5c0-.305-.117-.563-.352-.773a1.001 1.001 0 0 0-.773-.352zm-9.879 13.5h-2.32V6.352h2.355v7.523h-.035zm-1.16-8.543a1.29 1.29 0 0 1-.95-.387 1.37 1.37 0 0 1-.386-.949c0-.375.129-.691.387-.95.258-.28.574-.421.949-.421s.691.14.95.422c.28.258.421.574.421.95 0 .35-.14.667-.422.948a1.29 1.29 0 0 1-.95.387zm9.914 8.543h-2.32v-3.656c0-.61-.059-1.055-.176-1.336-.164-.445-.516-.668-1.055-.668-.539 0-.926.2-1.16.598-.164.304-.246.75-.246 1.335v3.727h-2.32V6.352h2.25v1.02h.035c.164-.329.422-.599.773-.81a2.709 2.709 0 0 1 1.442-.386c1.078 0 1.84.34 2.285 1.02.328.538.492 1.394.492 2.566v4.113z"></path>
</svg>
