<svg width="10" height="18" viewBox="0 0 10 18" xmlns="http://www.w3.org/2000/svg"><path fill-rule="evenodd" d="M1.823 1.047l7.144 7.548c.21.223.21.587-.003.81L1.82 16.95a.532.532 0 0 1-.785.002.594.594 0 0 1 0-.813L7.795 9l-6.76-7.14a.594.594 0 0 1 0-.813c.218-.23.57-.23.788 0z" fill="#718792"/><path d="M1.823 1.047l7.144 7.548c.21.223.21.587-.003.81L1.82 16.95a.532.532 0 0 1-.785.002.594.594 0 0 1 0-.813L7.795 9l-6.76-7.14a.594.594 0 0 1 0-.813c.218-.23.57-.23.788 0z" stroke-width=".25" stroke-miterlimit="8" stroke="#718792"/></svg>