<svg width="16" height="14" viewBox="0 0 16 14" fill="none" xmlns="http://www.w3.org/2000/svg">
<path d="M0.282608 6.67971L3.96933 8.05572L5.39632 12.6449C5.48763 12.9388 5.84704 13.0475 6.0856 12.8524L8.14064 11.1771C8.35606 11.0016 8.66288 10.9928 8.88801 11.1563L12.5946 13.8473C12.8498 14.0328 13.2113 13.8929 13.2753 13.5846L15.9906 0.523705C16.0604 0.186852 15.7295 -0.0941621 15.4087 0.0298914L0.278288 5.86675C-0.0950996 6.01075 -0.0918463 6.53939 0.282608 6.67971ZM5.16635 7.32323L12.3716 2.88552C12.5011 2.806 12.6343 2.9811 12.5231 3.08424L6.5767 8.61172C6.36768 8.80628 6.23286 9.06665 6.19467 9.34926L5.99211 10.8504C5.96528 11.0508 5.68373 11.0707 5.62843 10.8767L4.84939 8.1394C4.76016 7.82718 4.89019 7.49369 5.16635 7.32323Z" fill="#718792"/>
</svg>
