<svg width="1200" height="716" viewBox="0 0 1200 716" fill="none" xmlns="http://www.w3.org/2000/svg">
<path fill-rule="evenodd" clip-rule="evenodd" d="M1032.98 429.827C1078.75 438.121 1124.12 446.342 1157.51 477.839C1220.89 537.632 1212.13 639.715 1139.47 689.785C1060.11 744.716 943.133 708.744 912.214 620.757C906.551 604.222 904.134 586.755 901.713 569.261C899.507 553.326 897.299 537.37 892.632 522.076C883.871 492.909 869.442 465.687 850.891 440.895C811.211 388.881 756.072 338.325 695.264 309.644C667.747 296.846 637.042 290.932 606.563 285.062C554.849 275.103 503.789 265.269 470.069 222.143C424.721 163.81 435.027 79.712 493.259 32.559C558.189 -19.4552 659.707 -7.78851 709.178 57.8369C728.504 83.0793 733.624 111.609 738.842 140.69C740.86 151.932 742.892 163.256 745.766 174.504C753.495 204.157 764.317 233.324 780.807 259.574C817.395 316.936 877.172 373.325 940.557 404.436C968.935 418.221 1001.06 424.041 1032.98 429.827ZM147.897 436.971C108.217 436.971 71.1143 451.554 43.2869 477.804C-14.429 532.249 -14.429 620.722 43.2869 675.167C71.1143 701.417 108.217 716 147.897 716C187.577 716 224.68 701.417 252.507 675.167C310.223 620.722 310.223 532.249 252.507 477.804C224.68 451.554 187.577 436.971 147.897 436.971ZM589.526 436.971C549.846 436.971 512.743 451.554 484.916 477.804C427.2 532.249 427.2 620.722 484.916 675.167C512.743 701.417 549.846 716 589.526 716C629.205 716 666.308 701.417 694.136 675.167C721.963 648.916 737.423 613.916 737.423 576.485C737.423 539.055 721.963 504.054 694.136 477.804C666.308 451.554 629.205 436.971 589.526 436.971Z" fill="#F5F7FA"/>
</svg>
