<svg width="128" height="128" viewBox="0 0 128 128" fill="none" xmlns="http://www.w3.org/2000/svg">
    <path d="M92.9462 71.2C91.9044 70.16 90.542 69.52 89.0994 69.28C83.4895 68.56 80.6845 67.28 76.8377 63.36C72.9908 59.52 71.7086 56.88 70.827 51.28C70.6667 49.76 70.0256 48.24 68.9036 47.04C66.1788 44.32 61.8511 44.32 59.1263 47.04C56.4014 49.76 56.4014 54.08 59.1263 56.8C60.2482 57.92 61.6908 58.56 63.2135 58.72H63.1334C68.8235 59.44 71.8689 61.2 75.3951 64.8C78.9214 68.32 80.8448 71.2 81.3256 77.2V77.12C81.5661 78.48 82.2072 79.84 83.249 80.96C85.9739 83.68 90.3016 83.68 93.0264 80.96C95.6711 78.24 95.6711 73.92 92.9462 71.2Z" fill="url(#paint0_linear)"/>
    <path d="M59.1263 71.2C56.4014 73.92 56.4014 78.24 59.1263 80.96C61.8511 83.68 66.1788 83.68 68.9036 80.96C71.6284 78.24 71.6284 73.92 68.9036 71.2C66.1788 68.48 61.8511 68.48 59.1263 71.2Z" fill="url(#paint1_linear)"/>
    <path d="M39.8922 82.96C43.6987 82.96 46.7845 79.8797 46.7845 76.08C46.7845 72.2803 43.6987 69.2 39.8922 69.2C36.0858 69.2 33 72.2803 33 76.08C33 79.8797 36.0858 82.96 39.8922 82.96Z" fill="url(#paint2_linear)"/>
    <defs>
        <linearGradient id="paint0_linear" x1="64" y1="45" x2="64" y2="83" gradientUnits="userSpaceOnUse">
            <stop stop-color="#E9C568"/>
            <stop offset="1" stop-color="#C39438"/>
        </linearGradient>
        <linearGradient id="paint1_linear" x1="64" y1="45" x2="64" y2="83" gradientUnits="userSpaceOnUse">
            <stop stop-color="#E9C568"/>
            <stop offset="1" stop-color="#C39438"/>
        </linearGradient>
        <linearGradient id="paint2_linear" x1="64" y1="45" x2="64" y2="83" gradientUnits="userSpaceOnUse">
            <stop stop-color="#E9C568"/>
            <stop offset="1" stop-color="#C39438"/>
        </linearGradient>
    </defs>
</svg>
