<svg width="200" height="24" viewBox="0 0 200 24" fill="none" xmlns="http://www.w3.org/2000/svg">
<rect x="112" width="1" height="24" fill="#E1E6F0"/>
<path d="M133.232 7.83347H131.699V1.45823H129V0H131.699H135.931V1.45823H133.232V7.83347Z" fill="#010E28"/>
<path d="M135.149 4.8206C135.149 4.38674 135.228 3.98503 135.385 3.61545C135.55 3.23783 135.77 2.91244 136.045 2.63928C136.328 2.36611 136.658 2.1532 137.035 2.00055C137.413 1.8479 137.817 1.77157 138.25 1.77157C138.682 1.77157 139.086 1.8479 139.464 2.00055C139.841 2.1532 140.167 2.36611 140.442 2.63928C140.725 2.91244 140.945 3.23783 141.102 3.61545C141.267 3.98503 141.35 4.38674 141.35 4.8206V4.94111C141.35 5.37497 141.267 5.7807 141.102 6.15831C140.945 6.52789 140.725 6.84926 140.442 7.12243C140.167 7.3956 139.841 7.60851 139.464 7.76116C139.086 7.91381 138.682 7.99014 138.25 7.99014C137.817 7.99014 137.413 7.91381 137.035 7.76116C136.658 7.60851 136.328 7.3956 136.045 7.12243C135.77 6.84926 135.55 6.52789 135.385 6.15831C135.228 5.7807 135.149 5.37497 135.149 4.94111V4.8206ZM139.829 4.83265C139.829 4.60769 139.786 4.39879 139.699 4.20597C139.621 4.01315 139.511 3.84443 139.369 3.69981C139.228 3.55519 139.059 3.44271 138.862 3.36237C138.674 3.27399 138.47 3.2298 138.25 3.2298C138.03 3.2298 137.821 3.27399 137.625 3.36237C137.436 3.44271 137.271 3.55519 137.13 3.69981C136.988 3.84443 136.874 4.01315 136.788 4.20597C136.709 4.39879 136.67 4.60769 136.67 4.83265V4.92906C136.67 5.15402 136.709 5.36291 136.788 5.55574C136.874 5.74856 136.988 5.91728 137.13 6.0619C137.271 6.20652 137.436 6.32302 137.625 6.41139C137.821 6.49174 138.03 6.53191 138.25 6.53191C138.47 6.53191 138.674 6.49174 138.862 6.41139C139.059 6.32302 139.228 6.20652 139.369 6.0619C139.511 5.91728 139.621 5.74856 139.699 5.55574C139.786 5.36291 139.829 5.15402 139.829 4.92906V4.83265Z" fill="#010E28"/>
<path d="M146.312 1.95234H147.82V5.19419C147.82 5.62001 147.757 6.00566 147.632 6.35114C147.506 6.68858 147.325 6.98183 147.089 7.2309C146.854 7.47192 146.571 7.66073 146.241 7.79732C145.911 7.92586 145.541 7.99014 145.133 7.99014C144.724 7.99014 144.355 7.92586 144.025 7.79732C143.695 7.66073 143.412 7.47192 143.176 7.2309C142.94 6.98183 142.76 6.68858 142.634 6.35114C142.508 6.00566 142.445 5.62001 142.445 5.19419V1.95234H143.954V5.17009C143.954 5.59591 144.056 5.92933 144.261 6.17036C144.473 6.41139 144.763 6.53191 145.133 6.53191C145.486 6.53191 145.765 6.42345 145.97 6.20652C146.174 5.98156 146.288 5.67625 146.312 5.2906V5.23035V5.17009V1.95234Z" fill="#010E28"/>
<path d="M149.211 1.95234H150.449L150.578 2.66338C150.822 2.38218 151.105 2.16525 151.427 2.0126C151.749 1.85191 152.099 1.77157 152.476 1.77157V3.51904C152.264 3.47083 152.056 3.45476 151.851 3.47083C151.647 3.47886 151.463 3.52707 151.297 3.61545C151.14 3.70383 151.007 3.83237 150.897 4.00109C150.795 4.16982 150.74 4.38674 150.732 4.65188V7.83347H149.211V1.95234Z" fill="#010E28"/>
<path d="M158.927 7.83347H157.407V4.45905C157.407 4.0734 157.312 3.77212 157.124 3.55519C156.935 3.33826 156.652 3.2298 156.275 3.2298C155.906 3.2298 155.607 3.36237 155.379 3.6275C155.151 3.89263 155.03 4.24213 155.014 4.67598V7.83347H153.493V1.95234H154.731L154.849 2.60312C155.077 2.34602 155.34 2.14517 155.639 2.00055C155.945 1.8479 156.279 1.77157 156.64 1.77157C157.01 1.77157 157.336 1.83584 157.619 1.96439C157.91 2.08491 158.149 2.25765 158.338 2.48261C158.534 2.69953 158.68 2.95663 158.774 3.2539C158.876 3.55117 158.927 3.86853 158.927 4.20597V7.83347Z" fill="#010E28"/>
<path d="M160.205 3.48288C160.315 3.24989 160.465 3.03296 160.653 2.8321C160.842 2.62321 161.058 2.44244 161.302 2.28978C161.545 2.1291 161.812 2.00456 162.103 1.91619C162.394 1.81977 162.704 1.77157 163.034 1.77157C163.427 1.77157 163.777 1.83183 164.083 1.95234C164.398 2.07286 164.661 2.24158 164.873 2.4585C165.085 2.6674 165.246 2.91646 165.356 3.2057C165.466 3.49493 165.521 3.80827 165.521 4.14571V7.83347H164.296L164.142 7.01397C163.891 7.29517 163.6 7.52817 163.27 7.71295C162.94 7.89774 162.551 7.99014 162.103 7.99014C161.812 7.99014 161.541 7.94595 161.29 7.85757C161.046 7.7692 160.83 7.64868 160.641 7.49603C160.461 7.33534 160.319 7.14252 160.217 6.91756C160.115 6.6926 160.064 6.44353 160.064 6.17036C160.064 5.84899 160.146 5.56377 160.311 5.31471C160.476 5.06564 160.7 4.86077 160.983 4.70008C161.274 4.5394 161.608 4.41888 161.985 4.33854C162.37 4.25016 162.783 4.20597 163.223 4.20597C163.356 4.20597 163.49 4.20999 163.624 4.21802C163.757 4.22606 163.891 4.23811 164.024 4.25418C164.024 3.9328 163.93 3.67571 163.742 3.48288C163.561 3.28202 163.282 3.18159 162.905 3.18159C162.63 3.18159 162.39 3.24587 162.186 3.37442C161.981 3.49493 161.82 3.65562 161.702 3.85648L160.205 3.48288ZM164.06 5.30266C163.973 5.28659 163.867 5.27454 163.742 5.2665C163.616 5.25043 163.474 5.2424 163.317 5.2424C163.136 5.2424 162.948 5.25847 162.751 5.2906C162.555 5.31471 162.374 5.3589 162.209 5.42317C162.052 5.48745 161.922 5.57181 161.82 5.67625C161.718 5.7807 161.667 5.91327 161.667 6.07395C161.667 6.23464 161.726 6.37524 161.844 6.49575C161.969 6.61627 162.17 6.67653 162.445 6.67653C162.61 6.67653 162.775 6.64841 162.94 6.59217C163.105 6.53593 163.258 6.46362 163.4 6.37524C163.541 6.27883 163.667 6.17036 163.777 6.04985C163.895 5.92933 163.989 5.80078 164.06 5.6642V5.30266Z" fill="#010E28"/>
<path d="M173.79 4.27828C173.79 3.97298 173.715 3.72391 173.566 3.53109C173.416 3.33023 173.192 3.2298 172.894 3.2298C172.579 3.2298 172.332 3.3463 172.151 3.57929C171.97 3.80425 171.88 4.10152 171.88 4.4711V7.83347H170.36V4.27828C170.36 3.97298 170.285 3.72391 170.136 3.53109C169.986 3.33023 169.762 3.2298 169.464 3.2298C169.149 3.2298 168.898 3.34228 168.709 3.56724C168.529 3.7922 168.438 4.08947 168.438 4.45905V7.83347H166.918V1.95234H168.155L168.261 2.57902C168.466 2.33799 168.701 2.14517 168.969 2.00055C169.236 1.8479 169.527 1.77157 169.841 1.77157C170.226 1.77157 170.56 1.86396 170.843 2.04875C171.126 2.22551 171.354 2.4585 171.526 2.74774C171.739 2.4585 171.99 2.22551 172.281 2.04875C172.579 1.86396 172.906 1.77157 173.259 1.77157C173.574 1.77157 173.856 1.83584 174.108 1.96439C174.367 2.09294 174.583 2.26166 174.756 2.47056C174.937 2.67945 175.074 2.92048 175.169 3.19365C175.263 3.45878 175.31 3.73596 175.31 4.0252V7.83347H173.79V4.27828Z" fill="#010E28"/>
<path d="M182.372 6.25472C182.254 6.50379 182.097 6.73277 181.9 6.94166C181.712 7.15055 181.492 7.33534 181.24 7.49603C180.997 7.64868 180.726 7.7692 180.427 7.85757C180.136 7.94595 179.83 7.99014 179.508 7.99014C179.075 7.99014 178.671 7.91381 178.294 7.76116C177.916 7.60851 177.586 7.3956 177.303 7.12243C177.028 6.84926 176.808 6.52789 176.643 6.15831C176.486 5.7807 176.408 5.37497 176.408 4.94111V4.8206C176.408 4.38674 176.486 3.98503 176.643 3.61545C176.8 3.23783 177.017 2.91244 177.292 2.63928C177.575 2.36611 177.901 2.1532 178.27 2.00055C178.647 1.8479 179.048 1.77157 179.472 1.77157C179.897 1.77157 180.293 1.8479 180.663 2.00055C181.04 2.1532 181.366 2.36611 181.641 2.63928C181.916 2.91244 182.132 3.23783 182.289 3.61545C182.447 3.98503 182.525 4.38674 182.525 4.8206C182.525 4.90094 182.525 4.97325 182.525 5.03752C182.525 5.1018 182.521 5.17411 182.513 5.25445H177.963C178.034 5.63206 178.195 5.9454 178.447 6.19447C178.706 6.4355 179.068 6.55601 179.531 6.55601C179.814 6.55601 180.069 6.49977 180.297 6.38729C180.533 6.26678 180.718 6.11011 180.851 5.91728L182.372 6.25472ZM180.957 4.13366C180.84 3.82836 180.651 3.58331 180.392 3.39852C180.132 3.2057 179.826 3.10928 179.472 3.10928C179.119 3.10928 178.812 3.2057 178.553 3.39852C178.294 3.58331 178.105 3.82836 177.987 4.13366H180.957Z" fill="#010E28"/>
<path d="M189.127 7.83347H187.606V4.45905C187.606 4.0734 187.512 3.77212 187.323 3.55519C187.135 3.33826 186.852 3.2298 186.475 3.2298C186.105 3.2298 185.807 3.36237 185.579 3.6275C185.351 3.89263 185.229 4.24213 185.213 4.67598V7.83347H183.693V1.95234H184.93L185.048 2.60312C185.276 2.34602 185.539 2.14517 185.838 2.00055C186.145 1.8479 186.479 1.77157 186.84 1.77157C187.209 1.77157 187.535 1.83584 187.818 1.96439C188.109 2.08491 188.349 2.25765 188.537 2.48261C188.734 2.69953 188.879 2.95663 188.973 3.2539C189.076 3.55117 189.127 3.86853 189.127 4.20597V7.83347Z" fill="#010E28"/>
<path d="M192.338 2.0126H194V3.41057H192.338V5.44727C192.362 6.13823 192.719 6.4837 193.411 6.4837C193.474 6.4837 193.552 6.47567 193.646 6.4596C193.741 6.4355 193.815 6.41541 193.87 6.39934V7.82142C193.76 7.86159 193.623 7.89373 193.458 7.91783C193.301 7.94193 193.163 7.95398 193.045 7.95398C192.668 7.95398 192.338 7.89373 192.055 7.77321C191.772 7.6527 191.54 7.48799 191.36 7.2791C191.179 7.06217 191.041 6.80909 190.947 6.51986C190.861 6.22259 190.817 5.90523 190.817 5.56779V3.41057H189.992V2.30183L190.817 2.14517L191.183 0.457956H192.338V2.0126Z" fill="#010E28"/>
<path d="M135.955 16.5889C135.955 16.9424 135.888 17.2678 135.754 17.565C135.621 17.8623 135.428 18.1194 135.177 18.3363C134.925 18.5533 134.615 18.726 134.245 18.8546C133.884 18.9751 133.475 19.0353 133.019 19.0353H131.287V21.8433H129.754V14.0099H133.019C133.475 14.0099 133.884 14.0741 134.245 14.2027C134.615 14.3232 134.925 14.4919 135.177 14.7088C135.428 14.9258 135.621 15.1829 135.754 15.4801C135.888 15.7774 135.955 16.1028 135.955 16.4563V16.5889ZM134.422 16.4443C134.414 16.1631 134.289 15.922 134.045 15.7212C133.809 15.5203 133.467 15.4199 133.019 15.4199H131.287V17.6253H133.019C133.475 17.6253 133.821 17.5249 134.057 17.324C134.3 17.1232 134.422 16.8781 134.422 16.5889V16.4443Z" fill="#010E28"/>
<path d="M136.932 13.4073H138.453V21.8433H136.932V13.4073Z" fill="#010E28"/>
<path d="M139.844 17.4927C139.954 17.2597 140.103 17.0428 140.292 16.842C140.48 16.6331 140.697 16.4523 140.94 16.2996C141.184 16.139 141.451 16.0144 141.742 15.926C142.032 15.8296 142.343 15.7814 142.673 15.7814C143.066 15.7814 143.415 15.8417 143.722 15.9622C144.036 16.0827 144.3 16.2514 144.512 16.4684C144.724 16.6773 144.885 16.9263 144.995 17.2156C145.105 17.5048 145.16 17.8181 145.16 18.1556V21.8433H143.934L143.781 21.0238C143.529 21.305 143.239 21.538 142.909 21.7228C142.579 21.9076 142.19 22 141.742 22C141.451 22 141.18 21.9558 140.928 21.8674C140.685 21.7791 140.469 21.6585 140.28 21.5059C140.099 21.3452 139.958 21.1524 139.856 20.9274C139.754 20.7025 139.702 20.4534 139.702 20.1802C139.702 19.8588 139.785 19.5736 139.95 19.3246C140.115 19.0755 140.339 18.8706 140.622 18.7099C140.913 18.5493 141.247 18.4287 141.624 18.3484C142.009 18.26 142.421 18.2158 142.861 18.2158C142.995 18.2158 143.129 18.2198 143.262 18.2279C143.396 18.2359 143.529 18.248 143.663 18.264C143.663 17.9427 143.569 17.6856 143.38 17.4927C143.199 17.2919 142.92 17.1915 142.543 17.1915C142.268 17.1915 142.029 17.2557 141.824 17.3843C141.62 17.5048 141.459 17.6655 141.341 17.8663L139.844 17.4927ZM143.698 19.3125C143.612 19.2964 143.506 19.2844 143.38 19.2764C143.254 19.2603 143.113 19.2523 142.956 19.2523C142.775 19.2523 142.586 19.2683 142.39 19.3005C142.194 19.3246 142.013 19.3688 141.848 19.433C141.691 19.4973 141.561 19.5817 141.459 19.6861C141.357 19.7906 141.306 19.9231 141.306 20.0838C141.306 20.2445 141.364 20.3851 141.482 20.5056C141.608 20.6261 141.808 20.6864 142.084 20.6864C142.249 20.6864 142.414 20.6583 142.579 20.602C142.744 20.5458 142.897 20.4735 143.038 20.3851C143.18 20.2887 143.305 20.1802 143.415 20.0597C143.533 19.9392 143.628 19.8106 143.698 19.6741V19.3125Z" fill="#010E28"/>
<path d="M148.371 16.0225H150.033V17.4204H148.371V19.4571C148.395 20.1481 148.753 20.4936 149.444 20.4936C149.507 20.4936 149.586 20.4855 149.68 20.4695C149.774 20.4454 149.849 20.4253 149.904 20.4092V21.8313C149.794 21.8715 149.656 21.9036 149.491 21.9277C149.334 21.9518 149.197 21.9638 149.079 21.9638C148.702 21.9638 148.371 21.9036 148.089 21.7831C147.806 21.6626 147.574 21.4979 147.393 21.289C147.212 21.072 147.075 20.819 146.981 20.5297C146.894 20.2324 146.851 19.9151 146.851 19.5776V17.4204H146.026V16.3117L146.851 16.155L147.216 14.4678H148.371V16.0225Z" fill="#010E28"/>
<path d="M153.325 16.2635H154.881V17.6615H153.325V21.8433H151.805V17.6615H150.909V16.5527L151.805 16.3961V16.1068C151.805 15.215 152.017 14.52 152.441 14.0219C152.865 13.5238 153.47 13.2747 154.256 13.2747C154.366 13.2747 154.484 13.2828 154.61 13.2988C154.736 13.3069 154.842 13.3189 154.928 13.335V14.8053C154.857 14.7892 154.763 14.7771 154.645 14.7691C154.527 14.753 154.413 14.745 154.303 14.745C153.942 14.745 153.687 14.8776 153.537 15.1427C153.396 15.3998 153.325 15.7573 153.325 16.2153V16.2635Z" fill="#010E28"/>
<path d="M155.511 18.8305C155.511 18.3966 155.589 17.9949 155.747 17.6253C155.912 17.2477 156.132 16.9223 156.407 16.6491C156.69 16.376 157.02 16.1631 157.397 16.0104C157.774 15.8578 158.179 15.7814 158.611 15.7814C159.043 15.7814 159.448 15.8578 159.825 16.0104C160.202 16.1631 160.528 16.376 160.803 16.6491C161.086 16.9223 161.306 17.2477 161.463 17.6253C161.629 17.9949 161.711 18.3966 161.711 18.8305V18.951C161.711 19.3848 161.629 19.7906 161.463 20.1682C161.306 20.5378 161.086 20.8591 160.803 21.1323C160.528 21.4055 160.202 21.6184 159.825 21.771C159.448 21.9237 159.043 22 158.611 22C158.179 22 157.774 21.9237 157.397 21.771C157.02 21.6184 156.69 21.4055 156.407 21.1323C156.132 20.8591 155.912 20.5378 155.747 20.1682C155.589 19.7906 155.511 19.3848 155.511 18.951V18.8305ZM160.19 18.8425C160.19 18.6175 160.147 18.4087 160.061 18.2158C159.982 18.023 159.872 17.8543 159.731 17.7097C159.589 17.565 159.42 17.4526 159.224 17.3722C159.035 17.2838 158.831 17.2397 158.611 17.2397C158.391 17.2397 158.183 17.2838 157.986 17.3722C157.798 17.4526 157.633 17.565 157.491 17.7097C157.35 17.8543 157.236 18.023 157.149 18.2158C157.071 18.4087 157.031 18.6175 157.031 18.8425V18.9389C157.031 19.1639 157.071 19.3728 157.149 19.5656C157.236 19.7584 157.35 19.9271 157.491 20.0718C157.633 20.2164 157.798 20.3329 157.986 20.4213C158.183 20.5016 158.391 20.5418 158.611 20.5418C158.831 20.5418 159.035 20.5016 159.224 20.4213C159.42 20.3329 159.589 20.2164 159.731 20.0718C159.872 19.9271 159.982 19.7584 160.061 19.5656C160.147 19.3728 160.19 19.1639 160.19 18.9389V18.8425Z" fill="#010E28"/>
<path d="M162.925 15.9622H164.162L164.292 16.6732C164.536 16.392 164.818 16.1751 165.141 16.0225C165.463 15.8618 165.812 15.7814 166.19 15.7814V17.5289C165.977 17.4807 165.769 17.4646 165.565 17.4807C165.361 17.4887 165.176 17.5369 165.011 17.6253C164.854 17.7137 164.72 17.8422 164.61 18.011C164.508 18.1797 164.453 18.3966 164.445 18.6617V21.8433H162.925V15.9622Z" fill="#010E28"/>
<path d="M174.079 18.2881C174.079 17.9828 174.004 17.7338 173.855 17.5409C173.705 17.3401 173.481 17.2397 173.183 17.2397C172.869 17.2397 172.621 17.3562 172.44 17.5892C172.26 17.8141 172.169 18.1114 172.169 18.481V21.8433H170.649V18.2881C170.649 17.9828 170.574 17.7338 170.425 17.5409C170.275 17.3401 170.051 17.2397 169.753 17.2397C169.438 17.2397 169.187 17.3521 168.998 17.5771C168.818 17.8021 168.727 18.0993 168.727 18.4689V21.8433H167.207V15.9622H168.444L168.55 16.5889C168.755 16.3478 168.99 16.155 169.258 16.0104C169.525 15.8578 169.816 15.7814 170.13 15.7814C170.515 15.7814 170.849 15.8738 171.132 16.0586C171.415 16.2354 171.643 16.4684 171.816 16.7576C172.028 16.4684 172.279 16.2354 172.57 16.0586C172.869 15.8738 173.195 15.7814 173.548 15.7814C173.863 15.7814 174.145 15.8457 174.397 15.9743C174.656 16.1028 174.872 16.2715 175.045 16.4804C175.226 16.6893 175.363 16.9303 175.458 17.2035C175.552 17.4686 175.599 17.7458 175.599 18.0351V21.8433H174.079V18.2881Z" fill="#010E28"/>
<rect opacity="0.24" x="179" y="13" width="21" height="10.9963" rx="2" fill="#FF1967"/>
<path d="M182.505 20.5601C182.459 20.5601 182.422 20.5463 182.395 20.5188C182.367 20.4867 182.354 20.4478 182.354 20.402V15.9141C182.354 15.8637 182.367 15.8247 182.395 15.7973C182.422 15.7652 182.459 15.7491 182.505 15.7491H184.381C184.867 15.7491 185.233 15.866 185.481 16.0997C185.728 16.3333 185.852 16.638 185.852 17.0137C185.852 17.2703 185.792 17.4857 185.673 17.6598C185.554 17.8293 185.414 17.953 185.254 18.0309C185.451 18.1271 185.616 18.276 185.749 18.4776C185.882 18.6792 185.948 18.9106 185.948 19.1718C185.948 19.4283 185.888 19.662 185.769 19.8728C185.655 20.0835 185.483 20.2508 185.254 20.3745C185.025 20.4982 184.752 20.5601 184.436 20.5601H182.505ZM184.278 17.7903C184.576 17.7903 184.802 17.7239 184.958 17.591C185.114 17.4536 185.192 17.2634 185.192 17.0206C185.192 16.7823 185.114 16.6014 184.958 16.4777C184.807 16.3539 184.58 16.2921 184.278 16.2921H183V17.7903H184.278ZM184.347 20.0171C184.64 20.0171 184.869 19.9392 185.034 19.7834C185.203 19.6231 185.288 19.4192 185.288 19.1718C185.288 18.9198 185.203 18.7159 185.034 18.5601C184.869 18.4043 184.64 18.3264 184.347 18.3264H183V20.0171H184.347Z" fill="#FF1967"/>
<path d="M188.264 20.6288C187.797 20.6288 187.423 20.4845 187.144 20.1958C186.864 19.9026 186.711 19.5039 186.683 18.9999L186.676 18.7663L186.683 18.5395C186.711 18.0446 186.864 17.6506 187.144 17.3574C187.423 17.0641 187.797 16.9175 188.264 16.9175C188.768 16.9175 189.157 17.0779 189.432 17.3986C189.712 17.7193 189.852 18.1546 189.852 18.7044V18.8281C189.852 18.8739 189.836 18.9129 189.803 18.945C189.776 18.9725 189.739 18.9862 189.694 18.9862H187.309V19.0481C187.322 19.3459 187.414 19.6002 187.584 19.8109C187.753 20.0217 187.978 20.1271 188.257 20.1271C188.472 20.1271 188.647 20.0858 188.779 20.0034C188.917 19.9163 189.02 19.827 189.089 19.7353C189.13 19.6803 189.162 19.6483 189.185 19.6391C189.208 19.6254 189.247 19.6185 189.302 19.6185H189.604C189.645 19.6185 189.68 19.6299 189.707 19.6529C189.739 19.6758 189.755 19.7055 189.755 19.7422C189.755 19.843 189.694 19.9644 189.57 20.1065C189.446 20.2485 189.27 20.3722 189.041 20.4776C188.816 20.5784 188.557 20.6288 188.264 20.6288ZM189.226 18.5189V18.4982C189.226 18.1775 189.139 17.9163 188.965 17.7147C188.791 17.5131 188.557 17.4123 188.264 17.4123C187.966 17.4123 187.733 17.5131 187.563 17.7147C187.393 17.9163 187.309 18.1775 187.309 18.4982V18.5189H189.226Z" fill="#FF1967"/>
<path d="M192.042 20.5601C191.332 20.5601 190.976 20.1591 190.976 19.3573V17.5154H190.433C190.388 17.5154 190.351 17.5017 190.324 17.4742C190.296 17.4467 190.282 17.4101 190.282 17.3642V17.1443C190.282 17.0985 190.296 17.0618 190.324 17.0343C190.351 17.0023 190.388 16.9862 190.433 16.9862H190.976V15.8385C190.976 15.7927 190.99 15.756 191.018 15.7285C191.045 15.6965 191.082 15.6804 191.128 15.6804H191.43C191.476 15.6804 191.512 15.6965 191.54 15.7285C191.572 15.756 191.588 15.7927 191.588 15.8385V16.9862H192.44C192.486 16.9862 192.523 17.0023 192.55 17.0343C192.582 17.0618 192.598 17.0985 192.598 17.1443V17.3642C192.598 17.4101 192.582 17.4467 192.55 17.4742C192.523 17.5017 192.486 17.5154 192.44 17.5154H191.588V19.3092C191.588 19.5429 191.625 19.7193 191.698 19.8384C191.776 19.9575 191.907 20.0171 192.09 20.0171H192.509C192.555 20.0171 192.592 20.0331 192.619 20.0652C192.646 20.0927 192.66 20.1294 192.66 20.1752V20.402C192.66 20.4478 192.646 20.4867 192.619 20.5188C192.592 20.5463 192.555 20.5601 192.509 20.5601H192.042Z" fill="#FF1967"/>
<path d="M194.321 20.6288C194.097 20.6288 193.888 20.583 193.696 20.4913C193.508 20.3997 193.357 20.276 193.242 20.1202C193.132 19.9598 193.077 19.7834 193.077 19.591C193.077 19.2886 193.201 19.0412 193.449 18.8487C193.696 18.6563 194.033 18.528 194.459 18.4639L195.49 18.3195V18.1202C195.49 17.6483 195.217 17.4123 194.672 17.4123C194.461 17.4123 194.292 17.4559 194.163 17.5429C194.035 17.6254 193.941 17.7239 193.881 17.8385C193.863 17.8843 193.843 17.9163 193.82 17.9347C193.801 17.9484 193.774 17.9553 193.737 17.9553H193.469C193.428 17.9553 193.391 17.9415 193.359 17.9141C193.332 17.882 193.318 17.8453 193.318 17.8041C193.318 17.6987 193.366 17.5773 193.462 17.4398C193.563 17.2978 193.717 17.1764 193.923 17.0756C194.129 16.9702 194.381 16.9175 194.679 16.9175C195.192 16.9175 195.558 17.0366 195.778 17.2749C196.003 17.5131 196.115 17.811 196.115 18.1683V20.402C196.115 20.4478 196.099 20.4867 196.067 20.5188C196.04 20.5463 196.003 20.5601 195.957 20.5601H195.655C195.609 20.5601 195.572 20.5463 195.545 20.5188C195.517 20.4867 195.503 20.4478 195.503 20.402V20.0996C195.403 20.2508 195.256 20.3768 195.064 20.4776C194.871 20.5784 194.624 20.6288 194.321 20.6288ZM194.459 20.1271C194.761 20.1271 195.009 20.0286 195.201 19.8315C195.393 19.6345 195.49 19.3482 195.49 18.9725V18.78L194.686 18.8969C194.356 18.9427 194.106 19.0206 193.936 19.1305C193.767 19.2405 193.682 19.3779 193.682 19.5429C193.682 19.7307 193.758 19.8751 193.909 19.9759C194.065 20.0767 194.248 20.1271 194.459 20.1271Z" fill="#FF1967"/>
<path fill-rule="evenodd" clip-rule="evenodd" d="M33.5944 15.956C32.6231 15.0235 31.3094 14.785 29.9886 14.5452C29.0612 14.3768 28.1304 14.2078 27.312 13.7975C25.4824 12.8875 23.7409 11.2158 22.6828 9.52281C22.1979 8.73982 21.8893 7.89334 21.6688 7.00455C21.5922 6.68752 21.536 6.36747 21.4801 6.04884L21.4801 6.04881C21.3271 5.1764 21.1759 4.31469 20.6107 3.55516C19.1338 1.62943 16.202 1.26968 14.3283 2.8145C12.6309 4.21118 12.3444 6.68712 13.667 8.40123C14.6513 9.66551 16.1324 9.95896 17.6281 10.2553C18.5107 10.4301 19.3984 10.606 20.1919 10.983C21.9554 11.8295 23.5646 13.3108 24.7109 14.8556C25.262 15.5751 25.6587 16.3793 25.9233 17.2469C26.0578 17.694 26.1195 18.155 26.1812 18.617L26.1812 18.617C26.251 19.139 26.321 19.662 26.4964 20.1672C27.3781 22.7701 30.7729 23.8282 33.0874 22.1988C35.1816 20.7386 35.4241 17.7124 33.5944 15.956ZM4.29851 14.7498C3.15224 14.7498 2.0721 15.173 1.25649 15.956C-0.418829 17.5643 -0.418829 20.1672 1.25649 21.7755C2.0721 22.5585 3.15224 22.9818 4.29851 22.9818C5.44478 22.9818 6.52491 22.5585 7.34053 21.7755C9.01584 20.1672 9.01584 17.5643 7.34053 15.956C6.52491 15.173 5.44478 14.7498 4.29851 14.7498ZM14.0638 15.956C14.8794 15.173 15.9596 14.7498 17.1059 14.7498C18.2521 14.7498 19.3323 15.173 20.1479 15.9349C20.9635 16.7179 21.4044 17.7548 21.4044 18.8552C21.4044 19.9556 20.9635 20.9925 20.1479 21.7755C19.3323 22.5585 18.2521 22.9818 17.1059 22.9818C15.9596 22.9818 14.8794 22.5585 14.0638 21.7755C12.3885 20.1672 12.3885 17.5643 14.0638 15.956Z" fill="#41B6E6"/>
<path d="M47.5039 6.87763L48.055 4.86726L48.7163 2.94153H51.604L48.9147 10.0519H46.4018L45.3877 7.36436L44.3517 10.0519H41.8167L39.1494 2.94153H41.993L42.6984 4.88842L43.2495 6.87763L44.5501 2.94153H46.2034L47.5039 6.87763Z" fill="#41B6E6"/>
<path d="M59.8266 6.15819C59.8266 6.49678 59.7826 6.85654 59.6944 7.21629H54.5582C54.7566 7.82998 55.5943 8.12625 56.2115 8.12625C57.0271 8.12625 57.6223 7.91463 58.0852 7.55488L59.4299 8.99389C58.5261 9.79804 57.3577 10.1578 56.0792 10.1578C53.7646 10.1578 51.8027 9.05737 51.8027 6.49678C51.8027 3.91504 53.8969 2.79346 55.8808 2.79346C58.1513 2.79346 59.8266 3.99968 59.8266 6.15819ZM55.947 4.67686C55.3077 4.67686 54.6684 4.95197 54.5802 5.5445H57.2475C57.2255 4.97313 56.5862 4.67686 55.947 4.67686Z" fill="#41B6E6"/>
<path d="M60.8408 12.9299V2.94146H63.2877L63.3979 3.70329C64.0371 3.00495 64.985 2.77217 65.8227 2.81449C67.9609 2.94146 69.1733 4.23234 69.1733 6.47549C69.1733 8.61284 67.7405 10.1365 65.6022 10.1365C64.6544 10.1365 63.971 9.86139 63.5742 9.39583V12.9299H60.8408V12.9299ZM66.4619 6.47549C66.4619 5.50205 65.8227 4.93068 64.985 4.93068C64.0592 4.93068 63.5081 5.67134 63.5081 6.39085C63.5081 7.25848 64.0371 8.02031 64.985 8.02031C65.8227 8.04147 66.4619 7.4701 66.4619 6.47549Z" fill="#41B6E6"/>
<path d="M72.9423 0H70.2529V10.0096H72.9423V0Z" fill="#41B6E6"/>
<path d="M82.4435 2.94159V9.98849H79.9306L79.7983 9.22667C79.159 9.92501 78.2112 10.1578 77.3956 10.1155C75.2353 10.0097 74.0449 8.50716 74.0449 6.47562C74.0449 4.3806 75.4557 2.79346 77.616 2.79346C78.6741 2.79346 79.3795 3.13205 79.7542 3.70342L79.9085 2.94159H82.4435ZM76.7122 6.47562C76.7122 7.44907 77.3515 8.02044 78.1891 8.02044C79.115 8.02044 79.7101 7.3221 79.7101 6.47562C79.7101 5.52334 79.159 4.90964 78.1891 4.90964C77.3735 4.90964 76.7122 5.50218 76.7122 6.47562Z" fill="#41B6E6"/>
<path d="M87.3591 12.9722H84.4934L85.9703 9.69216L83.0605 2.94153H85.9703L86.5875 4.63448L87.4032 7.08925L88.2849 4.63448L88.9683 2.94153H91.9001L87.3591 12.9722Z" fill="#41B6E6"/>
<path d="M92.8477 8.67717C92.8477 7.97883 93.3767 7.28049 94.4128 7.28049C95.4709 7.28049 95.9999 7.97883 95.9999 8.67717C95.9999 9.37551 95.4709 10.0739 94.4128 10.0739C93.3767 10.0739 92.8477 9.37551 92.8477 8.67717ZM92.9799 0.0219727H95.8677L95.8015 6.73028H93.024L92.9799 0.0219727Z" fill="#41B6E6"/>
<path d="M46.3797 19.1091C46.3797 19.2996 46.3577 19.5324 46.2915 19.744H43.2275C43.3377 20.1249 43.8447 20.273 44.2194 20.273C44.7044 20.273 45.0571 20.1461 45.3437 19.9344L46.1372 20.8021C45.6082 21.2888 44.9028 21.5004 44.1313 21.5004C42.7425 21.5004 41.5742 20.8444 41.5742 19.3208C41.5742 17.7759 42.8307 17.0988 44.0211 17.0988C45.3878 17.0988 46.3797 17.8394 46.3797 19.1091ZM44.0651 18.2415C43.6904 18.2415 43.2936 18.4108 43.2495 18.7494H44.8367C44.8367 18.4108 44.4399 18.2415 44.0651 18.2415Z" fill="#41B6E6"/>
<path d="M48.893 20.2942C49.1795 20.2942 49.3338 20.2307 49.3338 20.0826C49.3338 19.9556 49.1795 19.8921 48.8709 19.8498C48.0112 19.8075 46.9752 19.49 46.9752 18.4743C46.9752 17.4585 47.9671 17.0988 49.0032 17.0988C49.7086 17.0988 50.3699 17.3104 50.7887 17.6066L50.1054 18.5378C49.8629 18.3896 49.3559 18.2838 49.0032 18.2838C48.7607 18.2838 48.6064 18.3261 48.6064 18.4954C48.6064 18.5801 48.6505 18.6859 48.9371 18.6859C49.8629 18.7282 50.9651 18.961 50.9651 20.0826C50.9651 21.1407 49.9731 21.5216 48.915 21.5216C48.1435 21.5216 47.2838 21.3311 46.7988 20.9714L47.3279 19.8286C48.0112 20.2519 48.5403 20.273 48.893 20.2942Z" fill="#41B6E6"/>
<path d="M51.6924 23.1723V17.2046H53.1472L53.2134 17.6702C53.5881 17.2469 54.1612 17.12 54.6682 17.1411C55.9467 17.2258 56.6742 17.9876 56.6742 19.3208C56.6742 20.6117 55.8145 21.5216 54.536 21.5216C53.9628 21.5216 53.5661 21.3523 53.3236 21.0772V23.1934H51.6924V23.1723ZM55.043 19.3208C55.043 18.7283 54.6682 18.3897 54.1612 18.3897C53.6102 18.3897 53.2795 18.8341 53.2795 19.2785C53.2795 19.7864 53.5881 20.2519 54.1612 20.2519C54.6682 20.2519 55.043 19.9133 55.043 19.3208Z" fill="#41B6E6"/>
<path d="M62.1189 19.3207C62.1189 20.8444 60.8844 21.5216 59.65 21.5216C58.3935 21.5216 57.2031 20.8656 57.2031 19.3207C57.2031 17.7548 58.3714 17.0988 59.65 17.0988C60.9726 17.0988 62.1189 17.7759 62.1189 19.3207ZM60.5097 19.3207C60.5097 18.834 60.2231 18.3896 59.65 18.3896C59.0768 18.3896 58.8123 18.834 58.8123 19.3207C58.8123 19.8075 59.0768 20.2307 59.65 20.2307C60.2231 20.2307 60.5097 19.8286 60.5097 19.3207Z" fill="#41B6E6"/>
<path d="M64.4333 17.6701C64.6757 17.268 65.0725 17.0988 65.4914 17.0988C65.9543 17.0988 66.3731 17.2469 66.6376 17.5432L65.9763 18.6859C65.6897 18.4954 65.5134 18.432 65.2489 18.432C64.83 18.432 64.4994 18.6647 64.4994 19.2149V21.4158H62.8682V17.2046H64.3451L64.4333 17.6701Z" fill="#41B6E6"/>
<path d="M69.3933 17.2258H70.3852V18.432H69.3933V19.8075C69.3933 20.1038 69.5917 20.2307 69.8341 20.2307C69.9884 20.2307 70.1868 20.1884 70.3191 20.0826L70.6718 21.2465C70.275 21.4581 69.8562 21.5216 69.3933 21.5216C68.5115 21.5216 67.74 21.1407 67.762 19.8075V18.432H67.0566V17.2258H67.762V16.1888L69.3933 16.0195V17.2258Z" fill="#41B6E6"/>
<path d="M73.185 20.2942C73.4715 20.2942 73.6258 20.2307 73.6258 20.0826C73.6258 19.9556 73.4715 19.8921 73.1629 19.8498C72.3032 19.8075 71.2672 19.49 71.2672 18.4743C71.2672 17.4585 72.2591 17.0988 73.2952 17.0988C74.0006 17.0988 74.6619 17.3104 75.0807 17.6066L74.3973 18.5378C74.1549 18.3896 73.6479 18.2838 73.2952 18.2838C73.0527 18.2838 72.8984 18.3261 72.8984 18.4954C72.8984 18.5801 72.9425 18.6859 73.229 18.6859C74.1549 18.7282 75.257 18.961 75.257 20.0826C75.257 21.1407 74.2651 21.5216 73.207 21.5216C72.4355 21.5216 71.5758 21.3311 71.0908 20.9714L71.6199 19.8286C72.3032 20.2519 72.8102 20.273 73.185 20.2942Z" fill="#41B6E6"/>
</svg>
