<svg width="32" height="40" viewBox="0 0 32 40" fill="none" xmlns="http://www.w3.org/2000/svg">
    <path fill-rule="evenodd" clip-rule="evenodd" d="M19.9447 8.24863H18.765V8.03515C19.0968 8.03515 19.2811 7.96399 19.1336 7.71493C18.9124 7.28797 19.871 7.32355 20.0184 7.39471C20.2396 7.57261 20.0922 8.03515 19.9447 8.24863ZM18.3226 8.53327H19.7604C19.6129 8.78233 19.1705 9.56509 18.8756 9.56509C18.7281 9.38719 18.3595 8.88907 18.3226 8.53327ZM22.9677 6.86101C22.894 6.89658 22.8203 6.93216 22.7465 6.93216C22.3042 7.53703 22.5622 7.46587 21.7512 7.99957C21.7512 9.03139 21.788 9.13813 22.0461 10.0632C22.0461 10.0988 22.0461 10.0988 22.0461 10.1344C22.0461 10.1699 22.0092 10.17 22.0092 10.17C21.8249 10.2055 21.53 10.2767 21.3825 10.3123C21.3825 10.3479 21.4562 10.9171 21.3825 11.3797C21.235 12.0557 19.5392 13.5501 19.1705 13.6568C18.6175 13.7635 17.9908 13.301 16.9954 12.874C16.7373 12.7673 15.8157 12.198 15.3364 12.0201C14.9309 11.8778 14.5622 12.8029 15.0415 13.0519C15.2627 13.1587 15.6313 13.3366 15.7419 13.6212C16.0737 14.4751 15.7051 17.7485 15.0046 18.3889C14.6728 18.3889 14.3779 18.1043 14.1567 18.1755C13.7143 18.4245 14.0092 19.7054 14.1567 19.9189C16.8479 22.5874 16.553 24.5799 17.6959 26.0742C18.212 26.0742 17.8802 26.6079 18.2857 27.2484C18.3963 27.5686 18.2488 28.1023 18.212 28.3158C18.212 28.6004 18.212 28.8495 18.212 29.1341C18.1751 29.2053 18.1383 29.312 18.1383 29.3832C18.1383 29.6322 18.1383 29.8457 18.1383 30.0948C18.0645 30.4506 17.9539 30.9131 17.8802 31.2333C17.7327 31.9094 18.3226 32.4431 17.9539 33.0835C17.9539 33.4749 17.9539 33.4037 17.6959 33.7239C17.6959 34.3288 17.5484 35.6453 17.6959 36.1078C17.8064 36.428 18.9862 37.7801 19.318 37.9224C20.0553 38.2426 21.1244 38.1715 20.7558 39.2744C18.6175 39.9149 17.2903 38.9186 16.1475 38.9186L16.1106 39.0965C15.3733 39.0965 14.8203 38.9186 14.6359 38.8831C14.6359 38.7052 14.8571 37.2464 14.9677 36.9973C15.0415 36.8906 15.1152 36.7483 15.2258 36.6415C15.2995 36.3925 15.1521 34.5779 15.1152 34.0797C14.6728 33.7595 14.5622 32.7633 14.5622 32.2296C14.4147 31.8026 14.4147 31.3045 14.4147 30.7708C14.4147 30.5217 14.2304 30.1304 14.341 29.8101C14.4147 29.5967 14.6728 29.4899 14.7097 29.312C14.7097 29.0985 14.7097 28.9206 14.7097 28.7072C14.8203 28.0667 14.7834 27.7821 14.3779 27.3907C13.3825 27.3907 13.235 27.4619 12.7189 26.6435C12.5346 26.3945 11.1705 24.2597 11.023 24.2241C9.88019 23.726 10.1014 23.9394 9.58525 23.0499C9.54839 23.0499 9.25346 23.1567 8.9954 23.5481C8.58987 24.1529 7.85254 26.0742 7.63134 26.7503C7.52074 27.1416 7.63134 27.533 7.447 27.8532C7.33641 28.0667 6.89401 28.1379 6.82028 28.3158C6.41475 29.0274 6.70968 28.9562 5.93549 29.4543C5.78802 29.6322 5.78802 29.8813 5.67742 30.0948C5.60369 30.1659 5.56682 30.2371 5.49309 30.3438C5.34562 30.6285 5.64055 31.091 5.56682 31.2689C5.41935 31.6959 5.27189 32.1584 5.08756 32.5498C4.71889 33.3681 4.79263 34.4356 4.42396 34.9337C4.23963 35.1827 3.79724 34.9337 3.46544 35.1471C3.42857 35.3251 2.91244 36.4636 2.80185 36.7838C2.80185 37.3887 2.80185 37.9936 2.80185 38.634C2.91244 38.9542 3.17051 39.2389 3.09678 39.6302C3.02304 40.0572 1.51152 40.0572 0.700465 39.9149C0.147469 39.8437 0 39.4523 0 38.9898C0 38.4561 1.10599 35.0048 1.06913 34.7914C0.2212 33.8663 1.29032 32.9412 1.62212 32.0873C1.76959 31.6603 1.69586 31.091 1.84332 30.6996C2.13825 30.1659 2.43318 29.6678 2.72811 29.1341C3.28111 28.636 3.02304 28.6004 3.31797 28.1735C3.57604 27.7821 3.87097 27.533 3.68664 26.9282C3.31798 25.754 4.09217 24.0818 4.1659 22.8365C4.01843 22.6941 3.57604 22.7297 3.50231 22.3739C3.39171 21.5912 3.79724 20.2391 4.0553 20.1324C4.1659 20.0612 4.31337 20.1324 4.3871 20.0612C4.3871 19.4919 3.79724 16.2897 4.23963 16.1118C4.53456 16.0051 5.16129 15.9695 5.27189 15.8983C5.27189 15.756 5.16129 15.4714 5.05069 15.4714C4.86636 15.4358 4.46083 15.3646 4.12903 15.2935C3.13364 15.08 4.0553 11.3085 4.0553 11.2729C4.31337 10.9171 5.60369 11.3797 5.75115 10.8104C6.15668 10.2767 5.41935 8.28421 6.85714 5.7936C7.33641 4.97526 8.29493 4.12134 9.36406 4.47714C9.73272 4.58388 9.51152 5.11758 10.1382 4.5483C10.1382 4.22808 9.99078 3.97902 9.91705 3.69438C8.84793 0.634494 12.4608 -1.03777 15.0046 0.705654C15.2995 0.812394 15.447 0.883555 15.6682 1.02587C15.8157 1.73748 16.5161 2.9472 15.8157 3.76554C15.5207 3.8367 15.1521 3.97902 14.9309 4.12134C14.9309 4.40598 14.9677 4.65504 15.0046 4.83294C15.0415 4.97526 15.1521 5.04642 14.894 5.15316C14.8571 5.15316 14.894 5.2599 14.894 5.29548C15.4839 5.40222 16.1106 5.18874 16.5161 5.04642H16.9954V4.47714H17.106H17.2166V4.0146H17.4378V4.79736H18.0277V5.04642H26.765V5.47338H27.1336V3.87228H27.4654V5.18874H28.2028V5.93592H30.5253V5.72244H30.894V5.82918H32V6.43404H30.894V6.54078H30.5253V6.3273H28.2028V6.54078C27.871 6.54078 27.5392 6.54078 27.1705 6.54078V6.39846H26.7281V6.86101H22.9677Z" fill="white"/>
</svg>
