<svg width="41" height="40" viewBox="0 0 41 40" fill="none" xmlns="http://www.w3.org/2000/svg">
    <path fill-rule="evenodd" clip-rule="evenodd" d="M7.81245 23.8953C8.21713 24.1392 8.47465 24.377 8.86093 24.6803L12.0064 27.5112C12.6625 28.1178 14.3425 29.7651 14.9924 30.4906C15.4339 30.9902 15.624 31.0437 15.949 31.5314C15.8325 31.573 14.3609 31.9001 13.5025 32.1856C11.7243 32.7803 10.0995 33.7318 8.54823 33.2203C8.31523 33.143 7.26061 32.1677 6.77622 31.8347C6.48804 31.6384 6.21825 31.4541 5.88715 31.2281C4.9429 30.5858 4.67311 31.0318 5.92394 28.1951C6.24891 27.4517 6.53096 26.7856 6.84367 26.0601C7.11959 25.4416 7.49361 24.4127 7.81245 23.8953ZM30.4255 6.79156C31.0754 7.0116 32.6451 7.87987 33.0252 8.34969C33.3502 8.74219 33.2582 8.77788 33.1356 9.3488L32.4979 14.1957C31.615 14.2254 31.8664 14.1243 31.3207 13.7675C30.4009 13.1668 27.2493 10.9069 26.2376 10.116L24.2878 8.59947C24.4288 8.46863 24.2388 8.53999 24.5637 8.45674L27.4455 7.82635C28.9478 7.45763 29.1808 7.36247 30.4255 6.79156ZM4.57501 7.76688C5.23721 7.41005 5.58671 7.67767 6.70264 6.8986C7.00309 6.69046 7.68982 6.7083 8.10676 6.76777C8.53596 6.82724 9.5354 7.63009 9.98913 7.90366C10.2528 8.05828 11.4423 8.93845 11.6324 9.2477L12.221 10.1635C13.0304 10.1992 12.8893 10.1576 13.9072 10.8831L23.6747 17.1276C25.7716 18.543 28.2242 19.9881 30.3335 21.4154L36.3485 25.2334C36.1768 25.5962 35.9745 26.8451 35.858 27.3446C35.3368 29.6402 34.6807 30.6096 33.62 32.8159C32.0932 32.8754 30.8914 32.8635 29.4015 32.8397C28.9171 32.8338 29.0397 32.9289 28.7761 32.6851C27.9054 31.8644 26.3173 30.0684 25.4344 29.2358C25.1278 28.9503 24.858 28.6827 24.5515 28.3675C22.1111 25.846 23.2638 26.6072 22.7917 25.9768L17.8865 21.4749C16.7583 20.4103 15.7466 19.2685 14.5816 18.0731C14.2812 17.7639 14.134 17.4784 13.8213 17.1989L13.7355 17.1216C13.6496 17.0443 13.6864 17.074 13.6067 16.9908L12.1781 15.4208C11.9267 15.1948 11.9512 15.2007 11.7673 14.9985L10.4858 13.7139C10.2037 13.4285 9.983 13.1311 9.71321 12.8219L8.48691 11.5611C8.30297 11.3827 8.1742 11.3292 7.99026 11.1448C7.40777 10.5561 6.91724 9.99108 6.32862 9.40232C5.86263 8.9325 4.71603 8.02855 4.57501 7.76688ZM10.4613 0.737437L0.393319 0.939637C-0.152385 2.88433 0.387188 1.89712 0.393319 3.93101V7.6063C0.313609 8.67083 0.0254285 9.20607 0.0254285 10.6274C0.0254285 11.1032 -0.0849385 12.2034 0.15419 12.5781C0.571133 13.2382 0.565001 13.8032 0.742815 14.7606C0.902234 15.6111 1.06779 15.5219 0.675369 16.1641L0.491423 17.7877L1.34983 18.6024L1.35597 20.0297C0.840919 20.4877 1.41728 20.1606 0.332004 20.9218L0.430108 25.2334L1.49699 25.9828L1.27626 29.658C0.148059 30.4431 0.393319 31.3886 0.430108 32.364L0.565002 36.0274L0.319741 37.9066C2.83979 38.5192 2.28796 38.3289 5.16976 38.3289C7.71434 38.3289 7.38937 38.3527 9.90329 38.0553L9.97074 38.4716C10.3632 38.4478 10.7617 38.424 11.148 38.3883C12.221 38.2872 11.7918 38.1683 12.1597 38.0375C12.4233 37.9423 15.299 38.5905 15.765 38.6857C16.0225 38.4062 15.8938 38.5192 16.2494 38.2932C16.4456 38.6916 17.2734 39.6015 17.6106 40L18.653 39.0544L20.474 39.7383L21.0075 39.3042C21.2159 39.5421 21.3447 39.8394 21.7126 39.887C22.2521 39.9584 22.338 39.0901 23.5336 39.0663L30.4438 38.8403C30.5297 38.7571 30.5849 38.7095 30.683 38.6203L31.0386 38.3408C31.4923 38.6084 31.6885 38.8641 32.3078 38.8225C34.2147 38.6976 33.2153 39.2685 35.674 39.1436C36.0971 39.1198 35.9929 39.0187 36.3669 38.8938L37.164 38.7749C36.9923 38.3229 36.8819 38.3883 36.5324 38.0494L40.9103 38.9057C40.849 33.9102 40.8613 27.8145 40.9287 22.6762L39.7515 22.7594C39.7944 22.4264 40.3094 22.5513 40.3462 21.8793C40.3953 21.0348 40.3892 18.1386 40.2604 17.5201C40.1929 17.2049 39.3652 16.2831 39.1445 15.9976C39.4081 15.3018 39.4326 15.3494 39.9232 14.7785C39.8802 14.4038 39.7944 14.3027 39.6288 13.8805L40.9103 13.4701C40.9226 12.7565 41.0084 9.88403 40.9594 8.97413L40.4382 4.07374L40.8368 2.84865L40.8551 1.58787C39.7453 0.969373 39.8925 0.898008 39.1261 0.903955C38.4332 0.909902 37.5073 0.874219 36.8451 0.725543C35.9929 0.535236 36.2259 0.404401 35.2939 1.33214L34.8708 0.440083C33.5096 0.362771 29.2482 0 28.2365 0C26.9428 0 27.1267 0.0951532 26.6914 1.52245L24.8335 1.70681L24.5883 0.927743L22.9021 0.909902L23.0799 0.719596C23.4049 0.416295 23.2884 0.535236 23.5459 0H16.7645C16.5376 0.404401 16.1329 0.707702 15.6485 0.862325C14.974 1.08237 15.3052 0.73149 14.8821 1.10021C14.5632 1.37972 14.5081 1.36188 14.0053 1.34999C13.3369 1.33809 12.6502 1.3143 11.9819 1.29051C11.6753 1.27862 11.3381 1.30836 11.0376 1.24294C10.5778 1.13589 10.7127 1.0229 10.4613 0.737437Z" fill="#EB4923"/>
</svg>
