<svg width="98" height="40" viewBox="0 0 98 40" fill="none" xmlns="http://www.w3.org/2000/svg">
<path d="M95.4213 25.9118C94.8611 26.3502 94.7881 26.3989 94.4715 26.8372C94.0818 27.373 93.96 27.5922 94.1061 28.1767C94.1305 28.3229 94.2523 28.5664 94.3253 28.6882C94.6176 29.1022 94.7881 29.2483 95.0073 29.565C95.4457 30.1738 95.6405 30.32 95.8597 31.0506C95.9571 31.3916 96.0545 32.4144 96.0789 32.7798V32.8041C96.0058 33.3886 96.0058 33.5104 95.9571 33.9001C95.9084 34.2654 95.7136 34.8256 95.5187 35.1665C94.5202 36.8713 94.4958 36.433 93.546 37.261C93.2781 37.5046 92.6205 37.8212 92.3283 38.016C91.8412 38.3083 91.8412 38.2108 91.3054 38.4057C91.2079 38.43 90.8913 38.5031 90.7452 38.5275C90.6234 38.5275 90.1851 38.5518 89.9902 38.4057C90.1607 38.2596 90.3555 38.357 90.526 38.2108C90.526 38.1865 90.8183 37.9673 90.7939 37.9429C90.6478 38.0404 89.698 38.3326 89.5518 38.4057C89.4788 38.4544 89.4057 38.4787 89.357 38.3813C89.2109 38.1378 89.0404 38.3326 88.8943 38.0891C88.8456 38.016 88.5289 38.1134 88.602 38.0647C88.7238 38.016 89.1134 37.9429 89.6005 37.5289C89.6005 37.5046 89.2109 37.7481 89.2109 37.7237C88.9917 37.8455 88.2854 37.8942 88.0419 37.9673C87.8227 37.8212 87.7009 37.5533 87.5791 37.3828C87.4086 37.1149 88.6507 36.9931 88.5046 36.7252C88.4072 36.5791 89.1622 36.2381 88.9673 36.2868C88.9186 36.2868 87.9688 36.6765 87.9444 36.6278C88.0906 36.092 88.2123 36.1163 88.2367 36.092C89.1865 35.7023 88.8456 35.7997 89.8441 35.3857C90.0389 35.2883 90.3068 35.1665 90.526 34.996C91.1349 34.5577 91.3541 34.4846 91.6707 33.9001C91.695 33.8514 91.8412 33.6078 91.8412 33.5591C91.8899 33.3643 91.9386 33.2425 91.9386 33.1694C92.0604 31.7812 91.5246 31.6351 91.1105 30.9288C90.7696 30.3443 90.4286 29.7598 90.2338 29.1266C90.0876 28.3472 89.8197 27.9576 90.112 26.8372C90.2338 26.4963 90.3312 26.1066 90.526 25.8144C90.7939 25.4003 91.0375 24.9619 91.3784 24.5723C91.7681 24.1339 92.3526 23.8416 92.8641 23.525C93.205 23.3302 93.5216 23.2815 93.8626 23.111C93.887 23.111 93.9113 23.0866 93.9357 23.0866C94.6663 22.8187 94.5445 23.0136 94.6176 23.4276C94.6663 23.6224 94.642 23.7686 94.8611 23.7929C94.9586 23.7929 94.3984 24.2557 95.2995 23.9634C95.4213 23.9147 95.4456 24.1339 95.47 24.2557C95.4944 24.3531 95.2021 24.4992 95.2508 24.5479C95.5431 24.8645 95.5918 24.7671 95.7866 25.1568C95.884 25.3516 95.8353 25.6195 95.6648 25.7656C95.6161 25.7656 95.5187 25.8387 95.4213 25.9118ZM55.9425 4.82069C56.0399 4.72327 56.2591 4.50408 56.3565 4.40666C56.4052 4.38231 56.4296 4.30925 56.4296 4.26054C56.4296 3.70038 56.4296 3.16458 56.4296 2.60442C56.4296 2.55571 56.4296 2.48265 56.4052 2.43394C55.6259 3.01845 56.1861 1.99556 56.3809 1.82508C56.4052 1.75201 56.4296 1.67895 56.4296 1.60589C56.4296 1.41105 56.4052 1.21621 56.4296 1.02137C56.4539 0.72912 56.4296 0.436865 56.4296 0.14461C56.4296 0.0715457 56.4052 -0.123291 56.3809 -0.123291C56.3322 -0.123291 56.2104 -0.0258726 56.1617 0.0228366C55.9669 0.217673 55.772 0.436865 55.5528 0.631701C55.1632 1.02137 54.7491 1.38669 54.3595 1.77637C53.9454 2.16604 53.5558 2.58007 53.1661 2.9941C52.9225 3.23764 52.7033 3.43248 52.4841 3.67603C52.1919 3.99264 51.924 4.3336 51.6074 4.65021C51.2908 4.94246 50.9498 5.21037 50.6332 5.52697C50.1461 6.01407 49.6347 6.52551 49.1476 7.01261C48.9284 7.25615 48.6848 7.47534 48.4656 7.71889C48.1734 8.01114 47.9055 8.32775 47.6132 8.62001C47.394 8.8392 47.1261 9.03404 46.9069 9.25323C46.3224 9.83774 45.7379 10.4222 45.1534 11.0068C44.7881 11.3721 44.3984 11.7618 44.0331 12.1271C43.887 12.2732 43.887 12.3463 44.0331 12.4924C44.0818 12.5411 44.1549 12.5898 44.2036 12.6385C44.1549 12.6872 44.1549 12.7359 44.1305 12.7603C44.1549 12.7846 44.1549 12.7846 44.1792 12.809C44.4228 13.0525 44.6663 13.2717 44.8855 13.5153C44.9829 13.5883 45.1291 13.6614 45.056 13.8319C45.056 13.8319 45.0804 13.8562 45.1047 13.8806C45.5187 14.2703 45.6892 14.4651 46.0789 14.8791C46.152 14.9766 46.1763 14.9522 46.2494 14.8791C46.3468 14.7817 47.2723 13.8806 47.394 13.7832C47.394 13.8075 46.6878 14.6843 46.6878 14.6843C46.6147 14.7817 46.4442 15.0009 46.3711 15.0983C46.3711 15.1227 46.5416 15.1227 46.5416 15.1227C46.5903 15.074 46.639 15.0496 46.7121 15.0009C46.6634 15.1714 46.4442 15.2201 46.7121 15.4149C46.8582 15.5611 47.0287 15.7072 47.1505 15.8533C47.2966 16.0238 47.3697 15.9994 47.5158 15.8533C50.414 12.9551 53.4583 9.98387 56.3565 7.08567C56.4052 7.03696 56.4296 6.93954 56.4296 6.86648C56.4296 6.33068 56.4296 5.79488 56.4296 5.25907C56.4296 5.21036 56.4296 5.18601 56.4296 5.11295C56.2591 5.25907 56.0886 5.4052 55.9181 5.55133L55.4798 5.89229C55.6015 5.74617 56.1617 5.23472 56.3078 5.11295C56.4539 4.99117 56.4539 4.8694 56.4296 4.72327C56.3809 4.74763 56.3565 4.77198 56.3322 4.77198C56.3565 4.67456 56.4052 4.57715 56.4539 4.47973C56.4296 4.47973 56.4296 4.45537 56.4052 4.45537C56.3078 4.52844 56.2104 4.6015 56.113 4.67456C56.0886 4.67456 55.9425 4.79634 55.9425 4.82069ZM47.3697 0.485574C47.1505 0.680411 46.9069 0.899602 46.6878 1.11879C46.5416 1.24057 46.4199 1.41105 46.2737 1.55718C46.0058 1.82508 45.7136 2.04427 45.4457 2.31217C45.2021 2.53136 45.0073 2.79926 44.7881 3.01845C44.5933 3.21329 44.3497 3.40813 44.1549 3.60296C42.3283 5.45391 40.4773 7.30486 38.6264 9.13145C38.5777 9.18016 38.5777 9.22887 38.5777 9.27758C38.6264 9.49677 38.602 9.71597 38.602 9.93516C38.602 9.98387 38.5777 10.4466 38.602 10.4953C41.0618 8.40082 40.1364 9.27758 38.6994 10.9093C38.6994 10.9337 38.6751 10.9337 38.6751 10.9337C38.5777 11.0555 38.5777 11.3234 38.5777 11.5182C38.5533 13.1256 38.5777 14.5138 38.5777 16.0969C38.5777 16.1699 38.5533 16.2186 38.6507 16.2674C38.7238 16.3161 38.7725 16.243 38.8212 16.1943C39.9659 15.0496 41.1105 13.8806 42.2552 12.7359C42.4988 12.5167 42.718 12.2732 42.9371 12.0297C43.132 11.8105 43.3025 11.6156 43.4973 11.4208C43.5704 11.3477 43.6678 11.299 43.7652 11.226C44.301 10.7876 44.715 10.2518 45.1778 9.74032C45.4457 9.44806 45.7623 9.15581 46.0545 8.86355C46.225 8.69307 46.4686 8.54694 46.639 8.37646C48.0029 7.03696 49.3668 5.69746 50.7063 4.3336C50.8524 4.18747 50.9985 4.04134 51.1446 3.87086C51.2664 3.77344 51.169 3.7978 51.1446 3.74909C51.1203 3.70038 51.0716 3.65167 51.0472 3.60296C50.9498 3.45683 50.9011 3.43248 50.7306 3.50554C50.7063 3.48119 50.6819 3.48119 50.6576 3.45683C50.5845 3.14022 50.3409 2.87232 50.1705 2.77491C50.0487 2.65313 50.073 2.53136 49.9026 2.55571C49.8782 2.53136 49.8782 2.48265 49.8539 2.4583C49.8295 2.43394 49.7808 2.4583 49.7564 2.48265C49.6834 2.55571 49.2693 2.96974 49.1719 3.04281C49.0501 3.14022 49.3181 2.77491 49.3424 2.7262C49.3424 2.70184 49.3424 2.70184 49.3424 2.70184C49.3668 2.62878 49.586 2.4583 49.6103 2.40959L49.5859 2.31217C49.5129 2.36088 49.4398 2.4583 49.3668 2.53136C49.245 2.60442 49.1232 2.67749 49.1232 2.67749C49.1719 2.60442 49.3181 2.40959 49.3668 2.33652C49.4155 2.26346 49.4885 2.21475 49.5129 2.16604C49.4885 2.11733 49.4155 2.09298 49.4155 2.04427C49.3668 1.92249 49.245 1.80072 49.1232 1.77637C48.9527 1.75201 48.7579 1.75201 48.7823 1.50847C48.7823 1.48411 48.7579 1.48411 48.7579 1.45976C48.6605 1.31363 48.5874 1.14315 48.49 0.99702C48.4656 0.972666 48.4169 0.948311 48.3926 0.948311C48.2464 0.948311 48.1003 0.972666 47.9785 0.972666C48.0029 0.923957 48.0273 0.850893 48.0273 0.777829C48.0273 0.704765 48.0273 0.558638 47.9298 0.509928L47.5889 0.704765L47.5645 0.363801C47.4427 0.290737 47.3453 0.461219 47.3697 0.485574ZM16.4881 29.3945C16.3663 29.224 16.3176 29.1509 16.1958 28.9804C15.4895 27.9576 14.8076 27.0808 14.1013 26.0335C13.9065 25.7656 13.8091 25.9605 13.6386 25.6682C13.5899 25.5708 13.5655 25.449 13.395 25.5221C13.3707 25.5221 13.3463 25.4734 13.322 25.4734C13.2489 25.449 13.1515 25.449 13.1028 25.4734C13.0541 25.4977 12.8836 25.449 12.8592 25.4977C12.8105 25.5952 12.8592 25.7169 12.8105 25.8387C12.7618 25.4247 12.9079 25.4734 12.3965 25.449C12.1529 25.449 11.9338 25.4734 11.6902 25.4734C11.6658 25.4734 11.6415 25.4734 11.6171 25.4734C11.2275 25.4977 11.1788 25.4247 11.1788 25.6682V25.8144C11.1544 25.8144 11.1544 25.8144 11.1544 25.7169C11.13 25.6195 11.1544 25.5708 11.13 25.4977C11.13 25.449 11.057 25.4734 11.0326 25.4734C11.0083 25.4734 10.9352 25.4734 10.9109 25.4977C10.8865 25.5221 10.8865 25.7413 10.8865 25.79C10.8865 29.979 10.8865 33.7783 10.8865 37.9673C10.8865 38.0404 10.9109 38.2108 10.9109 38.2839C10.9109 38.43 10.9352 38.9902 11.1788 38.9658C11.3249 38.9658 11.5441 39.3799 11.6902 39.3312C11.7146 39.3312 11.7389 38.1865 11.7633 38.1865C11.812 38.1865 11.8607 39.6965 11.885 39.6965C12.0068 39.6965 12.0555 39.6234 12.1773 39.6721C12.226 39.6721 12.2504 39.6965 12.2991 39.6965C12.8349 39.5747 12.2991 39.94 12.8349 39.867C13.1271 39.8426 13.2976 39.8913 13.5168 39.867C13.7847 39.8426 13.6873 39.9644 13.736 38.9415C13.7603 38.8441 13.7847 38.7223 13.8821 38.6492C14.077 38.4787 14.1744 38.7466 14.15 38.4057C14.15 37.9186 14.15 37.0175 14.15 36.5304C14.15 35.0935 14.1257 33.6565 14.1257 32.2196C14.1257 32.0978 14.1013 31.6595 14.1257 31.489C14.3205 31.7082 14.4179 31.8786 14.4423 31.9274C15.3921 33.413 16.2445 34.8743 17.2187 36.3842C17.2918 36.506 17.4135 36.6521 17.4622 36.7739C17.6084 36.9688 17.7545 37.0175 17.9006 37.0175C18.0711 37.0175 18.2172 37.0175 18.3877 37.0175C18.753 37.0175 18.9966 37.0418 19.3619 37.0418C19.4837 37.0418 19.4837 36.9931 19.4837 36.8713C19.4837 36.7009 19.4837 36.2625 19.508 36.1163C19.5567 36.2625 19.5567 36.6765 19.5567 36.8226C19.5567 37.1392 19.6542 37.0662 19.8733 37.0662C20.0195 37.0905 19.9708 36.847 19.9708 36.7496C19.9708 32.6093 19.9708 27.9576 19.9708 23.8173C19.9708 23.7442 19.9464 23.6955 19.9464 23.6224C19.9221 23.6224 19.8977 23.4032 19.8733 23.4032C19.849 23.4763 19.7029 23.9147 19.6785 23.9878C19.6054 23.9147 19.6542 23.6955 19.5811 23.6224C19.5324 23.5981 19.6054 22.7944 19.5567 22.7944C19.4593 22.7944 19.2645 22.7944 19.1427 22.7944C18.8748 22.7944 18.8261 22.7944 18.8017 23.0623C18.753 23.0623 18.7043 23.0136 18.6556 23.0379C18.5826 23.0866 18.4851 23.0866 18.4364 23.0379C18.3877 23.0136 18.3634 22.9162 18.3147 22.9162C18.2172 22.9162 18.0711 22.9162 17.9737 22.9162C17.4866 22.9405 17.6327 22.7944 17.6084 23.8416C17.6327 23.8903 17.584 23.5981 17.584 23.7929C17.511 23.6468 17.4866 23.6224 17.4866 23.4276C17.4866 23.3545 17.4866 23.3545 17.0969 23.3545C17.0969 23.3789 17.0969 23.525 17.0969 23.525C16.8047 23.5494 16.7803 23.7929 16.7803 24.3531C16.7803 24.6453 16.5855 24.5236 16.5855 24.8158C16.5855 26.4232 16.5855 27.9576 16.5855 29.4675L16.4881 29.3945ZM1.70482 24.9376C1.65611 24.8889 1.6074 24.8645 1.55869 24.8402C1.53434 24.8402 1.48563 24.2557 1.46128 24.2557C1.36386 24.2313 1.29079 24.2313 1.19338 24.2313C1.14467 24.2069 1.16902 24.4748 1.12031 24.4748C1.02289 24.4748 0.803702 24.4748 0.706283 24.4748C0.58451 24.4505 0.657574 24.3044 0.535801 24.3044C0.511446 24.3044 0.414028 24.2557 0.389674 24.3287C0.340964 24.4748 0.31661 24.7915 0.292255 24.7915C0.0487092 24.7184 0 24.8158 0 25.0594C0 27.7627 0 30.2225 0 32.9259C0 33.5835 0.0730638 34.2654 0.219191 34.923C0.633219 36.1894 1.19337 36.7009 1.68047 37.1392C2.04579 37.4802 2.65465 37.9186 3.26352 38.1134C4.40818 38.4787 5.74768 38.2596 6.33219 38.0647C7.20896 37.8212 7.62299 37.5533 8.30492 36.9931C8.45104 36.8713 8.59717 36.7252 8.71894 36.5791C9.44958 35.6536 9.79055 34.3872 9.79055 33.2181C9.79055 30.1738 9.8149 32.7798 9.86361 24.4748C9.86361 24.3531 10.0828 24.0608 10.0828 23.9391C10.0828 23.8416 9.62006 23.866 9.52264 23.866C9.25474 23.8416 8.96249 23.866 8.69459 23.866C8.45104 23.866 8.30492 23.9878 8.06137 23.9878C7.96395 23.9878 7.86653 23.9634 7.84218 24.0852C7.81782 24.2557 7.6717 25.4003 7.64734 25.5465C7.47686 24.4018 7.79347 23.939 7.45251 23.9878C7.11154 23.9878 6.74622 23.9878 6.40526 23.9878C6.25913 23.9878 6.16171 24.1095 6.16171 24.2313C6.16171 27.2026 6.16171 29.638 6.16171 32.5849C6.16171 32.8528 6.16171 32.8772 6.113 33.1207C5.91817 33.9001 5.45543 34.168 4.52995 34.0949C4.06722 34.0219 3.75061 33.827 3.55577 33.2669C3.48271 32.6336 3.50706 32.0978 3.45835 31.4646C3.55577 28.81 3.434 27.7384 3.434 25.4247C3.434 25.1081 3.58013 24.9619 3.19045 24.9863C2.97126 24.9619 2.77642 24.9619 2.55723 24.9619C2.50852 24.9619 2.48417 25.0107 2.43546 25.035C2.26498 24.9863 2.0945 24.9376 1.92401 24.9863C1.85095 25.0106 1.85095 25.2542 1.80224 25.4003C1.77789 25.376 1.75353 24.9619 1.70482 24.9376ZM35.4116 27.8358C36.6293 27.8358 37.5548 27.8358 38.7969 27.8358C39.0648 27.8358 39.0648 27.6409 39.0161 27.3974C38.9917 27.373 38.9917 27.3243 38.9917 27.3C38.9917 26.6181 38.9917 25.9118 38.9917 25.2298C38.9917 24.7671 38.9917 24.9376 38.7238 24.8889C38.7238 24.621 38.7482 24.621 38.5777 24.621C36.1422 24.621 33.8285 24.6453 31.3931 24.6453C31.3444 24.6453 31.1008 24.621 31.0521 24.621C30.9303 24.621 30.7111 24.621 30.6624 24.6453C30.6868 24.6697 30.8573 24.8158 31.0034 24.8645C31.0765 24.8889 31.1982 24.9376 31.32 24.9619C31.4174 24.9863 31.4418 24.9863 31.5392 25.0594C31.3444 25.1081 30.3215 24.9619 31.2226 25.3516C31.2957 25.449 31.3687 25.4734 31.3931 25.5708C31.4905 25.6926 31.5636 25.4977 31.6123 26.6424C31.6366 27.4218 31.6123 27.8845 31.6123 28.6638C31.6123 28.8343 31.6366 29.5163 31.6366 29.6867C31.6366 30.0033 31.6366 30.1495 31.6366 30.4661C31.6366 30.7096 31.661 31.0262 31.661 31.2698C31.6366 31.7812 31.661 32.244 31.661 32.7554C31.661 34.0462 31.7097 36.0676 31.7097 37.4315C31.7097 37.5046 31.9289 37.602 31.9289 37.675C31.9289 37.8455 32.0506 37.9673 32.2211 37.9673C32.5134 37.9673 32.7082 37.9673 32.9761 37.9673C33.0248 37.9673 33.0735 37.9673 33.1466 37.9673C33.1466 37.6994 33.2197 37.4315 33.2197 37.1879L33.2927 36.7252C33.3171 36.9931 33.3414 37.6994 33.3658 37.9673C33.4389 37.9673 33.4389 37.9673 33.4876 37.9673C33.6337 37.9673 33.7798 37.9673 33.9259 37.9673C34.0964 37.9673 34.2669 37.9673 34.4374 37.9673C34.5348 37.9673 34.6566 37.2123 34.754 37.2123C36.0448 37.2123 36.8241 37.2123 38.1149 37.2123C38.1636 37.2123 38.2367 37.2123 38.2854 37.2123C38.6751 37.2123 38.602 37.0662 38.6264 36.847C38.6264 36.7009 38.6264 36.5791 38.6264 36.433C38.6264 36.0189 38.4315 35.7023 38.4803 35.3126C38.5046 35.0204 38.5046 34.7525 38.4559 34.4602C38.4072 34.2167 38.5777 33.9975 38.0906 34.0218C37.1408 34.0218 36.8972 33.9488 35.9474 33.9488C35.6795 33.9488 35.0706 33.9731 34.7784 33.9731V32.4875C34.9732 32.4875 35.4846 32.4632 35.6551 32.4632C36.6537 32.4632 37.4574 32.5119 38.4559 32.5119C38.5046 32.5119 38.6751 32.4144 38.6994 32.3901C38.8456 32.4632 38.8456 32.4632 38.8456 31.8543C38.8212 31.7082 38.8456 31.4159 38.8456 31.2698C38.8456 31.148 38.5533 31.1967 38.3585 31.1237C38.529 31.0993 38.8456 31.148 38.8456 31.0019C38.8456 30.6366 38.8699 30.1738 38.8699 29.8085C38.8699 29.5406 38.8212 29.4919 38.5533 29.4919C37.7496 29.4919 37.1651 29.4675 36.3614 29.4675C35.9717 29.4675 35.2167 29.4432 34.8027 29.4432V27.8358C34.8758 27.8358 35.2898 27.8601 35.4116 27.8358ZM42.5962 3.82215C41.281 2.53136 39.9902 1.24057 38.6994 -0.0502272C38.6751 -0.0989364 38.602 -0.123291 38.5777 -0.0989364C38.529 -0.0745818 38.5046 -0.00151804 38.5046 0.0471911C38.5046 0.826538 38.5046 1.58153 38.5046 2.36088C38.5046 2.43394 38.529 2.50701 38.5777 2.58007C38.6507 2.67749 38.7482 2.77491 38.8212 2.87232C38.8212 2.89668 38.7969 2.89668 38.7969 2.89668C38.7238 2.82361 38.6507 2.75055 38.5777 2.67749C38.5777 2.70184 38.5533 2.70184 38.5533 2.70184C38.6264 2.79926 38.6751 2.89668 38.7482 2.9941L38.7238 3.01845C38.6507 2.94539 38.602 2.84797 38.529 2.77491C38.4803 2.9941 38.529 3.14022 38.6751 3.28635C38.7725 3.38377 38.8456 3.50554 38.943 3.62732L38.9186 3.65167C38.7969 3.50554 38.6507 3.38377 38.529 3.23764C38.5046 3.262 38.5046 3.28635 38.5046 3.28635C38.5046 4.50408 38.5046 5.69746 38.5046 6.91519C38.5046 6.9639 38.5046 6.98825 38.529 7.01261C38.6751 7.15873 38.8456 7.32921 39.0161 7.4997C39.0404 7.45099 39.0891 7.40228 39.1135 7.37792C39.9902 6.50116 40.8427 5.64875 41.7194 4.77198C41.9143 4.6015 41.9143 4.6015 41.7438 4.40666C41.6464 4.30925 41.5733 4.18747 41.4759 4.0657C41.5002 4.0657 41.5002 4.0657 41.5002 4.0657C41.6707 4.23618 41.8168 4.38231 41.9873 4.52844C42.2065 4.30925 42.4257 4.09005 42.6449 3.87086C42.6205 3.84651 42.6205 3.84651 42.5962 3.82215ZM55.7964 8.79049C54.6274 9.95951 53.434 11.1529 52.2406 12.3463C52.2406 12.3706 52.2406 12.395 52.2406 12.395C53.0443 13.1743 53.848 13.978 54.6517 14.7817C55.1144 15.2445 55.6015 15.7072 56.0643 16.1943C56.1373 16.2674 56.2835 16.3404 56.3322 16.3161C56.3809 16.3161 56.3565 16.2917 56.3809 16.0725C56.3809 15.902 56.3809 15.7315 56.3809 15.5611C56.3809 15.5367 56.3809 15.488 56.3565 15.4636C56.2835 15.3662 56.1617 15.2688 56.0643 15.1714C55.9669 15.0496 55.8451 14.9522 55.7477 14.8304C55.772 14.8304 55.358 14.392 55.358 14.392C55.5528 14.5625 56.2591 15.147 56.4296 15.2932C56.4296 14.0024 56.4296 12.809 56.4296 11.5426C56.4296 11.5182 56.3809 11.4451 56.3565 11.4208C56.2835 11.3477 55.8938 10.8606 55.8207 10.7876C55.8207 10.7876 56.1373 11.0798 56.1373 11.0555C56.2104 11.1042 56.3322 11.2747 56.4052 11.3234C56.4296 11.299 56.4296 11.2747 56.4296 11.2747C56.4296 10.5927 56.4296 9.86209 56.4296 9.20452V9.18016C56.2591 9.03404 56.113 8.86355 55.9425 8.69307C55.8938 8.71743 55.8938 8.71743 55.7964 8.79049ZM68.0467 30.32C68.0954 31.1967 67.8762 32.0248 67.5353 32.8285C67.1943 33.6078 66.6829 34.2654 66.0984 34.8499C65.7087 35.2396 65.3434 35.6536 64.8319 35.9215C64.2961 36.1894 63.7847 36.4573 63.2245 36.5791C62.981 36.6278 62.7618 36.6034 62.5182 36.6278C62.5182 36.6521 61.7632 36.5304 61.7632 36.506C61.7632 36.4817 62.3478 36.4817 62.3721 36.4573C62.3721 36.4573 62.8348 36.4573 62.8592 36.4573C63.2489 36.3112 63.3219 36.1894 63.7116 36.0676C63.9552 35.9702 64.2231 35.8972 64.3448 35.678C64.4179 35.5805 64.4666 35.4831 64.564 35.4101C64.7102 35.2883 64.8076 35.3126 64.9537 35.2152C64.9781 35.1909 65.1729 35.0204 65.1972 34.996C65.2703 34.8986 65.4895 34.6064 65.4895 34.582C65.246 34.7281 64.491 35.2883 64.2718 35.4588C63.8821 35.751 63.4924 35.9946 62.981 36.0433C62.4452 36.0676 61.9337 36.2381 61.3979 36.1651C60.9108 36.092 60.4237 36.0433 59.9367 35.8972C59.4739 35.751 59.2547 35.5805 59.7662 35.9946C59.8149 36.0433 59.7662 36.1407 59.7662 36.2138C59.7662 36.3842 59.6931 36.4573 59.5713 36.4817C59.5226 36.506 59.5226 36.5791 59.5713 36.6034C59.7418 36.6765 59.9123 36.7496 59.9123 36.9688C59.9123 37.2367 59.9123 37.2123 60.1802 37.261C60.3507 37.2854 60.3507 37.3097 60.4481 37.4802C60.4725 37.5289 60.5699 37.5289 60.6429 37.5533C60.716 37.5776 60.7647 37.6263 60.8378 37.675C60.7647 37.7237 60.6673 38.016 60.6186 38.016C57.6717 38.016 54.6761 38.016 51.7048 38.016C51.6561 38.016 51.7535 38.3083 51.6804 38.3083C51.6317 38.3083 51.5343 38.3083 51.4613 38.2839C51.3882 38.2595 51.3638 38.3083 51.3151 38.2839C51.2421 38.2352 50.9011 37.675 50.828 37.6263C50.8037 37.6507 50.755 37.5776 50.7306 37.5776C50.6332 37.675 50.6819 37.675 50.6819 37.7725C50.6576 37.9429 50.6819 38.0404 50.5845 38.0891C50.4384 38.1621 50.4627 38.1865 50.3166 38.2839C50.2435 38.1865 50.1948 38.1865 50.0974 38.0647C50.0974 38.0404 50.073 38.0404 50.0487 38.0647C50 38.1134 50.1461 38.3083 49.7321 38.3813C49.7077 38.4057 49.5372 38.1865 49.5129 38.1621L49.3424 37.8455C49.2937 37.7237 49.1963 37.7725 49.0501 37.8699C48.9527 37.9429 48.9527 37.7968 48.7092 37.602C48.7092 37.6507 48.7335 37.675 48.7335 37.6994C48.7579 37.7237 48.7579 37.7725 48.7823 37.7968C48.3682 38.0404 48.3195 38.016 48.149 37.7725C47.0287 36.1407 45.9328 34.5333 44.8125 32.9015C44.715 32.7798 44.642 32.7554 44.4715 32.7554C44.0575 32.7554 43.7896 32.7311 43.4242 32.7067C42.8641 32.6824 42.8641 32.6824 42.8641 32.8772C42.8641 34.3628 42.8641 35.8728 42.8641 37.3584C42.8641 37.4315 42.8641 37.5289 42.8154 37.5776C42.791 37.602 42.718 37.5776 42.6692 37.602C42.5962 37.6263 42.718 37.8699 42.6449 37.8699C42.5475 37.8699 42.5475 37.9429 42.4501 37.9429C42.3283 37.9429 42.2065 37.9916 42.1091 38.0891C42.0604 38.1378 41.9873 38.1621 41.963 38.1865C41.9143 38.0891 42.0604 37.8455 42.0117 37.7481C42.0117 37.7237 41.9386 37.9186 41.8899 37.6507C41.8168 37.3828 41.6951 37.9673 41.5246 38.016C41.3541 38.0647 41.2567 37.7481 41.0862 37.7237C40.9644 37.6994 40.7209 37.8942 40.5991 37.8455C40.5504 37.8212 40.526 37.8699 40.4773 37.8699C40.2825 37.8699 40.2581 37.7725 40.0877 37.7725C40.0633 37.7725 39.8928 37.8699 39.8441 37.8699C39.7711 37.8699 39.0891 37.8455 39.0161 37.8455C39.0161 37.7968 39.2109 37.6507 39.2352 37.5776C39.2352 37.5533 39.4544 37.5046 39.4788 37.4802C39.9172 37.0905 39.7954 36.4817 39.7954 35.9459C39.7954 35.4831 39.7954 35.0204 39.7954 34.5577C39.7954 32.6823 39.771 30.8314 39.771 28.9804C39.771 28.1037 39.8198 27.2269 39.8198 26.3502C39.8198 25.0594 39.8222 25.2761 39.5762 24.5723C39.6079 24.6575 39.5957 24.621 39.4057 24.4992C39.3838 24.4822 39.2328 24.3506 39.2328 24.3263C39.2304 24.2776 39.3107 24.2557 39.2523 24.2435C39.1817 24.2143 39.3156 24.185 39.3156 24.185C38.7579 24.0194 39.6712 23.9634 39.8904 23.9634C40.4018 23.9634 40.9863 24.0608 41.4978 24.0852C42.6912 24.1582 43.7871 24.2069 44.9561 24.2069C45.6624 24.2069 46.1252 24.28 46.734 24.5966C47.6839 25.0594 48.2927 25.7169 48.7555 26.545C49.1208 27.1782 49.2913 27.9088 49.2669 28.6638C49.2182 29.5893 48.7068 30.3443 48.2197 31.0749C48.0979 31.2454 47.9518 31.4159 47.8056 31.562C47.7326 31.6351 47.7569 31.7082 47.8056 31.7812C48.658 32.9259 49.4861 33.9244 50.3385 35.0691C50.4846 35.2639 50.7282 35.5075 50.8743 35.7023C50.8987 35.751 50.7525 35.6049 50.8256 35.678C50.85 35.5805 50.85 35.5805 50.85 35.5075C50.85 35.0447 50.85 34.582 50.85 34.1193C50.8743 31.6595 50.8743 29.224 50.8743 26.7642C50.8743 26.3014 50.85 26.1066 50.7525 25.4734C50.7038 25.1081 50.5333 25.0594 50.3142 24.7915C50.2654 24.7184 50.0706 24.5723 50.0219 24.4992C50.1437 24.3531 50.4603 24.3287 50.6795 24.4748C50.7525 24.4261 50.8256 24.3774 50.923 24.3287C50.923 24.3287 50.923 24.28 50.923 24.2557C50.923 24.1095 51.0448 24.2313 51.1909 24.2313C51.337 24.2313 51.5075 24.2313 51.678 24.2313C51.8485 24.2313 51.9703 24.0365 52.1407 24.0365C52.2382 24.0365 52.3356 24.0365 52.433 24.0365C52.5791 24.0365 52.7009 24.0608 52.8227 24.0608C52.847 24.1582 52.847 24.2557 52.847 24.3531C53.2854 24.4018 53.5777 23.9878 54.016 24.0365C54.0404 24.1339 54.0404 24.2313 54.0648 24.3287H54.3814C54.4057 24.3287 54.4301 24.3531 54.4301 24.3774C54.4301 24.5723 54.4057 25.1081 54.4057 25.1811C54.4057 28.2255 54.3327 31.2941 54.4057 34.3628C54.4057 34.8256 54.3083 34.7525 55.0877 34.7525C55.5504 34.7768 55.8914 34.7768 56.3541 34.7768C57.3526 34.7768 57.5962 34.8256 57.9128 34.8012C57.8641 34.7281 57.3039 34.4602 57.2552 34.4115C56.7681 34.0219 56.4759 33.6078 56.1105 33.0964C55.5991 32.3414 55.3556 31.5377 55.3312 30.6366C55.2825 29.5893 55.5017 28.6151 56.0375 27.6897C56.0618 27.6409 56.0618 27.6166 56.0862 27.5679C56.1349 27.4461 56.1593 27.2756 56.2323 27.1782C56.5002 26.8129 56.7925 26.4476 57.0847 26.1066C57.1578 26.0092 57.2552 25.9605 57.3283 25.9118C57.7667 25.6195 58.1076 25.2542 58.546 24.9863C58.7896 24.8402 59.1305 24.7915 59.3984 24.6697C59.4228 24.6453 59.9099 24.5479 59.9829 24.5479C59.3254 24.8645 58.5704 25.4003 58.3268 25.5952C58.3025 25.6195 58.3025 25.6195 58.3025 25.6195C58.2538 25.6926 57.8641 26.2284 57.8884 26.2527C58.132 25.9848 58.7652 25.5221 58.9844 25.3273C59.5933 24.8158 60.3239 24.694 61.1032 24.7184C61.3468 24.7184 61.566 24.694 61.7852 24.5966C62.0774 24.4748 62.3697 24.4505 62.6619 24.5966C62.8324 24.694 63.0272 24.694 63.1977 24.7184C63.2464 24.7184 63.2952 24.694 63.3439 24.7184C64.3424 25.0837 65.3409 25.4003 66.169 26.0823C66.1934 26.0823 66.1934 26.1066 66.1934 26.1066C66.6561 26.6911 67.1432 27.2269 67.5329 27.8601C67.8251 28.3229 67.9956 28.8343 68.0443 29.3945C68.0711 29.6624 68.1441 29.9546 68.0467 30.32ZM45.8353 28.9074C46.1032 28.3472 46.0058 27.4461 45.1534 27.1295C44.7394 26.9834 44.5689 27.0321 44.2279 27.0077C44.2279 27.0321 44.2279 27.0321 44.2279 27.0321C43.6434 27.0321 43.3512 27.0321 42.791 27.0321C42.7423 27.0321 42.718 27.0808 42.718 27.1051C42.718 27.8845 42.7423 28.6638 42.7423 29.4432C42.7423 29.4675 42.791 29.4919 42.8154 29.4919C43.4242 29.4919 44.0087 29.5406 44.5933 29.4919C44.9099 29.4675 45.0073 29.4919 45.3239 29.3945C45.4457 29.3701 45.811 29.0535 45.8353 28.9074ZM64.6614 30.2956C64.6127 29.6137 64.3205 29.224 63.8821 28.7125C63.7603 28.5664 63.6386 28.469 63.4924 28.3959C63.054 28.1767 62.5182 28.0063 62.0555 27.9088C61.8607 27.9332 61.6902 27.9332 61.4953 27.9576C61.0083 28.0063 60.6186 28.128 60.2045 28.3959C59.4739 28.883 58.9868 29.5406 59.0355 30.4417C59.1086 31.4159 59.5226 32.1222 60.4237 32.5119C61.057 32.7798 61.7389 32.7554 62.4208 32.6336C63.054 32.5119 63.6142 32.244 64.0769 31.8056C64.5153 31.3916 64.7102 30.9045 64.6614 30.2956ZM89.9659 30.2469C90.0389 31.2454 89.8684 32.1709 89.5518 33.072C89.357 33.6565 89.016 34.1436 88.6264 34.6064C88.3341 34.9717 87.7496 35.4831 87.3599 35.7267C87.019 35.9459 86.4588 36.1894 86.1178 36.3842C85.3872 36.7739 84.6079 36.8713 83.8042 37.0662C83.2927 37.1879 82.6838 37.1149 82.148 37.2123C82.075 37.2367 81.9776 37.2367 81.8801 37.2367C81.6123 37.2367 81.4661 37.2367 81.1982 37.2123C81.1008 37.2123 81.0034 37.188 80.9303 37.2123C80.979 37.2854 81.32 37.6263 81.3687 37.6994C81.4418 37.7725 81.5635 37.8455 81.32 37.9186C81.2226 37.9673 81.1251 38.0404 81.0521 38.1134C80.9547 38.2108 80.8572 38.2108 80.7842 38.0891C80.7111 37.9673 80.5893 37.9673 80.4919 38.0647C80.3702 38.1621 80.3945 38.3083 80.2971 38.2108C80.2971 38.1865 80.2727 38.1865 80.2727 38.1621C80.1753 38.0647 80.1023 37.9916 79.9074 38.016C79.5665 38.0647 79.7369 38.357 79.8587 38.5275C79.8587 38.5275 79.7857 38.6492 79.81 38.6736C79.7126 38.7954 79.5665 38.5031 79.469 38.4057C79.3229 38.2596 79.2986 38.2108 79.1768 38.0647C79.1524 38.016 79.0794 38.016 79.0307 38.0404C78.8602 38.1621 78.6897 38.3083 78.5192 38.4057C78.4705 38.43 78.3487 38.4057 78.3 38.357C78.1782 38.2595 77.9834 38.0404 77.886 37.9186C77.8616 37.9186 77.8616 37.9429 77.8373 37.9429C77.9103 38.0891 77.9834 38.2352 78.0565 38.3813C78.0565 38.3813 78.227 38.6249 78.227 38.6492C78.1782 38.6249 77.886 38.3813 77.8616 38.3326C77.5207 37.9186 77.0579 37.3584 76.7413 36.92C75.6941 35.5075 74.793 34.0462 73.7701 32.6093C73.6726 32.4632 73.4291 32.3414 73.2586 32.3414C72.8446 32.3414 72.4549 32.3414 72.0409 32.3414C71.8948 32.3414 71.8217 32.4144 71.8217 32.5849C71.8217 32.6823 71.846 32.9502 71.846 33.072C71.8704 34.5089 71.846 35.9702 71.8217 37.4071C71.8217 37.4802 71.7973 37.5289 71.7486 37.5776C71.7243 37.5776 71.5781 37.1392 71.5051 37.1149C71.4807 37.3341 71.6512 38.1378 70.8962 37.7968C70.5309 37.602 70.0925 37.602 69.7028 37.7968C69.3375 37.9673 69.2401 37.6994 68.9722 37.6994C68.9966 37.5776 69.0209 37.4558 69.0453 37.3584C69.0209 37.3584 69.0209 37.3341 68.9966 37.3341C68.9235 37.4071 68.8748 37.4559 68.8261 37.5289C68.7774 37.6263 68.6312 37.675 68.5338 37.602C68.3633 37.5046 68.1929 37.4071 67.998 37.3097C68.0224 37.2367 68.0711 37.188 68.0954 37.1392C68.2172 36.9444 68.3633 36.7496 68.4851 36.5547C68.6556 36.2625 68.7043 35.9459 68.7043 35.6049C68.7043 33.4617 68.7043 31.3428 68.7043 29.224C68.7043 28.0306 68.7287 26.8372 68.7043 25.6439C68.7043 25.2786 68.5095 24.9619 68.1441 24.7915C67.998 24.7184 67.8251 24.7257 67.7934 24.4505C67.8665 24.4505 67.6571 24.3945 67.7545 24.3945C67.7545 24.3701 67.7545 24.3701 67.7545 24.3458C67.6327 24.3214 67.7301 24.2678 67.7253 24.2191C67.6765 24.2191 67.735 24.1899 67.7545 24.1582C67.7886 24.1168 67.8519 24.0608 67.9006 24.0608C68.0954 24.0121 68.2903 23.9878 68.5095 23.9878C69.1183 23.9634 69.7515 23.9147 70.3604 23.9147C71.5538 23.9147 72.6985 23.9634 73.8918 23.9878C74.5007 24.0121 75.28 24.1095 75.8158 24.4018C76.1568 24.5966 76.5221 24.7915 76.8144 25.0594C77.5207 25.7169 78.227 26.6668 78.3244 27.6409C78.4705 29.1753 77.8373 29.6624 77.2041 30.5879C77.0823 30.7827 76.8631 30.9288 76.6926 31.1237C76.6683 31.1724 76.6683 31.2211 76.6926 31.2698C77.6911 32.5849 78.5923 33.9731 79.6152 35.2883C79.6152 35.2883 79.7126 35.4344 79.7369 35.4344C79.7369 35.337 79.7369 35.0935 79.7369 35.0204C79.7369 32.317 79.6882 29.6137 79.7369 26.9103C79.7613 25.9361 79.5177 25.9118 79.1037 25.5952C78.9819 25.4977 78.7871 25.4247 78.6897 25.3273C78.641 25.2785 78.6166 25.2055 78.5679 25.1568C78.641 25.1081 79.1524 25.1568 79.2255 25.1081C79.2011 25.0837 78.8845 24.9863 78.8602 24.9619C78.8115 24.9376 78.7871 24.9132 78.7384 24.8889C78.7627 24.8402 78.7628 24.7915 78.8115 24.7671C79.3229 24.4992 79.1281 24.5966 79.8831 24.4992C80.2484 24.4505 80.6381 24.4748 81.0034 24.4992C81.2469 24.5236 81.5148 24.4748 81.7584 24.4748C82.3429 24.4992 83.1222 24.4992 83.7067 24.5236C84.5835 24.5723 85.4603 24.8158 86.2396 25.2298C86.7511 25.4734 87.0433 25.7169 87.2382 25.8874C87.3112 25.9361 87.5304 26.1553 87.774 26.4719C87.9688 26.7155 88.188 27.0808 88.3828 27.5435C88.3585 27.3 88.1636 26.8372 87.9688 26.4963C87.7739 26.131 87.3112 25.6439 87.1407 25.4734C87.5547 25.6439 88.2123 26.2284 88.4559 26.5693C88.8212 27.0564 89.1135 27.6897 89.3814 28.2255C89.5518 28.5421 89.5762 28.9317 89.6736 29.2971C89.7467 29.5893 89.8197 29.8816 89.9659 30.2469ZM74.7442 27.4705C74.6712 27.1295 74.3789 26.9103 74.038 26.8616C73.8918 26.8372 73.7214 26.8372 73.5752 26.8372C73.3317 26.8372 73.0638 26.8372 72.8202 26.8372C72.4793 26.8372 72.1627 26.8372 71.846 26.8372C71.6269 26.8372 71.5781 26.9834 71.5781 27.1782C71.5781 27.7384 71.5781 28.3229 71.5781 28.883C71.6025 29.0048 71.6999 29.1266 71.846 29.1266C72.3818 29.1266 72.8933 29.1509 73.4291 29.1266C73.6483 29.1266 73.8918 29.0779 74.111 29.0048C74.7199 28.81 74.9634 28.1524 74.7442 27.4705ZM86.0448 29.2971C85.5333 28.2498 84.6566 27.9819 83.5362 27.9332C83.4632 27.9332 83.3901 27.9332 83.3171 27.9332C83.0735 27.9576 83.0248 27.9819 83.0248 28.2255C83.0248 29.8816 83.0248 31.3916 83.0248 33.0233C83.0248 33.2669 83.0979 33.2425 83.3414 33.2425C83.3901 33.2425 83.4388 33.2425 83.4875 33.2425C84.1938 33.1938 84.8027 33.1207 85.3628 32.6823C86.4832 31.8299 86.678 30.4904 86.0448 29.2971ZM31.1495 31.1967C31.1252 31.5377 31.0278 32.0978 30.9547 32.4144C30.906 32.6823 30.9303 32.8041 30.8329 33.0964C30.8086 33.1451 30.7598 33.3886 30.7355 33.4373C30.2484 34.3872 29.6395 35.3126 28.7628 35.8972C28.641 35.9702 28.2757 36.2625 28.2513 36.2625C28.227 36.2381 28.7628 35.678 28.8115 35.6049C28.9089 35.4831 28.9576 35.3857 28.982 35.3614C29.1768 35.1909 29.396 34.9717 29.4691 34.6794C29.5178 34.5333 29.6882 34.3141 29.8344 34.2167C30.1753 33.9488 30.1266 33.5591 30.224 33.1694C30.0779 33.5835 29.737 33.9731 29.4691 34.3141C29.2986 34.5333 29.2499 34.8499 29.0794 35.0691C29.0063 35.1909 28.7628 35.2639 28.641 35.3614C28.5192 35.4588 28.3731 35.6049 28.3 35.7267C28.1052 35.9946 27.886 36.0433 27.6181 36.1894C27.131 36.433 26.6196 36.5791 26.0838 36.7009C25.3531 36.8713 24.7199 36.9444 23.9649 36.9931C23.0638 37.0418 22.1627 37.0418 21.3346 37.0175C21.2616 37.0175 21.1885 36.9444 21.1885 36.8713C21.1885 36.506 21.1885 35.8484 21.1885 35.3126C21.1885 34.996 21.2129 34.6794 21.2129 34.3628C21.2129 33.754 21.2129 33.1694 21.2129 32.5849C21.2129 32.0735 21.2372 31.562 21.2372 31.0506C21.2372 30.4417 21.2372 29.8085 21.2372 29.1753C21.2372 27.9576 21.2372 26.8616 21.2372 25.6439C21.2372 25.5708 21.1885 25.4247 21.1885 25.376C21.1641 25.2542 21.1641 25.2542 21.0911 25.1081C21.0667 25.035 21.018 24.9619 21.1641 24.8645C21.0911 24.8402 21.0911 24.7671 21.018 24.7428C21.018 24.5966 21.0667 24.4748 21.1885 24.4748C21.9678 24.4748 22.5036 24.4748 23.283 24.4748C23.624 24.4748 23.9649 24.4505 24.2815 24.4748C25.3288 24.5236 26.1325 24.7915 27.0336 25.035C27.8373 25.2542 28.5192 25.6926 29.2012 26.1553C29.8344 26.5937 30.2728 27.1782 30.6381 27.8601C30.906 28.3229 31.0034 28.8343 31.0521 29.3701C31.1008 30.0277 31.2226 29.7598 31.1495 31.1967ZM26.303 28.469C25.6697 28.2011 25.0852 28.1767 24.4033 28.2011C24.4033 28.2011 24.3789 28.2011 24.3789 28.2255C24.3789 29.0779 24.3789 29.9059 24.3789 30.7583C24.3789 31.5133 24.3789 32.244 24.3789 32.999V33.0233C24.3789 33.2912 24.4277 33.2425 24.6956 33.1938C25.1339 33.1451 25.548 33.072 25.9863 32.9502C27.0336 32.6823 27.7155 31.8543 27.7642 30.734C27.8129 29.8085 27.3746 28.9074 26.303 28.469ZM39.5519 19.7257C39.5519 20.1397 39.5519 20.4807 39.5275 20.6755C39.5275 20.7973 39.5032 20.8947 39.4057 20.9191C39.357 20.9434 39.3083 20.9434 39.2352 20.9434C39.1865 20.9434 39.1622 20.9434 39.1622 20.9678C39.1622 20.9921 39.2109 21.0165 39.2596 21.0165C39.357 21.0165 39.4788 21.0165 39.5762 21.0165C39.6736 21.0165 39.771 21.0165 39.8198 21.0165C39.9415 21.0165 40.0877 21.0165 40.2581 21.0409C40.4286 21.0409 40.5991 21.0652 40.7696 21.0652C41.5976 21.0652 42.0604 20.773 42.2552 20.5538C42.4988 20.2859 42.7423 19.8718 42.7423 19.3117C42.7423 18.8002 42.5231 18.4106 42.3039 18.1914C41.8168 17.6799 41.0862 17.6799 40.526 17.6799C40.2581 17.6799 39.9902 17.7043 39.8441 17.7043C39.7223 17.7043 39.4544 17.6799 39.2109 17.6799C39.1378 17.6799 39.1135 17.6799 39.1135 17.7286C39.1135 17.7773 39.1378 17.7773 39.1865 17.7773C39.2352 17.7773 39.3327 17.8017 39.357 17.8017C39.5032 17.826 39.5519 17.8991 39.5519 18.0452C39.5519 18.1914 39.5519 18.3131 39.5519 18.9951V19.7257ZM40.112 19.4822V18.9464C40.112 18.6054 40.112 18.2157 40.112 18.0696C40.112 18.0209 40.112 17.9965 40.1607 17.9722C40.2094 17.9722 40.3556 17.9478 40.453 17.9478C40.8183 17.9478 41.3054 17.9965 41.7194 18.3862C41.8899 18.5567 42.1334 18.922 42.1334 19.4822C42.1334 19.9205 42.0604 20.3346 41.7681 20.5781C41.5002 20.7973 41.208 20.8947 40.7452 20.8947C40.3799 20.8947 40.2094 20.7973 40.1607 20.7242C40.1364 20.6755 40.112 20.5051 40.112 20.3833C40.112 20.2859 40.112 19.9449 40.112 19.4822ZM45.8353 21.1383C46.9557 21.1383 47.6619 20.3346 47.6619 19.3117C47.6619 18.2888 46.98 17.6556 45.8841 17.6556C44.5689 17.6556 44.0575 18.6297 44.0575 19.3847C44.0575 20.1641 44.5689 21.1139 45.8353 21.1383ZM46.0302 20.8947C45.1778 20.8947 44.6663 20.1641 44.6663 19.2386C44.6663 18.1427 45.2508 17.8504 45.7623 17.8504C46.4929 17.8504 47.0531 18.4593 47.0531 19.4578C47.0531 20.7486 46.3468 20.8947 46.0302 20.8947ZM50.0487 17.9478V19.7501C50.0487 20.1641 50.0487 20.5051 50.0243 20.6999C50.0243 20.8217 50 20.9191 49.9026 20.9434C49.8539 20.9678 49.8051 20.9678 49.7321 20.9678C49.6834 20.9678 49.659 20.9678 49.659 20.9921C49.659 21.0165 49.7077 21.0409 49.7564 21.0409C49.9269 21.0409 50.2192 21.0165 50.3166 21.0165C50.4627 21.0165 50.7306 21.0409 51.0229 21.0409C51.0716 21.0409 51.0959 21.0165 51.0959 20.9921C51.0959 20.9921 51.0716 20.9678 51.0229 20.9678C50.9742 20.9678 50.8767 20.9434 50.8037 20.9434C50.6819 20.9191 50.6576 20.8217 50.6332 20.6999C50.6088 20.5051 50.6088 20.1641 50.6088 19.7501V17.9235L51.169 17.9478C51.5587 17.9478 51.6804 18.0696 51.6804 18.1914V18.2401C51.6804 18.3131 51.7048 18.3375 51.7292 18.3375C51.7535 18.3375 51.7779 18.3131 51.7779 18.2644C51.7779 18.1427 51.8022 17.8504 51.8022 17.753C51.8022 17.6799 51.8022 17.6556 51.7779 17.6556C51.7535 17.6556 51.7292 17.6556 51.6561 17.6799C51.583 17.6799 51.4856 17.7043 51.3395 17.7043H49.5859C49.4398 17.7043 49.2693 17.7043 49.1476 17.6799C49.0258 17.6799 48.9771 17.6312 48.9527 17.6312C48.9284 17.6312 48.9284 17.6556 48.904 17.7043C48.8797 17.753 48.8066 18.1427 48.8066 18.2157C48.8066 18.2644 48.831 18.2888 48.8553 18.2888C48.8797 18.2888 48.904 18.2644 48.904 18.2401C48.904 18.2157 48.9284 18.167 48.9771 18.0939C49.0501 17.9965 49.1476 17.9722 49.4155 17.9722L50.073 17.9478H50.0487ZM56.2835 20.091C56.2348 20.091 56.2348 20.091 56.1373 20.091C55.8694 20.1154 55.7477 20.2372 55.5041 20.2372C55.5285 20.2859 55.5528 20.3589 55.5772 20.4076C55.7477 20.8217 55.8694 20.8704 55.9669 20.8947C56.0399 20.9191 56.113 20.9191 56.1617 20.9191C56.186 20.9191 56.2104 20.9191 56.2104 20.9434C56.2104 20.9921 56.186 20.9921 56.0156 20.9921C55.8694 20.9921 55.5528 20.9921 55.1875 20.9921C55.1144 20.9921 55.0657 20.9921 55.0657 20.9678C55.0657 20.9434 55.0901 20.9191 55.1388 20.9191C55.1875 20.9191 55.2119 20.8704 55.1875 20.8217L54.9927 20.2859C54.9683 20.2615 54.9683 20.2615 54.944 20.2615H53.6532C53.6288 20.2615 53.6045 20.2615 53.6045 20.2859L53.5314 20.505C53.4827 20.6025 53.4583 20.7242 53.4583 20.773C53.4583 20.8704 53.4827 20.9191 53.6288 20.9191H53.7019C53.7506 20.9191 53.7749 20.9191 53.7749 20.9434C53.7749 20.9921 53.7506 20.9921 53.7019 20.9921C53.5557 20.9921 53.3853 20.9678 53.2391 20.9678C53.1904 20.9678 52.9469 20.9921 52.7277 20.9921C52.679 20.9921 52.6546 20.9678 52.6546 20.9434C52.6546 20.9191 52.679 20.9191 52.7033 20.9191C52.752 20.9191 52.8251 20.9191 52.8495 20.9191C53.0443 20.8947 53.1174 20.7486 53.2148 20.5294L54.3351 17.753C54.3838 17.6312 54.4082 17.5825 54.4569 17.5825C54.5056 17.5825 54.5299 17.6312 54.5786 17.7286C54.6517 17.9478 55.1632 19.263 55.5041 20.0667C55.8451 20.0667 56.2591 20.0667 56.3322 20.0667C56.4296 20.0667 56.4052 20.1397 56.2835 20.091ZM53.7262 20.1397H54.8709C54.8953 20.1397 54.8953 20.1397 54.8953 20.1154L54.3351 18.581C54.3351 18.5567 54.3351 18.5323 54.3107 18.5323C54.3107 18.5323 54.2864 18.5567 54.2864 18.581L53.7019 20.091C53.7019 20.1154 53.7019 20.1154 53.7262 20.1397ZM96.3175 22.9624V23.0939H96.0643V23.7564H95.906V23.0939H95.6527V22.9624H96.3175ZM97.1748 23.7588L97.1456 23.2912C97.1432 23.2303 97.1432 23.1548 97.1407 23.0696H97.131C97.1115 23.1402 97.0872 23.2328 97.0628 23.3058L96.9191 23.7466H96.7559L96.6122 23.2937C96.5976 23.2328 96.5733 23.1402 96.5562 23.0696H96.5465C96.5465 23.1427 96.544 23.2182 96.5416 23.2912L96.5124 23.7588H96.3614L96.4198 22.9649H96.6561L96.7924 23.3521C96.8095 23.413 96.8241 23.4714 96.846 23.5542H96.8485C96.868 23.4812 96.8874 23.413 96.9045 23.3545L97.0409 22.9624H97.2698L97.3307 23.7564H97.1748V23.7588Z" fill="white"/>
</svg>
