<svg width="93" height="40" viewBox="0 0 93 40" fill="none" xmlns="http://www.w3.org/2000/svg">
<path fill-rule="evenodd" clip-rule="evenodd" d="M89.6973 18.7803H80.3754C78.7031 18.7803 77.3155 20.1679 77.3155 21.8402V29.8457C77.3155 31.518 78.7031 32.9056 80.3754 32.9056H89.6973C91.3696 32.9056 92.7572 31.518 92.7572 29.8457V21.8402C92.7572 20.1679 91.3696 18.7803 89.6973 18.7803ZM55.5049 8.24863H54.3663V8.03515C54.6866 8.03515 54.8645 7.96399 54.7221 7.71493C54.5087 7.28797 55.4337 7.32355 55.5761 7.39471C55.7895 7.57261 55.6472 8.03515 55.5049 8.24863ZM53.9394 8.53327H55.327C55.1847 8.78233 54.7577 9.56509 54.4731 9.56509C54.3308 9.38719 53.975 8.88907 53.9394 8.53327ZM80.4465 21.8402H89.6618V29.8457H80.4465V21.8402ZM61.5179 21.8402H74.3267C74.3267 20.1679 72.9391 18.7803 71.2669 18.7803H61.4112C59.7389 18.7803 58.3513 20.1679 58.3513 21.8402V29.8457C58.3513 31.518 59.7389 32.9056 61.4112 32.9056H71.2669C72.9391 32.9056 74.3267 31.518 74.3267 29.8457V24.5799H63.9374C63.9374 25.8963 65.0048 26.9282 66.2857 26.9282H71.4092V29.8457H61.5179V21.8402ZM21.4904 21.8402H33.7299C33.7299 20.1679 32.3423 18.7803 30.67 18.7803H21.2057C19.5335 18.7803 18.1458 20.1679 18.1458 21.8402V24.3308C18.1458 26.0031 19.5335 27.3907 21.2057 27.3907H30.7056V29.8813H18.1458C18.1458 31.5536 19.5335 32.9412 21.2057 32.9412H30.9902C32.6625 32.9412 34.0501 31.5536 34.0501 29.8813V27.3907C34.0501 25.7184 32.6625 24.3308 30.9902 24.3308H21.4904V21.8402ZM3.87823 21.8402H15.4417C15.4417 20.1679 14.0541 18.7803 12.3819 18.7803H3.05989C1.38762 18.7803 0 20.1679 0 21.8402V29.8457C0 31.518 1.38762 32.9056 3.05989 32.9056H12.3819C14.0541 32.9056 15.4417 31.518 15.4417 29.8457H3.87823V21.8402ZM58.4225 6.86101C58.3513 6.89658 58.2801 6.93216 58.209 6.93216C57.782 7.53703 58.0311 7.46587 57.2483 7.99957C57.2483 9.03139 57.2839 9.13813 57.533 10.0632C57.533 10.0988 57.533 10.0988 57.533 10.1344C57.533 10.17 57.4974 10.17 57.4974 10.17C57.3195 10.2055 57.0348 10.2767 56.8925 10.3123C56.8925 10.3479 56.9637 10.9171 56.8925 11.3797C56.7502 12.0557 55.1135 13.5501 54.7577 13.6568C54.224 13.7635 53.6192 13.301 52.6585 12.874C52.4094 12.7673 51.5199 12.198 51.0574 12.0201C50.666 11.8778 50.3102 12.8029 50.7727 13.0519C50.9862 13.1587 51.342 13.3366 51.4488 13.6212C51.769 14.4751 51.4132 17.7485 50.7372 18.3889C50.4169 18.3889 50.1323 18.1043 49.9188 18.1755C49.4919 18.4245 49.7765 19.7054 49.9188 19.9189C52.5162 22.5874 52.2315 24.5799 53.3345 26.0742C53.8326 26.0742 53.5124 26.6079 53.9038 27.2484C54.0105 27.5686 53.8682 28.1023 53.8326 28.3158C53.8326 28.6004 53.8326 28.8495 53.8326 29.1341C53.7971 29.2053 53.7615 29.312 53.7615 29.3832C53.7615 29.6322 53.7615 29.8457 53.7615 30.0948C53.6903 30.4506 53.5836 30.9131 53.5124 31.2333C53.3701 31.9094 53.9394 32.4431 53.5836 33.0835C53.5836 33.4749 53.5836 33.4037 53.3345 33.7239C53.3345 34.3288 53.1922 35.6453 53.3345 36.1078C53.4412 36.428 54.5798 37.7801 54.9 37.9224C55.6116 38.2426 56.6435 38.1715 56.2877 39.2744C54.224 39.9149 52.9431 38.9186 51.8401 38.9186L51.8046 39.0965C51.093 39.0965 50.5593 38.9186 50.3814 38.8831C50.3814 38.7052 50.5948 37.2464 50.7016 36.9973C50.7727 36.8906 50.8439 36.7483 50.9506 36.6415C51.0218 36.3925 50.8795 34.5779 50.8439 34.0798C50.4169 33.7595 50.3102 32.7633 50.3102 32.2296C50.1679 31.8026 50.1679 31.3045 50.1679 30.7708C50.1679 30.5217 49.99 30.1304 50.0967 29.8101C50.1679 29.5967 50.4169 29.4899 50.4525 29.312C50.4525 29.0985 50.4525 28.9206 50.4525 28.7072C50.5593 28.0667 50.5237 27.7821 50.1323 27.3907C49.1716 27.3907 49.0293 27.4619 48.5312 26.6435C48.3533 26.3945 47.0368 24.2597 46.8945 24.2241C45.7915 23.726 46.005 23.9394 45.5069 23.0499C45.4713 23.0499 45.1867 23.1567 44.9376 23.5481C44.5462 24.1529 43.8346 26.0742 43.6212 26.7503C43.5144 27.1416 43.6212 27.533 43.4433 27.8532C43.3365 28.0667 42.9096 28.1379 42.8384 28.3158C42.447 29.0274 42.7317 28.9562 41.9845 29.4543C41.8422 29.6322 41.8422 29.8813 41.7354 30.0948C41.6642 30.1659 41.6287 30.2371 41.5575 30.3438C41.4152 30.6285 41.6998 31.091 41.6287 31.2689C41.4864 31.6959 41.344 32.1584 41.1661 32.5498C40.8103 33.3681 40.8815 34.4356 40.5257 34.9337C40.3478 35.1827 39.9208 34.9337 39.6006 35.1471C39.565 35.3251 39.0669 36.4636 38.9602 36.7838C38.9602 37.3887 38.9602 37.9936 38.9602 38.634C39.0669 38.9542 39.316 39.2389 39.2448 39.6302C39.1736 40.0572 37.7149 40.0572 36.9321 39.9149C36.3984 39.8437 36.2561 39.4523 36.2561 38.9898C36.2561 38.4561 37.3235 35.0048 37.2879 34.7913C36.4696 33.8663 37.5014 32.9412 37.8216 32.0873C37.9639 31.6603 37.8928 31.091 38.0351 30.6996C38.3197 30.1659 38.6044 29.6678 38.889 29.1341C39.4227 28.636 39.1736 28.6004 39.4583 28.1735C39.7073 27.7821 39.992 27.533 39.8141 26.9282C39.4583 25.754 40.2055 24.0818 40.2766 22.8365C40.1343 22.6941 39.7073 22.7297 39.6362 22.3739C39.5294 21.5911 39.9208 20.2391 40.1699 20.1324C40.2766 20.0612 40.4189 20.1324 40.4901 20.0612C40.4901 19.4919 39.9208 16.2897 40.3478 16.1118C40.6324 16.0051 41.2373 15.9695 41.344 15.8983C41.344 15.756 41.2373 15.4714 41.1306 15.4714C40.9526 15.4358 40.5613 15.3646 40.241 15.2935C39.2804 15.08 40.1699 11.3085 40.1699 11.2729C40.4189 10.9171 41.6642 11.3797 41.8066 10.8104C42.198 10.2767 41.4864 8.28421 42.874 5.7936C43.3365 4.97526 44.2616 4.12134 45.2934 4.47714C45.6492 4.58388 45.4357 5.11758 46.0406 4.5483C46.0406 4.22808 45.8983 3.97902 45.8271 3.69438C44.7953 0.634494 48.2821 -1.03777 50.7372 0.705654C51.0218 0.812394 51.1641 0.883555 51.3776 1.02587C51.5199 1.73748 52.1959 2.9472 51.5199 3.76554C51.2353 3.8367 50.8795 3.97902 50.666 4.12134C50.666 4.40598 50.7016 4.65504 50.7372 4.83294C50.7727 4.97526 50.8795 5.04642 50.6304 5.15316C50.5948 5.15316 50.6304 5.2599 50.6304 5.29548C51.1997 5.40222 51.8046 5.18874 52.1959 5.04642H52.6585V4.47714H52.7652H52.872V4.0146H53.0854V4.79736H53.6547V5.04642H62.0872V5.47338H62.443V3.87228H62.7632V5.18874H63.4748V5.93592H65.7164V5.72244H66.0722V5.82918H67.1396V6.43404H66.0722V6.54078H65.7164V6.3273H63.4748V6.54078C63.1546 6.54078 62.8344 6.54078 62.4786 6.54078V6.39846H62.0516V6.86101H58.4225Z" fill="white"/>
</svg>
