<svg width="201" height="40" viewBox="0 0 201 40" fill="none" xmlns="http://www.w3.org/2000/svg">
<path fill-rule="evenodd" clip-rule="evenodd" d="M163.834 24.1289C164.424 24.1292 167.199 24.1318 168.529 24.1522C168.789 24.1564 169.002 24.3561 169.017 24.6094C169.031 24.8628 168.843 25.0845 168.585 25.1171C167.511 25.2529 166.896 25.4779 166.375 25.6685C165.831 25.8672 165.39 26.0286 164.637 26.013C166.307 29.4708 166.58 29.7616 167.23 30.0676C167.425 30.1328 167.566 30.3137 167.566 30.5261C167.566 30.7846 167.355 31.0105 167.063 31.0105C167.063 31.0105 162.166 30.9431 162.131 30.9424C161.704 30.9363 161.484 30.4383 161.773 30.1306C161.829 30.0488 161.811 29.9753 161.804 29.959L160.105 26.028L151.459 26.0059C151.279 26.4938 150.537 28.52 150.259 29.4536C150.181 29.7443 150.308 29.9338 150.583 30.0686C151.104 30.2475 150.977 31.0105 150.418 31.0105L146.49 31.0044C145.966 31.0034 145.801 30.3053 146.276 30.083C147.215 29.6437 147.601 28.8922 147.604 28.8846L156.269 8.0805C156.429 7.69679 157.006 7.65973 157.186 8.07411L163.834 24.1289ZM159.387 24.0989L155.906 14.6831L152.132 24.1807L159.387 24.0989ZM98.5214 31.4364C92.2426 31.4364 85.886 27.4693 85.886 19.8871C85.886 3.99493 111.082 4.37768 111.082 19.3417C111.082 27.1974 104.61 31.4364 98.5214 31.4364ZM97.7857 9.80809C92.0381 9.80809 90.3974 14.2803 90.3974 19.8398L90.3991 19.8491C91.2379 26.3897 94.4959 29.7246 100.081 29.7326C105.479 29.2246 106.497 23.7875 106.4 19.312C106.4 14.3331 102.294 9.80809 97.7857 9.80809ZM53.5311 8.71862C53.6616 8.43617 54.4261 8.4466 59.6743 8.5182C61.4674 8.54267 63.7839 8.57427 66.7772 8.60377C74.0424 8.67566 77.3227 14.2668 77.2959 19.431C77.2648 25.4503 72.9595 31.5443 64.7933 31.5443H64.7926C63.7424 31.5443 62.6372 31.4433 61.5074 31.2443C59.9087 30.9628 57.0892 30.9037 55.0058 30.9037H54.9021C54.6753 30.9037 54.4773 30.7535 54.4213 30.5392C54.365 30.3248 54.4651 30.1005 54.6641 29.9941C55.3517 29.6273 55.4673 29.011 55.4817 28.9097C55.4882 27.911 55.59 11.8434 55.5487 10.5776L55.5468 10.5635C55.3228 9.78269 54.7081 9.63081 54.2097 9.50766C53.7992 9.40622 53.4676 9.32428 53.498 8.92645L53.5006 8.88976C53.5051 8.82344 53.5089 8.76677 53.5311 8.71862ZM72.1347 25.3694C74.3016 20.1687 74.064 9.54244 59.6678 10.4447L59.7814 28.0024C60.4297 29.1088 61.8691 29.7174 63.8406 29.7177C67.0276 29.7177 71.0007 28.0912 72.1347 25.3694ZM138.361 8.30844C137.863 8.46308 137.26 8.56692 136.86 8.56692C136.448 8.56692 121.591 8.54615 120.698 8.54487C120.083 8.23017 119.125 7.84678 118.976 8.50845L118.36 11.2436C118.308 11.4717 118.431 11.703 118.651 11.7941C118.871 11.8845 119.127 11.8094 119.259 11.6146C119.526 11.2187 119.929 10.919 120.49 10.6992C121.928 10.643 125.788 10.6366 126.637 10.6356L126.549 29.0461C126.547 29.0732 126.509 29.7106 125.901 30.0719C125.474 30.3256 125.659 30.9704 126.159 30.9704L131.452 30.947C131.973 30.9448 132.138 30.2544 131.67 30.0285C131.236 29.8186 131.006 29.502 130.969 29.0905C130.949 28.2342 130.818 13.643 130.791 10.6395L136.201 10.7647C136.249 10.7669 137.391 10.8302 137.795 11.9408C137.875 12.1596 138.103 12.2922 138.338 12.2571C138.772 12.1919 138.778 11.9281 138.809 10.5236C138.815 10.241 138.822 9.91237 138.834 9.52986C138.947 9.28002 139.04 8.9337 139.001 8.69503C138.954 8.40142 138.651 8.21962 138.361 8.30844ZM199.388 25.91C198.911 26.9292 198.322 27.9295 196.85 27.9877L196.824 27.9886L196.824 27.9886C195.996 28.0204 191.971 28.1747 189.432 28.1564C204.818 16.7003 200.721 8.0753 191.554 8.0753C189.544 8.0753 187.525 8.54783 186.013 9.3718C185.867 9.45135 185.772 9.59705 185.76 9.75935C185.721 10.2782 185.824 11.3265 186.065 12.875C186.099 13.0942 186.281 13.2629 186.507 13.2843C186.731 13.3041 186.946 13.1741 187.022 12.9658C187.907 10.5587 189.684 9.7012 191.052 9.7012C193.01 9.7012 195.057 11.3415 195.18 14.4763C195.424 20.642 188.653 26.5012 185.728 29.0316C185.344 29.3643 185.026 29.6395 184.799 29.8503C184.468 30.1289 184.209 30.4225 184.483 30.7605C184.483 31.3692 185.272 31.4468 185.448 30.95C187.123 30.9404 196.212 30.8893 197.895 30.9072C199.114 30.9934 199.717 30.3014 199.744 29.5276L200.329 26.1931C200.426 25.6362 199.628 25.3982 199.388 25.91ZM168.11 33.3456L145.688 33.3331V39.5373H168.11V33.3456ZM146.338 38.9019V33.9934H167.471V38.9019H146.338ZM153.727 34.6288H152.732L151.673 38.2665C151.673 38.2665 152.209 38.279 152.438 38.2665C152.477 38.1046 152.668 37.3696 152.668 37.3696H153.778L154.034 38.279H154.786L153.727 34.6288ZM152.821 36.784L153.217 35.2392L153.651 36.784H152.821ZM164.281 37.1204L164.294 34.6288H165.838V35.1022H164.83V35.6254H165.749V36.0988H164.83V36.647H165.838V37.1204H164.281ZM160.938 38.279L159.802 34.6288H160.567L161.282 37.3446L161.984 34.6288H162.737L161.601 38.279H160.938ZM156.605 37.1827C156.596 36.3196 156.588 35.4497 156.624 34.6288C156.867 34.6288 157.109 34.6288 157.352 34.6412V37.6686H158.908V38.279H156.611C156.611 37.9177 156.608 37.5508 156.605 37.1827ZM148.75 38.279L147.64 34.6288H148.38L149.095 37.382L149.797 34.6288H150.575L149.439 38.279H148.75Z" fill="white"/>
<path fill-rule="evenodd" clip-rule="evenodd" d="M7.81245 23.8953C8.21713 24.1392 8.47465 24.377 8.86093 24.6803L12.0064 27.5112C12.6625 28.1178 14.3425 29.7651 14.9924 30.4906C15.4339 30.9902 15.624 31.0437 15.949 31.5314C15.8325 31.573 14.3609 31.9001 13.5025 32.1856C11.7243 32.7803 10.0995 33.7318 8.54823 33.2203C8.31523 33.143 7.26061 32.1677 6.77622 31.8347C6.48804 31.6384 6.21825 31.4541 5.88715 31.2281C4.9429 30.5858 4.67311 31.0318 5.92394 28.1951C6.24891 27.4517 6.53096 26.7856 6.84367 26.0601C7.11959 25.4416 7.49361 24.4127 7.81245 23.8953ZM30.4255 6.79156C31.0754 7.0116 32.6451 7.87987 33.0252 8.34969C33.3502 8.74219 33.2582 8.77788 33.1356 9.3488L32.4979 14.1957C31.615 14.2254 31.8664 14.1243 31.3207 13.7675C30.4009 13.1668 27.2493 10.9069 26.2376 10.116L24.2878 8.59947C24.4288 8.46863 24.2388 8.53999 24.5637 8.45674L27.4455 7.82635C28.9478 7.45763 29.1808 7.36247 30.4255 6.79156ZM4.57501 7.76688C5.23721 7.41005 5.58671 7.67767 6.70264 6.8986C7.00309 6.69046 7.68982 6.7083 8.10676 6.76777C8.53596 6.82724 9.5354 7.63009 9.98913 7.90366C10.2528 8.05828 11.4423 8.93845 11.6324 9.2477L12.221 10.1635C13.0304 10.1992 12.8893 10.1576 13.9072 10.8831L23.6747 17.1276C25.7716 18.543 28.2242 19.9881 30.3335 21.4154L36.3485 25.2334C36.1768 25.5962 35.9745 26.8451 35.858 27.3446C35.3368 29.6402 34.6807 30.6096 33.62 32.8159C32.0932 32.8754 30.8914 32.8635 29.4015 32.8397C28.9171 32.8338 29.0397 32.9289 28.7761 32.6851C27.9054 31.8644 26.3173 30.0684 25.4344 29.2358C25.1278 28.9503 24.858 28.6827 24.5515 28.3675C22.1111 25.846 23.2638 26.6072 22.7917 25.9768L17.8865 21.4749C16.7583 20.4103 15.7466 19.2685 14.5816 18.0731C14.2812 17.7639 14.134 17.4784 13.8213 17.1989L13.7355 17.1216C13.6496 17.0443 13.6864 17.074 13.6067 16.9908L12.1781 15.4208C11.9267 15.1948 11.9512 15.2007 11.7673 14.9985L10.4858 13.7139C10.2037 13.4285 9.983 13.1311 9.71321 12.8219L8.48691 11.5611C8.30297 11.3827 8.1742 11.3292 7.99026 11.1448C7.40777 10.5561 6.91724 9.99108 6.32862 9.40232C5.86263 8.9325 4.71603 8.02855 4.57501 7.76688ZM10.4613 0.737437L0.393319 0.939637C-0.152385 2.88433 0.387188 1.89712 0.393319 3.93101V7.6063C0.313609 8.67083 0.0254285 9.20607 0.0254285 10.6274C0.0254285 11.1032 -0.0849385 12.2034 0.15419 12.5781C0.571133 13.2382 0.565001 13.8032 0.742815 14.7606C0.902234 15.6111 1.06779 15.5219 0.675369 16.1641L0.491423 17.7877L1.34983 18.6024L1.35597 20.0297C0.840919 20.4877 1.41728 20.1606 0.332004 20.9218L0.430108 25.2334L1.49699 25.9828L1.27626 29.658C0.148059 30.4431 0.393319 31.3886 0.430108 32.364L0.565002 36.0274L0.319741 37.9066C2.83979 38.5192 2.28796 38.3289 5.16976 38.3289C7.71434 38.3289 7.38937 38.3527 9.90329 38.0553L9.97074 38.4716C10.3632 38.4478 10.7617 38.424 11.148 38.3883C12.221 38.2872 11.7918 38.1683 12.1597 38.0375C12.4233 37.9423 15.299 38.5905 15.765 38.6857C16.0225 38.4062 15.8938 38.5192 16.2494 38.2932C16.4456 38.6916 17.2734 39.6015 17.6106 40L18.653 39.0544L20.474 39.7383L21.0075 39.3042C21.2159 39.5421 21.3447 39.8394 21.7126 39.887C22.2521 39.9584 22.338 39.0901 23.5336 39.0663L30.4438 38.8403C30.5297 38.7571 30.5849 38.7095 30.683 38.6203L31.0386 38.3408C31.4923 38.6084 31.6885 38.8641 32.3078 38.8225C34.2147 38.6976 33.2153 39.2685 35.674 39.1436C36.0971 39.1198 35.9929 39.0187 36.3669 38.8938L37.164 38.7749C36.9923 38.3229 36.8819 38.3883 36.5324 38.0494L40.9103 38.9057C40.849 33.9102 40.8613 27.8145 40.9287 22.6762L39.7515 22.7594C39.7944 22.4264 40.3094 22.5513 40.3462 21.8793C40.3953 21.0348 40.3892 18.1386 40.2604 17.5201C40.1929 17.2049 39.3652 16.2831 39.1445 15.9976C39.4081 15.3018 39.4326 15.3494 39.9232 14.7785C39.8802 14.4038 39.7944 14.3027 39.6288 13.8805L40.9103 13.4701C40.9226 12.7565 41.0084 9.88403 40.9594 8.97413L40.4382 4.07374L40.8368 2.84865L40.8551 1.58787C39.7453 0.969373 39.8925 0.898008 39.1261 0.903955C38.4332 0.909902 37.5073 0.874219 36.8451 0.725543C35.9929 0.535236 36.2259 0.404401 35.2939 1.33214L34.8708 0.440083C33.5096 0.362771 29.2482 0 28.2365 0C26.9428 0 27.1267 0.0951532 26.6914 1.52245L24.8335 1.70681L24.5883 0.927743L22.9021 0.909902L23.0799 0.719596C23.4049 0.416295 23.2884 0.535236 23.5459 0H16.7645C16.5376 0.404401 16.1329 0.707702 15.6485 0.862325C14.974 1.08237 15.3052 0.73149 14.8821 1.10021C14.5632 1.37972 14.5081 1.36188 14.0053 1.34999C13.3369 1.33809 12.6502 1.3143 11.9819 1.29051C11.6753 1.27862 11.3381 1.30836 11.0376 1.24294C10.5778 1.13589 10.7127 1.0229 10.4613 0.737437Z" fill="#EB4923"/>
</svg>
