<svg width="32" height="32" viewBox="0 0 32 32" fill="none" xmlns="http://www.w3.org/2000/svg">
    <g clip-path="url(#clip0)">
        <path d="M27.4449 21.91L25.5799 26.305H20.5699L15.9499 20.705L11.3199 26.305H6.25494L4.43994 21.91L9.49994 6.975H11.0399V7.485L9.84494 7.48L4.96994 21.91L6.62494 25.815H11.0649L12.1399 24.485V3.11L5.34494 4.905L4.44494 4.335V0H27.4449V4.34L26.5949 4.91L19.7449 3.11V24.495L20.8449 25.815H25.2649L26.9049 21.91C26.9049 21.91 22.0549 7.645 21.9999 7.48C21.8399 7.47 20.8499 7.48 20.8499 7.48V6.975L22.2899 6.98L27.4449 21.91Z" fill="white"/>
        <path d="M31.335 25.77L29.585 25.765L29.025 27.085H16.63L15.945 26.305L15.055 27.38L15.945 28.62H25.395L24.565 30.205L7.17999 30.18L6.46499 28.625H12.94L15.935 25.025L17.01 26.31H18.825L15.94 22.685L12.255 27.095H2.86999L2.33499 25.775H0.59499L-0.0100098 27.385H1.43499L1.87999 28.625H5.95499L6.93499 30.69H9.15999L9.70499 32H22.08L22.78 30.68H24.905L25.93 28.615H29.925L30.585 27.375H32.005L31.335 25.77ZM21.82 31.5H10.01L9.66999 30.68H22.265L21.82 31.5Z" fill="white"/>
        <path d="M11.04 4.905L7.93504 4.915L0.790039 25L3.33504 25.01L3.85504 26.305H5.38504L4.18504 23.45H2.87504C2.87504 23.45 8.51004 6.89 8.89004 6.245C9.04004 6.245 11.04 6.245 11.04 6.245V4.905Z" fill="white"/>
        <path d="M20.845 4.915L23.95 4.905L31.105 25H28.54L28.075 26.3H26.545L27.695 23.445H29.035C29.035 23.445 23.375 6.89 22.995 6.245C22.845 6.245 20.845 6.245 20.845 6.245V4.915Z" fill="white"/>
    </g>
    <defs>
        <clipPath id="clip0">
            <rect width="32" height="32" fill="white"/>
        </clipPath>
    </defs>
</svg>
