<svg width="40" height="37" viewBox="0 0 40 37" fill="none" xmlns="http://www.w3.org/2000/svg">
    <path d="M38.8602 11.0176C39.0773 10.8005 39.5658 10.3121 39.7829 10.095C39.8914 10.0407 39.9457 9.87788 39.9457 9.76934C39.9457 8.52103 39.9457 7.327 39.9457 6.0787C39.9457 5.97015 39.9457 5.80733 39.8914 5.69878C38.1547 7.00136 39.403 4.72185 39.8372 4.34193C39.8915 4.1791 39.9457 4.01628 39.9457 3.85346C39.9457 3.41927 39.8914 2.98507 39.9457 2.55088C40 1.89959 39.9457 1.2483 39.9457 0.597015C39.9457 0.434193 39.8915 0 39.8372 0C39.7286 0 39.4573 0.217096 39.3487 0.325645C38.9145 0.759837 38.4803 1.2483 37.9919 1.6825C37.1235 2.55088 36.2008 3.36499 35.3324 4.23338C34.4098 5.10176 33.5414 6.02442 32.673 6.94708C32.1303 7.48982 31.6418 7.92402 31.1533 8.46676C30.502 9.17232 29.905 9.93216 29.1994 10.6377C28.4939 11.289 27.7341 11.886 27.0285 12.5916C25.943 13.6771 24.8032 14.8168 23.7178 15.9023C23.2293 16.445 22.6866 16.9335 22.1981 17.4763C21.5468 18.1275 20.9498 18.8331 20.2985 19.4844C19.81 19.9729 19.213 20.4071 18.7246 20.8955C17.422 22.1981 16.1194 23.5007 14.8168 24.8033C14.0027 25.6174 13.1343 26.4858 12.3202 27.2999C11.9946 27.6255 11.9946 27.7883 12.3202 28.114C12.4288 28.2225 12.5916 28.3311 12.7001 28.4396C12.5916 28.5482 12.5916 28.6567 12.5373 28.711C12.5916 28.7653 12.5916 28.7653 12.6459 28.8195C13.1886 29.3623 13.7313 29.8507 14.2198 30.3935C14.4369 30.5563 14.7625 30.7191 14.5997 31.0991C14.5997 31.0991 14.654 31.1533 14.7083 31.2076C15.6309 32.076 16.0108 32.5102 16.8792 33.4328C17.0421 33.6499 17.0963 33.5957 17.2592 33.4328C17.4762 33.2157 19.5387 31.2076 19.81 30.9905C19.81 31.0448 18.2361 32.9986 18.2361 32.9986C18.0733 33.2157 17.6933 33.7042 17.5305 33.9213C17.5305 33.9756 17.9104 33.9756 17.9104 33.9756C18.019 33.867 18.1275 33.8128 18.2904 33.7042C18.1818 34.0841 17.6933 34.1927 18.2904 34.6269C18.616 34.9525 18.9959 35.2782 19.2673 35.6038C19.5929 35.9837 19.7558 35.9294 20.0814 35.6038C26.54 29.1452 33.3243 22.5237 39.7829 16.0651C39.8914 15.9566 39.9457 15.7395 39.9457 15.5767C39.9457 14.3826 39.9457 13.1886 39.9457 11.9946C39.9457 11.886 39.9457 11.8317 39.9457 11.6689C39.5658 11.9946 39.1859 12.3202 38.806 12.6459L37.829 13.4057C38.1004 13.0801 39.3487 11.9403 39.6743 11.6689C40 11.3976 40 11.1262 39.9457 10.8005C39.8372 10.8548 39.7829 10.9091 39.7286 10.9091C39.7829 10.692 39.8914 10.4749 40 10.2578C39.9457 10.2578 39.9457 10.2035 39.8914 10.2035C39.6744 10.3664 39.4572 10.5292 39.2402 10.692C39.1859 10.692 38.8602 10.9634 38.8602 11.0176ZM19.7558 1.35685C19.2673 1.79104 18.7245 2.27951 18.2361 2.76798C17.9104 3.03935 17.6391 3.41927 17.3134 3.74491C16.7164 4.34193 16.0651 4.83039 15.4681 5.42741C14.9254 5.91588 14.4912 6.51289 14.0027 7.00136C13.5685 7.43555 13.0258 7.86974 12.5916 8.30394C8.52103 12.4288 4.3962 16.5536 0.271367 20.6242C0.162819 20.7327 0.162816 20.8412 0.162816 20.9498C0.271364 21.4383 0.217092 21.9267 0.217092 22.4152C0.217092 22.5237 0.162817 23.555 0.217092 23.6635C5.69877 18.9959 3.63636 20.9498 0.434188 24.5862C0.434188 24.6404 0.379918 24.6404 0.379918 24.6404C0.162822 24.9118 0.162816 25.5088 0.162816 25.943C0.108542 29.5251 0.162816 32.6187 0.162816 36.1465C0.162816 36.3094 0.108541 36.4179 0.325637 36.5265C0.488459 36.635 0.597007 36.4722 0.705555 36.3636C3.25644 33.8128 5.80731 31.2076 8.3582 28.6567C8.90094 28.1682 9.38941 27.6255 9.87788 27.0828C10.3121 26.5943 10.692 26.1601 11.1262 25.7259C11.289 25.5631 11.5061 25.4545 11.7232 25.2917C12.9172 24.3148 13.8399 23.1208 14.8711 21.981C15.4681 21.3297 16.1737 20.6784 16.825 20.0271C17.2049 19.6472 17.7476 19.3216 18.1275 18.9417C21.1669 15.9566 24.2062 12.9715 27.1913 9.93216C27.517 9.60651 27.8426 9.28087 28.1682 8.90095C28.4396 8.68385 28.2225 8.73813 28.1682 8.62958C28.114 8.52103 28.0054 8.41248 27.9512 8.30394C27.7341 7.97829 27.6255 7.92402 27.2456 8.08684C27.1913 8.03257 27.137 8.03256 27.0828 7.97829C26.9199 7.27273 26.3772 6.67571 25.9973 6.45862C25.7259 6.18725 25.7802 5.91588 25.4003 5.97015C25.346 5.91588 25.346 5.80733 25.2917 5.75305C25.2374 5.69878 25.1289 5.75305 25.0746 5.80733C24.9118 5.97015 23.9891 6.89281 23.772 7.05563C23.5007 7.27273 24.0977 6.45862 24.152 6.35007C24.152 6.29579 24.152 6.29579 24.152 6.29579C24.2062 6.13297 24.6947 5.75305 24.749 5.64451L24.6947 5.42741C24.5319 5.53596 24.3691 5.75305 24.2062 5.91587C23.9349 6.0787 23.6635 6.24152 23.6635 6.24152C23.772 6.0787 24.0977 5.64451 24.2062 5.48168C24.3148 5.31886 24.4776 5.21031 24.5319 5.10176C24.4776 4.99322 24.3148 4.93894 24.3148 4.83039C24.2062 4.55902 23.9349 4.28765 23.6635 4.23338C23.2836 4.1791 22.8494 4.1791 22.9037 3.63636C22.9037 3.58209 22.8494 3.58209 22.8494 3.52782C22.6323 3.20217 22.4695 2.82225 22.2524 2.49661C22.1981 2.44233 22.0895 2.38806 22.0353 2.38806C21.7096 2.38806 21.384 2.44233 21.1126 2.44233C21.1669 2.33379 21.2212 2.17096 21.2212 2.00814C21.2212 1.84532 21.2212 1.51967 21.0041 1.41113L20.2442 1.84532L20.19 1.08548C19.9186 0.922659 19.7015 1.30258 19.7558 1.35685ZM9.11803 8.7924C6.18723 5.91588 3.31071 3.03935 0.434188 0.162822C0.379914 0.0542741 0.21709 0 0.162816 0.0542741C0.0542678 0.108548 0 0.27137 0 0.379919C0 2.11669 0 3.79919 0 5.53596C0 5.69878 0.0542678 5.8616 0.162816 6.02442C0.325638 6.24152 0.542733 6.45862 0.705555 6.67571C0.705555 6.72999 0.651285 6.72999 0.651285 6.72999C0.488463 6.56716 0.325638 6.40434 0.162816 6.24152C0.162816 6.29579 0.108546 6.29579 0.108546 6.29579C0.271368 6.51289 0.379917 6.72999 0.54274 6.94708L0.488459 7.00136C0.325636 6.83853 0.217092 6.62144 0.0542702 6.45862C-0.054278 6.94708 0.0542738 7.27273 0.379918 7.59837C0.597015 7.81547 0.759832 8.08684 0.976928 8.35821L0.922658 8.41248C0.651287 8.08684 0.325641 7.81547 0.0542702 7.48982C-3.91092e-06 7.5441 0 7.59837 0 7.59837C0 10.3121 0 12.9715 0 15.6852C0 15.7938 -3.91092e-06 15.848 0.0542702 15.9023C0.379915 16.228 0.759831 16.6079 1.13975 16.9878C1.19402 16.8792 1.30258 16.7707 1.35685 16.7164C3.31072 14.7626 5.21031 12.863 7.16418 10.9091C7.59837 10.5292 7.59837 10.5292 7.21845 10.095C7.00135 9.87788 6.83853 9.60651 6.62143 9.33514C6.67571 9.33514 6.6757 9.33514 6.6757 9.33514C7.05562 9.71506 7.38126 10.0407 7.76118 10.3664C8.24965 9.87788 8.73813 9.38942 9.22659 8.90095C9.17232 8.84668 9.17231 8.84668 9.11803 8.7924ZM38.5346 19.8643C35.9294 22.4695 33.27 25.1289 30.6106 27.7883C30.6106 27.8426 30.6106 27.8969 30.6106 27.8969C32.4016 29.6337 34.1927 31.4247 35.9837 33.2157C37.0149 34.247 38.1004 35.2782 39.1316 36.3636C39.2944 36.5265 39.6201 36.6893 39.7286 36.635C39.8372 36.635 39.7829 36.5807 39.8372 36.0923C39.8372 35.7123 39.8372 35.3324 39.8372 34.9525C39.8372 34.8982 39.8372 34.7897 39.7829 34.7354C39.6201 34.5183 39.3487 34.3012 39.1316 34.0841C38.9145 33.8128 38.6431 33.5957 38.426 33.3243C38.4803 33.3243 37.5577 32.3474 37.5577 32.3474C37.9919 32.7273 39.5658 34.0299 39.9457 34.3555C39.9457 31.479 39.9457 28.8195 39.9457 25.9973C39.9457 25.943 39.8372 25.7802 39.7829 25.7259C39.6201 25.5631 38.7517 24.4776 38.5889 24.3148C38.5889 24.3148 39.2944 24.9661 39.2944 24.9118C39.4573 25.0204 39.7286 25.4003 39.8914 25.5088C39.9457 25.4545 39.9457 25.4003 39.9457 25.4003C39.9457 23.8806 39.9457 22.2524 39.9457 20.787V20.7327C39.5658 20.4071 39.2401 20.0271 38.8602 19.6472C38.7517 19.7015 38.7517 19.7015 38.5346 19.8643Z" fill="white"/>
</svg>
