<svg width="244" height="244" viewBox="0 0 244 244" fill="none" xmlns="http://www.w3.org/2000/svg">
<path d="M168.577 102.82C168.577 101.824 169.343 100.521 170.34 99.4477C171.643 98.1446 171.643 96.0751 170.34 94.8487C169.037 93.5457 166.967 93.5457 165.741 94.8487C164.438 96.1518 164.438 98.2213 165.741 99.4477C166.737 100.521 167.504 101.747 167.504 102.82C167.504 103.893 166.814 105.12 165.818 106.116L165.741 106.193C164.438 107.496 164.438 109.565 165.741 110.792C167.044 112.095 169.113 112.095 170.34 110.792C171.643 109.489 171.643 107.419 170.34 106.193L170.263 106.116C169.343 105.043 168.577 103.817 168.577 102.82Z" fill="#1DCAFF"/>
<path d="M154.321 110.792C153.018 109.489 153.018 107.419 154.321 106.193C155.624 104.89 157.694 104.89 158.92 106.193C160.223 107.496 160.223 109.565 158.92 110.792C157.694 112.095 155.624 112.095 154.321 110.792Z" fill="#1DCAFF"/>
<path d="M158.92 122.289C157.923 123.362 157.233 124.665 157.233 125.662C157.233 126.658 157.923 127.961 158.92 129.034C158.92 129.034 158.996 129.034 158.996 129.111C160.299 130.414 160.299 132.483 158.996 133.71C157.693 135.013 155.624 135.013 154.397 133.71C153.094 132.407 153.094 130.337 154.397 129.111C154.397 129.111 154.474 129.111 154.474 129.034C155.471 127.961 156.16 126.735 156.16 125.662C156.16 124.588 155.471 123.362 154.474 122.289C154.474 122.289 154.474 122.289 154.397 122.289L154.321 122.212C153.248 121.216 152.021 120.526 151.025 120.526C149.952 120.526 148.725 121.293 147.652 122.289C146.349 123.592 144.28 123.592 143.053 122.289C141.75 120.986 141.75 118.916 143.053 117.69C144.356 116.387 146.426 116.387 147.652 117.69C148.725 118.686 150.028 119.453 151.025 119.453C152.021 119.453 153.324 118.763 154.321 117.767C154.321 117.767 154.321 117.69 154.397 117.69C155.7 116.387 157.77 116.387 158.996 117.69C160.223 118.84 160.223 120.909 158.92 122.289C158.92 122.212 158.92 122.212 158.92 122.289Z" fill="#1DCAFF"/>
<path d="M170.34 122.212C169.037 123.515 166.967 123.515 165.741 122.212C164.438 120.909 164.438 118.84 165.741 117.614C167.044 116.31 169.113 116.31 170.34 117.614C171.643 118.84 171.643 120.909 170.34 122.212Z" fill="#1DCAFF"/>
<path d="M170.34 129.034C170.417 129.034 170.417 129.034 170.34 129.034C171.413 130.107 172.716 130.797 173.712 130.797C174.709 130.797 176.012 130.107 177.085 129.111C177.085 129.111 177.085 129.034 177.162 129.034C177.162 129.034 177.238 129.034 177.238 128.958C178.235 127.884 178.925 126.658 178.925 125.585C178.925 124.512 178.235 123.286 177.238 122.212C177.238 122.212 177.238 122.212 177.162 122.212C175.859 120.909 175.859 118.84 177.162 117.614C178.465 116.31 180.534 116.31 181.761 117.614C183.064 118.917 183.064 120.986 181.761 122.212C181.761 122.212 181.761 122.212 181.684 122.289C180.687 123.362 179.998 124.665 179.998 125.662C179.998 126.658 180.687 127.961 181.684 129.034C181.684 129.034 181.761 129.034 181.761 129.111C183.064 130.414 183.064 132.483 181.761 133.71C180.458 135.013 178.388 135.013 177.162 133.71C177.162 133.71 177.162 133.633 177.085 133.633C176.012 132.637 174.785 131.947 173.712 131.947C172.639 131.947 171.413 132.637 170.34 133.633C170.34 133.633 170.34 133.633 170.34 133.71C169.037 135.013 166.967 135.013 165.741 133.71C164.438 132.407 164.438 130.337 165.741 129.111C167.044 127.731 169.113 127.731 170.34 129.034Z" fill="#1DCAFF"/>
<path d="M83.8809 100.904C85.1839 99.6009 85.1839 97.5314 83.8809 96.305C82.5779 95.002 80.5083 95.002 79.282 96.305C77.9789 97.6081 77.9789 99.6776 79.282 100.904C80.5083 102.207 82.5779 102.207 83.8809 100.904Z" fill="#1DCAFF"/>
<path d="M177.162 94.7721C178.465 93.469 180.534 93.469 181.761 94.7721C183.064 96.0751 183.064 98.1446 181.761 99.371C180.458 100.674 178.388 100.674 177.162 99.371C175.859 98.1446 175.859 96.0751 177.162 94.7721Z" fill="#1DCAFF"/>
<path d="M177.162 83.1981C178.465 81.8951 180.534 81.8951 181.761 83.1981C183.064 84.5011 183.064 86.5706 181.761 87.797C180.458 89.1001 178.388 89.1001 177.162 87.797C175.859 86.5706 175.859 84.5011 177.162 83.1981Z" fill="#1DCAFF"/>
<path d="M165.741 83.1981C167.044 81.8951 169.114 81.8951 170.34 83.1981C171.643 84.5011 171.643 86.5706 170.34 87.797C169.037 89.1001 166.967 89.1001 165.741 87.797C164.515 86.5706 164.515 84.5011 165.741 83.1981Z" fill="#1DCAFF"/>
<path d="M165.741 71.6242C167.044 70.3212 169.114 70.3212 170.34 71.6242C171.643 72.9273 171.643 74.9968 170.34 76.2232C169.037 77.5262 166.967 77.5262 165.741 76.2232C164.515 74.9968 164.515 72.9273 165.741 71.6242Z" fill="#1DCAFF"/>
<path d="M72.46 78.1393C73.763 76.8363 73.763 74.7668 72.46 73.5404C71.157 72.2374 69.0874 72.2374 67.8611 73.5404C66.558 74.8434 66.558 76.9129 67.8611 78.1393C69.0874 79.3657 71.157 79.3657 72.46 78.1393Z" fill="#1DCAFF"/>
<path d="M72.46 89.56C73.763 88.2569 73.763 86.1874 72.46 84.961C71.157 83.658 69.0874 83.658 67.8611 84.961C66.558 86.2641 66.558 88.3336 67.8611 89.56C69.0874 90.7863 71.157 90.7863 72.46 89.56Z" fill="#1DCAFF"/>
<path d="M72.46 66.7187C73.763 65.4156 73.763 63.3461 72.46 62.1197C71.157 60.8167 69.0874 60.8167 67.8611 62.1197C66.558 63.4228 66.558 65.4923 67.8611 66.7187C69.0874 68.0217 71.157 68.0217 72.46 66.7187Z" fill="#1DCAFF"/>
<path d="M188.583 99.371C187.28 98.068 187.28 95.9985 188.583 94.7721C189.886 93.469 191.955 93.469 193.182 94.7721C194.485 96.0751 194.485 98.1446 193.182 99.371C191.879 100.674 189.809 100.674 188.583 99.371Z" fill="#1DCAFF"/>
<path d="M193.182 110.792C191.879 112.095 189.809 112.095 188.583 110.792C187.28 109.489 187.28 107.419 188.583 106.193C189.886 104.89 191.955 104.89 193.182 106.193C194.485 107.496 194.485 109.565 193.182 110.792Z" fill="#1DCAFF"/>
<path d="M193.182 122.212C191.879 123.515 189.809 123.515 188.583 122.212C187.28 120.909 187.28 118.84 188.583 117.613C189.119 117.077 189.809 116.77 190.499 116.694C193.105 116.387 194.408 115.774 196.171 113.934C198.011 112.095 198.624 110.868 199.007 108.109C199.007 108.186 199.007 108.186 199.007 108.262C199.084 107.496 199.39 106.806 199.927 106.193C201.23 104.89 203.299 104.89 204.526 106.193C205.829 107.496 205.829 109.565 204.526 110.792C203.989 111.328 203.299 111.635 202.533 111.711H202.609C199.927 112.018 198.47 112.938 196.784 114.547C195.251 116.08 194.331 117.383 194.025 119.836C194.178 120.756 193.795 121.599 193.182 122.212Z" fill="#1DCAFF"/>
<path d="M188.583 133.633C187.28 132.33 187.28 130.26 188.583 129.034C189.886 127.731 191.955 127.731 193.182 129.034C194.485 130.337 194.485 132.407 193.182 133.633C191.879 134.859 189.809 134.859 188.583 133.633Z" fill="#1DCAFF"/>
<path d="M58.5868 90.4797C61.1162 90.863 62.4959 91.7061 64.1055 93.3157C65.6385 94.8487 66.5583 96.1517 66.8649 98.6045C66.8649 99.4476 67.1715 100.291 67.7847 100.904C69.0877 102.207 71.1572 102.207 72.3836 100.904C73.6866 99.6009 73.6866 97.5314 72.3836 96.305C71.847 95.7685 71.2338 95.4619 70.544 95.3853H70.6207C67.9379 95.0787 66.6349 94.4655 64.7187 92.5492C62.8791 90.7097 62.2659 89.4833 61.8827 86.7239C61.8827 86.8006 61.8827 86.8006 61.8827 86.8772C61.806 86.1108 61.4995 85.4209 60.9629 84.8844C59.6599 83.5813 57.5904 83.5813 56.364 84.8844C55.061 86.1874 55.061 88.2569 56.364 89.4833C57.0538 90.0965 57.8203 90.4031 58.5868 90.4797Z" fill="#1DCAFF"/>
<path d="M61.0391 100.904C62.3421 99.6009 62.3421 97.5314 61.0391 96.305C59.7361 95.002 57.6665 95.002 56.4402 96.305C55.1371 97.6081 55.1371 99.6776 56.4402 100.904C57.7432 102.207 59.8127 102.207 61.0391 100.904Z" fill="#1DCAFF"/>
<path d="M200.004 122.212C198.701 120.909 198.701 118.84 200.004 117.614C201.307 116.31 203.376 116.31 204.603 117.614C205.906 118.917 205.906 120.986 204.603 122.212C203.3 123.515 201.23 123.515 200.004 122.212Z" fill="#1DCAFF"/>
<path d="M200.003 129.034C201.306 127.731 203.376 127.731 204.602 129.034C205.905 130.337 205.905 132.407 204.602 133.633C203.299 134.936 201.23 134.936 200.003 133.633C198.777 132.33 198.7 130.26 200.003 129.034Z" fill="#1DCAFF"/>
<path d="M204.603 140.455C205.906 141.758 205.906 143.827 204.603 145.054C203.3 146.357 201.23 146.357 200.004 145.054C198.701 143.751 198.701 141.681 200.004 140.455C201.307 139.228 203.3 139.152 204.603 140.455Z" fill="#1DCAFF"/>
<path d="M193.182 140.455C194.485 141.758 194.485 143.827 193.182 145.054C191.879 146.357 189.809 146.357 188.583 145.054C187.28 143.751 187.28 141.681 188.583 140.455C189.886 139.228 191.879 139.152 193.182 140.455Z" fill="#1DCAFF"/>
<path d="M216.022 140.455C217.326 141.758 217.326 143.827 216.022 145.054C214.719 146.357 212.65 146.357 211.424 145.054C210.121 143.751 210.121 141.681 211.424 140.455C212.727 139.228 214.719 139.152 216.022 140.455Z" fill="#1DCAFF"/>
<path d="M47.3193 136.162C49.1396 136.162 50.6152 134.687 50.6152 132.866C50.6152 131.046 49.1396 129.571 47.3193 129.571C45.4991 129.571 44.0234 131.046 44.0234 132.866C44.0234 134.687 45.4991 136.162 47.3193 136.162Z" fill="#1DCAFF"/>
<path d="M211.73 151.569C212.879 150.649 214.566 150.649 215.715 151.569C217.402 152.872 217.402 155.401 215.715 156.704C214.566 157.624 212.879 157.624 211.73 156.704C210.043 155.401 210.043 152.872 211.73 151.569Z" fill="#1DCAFF"/>
<path d="M211.73 162.913C212.879 161.993 214.566 161.993 215.715 162.913C217.402 164.216 217.402 166.745 215.715 168.048C214.566 168.968 212.879 168.968 211.73 168.048C210.043 166.822 210.043 164.292 211.73 162.913Z" fill="#1DCAFF"/>
<path d="M79.5879 124.052C80.7377 124.972 82.424 124.972 83.5737 124.052C85.26 122.749 85.26 120.219 83.5737 118.916C82.424 117.997 80.7377 117.997 79.5879 118.916C77.9017 120.143 77.9017 122.672 79.5879 124.052Z" fill="#1DCAFF"/>
<path d="M72.3827 130.49C71.3862 129.417 70.6964 128.191 70.6964 127.118C70.6964 126.045 71.3862 124.818 72.3827 123.822C73.839 122.442 73.7623 120.143 72.1527 118.84C71.003 117.92 69.3167 117.92 68.167 118.84C66.5574 120.066 66.4807 122.442 67.937 123.822C68.9335 124.895 69.6233 126.121 69.6233 127.118C69.6233 128.114 68.9335 129.417 67.937 130.49C66.4807 131.87 66.5574 134.17 68.167 135.473C69.3167 136.392 71.003 136.392 72.1527 135.473C72.306 135.396 72.3827 135.243 72.536 135.166C73.6091 134.169 74.8354 133.48 75.9085 133.48C76.9816 133.48 78.208 134.169 79.2044 135.166C79.3577 135.319 79.4344 135.396 79.5876 135.549C80.7374 136.469 82.4237 136.469 83.5734 135.549C85.2597 134.246 85.2597 131.717 83.5734 130.414C82.4237 129.494 80.7374 129.494 79.5876 130.414C79.4344 130.49 79.3577 130.644 79.2044 130.797C78.1313 131.793 76.9049 132.483 75.9085 132.483C74.9121 132.483 73.6091 131.793 72.536 130.797C72.4593 130.567 72.4593 130.49 72.3827 130.49Z" fill="#1DCAFF"/>
<path d="M56.7471 124.052C57.8969 124.972 59.5831 124.972 60.7329 124.052C62.4191 122.749 62.4191 120.219 60.7329 118.916C59.5831 117.997 57.8969 117.997 56.7471 118.916C55.0609 120.143 55.0609 122.672 56.7471 124.052Z" fill="#1DCAFF"/>
<path d="M56.7471 135.396C57.8969 136.316 59.5831 136.316 60.7329 135.396C62.4191 134.093 62.4191 131.563 60.7329 130.26C59.5831 129.341 57.8969 129.341 56.7471 130.26C55.0609 131.563 55.0609 134.093 56.7471 135.396Z" fill="#1DCAFF"/>
<path d="M33.4452 146.587C34.7482 147.89 36.8177 147.89 38.0441 146.587C39.3471 145.284 39.3471 143.214 38.0441 141.988C36.7411 140.685 34.6716 140.685 33.4452 141.988C32.2188 143.214 32.2188 145.284 33.4452 146.587Z" fill="#1DCAFF"/>
<path d="M44.9432 146.587C46.2462 147.89 48.3158 147.89 49.5421 146.587C50.8452 145.284 50.8452 143.214 49.5421 141.988C48.2391 140.685 46.1696 140.685 44.9432 141.988C43.7168 143.214 43.7168 145.284 44.9432 146.587Z" fill="#1DCAFF"/>
<path d="M33.752 158.237C34.9017 159.157 36.588 159.157 37.7377 158.237C39.424 156.934 39.424 154.405 37.7377 153.102C36.588 152.182 34.9017 152.182 33.752 153.102C32.0657 154.405 32.0657 156.934 33.752 158.237Z" fill="#1DCAFF"/>
<path d="M33.752 135.396C34.9017 136.316 36.588 136.316 37.7377 135.396C39.424 134.093 39.424 131.563 37.7377 130.26C36.588 129.341 34.9017 129.341 33.752 130.26C32.0657 131.563 32.0657 134.093 33.752 135.396Z" fill="#1DCAFF"/>
<path d="M79.5879 112.631C80.7377 113.551 82.424 113.551 83.5737 112.631C85.26 111.328 85.26 108.799 83.5737 107.496C82.424 106.576 80.7377 106.576 79.5879 107.496C77.9017 108.799 77.9017 111.328 79.5879 112.631Z" fill="#1DCAFF"/>
<path d="M60.7321 112.631C62.4184 111.328 62.4184 108.799 60.7321 107.496C59.5824 106.576 57.8961 106.576 56.7464 107.496C55.9799 108.109 55.52 108.952 55.52 109.872C55.1368 112.325 54.5236 113.628 52.7607 115.391C50.9211 117.23 49.6947 117.843 46.9354 118.227H47.012C46.3988 118.303 45.8623 118.533 45.4024 118.84C43.7161 120.143 43.7161 122.672 45.4024 123.975C46.5521 124.895 48.2384 124.895 49.3881 123.975C50.1546 123.362 50.5379 122.596 50.6145 121.752C50.9211 119.07 51.8409 117.69 53.4505 116.004C54.9835 114.471 56.2865 113.551 58.8159 113.244C59.5058 113.244 60.1956 113.091 60.7321 112.631Z" fill="#1DCAFF"/>
<path d="M45.3262 112.631C46.476 113.551 48.1622 113.551 49.312 112.631C50.9982 111.328 50.9982 108.799 49.312 107.496C48.1622 106.576 46.476 106.576 45.3262 107.496C43.64 108.799 43.64 111.328 45.3262 112.631Z" fill="#1DCAFF"/>
<path d="M90.7788 119.07C89.3225 120.449 89.3992 122.749 91.0088 124.052C92.1585 124.972 93.8448 124.972 94.9945 124.052C96.6041 122.826 96.6808 120.449 95.2245 119.07C94.228 117.997 93.5382 116.77 93.5382 115.774C93.5382 114.701 94.228 113.474 95.2245 112.401C96.6808 111.022 96.6041 108.722 94.9945 107.419C93.8448 106.499 92.1585 106.499 91.0088 107.419C89.3992 108.646 89.3225 111.022 90.7788 112.401C91.7753 113.474 92.4651 114.701 92.4651 115.774C92.3885 116.77 91.6986 117.997 90.7788 119.07Z" fill="#1DCAFF"/>
<path d="M215.793 209.745C215.41 209.745 215.103 209.439 215.027 209.055C212.574 191.579 212.957 190.583 213.187 190.123C213.8 188.437 213.417 184.528 211.424 182.382C210.351 181.309 208.512 176.173 205.752 168.508C204.219 164.216 202.763 160.154 202.073 158.85C201.69 158.161 201.383 157.547 201.077 156.858C200.157 155.018 199.314 153.255 197.857 151.646C196.478 150.113 184.98 147.813 175.706 145.897C172.563 145.284 169.267 144.594 166.355 143.981C159.686 142.524 152.941 140.991 148.112 139.152C144.28 137.695 141.98 136.239 140.831 134.553C137.841 130.261 139.988 114.701 140.218 113.934C140.371 113.321 140.907 112.555 141.904 111.252C142.594 110.332 143.36 109.259 143.973 108.262C144.97 106.499 145.813 99.3711 146.043 96.765C146.043 96.4584 146.196 96.2285 146.503 96.1518C146.733 95.9985 147.039 96.0752 147.269 96.2285L149.109 97.4549C149.109 97.4549 149.339 97.6082 149.875 97.4549C150.642 97.2249 152.328 96.2285 154.551 91.7829C158.613 83.888 159.84 76.9896 157.463 75.7633C155.011 74.4602 154.091 74.9968 154.091 74.9968C153.861 75.1501 153.478 75.1501 153.248 74.9968C153.018 74.8435 152.865 74.5369 152.941 74.2303C153.401 72.0075 155.624 60.8168 155.394 54.6849C155.164 48.553 152.941 47.4032 152.941 47.4032C152.711 47.3266 152.558 47.0966 152.481 46.7901C152.481 46.7901 151.945 43.4942 150.412 41.348C149.109 39.5084 142.134 33.9131 139.604 31.9202C139.374 31.7669 139.298 31.4603 139.298 31.1537C139.298 30.8471 139.604 30.6172 139.834 30.5405L140.447 30.3872C139.221 30.004 137.688 29.2375 135.389 28.1644C130.636 25.9416 124.428 28.3177 124.351 28.3944C124.121 28.471 123.891 28.471 123.738 28.3944C116.073 24.6386 107.412 29.3908 102.2 32.2268C101.127 32.84 100.207 33.2999 99.517 33.6065C97.5242 34.4496 95.7612 35.5227 94.4582 36.2892H96.2211C96.5277 36.2892 96.8343 36.4425 96.911 36.7491C97.0643 37.0557 96.9876 37.3623 96.7577 37.5922C96.7577 37.5922 94.6115 39.815 90.7791 43.4175C88.403 45.6403 87.5598 47.4799 87.1766 48.4763H87.7898C88.173 48.4763 88.5563 48.7829 88.5563 49.1662C88.6329 50.3159 88.5563 51.9255 88.403 53.6884C88.2497 56.6011 88.0197 60.2036 88.6329 61.5833C89.6294 64.1127 90.0126 73.4638 90.0126 74.5369C90.0126 74.8435 89.8593 75.1501 89.5527 75.2267C89.2461 75.38 88.9395 75.3034 88.7096 75.1501C88.7096 75.1501 88.5563 75.0734 88.0964 75.0734C87.5598 75.0734 86.7167 75.2267 85.337 75.9166C82.9609 77.1429 84.2639 84.0413 88.2497 91.9361C90.5491 96.3818 92.1588 97.3782 92.9252 97.6082C93.3851 97.7615 93.6151 97.6082 93.6151 97.6082L95.4547 96.3818C95.6846 96.2285 95.9912 96.2285 96.2211 96.3051C96.4511 96.4584 96.6044 96.6884 96.681 96.9183C96.8343 99.3711 97.5242 106.269 98.5973 107.956C99.2104 108.952 99.9769 110.025 100.667 111.022C101.74 112.555 102.353 113.398 102.506 114.011C102.736 114.777 104.882 130.337 101.893 134.629C100.667 136.469 98.0607 138.002 93.6917 139.535C88.9395 141.221 82.5777 142.678 76.3691 143.981C73.4565 144.594 70.1606 145.284 67.018 145.897C57.7435 147.736 46.2462 150.113 44.8665 151.646C43.7934 152.872 43.0269 154.635 42.3371 156.398C41.8006 157.777 41.1874 159.157 40.4975 160.307C37.8148 164.446 35.2854 173.184 33.6758 179.009C32.3728 183.685 31.9895 184.911 31.5296 185.371C28.8469 188.13 28.617 191.273 29.6134 192.269C30.2266 192.883 30.4565 194.415 28.0038 209.055C27.9271 209.439 27.5439 209.745 27.084 209.669C26.7008 209.592 26.3942 209.209 26.4708 208.749C28.0038 199.474 28.6936 194.186 28.4637 193.266C26.8541 191.503 27.2373 187.517 30.4565 184.221C30.6865 183.838 31.453 181.155 32.2195 178.549C33.9057 172.647 36.4351 163.756 39.2711 159.464C39.961 158.467 40.4209 157.164 41.0341 155.785C41.8006 153.945 42.567 151.952 43.8701 150.572C45.4797 148.81 53.6045 147.047 66.8647 144.364C70.0073 143.751 73.3032 143.061 76.2158 142.448C82.3477 141.145 88.7096 139.688 93.3851 138.002C97.3709 136.622 99.8236 135.166 100.82 133.633C103.196 130.184 101.51 115.467 101.203 114.318C101.127 113.934 100.284 112.785 99.5937 111.788C98.9038 110.792 98.0607 109.642 97.4475 108.569C96.2978 106.653 95.6846 100.904 95.4547 98.1447L94.6882 98.6812C94.6882 98.6812 93.9983 99.2178 92.8486 98.9878C91.009 98.6046 89.0162 96.3818 87.0233 92.4727C83.4208 85.421 80.6615 76.5298 84.7238 74.3836C86.4101 73.4638 87.6365 73.3105 88.4796 73.3872C88.3263 70.0913 87.9431 63.7294 87.2532 62.0431C86.5634 60.2802 86.7167 56.831 86.9466 53.4585C87.0233 52.2321 87.0999 50.9291 87.0999 49.9326H86.2568C86.0269 49.9326 85.8736 49.856 85.7203 49.7027C85.567 49.5494 85.4903 49.3195 85.4903 49.1662C85.4903 49.0129 85.7203 46.0236 89.7826 42.2678C91.8522 40.3516 93.4618 38.8186 94.4582 37.8222H92.0055C91.6989 37.8222 91.3923 37.5922 91.3156 37.2856C91.239 36.979 91.3156 36.5958 91.5456 36.4425C91.6989 36.3658 94.8415 33.9131 98.9038 32.1501C99.5937 31.8436 100.437 31.3837 101.51 30.8471C106.569 28.0878 115.92 23.0289 124.198 26.8614C125.654 26.3248 131.403 24.5619 136.155 26.8614C141.291 29.3141 142.747 30.3106 142.824 30.3872C143.054 30.5405 143.207 30.8471 143.13 31.1537C143.054 31.4603 142.824 31.6903 142.594 31.7669L141.674 31.9968C144.28 34.0664 150.182 38.8186 151.562 40.7348C153.018 42.8043 153.631 45.487 153.784 46.4835C154.627 47.0966 156.544 49.0895 156.774 54.9148C157.004 60.4335 155.241 69.938 154.551 73.6171C155.317 73.6171 156.544 73.847 158.077 74.6135C162.139 76.6831 159.38 85.651 155.777 92.7026C153.784 96.6117 151.868 98.7579 149.952 99.2178C148.802 99.4477 148.112 98.9878 148.036 98.9112L147.269 98.3746C146.963 101.134 146.273 107.266 145.123 109.182C144.433 110.255 143.667 111.405 142.9 112.325C142.287 113.168 141.597 114.088 141.444 114.471C141.137 115.621 139.451 130.337 141.827 133.786C142.824 135.166 144.97 136.546 148.419 137.772C153.094 139.535 159.84 141.068 166.431 142.524C169.344 143.137 172.64 143.827 175.783 144.441C189.043 147.123 197.168 148.886 198.777 150.649C200.387 152.412 201.23 154.252 202.226 156.244C202.533 156.858 202.84 157.547 203.223 158.161C203.989 159.617 205.369 163.526 207.055 168.048C208.971 173.26 211.501 180.465 212.421 181.385C214.95 183.991 215.333 188.59 214.49 190.736C214.413 191.12 214.337 193.802 216.406 208.979C216.483 209.362 216.176 209.822 215.716 209.822C215.87 209.745 215.793 209.745 215.793 209.745Z" fill="#1DCAFF"/>
</svg>
