<svg width="150" height="144" viewBox="0 0 150 144" fill="none" xmlns="http://www.w3.org/2000/svg">
<path d="M75.8156 134.134C112.349 134.134 141.965 104.279 141.965 67.4503C141.965 30.6216 112.349 0.766113 75.8156 0.766113C39.282 0.766113 9.66577 30.6216 9.66577 67.4503C9.66577 104.279 39.282 134.134 75.8156 134.134Z" fill="#021142"/>
<path d="M27.7284 43.7606C27.7284 44.4914 27.1847 45.0394 26.4598 45.0394C25.7349 45.0394 25.1912 44.4914 25.1912 43.7606C25.1912 43.0298 25.7349 42.4817 26.4598 42.4817C27.1243 42.4817 27.7284 43.0298 27.7284 43.7606Z" fill="#163C7F"/>
<path d="M32.4406 43.7606C32.4406 44.4914 31.8969 45.0394 31.1719 45.0394C30.447 45.0394 29.9033 44.4914 29.9033 43.7606C29.9033 43.0298 30.447 42.4817 31.1719 42.4817C31.8969 42.4817 32.4406 43.0298 32.4406 43.7606Z" fill="#163C7F"/>
<path d="M37.213 43.7606C37.213 44.4914 36.6693 45.0394 35.9444 45.0394C35.2195 45.0394 34.6758 44.4914 34.6758 43.7606C34.6758 43.0298 35.2195 42.4817 35.9444 42.4817C36.6089 42.4817 37.213 43.0298 37.213 43.7606Z" fill="#163C7F"/>
<path d="M41.9249 43.7606C41.9249 44.4914 41.3813 45.0394 40.6563 45.0394C39.9314 45.0394 39.3877 44.4914 39.3877 43.7606C39.3877 43.0298 39.9314 42.4817 40.6563 42.4817C41.3208 42.4817 41.9249 43.0298 41.9249 43.7606Z" fill="#163C7F"/>
<path d="M46.6369 43.7606C46.6369 44.4914 46.0932 45.0394 45.3682 45.0394C44.6433 45.0394 44.0996 44.4914 44.0996 43.7606C44.0996 43.0298 44.6433 42.4817 45.3682 42.4817C46.0932 42.4817 46.6369 43.0298 46.6369 43.7606Z" fill="#163C7F"/>
<path d="M51.349 43.7606C51.349 44.4914 50.8053 45.0394 50.0804 45.0394C49.3555 45.0394 48.8118 44.4914 48.8118 43.7606C48.8118 43.0298 49.3555 42.4817 50.0804 42.4817C50.8053 42.4817 51.349 43.0298 51.349 43.7606Z" fill="#163C7F"/>
<path d="M56.1215 43.7606C56.1215 44.4914 55.5778 45.0394 54.8529 45.0394C54.1279 45.0394 53.5842 44.4914 53.5842 43.7606C53.5842 43.0298 54.1279 42.4817 54.8529 42.4817C55.5174 42.4817 56.1215 43.0298 56.1215 43.7606Z" fill="#163C7F"/>
<path d="M60.8336 43.7606C60.8336 44.4914 60.2899 45.0394 59.565 45.0394C58.8401 45.0394 58.2964 44.4914 58.2964 43.7606C58.2964 43.0298 58.8401 42.4817 59.565 42.4817C60.2899 42.4817 60.8336 43.0298 60.8336 43.7606Z" fill="#163C7F"/>
<path d="M65.5456 43.7606C65.5456 44.4914 65.0019 45.0394 64.2769 45.0394C63.552 45.0394 63.0083 44.4914 63.0083 43.7606C63.0083 43.0298 63.552 42.4817 64.2769 42.4817C65.0019 42.4817 65.5456 43.0298 65.5456 43.7606Z" fill="#163C7F"/>
<path d="M70.318 43.7606C70.318 44.4914 69.7743 45.0394 69.0494 45.0394C68.3245 45.0394 67.7808 44.4914 67.7808 43.7606C67.7808 43.0298 68.3245 42.4817 69.0494 42.4817C69.7139 42.4817 70.318 43.0298 70.318 43.7606Z" fill="#163C7F"/>
<path d="M75.0299 43.7606C75.0299 44.4914 74.4862 45.0394 73.7613 45.0394C73.0364 45.0394 72.4927 44.4914 72.4927 43.7606C72.4927 43.0298 73.0364 42.4817 73.7613 42.4817C74.4862 42.4817 75.0299 43.0298 75.0299 43.7606Z" fill="#163C7F"/>
<path d="M27.7284 39.2542C27.7284 39.985 27.1847 40.5331 26.4598 40.5331C25.7349 40.5331 25.1912 39.985 25.1912 39.2542C25.1912 38.5234 25.7349 37.9753 26.4598 37.9753C27.1243 37.9753 27.7284 38.5234 27.7284 39.2542Z" fill="#163C7F"/>
<path d="M32.4406 39.2542C32.4406 39.985 31.8969 40.5331 31.1719 40.5331C30.447 40.5331 29.9033 39.985 29.9033 39.2542C29.9033 38.5234 30.447 37.9753 31.1719 37.9753C31.8969 37.9753 32.4406 38.5234 32.4406 39.2542Z" fill="#163C7F"/>
<path d="M37.213 39.2542C37.213 39.985 36.6693 40.5331 35.9444 40.5331C35.2195 40.5331 34.6758 39.985 34.6758 39.2542C34.6758 38.5234 35.2195 37.9753 35.9444 37.9753C36.6089 37.9753 37.213 38.5234 37.213 39.2542Z" fill="#163C7F"/>
<path d="M41.9249 39.2542C41.9249 39.985 41.3813 40.5331 40.6563 40.5331C39.9314 40.5331 39.3877 39.985 39.3877 39.2542C39.3877 38.5234 39.9314 37.9753 40.6563 37.9753C41.3208 37.9753 41.9249 38.5234 41.9249 39.2542Z" fill="#163C7F"/>
<path d="M46.6369 39.2542C46.6369 39.985 46.0932 40.5331 45.3682 40.5331C44.6433 40.5331 44.0996 39.985 44.0996 39.2542C44.0996 38.5234 44.6433 37.9753 45.3682 37.9753C46.0932 37.9753 46.6369 38.5234 46.6369 39.2542Z" fill="#163C7F"/>
<path d="M51.349 39.2542C51.349 39.985 50.8053 40.5331 50.0804 40.5331C49.3555 40.5331 48.8118 39.985 48.8118 39.2542C48.8118 38.5234 49.3555 37.9753 50.0804 37.9753C50.8053 37.9753 51.349 38.5234 51.349 39.2542Z" fill="#163C7F"/>
<path d="M56.1215 39.2542C56.1215 39.985 55.5778 40.5331 54.8529 40.5331C54.1279 40.5331 53.5842 39.985 53.5842 39.2542C53.5842 38.5234 54.1279 37.9753 54.8529 37.9753C55.5174 37.9753 56.1215 38.5234 56.1215 39.2542Z" fill="#163C7F"/>
<path d="M60.8336 39.2542C60.8336 39.985 60.2899 40.5331 59.565 40.5331C58.8401 40.5331 58.2964 39.985 58.2964 39.2542C58.2964 38.5234 58.8401 37.9753 59.565 37.9753C60.2899 37.9753 60.8336 38.5234 60.8336 39.2542Z" fill="#163C7F"/>
<path d="M65.5456 39.2542C65.5456 39.985 65.0019 40.5331 64.2769 40.5331C63.552 40.5331 63.0083 39.985 63.0083 39.2542C63.0083 38.5234 63.552 37.9753 64.2769 37.9753C65.0019 37.9753 65.5456 38.5234 65.5456 39.2542Z" fill="#163C7F"/>
<path d="M70.318 39.2542C70.318 39.985 69.7743 40.5331 69.0494 40.5331C68.3245 40.5331 67.7808 39.985 67.7808 39.2542C67.7808 38.5234 68.3245 37.9753 69.0494 37.9753C69.7139 37.9753 70.318 38.5234 70.318 39.2542Z" fill="#163C7F"/>
<path d="M75.0299 39.2542C75.0299 39.985 74.4862 40.5331 73.7613 40.5331C73.0364 40.5331 72.4927 39.985 72.4927 39.2542C72.4927 38.5234 73.0364 37.9753 73.7613 37.9753C74.4862 37.9753 75.0299 38.5234 75.0299 39.2542Z" fill="#163C7F"/>
<path d="M27.7284 34.7476C27.7284 35.4784 27.1847 36.0265 26.4598 36.0265C25.7349 36.0265 25.1912 35.4784 25.1912 34.7476C25.1912 34.0168 25.7349 33.4688 26.4598 33.4688C27.1243 33.4688 27.7284 34.0777 27.7284 34.7476Z" fill="#163C7F"/>
<path d="M32.4406 34.7476C32.4406 35.4784 31.8969 36.0265 31.1719 36.0265C30.447 36.0265 29.9033 35.4784 29.9033 34.7476C29.9033 34.0168 30.447 33.4688 31.1719 33.4688C31.8969 33.4688 32.4406 34.0777 32.4406 34.7476Z" fill="#163C7F"/>
<path d="M37.213 34.7476C37.213 35.4784 36.6693 36.0265 35.9444 36.0265C35.2195 36.0265 34.6758 35.4784 34.6758 34.7476C34.6758 34.0168 35.2195 33.4688 35.9444 33.4688C36.6089 33.4688 37.213 34.0777 37.213 34.7476Z" fill="#163C7F"/>
<path d="M41.9249 34.7476C41.9249 35.4784 41.3813 36.0265 40.6563 36.0265C39.9314 36.0265 39.3877 35.4784 39.3877 34.7476C39.3877 34.0168 39.9314 33.4688 40.6563 33.4688C41.3208 33.4688 41.9249 34.0777 41.9249 34.7476Z" fill="#163C7F"/>
<path d="M46.6369 34.7476C46.6369 35.4784 46.0932 36.0265 45.3682 36.0265C44.6433 36.0265 44.0996 35.4784 44.0996 34.7476C44.0996 34.0168 44.6433 33.4688 45.3682 33.4688C46.0932 33.4688 46.6369 34.0777 46.6369 34.7476Z" fill="#163C7F"/>
<path d="M51.349 34.7476C51.349 35.4784 50.8053 36.0265 50.0804 36.0265C49.3555 36.0265 48.8118 35.4784 48.8118 34.7476C48.8118 34.0168 49.3555 33.4688 50.0804 33.4688C50.8053 33.4688 51.349 34.0777 51.349 34.7476Z" fill="#163C7F"/>
<path d="M56.1215 34.7476C56.1215 35.4784 55.5778 36.0265 54.8529 36.0265C54.1279 36.0265 53.5842 35.4784 53.5842 34.7476C53.5842 34.0168 54.1279 33.4688 54.8529 33.4688C55.5174 33.4688 56.1215 34.0777 56.1215 34.7476Z" fill="#163C7F"/>
<path d="M60.8336 34.7476C60.8336 35.4784 60.2899 36.0265 59.565 36.0265C58.8401 36.0265 58.2964 35.4784 58.2964 34.7476C58.2964 34.0168 58.8401 33.4688 59.565 33.4688C60.2899 33.4688 60.8336 34.0777 60.8336 34.7476Z" fill="#163C7F"/>
<path d="M65.5456 34.7476C65.5456 35.4784 65.0019 36.0265 64.2769 36.0265C63.552 36.0265 63.0083 35.4784 63.0083 34.7476C63.0083 34.0168 63.552 33.4688 64.2769 33.4688C65.0019 33.4688 65.5456 34.0777 65.5456 34.7476Z" fill="#163C7F"/>
<path d="M70.318 34.7476C70.318 35.4784 69.7743 36.0265 69.0494 36.0265C68.3245 36.0265 67.7808 35.4784 67.7808 34.7476C67.7808 34.0168 68.3245 33.4688 69.0494 33.4688C69.7139 33.4688 70.318 34.0777 70.318 34.7476Z" fill="#163C7F"/>
<path d="M75.0299 34.7476C75.0299 35.4784 74.4862 36.0265 73.7613 36.0265C73.0364 36.0265 72.4927 35.4784 72.4927 34.7476C72.4927 34.0168 73.0364 33.4688 73.7613 33.4688C74.4862 33.4688 75.0299 34.0777 75.0299 34.7476Z" fill="#163C7F"/>
<path d="M27.7284 30.2413C27.7284 30.9721 27.1847 31.5202 26.4598 31.5202C25.7349 31.5202 25.1912 30.9721 25.1912 30.2413C25.1912 29.5105 25.7349 28.9624 26.4598 28.9624C27.1243 28.9624 27.7284 29.5714 27.7284 30.2413Z" fill="#163C7F"/>
<path d="M32.4406 30.2413C32.4406 30.9721 31.8969 31.5202 31.1719 31.5202C30.447 31.5202 29.9033 30.9721 29.9033 30.2413C29.9033 29.5105 30.447 28.9624 31.1719 28.9624C31.8969 28.9624 32.4406 29.5714 32.4406 30.2413Z" fill="#163C7F"/>
<path d="M37.213 30.2413C37.213 30.9721 36.6693 31.5202 35.9444 31.5202C35.2195 31.5202 34.6758 30.9721 34.6758 30.2413C34.6758 29.5105 35.2195 28.9624 35.9444 28.9624C36.6089 28.9624 37.213 29.5714 37.213 30.2413Z" fill="#163C7F"/>
<path d="M32.4406 61.8475C32.4406 62.5783 31.8969 63.1264 31.1719 63.1264C30.447 63.1264 29.9033 62.5783 29.9033 61.8475C29.9033 61.1167 30.447 60.5687 31.1719 60.5687C31.8969 60.5078 32.4406 61.1167 32.4406 61.8475Z" fill="#163C7F"/>
<path d="M37.213 61.8475C37.213 62.5783 36.6693 63.1264 35.9444 63.1264C35.2195 63.1264 34.6758 62.5783 34.6758 61.8475C34.6758 61.1167 35.2195 60.5687 35.9444 60.5687C36.6089 60.5078 37.213 61.1167 37.213 61.8475Z" fill="#163C7F"/>
<path d="M32.4406 57.3411C32.4406 58.0719 31.8969 58.62 31.1719 58.62C30.447 58.62 29.9033 58.0719 29.9033 57.3411C29.9033 56.6104 30.447 56.0623 31.1719 56.0623C31.8969 56.0623 32.4406 56.6104 32.4406 57.3411Z" fill="#163C7F"/>
<path d="M37.213 57.3411C37.213 58.0719 36.6693 58.62 35.9444 58.62C35.2195 58.62 34.6758 58.0719 34.6758 57.3411C34.6758 56.6104 35.2195 56.0623 35.9444 56.0623C36.6089 56.0623 37.213 56.6104 37.213 57.3411Z" fill="#163C7F"/>
<path d="M27.7284 52.8345C27.7284 53.5653 27.1847 54.1134 26.4598 54.1134C25.7349 54.1134 25.1912 53.5653 25.1912 52.8345C25.1912 52.1038 25.7349 51.5557 26.4598 51.5557C27.1243 51.5557 27.7284 52.1038 27.7284 52.8345Z" fill="#163C7F"/>
<path d="M32.4406 52.8345C32.4406 53.5653 31.8969 54.1134 31.1719 54.1134C30.447 54.1134 29.9033 53.5653 29.9033 52.8345C29.9033 52.1038 30.447 51.5557 31.1719 51.5557C31.8969 51.5557 32.4406 52.1038 32.4406 52.8345Z" fill="#163C7F"/>
<path d="M37.213 52.8345C37.213 53.5653 36.6693 54.1134 35.9444 54.1134C35.2195 54.1134 34.6758 53.5653 34.6758 52.8345C34.6758 52.1038 35.2195 51.5557 35.9444 51.5557C36.6089 51.5557 37.213 52.1038 37.213 52.8345Z" fill="#163C7F"/>
<path d="M27.7284 48.3279C27.7284 49.0587 27.1847 49.6068 26.4598 49.6068C25.7349 49.6068 25.1912 49.0587 25.1912 48.3279C25.1912 47.5972 25.7349 47.0491 26.4598 47.0491C27.1243 47.0491 27.7284 47.5972 27.7284 48.3279Z" fill="#163C7F"/>
<path d="M32.4406 48.3279C32.4406 49.0587 31.8969 49.6068 31.1719 49.6068C30.447 49.6068 29.9033 49.0587 29.9033 48.3279C29.9033 47.5972 30.447 47.0491 31.1719 47.0491C31.8969 47.0491 32.4406 47.5972 32.4406 48.3279Z" fill="#163C7F"/>
<path d="M37.213 48.3279C37.213 49.0587 36.6693 49.6068 35.9444 49.6068C35.2195 49.6068 34.6758 49.0587 34.6758 48.3279C34.6758 47.5972 35.2195 47.0491 35.9444 47.0491C36.6089 47.0491 37.213 47.5972 37.213 48.3279Z" fill="#163C7F"/>
<path d="M41.9249 30.2413C41.9249 30.9721 41.3813 31.5202 40.6563 31.5202C39.9314 31.5202 39.3877 30.9721 39.3877 30.2413C39.3877 29.5105 39.9314 28.9624 40.6563 28.9624C41.3208 28.9624 41.9249 29.5714 41.9249 30.2413Z" fill="#163C7F"/>
<path d="M46.6369 30.2413C46.6369 30.9721 46.0932 31.5202 45.3682 31.5202C44.6433 31.5202 44.0996 30.9721 44.0996 30.2413C44.0996 29.5105 44.6433 28.9624 45.3682 28.9624C46.0932 28.9624 46.6369 29.5714 46.6369 30.2413Z" fill="#163C7F"/>
<path d="M51.349 30.2413C51.349 30.9721 50.8053 31.5202 50.0804 31.5202C49.3555 31.5202 48.8118 30.9721 48.8118 30.2413C48.8118 29.5105 49.3555 28.9624 50.0804 28.9624C50.8053 28.9624 51.349 29.5714 51.349 30.2413Z" fill="#163C7F"/>
<path d="M56.1215 30.2413C56.1215 30.9721 55.5778 31.5202 54.8529 31.5202C54.1279 31.5202 53.5842 30.9721 53.5842 30.2413C53.5842 29.5105 54.1279 28.9624 54.8529 28.9624C55.5174 28.9624 56.1215 29.5714 56.1215 30.2413Z" fill="#163C7F"/>
<path d="M60.8336 30.2413C60.8336 30.9721 60.2899 31.5202 59.565 31.5202C58.8401 31.5202 58.2964 30.9721 58.2964 30.2413C58.2964 29.5105 58.8401 28.9624 59.565 28.9624C60.2899 28.9624 60.8336 29.5714 60.8336 30.2413Z" fill="#163C7F"/>
<path d="M65.5456 30.2413C65.5456 30.9721 65.0019 31.5202 64.2769 31.5202C63.552 31.5202 63.0083 30.9721 63.0083 30.2413C63.0083 29.5105 63.552 28.9624 64.2769 28.9624C65.0019 28.9624 65.5456 29.5714 65.5456 30.2413Z" fill="#163C7F"/>
<path d="M70.318 30.2413C70.318 30.9721 69.7743 31.5202 69.0494 31.5202C68.3245 31.5202 67.7808 30.9721 67.7808 30.2413C67.7808 29.5105 68.3245 28.9624 69.0494 28.9624C69.7139 28.9624 70.318 29.5714 70.318 30.2413Z" fill="#163C7F"/>
<path d="M75.0299 30.2413C75.0299 30.9721 74.4862 31.5202 73.7613 31.5202C73.0364 31.5202 72.4927 30.9721 72.4927 30.2413C72.4927 29.5105 73.0364 28.9624 73.7613 28.9624C74.4862 28.9624 75.0299 29.5714 75.0299 30.2413Z" fill="#163C7F"/>
<path d="M27.7284 25.7955C27.7284 26.5263 27.1847 27.0744 26.4598 27.0744C25.7349 27.0744 25.1912 26.5263 25.1912 25.7955C25.1912 25.0647 25.7349 24.5167 26.4598 24.5167C27.1243 24.4558 27.7284 25.0647 27.7284 25.7955Z" fill="#163C7F"/>
<path d="M32.4406 25.7955C32.4406 26.5263 31.8969 27.0744 31.1719 27.0744C30.447 27.0744 29.9033 26.5263 29.9033 25.7955C29.9033 25.0647 30.447 24.5167 31.1719 24.5167C31.8969 24.4558 32.4406 25.0647 32.4406 25.7955Z" fill="#163C7F"/>
<path d="M37.213 25.7955C37.213 26.5263 36.6693 27.0744 35.9444 27.0744C35.2195 27.0744 34.6758 26.5263 34.6758 25.7955C34.6758 25.0647 35.2195 24.5167 35.9444 24.5167C36.6089 24.4558 37.213 25.0647 37.213 25.7955Z" fill="#163C7F"/>
<path d="M41.9249 25.7955C41.9249 26.5263 41.3813 27.0744 40.6563 27.0744C39.9314 27.0744 39.3877 26.5263 39.3877 25.7955C39.3877 25.0647 39.9314 24.5167 40.6563 24.5167C41.3208 24.4558 41.9249 25.0647 41.9249 25.7955Z" fill="#163C7F"/>
<path d="M46.6369 25.7955C46.6369 26.5263 46.0932 27.0744 45.3682 27.0744C44.6433 27.0744 44.0996 26.5263 44.0996 25.7955C44.0996 25.0647 44.6433 24.5167 45.3682 24.5167C46.0932 24.4558 46.6369 25.0647 46.6369 25.7955Z" fill="#163C7F"/>
<path d="M51.349 25.7955C51.349 26.5263 50.8053 27.0744 50.0804 27.0744C49.3555 27.0744 48.8118 26.5263 48.8118 25.7955C48.8118 25.0647 49.3555 24.5167 50.0804 24.5167C50.8053 24.4558 51.349 25.0647 51.349 25.7955Z" fill="#163C7F"/>
<path d="M56.1215 25.7955C56.1215 26.5263 55.5778 27.0744 54.8529 27.0744C54.1279 27.0744 53.5842 26.5263 53.5842 25.7955C53.5842 25.0647 54.1279 24.5167 54.8529 24.5167C55.5174 24.4558 56.1215 25.0647 56.1215 25.7955Z" fill="#163C7F"/>
<path d="M60.8336 25.7955C60.8336 26.5263 60.2899 27.0744 59.565 27.0744C58.8401 27.0744 58.2964 26.5263 58.2964 25.7955C58.2964 25.0647 58.8401 24.5167 59.565 24.5167C60.2899 24.4558 60.8336 25.0647 60.8336 25.7955Z" fill="#163C7F"/>
<path d="M65.5456 25.7955C65.5456 26.5263 65.0019 27.0744 64.2769 27.0744C63.552 27.0744 63.0083 26.5263 63.0083 25.7955C63.0083 25.0647 63.552 24.5167 64.2769 24.5167C65.0019 24.4558 65.5456 25.0647 65.5456 25.7955Z" fill="#163C7F"/>
<path d="M70.318 25.7955C70.318 26.5263 69.7743 27.0744 69.0494 27.0744C68.3245 27.0744 67.7808 26.5263 67.7808 25.7955C67.7808 25.0647 68.3245 24.5167 69.0494 24.5167C69.7139 24.4558 70.318 25.0647 70.318 25.7955Z" fill="#163C7F"/>
<path d="M75.0299 25.7955C75.0299 26.5263 74.4862 27.0744 73.7613 27.0744C73.0364 27.0744 72.4927 26.5263 72.4927 25.7955C72.4927 25.0647 73.0364 24.5167 73.7613 24.5167C74.4862 24.4558 75.0299 25.0647 75.0299 25.7955Z" fill="#163C7F"/>
<path d="M32.4406 21.2891C32.4406 22.0199 31.8969 22.568 31.1719 22.568C30.447 22.568 29.9033 22.0199 29.9033 21.2891C29.9033 20.5583 30.447 20.0103 31.1719 20.0103C31.8969 20.0103 32.4406 20.5583 32.4406 21.2891Z" fill="#163C7F"/>
<path d="M37.213 21.2891C37.213 22.0199 36.6693 22.568 35.9444 22.568C35.2195 22.568 34.6758 22.0199 34.6758 21.2891C34.6758 20.5583 35.2195 20.0103 35.9444 20.0103C36.6089 20.0103 37.213 20.5583 37.213 21.2891Z" fill="#163C7F"/>
<path d="M41.9249 21.2891C41.9249 22.0199 41.3813 22.568 40.6563 22.568C39.9314 22.568 39.3877 22.0199 39.3877 21.2891C39.3877 20.5583 39.9314 20.0103 40.6563 20.0103C41.3208 20.0103 41.9249 20.5583 41.9249 21.2891Z" fill="#163C7F"/>
<path d="M46.6369 21.2891C46.6369 22.0199 46.0932 22.568 45.3682 22.568C44.6433 22.568 44.0996 22.0199 44.0996 21.2891C44.0996 20.5583 44.6433 20.0103 45.3682 20.0103C46.0932 20.0103 46.6369 20.5583 46.6369 21.2891Z" fill="#163C7F"/>
<path d="M51.349 21.2891C51.349 22.0199 50.8053 22.568 50.0804 22.568C49.3555 22.568 48.8118 22.0199 48.8118 21.2891C48.8118 20.5583 49.3555 20.0103 50.0804 20.0103C50.8053 20.0103 51.349 20.5583 51.349 21.2891Z" fill="#163C7F"/>
<path d="M56.1215 21.2891C56.1215 22.0199 55.5778 22.568 54.8529 22.568C54.1279 22.568 53.5842 22.0199 53.5842 21.2891C53.5842 20.5583 54.1279 20.0103 54.8529 20.0103C55.5174 20.0103 56.1215 20.5583 56.1215 21.2891Z" fill="#163C7F"/>
<path d="M60.8336 21.2891C60.8336 22.0199 60.2899 22.568 59.565 22.568C58.8401 22.568 58.2964 22.0199 58.2964 21.2891C58.2964 20.5583 58.8401 20.0103 59.565 20.0103C60.2899 20.0103 60.8336 20.5583 60.8336 21.2891Z" fill="#163C7F"/>
<path d="M65.5456 21.2891C65.5456 22.0199 65.0019 22.568 64.2769 22.568C63.552 22.568 63.0083 22.0199 63.0083 21.2891C63.0083 20.5583 63.552 20.0103 64.2769 20.0103C65.0019 20.0103 65.5456 20.5583 65.5456 21.2891Z" fill="#163C7F"/>
<path d="M70.318 21.2891C70.318 22.0199 69.7743 22.568 69.0494 22.568C68.3245 22.568 67.7808 22.0199 67.7808 21.2891C67.7808 20.5583 68.3245 20.0103 69.0494 20.0103C69.7139 20.0103 70.318 20.5583 70.318 21.2891Z" fill="#163C7F"/>
<path d="M75.0299 21.2891C75.0299 22.0199 74.4862 22.568 73.7613 22.568C73.0364 22.568 72.4927 22.0199 72.4927 21.2891C72.4927 20.5583 73.0364 20.0103 73.7613 20.0103C74.4862 20.0103 75.0299 20.5583 75.0299 21.2891Z" fill="#163C7F"/>
<path d="M27.7284 21.2891C27.7284 22.0199 27.1847 22.568 26.4598 22.568C25.7349 22.568 25.1912 22.0199 25.1912 21.2891C25.1912 20.5583 25.7349 20.0103 26.4598 20.0103C27.1243 20.0103 27.7284 20.5583 27.7284 21.2891Z" fill="#163C7F"/>
<path d="M32.4406 21.2891C32.4406 22.0199 31.8969 22.568 31.1719 22.568C30.447 22.568 29.9033 22.0199 29.9033 21.2891C29.9033 20.5583 30.447 20.0103 31.1719 20.0103C31.8969 20.0103 32.4406 20.5583 32.4406 21.2891Z" fill="#163C7F"/>
<path d="M37.213 16.7825C37.213 17.5133 36.6693 18.0614 35.9444 18.0614C35.2195 18.0614 34.6758 17.5133 34.6758 16.7825C34.6758 16.0518 35.2195 15.5037 35.9444 15.5037C36.6089 15.5037 37.213 16.0518 37.213 16.7825Z" fill="#163C7F"/>
<path d="M41.9249 16.7825C41.9249 17.5133 41.3813 18.0614 40.6563 18.0614C39.9314 18.0614 39.3877 17.5133 39.3877 16.7825C39.3877 16.0518 39.9314 15.5037 40.6563 15.5037C41.3208 15.5037 41.9249 16.0518 41.9249 16.7825Z" fill="#163C7F"/>
<path d="M46.6369 16.7825C46.6369 17.5133 46.0932 18.0614 45.3682 18.0614C44.6433 18.0614 44.0996 17.5133 44.0996 16.7825C44.0996 16.0518 44.6433 15.5037 45.3682 15.5037C46.0932 15.5037 46.6369 16.0518 46.6369 16.7825Z" fill="#163C7F"/>
<path d="M51.349 16.7825C51.349 17.5133 50.8053 18.0614 50.0804 18.0614C49.3555 18.0614 48.8118 17.5133 48.8118 16.7825C48.8118 16.0518 49.3555 15.5037 50.0804 15.5037C50.8053 15.5037 51.349 16.0518 51.349 16.7825Z" fill="#163C7F"/>
<path d="M56.1215 16.7825C56.1215 17.5133 55.5778 18.0614 54.8529 18.0614C54.1279 18.0614 53.5842 17.5133 53.5842 16.7825C53.5842 16.0518 54.1279 15.5037 54.8529 15.5037C55.5174 15.5037 56.1215 16.0518 56.1215 16.7825Z" fill="#163C7F"/>
<path d="M60.8336 16.7825C60.8336 17.5133 60.2899 18.0614 59.565 18.0614C58.8401 18.0614 58.2964 17.5133 58.2964 16.7825C58.2964 16.0518 58.8401 15.5037 59.565 15.5037C60.2899 15.5037 60.8336 16.0518 60.8336 16.7825Z" fill="#163C7F"/>
<path d="M70.318 16.7825C70.318 17.5133 69.7743 18.0614 69.0494 18.0614C68.3245 18.0614 67.7808 17.5133 67.7808 16.7825C67.7808 16.0518 68.3245 15.5037 69.0494 15.5037C69.7139 15.5037 70.318 16.0518 70.318 16.7825Z" fill="#163C7F"/>
<path d="M27.7284 16.7825C27.7284 17.5133 27.1847 18.0614 26.4598 18.0614C25.7349 18.0614 25.1912 17.5133 25.1912 16.7825C25.1912 16.0518 25.7349 15.5037 26.4598 15.5037C27.1243 15.5037 27.7284 16.0518 27.7284 16.7825Z" fill="#163C7F"/>
<path d="M37.213 12.2759C37.213 13.0067 36.6693 13.5548 35.9444 13.5548C35.2195 13.5548 34.6758 13.0067 34.6758 12.2759C34.6758 11.5452 35.2195 10.9971 35.9444 10.9971C36.6089 10.9971 37.213 11.6061 37.213 12.2759Z" fill="#163C7F"/>
<path d="M41.9249 12.2759C41.9249 13.0067 41.3813 13.5548 40.6563 13.5548C39.9314 13.5548 39.3877 13.0067 39.3877 12.2759C39.3877 11.5452 39.9314 10.9971 40.6563 10.9971C41.3208 10.9971 41.9249 11.6061 41.9249 12.2759Z" fill="#163C7F"/>
<path d="M46.6369 12.2759C46.6369 13.0067 46.0932 13.5548 45.3682 13.5548C44.6433 13.5548 44.0996 13.0067 44.0996 12.2759C44.0996 11.5452 44.6433 10.9971 45.3682 10.9971C46.0932 10.9971 46.6369 11.6061 46.6369 12.2759Z" fill="#163C7F"/>
<path d="M51.349 12.2759C51.349 13.0067 50.8053 13.5548 50.0804 13.5548C49.3555 13.5548 48.8118 13.0067 48.8118 12.2759C48.8118 11.5452 49.3555 10.9971 50.0804 10.9971C50.8053 10.9971 51.349 11.6061 51.349 12.2759Z" fill="#163C7F"/>
<path d="M56.1215 12.2759C56.1215 13.0067 55.5778 13.5548 54.8529 13.5548C54.1279 13.5548 53.5842 13.0067 53.5842 12.2759C53.5842 11.5452 54.1279 10.9971 54.8529 10.9971C55.5174 10.9971 56.1215 11.6061 56.1215 12.2759Z" fill="#163C7F"/>
<path d="M60.8336 12.2759C60.8336 13.0067 60.2899 13.5548 59.565 13.5548C58.8401 13.5548 58.2964 13.0067 58.2964 12.2759C58.2964 11.5452 58.8401 10.9971 59.565 10.9971C60.2899 10.9971 60.8336 11.6061 60.8336 12.2759Z" fill="#163C7F"/>
<path d="M65.5456 12.2759C65.5456 13.0067 65.0019 13.5548 64.2769 13.5548C63.552 13.5548 63.0083 13.0067 63.0083 12.2759C63.0083 11.5452 63.552 10.9971 64.2769 10.9971C65.0019 10.9971 65.5456 11.6061 65.5456 12.2759Z" fill="#163C7F"/>
<path d="M70.318 12.2759C70.318 13.0067 69.7743 13.5548 69.0494 13.5548C68.3245 13.5548 67.7808 13.0067 67.7808 12.2759C67.7808 11.5452 68.3245 10.9971 69.0494 10.9971C69.7139 10.9971 70.318 11.6061 70.318 12.2759Z" fill="#163C7F"/>
<path d="M27.7284 12.2759C27.7284 13.0067 27.1847 13.5548 26.4598 13.5548C25.7349 13.5548 25.1912 13.0067 25.1912 12.2759C25.1912 11.5452 25.7349 10.9971 26.4598 10.9971C27.1243 10.9971 27.7284 11.6061 27.7284 12.2759Z" fill="#163C7F"/>
<path d="M32.4406 12.2759C32.4406 13.0067 31.8969 13.5548 31.1719 13.5548C30.447 13.5548 29.9033 13.0067 29.9033 12.2759C29.9033 11.5452 30.447 10.9971 31.1719 10.9971C31.8969 10.9971 32.4406 11.6061 32.4406 12.2759Z" fill="#163C7F"/>
<path d="M41.9249 7.76935C41.9249 8.50014 41.3813 9.04823 40.6563 9.04823C39.9314 9.04823 39.3877 8.50014 39.3877 7.76935C39.3877 7.03857 39.9314 6.49048 40.6563 6.49048C41.3208 6.49048 41.9249 7.09947 41.9249 7.76935Z" fill="#163C7F"/>
<path d="M46.6369 7.76935C46.6369 8.50014 46.0932 9.04823 45.3682 9.04823C44.6433 9.04823 44.0996 8.50014 44.0996 7.76935C44.0996 7.03857 44.6433 6.49048 45.3682 6.49048C46.0932 6.49048 46.6369 7.09947 46.6369 7.76935Z" fill="#163C7F"/>
<path d="M56.1215 7.76935C56.1215 8.50014 55.5778 9.04823 54.8529 9.04823C54.1279 9.04823 53.5842 8.50014 53.5842 7.76935C53.5842 7.03857 54.1279 6.49048 54.8529 6.49048C55.5174 6.49048 56.1215 7.09947 56.1215 7.76935Z" fill="#163C7F"/>
<path d="M60.8336 7.76935C60.8336 8.50014 60.2899 9.04823 59.565 9.04823C58.8401 9.04823 58.2964 8.50014 58.2964 7.76935C58.2964 7.03857 58.8401 6.49048 59.565 6.49048C60.2899 6.49048 60.8336 7.09947 60.8336 7.76935Z" fill="#163C7F"/>
<path d="M65.5456 7.76935C65.5456 8.50014 65.0019 9.04823 64.2769 9.04823C63.552 9.04823 63.0083 8.50014 63.0083 7.76935C63.0083 7.03857 63.552 6.49048 64.2769 6.49048C65.0019 6.49048 65.5456 7.09947 65.5456 7.76935Z" fill="#163C7F"/>
<path d="M75.0299 7.76935C75.0299 8.50014 74.4862 9.04823 73.7613 9.04823C73.0364 9.04823 72.4927 8.50014 72.4927 7.76935C72.4927 7.03857 73.0364 6.49048 73.7613 6.49048C74.4862 6.49048 75.0299 7.09947 75.0299 7.76935Z" fill="#163C7F"/>
<path d="M32.4406 7.76935C32.4406 8.50014 31.8969 9.04823 31.1719 9.04823C30.447 9.04823 29.9033 8.50014 29.9033 7.76935C29.9033 7.03857 30.447 6.49048 31.1719 6.49048C31.8969 6.49048 32.4406 7.09947 32.4406 7.76935Z" fill="#163C7F"/>
<path d="M41.9249 3.32385C41.9249 4.05464 41.3813 4.60272 40.6563 4.60272C39.9314 4.60272 39.3877 4.05464 39.3877 3.32385C39.3877 2.59307 39.9314 2.04498 40.6563 2.04498C41.3208 1.98408 41.9249 2.59307 41.9249 3.32385Z" fill="#163C7F"/>
<path d="M60.8336 3.32385C60.8336 4.05464 60.2899 4.60272 59.565 4.60272C58.8401 4.60272 58.2964 4.05464 58.2964 3.32385C58.2964 2.59307 58.8401 2.04498 59.565 2.04498C60.2899 1.98408 60.8336 2.59307 60.8336 3.32385Z" fill="#163C7F"/>
<path d="M75.0299 3.32385C75.0299 4.05464 74.4862 4.60272 73.7613 4.60272C73.0364 4.60272 72.4927 4.05464 72.4927 3.32385C72.4927 2.59307 73.0364 2.04498 73.7613 2.04498C74.4862 1.98408 75.0299 2.59307 75.0299 3.32385Z" fill="#163C7F"/>
<path d="M124.084 79.9954C124.084 79.2646 124.628 78.7166 125.352 78.7166C126.077 78.7166 126.621 79.2646 126.621 79.9954C126.621 80.7262 126.077 81.2743 125.352 81.2743C124.688 81.2743 124.084 80.7262 124.084 79.9954Z" fill="#163C7F"/>
<path d="M119.372 79.9954C119.372 79.2646 119.916 78.7166 120.64 78.7166C121.365 78.7166 121.909 79.2646 121.909 79.9954C121.909 80.7262 121.365 81.2743 120.64 81.2743C119.916 81.2743 119.372 80.7262 119.372 79.9954Z" fill="#163C7F"/>
<path d="M114.66 79.9954C114.66 79.2646 115.203 78.7166 115.928 78.7166C116.653 78.7166 117.197 79.2646 117.197 79.9954C117.197 80.7262 116.653 81.2743 115.928 81.2743C115.203 81.2743 114.66 80.7262 114.66 79.9954Z" fill="#163C7F"/>
<path d="M109.887 79.9954C109.887 79.2646 110.431 78.7166 111.156 78.7166C111.881 78.7166 112.425 79.2646 112.425 79.9954C112.425 80.7262 111.881 81.2743 111.156 81.2743C110.491 81.2743 109.887 80.7262 109.887 79.9954Z" fill="#163C7F"/>
<path d="M105.175 79.9954C105.175 79.2646 105.719 78.7166 106.444 78.7166C107.169 78.7166 107.713 79.2646 107.713 79.9954C107.713 80.7262 107.169 81.2743 106.444 81.2743C105.719 81.2743 105.175 80.7262 105.175 79.9954Z" fill="#163C7F"/>
<path d="M100.463 79.9954C100.463 79.2646 101.007 78.7166 101.732 78.7166C102.457 78.7166 103.001 79.2646 103.001 79.9954C103.001 80.7262 102.457 81.2743 101.732 81.2743C101.007 81.2743 100.463 80.7262 100.463 79.9954Z" fill="#163C7F"/>
<path d="M95.6908 79.9954C95.6908 79.2646 96.2345 78.7166 96.9594 78.7166C97.6844 78.7166 98.2281 79.2646 98.2281 79.9954C98.2281 80.7262 97.6844 81.2743 96.9594 81.2743C96.2949 81.2743 95.6908 80.7262 95.6908 79.9954Z" fill="#163C7F"/>
<path d="M90.9788 79.9954C90.9788 79.2646 91.5224 78.7166 92.2474 78.7166C92.9723 78.7166 93.516 79.2646 93.516 79.9954C93.516 80.7262 92.9723 81.2743 92.2474 81.2743C91.5829 81.2743 90.9788 80.7262 90.9788 79.9954Z" fill="#163C7F"/>
<path d="M86.2668 79.9954C86.2668 79.2646 86.8105 78.7166 87.5355 78.7166C88.2604 78.7166 88.8041 79.2646 88.8041 79.9954C88.8041 80.7262 88.2604 81.2743 87.5355 81.2743C86.8105 81.2743 86.2668 80.7262 86.2668 79.9954Z" fill="#163C7F"/>
<path d="M81.4941 79.9954C81.4941 79.2646 82.0378 78.7166 82.7628 78.7166C83.4877 78.7166 84.0314 79.2646 84.0314 79.9954C84.0314 80.7262 83.4877 81.2743 82.7628 81.2743C82.0983 81.2743 81.4941 80.7262 81.4941 79.9954Z" fill="#163C7F"/>
<path d="M76.7822 79.9954C76.7822 79.2646 77.3259 78.7166 78.0508 78.7166C78.7758 78.7166 79.3195 79.2646 79.3195 79.9954C79.3195 80.7262 78.7758 81.2743 78.0508 81.2743C77.3863 81.2743 76.7822 80.7262 76.7822 79.9954Z" fill="#163C7F"/>
<path d="M124.084 84.502C124.084 83.7712 124.628 83.2231 125.352 83.2231C126.077 83.2231 126.621 83.7712 126.621 84.502C126.621 85.2328 126.077 85.7809 125.352 85.7809C124.688 85.7809 124.084 85.2328 124.084 84.502Z" fill="#163C7F"/>
<path d="M119.372 84.502C119.372 83.7712 119.916 83.2231 120.64 83.2231C121.365 83.2231 121.909 83.7712 121.909 84.502C121.909 85.2328 121.365 85.7809 120.64 85.7809C119.916 85.7809 119.372 85.2328 119.372 84.502Z" fill="#163C7F"/>
<path d="M114.66 84.502C114.66 83.7712 115.203 83.2231 115.928 83.2231C116.653 83.2231 117.197 83.7712 117.197 84.502C117.197 85.2328 116.653 85.7809 115.928 85.7809C115.203 85.7809 114.66 85.2328 114.66 84.502Z" fill="#163C7F"/>
<path d="M109.887 84.502C109.887 83.7712 110.431 83.2231 111.156 83.2231C111.881 83.2231 112.425 83.7712 112.425 84.502C112.425 85.2328 111.881 85.7809 111.156 85.7809C110.491 85.7809 109.887 85.2328 109.887 84.502Z" fill="#163C7F"/>
<path d="M105.175 84.502C105.175 83.7712 105.719 83.2231 106.444 83.2231C107.169 83.2231 107.713 83.7712 107.713 84.502C107.713 85.2328 107.169 85.7809 106.444 85.7809C105.719 85.7809 105.175 85.2328 105.175 84.502Z" fill="#163C7F"/>
<path d="M100.463 84.502C100.463 83.7712 101.007 83.2231 101.732 83.2231C102.457 83.2231 103.001 83.7712 103.001 84.502C103.001 85.2328 102.457 85.7809 101.732 85.7809C101.007 85.7809 100.463 85.2328 100.463 84.502Z" fill="#163C7F"/>
<path d="M95.6908 84.502C95.6908 83.7712 96.2345 83.2231 96.9594 83.2231C97.6844 83.2231 98.2281 83.7712 98.2281 84.502C98.2281 85.2328 97.6844 85.7809 96.9594 85.7809C96.2949 85.7809 95.6908 85.2328 95.6908 84.502Z" fill="#163C7F"/>
<path d="M90.9788 84.502C90.9788 83.7712 91.5224 83.2231 92.2474 83.2231C92.9723 83.2231 93.516 83.7712 93.516 84.502C93.516 85.2328 92.9723 85.7809 92.2474 85.7809C91.5829 85.7809 90.9788 85.2328 90.9788 84.502Z" fill="#163C7F"/>
<path d="M86.2668 84.502C86.2668 83.7712 86.8105 83.2231 87.5355 83.2231C88.2604 83.2231 88.8041 83.7712 88.8041 84.502C88.8041 85.2328 88.2604 85.7809 87.5355 85.7809C86.8105 85.7809 86.2668 85.2328 86.2668 84.502Z" fill="#163C7F"/>
<path d="M81.4941 84.502C81.4941 83.7712 82.0378 83.2231 82.7628 83.2231C83.4877 83.2231 84.0314 83.7712 84.0314 84.502C84.0314 85.2328 83.4877 85.7809 82.7628 85.7809C82.0983 85.7809 81.4941 85.2328 81.4941 84.502Z" fill="#163C7F"/>
<path d="M76.7822 84.502C76.7822 83.7712 77.3259 83.2231 78.0508 83.2231C78.7758 83.2231 79.3195 83.7712 79.3195 84.502C79.3195 85.2328 78.7758 85.7809 78.0508 85.7809C77.3863 85.7809 76.7822 85.2328 76.7822 84.502Z" fill="#163C7F"/>
<path d="M124.084 89.0084C124.084 88.2776 124.628 87.7295 125.352 87.7295C126.077 87.7295 126.621 88.2776 126.621 89.0084C126.621 89.7391 126.077 90.2872 125.352 90.2872C124.688 90.2872 124.084 89.6782 124.084 89.0084Z" fill="#163C7F"/>
<path d="M119.372 89.0084C119.372 88.2776 119.916 87.7295 120.64 87.7295C121.365 87.7295 121.909 88.2776 121.909 89.0084C121.909 89.7391 121.365 90.2872 120.64 90.2872C119.916 90.2872 119.372 89.6782 119.372 89.0084Z" fill="#163C7F"/>
<path d="M119.372 66.8414C119.372 66.1106 119.916 65.5625 120.64 65.5625C121.365 65.5625 121.909 66.1106 121.909 66.8414C121.909 67.5722 121.365 68.1203 120.64 68.1203C119.916 68.1203 119.372 67.5722 119.372 66.8414Z" fill="#163C7F"/>
<path d="M119.372 71.3477C119.372 70.6169 119.916 70.0688 120.64 70.0688C121.365 70.0688 121.909 70.6169 121.909 71.3477C121.909 72.0785 121.365 72.6266 120.64 72.6266C119.916 72.6266 119.372 72.0785 119.372 71.3477Z" fill="#163C7F"/>
<path d="M119.372 75.8543C119.372 75.1235 119.916 74.5754 120.64 74.5754C121.365 74.5754 121.909 75.1235 121.909 75.8543C121.909 76.5851 121.365 77.1332 120.64 77.1332C119.916 77.1332 119.372 76.5242 119.372 75.8543Z" fill="#163C7F"/>
<path d="M114.66 89.0084C114.66 88.2776 115.203 87.7295 115.928 87.7295C116.653 87.7295 117.197 88.2776 117.197 89.0084C117.197 89.7391 116.653 90.2872 115.928 90.2872C115.203 90.2872 114.66 89.6782 114.66 89.0084Z" fill="#163C7F"/>
<path d="M109.887 89.0084C109.887 88.2776 110.431 87.7295 111.156 87.7295C111.881 87.7295 112.425 88.2776 112.425 89.0084C112.425 89.7391 111.881 90.2872 111.156 90.2872C110.491 90.2872 109.887 89.6782 109.887 89.0084Z" fill="#163C7F"/>
<path d="M105.175 89.0084C105.175 88.2776 105.719 87.7295 106.444 87.7295C107.169 87.7295 107.713 88.2776 107.713 89.0084C107.713 89.7391 107.169 90.2872 106.444 90.2872C105.719 90.2872 105.175 89.6782 105.175 89.0084Z" fill="#163C7F"/>
<path d="M100.463 89.0084C100.463 88.2776 101.007 87.7295 101.732 87.7295C102.457 87.7295 103.001 88.2776 103.001 89.0084C103.001 89.7391 102.457 90.2872 101.732 90.2872C101.007 90.2872 100.463 89.6782 100.463 89.0084Z" fill="#163C7F"/>
<path d="M95.6908 89.0084C95.6908 88.2776 96.2345 87.7295 96.9594 87.7295C97.6844 87.7295 98.2281 88.2776 98.2281 89.0084C98.2281 89.7391 97.6844 90.2872 96.9594 90.2872C96.2949 90.2872 95.6908 89.6782 95.6908 89.0084Z" fill="#163C7F"/>
<path d="M90.9788 89.0084C90.9788 88.2776 91.5224 87.7295 92.2474 87.7295C92.9723 87.7295 93.516 88.2776 93.516 89.0084C93.516 89.7391 92.9723 90.2872 92.2474 90.2872C91.5829 90.2872 90.9788 89.6782 90.9788 89.0084Z" fill="#163C7F"/>
<path d="M86.2668 89.0084C86.2668 88.2776 86.8105 87.7295 87.5355 87.7295C88.2604 87.7295 88.8041 88.2776 88.8041 89.0084C88.8041 89.7391 88.2604 90.2872 87.5355 90.2872C86.8105 90.2872 86.2668 89.6782 86.2668 89.0084Z" fill="#163C7F"/>
<path d="M81.4941 89.0084C81.4941 88.2776 82.0378 87.7295 82.7628 87.7295C83.4877 87.7295 84.0314 88.2776 84.0314 89.0084C84.0314 89.7391 83.4877 90.2872 82.7628 90.2872C82.0983 90.2872 81.4941 89.6782 81.4941 89.0084Z" fill="#163C7F"/>
<path d="M76.7822 89.0084C76.7822 88.2776 77.3259 87.7295 78.0508 87.7295C78.7758 87.7295 79.3195 88.2776 79.3195 89.0084C79.3195 89.7391 78.7758 90.2872 78.0508 90.2872C77.3863 90.2872 76.7822 89.6782 76.7822 89.0084Z" fill="#163C7F"/>
<path d="M124.084 93.4539C124.084 92.7231 124.628 92.175 125.352 92.175C126.077 92.175 126.621 92.7231 126.621 93.4539C126.621 94.1847 126.077 94.7328 125.352 94.7328C124.688 94.7937 124.084 94.1847 124.084 93.4539Z" fill="#163C7F"/>
<path d="M124.084 62.3348C124.084 61.604 124.628 61.0559 125.352 61.0559C126.077 61.0559 126.621 61.604 126.621 62.3348C126.621 63.0656 126.077 63.6137 125.352 63.6137C124.688 63.6746 124.084 63.0656 124.084 62.3348Z" fill="#163C7F"/>
<path d="M124.084 66.8414C124.084 66.1106 124.628 65.5625 125.352 65.5625C126.077 65.5625 126.621 66.1106 126.621 66.8414C126.621 67.5722 126.077 68.1203 125.352 68.1203C124.688 68.1203 124.084 67.5722 124.084 66.8414Z" fill="#163C7F"/>
<path d="M124.084 71.3477C124.084 70.6169 124.628 70.0688 125.352 70.0688C126.077 70.0688 126.621 70.6169 126.621 71.3477C126.621 72.0785 126.077 72.6266 125.352 72.6266C124.688 72.6266 124.084 72.0785 124.084 71.3477Z" fill="#163C7F"/>
<path d="M124.084 75.8543C124.084 75.1235 124.628 74.5754 125.352 74.5754C126.077 74.5754 126.621 75.1235 126.621 75.8543C126.621 76.5851 126.077 77.1332 125.352 77.1332C124.688 77.1332 124.084 76.5242 124.084 75.8543Z" fill="#163C7F"/>
<path d="M119.372 93.4539C119.372 92.7231 119.916 92.175 120.64 92.175C121.365 92.175 121.909 92.7231 121.909 93.4539C121.909 94.1847 121.365 94.7328 120.64 94.7328C119.916 94.7937 119.372 94.1847 119.372 93.4539Z" fill="#163C7F"/>
<path d="M114.66 93.4539C114.66 92.7231 115.203 92.175 115.928 92.175C116.653 92.175 117.197 92.7231 117.197 93.4539C117.197 94.1847 116.653 94.7328 115.928 94.7328C115.203 94.7937 114.66 94.1847 114.66 93.4539Z" fill="#163C7F"/>
<path d="M109.887 93.4539C109.887 92.7231 110.431 92.175 111.156 92.175C111.881 92.175 112.425 92.7231 112.425 93.4539C112.425 94.1847 111.881 94.7328 111.156 94.7328C110.491 94.7937 109.887 94.1847 109.887 93.4539Z" fill="#163C7F"/>
<path d="M105.175 93.4539C105.175 92.7231 105.719 92.175 106.444 92.175C107.169 92.175 107.713 92.7231 107.713 93.4539C107.713 94.1847 107.169 94.7328 106.444 94.7328C105.719 94.7937 105.175 94.1847 105.175 93.4539Z" fill="#163C7F"/>
<path d="M100.463 93.4539C100.463 92.7231 101.007 92.175 101.732 92.175C102.457 92.175 103.001 92.7231 103.001 93.4539C103.001 94.1847 102.457 94.7328 101.732 94.7328C101.007 94.7937 100.463 94.1847 100.463 93.4539Z" fill="#163C7F"/>
<path d="M95.6908 93.4539C95.6908 92.7231 96.2345 92.175 96.9594 92.175C97.6844 92.175 98.2281 92.7231 98.2281 93.4539C98.2281 94.1847 97.6844 94.7328 96.9594 94.7328C96.2949 94.7937 95.6908 94.1847 95.6908 93.4539Z" fill="#163C7F"/>
<path d="M90.9788 93.4539C90.9788 92.7231 91.5224 92.175 92.2474 92.175C92.9723 92.175 93.516 92.7231 93.516 93.4539C93.516 94.1847 92.9723 94.7328 92.2474 94.7328C91.5829 94.7937 90.9788 94.1847 90.9788 93.4539Z" fill="#163C7F"/>
<path d="M86.2668 93.4539C86.2668 92.7231 86.8105 92.175 87.5355 92.175C88.2604 92.175 88.8041 92.7231 88.8041 93.4539C88.8041 94.1847 88.2604 94.7328 87.5355 94.7328C86.8105 94.7937 86.2668 94.1847 86.2668 93.4539Z" fill="#163C7F"/>
<path d="M81.4941 93.4539C81.4941 92.7231 82.0378 92.175 82.7628 92.175C83.4877 92.175 84.0314 92.7231 84.0314 93.4539C84.0314 94.1847 83.4877 94.7328 82.7628 94.7328C82.0983 94.7937 81.4941 94.1847 81.4941 93.4539Z" fill="#163C7F"/>
<path d="M76.7822 93.4539C76.7822 92.7231 77.3259 92.175 78.0508 92.175C78.7758 92.175 79.3195 92.7231 79.3195 93.4539C79.3195 94.1847 78.7758 94.7328 78.0508 94.7328C77.3863 94.7937 76.7822 94.1847 76.7822 93.4539Z" fill="#163C7F"/>
<path d="M124.084 97.9605C124.084 97.2297 124.628 96.6816 125.352 96.6816C126.077 96.6816 126.621 97.2297 126.621 97.9605C126.621 98.6913 126.077 99.2394 125.352 99.2394C124.688 99.2394 124.084 98.6913 124.084 97.9605Z" fill="#163C7F"/>
<path d="M119.372 97.9605C119.372 97.2297 119.916 96.6816 120.64 96.6816C121.365 96.6816 121.909 97.2297 121.909 97.9605C121.909 98.6913 121.365 99.2394 120.64 99.2394C119.916 99.2394 119.372 98.6913 119.372 97.9605Z" fill="#163C7F"/>
<path d="M114.66 97.9605C114.66 97.2297 115.203 96.6816 115.928 96.6816C116.653 96.6816 117.197 97.2297 117.197 97.9605C117.197 98.6913 116.653 99.2394 115.928 99.2394C115.203 99.2394 114.66 98.6913 114.66 97.9605Z" fill="#163C7F"/>
<path d="M109.887 97.9605C109.887 97.2297 110.431 96.6816 111.156 96.6816C111.881 96.6816 112.425 97.2297 112.425 97.9605C112.425 98.6913 111.881 99.2394 111.156 99.2394C110.491 99.2394 109.887 98.6913 109.887 97.9605Z" fill="#163C7F"/>
<path d="M105.175 97.9605C105.175 97.2297 105.719 96.6816 106.444 96.6816C107.169 96.6816 107.713 97.2297 107.713 97.9605C107.713 98.6913 107.169 99.2394 106.444 99.2394C105.719 99.2394 105.175 98.6913 105.175 97.9605Z" fill="#163C7F"/>
<path d="M100.463 97.9605C100.463 97.2297 101.007 96.6816 101.732 96.6816C102.457 96.6816 103.001 97.2297 103.001 97.9605C103.001 98.6913 102.457 99.2394 101.732 99.2394C101.007 99.2394 100.463 98.6913 100.463 97.9605Z" fill="#163C7F"/>
<path d="M95.6908 97.9605C95.6908 97.2297 96.2345 96.6816 96.9594 96.6816C97.6844 96.6816 98.2281 97.2297 98.2281 97.9605C98.2281 98.6913 97.6844 99.2394 96.9594 99.2394C96.2949 99.2394 95.6908 98.6913 95.6908 97.9605Z" fill="#163C7F"/>
<path d="M90.9788 97.9605C90.9788 97.2297 91.5224 96.6816 92.2474 96.6816C92.9723 96.6816 93.516 97.2297 93.516 97.9605C93.516 98.6913 92.9723 99.2394 92.2474 99.2394C91.5829 99.2394 90.9788 98.6913 90.9788 97.9605Z" fill="#163C7F"/>
<path d="M86.2668 97.9605C86.2668 97.2297 86.8105 96.6816 87.5355 96.6816C88.2604 96.6816 88.8041 97.2297 88.8041 97.9605C88.8041 98.6913 88.2604 99.2394 87.5355 99.2394C86.8105 99.2394 86.2668 98.6913 86.2668 97.9605Z" fill="#163C7F"/>
<path d="M81.4941 97.9605C81.4941 97.2297 82.0378 96.6816 82.7628 96.6816C83.4877 96.6816 84.0314 97.2297 84.0314 97.9605C84.0314 98.6913 83.4877 99.2394 82.7628 99.2394C82.0983 99.2394 81.4941 98.6913 81.4941 97.9605Z" fill="#163C7F"/>
<path d="M76.7822 97.9605C76.7822 97.2297 77.3259 96.6816 78.0508 96.6816C78.7758 96.6816 79.3195 97.2297 79.3195 97.9605C79.3195 98.6913 78.7758 99.2394 78.0508 99.2394C77.3863 99.2394 76.7822 98.6913 76.7822 97.9605Z" fill="#163C7F"/>
<path d="M119.372 102.467C119.372 101.736 119.916 101.188 120.64 101.188C121.365 101.188 121.909 101.736 121.909 102.467C121.909 103.198 121.365 103.746 120.64 103.746C119.916 103.746 119.372 103.198 119.372 102.467Z" fill="#163C7F"/>
<path d="M114.66 102.467C114.66 101.736 115.203 101.188 115.928 101.188C116.653 101.188 117.197 101.736 117.197 102.467C117.197 103.198 116.653 103.746 115.928 103.746C115.203 103.746 114.66 103.198 114.66 102.467Z" fill="#163C7F"/>
<path d="M109.887 102.467C109.887 101.736 110.431 101.188 111.156 101.188C111.881 101.188 112.425 101.736 112.425 102.467C112.425 103.198 111.881 103.746 111.156 103.746C110.491 103.746 109.887 103.198 109.887 102.467Z" fill="#163C7F"/>
<path d="M105.175 102.467C105.175 101.736 105.719 101.188 106.444 101.188C107.169 101.188 107.713 101.736 107.713 102.467C107.713 103.198 107.169 103.746 106.444 103.746C105.719 103.746 105.175 103.198 105.175 102.467Z" fill="#163C7F"/>
<path d="M100.463 102.467C100.463 101.736 101.007 101.188 101.732 101.188C102.457 101.188 103.001 101.736 103.001 102.467C103.001 103.198 102.457 103.746 101.732 103.746C101.007 103.746 100.463 103.198 100.463 102.467Z" fill="#163C7F"/>
<path d="M95.6908 102.467C95.6908 101.736 96.2345 101.188 96.9594 101.188C97.6844 101.188 98.2281 101.736 98.2281 102.467C98.2281 103.198 97.6844 103.746 96.9594 103.746C96.2949 103.746 95.6908 103.198 95.6908 102.467Z" fill="#163C7F"/>
<path d="M90.9788 102.467C90.9788 101.736 91.5224 101.188 92.2474 101.188C92.9723 101.188 93.516 101.736 93.516 102.467C93.516 103.198 92.9723 103.746 92.2474 103.746C91.5829 103.746 90.9788 103.198 90.9788 102.467Z" fill="#163C7F"/>
<path d="M86.2668 102.467C86.2668 101.736 86.8105 101.188 87.5355 101.188C88.2604 101.188 88.8041 101.736 88.8041 102.467C88.8041 103.198 88.2604 103.746 87.5355 103.746C86.8105 103.746 86.2668 103.198 86.2668 102.467Z" fill="#163C7F"/>
<path d="M81.4941 102.467C81.4941 101.736 82.0378 101.188 82.7628 101.188C83.4877 101.188 84.0314 101.736 84.0314 102.467C84.0314 103.198 83.4877 103.746 82.7628 103.746C82.0983 103.746 81.4941 103.198 81.4941 102.467Z" fill="#163C7F"/>
<path d="M76.7822 102.467C76.7822 101.736 77.3259 101.188 78.0508 101.188C78.7758 101.188 79.3195 101.736 79.3195 102.467C79.3195 103.198 78.7758 103.746 78.0508 103.746C77.3863 103.746 76.7822 103.198 76.7822 102.467Z" fill="#163C7F"/>
<path d="M124.084 106.974C124.084 106.243 124.628 105.695 125.352 105.695C126.077 105.695 126.621 106.243 126.621 106.974C126.621 107.704 126.077 108.253 125.352 108.253C124.688 108.253 124.084 107.704 124.084 106.974Z" fill="#163C7F"/>
<path d="M119.372 106.974C119.372 106.243 119.916 105.695 120.64 105.695C121.365 105.695 121.909 106.243 121.909 106.974C121.909 107.704 121.365 108.253 120.64 108.253C119.916 108.253 119.372 107.704 119.372 106.974Z" fill="#163C7F"/>
<path d="M114.66 106.974C114.66 106.243 115.203 105.695 115.928 105.695C116.653 105.695 117.197 106.243 117.197 106.974C117.197 107.704 116.653 108.253 115.928 108.253C115.203 108.253 114.66 107.704 114.66 106.974Z" fill="#163C7F"/>
<path d="M109.887 106.974C109.887 106.243 110.431 105.695 111.156 105.695C111.881 105.695 112.425 106.243 112.425 106.974C112.425 107.704 111.881 108.253 111.156 108.253C110.491 108.253 109.887 107.704 109.887 106.974Z" fill="#163C7F"/>
<path d="M105.175 106.974C105.175 106.243 105.719 105.695 106.444 105.695C107.169 105.695 107.713 106.243 107.713 106.974C107.713 107.704 107.169 108.253 106.444 108.253C105.719 108.253 105.175 107.704 105.175 106.974Z" fill="#163C7F"/>
<path d="M100.463 106.974C100.463 106.243 101.007 105.695 101.732 105.695C102.457 105.695 103.001 106.243 103.001 106.974C103.001 107.704 102.457 108.253 101.732 108.253C101.007 108.253 100.463 107.704 100.463 106.974Z" fill="#163C7F"/>
<path d="M95.6908 106.974C95.6908 106.243 96.2345 105.695 96.9594 105.695C97.6844 105.695 98.2281 106.243 98.2281 106.974C98.2281 107.704 97.6844 108.253 96.9594 108.253C96.2949 108.253 95.6908 107.704 95.6908 106.974Z" fill="#163C7F"/>
<path d="M90.9788 106.974C90.9788 106.243 91.5224 105.695 92.2474 105.695C92.9723 105.695 93.516 106.243 93.516 106.974C93.516 107.704 92.9723 108.253 92.2474 108.253C91.5829 108.253 90.9788 107.704 90.9788 106.974Z" fill="#163C7F"/>
<path d="M81.4941 106.974C81.4941 106.243 82.0378 105.695 82.7628 105.695C83.4877 105.695 84.0314 106.243 84.0314 106.974C84.0314 107.704 83.4877 108.253 82.7628 108.253C82.0983 108.253 81.4941 107.704 81.4941 106.974Z" fill="#163C7F"/>
<path d="M124.084 111.48C124.084 110.749 124.628 110.201 125.352 110.201C126.077 110.201 126.621 110.749 126.621 111.48C126.621 112.211 126.077 112.759 125.352 112.759C124.688 112.759 124.084 112.15 124.084 111.48Z" fill="#163C7F"/>
<path d="M114.66 111.48C114.66 110.749 115.203 110.201 115.928 110.201C116.653 110.201 117.197 110.749 117.197 111.48C117.197 112.211 116.653 112.759 115.928 112.759C115.203 112.759 114.66 112.15 114.66 111.48Z" fill="#163C7F"/>
<path d="M109.887 111.48C109.887 110.749 110.431 110.201 111.156 110.201C111.881 110.201 112.425 110.749 112.425 111.48C112.425 112.211 111.881 112.759 111.156 112.759C110.491 112.759 109.887 112.15 109.887 111.48Z" fill="#163C7F"/>
<path d="M105.175 111.48C105.175 110.749 105.719 110.201 106.444 110.201C107.169 110.201 107.713 110.749 107.713 111.48C107.713 112.211 107.169 112.759 106.444 112.759C105.719 112.759 105.175 112.15 105.175 111.48Z" fill="#163C7F"/>
<path d="M100.463 111.48C100.463 110.749 101.007 110.201 101.732 110.201C102.457 110.201 103.001 110.749 103.001 111.48C103.001 112.211 102.457 112.759 101.732 112.759C101.007 112.759 100.463 112.15 100.463 111.48Z" fill="#163C7F"/>
<path d="M95.6908 111.48C95.6908 110.749 96.2345 110.201 96.9594 110.201C97.6844 110.201 98.2281 110.749 98.2281 111.48C98.2281 112.211 97.6844 112.759 96.9594 112.759C96.2949 112.759 95.6908 112.15 95.6908 111.48Z" fill="#163C7F"/>
<path d="M90.9788 111.48C90.9788 110.749 91.5224 110.201 92.2474 110.201C92.9723 110.201 93.516 110.749 93.516 111.48C93.516 112.211 92.9723 112.759 92.2474 112.759C91.5829 112.759 90.9788 112.15 90.9788 111.48Z" fill="#163C7F"/>
<path d="M86.2668 111.48C86.2668 110.749 86.8105 110.201 87.5355 110.201C88.2604 110.201 88.8041 110.749 88.8041 111.48C88.8041 112.211 88.2604 112.759 87.5355 112.759C86.8105 112.759 86.2668 112.15 86.2668 111.48Z" fill="#163C7F"/>
<path d="M81.4941 111.48C81.4941 110.749 82.0378 110.201 82.7628 110.201C83.4877 110.201 84.0314 110.749 84.0314 111.48C84.0314 112.211 83.4877 112.759 82.7628 112.759C82.0983 112.759 81.4941 112.15 81.4941 111.48Z" fill="#163C7F"/>
<path d="M124.084 115.987C124.084 115.256 124.628 114.708 125.352 114.708C126.077 114.708 126.621 115.256 126.621 115.987C126.621 116.717 126.077 117.266 125.352 117.266C124.688 117.266 124.084 116.657 124.084 115.987Z" fill="#163C7F"/>
<path d="M119.372 115.987C119.372 115.256 119.916 114.708 120.64 114.708C121.365 114.708 121.909 115.256 121.909 115.987C121.909 116.717 121.365 117.266 120.64 117.266C119.916 117.266 119.372 116.657 119.372 115.987Z" fill="#163C7F"/>
<path d="M109.887 115.987C109.887 115.256 110.431 114.708 111.156 114.708C111.881 114.708 112.425 115.256 112.425 115.987C112.425 116.717 111.881 117.266 111.156 117.266C110.491 117.266 109.887 116.657 109.887 115.987Z" fill="#163C7F"/>
<path d="M105.175 115.987C105.175 115.256 105.719 114.708 106.444 114.708C107.169 114.708 107.713 115.256 107.713 115.987C107.713 116.717 107.169 117.266 106.444 117.266C105.719 117.266 105.175 116.657 105.175 115.987Z" fill="#163C7F"/>
<path d="M95.6908 115.987C95.6908 115.256 96.2345 114.708 96.9594 114.708C97.6844 114.708 98.2281 115.256 98.2281 115.987C98.2281 116.717 97.6844 117.266 96.9594 117.266C96.2949 117.266 95.6908 116.657 95.6908 115.987Z" fill="#163C7F"/>
<path d="M90.9788 115.987C90.9788 115.256 91.5224 114.708 92.2474 114.708C92.9723 114.708 93.516 115.256 93.516 115.987C93.516 116.717 92.9723 117.266 92.2474 117.266C91.5829 117.266 90.9788 116.657 90.9788 115.987Z" fill="#163C7F"/>
<path d="M86.2668 115.987C86.2668 115.256 86.8105 114.708 87.5355 114.708C88.2604 114.708 88.8041 115.256 88.8041 115.987C88.8041 116.717 88.2604 117.266 87.5355 117.266C86.8105 117.266 86.2668 116.657 86.2668 115.987Z" fill="#163C7F"/>
<path d="M76.7822 115.987C76.7822 115.256 77.3259 114.708 78.0508 114.708C78.7758 114.708 79.3195 115.256 79.3195 115.987C79.3195 116.717 78.7758 117.266 78.0508 117.266C77.3863 117.266 76.7822 116.657 76.7822 115.987Z" fill="#163C7F"/>
<path d="M119.372 120.432C119.372 119.701 119.916 119.153 120.64 119.153C121.365 119.153 121.909 119.701 121.909 120.432C121.909 121.163 121.365 121.711 120.64 121.711C119.916 121.711 119.372 121.163 119.372 120.432Z" fill="#163C7F"/>
<path d="M109.887 120.432C109.887 119.701 110.431 119.153 111.156 119.153C111.881 119.153 112.425 119.701 112.425 120.432C112.425 121.163 111.881 121.711 111.156 121.711C110.491 121.711 109.887 121.163 109.887 120.432Z" fill="#163C7F"/>
<path d="M90.9788 120.432C90.9788 119.701 91.5224 119.153 92.2474 119.153C92.9723 119.153 93.516 119.701 93.516 120.432C93.516 121.163 92.9723 121.711 92.2474 121.711C91.5829 121.711 90.9788 121.163 90.9788 120.432Z" fill="#163C7F"/>
<path d="M76.7822 120.432C76.7822 119.701 77.3259 119.153 78.0508 119.153C78.7758 119.153 79.3195 119.701 79.3195 120.432C79.3195 121.163 78.7758 121.711 78.0508 121.711C77.3863 121.711 76.7822 121.163 76.7822 120.432Z" fill="#163C7F"/>
<path d="M12.9883 102.954C12.2634 102.954 11.5384 102.589 11.176 101.919C10.5718 100.884 10.9343 99.6049 11.9613 98.9959C12.4446 98.6914 23.7414 92.1752 34.1321 97.4734C39.5086 100.214 57.3298 97.4125 68.9287 90.6527C74.6677 87.3642 77.9299 83.5885 78.1111 80.0563C79.0777 64.1009 97.9259 40.7157 113.451 40.9593C120.822 41.0202 126.017 40.8984 129.702 40.4112C135.139 39.7413 135.683 38.5843 135.743 38.5843C135.622 37.4272 136.468 36.3919 137.676 36.2701C138.824 36.1483 139.851 37.0009 139.972 38.2189C140.093 39.4369 139.67 40.6548 138.824 41.5683C136.226 44.4306 129.339 45.4049 113.451 45.2222C113.391 45.2222 113.331 45.2222 113.331 45.2222C100.221 45.2222 83.246 66.7195 82.4003 80.3608C82.0982 85.4154 78.1715 90.2873 71.1035 94.3676C58.7193 101.493 39.5086 104.964 32.3197 101.249C23.983 96.9862 14.3173 102.589 14.1965 102.65C13.7132 102.832 13.3507 102.954 12.9883 102.954Z" fill="#ED0373"/>
<path d="M139.851 37.9753C139.428 37.549 138.824 37.3054 138.159 37.3663C137.012 37.4881 136.166 38.5234 136.226 39.6804C136.226 39.6804 135.622 40.8375 130.185 41.5074C126.5 41.9946 121.305 42.1773 113.935 42.0555C98.3487 41.8119 79.5609 65.197 78.5944 81.1525C78.3527 84.6846 75.0905 88.4604 69.4119 91.7489C57.8131 98.4478 39.9919 101.249 34.6153 98.5696C24.2247 93.2714 12.9278 99.7875 12.4446 100.092C11.6592 100.518 11.2967 101.371 11.4176 102.223C11.2967 102.102 11.1759 101.98 11.0551 101.797C10.451 100.762 10.8135 99.483 11.8404 98.8741C12.3237 98.5696 23.6205 92.0534 34.0112 97.3516C39.3878 100.092 57.2089 97.2298 68.8078 90.5309C74.5468 87.2424 77.809 83.4667 77.9903 79.9345C78.9568 63.979 97.805 40.5939 113.331 40.8375C120.701 40.8984 125.896 40.7766 129.581 40.2894C135.018 39.6195 135.562 38.4625 135.622 38.4625C135.501 37.3054 136.347 36.2701 137.555 36.1483C138.703 36.0874 139.73 36.8791 139.851 37.9753Z" fill="#FFB8E1"/>
<path d="M12.9883 102.954C12.2634 102.954 11.5384 102.589 11.176 101.919C10.5718 100.884 10.9343 99.6049 11.9613 98.9959C12.4446 98.6914 23.7414 92.1752 34.1321 97.4734C39.5086 100.214 57.3298 97.4125 68.9287 90.6527C74.6677 87.3642 77.9299 83.5885 78.1111 80.0563C79.0777 64.1009 97.9259 40.7157 113.451 40.9593C120.822 41.0202 126.017 40.8984 129.702 40.4112C135.139 39.7413 135.683 38.5843 135.743 38.5843C135.622 37.4272 136.468 36.3919 137.676 36.2701C138.824 36.1483 139.851 37.0009 139.972 38.2189C140.093 39.4369 139.67 40.6548 138.824 41.5683C136.226 44.4306 129.339 45.4049 113.451 45.2222C113.391 45.2222 113.331 45.2222 113.331 45.2222C100.221 45.2222 83.246 66.7195 82.4003 80.3608C82.0982 85.4154 78.1715 90.2873 71.1035 94.3676C58.7193 101.493 39.5086 104.964 32.3197 101.249C23.983 96.9862 14.3173 102.589 14.1965 102.65C13.7132 102.832 13.3507 102.954 12.9883 102.954Z" stroke="#000C23" stroke-miterlimit="10"/>
<path d="M132.904 100.092C132.843 100.092 132.783 100.092 132.783 100.092C127.225 100.031 124.023 95.951 120.338 91.2618C118.043 88.2778 115.385 84.9284 111.639 81.7616C106.988 77.8032 84.394 81.5789 66.2707 84.6239C48.7516 87.547 33.6489 90.1048 27.789 87.7906C14.8007 82.7969 17.7609 65.867 18.9691 58.6201L19.1503 57.6457C19.8148 53.8091 12.1427 49.7898 8.33677 48.3891C7.24938 48.0237 6.64527 46.8057 7.06815 45.6487C7.43061 44.5525 8.63883 43.9435 9.78663 44.3698C11.2969 44.9179 24.7685 49.9725 23.3791 58.3765L23.1978 59.4118C21.3251 70.13 20.7814 80.5436 29.3597 83.8322C34.1926 85.72 50.2015 83.0405 65.6666 80.4218C91.4016 76.098 108.74 73.6621 114.418 78.4731C118.466 81.9443 121.245 85.4764 123.721 88.6432C127.406 93.3933 129.521 95.8292 132.843 95.8901C132.904 95.8901 132.904 95.8901 132.964 95.8901C138.703 95.8901 139.972 92.9061 140.032 92.7234C140.455 91.6272 141.663 91.0791 142.751 91.5054C143.838 91.9317 144.382 93.1497 144.019 94.2459C143.899 94.4286 141.724 100.092 132.904 100.092Z" fill="#ED0373"/>
<path d="M144.08 93.2715C143.838 92.967 143.536 92.7843 143.174 92.6016C142.086 92.1753 140.818 92.7234 140.455 93.8804C140.395 94.0022 139.066 96.9863 133.266 96.9863H133.145C129.762 96.9863 127.648 94.4894 123.902 89.7393C121.426 86.6335 118.647 83.0405 114.539 79.6301C108.739 74.7582 91.2202 77.2551 65.1832 81.518C49.5368 84.1366 33.3467 86.8162 28.4534 84.9283C19.8147 81.6398 20.3584 71.2261 22.2311 60.5079L22.4123 59.4726C23.8622 51.0686 10.2094 46.014 8.6991 45.4659C8.1554 45.2832 7.6117 45.2832 7.12842 45.5268C7.55129 44.4915 8.6991 43.9435 9.78649 44.3088C11.2968 44.8569 24.7684 49.9115 23.3789 58.3156L23.1977 59.3508C21.325 70.069 20.7813 80.4827 29.3596 83.8322C34.1925 85.72 50.2013 82.9796 65.6665 80.4218C91.4015 76.098 108.739 73.6621 114.418 78.534C118.465 82.0052 121.244 85.5373 123.721 88.6432C127.406 93.3933 129.46 95.8292 132.843 95.8901H132.964C138.703 95.8901 140.032 92.9061 140.032 92.7234C140.455 91.6272 141.663 91.0791 142.751 91.4445C143.476 91.749 144.019 92.4798 144.08 93.2715Z" fill="#FFB8E1"/>
<path d="M132.904 99.9093C132.843 99.9093 132.783 99.9093 132.783 99.9093C127.225 99.8484 124.023 95.7682 120.338 91.079C118.043 88.0949 115.385 84.7455 111.639 81.5788C106.988 77.6204 84.394 81.3961 66.2707 84.441C48.7516 87.3642 33.6489 89.9219 27.789 87.6077C14.8007 82.6141 17.7609 65.6842 18.9691 58.4372L19.1503 57.4629C19.8148 53.6262 12.1427 49.6069 8.33677 48.2062C7.24938 47.8409 6.64527 46.6229 7.06815 45.4658C7.43061 44.3696 8.63883 43.7606 9.78663 44.1869C11.2969 44.735 24.7685 49.7896 23.3791 58.1936L23.1978 59.2289C21.3251 69.9471 20.7814 80.3608 29.3597 83.6493C34.1926 85.5372 50.2014 82.8576 65.6666 80.239C91.4016 75.9152 108.74 73.4792 114.418 78.2902C118.466 81.7615 121.245 85.2936 123.721 88.4603C127.406 93.2104 129.521 95.6464 132.843 95.7073C132.904 95.7073 132.904 95.7073 132.964 95.7073C138.703 95.7073 139.972 92.7233 140.032 92.5406C140.455 91.4444 141.663 90.8963 142.751 91.3226C143.838 91.7489 144.382 92.9668 144.019 94.063C143.899 94.3066 141.724 99.9093 132.904 99.9093Z" stroke="#000C23" stroke-miterlimit="10"/>
<path d="M148.973 59.3507C148.671 60.6905 147.342 61.4822 146.073 61.1168C144.986 60.8732 144.261 59.8988 144.261 58.8635C144.261 58.9853 144.201 59.168 144.201 59.2898C143.898 60.5687 144.684 61.9085 145.952 62.213C147.221 62.5174 148.55 61.7258 148.852 60.4469C148.973 59.8988 149.033 59.4116 149.094 58.8635C149.094 59.0462 149.033 59.2289 148.973 59.3507Z" fill="#FFFBD9"/>
<path d="M18.969 72.5659C17.8212 72.5659 16.613 72.3832 15.5256 72.0787C7.73257 69.8864 3.50381 61.1169 1.87272 57.7675C1.7519 57.5239 1.63108 57.2803 1.57067 57.0976C0.966557 56.3059 0.906146 55.2098 1.44984 54.3572C2.17477 53.2001 3.68504 52.8956 4.77244 53.6264C5.43696 54.0527 5.6786 54.5399 6.2223 55.6361C7.43051 58.1329 11.1156 65.8062 16.7942 67.3895C19.5127 68.1203 22.352 67.5113 25.4933 65.3799C41.5626 54.7835 66.2706 45.6487 82.944 54.7226C97.9259 62.883 122.694 62.7003 127.89 54.3572C132.058 47.7192 138.28 47.3538 142.328 49.1199C147.1 51.1904 149.758 56.0624 148.611 60.6907C148.309 61.9695 146.979 62.8221 145.711 62.4567C144.442 62.1522 143.596 60.8125 143.959 59.5336C144.623 56.9149 142.69 54.5399 140.455 53.6264C139.247 53.1392 135.199 51.8603 131.998 56.9758C124.809 68.4857 97.0197 67.8767 80.6484 59.0464C66.8143 51.4949 44.2811 58.8637 28.091 69.521C25.0705 71.5306 21.9895 72.5659 18.969 72.5659Z" fill="#FCEB2C"/>
<path d="M142.388 49.1197C138.341 47.4146 132.118 47.7191 127.95 54.357C122.755 62.6393 97.9862 62.8828 83.0043 54.7224C66.3309 45.6485 41.6229 54.7833 25.5536 65.3797C22.3519 67.4503 19.5126 68.1201 16.8545 67.3894C11.1759 65.806 7.4908 58.1327 6.28259 55.6359C5.73889 54.5397 5.49725 53.9916 4.83273 53.6262C3.68492 52.8955 2.23507 53.2608 1.51014 54.4179C1.20808 54.9051 1.08726 55.4532 1.14767 56.0013C1.14767 55.7577 1.20808 55.6359 1.3289 55.5141C2.05383 54.357 3.5641 54.0525 4.6515 54.7833C5.31602 55.2096 5.55766 55.6968 6.10136 56.793C7.30957 59.2898 10.9946 66.9631 16.6732 68.5464C19.3313 69.2772 22.231 68.6682 25.3724 66.5368C41.4417 55.9404 66.1497 46.8056 82.8231 55.8795C97.8049 64.0399 122.573 63.8572 127.769 55.5141C131.937 48.8761 138.159 48.5107 142.207 50.2768C146.436 52.1038 149.033 56.1231 148.731 60.2642C149.637 55.7577 147.04 51.0685 142.388 49.1197ZM143.959 59.6552C143.898 59.8379 143.898 60.0206 143.898 60.2033C143.959 60.0206 143.959 59.8379 143.959 59.6552Z" fill="#FFFBD9"/>
<path d="M18.969 72.5659C17.8212 72.5659 16.613 72.3832 15.5256 72.0787C7.73257 69.8864 3.50381 61.1169 1.87272 57.7675C1.7519 57.5239 1.63108 57.2803 1.57067 57.0976C0.966557 56.3059 0.906146 55.2098 1.44984 54.3572C2.17477 53.2001 3.68504 52.8956 4.77244 53.6264C5.43696 54.0527 5.6786 54.5399 6.2223 55.6361C7.43051 58.1329 11.1156 65.8062 16.7942 67.3895C19.5127 68.1203 22.352 67.5113 25.4933 65.3799C41.5626 54.7835 66.2706 45.6487 82.944 54.7226C97.9259 62.883 122.694 62.7003 127.89 54.3572C132.058 47.7192 138.28 47.3538 142.328 49.1199C147.1 51.1904 149.758 56.0624 148.611 60.6907C148.309 61.9695 146.979 62.8221 145.711 62.4567C144.442 62.1522 143.596 60.8125 143.959 59.5336C144.623 56.9149 142.69 54.5399 140.455 53.6264C139.247 53.1392 135.199 51.8603 131.998 56.9758C124.809 68.4857 97.0197 67.8767 80.6484 59.0464C66.8143 51.4949 44.2811 58.8637 28.091 69.521C25.0705 71.5306 21.9895 72.5659 18.969 72.5659Z" stroke="#000C23" stroke-miterlimit="10"/>
<path d="M75.5134 98.6303C56.5444 98.6303 41.1396 83.1011 41.1396 63.9789C41.1396 44.8567 56.5444 29.2666 75.5134 29.2666C94.4824 29.2666 109.887 44.7958 109.887 63.918C109.887 83.0402 94.5428 98.6303 75.5134 98.6303Z" fill="#010010"/>
<path d="M83.85 104.477H66.5121C58.2963 104.477 51.5303 97.7169 51.5303 89.3738V66.354C51.5303 52.1037 63.1291 40.4111 77.3257 40.4111C91.5222 40.4111 103.121 52.1037 103.121 66.4149V85.1108C103.061 95.7681 94.4219 104.477 83.85 104.477Z" fill="#025DBF"/>
<path d="M83.85 104.477H66.5121C58.2963 104.477 51.5303 97.7169 51.5303 89.3738V66.354C51.5303 52.1037 63.1291 40.4111 77.3257 40.4111C91.5222 40.4111 103.121 52.1037 103.121 66.4149V85.1108C103.061 95.7681 94.4219 104.477 83.85 104.477Z" stroke="#000C23" stroke-miterlimit="10"/>
<path d="M51.4097 66.7804V85.4763C51.4097 89.0085 52.3762 92.3579 54.0073 95.2201C53.8865 94.3675 53.8261 93.4541 53.8261 92.5406V70.1907C53.8261 55.8795 65.425 44.1869 79.6215 44.1869H82.5816C86.5083 44.1869 90.1934 45.1004 93.516 46.6838C89.0456 42.969 83.367 40.7766 77.2051 40.7766C70.137 40.7766 63.6731 43.6998 59.0214 48.389C54.3094 53.1391 51.4097 59.5943 51.4097 66.7804Z" fill="#00407F"/>
<path d="M68.4454 61.056L70.8618 63.3701L68.0225 66.476L65.304 63.9791L62.6459 66.476L59.8066 63.3701L62.2231 61.056L59.8066 58.8027L62.6459 55.636L65.304 58.1328L68.0225 55.636L70.8618 58.8027L68.4454 61.056Z" fill="#010010"/>
<path d="M92.0057 61.056L94.4221 63.3701L91.5828 66.476L88.8643 63.9791L86.2063 66.476L83.3669 63.3701L85.7834 61.056L83.3669 58.8027L86.2063 55.636L88.8643 58.1328L91.5828 55.636L94.4221 58.8027L92.0057 61.056Z" fill="#010010"/>
<path d="M81.2525 73.4184H73.3387C73.0367 73.4184 72.7346 73.1139 72.7346 72.8094V71.5914C72.7346 71.226 73.0367 70.9824 73.3387 70.9824H81.2525C81.5546 70.9824 81.8566 71.226 81.8566 71.5914V72.8094C81.8566 73.1139 81.615 73.4184 81.2525 73.4184Z" fill="#010010"/>
<path d="M65.5458 79.082C66.0895 79.082 66.5728 79.5692 66.5728 80.1173C66.5728 80.6654 66.0895 81.1526 65.5458 81.1526C65.0021 81.1526 64.5188 80.6654 64.5188 80.1173C64.5188 79.5083 65.0021 79.082 65.5458 79.082Z" fill="#C5ECFF"/>
<path d="M72.8556 79.082C73.3993 79.082 73.8826 79.5692 73.8826 80.1173C73.8826 80.6654 73.3993 81.1526 72.8556 81.1526C72.3119 81.1526 71.8286 80.6654 71.8286 80.1173C71.8286 79.5083 72.2515 79.082 72.8556 79.082Z" fill="#C5ECFF"/>
<path d="M80.1652 79.082C80.7089 79.082 81.1921 79.5692 81.1921 80.1173C81.1921 80.6654 80.7089 81.1526 80.1652 81.1526C79.6215 81.1526 79.1382 80.6654 79.1382 80.1173C79.1382 79.5083 79.5611 79.082 80.1652 79.082Z" fill="#C5ECFF"/>
<path d="M87.4144 79.082C87.9581 79.082 88.4414 79.5692 88.4414 80.1173C88.4414 80.6654 87.9581 81.1526 87.4144 81.1526C86.8707 81.1526 86.3875 80.6654 86.3875 80.1173C86.3875 79.5083 86.8707 79.082 87.4144 79.082Z" fill="#C5ECFF"/>
<path d="M61.9816 84.7456C62.5253 84.7456 63.0086 85.2328 63.0086 85.7809C63.0086 86.329 62.5253 86.8162 61.9816 86.8162C61.4379 86.8162 60.9546 86.329 60.9546 85.7809C60.9546 85.2328 61.4379 84.7456 61.9816 84.7456Z" fill="#C5ECFF"/>
<path d="M69.2914 84.7456C69.8351 84.7456 70.3184 85.2328 70.3184 85.7809C70.3184 86.329 69.8351 86.8162 69.2914 86.8162C68.7477 86.8162 68.2644 86.329 68.2644 85.7809C68.2644 85.2328 68.7477 84.7456 69.2914 84.7456Z" fill="#C5ECFF"/>
<path d="M76.601 84.7456C77.1447 84.7456 77.628 85.2328 77.628 85.7809C77.628 86.329 77.1447 86.8162 76.601 86.8162C76.0573 86.8162 75.574 86.329 75.574 85.7809C75.574 85.2328 75.9969 84.7456 76.601 84.7456Z" fill="#C5ECFF"/>
<path d="M83.9107 84.7456C84.4544 84.7456 84.9377 85.2328 84.9377 85.7809C84.9377 86.329 84.4544 86.8162 83.9107 86.8162C83.3671 86.8162 82.8838 86.329 82.8838 85.7809C82.8234 85.2328 83.3066 84.7456 83.9107 84.7456Z" fill="#C5ECFF"/>
<path d="M91.16 84.7456C91.7037 84.7456 92.187 85.2328 92.187 85.7809C92.187 86.329 91.7037 86.8162 91.16 86.8162C90.6163 86.8162 90.1331 86.329 90.1331 85.7809C90.1331 85.2328 90.6163 84.7456 91.16 84.7456Z" fill="#C5ECFF"/>
<path d="M65.5458 93.1495C66.113 93.1495 66.5728 92.6859 66.5728 92.1142C66.5728 91.5424 66.113 91.0789 65.5458 91.0789C64.9786 91.0789 64.5188 91.5424 64.5188 92.1142C64.5188 92.6859 64.9786 93.1495 65.5458 93.1495Z" fill="#C5ECFF"/>
<path d="M72.8556 93.1495C73.4228 93.1495 73.8826 92.6859 73.8826 92.1142C73.8826 91.5424 73.4228 91.0789 72.8556 91.0789C72.2884 91.0789 71.8286 91.5424 71.8286 92.1142C71.8286 92.6859 72.2884 93.1495 72.8556 93.1495Z" fill="#C5ECFF"/>
<path d="M80.1652 93.1495C80.7324 93.1495 81.1921 92.6859 81.1921 92.1142C81.1921 91.5424 80.7324 91.0789 80.1652 91.0789C79.598 91.0789 79.1382 91.5424 79.1382 92.1142C79.1382 92.6859 79.598 93.1495 80.1652 93.1495Z" fill="#C5ECFF"/>
<path d="M87.4144 91.0789C87.9581 91.0789 88.4414 91.5661 88.4414 92.1142C88.4414 92.6622 87.9581 93.1495 87.4144 93.1495C86.8707 93.1495 86.3875 92.6622 86.3875 92.1142C86.3875 91.5661 86.8707 91.0789 87.4144 91.0789Z" fill="#C5ECFF"/>
<path d="M111.941 141.808C106.263 144.487 99.4965 141.99 96.8989 136.266L83.1252 106.608C82.0378 104.294 83.0648 101.554 85.3604 100.457L97.5634 94.672C99.859 93.5758 102.578 94.6111 103.665 96.9252L117.439 126.583C120.097 132.307 117.62 139.128 111.941 141.808Z" fill="#025DBF"/>
<path d="M111.941 141.808C106.263 144.487 99.4965 141.99 96.8989 136.266L83.1252 106.608C82.0378 104.294 83.0648 101.554 85.3604 100.457L97.5634 94.672C99.859 93.5758 102.578 94.6111 103.665 96.9252L117.439 126.583C120.097 132.307 117.62 139.128 111.941 141.808Z" stroke="#000C23" stroke-miterlimit="10"/>
<path d="M84.0315 107.887L97.3823 136.631C97.3823 136.631 99.9799 142.417 107.048 142.6C107.048 142.6 102.215 141.26 99.6779 136.51C97.1406 131.76 89.408 112.881 89.408 112.881C89.408 112.881 96.8386 109.288 101.188 105.756C105.538 102.224 105.296 101.127 105.296 101.127L104.148 98.7524L84.0315 107.887Z" fill="#00407F"/>
<path d="M75.5134 110.14C50.2013 110.14 29.6616 89.4345 29.6616 63.918C29.6616 38.4014 50.2013 17.6958 75.5134 17.6958C87.7768 17.6958 99.3153 22.5068 108.014 31.2762C116.653 39.9848 121.426 51.6164 121.365 63.918C121.365 89.4345 100.826 110.14 75.5134 110.14ZM75.5134 30.2409C57.0881 30.2409 42.1062 45.3438 42.1062 63.918C42.1062 82.4921 57.0881 97.595 75.5134 97.595C93.9387 97.595 108.921 82.4921 108.921 63.918C108.921 45.3438 93.9387 30.2409 75.5134 30.2409Z" fill="#2DC1F3"/>
<path d="M75.5135 18.3049C100.524 18.3049 120.822 38.7669 120.761 63.9181C120.761 89.1302 100.524 109.531 75.5135 109.531C50.5034 109.531 30.2658 89.1302 30.2658 63.9181C30.2658 38.706 50.5034 18.3049 75.5135 18.3049ZM75.5135 98.2041C94.3013 98.2041 109.525 82.8576 109.525 63.9181C109.525 44.9786 94.3013 29.6321 75.5135 29.6321C56.7258 29.6321 41.5022 44.9786 41.5022 63.9181C41.5022 82.8576 56.7258 98.2041 75.5135 98.2041ZM75.5135 17.0869C63.0689 17.0869 51.4096 21.9588 42.65 30.7891C33.8905 39.6195 29.0576 51.3729 29.0576 63.9181C29.0576 76.4632 33.8905 88.2167 42.65 97.047C51.4096 105.877 63.0689 110.749 75.5135 110.749C87.9581 110.749 99.6174 105.877 108.377 97.047C117.137 88.2167 121.969 76.4632 121.969 63.9181C121.969 51.4338 117.197 39.6804 108.437 30.85C99.6174 21.9588 87.9581 17.0869 75.5135 17.0869ZM75.5135 96.9861C57.4507 96.9861 42.7105 82.1268 42.7105 63.9181C42.7105 45.7093 57.4507 30.85 75.5135 30.85C93.5763 30.85 108.317 45.7093 108.317 63.9181C108.317 82.1268 93.5763 96.9861 75.5135 96.9861Z" fill="#000C23"/>
<path d="M75.3926 98.2041C56.484 98.2041 41.1397 82.8576 41.1397 63.9181C41.1397 62.152 41.2605 60.4469 41.5021 58.7417C40.8376 61.3603 40.4148 64.1617 40.4752 66.963C41.0793 85.1718 56.0612 99.9093 74.9697 99.9093C92.1264 99.9093 106.021 88.643 108.558 72.1394C104.933 87.0596 91.4619 98.2041 75.3926 98.2041ZM120.58 63.4309C120.58 38.5842 99.9798 18.1831 75.3322 18.1831C53.1614 18.244 34.7361 34.5649 31.2927 55.9403C35.9444 36.0873 53.9468 20.3146 75.0301 20.3146C99.6777 20.3146 119.976 41.6291 119.976 66.4758C119.976 68.9727 119.795 71.4086 119.372 73.7837C120.157 70.4343 120.58 67.0239 120.58 63.4309Z" fill="#C5ECFF"/>
<path d="M88.6226 123.234C88.683 123.112 107.108 114.16 107.108 114.16L107.652 115.195L89.1663 124.269L88.6226 123.234Z" fill="#021142"/>
<path d="M90.3142 126.522C90.3746 126.4 108.8 117.448 108.8 117.448L109.344 118.484L90.7975 127.497L90.3142 126.522Z" fill="#021142"/>
<path d="M91.8245 129.811C91.8849 129.689 110.31 120.737 110.31 120.737L110.854 121.772L92.3682 130.846L91.8245 129.811Z" fill="#021142"/>
<path d="M114.116 124.269C114.116 124.269 116.774 128.227 116.653 131.455C116.532 134.683 115.143 136.814 113.874 136.936C112.606 136.997 112.243 136.327 113.391 135.231C114.539 134.195 115.445 132.368 115.264 130.054C115.143 127.801 113.27 123.355 114.116 124.269Z" fill="white"/>
<path d="M60.7732 57.402L62.7063 55.3314L65.2436 57.7674L62.7063 54.7224L60.7732 57.402Z" fill="#6FB7F7"/>
<path d="M66.0291 57.402L67.9622 55.3314L70.3786 57.8892L67.9622 54.7224L66.0291 57.402Z" fill="#6FB7F7"/>
<path d="M84.2729 57.402L86.2061 55.3314L88.8038 57.7674L86.2061 54.7224L84.2729 57.402Z" fill="#6FB7F7"/>
<path d="M89.5891 57.402L91.5223 55.3314L93.9387 57.8892L91.5223 54.7224L89.5891 57.402Z" fill="#6FB7F7"/>
<path d="M93.8179 49.2416C93.8179 49.2416 95.9927 49.4243 98.2883 53.3218C100.584 57.2193 100.946 61.5432 101.007 62.1521C101.067 62.7611 99.859 59.5944 99.3153 57.9501C98.7716 56.3668 97.2009 53.8699 95.3886 52.591C93.5763 51.2513 91.8848 48.8762 93.8179 49.2416Z" fill="white"/>
<path d="M101.188 68.3029C100.946 67.9375 100.826 67.1458 100.886 66.5368C101.007 65.7452 100.886 65.5625 100.946 64.8317C101.007 64.1009 101.369 64.4054 101.551 65.1971C101.732 66.0497 102.034 68.1202 101.853 68.242C101.671 68.4247 101.309 68.6074 101.188 68.3029Z" fill="white"/>
</svg>
