<?xml version="1.0" encoding="UTF-8"?><!DOCTYPE svg PUBLIC "-//W3C//DTD SVG 1.1//EN" "http://www.w3.org/Graphics/SVG/1.1/DTD/svg11.dtd"><svg xmlns="http://www.w3.org/2000/svg"><defs>
        <linearGradient id="a" x1="24" x2="24" y2="48" gradientUnits="userSpaceOnUse">
            <stop stop-color="#B73121"/>
            <stop offset="1" stop-color="#B73121"/>
        </linearGradient>
    
        <clipPath id="a">
            <path d="M0 0h48v42.947H0z"/>
        </clipPath>
    </defs><symbol id="add-member" viewBox="0 0 24 24">
    <path fill-rule="evenodd" clip-rule="evenodd" d="M11.073 5.554a3.554 3.554 0 1 1-7.109 0 3.554 3.554 0 0 1 7.109 0zm-9.069 7.379a1 1 0 0 1 .632-1.026l4.518-1.765a1 1 0 0 1 .728 0l4.519 1.765a1 1 0 0 1 .631 1.026l-.774 8.161a1 1 0 0 1-.995.906h-7.49a1 1 0 0 1-.995-.906l-.774-8.161zM17 9a1 1 0 1 1 2 0v2h2a1 1 0 1 1 0 2h-2v2a1 1 0 1 1-2 0v-2h-2a1 1 0 1 1 0-2h2V9z"/>
</symbol><symbol id="anticheat" viewBox="0 0 24 24">
    <path fill-rule="evenodd" clip-rule="evenodd" d="M19.992 12.307c.005-.102.008-.204.008-.307V6l-8-4-8 4v6c0 5.523 8 10 8 10s6.125-3.428 7.656-7.985a6.427 6.427 0 0 0 .336-1.708zM12 19.644a22.993 22.993 0 0 1-2.658-2.056C7.405 15.835 6 13.85 6 12V7.236l6-3v15.408z"/>
</symbol><symbol id="arrow-down-second" viewBox="0 0 24 24">
    <path fill-rule="evenodd" clip-rule="evenodd" d="M4.29 7.776a.991.991 0 0 1 1.402 0L12 14.084l6.308-6.308a.991.991 0 0 1 1.402 1.401l-7.01 7.01a.991.991 0 0 1-1.4 0l-7.01-7.01a.991.991 0 0 1 0-1.401z"/>
</symbol><symbol id="arrow-down" viewBox="0 0 24 24">
    <path fill-rule="evenodd" clip-rule="evenodd" d="M2.269 6.27a.913.913 0 0 1 1.297 0L12 14.769l8.434-8.497a.913.913 0 0 1 1.297 0 .93.93 0 0 1 0 1.307L12.65 16.73a.913.913 0 0 1-1.298 0L2.27 7.58a.93.93 0 0 1 0-1.308z"/>
</symbol><symbol id="arrow-left" viewBox="0 0 24 24">
    <path d="M8.73 12.583l5.358 5.66a.808.808 0 0 0 1.18 0 .852.852 0 0 0 0-1.167L10.464 12l4.804-5.075a.852.852 0 0 0 0-1.168.805.805 0 0 0-1.181.003l-5.354 5.656a.851.851 0 0 0-.004 1.167z"/>
</symbol><symbol id="arrow-link" viewBox="0 0 24 24">
    <path d="M2 12a1 1 0 0 1 1-1h15.924L14.32 6.733a1 1 0 1 1 1.36-1.466l5.665 5.25c.437.405.655.944.655 1.483 0 .54-.218 1.079-.655 1.483l-5.665 5.25a1 1 0 1 1-1.36-1.466L18.924 13H3a1 1 0 0 1-1-1z"/>
</symbol><symbol id="arrow-right" viewBox="0 0 24 24">
    <path d="M15.27 12.583l-5.358 5.66a.808.808 0 0 1-1.18 0 .852.852 0 0 1 0-1.167L13.535 12 8.73 6.925a.852.852 0 0 1 0-1.168.805.805 0 0 1 1.181.003l5.355 5.656c.31.325.31.844.004 1.167z"/>
</symbol><symbol id="arrow-up" viewBox="0 0 24 24">
    <path fill-rule="evenodd" clip-rule="evenodd" d="M2.269 16.73a.912.912 0 0 0 1.297 0L12 8.231l8.434 8.497a.912.912 0 0 0 1.297 0 .93.93 0 0 0 0-1.307L12.65 6.27a.913.913 0 0 0-1.298 0L2.27 15.42a.93.93 0 0 0 0 1.308z"/>
</symbol><symbol id="ban" viewBox="0 0 24 24">
    <path fill-rule="evenodd" clip-rule="evenodd" d="M9 16.625C8.415 15.118 7 13 7 13V3l2-1h8.5a1.5 1.5 0 0 1 0 3h1a1.5 1.5 0 0 1 0 3h1a1.5 1.5 0 0 1 0 3h1a1.5 1.5 0 0 1 0 3H12s.758 1.565 1 2.625c.225.983.185 2.664.115 3.884-.05.849-.761 1.491-1.61 1.491-.854 0-1.569-.647-1.684-1.493-.168-1.229-.448-2.92-.821-3.882zM3 14a1 1 0 0 1-1-1V3a1 1 0 0 1 1-1h3v12H3z"/>
</symbol><symbol id="bell" viewBox="0 0 24 24">
    <path fill-rule="evenodd" clip-rule="evenodd" d="M12 3c-.552 0-1 .398-1 .889v1.185c-3.392.51-6 3.573-6 7.276V16a1 1 0 1 0 0 2h14a1 1 0 1 0 0-2v-.894-2.756c0-3.703-2.608-6.766-6-7.276V3.89C13 3.398 12.552 3 12 3zm3 16a3 3 0 1 1-6 0h6z"/>
</symbol><symbol id="bracket-type" viewBox="0 0 24 24">
    <path fill-rule="evenodd" clip-rule="evenodd" d="M2 5a1 1 0 0 1 1-1h6a1 1 0 0 1 1 1v1h2.5a.5.5 0 0 1 .5.5v5h1V10a1 1 0 0 1 1-1h6a1 1 0 0 1 1 1v4a1 1 0 0 1-1 1h-6a1 1 0 0 1-1-1v-1.5h-1v5a.5.5 0 0 1-.5.5H10v1a1 1 0 0 1-1 1H3a1 1 0 0 1-1-1v-4a1 1 0 0 1 1-1h6a1 1 0 0 1 1 1v2h2V7h-2v2a1 1 0 0 1-1 1H3a1 1 0 0 1-1-1V5z"/>
</symbol><symbol id="burger" viewBox="0 0 24 24">
    <path d="M4 18h16v-2H4v2zm0-5h16v-2H4v2zm0-7v2h16V6H4z"/>
</symbol><symbol id="calendar" viewBox="0 0 24 24">
    <path fill-rule="evenodd" clip-rule="evenodd" d="M6 4a1 1 0 0 1 2 0v1h8V4a1 1 0 1 1 2 0v1h3a1 1 0 0 1 1 1v14a1 1 0 0 1-1 1H3a1 1 0 0 1-1-1V6a1 1 0 0 1 1-1h3V4zM4 8h16v11H4V8zm2 4v-2h2v2H6zm5-2h2v2h-2v-2zm7 2v-2h-2v2h2zM6 17v-2h2v2H6zm7-2h-2v2h2v-2zm3 2v-2h2v2h-2z"/>
</symbol><symbol id="check-outlined" viewBox="0 0 24 24">
    <path fill-rule="evenodd" clip-rule="evenodd" d="M6 3a3 3 0 0 0-3 3v12a3 3 0 0 0 3 3h12a3 3 0 0 0 3-3v-4a1 1 0 1 0-2 0v4a1 1 0 0 1-1 1H6a1 1 0 0 1-1-1V6a1 1 0 0 1 1-1h13a1 1 0 1 0 2 0 2 2 0 0 0-2-2H6zm14.728 6.465a.813.813 0 0 0 0-1.214.984.984 0 0 0-1.314 0l-7.228 6.677-4.6-4.249a.984.984 0 0 0-1.314 0 .813.813 0 0 0 0 1.214l5.257 4.856a.97.97 0 0 0 .657.251.97.97 0 0 0 .657-.251l7.885-7.284z"/>
</symbol><symbol id="check" viewBox="0 0 24 24">
    <path fill-rule="evenodd" clip-rule="evenodd" d="M19.849 7.292a1 1 0 0 1 0 1.415l-8.485 8.485a1 1 0 0 1-1.414 0l-5.657-5.657a1 1 0 1 1 1.414-1.414l4.95 4.95 7.778-7.779a1 1 0 0 1 1.414 0z"/>
</symbol><symbol id="clock" viewBox="0 0 24 24">
    <path fill-rule="evenodd" clip-rule="evenodd" d="M19 12a7 7 0 1 1-14 0 7 7 0 0 1 14 0zm2 0a9 9 0 1 1-18 0 9 9 0 0 1 18 0zM11 8a1 1 0 1 1 2 0v3h3a1 1 0 1 1 0 2h-4a1 1 0 0 1-1-1V8z"/>
</symbol><symbol id="close" viewBox="0 0 24 24">
    <path fill-rule="evenodd" clip-rule="evenodd" d="M3.329 3.293a1 1 0 0 1 1.414 0l7.268 7.268 7.267-7.268a1 1 0 0 1 1.415 0l.035.036a1 1 0 0 1 0 1.414l-7.267 7.268 7.267 7.267a1 1 0 0 1 0 1.414l-.036.036a1 1 0 0 1-1.414 0l-7.267-7.267-7.268 7.267a1 1 0 0 1-1.414 0l-.036-.036a1 1 0 0 1 0-1.414l7.268-7.267-7.268-7.268a1 1 0 0 1 0-1.414l.036-.036z"/>
</symbol><symbol id="comment" viewBox="0 0 24 24">
    <path fill-rule="evenodd" clip-rule="evenodd" d="M2 6a2 2 0 0 1 2-2h16a2 2 0 0 1 2 2v10a2 2 0 0 1-2 2H10l-4 4v-4H4a2 2 0 0 1-2-2V6zm3 1a1 1 0 0 0 0 2h14a1 1 0 1 0 0-2H5zm-1 4a1 1 0 0 1 1-1h14a1 1 0 1 1 0 2H5a1 1 0 0 1-1-1zm1 2a1 1 0 1 0 0 2h6a1 1 0 1 0 0-2H5z"/>
</symbol><symbol id="controller" viewBox="0 0 48 48">
    <path fill-rule="evenodd" clip-rule="evenodd" d="M8.773 25.5l.295-1.1-.795-.814A7.968 7.968 0 0 1 6 18a8 8 0 0 1 14.402-4.799l.6.799h5.997l.6-.799A8 8 0 0 1 42 18c-.001 2.003-.734 3.83-1.95 5.233l-.694.802.274 1.025 2.618 9.768-7.728 2.07-2.767-10.328-.243-.906-.853-.393a8.038 8.038 0 0 1-3.06-2.472l-.6-.799h-5.997l-.6.799a8.048 8.048 0 0 1-2.577 2.23l-.753.41-.221.828-2.675 9.98-7.727-2.07L8.773 25.5zm32.79-.957l2.617 9.768a2 2 0 0 1-1.414 2.45l-7.727 2.07a2 2 0 0 1-2.45-1.414l-2.767-10.33A10.038 10.038 0 0 1 25.999 24h-3.998a10.048 10.048 0 0 1-3.22 2.785l-2.674 9.98a2 2 0 0 1-2.45 1.414L5.93 36.11a2 2 0 0 1-1.414-2.45l2.325-8.677A9.967 9.967 0 0 1 4 18C4 12.477 8.477 8 14 8a9.985 9.985 0 0 1 8 4h4a9.985 9.985 0 0 1 8-4c5.523 0 10 4.477 10 10a9.961 9.961 0 0 1-2.437 6.543zM13 16v-2h2v2h-2zm3 1h2v2h-2v-2zm-4 0h-2v2h2v-2zm1 5v-2h2v2h-2z"/>
    <path d="M39.828 17.826a1.269 1.269 0 0 0-.697-.354c-1.015-.132-1.523-.368-2.22-1.09-.695-.708-.927-1.194-1.087-2.225a1.366 1.366 0 0 0-.348-.781A1.242 1.242 0 0 0 34.59 13a1.226 1.226 0 0 0-.885.376 1.265 1.265 0 0 0-.37.899 1.28 1.28 0 0 0 .37.899c.2.2.46.326.74.353h-.014c1.03.133 1.581.457 2.22 1.12.637.649.986 1.18 1.073 2.285v-.015c.047.264.167.51.348.707a1.24 1.24 0 0 0 .885.376 1.225 1.225 0 0 0 .885-.376 1.288 1.288 0 0 0-.015-1.798zm-6.122 0a1.262 1.262 0 0 0-.37.899 1.281 1.281 0 0 0 .775 1.177 1.225 1.225 0 0 0 1.365-.278 1.264 1.264 0 0 0 .37-.899 1.28 1.28 0 0 0-.775-1.177 1.227 1.227 0 0 0-1.365.278zm-3.482 2.166a1.23 1.23 0 0 0 .893-.365 1.269 1.269 0 0 0 .371-.902 1.284 1.284 0 0 0-.37-.902 1.246 1.246 0 0 0-.893-.365 1.238 1.238 0 0 0-.868.379 1.278 1.278 0 0 0 0 1.776c.23.237.54.373.867.38z"/>
</symbol><symbol id="crown-blue" viewBox="0 0 32 32">
    <path fill-rule="evenodd" clip-rule="evenodd" d="M5.623 9.372a1.6 1.6 0 1 0-.625.216L6.4 20.8h19.2L27 9.588a1.6 1.6 0 1 0-.625-.216L22.4 16l-4-3.2-1.684-3.369a1.6 1.6 0 1 0-1.432 0L13.6 12.8l-4 3.2-3.977-6.628zM25.6 25.6v-3.2H6.4v3.2h19.2z"/>
</symbol><symbol id="cs-go" viewBox="0 0 24 24">
    <path d="M11.935 2.049c.319-.11.667-.018.96.126.203.131.408.264.636.35l.071.13-.035.088c.163.37.267.81.109 1.2-.108.13-.295.151-.447.202 0 .188.03.374.046.561.324.052.599-.173.92-.151.043-.18.077-.362.135-.539.066.117.069.252.07.383.084.024.169.045.255.066l.001.13c1.407.007 2.813-.007 4.22.007l-.013.193h.148c-.002-.255 0-.512-.001-.768l.14-.004.004.604.123.151.092-.108c.107.1.047.237.042.36.393-.005.791.022 1.184-.01l.117-.086.162.063c.177-.004.355-.004.533-.005l-.01.275c-.23-.004-.458-.009-.684.03-.145-.125-.34-.085-.516-.09-.27.013-.548-.035-.81.051a.57.57 0 0 1-.462-.055c-.033.082.017.265-.12.258-.543.007-1.085-.005-1.627.004-.074.039-.15.076-.223.112-.079.234-.303.39-.494.532-.024.359.118.694.173 1.042-.107.03-.214.062-.32.097-.152.358-.059.847-.41 1.097-.269.156-.447.497-.81.443.184.154-.05.106-.026-.017-.657-.058-1.21-.444-1.78-.737-.027.16-.069.319-.112.476a.53.53 0 0 1 .434.423c.07.485-.07.966-.067 1.452.015.285-.107.546-.26.78-.133.15-.344-.005-.504-.027l-.107.212c.046.19.065.388.129.574.357.395.682.824.932 1.296.257.534.486 1.082.686 1.64.02.108.122.147.211.187l.035.337.107.153c.022.69-.063 1.376-.17 2.057-.066.307.114.607.04.916.01.158-.1.278-.15.418-.01.326-.027.657.009.983.025.239.227.393.364.571.15.159.275.372.502.429.213.063.416.156.604.277.058.142.047.292.02.44-.41.075-.828.037-1.242.044-.319.016-.603-.155-.913-.19-.3-.008-.666.14-.897-.128.098-.372.106-.773.285-1.12.057-.394-.052-.793-.029-1.19l-.137-.115c.025-.26-.103-.49-.146-.738-.028-.363-.06-.725-.103-1.086-.033-.175.058-.336.182-.453.011-.203.039-.404.058-.605-.03-.13-.134-.228-.201-.34-.225.095-.528.05-.661-.17-.317-.47-.633-.942-.953-1.41-.126-.01-.259.004-.377-.046-.135-.14-.206-.325-.292-.494-.124.14-.115.353-.262.48-.31.297-.393.735-.555 1.117-.124.247-.054.546-.193.787-.074.13-.26.156-.31.304-.063.16-.139.326-.29.423-.162.107-.206.31-.278.478-.067.154.032.317.009.475-.104.505-.425.926-.56 1.42-.061.222-.15.473-.408.52-.294.526-.457 1.17-.29 1.761.102.186.096.396.065.6-.468.037-.948.1-1.407-.03-.108-.214-.092-.465-.07-.696.142-.606.33-1.202.445-1.814-.144-.128-.11-.324-.107-.496-.005-.32.212-.575.363-.837.057-.27.03-.559.17-.806.163-.309.302-.643.554-.893.048-.22.21-.386.276-.599.07-.187-.052-.377-.027-.569.06-.581.165-1.156.257-1.733-.173-.145-.118-.375-.173-.57a1.33 1.33 0 0 1 .103-.222l-.13-.12c.043-.205.03-.572.345-.506.02-.679-.216-1.336-.137-2.016l.125.149-.022-.23c.132-.07.271-.124.418-.152-.239-.031-.472-.092-.706-.146-.057-.15-.025-.308-.004-.46.09-.515.124-1.037.143-1.559.265-.092.557-.013.816-.137-.08-.652-.1-1.333.131-1.959.187-.533.544-1.047 1.1-1.234.263-.063.594-.134.78.122l.153-.142c-.424-.843.083-2.075 1.046-2.248zm3.396 3.656c-.112.068-.222.147-.104.271a4.667 4.667 0 0 1-.173.099c-.09.07-.295.11-.271.25.102.165.19.337.263.516.223-.183.4-.43.52-.69l.102-.103a1.163 1.163 0 0 0-.084-.347 27.95 27.95 0 0 1-.253.004z"/>
</symbol><symbol id="cts" viewBox="0 0 24 24">
    <path d="M3.278 5.96a.949.949 0 0 0 0 1.343l3.474 3.474a.949.949 0 0 0 .788.27l1.156-.144c-.117.413-.243.909-.352 1.455-.302 1.51-.512 3.557.072 5.309.38 1.14.778 1.935 1.462 2.923a.949.949 0 1 0 1.56-1.08 8.667 8.667 0 0 1-1.221-2.443c-.423-1.268-.297-2.911-.012-4.337a17.547 17.547 0 0 1 .527-1.999l.265-.085c.433-.134 1.04-.303 1.734-.442 1.426-.285 3.069-.411 4.337.012.969.323 1.603.64 2.443 1.221a.949.949 0 1 0 1.08-1.56 10.544 10.544 0 0 0-2.923-1.462c-1.752-.584-3.799-.374-5.309-.072a19.28 19.28 0 0 0-1.456.352l.145-1.155a.949.949 0 0 0-.27-.789L7.303 3.277a.949.949 0 0 0-1.342 0L7.98 7.025a.949.949 0 1 1-.954.954L3.278 5.96z"/>
</symbol><symbol id="cup" viewBox="0 0 24 24">
    <path fill-rule="evenodd" clip-rule="evenodd" d="M17 5V4a1 1 0 1 0 0-2H7a1 1 0 0 0 0 2v1H5a1 1 0 0 0-1 1v4a1 1 0 0 0 1 1h2.07c.261 1.874 1.247 3.453 2.6 4.31C11.023 16.167 9 20 9 20H8a1 1 0 1 0 0 2h8a1 1 0 1 0 0-2h-1s-2.023-3.833-.67-4.69c1.353-.857 2.339-2.436 2.6-4.31H19a1 1 0 0 0 1-1V6a1 1 0 0 0-1-1h-2zm0 1v4h1a1 1 0 0 0 1-1V7a1 1 0 0 0-1-1h-1zM6 6h1v4H6a1 1 0 0 1-1-1V7a1 1 0 0 1 1-1zm6.674 1.073L12 5l-.674 2.073h-2.18l1.764 1.281-.673 2.073L12 9.146l1.763 1.281-.673-2.073 1.763-1.281h-2.18z"/>
</symbol><symbol id="diagram" viewBox="0 0 16 14">
    <path fill-rule="evenodd" clip-rule="evenodd" d="M12.8.5H16v12.8h-3.2V.5zM0 8.5h3.2v4.8H0V8.5zm9.6-4.8H6.4v9.6h3.2V3.7z"/>
</symbol><symbol id="discord-contained" viewBox="0 0 24 24">
    <path d="M19.635 4.977l-.06-.15a.018.018 0 0 0-.008-.01l-.148-.068c-1.217-.552-2.932-.689-4.45-.749h-1.71c-.02 0-.025.026-.008.034l3.512 1.684c.02.01.009.04-.012.034A18.805 18.805 0 0 0 12 5.13c-1.57 0-3.16.208-4.736.618-.02.005-.032-.025-.012-.034l3.635-1.68C10.905 4.027 10.9 4 10.88 4H9.03c-1.518.06-3.233.197-4.45.75l-.147.066a.018.018 0 0 0-.01.01l-.06.151c-1.244 3.154-1.598 8.51-1.22 11.864l.02.176.14.108c1.944 1.508 4.544 2.283 6.18 2.49l.211.026a.15.15 0 0 0 .159-.096l1.065-2.845a.15.15 0 0 0-.117-.2l-.327-.051c-1.14-.18-2.753-.654-4.117-1.89-.03-.027-.001-.074.036-.06.11.04.233.088.359.137.308.12.627.245.835.295 1.463.348 2.946.524 4.412.524v-.026h.003v.026c1.463 0 2.946-.176 4.409-.524.208-.05.527-.174.835-.295.126-.049.248-.097.36-.138.036-.013.064.034.035.06-1.36 1.232-2.975 1.705-4.117 1.884l-.327.051a.15.15 0 0 0-.117.2l1.065 2.851a.15.15 0 0 0 .159.097l.212-.027c1.635-.206 4.235-.981 6.18-2.489l.14-.108.02-.176c.377-3.355.023-8.71-1.222-11.864zm-11.11 7.744a2.125 2.125 0 0 1-2.308-2.307 2.128 2.128 0 0 1 1.92-1.92 2.125 2.125 0 0 1 2.308 2.307 2.128 2.128 0 0 1-1.92 1.92zm7.338 0a2.125 2.125 0 0 1-2.308-2.307 2.127 2.127 0 0 1 1.92-1.92 2.125 2.125 0 0 1 2.308 2.307 2.128 2.128 0 0 1-1.92 1.92z"/>
</symbol><symbol id="discord" viewBox="0 0 18 16">
    <path d="M16.635.977l-.06-.15a.018.018 0 0 0-.008-.01l-.148-.068C15.202.197 13.487.06 11.969 0h-1.71c-.02 0-.025.026-.008.034l3.512 1.684c.02.01.009.04-.012.034A18.805 18.805 0 0 0 9 1.13c-1.57 0-3.16.208-4.736.618-.02.005-.032-.025-.012-.034L7.887.034C7.905.027 7.9 0 7.88 0H6.03c-1.518.06-3.233.197-4.45.75l-.147.066a.018.018 0 0 0-.01.01l-.06.151C.12 4.131-.233 9.487.145 12.841l.02.176.14.108c1.944 1.508 4.544 2.283 6.18 2.49l.211.026a.15.15 0 0 0 .159-.096L7.919 12.7a.15.15 0 0 0-.117-.2l-.327-.051c-1.14-.18-2.753-.654-4.117-1.89-.03-.027-.001-.074.036-.06.11.04.233.088.359.137.308.12.627.245.835.295 1.463.348 2.946.524 4.412.524v-.026h.003v.026c1.463 0 2.946-.176 4.409-.524.208-.05.527-.174.835-.295.126-.049.248-.097.36-.138.036-.013.064.034.035.06-1.36 1.232-2.975 1.705-4.117 1.884l-.327.051a.15.15 0 0 0-.117.2l1.065 2.851a.15.15 0 0 0 .159.097l.212-.027c1.635-.206 4.235-.981 6.18-2.489l.14-.108.02-.176c.377-3.355.023-8.71-1.222-11.864zM5.525 8.721a2.125 2.125 0 0 1-2.308-2.307 2.128 2.128 0 0 1 1.92-1.92A2.125 2.125 0 0 1 7.446 6.8a2.128 2.128 0 0 1-1.92 1.92zm7.338 0a2.125 2.125 0 0 1-2.308-2.307 2.127 2.127 0 0 1 1.92-1.92A2.125 2.125 0 0 1 14.783 6.8a2.128 2.128 0 0 1-1.92 1.92z"/>
</symbol><symbol id="dota" viewBox="0 0 24 24">
    <path fill-rule="evenodd" clip-rule="evenodd" d="M6.432 13.753c.178.11.29.217.46.353l1.382 1.274a29.816 29.816 0 0 1 1.312 1.34c.194.226.278.25.42.47-.05.018-.697.165-1.074.293-.782.268-1.495.696-2.177.466-.102-.035-.565-.474-.778-.623l-.39-.273c-.416-.29-.534-.089.015-1.365.143-.335.267-.635.404-.961.122-.278.286-.741.426-.974zm9.934-7.697c.285.1.975.49 1.142.701.143.177.102.193.048.45l-.28 2.181c-.388.013-.277-.032-.517-.193a56.872 56.872 0 0 1-2.233-1.643l-.856-.682c.062-.06-.022-.027.12-.064l1.267-.284c.66-.166.762-.209 1.309-.466zm-11.356.44c.29-.161.444-.041.934-.392.132-.093.434-.085.617-.059.189.027.628.389.827.512.116.07.639.465.722.604l.259.413c.355.016.293-.003.74.323l4.291 2.81c.921.637 1.999 1.288 2.926 1.93l2.642 1.718c-.076.163-.165.725-.216.95-.229 1.033-.517 1.47-.983 2.462-.67.027-1.198.022-1.853.01-.213-.002-.159.041-.275-.069-.382-.369-1.08-1.177-1.468-1.552a10.702 10.702 0 0 1-.388-.39c-1.072-1.135-.565-.793-.773-1.076l-2.155-2.026c-.495-.48-.94-.993-1.451-1.531-.132-.14-.197-.268-.334-.393l-.038-.035c-.038-.035-.022-.022-.057-.06L8.35 9.94c-.11-.101-.1-.099-.18-.19l-.564-.578c-.124-.128-.22-.262-.339-.401l-.539-.567c-.08-.08-.137-.105-.218-.188-.256-.265-.471-.519-.73-.784-.205-.211-.708-.618-.77-.736zm2.586-3.164l-4.423.09c-.24.876-.003.432 0 1.347v1.654c-.035.479-.162.72-.162 1.36 0 .213-.048.709.057.877.183.297.18.551.258.982.07.383.143.343-.03.632l-.08.73.377.367.003.642c-.227.206.027.06-.45.402l.043 1.94.469.337-.097 1.654c-.496.353-.388.779-.372 1.218l.06 1.648-.109.846c1.108.276.865.19 2.131.19 1.118 0 .975.01 2.08-.123l.03.187c.172-.01.347-.021.516-.037.472-.046.283-.1.445-.158.116-.043 1.379.249 1.584.292.113-.126.056-.075.212-.177.087.18.45.589.598.768l.458-.425.8.307.235-.195c.091.107.148.24.31.262.236.032.274-.359.8-.37l3.035-.1c.038-.038.062-.06.105-.1l.156-.126c.2.12.286.236.558.217.837-.056.398.2 1.479.145.185-.011.14-.057.304-.113l.35-.053c-.075-.204-.124-.174-.277-.327l1.923.386c-.027-2.248-.022-4.991.008-7.304l-.517.038c.019-.15.245-.094.261-.396.022-.38.019-1.684-.038-1.962-.03-.142-.393-.557-.49-.685.116-.313.127-.292.342-.549-.019-.168-.056-.214-.13-.404l.564-.184c.005-.322.043-1.614.021-2.024l-.228-2.205.174-.551.009-.567c-.488-.279-.423-.31-.76-.308-.304.002-.711-.014-1.002-.08-.374-.086-.272-.145-.681.272l-.186-.401C17.72 3.163 15.849 3 15.404 3c-.568 0-.487.043-.678.685l-.817.083-.107-.35-.741-.009.078-.085c.143-.137.092-.083.205-.324h-2.98a.852.852 0 0 1-.49.388c-.296.1-.15-.059-.336.107-.14.126-.165.118-.386.112a49.204 49.204 0 0 1-.888-.026c-.135-.006-.283.008-.415-.022-.202-.048-.143-.099-.253-.227z"/>
</symbol><symbol id="dota2" viewBox="0 0 48 48">
    <path fill-rule="evenodd" clip-rule="evenodd" d="M9.152 28.674c.474.293.776.579 1.228.942l3.685 3.397c.769.728 2.737 2.705 3.498 3.576.517.6.74.663 1.12 1.249-.136.05-1.86.442-2.865.785-2.083.713-3.987 1.855-5.804 1.241-.273-.092-1.508-1.263-2.076-1.662l-1.041-.728c-1.107-.771-1.423-.236.043-3.64.38-.892.71-1.691 1.077-2.562.323-.742.761-1.977 1.135-2.598zM35.642 8.15c.762.264 2.6 1.306 3.046 1.87.38.47.273.514.13 1.199l-.748 5.816c-1.034.035-.74-.086-1.379-.514-1.077-.72-4.77-3.433-5.955-4.382l-2.284-1.82c.165-.157-.057-.071.323-.17l3.376-.757c1.76-.443 2.033-.557 3.491-1.242zM5.36 9.32c.776-.428 1.186-.107 2.493-1.042.352-.25 1.156-.228 1.645-.157.503.072 1.673 1.035 2.205 1.363.309.186 1.702 1.242 1.925 1.613l.69 1.1c.948.042.782-.008 1.975.863l11.442 7.493c2.456 1.699 5.33 3.433 7.8 5.145l7.047 4.582c-.201.435-.438 1.934-.575 2.534-.61 2.754-1.379 3.917-2.621 6.565-1.789.072-3.197.057-4.942.029-.568-.008-.424.107-.733-.186-1.02-.985-2.88-3.14-3.915-4.139a28.57 28.57 0 0 1-1.034-1.042c-2.859-3.026-1.508-2.112-2.061-2.869l-5.747-5.402c-1.321-1.278-2.506-2.648-3.871-4.082-.352-.371-.524-.714-.89-1.05l-.101-.092c-.1-.093-.058-.057-.151-.157l-1.674-1.884c-.294-.271-.266-.264-.481-.507l-1.501-1.541c-.33-.343-.59-.7-.905-1.07l-1.437-1.514c-.215-.214-.366-.278-.582-.5-.682-.706-1.257-1.384-1.946-2.09-.546-.564-1.89-1.649-2.055-1.963zM12.255.885L.461 1.128c-.64 2.333-.007 1.149 0 3.59v4.41C.367 10.405.03 11.048.03 12.753c0 .57-.13 1.891.15 2.34.49.793.482 1.47.69 2.62.187 1.02.38.913-.079 1.684l-.215 1.948 1.005.978.007 1.713c-.603.55.072.157-1.2 1.07l.116 5.174 1.25.9-.259 4.41c-1.322.942-1.034 2.076-.991 3.247l.158 4.396-.287 2.255c2.952.735 2.305.507 5.681.507 2.981 0 2.6.028 5.545-.329l.08.5c.46-.029.926-.057 1.379-.1 1.256-.121.754-.264 1.185-.421.309-.114 3.677.664 4.223.778.302-.336.151-.2.568-.471.23.478 1.2 1.57 1.594 2.048l1.221-1.135 2.134.821.625-.521c.244.285.395.642.826.7.632.085.732-.957 2.133-.985l8.095-.272c.1-.1.165-.157.28-.264l.417-.335c.531.321.761.628 1.486.578 2.234-.15 1.063.535 3.944.385.495-.028.373-.15.812-.3l.933-.142c-.2-.543-.33-.464-.74-.87l5.129 1.027c-.072-5.995-.057-13.31.022-19.476l-1.38.1c.05-.4.654-.25.697-1.056.058-1.013.05-4.489-.1-5.23-.08-.38-1.05-1.485-1.308-1.828.31-.835.338-.778.913-1.463-.05-.45-.151-.57-.345-1.077l1.501-.493c.014-.856.115-4.303.057-5.395l-.61-5.88.467-1.47.021-1.514c-1.3-.742-1.127-.827-2.025-.82-.812.007-1.897-.036-2.672-.214-.999-.229-.726-.386-1.817.728L40.85.529C39.255.434 34.263 0 33.078 0c-1.516 0-1.3.114-1.81 1.827l-2.176.221-.288-.935-1.975-.021.208-.228c.381-.364.245-.222.546-.864H19.64c-.266.485-.74.85-1.307 1.035-.79.264-.403-.157-.898.285-.374.336-.438.314-1.027.3a131.43 131.43 0 0 1-2.37-.071c-.36-.015-.755.021-1.107-.057-.538-.129-.38-.265-.675-.607z"/>
    
</symbol><symbol id="edit" viewBox="0 0 24 24">
    <path d="M21 8.018L15.982 3l-2.15 2.15.716.717-.717.717-.716-.717-7.896 7.895 5.018 5.018 7.896-7.895-.717-.716.716-.717.717.716L21 8.018z"/>
    <path d="M4.154 19.846c1.386 1.386 3.472 1.546 4.66.358-1.466-1.466-1.603-1.602-1.74-1.738-.096-.097-.193-.195-.77-.77l-2.508-2.51c-1.188 1.188-1.028 3.274.358 4.66z"/>
</symbol><symbol id="email" viewBox="0 0 24 24">
    <path fill-rule="evenodd" clip-rule="evenodd" d="M18.481 6H5.52L12 11.671 18.481 6zM4 7.329V18h16V7.329l-7.341 6.424a1 1 0 0 1-1.318 0L4 7.329zM2 6a2 2 0 0 1 2-2h16a2 2 0 0 1 2 2v12a2 2 0 0 1-2 2H4a2 2 0 0 1-2-2V6z"/>
</symbol><symbol id="external-link-squared" viewBox="0 0 24 24">
    <path fill-rule="evenodd" clip-rule="evenodd" d="M4 2a1 1 0 0 0-1 1v18a1 1 0 0 0 1 1h16a1 1 0 0 0 1-1v-7a1 1 0 1 0-2 0v6H5V4h4a1 1 0 0 0 0-2H4zm8 1a1 1 0 0 1 1-1h7.071a1 1 0 0 1 1 1v7.071a1 1 0 1 1-2 0V5.536l-4.95 4.95a1 1 0 0 1-1.414-1.415L17.778 4H13a1 1 0 0 1-1-1z"/>
</symbol><symbol id="external-link" viewBox="0 0 24 24">
    <rect x="11" y="8" width="2" height="8" rx="1"/>
    <path d="M7 10V5a2 2 0 0 1 2-2h6a2 2 0 0 1 2 2v5" stroke-width="2" stroke-linecap="round" stroke-linejoin="round"/>
    <path d="M7 14v5a2 2 0 0 0 2 2h6a2 2 0 0 0 2-2v-5" stroke-width="2" stroke-linecap="round" stroke-linejoin="round"/>
</symbol><symbol id="facebook" viewBox="0 0 24 24">
    <path d="M21 6c0-1.576-1.423-3-3-3H6C4.423 3 3 4.424 3 6v12c0 1.576 1.423 3 3 3h6v-6.8H9.8v-3H12v-1.169C12 8.015 13.514 6.2 15.375 6.2H17.8v3h-2.425c-.265 0-.575.322-.575.805V11.2h3v3h-3V21H18c1.577 0 3-1.424 3-3V6z"/>
</symbol><symbol id="game" viewBox="0 0 24 24">
    <path fill-rule="evenodd" clip-rule="evenodd" d="M16.007 12.938c2.387.851 3.993 1.424 3.993-2.909C20 5.595 16.418 2 12 2s-8 3.595-8 8.03c0 4.332 1.606 3.76 3.993 2.908l.27-.097L9 18h6l.737-5.159.27.097zm-8.398-2.25a2.5 2.5 0 0 0 3.062-1.767l-1.664-.446-3.166-.848a2.5 2.5 0 0 0 1.768 3.062zM10 13a2 2 0 0 1 4 0c0 .543-.216.311-.567-.065C13.07 12.545 12.562 12 12 12s-1.07.544-1.433.934c-.35.376-.567.608-.567.065zm6.255-2.311a2.5 2.5 0 0 1-3.062-1.768l1.674-.449.741-.198.75-.201 1.665-.446a2.5 2.5 0 0 1-1.768 3.062z"/>
    <path d="M9 20h1v2H9v-2z"/>
    <path d="M13 22v-2h-2v2h2z"/>
    <path d="M14 20h1v2h-1v-2z"/>
</symbol><symbol id="gamepad" viewBox="0 0 24 24">
    <path d="M15.372 11.482a.705.705 0 1 0 0-1.41.705.705 0 0 0 0 1.41z"/>
    <path d="M16.509 10.346a.705.705 0 1 0 0-1.41.705.705 0 0 0 0 1.41z"/>
    <path d="M7.568 9.425H6.531v.985h-.986v1.038h.986v.985h1.037v-.985h.986V10.41h-.986v-.985z"/>
    <path d="M12 0C5.372 0 0 5.373 0 12s5.372 12 12 12c6.627 0 12-5.373 12-12S18.627 0 12 0zm6.165 17.287h-1.062l-2.29-3.65H9.187l-2.29 3.65H5.836a1.517 1.517 0 0 1-1.517-1.516l.337-5.308.002-.046-.002-.051A3.245 3.245 0 0 1 7.9 7.121c.743 0 1.258.252 1.805.673.7-.204 1.048-.379 1.998-.431h.594c.95.052 1.298.227 1.998.43.547-.42 1.061-.672 1.804-.672a3.245 3.245 0 0 1 3.245 3.245l-.002.05c0 .016.003.03.003.047l.336 5.308c0 .837-.678 1.516-1.516 1.516z"/>
    <path d="M17.645 11.482a.705.705 0 1 0 0-1.409.705.705 0 0 0 0 1.41z"/>
    <path d="M16.509 12.62a.705.705 0 1 0 0-1.41.705.705 0 0 0 0 1.41z"/>
</symbol><symbol id="headset" viewBox="0 0 48 48">
    <path fill-rule="evenodd" clip-rule="evenodd" d="M24 4c-6.627 0-12 5.373-12 12v2a6 6 0 0 0 0 12h2V16c0-5.523 4.477-10 10-10s10 4.477 10 10v24h-2a2 2 0 0 0-2-2h-8a2 2 0 0 0-2 2v2a2 2 0 0 0 2 2h8a2 2 0 0 0 2-2h3a1 1 0 0 0 1-1V30a6 6 0 0 0 0-12v-2c0-6.627-5.373-12-12-12zm6 36h-8v2h8v-2zM12 20a4 4 0 0 0 0 8v-8zm28 4a4 4 0 0 0-4-4v8a4 4 0 0 0 4-4z"/>
    <path d="M31.468 20.894a1.813 1.813 0 0 0-.994-.505c-1.451-.19-2.177-.526-3.171-1.558-.995-1.01-1.326-1.705-1.555-3.179a1.952 1.952 0 0 0-.497-1.115A1.776 1.776 0 0 0 23.987 14a1.751 1.751 0 0 0-1.264.537 1.807 1.807 0 0 0-.529 1.284 1.83 1.83 0 0 0 .53 1.284 1.73 1.73 0 0 0 1.056.505h-.02c1.471.19 2.259.653 3.17 1.6.912.927 1.41 1.685 1.534 3.264v-.022c.067.379.24.73.497 1.011a1.776 1.776 0 0 0 1.265.537 1.752 1.752 0 0 0 1.264-.537c.33-.345.514-.808.51-1.289a1.838 1.838 0 0 0-.532-1.28zm-8.745 0a1.807 1.807 0 0 0-.529 1.285 1.83 1.83 0 0 0 1.108 1.681 1.752 1.752 0 0 0 1.95-.397 1.807 1.807 0 0 0 .528-1.284 1.828 1.828 0 0 0-1.108-1.682 1.754 1.754 0 0 0-1.95.397zm-4.974 3.095a1.76 1.76 0 0 0 1.276-.522 1.811 1.811 0 0 0 .53-1.289 1.835 1.835 0 0 0-.53-1.288 1.78 1.78 0 0 0-1.276-.522 1.769 1.769 0 0 0-1.239.542c-.327.338-.51.794-.51 1.268 0 .475.183.93.51 1.269.327.338.772.533 1.24.542z"/>
</symbol><symbol id="img-clear" viewBox="0 0 20 20">
    <path d="M17.608 4.392A1.284 1.284 0 0 0 16.666 4H3.333c-.366 0-.68.13-.941.392A1.284 1.284 0 0 0 2 5.333v10.133c0 .367.13.681.392.942.26.261.575.392.941.392h13.334c.366 0 .68-.13.941-.392.261-.261.392-.575.392-.942V5.333c0-.366-.13-.68-.392-.941zm-.675 11.074a.256.256 0 0 1-.079.188.257.257 0 0 1-.188.079H3.333a.257.257 0 0 1-.187-.079.257.257 0 0 1-.08-.188V5.333c0-.072.027-.134.08-.187a.257.257 0 0 1 .187-.08h13.334c.072 0 .134.027.187.08a.257.257 0 0 1 .08.187v10.133z"/>
    <path d="M5.733 9.333c.445 0 .822-.156 1.134-.467.31-.311.466-.689.466-1.133 0-.445-.155-.822-.466-1.134a1.543 1.543 0 0 0-1.134-.466c-.444 0-.822.155-1.133.466a1.543 1.543 0 0 0-.467 1.134c0 .444.156.822.467 1.133.311.311.689.467 1.133.467z"/>
    <path d="M8.133 11.733L6.8 10.4l-2.667 2.667v1.6h11.734v-3.733L12.4 7.466l-4.267 4.266z"/>
</symbol><symbol id="img" viewBox="0 0 24 24">
    <path fill-rule="evenodd" clip-rule="evenodd" d="M3 4a1 1 0 0 0-1 1v14a1 1 0 0 0 1 1h18a1 1 0 0 0 1-1V5a1 1 0 0 0-1-1H3zm6 4.5a2.5 2.5 0 1 1-5 0 2.5 2.5 0 0 1 5 0zM20 18l-6-8-2.87 3.826L9 12l-5 6h16z"/>
</symbol><symbol id="info" viewBox="0 0 24 24">
    <path fill-rule="evenodd" clip-rule="evenodd" d="M12 20a8 8 0 1 0 0-16 8 8 0 0 0 0 16zm0 2c5.523 0 10-4.477 10-10S17.523 2 12 2 2 6.477 2 12s4.477 10 10 10zm1-15a1 1 0 1 1-2 0 1 1 0 0 1 2 0zm-1 2a1 1 0 0 0-1 1v7a1 1 0 1 0 2 0v-7a1 1 0 0 0-1-1z"/>
</symbol><symbol id="instagram" viewBox="0 0 24 24">
    <path fill-rule="evenodd" clip-rule="evenodd" d="M16.032 3H7.967A4.973 4.973 0 0 0 3 7.967v8.066A4.973 4.973 0 0 0 7.967 21h8.066A4.973 4.973 0 0 0 21 16.033V7.967A4.973 4.973 0 0 0 16.032 3zm3.371 13.033a3.374 3.374 0 0 1-3.37 3.37H7.967a3.374 3.374 0 0 1-3.37-3.37V7.967a3.374 3.374 0 0 1 3.37-3.37h8.066a3.374 3.374 0 0 1 3.37 3.37v8.066zm-7.402-8.671A4.643 4.643 0 0 0 7.363 12 4.643 4.643 0 0 0 12 16.638 4.643 4.643 0 0 0 16.639 12 4.643 4.643 0 0 0 12 7.362zm0 7.679A3.044 3.044 0 0 1 8.96 12 3.045 3.045 0 0 1 12 8.959a3.044 3.044 0 0 1 3.042 3.04A3.044 3.044 0 0 1 12 15.042zm4.004-8.69c.217-.218.52-.343.827-.343.309 0 .611.125.828.343a1.176 1.176 0 0 1 0 1.657c-.218.217-.52.343-.828.343a1.18 1.18 0 0 1-.827-.343 1.18 1.18 0 0 1-.344-.829c0-.308.125-.61.344-.828z"/>
</symbol><symbol id="invite" viewBox="0 0 24 24">
    <path fill-rule="evenodd" clip-rule="evenodd" d="M22 6H2v2a4 4 0 1 1 0 8v2h20v-2a4 4 0 0 1 0-8V6zm-6.763 6.194a.906.906 0 0 1 .763.893.92.92 0 0 1-.255.645.888.888 0 0 1-.632.268.876.876 0 0 1-.632-.268 1.008 1.008 0 0 1-.25-.506v.01c-.061-.789-.31-1.168-.766-1.63-.456-.474-.85-.706-1.585-.8h.01a.865.865 0 0 1-.529-.253.902.902 0 0 1-.264-.642.914.914 0 0 1 .554-.841.876.876 0 0 1 .975.198c.14.154.227.35.248.558.114.737.28 1.084.777 1.59.498.515.86.684 1.586.778zm-4.071.547a.903.903 0 0 1 .195-.294.888.888 0 0 1 .632-.268.876.876 0 0 1 .633.268.903.903 0 0 1 .264.642.916.916 0 0 1-.554.841.876.876 0 0 1-.975-.198.903.903 0 0 1-.264-.643c0-.12.023-.238.069-.348zM9.219 13.93a.88.88 0 0 1-.344.066.885.885 0 0 1-.62-.272.913.913 0 0 1 0-1.268.884.884 0 0 1 .62-.271.88.88 0 0 1 .637.26.906.906 0 0 1 .265.645.918.918 0 0 1-.265.645.89.89 0 0 1-.293.195z"/>
</symbol><symbol id="leave" viewBox="0 0 24 24">
    <path d="M4.005 2.898A1 1 0 0 1 5 2h10a1 1 0 1 1 0 2H6v16h9a1 1 0 1 1 0 2H5a1 1 0 0 1-1-1V3c0-.035.002-.069.005-.102z"/>
    <path d="M8 12a1 1 0 0 1 1-1h10a1 1 0 1 1 0 2H9a1 1 0 0 1-1-1z"/>
    <path fill-rule="evenodd" clip-rule="evenodd" d="M13.293 6.293a1 1 0 0 1 1.414 0l5 5a1 1 0 0 1 0 1.414l-5 5a1 1 0 0 1-1.414-1.414L17.586 12l-4.293-4.293a1 1 0 0 1 0-1.414z"/>
</symbol><symbol id="link" viewBox="0 0 24 24">
    <path d="M20 9a1 1 0 0 0-1-1h-5a1 1 0 1 1 0-2h5a3 3 0 0 1 3 3v6a3 3 0 0 1-3 3h-5a1 1 0 1 1 0-2h5a1 1 0 0 0 1-1V9z"/>
    <path d="M15 11a1 1 0 1 1 0 2H9a1 1 0 1 1 0-2h6z"/>
    <path d="M5 8a1 1 0 0 0-1 1v6a1 1 0 0 0 1 1h5a1 1 0 1 1 0 2H5a3 3 0 0 1-3-3V9a3 3 0 0 1 3-3h5a1 1 0 1 1 0 2H5z"/>
</symbol><symbol id="lock" viewBox="0 0 24 24">
    <path fill-rule="evenodd" clip-rule="evenodd" d="M16 10V8a4 4 0 0 0-8 0v2h8zM6 8v2a2 2 0 0 0-2 2v8a2 2 0 0 0 2 2h12a2 2 0 0 0 2-2v-8a2 2 0 0 0-2-2V8A6 6 0 0 0 6 8zm10 4h2v8H6v-8h10zm-2 3a2 2 0 0 1-1.031 1.75c.02.08.031.164.031.25v1a1 1 0 1 1-2 0v-1c0-.086.01-.17.031-.25A2 2 0 1 1 14 15z"/>
</symbol><symbol id="lol" viewBox="0 0 36 40">
    <path fill-rule="evenodd" clip-rule="evenodd" d="M5.926 0h9.876v34.1h8.98a7.17 7.17 0 0 0 .046-.026h5.79l-.026.026h4.143L29.63 40H5.925l3.026-2.885v-.097a15.738 15.738 0 0 1-.063-.036v-4.28l.063.05V10.287l-.063.05V6.064l.063-.036v-2.7L5.926 0zm11.85 7.173h.102c7.924 0 14.347 6.423 14.347 14.347a14.31 14.31 0 0 1-4.655 10.579h4.732a17.801 17.801 0 0 0 3.462-10.577c0-9.875-8.006-17.881-17.882-17.881h-.106v3.532zM0 21.523C0 15.78 2.707 10.67 6.914 7.397v4.869A14.29 14.29 0 0 0 3.53 21.52a14.29 14.29 0 0 0 3.383 9.253v4.873C2.707 32.375 0 27.265 0 21.522z"/>
</symbol><symbol id="match" viewBox="0 0 24 24">
    <path fill-rule="evenodd" clip-rule="evenodd" d="M12 3l.898 2.764h2.906l-2.35 1.708.897 2.764L12 8.528l-2.351 1.708.898-2.764-2.351-1.708h2.906L12 3zM3.694 9L2.29 10.375l.701.687-.701.687a.958.958 0 0 0 0 1.375l1.403 1.374-.702.688a.958.958 0 0 0 0 1.375l1.087 1.064-.691 1.173a.961.961 0 0 0 .363 1.328l1.315.744c.475.268 1.081.109 1.355-.356l.625-1.06c.086-.145.136-.348.184-.54.089-.354.168-.67.44-.52a.974.974 0 0 1 .233.229c.388.379 1.016.38 1.403 0l1.403-1.375a.958.958 0 0 0 0-1.375L3.694 9zm1.403 6.873l-.702-.687-.701.687.701.688.702-.688zm16.612-5.498L20.306 9l-7.015 6.873a.958.958 0 0 0 0 1.375l1.403 1.374c.387.38 1.015.38 1.403 0 0 0 .121-.166.233-.228.272-.15.351.166.44.52.048.192.098.395.184.54l.625 1.06c.274.465.88.624 1.355.356l1.315-.744a.961.961 0 0 0 .363-1.328l-.69-1.173 1.086-1.064a.958.958 0 0 0 0-1.375l-.702-.688 1.403-1.374a.958.958 0 0 0 0-1.375l-.701-.687.701-.687zm-2.104 4.81l-.702.688.702.688.701-.688-.701-.687z"/>
</symbol><symbol id="mode" viewBox="0 0 24 24">
    <path fill-rule="evenodd" clip-rule="evenodd" d="M2 4l5 6 5-6 5 6 5-6-2 12H4L2 4zm10 5l.674 2.073h2.18l-1.764 1.281.673 2.073L12 13.146l-1.763 1.281.673-2.073-1.763-1.281h2.18L12 9zm8 11v-2H4v2h16z"/>
</symbol><symbol id="money" viewBox="0 0 24 24">
    <path fill-rule="evenodd" clip-rule="evenodd" d="M20 12a8 8 0 1 1-16 0 8 8 0 0 1 16 0zm2 0c0 5.523-4.477 10-10 10S2 17.523 2 12 6.477 2 12 2s10 4.477 10 10zm-8.886 1.407c.193.202.29.475.29.82 0 .332-.107.597-.322.795-.215.194-.507.29-.877.29-.446 0-.789-.132-1.028-.397-.236-.27-.354-.654-.354-1.155H9c0 .863.236 1.554.707 2.076.475.517 1.144.822 2.006.915V18h1.003v-1.256c.782-.08 1.397-.342 1.842-.788.446-.446.67-1.026.67-1.742 0-.382-.06-.717-.178-1.003a2.303 2.303 0 0 0-.51-.77 3.458 3.458 0 0 0-.82-.605c-.325-.18-.739-.372-1.244-.574-.5-.202-.843-.4-1.028-.593-.185-.194-.278-.45-.278-.77 0-.345.095-.614.284-.808.19-.197.457-.296.801-.296.35 0 .627.126.833.379.21.248.316.624.316 1.129h1.823c0-.82-.21-1.487-.63-2-.421-.518-1.004-.829-1.748-.934V6h-1.01v1.35c-.753.076-1.356.34-1.81.795-.455.454-.682 1.037-.682 1.748 0 .412.065.767.196 1.066.134.299.32.56.555.782.24.219.526.415.858.587.332.168.728.339 1.186.511.458.173.782.362.972.568z"/>
</symbol><symbol id="mouse" viewBox="0 0 24 24">
    <path fill-rule="evenodd" clip-rule="evenodd" d="M16 4h-4v6h6V6a2 2 0 0 0-2-2zM6 14v-2h12v2a6 6 0 0 1-12 0zM8 2a4 4 0 0 0-4 4v8a8 8 0 1 0 16 0V6a4 4 0 0 0-4-4H8z"/>
</symbol><symbol id="notification-contained" viewBox="0 0 24 24">
    <path fill-rule="evenodd" clip-rule="evenodd" d="M12 3c-.552 0-1 .398-1 .889v1.185c-3.392.51-6 3.573-6 7.276V16a1 1 0 1 0 0 2h14a1 1 0 1 0 0-2v-.894-2.756c0-3.703-2.608-6.766-6-7.276V3.89C13 3.398 12.552 3 12 3zm3 16a3 3 0 1 1-6 0h6z"/>
</symbol><symbol id="notification-outlined" viewBox="0 0 24 24">
    <path d="M15 19a3 3 0 1 1-6 0h6z"/>
    <path fill-rule="evenodd" clip-rule="evenodd" d="M12 3a1 1 0 0 0-1 1v1.07A7.002 7.002 0 0 0 5 12v4a1 1 0 1 0 0 2h14a1 1 0 1 0 0-2v-4a7.002 7.002 0 0 0-6-6.93V4a1 1 0 0 0-1-1zm0 4a5 5 0 0 0-5 5v4h10v-4a5 5 0 0 0-5-5z"/>
</symbol><symbol id="parallel-arrows" viewBox="0 0 24 24">
    <path fill-rule="evenodd" clip-rule="evenodd" d="M10 11l6-4-6-4v3H3v2h7v3zm-2 5h7v2H8v-2zm7 5l6-4-6-4v8z"/>
</symbol><symbol id="partners" viewBox="0 0 32 32">
    <path fill-rule="evenodd" clip-rule="evenodd" d="M24.503 6.667l4.831 8.368-4.203 2.427 2.43 1.403a1 1 0 0 1 .366 1.366l-.207.36a1 1 0 0 1-1.366.366l-3.639-2.1 2.592 1.496a1 1 0 0 1 .366 1.366l-.207.36a1 1 0 0 1-1.367.366l-1.014-.586a1 1 0 0 1 .335 1.348l-.208.36a1 1 0 0 1-1.366.366l-6.518-3.763 5.472 3.16a1 1 0 0 1 .366 1.365l-.208.36a1 1 0 0 1-1.366.366l-.18-.104a2.416 2.416 0 0 0-2.863-3.497 2.41 2.41 0 0 0-1.16-1.614 2.41 2.41 0 0 0-1.977-.197 2.416 2.416 0 0 0-4.405-.82l-.224-.13-.944-3.32-.988 1.71-4.184-2.415 4.831-8.368 4.184 2.416-1.416 2.452 3.348-.843.863.498-1.852 3.207a2 2 0 0 0 .732 2.732l1.766 1.02a2 2 0 0 0 2.732-.733l.591-1.023 1.912 1.104v-.001l-1.912-1.103 2.91-5.039a2 2 0 0 0-.504-2.578l3.65-2.108zM12.089 21.09a1.208 1.208 0 1 1-2.092-1.208 1.208 1.208 0 0 1 2.092 1.208zm1.489 2.253a1.208 1.208 0 1 0 1.207-2.092 1.208 1.208 0 0 0-1.207 2.092zm4.788 1.37a1.208 1.208 0 1 1-2.092-1.208 1.208 1.208 0 0 1 2.092 1.208zM14.18 14.117a1.813 1.813 0 1 0 3.14 1.813l2.48-4.295a1.813 1.813 0 0 0-3.14-1.813l-2.48 4.295z"/>
</symbol><symbol id="pick" viewBox="0 0 24 24">
    <path fill-rule="evenodd" clip-rule="evenodd" d="M9 7.375C8.415 8.882 7 11 7 11v10l2 1h8.5a1.5 1.5 0 0 0 0-3h1a1.5 1.5 0 0 0 0-3h1a1.5 1.5 0 0 0 0-3h1a1.5 1.5 0 0 0 0-3H12s.758-1.565 1-2.625c.225-.983.185-2.664.115-3.884-.05-.849-.761-1.491-1.61-1.491-.854 0-1.569.647-1.684 1.493-.168 1.229-.448 2.92-.821 3.882zM3 10a1 1 0 0 0-1 1v10a1 1 0 0 0 1 1h3V10H3z"/>
</symbol><symbol id="platform" viewBox="0 0 24 24">
    <path fill-rule="evenodd" clip-rule="evenodd" d="M3 3l4.015.803L12 9.555l4.985-5.752L21 3l-.803 4.015-5.938 5.146 3.196 3.688 1.205-1.205a.568.568 0 1 1 .803.803l-1.205 1.205 2.41 2.41a1.136 1.136 0 0 1-1.607 1.605l-2.409-2.409-1.205 1.205a.568.568 0 0 1-.803-.803l1.205-1.205L12 14.12l-3.849 3.336 1.205 1.205a.568.568 0 0 1-.803.803l-1.205-1.205-2.41 2.41a1.136 1.136 0 0 1-1.605-1.607l2.409-2.409-1.205-1.205a.568.568 0 0 1 .803-.803l1.205 1.205 3.196-3.688-5.938-5.146L3 3z"/>
</symbol><symbol id="play" viewBox="0 0 24 24">
    <path fill-rule="evenodd" clip-rule="evenodd" d="M12 22c5.523 0 10-4.477 10-10S17.523 2 12 2 2 6.477 2 12s4.477 10 10 10zm-3-5l8-5-8-5v10z"/>
</symbol><symbol id="present" viewBox="0 0 48 48">
    <path fill-rule="evenodd" clip-rule="evenodd" d="M26.416 16H25v8h15v-8H26.416zm-4.832 0H23v8H8v-8h13.584zm16.877-2H40a2 2 0 0 1 2 2v8a2 2 0 0 1-2 2v15a1 1 0 0 1-1 1H9a1 1 0 0 1-1-1V26a2 2 0 0 1-2-2v-8a2 2 0 0 1 2-2h1.539c-.695-1.58-.77-3.733.085-5.32 1.38-2.563 4.438-3.44 6.83-1.961 1.61.997 4.477 4.864 6.175 7.28h2.742c1.699-2.416 4.564-6.283 6.176-7.28 2.39-1.48 5.449-.602 6.83 1.961.854 1.587.78 3.74.084 5.32zm-2.382 0h-8.252c.21-.29.43-.59.655-.892.778-1.048 1.612-2.116 2.384-3 .818-.938 1.417-1.493 1.733-1.688 1.352-.837 3.148-.404 4.017 1.209.401.744.503 1.86.236 2.913-.216.854-.559 1.28-.773 1.457zm-15.906 0c-.21-.29-.43-.59-.654-.892-.78-1.048-1.613-2.116-2.384-3-.819-.938-1.418-1.493-1.734-1.688-1.352-.837-3.148-.404-4.017 1.209-.4.744-.503 1.86-.236 2.913.216.854.559 1.28.773 1.457h8.252zM25 26h13v14H25V26zm-2 0H10v14h13V26z"/>
</symbol><symbol id="prize" viewBox="0 0 24 24">
    <path fill-rule="evenodd" clip-rule="evenodd" d="M11.82 5.827H7.67a2.13 2.13 0 0 1-1.34-2.5c.38-1.9 2.89-1.42 3.6-.65a9.22 9.22 0 0 1 1.26 1.85c.24.418.451.853.63 1.3.167-.446.364-.88.59-1.3a9.223 9.223 0 0 1 1.26-1.85c.71-.77 3.22-1.25 3.6.65a2.13 2.13 0 0 1-1.37 2.5h-4.08zm-6.87.88h5.52v3.35H4.95a.939.939 0 0 1-.95-.94v-1.46a1 1 0 0 1 .95-.95zm5.52 4.371H5.72a1.08 1.08 0 0 0-1.07 1.08v8.78a1.08 1.08 0 0 0 1.07 1.07h4.75v-10.93zm8.52 9.86v-8.78a1.08 1.08 0 0 0-1.07-1.08h-4.83v10.93h4.83a1.08 1.08 0 0 0 1.07-1.07zm.64-11.821v-1.46a1 1 0 0 0-.94-.95h-5.6v3.35h5.6a.94.94 0 0 0 .94-.94z"/>
</symbol><symbol id="profile" viewBox="0 0 24 24">
    <path fill-rule="evenodd" clip-rule="evenodd" d="M12 12a5 5 0 1 0 0-10 5 5 0 0 0 0 10zm-7.18 2.401c-.556.11-.914.643-.798 1.188l.984 5.614c.099.464.517.797 1.002.797h11.984c.485 0 .903-.333 1.002-.797l.984-5.614a1.003 1.003 0 0 0-.799-1.188l-6.976-1.381a1.046 1.046 0 0 0-.406 0L4.821 14.4z"/>
</symbol><symbol id="reddit" viewBox="0 0 279.748 279.748">
    <path d="M279.748 133.142c0-19.299-15.701-35-35-35-10.768 0-20.674 4.812-27.279 13.064-18.532-8.431-39.663-13.626-62.015-15.271l19.206-60.692 42.895 9.294c3.285 12.782 14.901 22.258 28.693 22.258 16.336 0 29.627-13.29 29.627-29.626 0-16.336-13.291-29.627-29.627-29.627-11.801 0-21.999 6.941-26.759 16.95l-49.497-10.725a10.002 10.002 0 0 0-11.651 6.756L134.636 95.43c-26.164.638-50.988 6.053-72.356 15.775-6.606-8.251-16.512-13.063-27.28-13.063-19.299 0-35 15.701-35 35 0 9.373 3.683 18.173 10.222 24.709-3.9 8.37-5.875 17.076-5.875 25.936 0 24.048 14.396 46.492 40.538 63.199 25.447 16.264 59.183 25.221 94.989 25.221 35.808 0 69.542-8.957 94.989-25.221 26.142-16.707 40.538-39.151 40.538-63.199 0-8.859-1.975-17.565-5.875-25.936 6.539-6.537 10.222-15.336 10.222-24.709zM15.369 145.139c-2.212-3.59-3.369-7.688-3.369-11.997 0-12.682 10.317-23 23-23 5.444 0 10.558 1.851 14.649 5.258-14.622 8.302-26.132 18.289-34.28 29.739zm52.671 20.266c0-13.785 11.215-25 25-25s25 11.215 25 25-11.215 25-25 25-25-11.215-25-25zm123.119 57.054c-9.745 10.637-29.396 17.244-51.285 17.244-21.888 0-41.539-6.607-51.284-17.244a9.937 9.937 0 0 1-2.617-7.192 9.933 9.933 0 0 1 3.235-6.937 9.974 9.974 0 0 1 6.754-2.627c2.797 0 5.484 1.183 7.373 3.244 5.803 6.333 20.827 10.756 36.539 10.756s30.737-4.423 36.539-10.756a10.022 10.022 0 0 1 7.374-3.244c2.508 0 4.906.933 6.755 2.627a9.928 9.928 0 0 1 3.234 6.937 9.933 9.933 0 0 1-2.617 7.192zm-4.451-32.054c-13.785 0-25-11.215-25-25s11.215-25 25-25 25 11.215 25 25-11.215 25-25 25zm77.671-45.266c-8.147-11.45-19.657-21.436-34.28-29.739 4.092-3.408 9.205-5.258 14.649-5.258 12.683 0 23 10.318 23 23 0 4.309-1.157 8.407-3.369 11.997z"/>
</symbol><symbol id="region" viewBox="0 0 24 24">
    <path fill-rule="evenodd" clip-rule="evenodd" d="M12 20a8 8 0 1 0 0-16 8 8 0 0 0 0 16zm0 2c5.523 0 10-4.477 10-10S17.523 2 12 2 2 6.477 2 12s4.477 10 10 10z"/>
    <path fill-rule="evenodd" clip-rule="evenodd" d="M14.528 18.042C15.398 16.592 16 14.462 16 12c0-2.461-.603-4.593-1.472-6.042C13.634 4.468 12.678 4 12 4c-.678 0-1.634.469-2.528 1.958C8.602 7.408 8 9.538 8 12c0 2.461.603 4.593 1.472 6.042C10.366 19.532 11.322 20 12 20c.678 0 1.634-.469 2.528-1.958zM12 22c3.314 0 6-4.477 6-10S15.314 2 12 2 6 6.477 6 12s2.686 10 6 10z"/>
    <path d="M11 4h2v16h-2V4z"/>
    <path d="M20 11v2H4v-2h16z"/>
</symbol><symbol id="role" viewBox="0 0 24 24">
    <path fill-rule="evenodd" clip-rule="evenodd" d="M12 4C8.507 4 4 2 4 2v12a8 8 0 1 0 16 0V2s-4.507 2-8 2zM8.388 9.051L5.49 8.275a3 3 0 1 0 5.796 1.553L8.388 9.05zm4.326.777l2.898-.777 2.897-.776a3 3 0 1 1-5.795 1.553zM12 15c-3.314 0-6-1-6-1 0 1.657 2.686 4 6 4s6-2.343 6-4c0 0-2.686 1-6 1z"/>
</symbol><symbol id="rules" viewBox="0 0 24 24">
    <path fill-rule="evenodd" clip-rule="evenodd" d="M9 2a1 1 0 0 0-1 1v2a1 1 0 0 0 1 1h6a1 1 0 0 0 1-1V3a1 1 0 0 0-1-1H9zM7 4H5a1 1 0 0 0-1 1v16a1 1 0 0 0 1 1h14a1 1 0 0 0 1-1V5a1 1 0 0 0-1-1h-2v2a1 1 0 0 1-1 1H8a1 1 0 0 1-1-1V4zm10 8.556L11.167 18 7 14.111l1.667-1.555 2.5 2.333L15.333 11 17 12.556z"/>
</symbol><symbol id="search" viewBox="0 0 20 20">
    <path d="M18.038 17.01l-3.726-3.726a7.043 7.043 0 0 0 1.585-4.46A7.08 7.08 0 0 0 8.824 1.75 7.08 7.08 0 0 0 1.75 8.824c0 3.9 3.174 7.073 7.074 7.073 1.689 0 3.242-.594 4.46-1.585l3.727 3.726a.717.717 0 0 0 1.03-.002.73.73 0 0 0-.003-1.025zM3.205 8.825A5.622 5.622 0 0 1 8.82 3.208a5.622 5.622 0 0 1 5.616 5.616 5.625 5.625 0 0 1-5.616 5.619 5.625 5.625 0 0 1-5.615-5.62z" stroke-width=".5"/>
</symbol><symbol id="settings" viewBox="0 0 24 24">
    <path fill-rule="evenodd" clip-rule="evenodd" d="M12 5.802l1.502.387a5.953 5.953 0 0 1 1.544.64l1.336.79.788 1.335c.282.477.5.996.641 1.544L18.198 12l-.387 1.502a5.955 5.955 0 0 1-.64 1.544l-.79 1.336-1.335.788c-.477.282-.996.5-1.544.641L12 18.198l-1.502-.387a5.954 5.954 0 0 1-1.544-.64l-1.336-.79-.788-1.335a5.953 5.953 0 0 1-.641-1.544L5.802 12l.387-1.502a5.952 5.952 0 0 1 .64-1.544l.79-1.336 1.335-.788c.477-.283.996-.5 1.544-.641L12 5.802zM19.748 10a7.957 7.957 0 0 0-.856-2.064l.886-.886a1 1 0 0 0 0-1.414l-1.414-1.414a1 1 0 0 0-1.414 0l-.886.886A7.952 7.952 0 0 0 14 4.252V3a1 1 0 0 0-1-1h-2a1 1 0 0 0-1 1v1.252a7.952 7.952 0 0 0-2.064.856l-.886-.886a1 1 0 0 0-1.414 0L4.222 5.636a1 1 0 0 0 0 1.414l.886.886A7.952 7.952 0 0 0 4.252 10H3a1 1 0 0 0-1 1v2a1 1 0 0 0 1 1h1.252c.189.734.48 1.427.856 2.064l-.886.886a1 1 0 0 0 0 1.414l1.414 1.414a1 1 0 0 0 1.414 0l.886-.886c.637.377 1.33.667 2.064.856V21a1 1 0 0 0 1 1h2a1 1 0 0 0 1-1v-1.252a7.957 7.957 0 0 0 2.064-.856l.886.886a1 1 0 0 0 1.414 0l1.414-1.414a1 1 0 0 0 0-1.414l-.886-.886c.377-.637.667-1.33.856-2.064H21a1 1 0 0 0 1-1v-2a1 1 0 0 0-1-1h-1.252zM14 12a2 2 0 1 1-4 0 2 2 0 0 1 4 0zm2 0a4 4 0 1 1-8 0 4 4 0 0 1 8 0z"/>
</symbol><symbol id="side" viewBox="0 0 24 24">
    <path fill-rule="evenodd" clip-rule="evenodd" d="M20 12a8 8 0 0 1-8 8V4a8 8 0 0 1 8 8zM12 2c5.523 0 10 4.477 10 10s-4.477 10-10 10S2 17.523 2 12 6.477 2 12 2z"/>
</symbol><symbol id="site" viewBox="0 0 24 24">
    <path fill-rule="evenodd" clip-rule="evenodd" d="M19 5H5v4h14V5zM3 5v14a2 2 0 0 0 2 2h14a2 2 0 0 0 2-2V5a2 2 0 0 0-2-2H5a2 2 0 0 0-2 2zm16 14v-8H5v8h14zM7 8a1 1 0 1 0 0-2 1 1 0 0 0 0 2zm4-1a1 1 0 1 1-2 0 1 1 0 0 1 2 0zm2 1a1 1 0 1 0 0-2 1 1 0 0 0 0 2z"/>
</symbol><symbol id="spectate" viewBox="0 0 24 24">
    <path fill-rule="evenodd" clip-rule="evenodd" d="M3 4a1 1 0 0 1 1-1h16a1 1 0 0 1 1 1v13a1 1 0 0 1-1 1h-6v2h2.5a.5.5 0 0 1 0 1h-9a.5.5 0 0 1 0-1H10v-2H4a1 1 0 0 1-1-1V4zm2 1h14v11H5V5zm10 5.5L10 13V8l5 2.5z"/>
</symbol><symbol id="speedometer" viewBox="0 0 20 20">
    <path d="M17.998 12.745a33.166 33.166 0 0 1-.008-.21v-.026l-.001-.014v-.033l-.001-.006-.003-.044-.014-.177-.004-.044-.005-.058a40.884 40.884 0 0 0-.01-.115c-.005-.038-.008-.077-.012-.115l-.006-.056-.007-.053c-.019-.139-.036-.275-.06-.406l-.035-.193a96.258 96.258 0 0 0-.038-.184c-.024-.12-.053-.231-.078-.335l-.02-.075-.02-.072-.036-.132-.034-.117-.031-.097-.035-.109a.083.083 0 0 0-.102-.054l-2.705.77a.083.083 0 0 0-.059.096l.01.054.013.067.012.08.014.09.007.05.006.051c.008.07.019.146.024.227l.01.124.007.13c.005.088.004.18.006.271v.065l-.003.06-.002.062v.03l-.002.044-.008.177-.002.044v-.02.002l-.001.009-.002.017-.006.07a89.92 89.92 0 0 1-.006.068l-.008.067c-.006.045-.01.089-.017.132l-.018.127-.02.12c-.007.04-.015.078-.023.114-.007.037-.013.072-.021.106l-.023.096a18.3 18.3 0 0 0-.01.044l-.01.036a3.355 3.355 0 0 0-.005.02h3.308a.083.083 0 0 0 .083-.078v-.001l.009-.19.003-.197c.002-.068 0-.136 0-.205l-.001-.104z"/>
    <path d="M17.137 9.274a.083.083 0 0 0 .044-.113l-.031-.067a21.14 21.14 0 0 1-.095-.195l-.066-.132c-.011-.024-.023-.044-.035-.067a36.154 36.154 0 0 0-.037-.068c-.025-.046-.05-.095-.078-.144l-.089-.152-.046-.079-.05-.08-.103-.163c-.073-.108-.147-.222-.229-.332l-.06-.084-.03-.042-.032-.042-.128-.165-.132-.161-.067-.08a93.224 93.224 0 0 1-.068-.077l-.067-.077a171.942 171.942 0 0 0-.204-.22c-.045-.047-.09-.091-.135-.136-.044-.044-.087-.088-.131-.128a318.4 318.4 0 0 1-.127-.118c-.04-.039-.082-.074-.12-.108l-.113-.098-.104-.086a65.628 65.628 0 0 1-.09-.075l-.08-.061-.087-.067a.083.083 0 0 0-.115.013L12.98 7.627a.083.083 0 0 0 .006.112l.042.042.05.05.058.06.065.07.07.078c.024.027.05.055.075.086l.078.093c.027.032.053.066.08.101.027.035.056.07.082.106l.082.113c.014.018.028.038.04.057l.04.06.041.059.04.06c.025.042.051.082.077.123l.073.125.019.03.017.032.034.063c.047.083.087.168.129.247l.056.12.027.059.024.058.048.11.04.104.02.05.017.045.027.077.023.068.027.079.023.07a.083.083 0 0 0 .11.051l2.517-1.011z"/>
    <path d="M9.744 6.134l.073.01.085.015c.03.005.063.01.097.017l.092.018.917-1.874-.135-.02-.09-.014-.088-.01c-.057-.008-.113-.014-.168-.02l-.157-.014c-.05-.004-.1-.01-.145-.011l-.131-.007-.115-.005-.097-.002-.105-.001a.083.083 0 0 0-.084.079l-.084 1.744a.083.083 0 0 0 .072.087l.063.008z"/>
    <path d="M12.207 7.095l.07.05.061.045c.009.005.022.016.033.024a10.631 10.631 0 0 1 .092.069.083.083 0 0 0 .12-.021l1.196-1.823a.083.083 0 0 0-.028-.117l-.065-.037a35.919 35.919 0 0 0-.035-.02l-.042-.024-.11-.061-.126-.068-.132-.067c-.047-.022-.094-.047-.145-.07l-.156-.072c-.053-.025-.11-.048-.166-.072-.057-.023-.115-.049-.175-.071l-.046-.018-.516 2.24.081.054.089.059z"/>
    <path d="M8.138 6.125l.068-.01c.023-.001.045-.004.068-.006l.128-.013.12-.008.057-.004.052-.003.092-.002.081-.003h.085l.074-.001c.048 0 .086-.04.082-.088l-.107-1.644a.083.083 0 0 0-.093-.077l-.074.01-.086.01-.12.018c-.042.007-.087.014-.134.02l-.07.013-.073.014-.153.03-.162.037-.085.019-.086.022-.177.047-.18.055c-.031.01-.062.018-.093.029l-.092.03-.093.033c-.03.01-.062.02-.092.033l-.185.07c-.061.024-.122.051-.182.076l-.09.039-.089.04-.087.041c-.03.013-.058.027-.086.041l-.167.085c-.055.027-.108.057-.16.085-.051.029-.102.056-.15.085l-.14.084c-.046.026-.088.055-.13.08l-.117.076-.104.072-.092.063c-.028.019-.053.038-.076.055l-.079.058a.083.083 0 0 0-.02.114l.683 1.003a.083.083 0 0 0 .11.026l.06-.035.068-.037.08-.042.092-.048.103-.05c.036-.016.072-.035.111-.052l.122-.053c.04-.02.084-.036.128-.053.045-.018.09-.037.136-.053l.14-.051c.024-.01.049-.017.073-.025l.073-.023.074-.024.075-.022.15-.042.152-.037c.025-.007.05-.012.076-.017l.075-.016.075-.016.074-.013.146-.025.141-.02z"/>
    <path d="M3.485 7.422l-.054.076-.054.077-.052.079-.104.158-.1.162-.024.04-.023.04-.047.082c-.063.107-.118.216-.173.32l-.076.156-.037.076-.034.075-.064.143-.056.135c-.018.044-.036.085-.05.125l-.043.114-.038.1-.029.085c-.011.034-.021.064-.03.087a.083.083 0 0 0 .05.104l.635.244a.083.083 0 0 0 .105-.042l.033-.069.035-.073.043-.084.05-.095c.017-.034.038-.068.058-.105l.063-.113.072-.118.037-.062.04-.062.083-.128c.06-.085.118-.174.184-.26l.049-.065.024-.033.026-.032.102-.128c.034-.043.07-.084.105-.126l.053-.061.055-.06.054-.06c.017-.02.035-.04.054-.058l.108-.112c.035-.036.072-.07.107-.105.035-.034.069-.068.104-.099l.1-.09c.032-.03.066-.057.096-.084l.088-.075a119.34 119.34 0 0 0 .147-.116l.034-.026.033-.025.059-.045a.083.083 0 0 0 .013-.12l-.723-.847a.083.083 0 0 0-.12-.006l-.054.052-.03.028-.033.033-.08.08-.091.093-.094.101c-.032.036-.067.072-.1.11l-.105.122c-.036.041-.071.085-.107.13-.036.045-.074.09-.11.137a388.924 388.924 0 0 0-.164.22z"/>
    <path d="M2.171 10.393l-.015.072-.017.084-.018.106-.021.12-.011.066-.01.067c-.011.092-.027.191-.036.297l-.016.161-.011.17c-.01.114-.011.233-.015.354L2 11.935v.137l.001.091v.046l.002.046.008.182.002.046v.014l.001.011.002.022.006.087.006.087.01.09.008.088a32.23 32.23 0 0 0 .01.086l.02.166.025.159c.007.051.017.1.026.149l.002.011c.007.04.042.068.082.068h.223c.048 0 .086-.04.083-.088l-.002-.038c-.003-.047-.006-.095-.007-.144l-.005-.152-.001-.158v-.04-.04l.002-.082.002-.082.004-.086.004-.088.001-.022v-.012.002l.001-.002v-.006l.004-.042.013-.17.004-.043.005-.043.01-.084.01-.085.004-.042.006-.041c.017-.11.032-.22.053-.324.01-.052.019-.104.03-.153l.032-.146c.02-.095.045-.184.065-.266l.016-.06.016-.055.03-.102.028-.09.027-.082.023-.07a.083.083 0 0 0-.057-.106l-.561-.15a.083.083 0 0 0-.103.064z"/>
    <path d="M8.523 13.3a1.291 1.291 0 0 0 1.826-.87l1.307-5.67.497-2.16.309-1.338c.036-.156-.088-.262-.213-.262a.203.203 0 0 0-.186.12l-.628 1.283-.925 1.893-2.58 5.277a1.292 1.292 0 0 0 .593 1.728zm.615-1.825a.633.633 0 1 1 0 1.266.633.633 0 0 1 0-1.266z"/>
</symbol><symbol id="stand-in" viewBox="0 0 24 24">
    <path fill-rule="evenodd" clip-rule="evenodd" d="M11.073 5.554a3.554 3.554 0 1 1-7.109 0 3.554 3.554 0 0 1 7.109 0zm-9.069 7.379a1 1 0 0 1 .632-1.026l4.518-1.765a1 1 0 0 1 .728 0l4.519 1.765a1 1 0 0 1 .631 1.026l-.774 8.161a1 1 0 0 1-.995.906h-7.49a1 1 0 0 1-.995-.906l-.774-8.161zm16.946-8.64l2.828 2.828a1 1 0 0 1 0 1.415l-2.828 2.828a1 1 0 0 1-1.415-1.414l1.121-1.12H15a1 1 0 1 1 0-2h3.657l-1.122-1.123a1 1 0 0 1 1.415-1.414zm-1.828 9l-2.829 2.828a1 1 0 0 0 0 1.415l2.829 2.828a1 1 0 0 0 1.414-1.414l-1.12-1.12h3.655a1 1 0 1 0 0-2h-3.657l1.122-1.123a1 1 0 0 0-1.415-1.414z"/>
</symbol><symbol id="star" viewBox="0 0 24 24">
    <path d="M12 3l2.02 6.219h6.54l-5.29 3.843 2.02 6.22L12 15.437 6.71 19.28l2.02-6.219L3.44 9.22h6.54L12 3z"/>
</symbol><symbol id="steam" viewBox="0 0 24 24">
    <path fill-rule="evenodd" clip-rule="evenodd" d="M2.411 14.918A10.014 10.014 0 0 0 11.99 22C17.518 22 22 17.523 22 12S17.518 2 11.99 2C6.683 2 2.342 6.123 2 11.336l.004.006 5.378 2.212a2.747 2.747 0 0 1 1.641-.454l2.45-3.555-.001-.05a3.808 3.808 0 0 1 3.802-3.804 3.807 3.807 0 0 1 3.803 3.805 3.808 3.808 0 0 1-3.889 3.804l-3.505 2.502a2.778 2.778 0 0 1-3.844 2.637 2.771 2.771 0 0 1-1.64-1.96l-3.788-1.561zm5.672 2.936a2.144 2.144 0 0 0 2.804-2.794 2.125 2.125 0 0 0-1.156-1.163 2.131 2.131 0 0 0-1.58-.024l1.28.53a1.577 1.577 0 1 1-1.212 2.912l-1.238-.512c.219.457.599.841 1.102 1.05zm4.658-8.358a2.537 2.537 0 0 0 2.533 2.535 2.538 2.538 0 0 0 2.534-2.535 2.538 2.538 0 0 0-2.534-2.535 2.538 2.538 0 0 0-2.533 2.535zm2.537-1.909a1.904 1.904 0 0 0 0 3.809 1.904 1.904 0 0 0 0-3.809z"/>
</symbol><symbol id="streak" viewBox="0 0 32 32">
    <path fill-rule="evenodd" clip-rule="evenodd" d="M21.333 2.667H8l-2.667 16h6.496L8 29.333l18.667-14.666H15.333l6-12z"/>
</symbol><symbol id="system" viewBox="0 0 24 24">
    <path fill-rule="evenodd" clip-rule="evenodd" d="M4 3a1 1 0 0 1 1-1h14a1 1 0 0 1 1 1v3H4V3zm0 4h16v4H4V7zm16 5H4v4h16v-4zM4 17h16v4a1 1 0 0 1-1 1H5a1 1 0 0 1-1-1v-4zm8.5 4a1.5 1.5 0 1 0 0-3 1.5 1.5 0 0 0 0 3z"/>
</symbol><symbol id="team" viewBox="0 0 24 24">
    <path fill-rule="evenodd" clip-rule="evenodd" d="M12.757 2.165a2.52 2.52 0 0 0-.977-.164 2.48 2.48 0 0 0-2.48 2.57 2.55 2.55 0 0 0 2.51 2.48 2.59 2.59 0 0 0 2.57-2.58 2.522 2.522 0 0 0-1.623-2.306zM7.713 4.277A2 2 0 0 0 4.32 5.653a2 2 0 0 0 4 0 2 2 0 0 0-.607-1.376zM3 9.311v5.5a.54.54 0 0 0 .54.53.54.54 0 0 1 .54.53v4.87a.7.7 0 0 0 .7.69h2.91a.658.658 0 0 0 .67-.66v-4.15a.54.54 0 0 0-.58-.53.54.54 0 0 1-.54-.54v-6.66a.54.54 0 0 0-.46-.53H3.97a1 1 0 0 0-.97.95zm12.956-5.034a2 2 0 0 1 3.394 1.376 2 2 0 1 1-4 0 2 2 0 0 1 .606-1.376zm4.714 5.034v5.5a.54.54 0 0 1-.54.53.54.54 0 0 0-.54.53v4.87a.7.7 0 0 1-.7.69h-3.16a.659.659 0 0 1-.67-.66v-4.15a.54.54 0 0 1 .54-.53.83.83 0 0 0 .79-.75v-6.45a.54.54 0 0 1 .54-.53h2.77a1 1 0 0 1 .97.95zM8.78 7.851h6.01a.6.6 0 0 1 .6.6v6.1a.6.6 0 0 1-.6.6.6.6 0 0 0-.6.6v5.6a.6.6 0 0 1-.6.6H9.98a.6.6 0 0 1-.6-.6v-5.6a.6.6 0 0 0-.6-.6.6.6 0 0 1-.6-.6v-6.1a.6.6 0 0 1 .6-.6z"/>
</symbol><symbol id="telegramMedia" viewBox="0 0 24 24">
    <path d="M2.353 11.35l4.609 1.72 1.783 5.736a.542.542 0 0 0 .862.26l2.569-2.095c.27-.219.653-.23.934-.026l4.633 3.364c.32.232.771.057.851-.328l3.394-16.326a.543.543 0 0 0-.727-.618L2.348 10.333a.544.544 0 0 0 .005 1.017zm6.105.804l9.007-5.547c.161-.1.328.12.189.248l-7.433 6.91a1.54 1.54 0 0 0-.478.922l-.253 1.876c-.033.25-.385.275-.454.033l-.974-3.422a.907.907 0 0 1 .396-1.02z"/>
</symbol><symbol id="timer" viewBox="0 0 24 24">
    <path fill-rule="evenodd" clip-rule="evenodd" d="M9 2h6v2h-2v2.062a7.95 7.95 0 0 1 3.215 1.137l1.2-1.2 1.413 1.415-1.051 1.052a8 8 0 1 1-11.637.088L5 7.414 6.414 6 7.68 7.266A7.951 7.951 0 0 1 11 6.062V4H9V2zm3 18a6 6 0 1 0 0-12 6 6 0 0 0 0 12zm4-7.78l-4.647 4.38L8 13.441l1.295-1.22 2.058 1.939L14.706 11 16 12.22z"/>
</symbol><symbol id="tournaments" viewBox="0 0 24 24">
    <path fill-rule="evenodd" clip-rule="evenodd" d="M17 5V4a1 1 0 1 0 0-2H7a1 1 0 0 0 0 2v1H5a1 1 0 0 0-1 1v4a1 1 0 0 0 1 1h2.07c.261 1.874 1.247 3.453 2.6 4.31C11.023 16.167 9 20 9 20H8a1 1 0 1 0 0 2h8a1 1 0 1 0 0-2h-1s-2.023-3.833-.67-4.69c1.353-.857 2.339-2.436 2.6-4.31H19a1 1 0 0 0 1-1V6a1 1 0 0 0-1-1h-2zm0 1v4h1a1 1 0 0 0 1-1V7a1 1 0 0 0-1-1h-1zM6 6h1v4H6a1 1 0 0 1-1-1V7a1 1 0 0 1 1-1zm6.674 1.073L12 5l-.674 2.073h-2.18l1.764 1.281-.673 2.073L12 9.146l1.763 1.281-.673-2.073 1.763-1.281h-2.18z"/>
</symbol><symbol id="trash" viewBox="0 0 24 24">
    <path fill-rule="evenodd" clip-rule="evenodd" d="M12 2a2 2 0 0 0-2 2H5a1 1 0 0 0 0 2h14a1 1 0 1 0 0-2h-5a2 2 0 0 0-2-2zM5 7h14l-.267 2-1.502 11.264A2 2 0 0 1 15.25 22H8.751a2 2 0 0 1-1.982-1.736L5.267 9 5 7zm3.751 13L7.284 9h9.432l-1.467 11H8.751z"/>
</symbol><symbol id="ts" viewBox="0 0 24 24">
    <path fill-rule="evenodd" clip-rule="evenodd" d="M12.516 3.39a.536.536 0 0 0-1.032 0l-.336 1.08a.545.545 0 0 1-.516.39H9.543c-.525 0-.743.7-.318 1.021l.88.667c.19.144.27.399.197.631l-.336 1.08c-.162.52.41.952.834.63l.881-.666a.525.525 0 0 1 .638 0l.88.667c.426.321.997-.112.835-.632l-.336-1.079a.578.578 0 0 1 .197-.631l.88-.667c.425-.322.207-1.022-.318-1.022h-1.09a.545.545 0 0 1-.515-.39l-.336-1.079zm-2.268 8.943L3 5s.017 2.944.659 4.667C4.189 11.087 5.636 13 5.636 13a.924.924 0 0 1 1.318 0 .95.95 0 0 1 0 1.334l.658.666-.328.332a.475.475 0 0 0 0 .667.462.462 0 0 0 .659 0l.33-.334 1.09 1.105-.84.85a1.014 1.014 0 0 0 0 1.423l1.229 1.245a.986.986 0 0 0 1.406 0l.842-.852.841.852a.986.986 0 0 0 1.406 0l1.23-1.245a1.014 1.014 0 0 0 0-1.422l-.841-.851 1.09-1.104.33.333a.462.462 0 0 0 .66 0 .475.475 0 0 0 0-.667l-.33-.332.66-.666a.95.95 0 0 1 0-1.333.924.924 0 0 1 1.317 0c.013-.017 1.45-1.92 1.977-3.334C20.982 7.944 21 5 21 5l-7.25 7.333-.33-.334a.462.462 0 0 0-.659 0 .475.475 0 0 0 0 .666l.33.334L12 14.103l-1.092-1.104.33-.334a.475.475 0 0 0 0-.666.462.462 0 0 0-.66 0l-.33.334z"/>
</symbol><symbol id="twitch" viewBox="0 0 24 24">
    <path fill-rule="evenodd" clip-rule="evenodd" d="M5.125 3L4 6.375V18.75h4.5V21h2.25L13 18.75h3.375l4.5-4.793V3H5.125zM19.75 13.125L16.6 16.5h-3.99l-2.422 1.763V16.5H6.25V4.125h13.5v9zM13 7.5h-1.125V12H13V7.5zm2.25 0h1.125V12H15.25V7.5z"/>
</symbol><symbol id="twitter" viewBox="0 0 24 24">
    <path d="M22 5.893a8.29 8.29 0 0 1-2.356.636 4.07 4.07 0 0 0 1.804-2.234 8.35 8.35 0 0 1-2.607.981A4.12 4.12 0 0 0 15.846 4c-2.266 0-4.103 1.81-4.103 4.04 0 .316.036.625.106.92a11.708 11.708 0 0 1-8.456-4.222A3.964 3.964 0 0 0 2.84 6.77c0 1.402.724 2.64 1.824 3.363a4.15 4.15 0 0 1-1.858-.507v.05c0 1.958 1.415 3.59 3.29 3.963a4.215 4.215 0 0 1-1.08.141c-.266 0-.522-.026-.773-.075a4.098 4.098 0 0 0 3.832 2.806 8.312 8.312 0 0 1-5.095 1.727A8.85 8.85 0 0 1 2 18.182 11.727 11.727 0 0 0 8.289 20c7.547 0 11.673-6.157 11.673-11.496l-.014-.523A8.126 8.126 0 0 0 22 5.893z"/>
</symbol><symbol id="underlords" viewBox="0 0 48 43">
    <g clip-path="url(#a)">
        <path d="M47.898 14.219c.042-.27-.44-.29-.293-.602.042-.083.063-.166.084-.25.02-.166.084-.435-.021-.498-.837-.56.063-.83.188-1.204.23-1.577.126-3.155.042-4.732-.063-.478-.586-.25-.795-.457.063-.623.712-.955.774-1.557-.125-.892-.188-1.785 0-2.677-.042-.063-.042-.125.021-.167-.063-.062-.063-.103-.02-.166-.315-.58.209-1.328-.315-1.888-.23.083-.46.145-.711.228-.418 0-.607.332-.837.602-.147.228-.377.373-.586.519a5.798 5.798 0 0 0-1.046 1.1c-.126.187-.251.374-.419.519l-.292.29c-.419.457-.9.81-1.402 1.184-2.01 2.387-4.332 4.483-6.466 6.746-2.406 2.532-5.085 4.816-7.533 7.327-2.071 1.951-3.87 4.193-6.068 6.02a1121.973 1121.973 0 0 1-7.072 7.016c-.586.581-.69 1.059-.251 1.806.44.768 1.025 1.39 1.653 1.972.565.54 1.025 1.12 1.255 1.868.503.706 1.256 1.162 1.82 1.785.356.374.754.747 1.34.478.314-.146.21.083.25.207.273.81.88 1.37 1.445 1.951.46.457.941.83 1.61.415.336-.207.587-.498.859-.768 2.26-2.241 4.52-4.504 6.8-6.725 4.206-4.338 8.705-8.386 12.973-12.662.816-.851 1.674-1.66 2.511-2.47.356-.353.565-.789.586-1.287 0-1.308.084-2.616-.084-3.923z"/>
        <path d="M15.756 28.376c.377-.27.648-.644.92-1.018.126-.166.252-.332.377-.477 1.862-2.387 4.373-4.11 6.466-6.269 1.15-1.183 2.364-2.304 3.557-3.445 2.092-2.118 4.164-4.256 6.298-6.332.544-.54.356-1.12-.063-1.224-.962-.229-1.046-1.183-1.653-1.62-.523-.394-.753-1.203-1.57-1.183-.271.229-.669.146-.92.416-.25.166-.104-.083-.167-.125-.042-.249.188-.436.167-.685.23-.789-.25-1.1-.878-1.328-.273-.104-.754 0-.733-.416.042-1.515-2.009-1.37-2.176-2.74-.02-.103-.314-.103-.46 0-.251.167-.419.187-.502-.186-.147-.56-.46-.353-.754-.125-.209.166-.418.353-.648.519-.23-.041-.419.062-.586.187C15.463 9.175 8.64 16.17 1.486 22.833.084 24.141 0 25.615.126 27.255c.062.685.418.81 1.004.456.586-.352 1.004-.871 1.486-1.328l-.042.041c-.46.457-.858.997-1.34 1.412-.857.747-1.213 1.702-1.192 2.844.02 1.017.042 2.055-.021 3.072 0 .913-.021 1.847.02 2.76-.083.561.064 1.121-.02 1.682-.021.955-.042 1.889.02 2.844-.02.456-.041.913.315 1.266.125.187-.021.457.209.602.46.041.67-.29.942-.54l2.008-1.93c.168-.187.46-.083.586-.312.356-.436.753-.83 1.172-1.204.356-.352.858-.602.9-1.203 3.117-2.948 5.816-6.31 9.185-9.01.168-.082.293-.207.398-.331zm-12.931-2.18l.083-.083c.105-.062.21-.145.482-.353-.23.208-.419.332-.565.436z"/>
        <path d="M.357 9.092c-.146.145-.21.332-.251.54 0 .809-.188 1.598-.063 2.407.084 1.1.042 2.221.042 3.321 0 .872-.02 1.723.02 2.595.043.976.67 1.62 1.466 1.993.711.332 1.109-.395 1.548-.789.69-.643 1.34-1.308 2.009-1.972 1.946-1.93 3.87-3.902 5.817-5.812.795-.768.774-1.017.02-1.806a53.836 53.836 0 0 0-1.548-1.536c-.418-.374-.774-.81-1.339-.955-.418-.29-.774-.623-1.046-1.038-.712-.54-1.318-1.183-1.904-1.868a.564.564 0 0 1-.377-.374c-.042-.394-.314-.56-.67-.664a1.317 1.317 0 0 1-.585-.581c-.189-.519-.46-.976-1.088-1.059l-.419-.415C1.864.913 1.738.79 1.612.664 1.278.519 1.09 0 .65.228.231.456.483.892.44 1.245.4 1.577.4 1.93.379 2.262c-.398.416-.314.934-.314 1.433-.02.954-.063 1.889.063 2.843.397.623-.147 1.37.25 1.993.106.187.357.395-.02.56z"/>
        <path d="M47.665 30.285l-.02.02c-.398-.393.313-.705.062-1.1-.146-.29-.042-.601-.042-.892-.083-1.826.754-3.881-1.255-5.252-.69 0-.774.706-1.151 1.06-2.657 2.573-5.273 5.21-7.93 7.804-.523.498-.544.789-.021 1.308 1.883 1.826 3.724 3.715 5.566 5.584a6.719 6.719 0 0 1 1.443 1.432c.105.311.335.519.649.643.356.208.628.478.837.83.398.27.732.623 1.025 1.018.272-.104.754.685.816-.125.063-.685.272-1.453-.23-2.096.335-.499.335-1.059.335-1.62-.021-1.68.02-3.383-.021-5.064 0-1.225.167-2.387-.063-3.55z"/>
    </g>
    
</symbol><symbol id="unlock-old" viewBox="0 0 24 24">
    <path fill-rule="evenodd" clip-rule="evenodd" d="M6 8a6 6 0 1 1 12 0h-2a4 4 0 0 0-8 0v2h10a2 2 0 0 1 2 2v8a2 2 0 0 1-2 2H6a2 2 0 0 1-2-2v-8a2 2 0 0 1 2-2V8zm0 12v-8h12v8H6zm8-5a2 2 0 0 1-1.031 1.75c.02.08.031.164.031.25v1a1 1 0 1 1-2 0v-1c0-.086.01-.17.031-.25A2 2 0 1 1 14 15z"/>
</symbol><symbol id="unlock" viewBox="0 0 20 20">
    <path fill-rule="evenodd" clip-rule="evenodd" d="M6 2a4 4 0 0 1 4 4v1h6a2 2 0 0 1 2 2v7a2 2 0 0 1-2 2H7a2 2 0 0 1-2-2V9a2 2 0 0 1 2-2h1V6a2 2 0 1 0-4 0v3.333H2V6a4 4 0 0 1 4-4zm6.474 11.125a1.666 1.666 0 1 0-1.614 0 .835.835 0 0 0-.027.208v.834a.833.833 0 0 0 1.667 0v-.834a.835.835 0 0 0-.026-.208z"/>
</symbol><symbol id="vk" viewBox="0 0 24 24">
    <path d="M21.822 16.178c-.054-.09-.386-.812-1.987-2.297-1.675-1.555-1.45-1.303.568-3.992 1.229-1.637 1.72-2.638 1.566-3.065-.146-.408-1.05-.3-1.05-.3l-3.005.017s-.223-.03-.389.07c-.161.097-.265.322-.265.322S16.784 8.2 16.15 9.278c-1.339 2.274-1.875 2.394-2.094 2.252-.509-.328-.381-1.322-.381-2.027 0-2.204.333-3.123-.652-3.36-.327-.08-.567-.132-1.404-.14-1.072-.012-1.98.003-2.495.255-.342.167-.606.54-.445.562.199.026.65.121.888.446.309.42.297 1.362.297 1.362s.178 2.594-.413 2.916c-.407.221-.963-.23-2.157-2.294C6.682 8.194 6.22 7.025 6.22 7.025s-.088-.217-.247-.334c-.193-.14-.463-.186-.463-.186l-2.857.018s-.43.012-.587.198c-.14.167-.011.51-.011.51s2.238 5.233 4.77 7.872c2.324 2.42 4.962 2.26 4.962 2.26h1.195s.361-.04.545-.238c.17-.183.164-.525.164-.525s-.024-1.604.721-1.84c.734-.233 1.677 1.55 2.675 2.236.755.519 1.33.405 1.33.405l2.67-.038s1.398-.086.736-1.185z"/>
</symbol><symbol id="warning" viewBox="0 0 24 24">
    <path fill-rule="evenodd" clip-rule="evenodd" d="M12 22c5.523 0 10-4.477 10-10S17.523 2 12 2 2 6.477 2 12s4.477 10 10 10zM10.333 5.333h3.333v8.334h-3.333V5.333zM13.666 17a1.667 1.667 0 1 1-3.333 0 1.667 1.667 0 0 1 3.333 0z"/>
</symbol><symbol id="weplay" viewBox="0 0 24 24">
    <path d="M21.335 14.426a2.285 2.285 0 0 0-1.243-.617c-1.814-.232-2.72-.643-3.964-1.904-1.243-1.235-1.657-2.084-1.942-3.885a2.36 2.36 0 0 0-.622-1.364A2.22 2.22 0 0 0 11.984 6a2.233 2.233 0 0 0-1.58.656 2.204 2.204 0 0 0-.661 1.57 2.193 2.193 0 0 0 .66 1.57c.356.35.823.568 1.322.617H11.7c1.84.231 2.824.797 3.964 1.955 1.14 1.132 1.761 2.059 1.917 3.989v-.026c.084.462.3.89.622 1.235a2.22 2.22 0 0 0 1.58.656 2.233 2.233 0 0 0 1.58-.656 2.22 2.22 0 0 0-.027-3.14zm-10.932 0a2.202 2.202 0 0 0-.66 1.57 2.193 2.193 0 0 0 .66 1.57 2.22 2.22 0 0 0 1.58.656 2.233 2.233 0 0 0 1.581-.656 2.205 2.205 0 0 0 .661-1.57 2.193 2.193 0 0 0-.66-1.57 2.221 2.221 0 0 0-1.581-.656 2.232 2.232 0 0 0-1.58.656zM4.187 18.21a2.242 2.242 0 0 0 1.594-.638 2.212 2.212 0 0 0 .663-1.575 2.2 2.2 0 0 0-.663-1.575 2.23 2.23 0 0 0-3.143.024 2.205 2.205 0 0 0 0 3.1c.409.415.965.653 1.549.664z"/>
</symbol><symbol id="youtube" viewBox="0 0 24 24">
    <path d="M21.15 6.285c-.542-.936-1.131-1.108-2.33-1.173C17.622 5.032 14.611 5 12.002 5c-2.613 0-5.626.033-6.822.11-1.196.067-1.786.238-2.334 1.175C2.288 7.219 2 8.829 2 11.663v.01c0 2.822.288 4.443.846 5.368.548.936 1.136 1.106 2.333 1.184 1.197.068 4.21.108 6.823.108 2.61 0 5.62-.04 6.82-.106 1.198-.08 1.787-.249 2.33-1.185.563-.924.848-2.546.848-5.368v-.006-.004c0-2.835-.285-4.445-.85-5.38zM9.5 15.303V8.03l6.25 3.637-6.25 3.636z"/>
</symbol><symbol id="zenMedia" viewBox="0 0 24 24">
    <path fill-rule="evenodd" clip-rule="evenodd" d="M12 22C6.477 22 2 17.523 2 12S6.477 2 12 2s10 4.477 10 10-4.477 10-10 10zm1.184-7.676l-4.78-4.155-.015.005V7.917L15.6 5.436v2.256L10.867 9.32l4.78 4.156.01-.004v2.256l-7.212 2.482v-2.256l4.739-1.63z"/>
</symbol><symbol id="zendesk" viewBox="0 0 24 24">
    <path d="M11.239 8.074v11.357h-9.24l9.24-11.357zm0-4.074c0 2.595-2.065 4.698-4.615 4.698C4.075 8.698 2 6.595 2 4h9.239zm1.522 15.431c0-2.595 2.065-4.698 4.614-4.698 2.55 0 4.615 2.103 4.615 4.698h-9.23zm0-4.074V4H22l-9.24 11.357z"/>
</symbol></svg>