<svg width="53" height="49" viewBox="0 0 53 49" fill="none" xmlns="http://www.w3.org/2000/svg">
<g clip-path="url(#clip0)">
<path d="M42.4774 8.17871H10.8854V41.0123H42.4774V8.17871Z" fill="#FCEB2C"/>
<path d="M7.47469 1.97925V8.17876H5.85397C5.22503 8.17876 4.71704 7.67803 4.71704 7.05808V3.09993C4.71704 2.47998 5.22503 1.97925 5.85397 1.97925H7.47469Z" fill="#FCEB2C"/>
<path d="M43.1306 1.97925H10.4985V8.17876H43.1306V1.97925Z" fill="#FCEB2C"/>
<path d="M10.4985 1.88386V8.15491C10.4985 8.82255 9.9421 9.34712 9.28897 9.34712H8.68422C8.00691 9.34712 7.47473 8.79871 7.47473 8.15491V1.88386C7.47473 1.21622 8.00691 0.69165 8.68422 0.69165H9.28897C9.9421 0.69165 10.4985 1.24007 10.4985 1.88386Z" fill="#FCEB2C"/>
<path d="M46.1544 1.88386V8.15491C46.1544 8.82255 45.598 9.34712 44.9449 9.34712H44.3402C43.6629 9.34712 43.1307 8.79871 43.1307 8.15491V1.88386C43.1307 1.21622 43.687 0.69165 44.3402 0.69165H44.9449C45.6222 0.69165 46.1544 1.24007 46.1544 1.88386Z" fill="#FCEB2C"/>
<path d="M4.6929 3.24297V7.03421C4.33005 7.27265 3.87045 7.43956 3.38665 7.43956C2.10459 7.43956 1.06442 6.41426 1.06442 5.15051C1.06442 3.88676 2.10459 2.86146 3.38665 2.86146C3.87045 2.83761 4.33005 2.98068 4.6929 3.24297Z" fill="#FCEB2C"/>
<path d="M48.6701 3.09985V7.03415C48.6701 7.65411 48.1621 8.15484 47.5332 8.15484H46.1785V1.95532H47.5332C48.1621 1.97917 48.6701 2.4799 48.6701 3.09985Z" fill="#FCEB2C"/>
<path d="M52.3953 5.1267C52.3953 6.39044 51.3551 7.41575 50.0731 7.41575C49.5409 7.41575 49.0571 7.24884 48.67 6.93886V3.31453C49.0571 3.00456 49.5409 2.83765 50.0731 2.83765C51.3551 2.83765 52.3953 3.86295 52.3953 5.1267Z" fill="#FCEB2C"/>
<path d="M7.47469 41.0122V47.2117H5.85397C5.22503 47.2117 4.71704 46.711 4.71704 46.091V42.1567C4.71704 41.5368 5.22503 41.0361 5.85397 41.0361H7.47469V41.0122Z" fill="#FCEB2C"/>
<path d="M43.1306 41.0122H10.4985V47.2117H43.1306V41.0122Z" fill="#FCEB2C"/>
<path d="M10.4985 40.9169V47.2118C10.4985 47.8794 9.9421 48.404 9.28897 48.404H8.68422C8.00691 48.404 7.47473 47.8556 7.47473 47.2118V40.9408C7.47473 40.2731 8.00691 39.7486 8.68422 39.7486H9.28897C9.9421 39.7247 10.4985 40.2731 10.4985 40.9169Z" fill="#FCEB2C"/>
<path d="M46.1544 40.9169V47.2118C46.1544 47.8794 45.598 48.404 44.9449 48.404H44.3402C43.6629 48.404 43.1307 47.8556 43.1307 47.2118V40.9408C43.1307 40.2731 43.687 39.7486 44.3402 39.7486H44.9449C45.6222 39.7247 46.1544 40.2731 46.1544 40.9169Z" fill="#FCEB2C"/>
<path d="M4.6929 42.2761V46.0673C4.33005 46.3058 3.87045 46.4727 3.38665 46.4727C2.10459 46.4727 1.06442 45.4474 1.06442 44.1836C1.06442 42.9199 2.10459 41.8946 3.38665 41.8946C3.87045 41.8708 4.33005 42.0377 4.6929 42.2761Z" fill="#FCEB2C"/>
<path d="M48.6701 42.1331V46.0674C48.6701 46.6873 48.1621 47.188 47.5332 47.188H46.1785V40.9885H47.5332C48.1621 41.0124 48.6701 41.5131 48.6701 42.1331Z" fill="#FCEB2C"/>
<path d="M52.3953 44.1599C52.3953 45.4236 51.3551 46.449 50.0731 46.449C49.5409 46.449 49.0571 46.282 48.67 45.9721V42.3477C49.0571 42.0378 49.5409 41.8708 50.0731 41.8708C51.3551 41.8708 52.3953 42.8962 52.3953 44.1599Z" fill="#FCEB2C"/>
<path d="M10.8856 8.17871C10.8856 8.17871 10.7646 10.1339 11.2484 10.6108C11.7564 11.0877 12.3853 11.3738 11.9983 11.6838C11.6113 11.9938 11.1275 14.1875 11.4903 14.9266C11.8532 15.6658 12.7724 15.4751 12.7724 15.5943C12.7724 15.7373 10.5469 19.314 11.3694 20.7685C12.1676 22.223 13.3287 21.1023 13.619 20.9116C13.9335 20.7208 13.8851 21.8892 13.111 22.533C12.337 23.2006 10.8372 24.822 10.8372 25.4658C10.8614 26.1096 12.1676 25.5373 12.5063 25.6566C12.8208 25.7758 10.8372 27.1588 10.8372 29.2571C10.8372 31.3554 12.8933 33.6444 10.8614 39.1047" fill="#FCEB2C"/>
<path d="M42.4775 11.0161C42.4775 11.0161 42.3565 11.8507 41.8727 12.0653C41.3889 12.2799 41.5341 12.566 41.6066 12.9713C41.6792 13.3767 41.776 13.949 41.2438 14.1159C40.7116 14.2828 40.3004 14.4258 40.7842 14.9743C41.268 15.5227 42.2598 16.9295 41.8969 17.621C41.5341 18.3125 40.9051 18.4555 41.2438 19.2662C41.5824 20.0769 41.6308 20.5061 41.5099 20.53C41.3647 20.5538 40.9535 20.53 40.9535 20.53C40.9535 20.53 41.5583 22.7475 41.3164 22.9621C41.0745 23.1767 39.1877 23.3913 39.357 23.7728C39.5263 24.1543 41.4373 26.0619 41.6066 26.5387C41.776 27.0156 40.9051 27.9456 41.147 28.3509C41.3889 28.7563 42.1146 30.2823 41.9453 30.4015C41.776 30.5207 39.5263 29.9008 39.357 30.1631C39.1877 30.4254 41.147 31.8799 41.5341 32.4044C41.9211 32.929 41.1954 34.1689 41.147 34.5743C41.0987 34.9796 41.9695 37.2925 41.5341 37.7456C41.0986 38.1986 40.1069 37.8886 40.373 38.294C40.639 38.6993 42.0421 39.3431 41.9211 41.0122" fill="#FCEB2C"/>
<path d="M17.3684 14.6406C17.3684 14.6406 26.6573 14.6645 29.8503 14.4976C33.0434 14.3306 34.1319 13.9253 34.398 13.5676C34.6883 13.21 34.6883 13.21 34.6883 13.21L35.293 13.3292L36.5025 14.736L36.9138 16.5958C36.9138 16.5958 36.3332 16.8343 35.8736 17.5496C35.414 18.2649 34.906 19.7433 34.3496 24.8221C33.7933 29.901 33.7691 33.0961 33.6723 34.1691C33.5998 35.2421 33.2127 36.1005 32.0274 36.2197C30.8421 36.3389 29.5842 35.2898 29.6084 34.5506C29.6326 33.8114 29.9229 33.8591 30.5276 33.263C31.1324 32.6669 33.7691 18.3126 33.8658 17.6212C33.9626 16.9297 33.7207 16.0713 32.5354 15.9997C31.3501 15.9282 17.3684 15.4513 17.3684 15.4513C17.3684 15.4513 16.5217 15.0698 17.3684 14.6406Z" fill="#34C0F7"/>
<path d="M19.6181 29.9962L28.3749 33.7636L28.5684 35.7188L29.0038 36.6964C29.0038 36.6964 24.0933 35.075 22.3032 34.3597C20.5373 33.6443 17.4652 32.9528 16.6186 31.7845C15.7719 30.6161 17.175 30.6161 17.3443 29.7816C17.5136 28.947 17.0298 28.7801 17.6587 27.9217C18.2877 27.0395 21.3598 19.3139 21.9404 18.1932C22.5209 17.0725 23.5127 16.7626 24.6254 17.311C25.7382 17.8594 30.4068 22.2944 30.939 22.9859C31.4712 23.6774 31.7373 23.892 31.3744 24.3689C31.0116 24.8458 26.609 28.9708 26.3429 29.2808C26.0526 29.5908 25.6898 30.0677 24.9883 29.8292C24.2868 29.567 23.2708 25.0604 23.2708 25.0604L24.6012 23.5105C24.6012 23.5105 27.2138 23.1767 27.1654 23.8205C27.1412 24.4881 25.6172 24.8458 25.3995 25.0604C25.1818 25.275 25.0367 25.8472 25.0367 25.8472C25.0367 25.8472 25.7382 27.7071 26.0768 27.7071C26.4155 27.7071 27.625 25.6088 27.9395 25.3704C28.2539 25.1319 29.2941 24.0112 29.2941 24.0112C29.2941 24.0112 27.9636 21.9129 26.9719 21.2453C25.9801 20.5777 24.6012 18.8132 24.6012 18.8132C24.6012 18.8132 23.8272 18.4555 23.0773 19.7908C22.3032 21.1261 19.5939 28.0409 19.4488 28.5655C19.2795 29.0662 18.9166 29.4954 19.6181 29.9962Z" fill="#34C0F7"/>
<path d="M10.6436 6.4856V8.20238C10.6436 8.20238 43.1789 8.32161 43.1789 8.20238C43.1789 8.08316 43.1789 6.4856 43.1789 6.4856H10.5226" fill="#E2AA0E"/>
<path d="M10.6436 2.12207V2.95662C10.6436 2.95662 43.1789 3.00431 43.1789 2.95662C43.1789 2.90893 43.1789 2.12207 43.1789 2.12207H10.5226" fill="#E2AA0E"/>
<path d="M41.5582 4.98339H11.9014C11.5386 4.98339 11.2483 4.69726 11.2483 4.3396C11.2483 3.98193 11.5386 3.6958 11.9014 3.6958H41.5582C41.921 3.6958 42.2113 3.98193 42.2113 4.3396C42.2113 4.69726 41.921 4.98339 41.5582 4.98339Z" fill="#FFFBD9"/>
<path d="M11.1273 10.3481C11.1273 10.3481 12.2884 11.3258 12.1674 11.5165C12.0465 11.6834 11.2966 13.8533 11.6595 14.7593C12.0223 15.6416 12.7964 15.6177 12.7964 15.6177C12.7964 15.6177 11.3692 18.336 11.3208 19.3851C11.2724 20.4343 11.4659 21.1734 12.1916 21.3642C12.9173 21.555 13.764 20.9112 13.764 20.9112C13.764 20.9112 13.8124 22.1272 12.6996 23.0095C11.5869 23.8917 10.9096 25.4893 10.9096 25.4893C10.9096 25.4893 11.0547 25.99 11.4659 25.9185C11.853 25.8469 12.3368 25.7515 12.3368 25.7515L10.9338 28.2552C10.9338 28.2552 10.837 30.0912 11.3208 31.4742C11.8288 32.8571 11.8288 35.5754 11.5385 36.863C11.2482 38.1506 10.9338 38.4129 10.9338 38.4129V10.5151L11.1273 10.3481Z" fill="#E2AA0E"/>
<path d="M42.4774 11.0161C42.4774 11.0161 42.3081 11.4692 41.9694 11.9222C41.6308 12.3752 42.042 13.4005 41.8243 13.6628C41.6066 13.949 40.518 14.4258 40.6632 14.6881C40.8083 14.9504 42.1871 16.6195 42.1146 17.2872C42.042 17.9548 41.0986 18.5271 41.2437 18.7894C41.3889 19.0516 41.8727 20.1723 41.7275 20.3631C41.5824 20.5538 41.0502 20.6015 41.0502 20.6015C41.0502 20.6015 41.6791 22.7237 41.3889 22.9859C41.0986 23.2482 39.502 23.749 39.502 23.749C39.502 23.749 41.7517 26.348 41.8001 26.5387C41.8485 26.7295 41.1711 28.2317 41.1711 28.2317C41.1711 28.2317 42.5016 30.4254 41.9694 30.5446C41.4372 30.6638 39.5988 30.2108 39.5988 30.2108C39.5988 30.2108 40.8325 31.5937 40.8809 31.6176C40.9292 31.6414 41.9694 32.4998 41.8243 33.0482C41.6549 33.5967 41.2437 34.765 41.2437 34.765C41.2437 34.765 42.2113 37.0302 41.7033 37.674C41.1953 38.3178 40.639 38.294 40.639 38.294C40.639 38.294 41.9694 39.7008 41.9936 40.1538C42.0178 40.6069 42.042 40.8692 42.042 40.8692H42.4774V11.0161Z" fill="#E2AA0E"/>
<path d="M43.2274 7.48682C43.2274 7.48682 43.4451 8.1783 44.3401 8.27368C45.2351 8.36906 45.7915 8.05908 45.985 7.7491C46.2027 7.43913 46.2753 8.34521 46.0092 8.72672C45.7431 9.10823 45.0174 9.37052 44.2192 9.25129C43.4209 9.13207 42.9613 8.22599 43.2274 7.48682Z" fill="#E2AA0E"/>
<path d="M46.0817 2.38433C46.0817 2.38433 45.864 1.69285 44.969 1.59747C44.074 1.50209 43.5176 1.81207 43.3241 2.12204C43.1306 2.43202 43.0338 1.52594 43.2999 1.14443C43.566 0.76292 44.2917 0.500632 45.0899 0.619854C45.8882 0.739075 46.3478 1.64516 46.0817 2.38433Z" fill="#E2AA0E"/>
<path d="M7.54731 7.48682C7.54731 7.48682 7.76502 8.1783 8.66004 8.27368C9.55507 8.36906 10.1114 8.05908 10.305 7.7491C10.4985 7.43913 10.5952 8.34521 10.3291 8.72672C10.0631 9.10823 9.33736 9.37052 8.5391 9.25129C7.74083 9.13207 7.28122 8.22599 7.54731 7.48682Z" fill="#E2AA0E"/>
<path d="M10.4017 2.38433C10.4017 2.38433 10.184 1.69285 9.28894 1.59747C8.39391 1.50209 7.83754 1.81207 7.64403 2.12204C7.45051 2.43202 7.35375 1.52594 7.61984 1.14443C7.88592 0.76292 8.61162 0.500632 9.40989 0.619854C10.2082 0.739075 10.6678 1.64516 10.4017 2.38433Z" fill="#E2AA0E"/>
<path d="M7.40212 1.979H6.89413V8.17852H7.40212V1.979Z" fill="#E2AA0E"/>
<path d="M46.88 1.979H46.372V8.17852H46.88V1.979Z" fill="#E2AA0E"/>
<path d="M4.52355 3.12354H4.16071V7.15322H4.52355V3.12354Z" fill="#E2AA0E"/>
<path d="M49.2748 3.12354H48.912V7.15322H49.2748V3.12354Z" fill="#E2AA0E"/>
<path d="M5.75728 5.98485C5.51538 5.98485 5.29767 5.77025 5.29767 5.53181V3.21891C5.29767 2.98047 5.51538 2.76587 5.75728 2.76587C5.99917 2.76587 6.21688 2.98047 6.21688 3.21891V5.53181C6.21688 5.79409 5.99917 5.98485 5.75728 5.98485Z" fill="#FFFBD9"/>
<path d="M8.56329 6.77162C8.36977 6.77162 8.20044 6.60471 8.20044 6.41396V2.45581C8.20044 2.26505 8.36977 2.09814 8.56329 2.09814C8.75681 2.09814 8.92614 2.26505 8.92614 2.45581V6.41396C8.90195 6.60471 8.75681 6.77162 8.56329 6.77162Z" fill="#FFFBD9"/>
<path d="M2.58832 5.65087C2.10453 5.65087 1.6933 5.26936 1.6933 4.76863V4.67325C1.6933 4.19637 2.08034 3.79102 2.58832 3.79102C3.07212 3.79102 3.48335 4.17252 3.48335 4.67325V4.76863C3.48335 5.26936 3.07212 5.65087 2.58832 5.65087Z" fill="#FFFBD9"/>
<path d="M47.8476 5.98485C48.0895 5.98485 48.3072 5.77025 48.3072 5.53181V3.21891C48.3072 2.98047 48.0895 2.76587 47.8476 2.76587C47.6057 2.76587 47.388 2.98047 47.388 3.21891V5.53181C47.388 5.79409 47.5816 5.98485 47.8476 5.98485Z" fill="#FFFBD9"/>
<path d="M45.1141 6.77162C45.3077 6.77162 45.477 6.60471 45.477 6.41396V2.45581C45.477 2.26505 45.3077 2.09814 45.1141 2.09814C44.9206 2.09814 44.7513 2.26505 44.7513 2.45581V6.41396C44.7513 6.60471 44.9206 6.77162 45.1141 6.77162Z" fill="#FFFBD9"/>
<path d="M50.9922 5.65087C51.476 5.65087 51.8872 5.26936 51.8872 4.76863V4.67325C51.8872 4.19637 51.5002 3.79102 50.9922 3.79102C50.5084 3.79102 50.0972 4.17252 50.0972 4.67325V4.76863C50.1214 5.26936 50.5084 5.65087 50.9922 5.65087Z" fill="#FFFBD9"/>
<path d="M42.9612 45.5901V47.3069C42.9612 47.3069 10.4258 47.4261 10.4258 47.3069C10.4258 47.1877 10.4258 45.5901 10.4258 45.5901H43.0579" fill="#E2AA0E"/>
<path d="M42.9612 41.2029V42.0374C42.9612 42.0374 10.4258 42.0851 10.4258 42.0374C10.4258 41.9897 10.4258 41.2029 10.4258 41.2029H43.0579" fill="#E2AA0E"/>
<path d="M12.0466 44.0879H41.7034C42.0662 44.0879 42.3565 43.8018 42.3565 43.4441C42.3565 43.0864 42.0662 42.8003 41.7034 42.8003H12.0466C11.6838 42.8003 11.3935 43.0864 11.3935 43.4441C11.3693 43.8018 11.6838 44.0879 12.0466 44.0879Z" fill="#FFFBD9"/>
<path d="M10.3775 46.5918C10.3775 46.5918 10.1597 47.2833 9.26472 47.3787C8.3697 47.474 7.81333 47.1641 7.61981 46.8541C7.4021 46.5441 7.32953 47.4502 7.59562 47.8317C7.86171 48.2132 8.5874 48.4755 9.38567 48.3563C10.1839 48.2371 10.6194 47.331 10.3775 46.5918Z" fill="#E2AA0E"/>
<path d="M7.49896 41.4891C7.49896 41.4891 7.71667 40.7976 8.61169 40.7022C9.50672 40.6068 10.0631 40.9168 10.2566 41.2268C10.4743 41.5368 10.5469 40.6307 10.2808 40.2492C10.0147 39.8677 9.28901 39.6054 8.49074 39.7246C7.69248 39.8438 7.25706 40.7499 7.49896 41.4891Z" fill="#E2AA0E"/>
<path d="M46.0574 46.5918C46.0574 46.5918 45.8397 47.2833 44.9447 47.3787C44.0497 47.474 43.4933 47.1641 43.2998 46.8541C43.1063 46.5441 43.0095 47.4502 43.2756 47.8317C43.5417 48.2132 44.2674 48.4755 45.0657 48.3563C45.8639 48.2371 46.2993 47.331 46.0574 46.5918Z" fill="#E2AA0E"/>
<path d="M43.179 41.4891C43.179 41.4891 43.3967 40.7976 44.2917 40.7022C45.1868 40.6068 45.7431 40.9168 45.9366 41.2268C46.1544 41.5368 46.2269 40.6307 45.9608 40.2492C45.6947 39.8677 44.9691 39.6054 44.1708 39.7246C43.3725 39.8438 42.9371 40.7499 43.179 41.4891Z" fill="#E2AA0E"/>
<path d="M46.2094 47.28L46.7174 47.28L46.7174 41.0805L46.2094 41.0805L46.2094 47.28Z" fill="#E2AA0E"/>
<path d="M6.77357 47.3115L7.28156 47.3115L7.28156 41.112L6.77357 41.112L6.77357 47.3115Z" fill="#E2AA0E"/>
<path d="M48.8854 46.2329L49.2482 46.2329L49.2482 42.2032L48.8854 42.2032L48.8854 46.2329Z" fill="#E2AA0E"/>
<path d="M4.3277 46.2329L4.69055 46.2329L4.69055 42.2032L4.3277 42.2032L4.3277 46.2329Z" fill="#E2AA0E"/>
<path d="M47.8476 45.0893C48.0895 45.0893 48.3072 44.8747 48.3072 44.6363V42.3234C48.3072 42.085 48.0895 41.8704 47.8476 41.8704C47.6057 41.8704 47.388 42.085 47.388 42.3234V44.6363C47.388 44.8747 47.5816 45.0893 47.8476 45.0893Z" fill="#FFFBD9"/>
<path d="M45.0416 45.8524C45.2351 45.8524 45.4044 45.6855 45.4044 45.4948V41.5366C45.4044 41.3459 45.2351 41.179 45.0416 41.179C44.848 41.179 44.6787 41.3459 44.6787 41.5366V45.4948C44.6787 45.7094 44.848 45.8524 45.0416 45.8524Z" fill="#FFFBD9"/>
<path d="M50.9922 44.7556C51.476 44.7556 51.8872 44.3741 51.8872 43.8734V43.778C51.8872 43.3011 51.5002 42.8958 50.9922 42.8958C50.5084 42.8958 50.0972 43.2773 50.0972 43.778V43.8734C50.1214 44.3741 50.5084 44.7556 50.9922 44.7556Z" fill="#FFFBD9"/>
<path d="M5.75728 45.0893C5.51538 45.0893 5.29767 44.8747 5.29767 44.6363V42.3234C5.29767 42.085 5.51538 41.8704 5.75728 41.8704C5.99917 41.8704 6.21688 42.085 6.21688 42.3234V44.6363C6.21688 44.8747 5.99917 45.0893 5.75728 45.0893Z" fill="#FFFBD9"/>
<path d="M8.49059 45.8524C8.29708 45.8524 8.12775 45.6855 8.12775 45.4948V41.5366C8.12775 41.3459 8.29708 41.179 8.49059 41.179C8.68411 41.179 8.85344 41.3459 8.85344 41.5366V45.4948C8.82925 45.7094 8.68411 45.8524 8.49059 45.8524Z" fill="#FFFBD9"/>
<path d="M2.58832 44.7556C2.10453 44.7556 1.6933 44.3741 1.6933 43.8734V43.778C1.6933 43.3011 2.08034 42.8958 2.58832 42.8958C3.07212 42.8958 3.48335 43.2773 3.48335 43.778V43.8734C3.48335 44.3741 3.07212 44.7556 2.58832 44.7556Z" fill="#FFFBD9"/>
<path d="M42.5257 8.20239H10.9337V41.036H42.5257V8.20239Z" stroke="black" stroke-width="2" stroke-miterlimit="10" stroke-linecap="round" stroke-linejoin="round"/>
<path d="M7.49879 2.00293V8.20244H5.87807C5.24914 8.20244 4.74115 7.70171 4.74115 7.08176V3.12361C4.74115 2.50366 5.24914 2.00293 5.87807 2.00293H7.49879V2.00293Z" stroke="black" stroke-width="2" stroke-miterlimit="10" stroke-linecap="round" stroke-linejoin="round"/>
<path d="M43.1547 2.00293H10.5226V8.20244H43.1547V2.00293Z" stroke="black" stroke-width="2" stroke-miterlimit="10" stroke-linecap="round" stroke-linejoin="round"/>
<path d="M10.5226 1.90755V8.17859C10.5226 8.84623 9.96621 9.37081 9.31308 9.37081H8.70833C8.03102 9.37081 7.49884 8.82239 7.49884 8.17859V1.90755C7.49884 1.26375 8.05521 0.715332 8.70833 0.715332H9.31308C9.9904 0.715332 10.5226 1.26375 10.5226 1.90755Z" stroke="black" stroke-width="2" stroke-miterlimit="10" stroke-linecap="round" stroke-linejoin="round"/>
<path d="M46.2027 1.90755V8.17859C46.2027 8.84623 45.6463 9.37081 44.9932 9.37081H44.3884C43.7111 9.37081 43.1789 8.82239 43.1789 8.17859V1.90755C43.1789 1.26375 43.7353 0.715332 44.3884 0.715332H44.9932C45.6463 0.715332 46.2027 1.26375 46.2027 1.90755Z" stroke="black" stroke-width="2" stroke-miterlimit="10" stroke-linecap="round" stroke-linejoin="round"/>
<path d="M4.74115 3.26665V7.05789C4.3783 7.29633 3.9187 7.46324 3.4349 7.46324C2.15284 7.46324 1.11267 6.43794 1.11267 5.17419C1.11267 3.91044 2.15284 2.88514 3.4349 2.88514C3.9187 2.8613 4.3783 3.00436 4.74115 3.26665Z" stroke="black" stroke-width="2" stroke-miterlimit="10" stroke-linecap="round" stroke-linejoin="round"/>
<path d="M48.7184 3.12353V7.05784C48.7184 7.67779 48.2104 8.17852 47.5815 8.17852H46.2026V1.979H47.5573C48.1862 2.00285 48.7184 2.50358 48.7184 3.12353Z" stroke="black" stroke-width="2" stroke-miterlimit="10" stroke-linecap="round" stroke-linejoin="round"/>
<path d="M52.4435 5.15038C52.4435 6.41413 51.4033 7.43943 50.1213 7.43943C49.5891 7.43943 49.1053 7.27252 48.7183 6.96255V3.33821C49.1053 3.02824 49.5891 2.86133 50.1213 2.86133C51.4033 2.86133 52.4435 3.88663 52.4435 5.15038Z" stroke="black" stroke-width="2" stroke-miterlimit="10" stroke-linecap="round" stroke-linejoin="round"/>
<path d="M7.49879 41.0359V47.2354H5.87807C5.24914 47.2354 4.74115 46.7347 4.74115 46.1147V42.1804C4.74115 41.5605 5.24914 41.0597 5.87807 41.0597H7.49879V41.0359Z" stroke="black" stroke-width="2" stroke-miterlimit="10" stroke-linecap="round" stroke-linejoin="round"/>
<path d="M43.1547 41.0359H10.5226V47.2354H43.1547V41.0359Z" stroke="black" stroke-width="2" stroke-miterlimit="10" stroke-linecap="round" stroke-linejoin="round"/>
<path d="M10.5226 40.9407V47.2118C10.5226 47.8794 9.96621 48.404 9.31308 48.404H8.70833C8.03102 48.404 7.49884 47.8556 7.49884 47.2118V40.9407C7.49884 40.2731 8.05521 39.7485 8.70833 39.7485H9.31308C9.9904 39.7485 10.5226 40.297 10.5226 40.9407Z" stroke="black" stroke-width="2" stroke-miterlimit="10" stroke-linecap="round" stroke-linejoin="round"/>
<path d="M46.2027 40.9407V47.2118C46.2027 47.8794 45.6463 48.404 44.9932 48.404H44.3884C43.7111 48.404 43.1789 47.8556 43.1789 47.2118V40.9407C43.1789 40.2731 43.7353 39.7485 44.3884 39.7485H44.9932C45.6463 39.7485 46.2027 40.297 46.2027 40.9407Z" stroke="black" stroke-width="2" stroke-miterlimit="10" stroke-linecap="round" stroke-linejoin="round"/>
<path d="M4.74115 42.2996V46.0908C4.3783 46.3293 3.9187 46.4962 3.4349 46.4962C2.15284 46.4962 1.11267 45.4709 1.11267 44.2071C1.11267 42.9434 2.15284 41.9181 3.4349 41.9181C3.9187 41.8943 4.3783 42.0373 4.74115 42.2996Z" stroke="black" stroke-width="2" stroke-miterlimit="10" stroke-linecap="round" stroke-linejoin="round"/>
<path d="M48.7184 42.1567V46.091C48.7184 46.711 48.2104 47.2117 47.5815 47.2117H46.2026V41.0122H47.5573C48.1862 41.0361 48.7184 41.5368 48.7184 42.1567Z" stroke="black" stroke-width="2" stroke-miterlimit="10" stroke-linecap="round" stroke-linejoin="round"/>
<path d="M52.4435 44.1836C52.4435 45.4473 51.4033 46.4726 50.1213 46.4726C49.5891 46.4726 49.1053 46.3057 48.7183 45.9957V42.3714C49.1053 42.0614 49.5891 41.8945 50.1213 41.8945C51.4033 41.8945 52.4435 42.9198 52.4435 44.1836Z" stroke="black" stroke-width="2" stroke-miterlimit="10" stroke-linecap="round" stroke-linejoin="round"/>
<path d="M10.9338 8.20239C10.9338 8.20239 10.8129 10.1576 11.2967 10.6345C11.8047 11.1114 12.4336 11.3975 12.0465 11.7075C11.6595 12.0175 11.1757 14.235 11.5386 14.9742C11.9014 15.7133 12.8206 15.5226 12.8206 15.6418C12.8206 15.7849 10.5952 19.3615 11.4176 20.816C12.2159 22.2705 13.377 21.1498 13.6673 20.9591C13.9817 20.7683 13.9334 21.9367 13.1593 22.5805C12.3852 23.2481 10.8854 24.8695 10.8854 25.5133C10.9096 26.1571 12.2159 25.5849 12.5545 25.7041C12.869 25.8233 10.8854 27.2063 10.8854 29.3046C10.8854 31.4029 12.9416 33.6919 10.9096 39.1523" stroke="black" stroke-width="2" stroke-miterlimit="10" stroke-linecap="round" stroke-linejoin="round"/>
<path d="M42.5257 11.0161C42.5257 11.0161 42.4048 11.8507 41.921 12.0653C41.4372 12.2799 41.5823 12.566 41.6549 12.9713C41.7275 13.3767 41.8242 13.949 41.292 14.1159C40.7599 14.2828 40.3486 14.4258 40.8324 14.9743C41.3162 15.5227 42.308 16.9295 41.9452 17.621C41.5823 18.3125 40.9534 18.4555 41.292 19.2662C41.6307 20.0769 41.6791 20.5061 41.5581 20.53C41.413 20.5538 41.0018 20.53 41.0018 20.53C41.0018 20.53 41.6065 22.7475 41.3646 22.9621C41.1227 23.1767 39.2359 23.3913 39.4052 23.7728C39.5746 24.1543 41.4856 26.0619 41.6549 26.5387C41.8242 27.0156 40.9534 27.9456 41.1953 28.3509C41.4372 28.7563 42.1629 30.2823 41.9936 30.4015C41.8 30.5207 39.5746 29.9008 39.4052 30.1631C39.2359 30.4254 41.1953 31.8799 41.5823 32.4044C41.9694 32.929 41.2437 34.1689 41.1953 34.5743C41.1469 34.9796 42.0177 37.2925 41.5823 37.7456C41.1469 38.1986 40.1551 37.8886 40.4212 38.294C40.6873 38.6993 42.0903 39.3431 41.9694 41.0122" stroke="black" stroke-width="2" stroke-miterlimit="10" stroke-linecap="round" stroke-linejoin="round"/>
<path d="M34.7125 13.2098L35.3172 13.329L36.5267 14.7358L36.9379 16.5957C36.9379 16.5957 36.3574 16.8341 35.8978 17.5495C35.4382 18.2648 34.9302 19.7431 34.3738 24.822C33.8174 29.9008 33.7932 33.1198 33.6965 34.1928C33.6239 35.2658 33.2369 36.1242 32.0516 36.2434C31.979 36.2434 31.9306 36.2434 31.8581 36.2434C30.7211 36.2434 29.6084 35.2658 29.6326 34.5743C29.6568 33.8351 29.9471 33.8828 30.5518 33.2867C31.1566 32.6906 33.7932 18.3363 33.89 17.6448C33.9868 16.9533 33.7449 16.095 32.5596 16.0234C31.3743 15.9519 17.3925 15.475 17.3925 15.475C17.3925 15.475 16.5459 15.0935 17.3925 14.6643C17.3925 14.6643 17.7554 14.6643 18.3843 14.6643C20.8759 14.6643 27.3104 14.6405 29.8745 14.5212C33.0676 14.3543 34.1561 13.949 34.4222 13.5913C34.7125 13.2098 34.7125 13.2098 34.7125 13.2098ZM34.7125 12.7329C34.5673 12.7329 34.4222 12.8044 34.3254 12.9237L34.0351 13.2813C33.9868 13.329 33.4788 13.8536 29.8261 14.0205C27.3104 14.1397 20.9726 14.1636 18.3601 14.1636C17.7312 14.1636 17.3683 14.1636 17.3683 14.1636C17.2958 14.1636 17.2232 14.1874 17.1506 14.2113C16.7152 14.4259 16.4975 14.712 16.5217 15.0696C16.5459 15.5704 17.0781 15.8565 17.1748 15.9042C17.2232 15.928 17.2958 15.9519 17.3683 15.9519C17.5135 15.9519 31.3501 16.4288 32.5112 16.5003C32.8498 16.5242 33.0917 16.6195 33.2369 16.7864C33.382 16.9772 33.4546 17.2633 33.4062 17.5733C33.2369 18.694 30.7453 31.9037 30.1648 32.9767C30.0196 33.1198 29.8987 33.2152 29.7777 33.3105C29.3665 33.6443 29.1246 33.8828 29.1004 34.5743C29.1004 34.9796 29.2939 35.4088 29.681 35.8142C30.2373 36.3864 31.0598 36.7441 31.8097 36.7441C31.8822 36.7441 31.979 36.7441 32.0516 36.7441C33.3336 36.6249 34.0351 35.7903 34.1319 34.2643C34.1561 34.002 34.1561 33.6205 34.1803 33.0959C34.2529 31.4745 34.3496 28.7563 34.785 24.9173C35.3656 19.767 35.8736 18.4317 36.2364 17.8594C36.5993 17.2872 37.0589 17.0964 37.0589 17.0964C37.2766 17.001 37.3975 16.7864 37.3492 16.548L36.9379 14.6881C36.9137 14.6166 36.8896 14.5451 36.8412 14.4735L35.6317 13.0667C35.5591 12.9952 35.4623 12.9237 35.3656 12.8998L34.7608 12.7806C34.785 12.7329 34.7608 12.7329 34.7125 12.7329Z" fill="black"/>
<path d="M23.6092 17.0487C23.9237 17.0487 24.2865 17.144 24.6252 17.3109C25.7379 17.8594 30.4066 22.2944 30.9388 22.9859C31.4709 23.6774 31.737 23.892 31.3742 24.3689C31.0113 24.8457 26.6088 28.9708 26.3427 29.2808C26.125 29.5192 25.8347 29.9007 25.3751 29.9007C25.2541 29.9007 25.1332 29.8769 24.988 29.8292C24.2865 29.5669 23.2706 25.0603 23.2706 25.0603L24.601 23.5105C24.601 23.5105 25.2783 23.4151 25.9314 23.4151C26.5604 23.4151 27.1893 23.4866 27.1651 23.8204C27.1409 24.4881 25.617 24.8457 25.3993 25.0603C25.1816 25.2749 25.0364 25.8472 25.0364 25.8472C25.0364 25.8472 25.7379 27.7071 26.0766 27.7071C26.4152 27.7071 27.6247 25.6088 27.9392 25.3703C28.2537 25.1319 29.2938 24.0112 29.2938 24.0112C29.2938 24.0112 27.9634 21.9129 26.9716 21.2453C25.9798 20.5776 24.601 18.8131 24.601 18.8131C24.601 18.8131 24.5042 18.7654 24.3591 18.7654C24.0688 18.7654 23.585 18.9085 23.077 19.7908C22.303 21.126 19.5937 28.0409 19.4486 28.5654C19.3034 29.1139 18.9406 29.5431 19.6421 30.0438L28.3988 33.8112L28.5923 35.7664L29.0278 36.744C29.0278 36.744 24.1172 35.1226 22.3272 34.4073C20.5613 33.692 17.4892 33.0005 16.6425 31.8321C15.7959 30.6637 17.1989 30.6637 17.3682 29.8292C17.5618 28.9946 17.0538 28.8277 17.6827 27.9693C18.3116 27.0871 21.3838 19.3616 21.9643 18.2409C22.3514 17.4302 22.9319 17.0487 23.6092 17.0487ZM23.6092 16.5718C22.7384 16.5718 21.9885 17.0725 21.5289 17.9786C21.287 18.4555 20.6581 19.9577 19.9082 21.6983C18.9406 23.9873 17.6343 27.1586 17.2715 27.6355C16.8119 28.2793 16.8361 28.6608 16.8844 29.09C16.9086 29.2808 16.9328 29.4238 16.8844 29.6623C16.8603 29.8053 16.7151 29.9246 16.5216 30.0915C16.1587 30.4015 15.4572 30.9499 16.2555 32.0467C16.957 33.0243 18.7713 33.6443 20.5371 34.2165C21.1419 34.4073 21.6982 34.598 22.1578 34.7888C23.9237 35.5041 28.6891 37.0779 28.8826 37.1494C28.931 37.1732 28.9794 37.1732 29.0278 37.1732C29.1729 37.1732 29.2938 37.1255 29.3906 37.0063C29.5115 36.8633 29.5599 36.6725 29.4632 36.4817L29.0519 35.5757L28.8826 33.7158C28.8584 33.5489 28.7617 33.382 28.5923 33.3343L19.884 29.5907C19.6421 29.4238 19.6663 29.3523 19.8114 28.9946C19.8356 28.8993 19.884 28.78 19.9082 28.6608C20.0291 28.2078 22.7142 21.3406 23.4883 20.0054C23.7544 19.5285 24.0688 19.2423 24.3349 19.2185C24.6978 19.6715 25.8105 21.0068 26.6813 21.6029C27.3103 22.0321 28.2053 23.2243 28.6649 23.9158C28.2779 24.3212 27.7941 24.8219 27.6247 24.9411C27.4554 25.0842 27.2619 25.3703 26.8507 25.9426C26.6571 26.2287 26.3185 26.7294 26.1008 27.0156C25.9314 26.7294 25.7137 26.2764 25.5202 25.7995C25.5686 25.6326 25.6412 25.4657 25.7137 25.3942C25.7863 25.3465 25.9314 25.2988 26.0524 25.2272C26.7055 24.9411 27.5764 24.5835 27.6247 23.8204C27.6247 23.6297 27.5522 23.4389 27.4312 23.2959C27.1651 23.0336 26.7055 22.9144 25.9073 22.9144C25.2299 22.9144 24.5526 23.0097 24.5284 23.0097C24.4075 23.0336 24.3107 23.0813 24.214 23.1766L22.8835 24.7265C22.7868 24.8457 22.7384 24.9888 22.7868 25.1319C22.7868 25.1796 23.0529 26.2764 23.3915 27.4448C24.093 29.8053 24.4801 30.1153 24.8187 30.2345C25.0122 30.3061 25.1816 30.3299 25.3509 30.3299C25.9798 30.3299 26.3669 29.9007 26.6088 29.6384C26.633 29.6146 26.6571 29.5907 26.6813 29.5669C26.7539 29.4715 27.3103 28.9708 27.915 28.3747C29.8502 26.5148 31.4951 24.9411 31.737 24.6311C32.2692 23.9158 31.9063 23.4389 31.4951 22.9382C31.4467 22.8667 31.3742 22.7951 31.3016 22.6998C30.8178 22.056 26.0524 17.5017 24.8187 16.8818C24.4317 16.6672 24.0205 16.5718 23.6092 16.5718Z" fill="black"/>
</g>
<defs>
<clipPath id="clip0">
<rect width="53" height="49" fill="white"/>
</clipPath>
</defs>
</svg>
