<svg width="829" height="756" viewBox="0 0 829 756" fill="none" xmlns="http://www.w3.org/2000/svg">
<g clip-path="url(#clip0)">
<path fill-rule="evenodd" clip-rule="evenodd" d="M545.378 -93.455C573.777 -115.691 573.777 -158.27 545.378 -180.506C525.973 -195.646 498.048 -195.646 478.642 -180.506C450.244 -158.27 450.244 -115.691 478.642 -93.455C498.048 -78.3156 525.973 -78.3156 545.378 -93.455ZM310.953 0.543884C299.745 2.2823 288.967 7.46724 280.332 16.0987C258.706 37.7153 258.706 72.7628 280.332 94.3794C301.958 115.996 337.02 115.996 358.646 94.3794C366.857 86.1719 371.95 76.0282 373.926 65.4186C377.802 45.9084 371.056 24.7003 353.688 11.1012C341.414 1.52571 325.732 -1.99339 310.953 0.543884ZM459.212 231.968C453.538 250.85 458.162 272.165 473.087 287.083C494.712 308.699 529.775 308.699 551.401 287.083C569.676 268.815 572.507 240.956 559.895 219.716C556.404 213.362 551.565 207.553 545.378 202.709C525.973 187.569 498.048 187.569 478.642 202.709C468.649 210.534 462.172 220.878 459.212 231.968ZM280.322 209.118C279.685 209.756 279.066 210.404 278.467 211.064C260.825 227.223 239.496 239.138 222.582 239.138C206.6 239.138 186.677 228.499 169.646 213.694C168.375 212.108 167.004 210.576 165.533 209.105C143.907 187.489 108.845 187.489 87.2194 209.105C65.5935 230.722 65.5935 265.769 87.2192 287.386C108.845 309.003 143.907 309.003 165.533 287.386C167.252 285.668 168.835 283.864 170.281 281.99C187.02 267.483 205.954 257.116 222.582 257.116C240.012 257.116 259.974 268.505 277.287 284.114C278.247 285.24 279.258 286.336 280.322 287.399C301.948 309.016 337.01 309.016 358.636 287.399C380.262 265.782 380.262 230.735 358.636 209.118C337.01 187.502 301.948 187.502 280.322 209.118ZM566.286 61.2032C568.471 42.9091 561.502 23.7261 545.378 11.1012C525.973 -4.03819 498.048 -4.03819 478.642 11.1012C450.244 33.3372 450.244 75.9167 478.642 98.1526C488.794 106.072 501.277 109.849 513.652 109.483C553.795 115.145 575.348 130.05 601.223 156.345C627.619 182.73 642.566 205.845 649.103 245.447C648.429 258.232 652.19 271.222 660.385 281.718C682.631 310.104 725.228 310.104 747.474 281.718C762.146 262.321 762.146 234.408 747.474 215.01C736.617 201.157 720.913 194.064 705.094 193.733C662.939 186.255 642.535 175.876 612.109 145.463C584.239 117.606 572.82 96.6911 566.286 61.2032ZM551.931 403.149C569.67 419.523 591.236 431.219 607.851 431.219C624.928 431.219 646.057 419.522 663.774 403.147C686.73 378.772 726.311 380.086 747.474 407.091C762.146 426.488 762.146 454.401 747.474 473.799C744.948 477.022 742.159 479.879 739.168 482.37C723.757 499.598 712.924 519.381 712.924 536.249C712.924 553.116 723.757 572.898 739.167 590.126C742.159 592.617 744.947 595.475 747.474 598.698C762.146 618.096 762.146 646.009 747.474 665.406C725.228 693.793 682.631 693.793 660.385 665.406C645.24 646.009 645.24 618.096 660.385 598.698C662.221 596.357 664.194 594.208 666.284 592.253C682.717 574.501 694.465 552.89 694.465 536.249C694.465 519.146 682.718 497.978 666.286 480.247C665.429 479.444 664.59 478.609 663.773 477.741C646.078 461.367 625.389 449.67 607.851 449.67C590.316 449.67 569.631 461.363 551.938 477.733C528.984 502.118 489.395 500.806 468.23 473.799C453.084 454.401 453.084 426.488 468.23 407.091C489.393 380.085 528.976 378.772 551.931 403.149ZM867.346 204.157C882.578 186.909 893.253 166.531 893.253 150.668C893.253 133.575 881.52 112.422 865.104 94.698C840.792 71.742 842.131 32.234 869.12 11.1012C888.526 -4.03819 916.451 -4.03819 935.857 11.1012C939.12 13.6568 942.009 16.481 944.523 19.5123C944.193 19.0742 943.857 18.6362 943.418 18.1981C943.182 17.725 942.827 17.3702 942.472 17.0154C942.117 16.6605 941.762 16.3057 941.525 15.8326C959.511 32.8644 980.81 45.1651 998.795 45.1651C1015.58 45.1651 1035.24 34.4563 1052.41 19.1874C1054.86 16.2791 1057.66 13.5652 1060.81 11.1012C1080.21 -4.03819 1108.14 -4.03819 1127.54 11.1012C1155.94 33.3371 1155.94 75.9166 1127.54 98.1526C1108.14 113.292 1080.21 113.292 1060.81 98.1526C1057.09 95.2461 1053.87 91.992 1051.12 88.4812C1034.13 73.8074 1014.3 63.6163 998.795 63.6163C981.628 63.6163 960.367 75.4373 942.592 91.9482C941.694 92.9215 940.755 93.8703 939.773 94.7922C923.403 112.475 911.712 133.144 911.712 150.668C911.712 167.383 922.35 186.96 937.538 204.078C964.243 226.653 963.683 267.973 935.857 289.761C916.451 304.9 888.526 304.9 869.12 289.761C841.327 267.998 840.735 226.749 867.346 204.157ZM945.785 21.0367C945.708 20.9601 945.635 20.8834 945.564 20.8068C945.779 21.0833 945.992 21.3613 946.201 21.6409C946.064 21.439 945.925 21.2376 945.785 21.0367ZM677.43 98.1526C649.032 75.9166 649.032 33.3371 677.43 11.1012C696.836 -4.03819 724.761 -4.03819 744.166 11.1012C772.565 33.3371 772.565 75.9166 744.166 98.1526C724.761 113.292 696.836 113.292 677.43 98.1526ZM1056.85 301.975C1032.47 279.027 1033.79 239.472 1060.81 218.322C1080.21 203.183 1108.14 203.183 1127.54 218.322C1154.55 239.469 1155.87 279.015 1131.51 301.964C1115.12 319.701 1103.4 341.271 1103.4 357.888C1103.4 374.964 1115.11 396.093 1131.51 413.807C1155.87 436.756 1154.55 476.306 1127.54 497.454C1108.14 512.12 1080.21 512.12 1060.81 497.454C1057.58 494.927 1054.72 492.137 1052.22 489.144C1034.99 473.743 1015.2 462.918 998.329 462.918C981.461 462.918 961.679 473.737 944.449 489.132C941.952 492.129 939.088 494.923 935.857 497.454C916.451 512.12 888.526 512.12 869.12 497.454C840.722 475.218 840.722 432.638 869.12 410.402C888.526 395.263 916.451 395.263 935.857 410.402C938.204 412.241 940.358 414.218 942.318 416.312C960.074 432.73 981.685 444.466 998.329 444.466C1015.44 444.466 1036.62 432.721 1054.36 416.294C1055.16 415.443 1055.99 414.612 1056.85 413.802C1073.24 396.111 1084.94 375.424 1084.94 357.888C1084.94 340.352 1073.24 319.666 1056.85 301.975ZM1319.7 410.402C1348.1 432.638 1348.1 475.218 1319.7 497.454C1300.3 512.12 1272.37 512.12 1252.97 497.454C1224.57 475.218 1224.57 432.638 1252.97 410.402C1272.37 395.263 1300.3 395.263 1319.7 410.402Z" fill="#F5F7FA"/>
</g>
<defs>
<clipPath id="clip0">
<rect width="829" height="756" fill="white"/>
</clipPath>
</defs>
</svg>
