<svg width="440" height="732" viewBox="0 0 440 732" fill="none" xmlns="http://www.w3.org/2000/svg">
<g clip-path="url(#clip0)">
<path opacity="0.12" fill-rule="evenodd" clip-rule="evenodd" d="M769.104 475.622C848.953 491.942 928.114 508.122 986.373 570.107C1096.97 687.774 1081.68 888.67 954.903 987.205C816.435 1095.31 612.33 1024.51 558.381 851.361C548.5 818.82 544.282 784.446 540.058 750.02C536.21 718.661 532.357 687.259 524.214 657.162C508.928 599.763 483.752 546.191 451.383 497.402C382.149 395.04 285.941 295.549 179.842 239.107C131.83 213.92 78.2542 202.283 25.0748 190.731C-65.1572 171.131 -154.248 151.779 -213.083 66.9106C-292.208 -47.887 -274.225 -213.387 -172.622 -306.182C-59.3301 -408.543 117.801 -385.583 204.119 -256.436C237.839 -206.76 246.773 -150.616 255.879 -93.3858C259.399 -71.2627 262.944 -48.9774 267.958 -26.8408C281.445 31.5147 300.327 88.9135 329.1 140.572C392.939 253.457 497.24 364.428 607.834 425.653C657.349 452.78 713.394 464.235 769.104 475.622ZM-775.946 489.749C-845.18 489.749 -909.918 518.448 -958.472 570.107C-1059.18 677.251 -1059.18 851.361 -958.472 958.505C-909.918 1010.16 -845.18 1038.86 -775.946 1038.86C-706.712 1038.86 -641.973 1010.16 -593.42 958.505C-492.716 851.361 -492.716 677.251 -593.42 570.107C-641.973 518.448 -706.712 489.749 -775.946 489.749ZM-5.37915 489.749C-74.6131 489.749 -139.351 518.448 -187.905 570.107C-288.609 677.251 -288.609 851.361 -187.905 958.505C-139.351 1010.16 -74.6131 1038.86 -5.37915 1038.86C63.8549 1038.86 128.593 1010.16 177.147 958.505C225.7 906.846 252.675 837.968 252.675 764.306C252.675 690.644 225.7 621.766 177.147 570.107C128.593 518.448 63.8549 489.749 -5.37915 489.749Z" fill="white"/>
</g>
<defs>
<clipPath id="clip0">
<rect width="440" height="732" fill="white"/>
</clipPath>
</defs>
</svg>
