<svg width="1087" height="589" viewBox="0 0 1087 589" fill="none" xmlns="http://www.w3.org/2000/svg">
    <path fill-rule="evenodd" clip-rule="evenodd" d="M708.783 94.0102C674.393 98.8608 655.929 111.63 633.762 134.156C611.149 156.76 598.344 176.563 592.744 210.49C593.321 221.442 590.099 232.571 583.078 241.563C564.021 265.881 527.528 265.881 508.47 241.563C495.9 224.945 495.9 201.032 508.47 184.415C517.771 172.546 531.224 166.47 544.777 166.186C580.89 159.78 598.371 150.889 624.436 124.834C648.312 100.969 658.094 83.0514 663.692 52.6489C661.82 36.9767 667.791 20.5429 681.604 9.72735C698.228 -3.24245 722.151 -3.24245 738.776 9.72735C763.104 28.7767 763.104 65.2543 738.776 84.3037C730.079 91.0886 719.385 94.3241 708.783 94.0102ZM908.667 14.0086C901.268 6.61333 892.034 2.17127 882.431 0.682458C869.771 -1.4902 856.337 1.52476 845.823 9.72734C830.942 21.3795 825.163 39.5525 828.487 56.269C830.181 65.3552 834.544 74.042 841.576 81.0711C860.103 99.5899 890.14 99.59 908.667 81.0712C927.193 62.5524 927.193 32.5274 908.667 14.0086ZM743.535 246.159C756.321 233.378 760.283 215.118 755.421 198.942C752.886 189.441 747.337 180.58 738.776 173.876C722.151 160.906 698.228 160.906 681.604 173.876C676.304 178.026 672.158 183.003 669.167 188.447C658.363 206.642 660.788 230.509 676.444 246.159C694.971 264.677 725.009 264.677 743.535 246.159ZM910.265 181.034C909.751 180.469 909.221 179.913 908.675 179.367C890.148 160.848 860.111 160.848 841.584 179.367C823.058 197.886 823.058 227.911 841.584 246.43C860.111 264.948 890.148 264.948 908.675 246.43C909.586 245.519 910.453 244.58 911.275 243.616C926.107 230.244 943.208 220.487 958.141 220.487C972.386 220.487 988.606 229.367 1002.95 241.796C1004.19 243.402 1005.54 244.946 1007.01 246.418C1025.54 264.937 1055.58 264.937 1074.11 246.418C1092.63 227.9 1092.63 197.875 1074.1 179.356C1055.58 160.837 1025.54 160.837 1007.01 179.356C1005.75 180.616 1004.58 181.929 1003.49 183.288C988.901 195.971 971.832 205.085 958.141 205.085C943.651 205.085 925.378 194.877 910.265 181.034ZM675.989 345.592C660.792 359.619 642.318 369.639 628.084 369.639C613.454 369.639 595.354 359.619 580.175 345.59C560.51 324.708 526.6 325.834 508.47 348.968C495.9 365.586 495.9 389.499 508.47 406.117C510.634 408.878 513.023 411.326 515.585 413.46C528.788 428.219 538.068 445.167 538.068 459.617C538.068 474.067 528.788 491.015 515.586 505.773C513.023 507.908 510.634 510.356 508.47 513.117C495.9 529.735 495.9 553.648 508.47 570.266C527.528 594.584 564.021 594.584 583.078 570.266C596.053 553.648 596.053 529.735 583.078 513.117C581.506 511.111 579.815 509.271 578.025 507.595C563.947 492.387 553.882 473.874 553.882 459.617C553.882 444.965 563.946 426.83 578.023 411.64C578.758 410.953 579.476 410.238 580.175 409.494C595.335 395.467 613.059 385.446 628.084 385.446C643.106 385.446 660.827 395.463 675.984 409.487C695.649 430.378 729.564 429.254 747.696 406.117C760.672 389.499 760.672 365.586 747.696 348.968C729.566 325.833 695.655 324.708 675.989 345.592ZM405.777 175.116C392.727 160.341 383.582 142.883 383.582 129.293C383.582 114.65 393.633 96.529 407.697 81.3448C428.525 61.6787 427.378 27.8319 404.256 9.72734C387.632 -3.24245 363.708 -3.24245 347.084 9.72734C344.287 11.9169 341.812 14.3367 339.659 16.9339C339.941 16.5583 340.23 16.1827 340.606 15.8071C340.808 15.4018 341.113 15.0978 341.417 14.7939C341.721 14.4899 342.025 14.1859 342.228 13.7806C326.819 28.3716 308.573 38.9096 293.165 38.9096C278.788 38.9096 261.94 29.7353 247.233 16.6544C245.134 14.163 242.737 11.8382 240.041 9.72734C223.417 -3.24245 199.494 -3.24245 182.869 9.72734C158.54 28.7767 158.54 65.2542 182.869 84.3036C199.494 97.2734 223.417 97.2734 240.041 84.3036C243.222 81.8136 245.986 79.0257 248.335 76.018C262.896 63.4471 279.878 54.7165 293.165 54.7165C307.872 54.7165 326.086 64.8433 341.313 78.9878C342.083 79.822 342.888 80.6351 343.729 81.4252C357.753 96.5735 367.768 114.281 367.768 129.293C367.768 143.613 358.655 160.385 345.643 175.049C322.765 194.389 323.245 229.787 347.084 248.453C363.708 261.423 387.632 261.423 404.256 248.453C428.067 229.809 428.574 194.471 405.777 175.116ZM338.578 18.239C338.644 18.1731 338.707 18.1073 338.768 18.0415C338.583 18.2789 338.401 18.5176 338.221 18.7577C338.339 18.5843 338.458 18.4114 338.578 18.239ZM568.476 84.3036C592.805 65.2542 592.805 28.7767 568.476 9.72734C551.851 -3.24245 527.928 -3.24245 511.304 9.72734C486.975 28.7767 486.975 65.2542 511.304 84.3036C527.928 97.2734 551.851 97.2734 568.476 84.3036ZM243.432 258.916C264.312 239.257 263.182 205.371 240.041 187.252C223.417 174.282 199.494 174.282 182.869 187.252C159.732 205.368 158.599 239.247 179.469 258.907C193.514 274.102 203.548 292.581 203.548 306.817C203.548 321.446 193.516 339.547 179.473 354.723C158.599 374.383 159.731 408.265 182.869 426.382C199.494 438.946 223.417 438.946 240.041 426.382C242.806 424.217 245.257 421.827 247.394 419.263C262.157 406.069 279.11 396.795 293.564 396.795C308.015 396.795 324.962 406.064 339.723 419.252C341.861 421.82 344.315 424.214 347.084 426.382C363.708 438.946 387.632 438.946 404.256 426.382C428.585 407.333 428.585 370.855 404.256 351.806C387.632 338.836 363.708 338.836 347.084 351.806C345.073 353.38 343.228 355.074 341.549 356.868C326.337 370.933 307.823 380.988 293.564 380.988C278.904 380.988 260.759 370.926 245.561 356.852C244.879 356.124 244.17 355.412 243.433 354.718C229.393 339.562 219.362 321.84 219.362 306.817C219.362 291.794 229.392 274.072 243.432 258.916ZM18.2465 351.806C-6.08216 370.855 -6.08216 407.333 18.2465 426.382C34.8711 438.946 58.7942 438.946 75.4188 426.382C99.7475 407.333 99.7475 370.855 75.4188 351.806C58.7942 338.836 34.8711 338.836 18.2465 351.806Z" fill="#F5F7FA"/>
</svg>
