<svg width="24" height="24" viewBox="0 0 24 24" fill="none" xmlns="http://www.w3.org/2000/svg">
    <path d="M21.8963 3.8343C20.8604 2.79836 19.5942 2.68325 18.9036 2.79836C18.6734 2.79836 18.4432 2.91346 18.3281 2.91346C18.3281 2.33794 18.3281 1.87752 18.3281 1.87752L18.4432 1.64731V1.302L18.5583 0.611373C18.5583 0.611373 14.2994 0.381165 12.3427 0.381165H11.4218C9.46504 0.496269 5.20618 0.726478 5.20618 0.726478L5.32129 1.64731L5.55149 1.87752C5.55149 1.87752 5.55149 2.22283 5.55149 2.79836C5.32129 2.91346 5.09108 2.79836 4.97597 2.79836C4.17024 2.68325 2.90409 2.91346 1.86815 3.8343C1.29263 4.40982 0.717109 5.33065 0.602005 6.94211C0.602005 7.05722 0.602005 7.28743 0.602005 7.40253C0.602005 7.63274 0.602005 7.86295 0.717109 8.20826C1.29263 12.0067 5.7817 13.8484 7.73848 14.4239C8.314 14.9994 9.00463 15.5749 10.1557 16.2656L9.69525 17.0713C9.69525 17.0713 9.92546 17.3015 10.1557 17.6468C10.3859 17.9921 10.7312 18.3374 10.7312 18.6828C10.7312 19.6036 10.2708 19.4885 10.2708 19.7187C10.2708 19.9489 10.6161 20.064 10.7312 20.1791C10.7312 20.1791 10.7312 20.1791 10.7312 20.2942C10.7312 21.5604 9.46504 22.1359 8.65931 22.3661L8.314 23.5171H15.1052L14.7598 22.3661C14.0692 22.1359 12.688 21.5604 12.688 20.2942C12.8031 20.1791 13.0333 19.9489 13.0333 19.8338C13.0333 19.8338 13.0333 19.8338 13.0333 19.7187C13.0333 19.4885 12.5729 19.6036 12.5729 18.6828C12.5729 18.3374 12.8031 18.1072 13.0333 17.7619L13.1484 17.6468C13.3786 17.3015 13.7239 17.0713 13.7239 17.0713L13.2635 16.2656C14.4145 15.5749 15.1052 14.9994 15.6807 14.4239C16.9468 14.0786 19.0187 13.2729 20.6302 11.8916C21.6661 10.9708 22.5869 9.70462 22.8172 8.20826C23.3927 5.90617 22.5869 4.52492 21.8963 3.8343ZM1.98326 7.97805C1.86815 6.5968 2.09836 5.56086 2.78899 4.75513C3.1343 4.40982 3.59472 4.17961 3.94003 4.0645C3.82493 4.29471 3.70982 4.52492 3.70982 4.75513C3.70982 5.33065 4.17024 5.79107 4.74576 5.79107C5.09108 5.79107 5.43639 5.56086 5.55149 5.33065V5.44576C5.55149 7.28743 5.7817 9.58951 6.12702 10.8557C6.35722 11.5463 6.47233 12.1218 6.70254 12.5822C4.86087 11.8916 2.32857 10.3952 1.98326 7.97805ZM17.0619 12.5822C17.2921 12.1218 17.4072 11.5463 17.6375 10.8557C17.9828 9.58951 18.213 7.28743 18.213 5.44576C18.4432 5.67597 18.6734 5.79107 18.9036 5.79107C19.4791 5.79107 19.9395 5.33065 19.9395 4.75513C19.9395 4.52492 19.8244 4.29471 19.7093 4.0645C19.9395 4.0645 20.2849 4.17961 20.5151 4.40982C20.5151 4.40982 20.5151 4.40982 20.6302 4.40982C20.7453 4.52492 20.8604 4.64003 20.9755 4.75513C21.6661 5.44576 22.0114 6.5968 21.7812 7.97805C21.4359 10.3952 18.9036 11.8916 17.0619 12.5822Z" fill="#ED823A"/>
    <path d="M5.55144 5.33063C5.55144 5.33063 5.55144 9.9348 6.70248 12.6973C7.04779 13.3879 7.39311 13.9635 7.73842 14.4239C8.88946 15.69 10.3858 16.3806 11.4218 16.3806C12.803 16.3806 13.3785 16.3806 14.0692 15.9202C14.7598 15.4598 15.7957 14.539 15.7957 14.539C15.7957 14.539 10.9613 14.0786 9.34988 10.7405C7.73842 7.4025 7.50821 1.76239 7.50821 1.76239L5.55144 1.9926V3.02854C5.55144 2.91343 6.70248 3.83427 5.55144 5.33063Z" fill="url(#paint0_radial)"/>
    <path d="M5.55162 1.99269C10.7313 1.53227 18.2131 1.99269 18.2131 1.99269L18.4433 1.64738C18.4433 1.64738 16.6016 1.30206 11.9975 1.41717C7.39329 1.41717 5.32141 1.64738 5.32141 1.64738L5.55162 1.99269Z" fill="#CE6B28"/>
    <path d="M8.77478 15.2296C8.77478 15.2296 9.58051 15.8051 10.2711 16.2655C10.9618 16.7259 13.1487 16.4957 13.6092 16.2655C14.0696 16.0353 14.9904 15.4598 15.4508 14.9993C15.9113 14.654 16.0264 14.3087 16.0264 14.3087C16.0264 14.3087 12.9185 16.9561 8.77478 15.2296Z" fill="#CE6B28"/>
    <path d="M13.9544 17.0712C13.9544 17.0712 13.6091 17.3014 13.3789 17.6468C12.9185 17.7619 11.8825 17.877 10.2711 17.6468C10.0408 17.4165 9.81064 17.1863 9.81064 17.0712C9.92574 17.0712 10.2711 17.4165 11.7674 17.4165C13.1487 17.3014 13.9544 17.0712 13.9544 17.0712Z" fill="#CE6B28"/>
    <path d="M13.3781 19.7187C13.263 19.8338 13.0328 20.064 13.0328 20.1791C12.5724 20.1791 11.8818 20.2942 10.8458 20.1791C10.7307 20.064 10.5005 19.8338 10.3854 19.7187C10.7307 19.8338 11.9969 20.1791 13.3781 19.7187Z" fill="#CE6B28"/>
    <path d="M15.22 23.5171H8.54393L8.88924 22.3661C8.88924 22.3661 11.4215 22.7114 15.1049 22.3661L15.22 23.5171Z" fill="#CE6B28"/>
    <path d="M5.78185 4.98528C5.78185 5.10038 5.66675 5.33059 5.43654 5.4457V5.33059C5.32144 5.5608 5.09123 5.79101 4.74592 5.79101C4.17039 5.79101 3.70998 5.33059 3.70998 4.75507C3.70998 4.52486 3.82508 4.29465 3.94018 4.06445C4.17039 3.94934 4.4006 3.94934 4.4006 3.94934C3.94018 4.17955 3.94018 5.21549 4.86102 5.33059C5.89696 5.33059 5.89696 4.52486 5.78185 4.98528Z" fill="url(#paint1_linear)"/>
    <path d="M7.85379 14.4238C5.78191 13.8483 1.29284 12.1217 0.83242 8.20814C0.83242 7.97793 0.717316 7.63261 0.717316 7.4024C0.83242 8.55345 1.52305 10.28 3.24961 11.5462C5.89701 13.5029 7.27827 13.7331 7.27827 13.7331C7.27827 13.7331 7.62358 14.3087 7.85379 14.4238Z" fill="#CE6B28"/>
    <path d="M5.89676 3.71918C5.89676 3.37387 5.55145 3.25876 5.55145 3.25876C5.55145 3.25876 4.1702 2.79835 2.55873 3.83429C1.17748 4.64002 0.717064 6.36658 0.601959 6.9421C0.601959 5.44575 1.29259 4.40981 1.86811 3.83429C2.90405 2.79835 4.1702 2.68324 4.86082 2.79835C5.09103 2.79835 5.32124 2.91345 5.43634 2.91345C5.55145 3.02855 5.66655 3.14366 5.78166 3.25876C6.01187 3.71918 5.89676 4.06449 5.89676 3.71918Z" fill="#FFA96E"/>
    <path d="M18.5584 0.726557L18.4433 1.41718C17.8678 1.30208 16.7167 1.18698 14.5297 1.07187C11.1917 0.841662 6.47244 0.841662 5.09119 0.841662C5.09119 0.841662 9.35005 0.611453 11.3068 0.611453H12.2277C14.2995 0.496348 18.5584 0.726557 18.5584 0.726557Z" fill="#FFA96E"/>
    <path d="M5.55123 4.87023C5.43612 5.21554 5.09081 5.33065 4.8606 5.33065C4.40018 5.33065 4.05487 4.98533 4.05487 4.52492C4.05487 4.1796 4.28508 3.94939 4.51529 3.83429C4.51529 3.94939 4.40018 4.0645 4.40018 4.1796C4.40018 4.64002 4.7455 4.87023 5.20591 4.87023C5.32102 4.98533 5.43612 4.98533 5.55123 4.87023Z" fill="#FFA96E"/>
    <path d="M13.954 17.0713C13.7238 17.1864 12.803 17.5317 10.7311 17.3015C10.7311 17.3015 12.6879 17.3015 13.3785 16.9562C13.3785 16.9562 13.6087 16.8411 13.6087 16.726C13.6087 16.6109 13.4936 16.1505 13.4936 16.1505L13.954 17.0713Z" fill="#FFA96E"/>
    <path opacity="0.45" d="M7.7383 1.76249C7.7383 1.76249 13.0331 1.53228 18.2128 1.87759C18.2128 1.87759 18.2128 5.56093 18.0977 7.05729C17.9826 8.55365 17.7524 12.4672 15.7956 13.8484C13.8388 15.2297 10.1555 12.4672 9.00445 9.01406C7.8534 5.56093 7.7383 1.76249 7.7383 1.76249Z" fill="url(#paint2_linear)"/>
    <path d="M11.4995 11.1892C10.9476 11.1892 10.4831 11.0949 10.1058 10.9065C9.73418 10.7118 9.45826 10.4731 9.27807 10.1904C9.10352 9.90778 9.01061 9.62512 8.99934 9.34247C8.99934 9.28594 9.01624 9.23883 9.05002 9.20114C9.08944 9.16345 9.13449 9.14461 9.18516 9.14461H10.3508C10.4183 9.14461 10.4718 9.16031 10.5112 9.19172C10.5507 9.21684 10.5873 9.26081 10.621 9.32362C10.728 9.63141 11.0237 9.7853 11.5079 9.7853C11.7838 9.7853 11.9978 9.71306 12.1498 9.56859C12.3019 9.42412 12.3779 9.22941 12.3779 8.98444C12.3779 8.51335 12.0963 8.2778 11.5333 8.2778H10.5873C10.5253 8.2778 10.4718 8.25581 10.4268 8.21185C10.3874 8.1616 10.3677 8.10192 10.3677 8.03283V7.47694C10.3677 7.33247 10.4155 7.22569 10.5112 7.1566L11.8711 5.91291H9.53991C9.4836 5.91291 9.43292 5.89093 9.38788 5.84696C9.34846 5.79671 9.32875 5.74018 9.32875 5.67737V4.7446C9.32875 4.67551 9.34846 4.61898 9.38788 4.57501C9.42729 4.52476 9.47797 4.49963 9.53991 4.49963H13.4759C13.5379 4.49963 13.5885 4.52476 13.628 4.57501C13.6674 4.61898 13.6871 4.67551 13.6871 4.7446V5.58315C13.6871 5.71505 13.642 5.81869 13.5519 5.89407L12.3019 7.16602L12.361 7.18486C12.8678 7.26652 13.2704 7.46124 13.5688 7.76902C13.8673 8.0768 14.0165 8.51963 14.0165 9.0975C14.0165 9.51834 13.9067 9.88894 13.6871 10.2093C13.4731 10.5233 13.1747 10.7652 12.7918 10.9348C12.4145 11.1044 11.9837 11.1892 11.4995 11.1892Z" fill="#CE6B28"/>
    <path opacity="0.58" d="M13.3788 19.7186C13.1485 19.8337 12.9183 19.8337 12.4579 19.9488C11.9975 19.9488 11.9975 19.9488 11.9975 19.8337C11.9975 19.7186 12.1126 19.6035 12.6881 18.5676C13.0334 17.8769 13.2636 17.7618 13.3788 17.7618C13.1485 18.1072 13.0334 18.3374 12.9183 18.6827C12.8032 19.6035 13.2636 19.4884 13.3788 19.7186Z" fill="url(#paint3_linear)"/>
    <path opacity="0.58" d="M14.9903 22.3661C14.0695 22.5963 11.9976 22.5963 10.9617 22.5963C9.92574 22.4812 9.81064 22.3661 9.81064 22.3661C9.81064 22.3661 10.7315 22.3661 11.307 22.251C11.8825 22.1359 12.458 21.2151 12.5731 20.8698C12.6882 20.6396 12.8034 20.4094 12.9185 20.2943C12.9185 21.5604 14.1846 22.1359 14.9903 22.3661Z" fill="url(#paint4_linear)"/>
    <path d="M20.1696 11.4312C18.0978 13.2728 16.3712 13.6181 16.3712 13.6181L17.0618 12.6973C19.0186 11.8916 21.4358 10.5103 21.7811 8.09314C22.0113 6.71189 21.666 5.56084 20.9754 4.87022C20.8603 4.75511 20.7452 4.64001 20.6301 4.5249C21.8962 5.33063 22.0113 6.36657 22.1264 7.1723C22.1264 7.86293 22.2415 9.5895 20.1696 11.4312Z" fill="#CE6B28"/>
    <path d="M18.2128 2.91345C18.2128 2.91345 17.6373 3.25877 17.6373 4.1796C17.6373 5.10043 17.9826 5.33064 18.3279 5.56085C18.6732 5.79106 18.6732 3.14366 18.2128 2.91345Z" fill="#ED823A"/>
    <path d="M20.5151 12.3522C20.5151 12.3522 20.5151 12.3522 20.6302 12.2371C20.5151 12.2371 20.5151 12.2371 20.5151 12.3522Z" fill="#FFA96E"/>
    <path d="M23.0473 8.20819C22.8171 9.70455 22.0114 10.9707 20.8603 11.8915C21.5509 11.2009 22.702 9.70455 22.8171 8.55351C22.9322 7.17225 23.0473 4.98527 21.5509 3.83422C20.0546 2.68318 18.328 2.91339 18.328 2.91339C18.4431 2.91339 18.6733 2.79828 18.7884 2.79828C19.5942 2.68318 20.8603 2.91339 21.7812 3.83422C22.5869 4.52485 23.3926 5.9061 23.0473 8.20819Z" fill="#FFA96E"/>
    <path d="M17.7526 4.98528C17.8677 5.4457 18.5583 5.79101 18.9036 5.79101C19.4792 5.79101 19.9396 5.33059 19.9396 4.75507C19.9396 4.52486 19.8245 4.29465 19.7094 4.06445C19.4792 3.94934 19.2489 3.94934 19.2489 3.94934C19.7094 4.06445 19.7094 5.21549 18.7885 5.21549C18.0979 5.33059 17.8677 5.10038 17.7526 4.98528C17.7526 4.87018 17.7526 4.98528 17.7526 4.98528Z" fill="url(#paint5_linear)"/>
    <path d="M18.098 4.87023C18.2131 5.10044 18.4433 5.33065 18.7886 5.33065C19.249 5.33065 19.5943 4.98533 19.5943 4.52492C19.5943 4.1796 19.3641 3.94939 19.1339 3.83429C19.1339 3.94939 19.249 4.0645 19.249 4.1796C19.249 4.64002 18.9037 4.87023 18.4433 4.87023C18.2131 4.98533 18.2131 4.98533 18.098 4.87023Z" fill="#FFA96E"/>
    <path d="M5.89682 5.4458C5.89682 5.4458 5.89682 10.9708 7.85359 13.5031C9.81037 16.0354 13.1484 15.4599 13.1484 15.4599C13.1484 15.4599 9.46506 15.4599 7.9687 12.4672C6.47234 9.47445 5.89682 5.4458 5.89682 5.4458Z" fill="#CE6B28"/>
    <path d="M9.81064 17.0713L10.2711 16.2656C10.2711 16.2656 11.1919 16.4958 11.9976 16.4958C12.8034 16.4958 13.3789 16.3807 13.3789 16.3807C13.3789 16.3807 12.9185 16.6109 11.7674 16.6109C10.5013 16.726 10.3862 16.6109 10.3862 16.6109L9.81064 17.0713Z" fill="#CE6B28"/>
    <path d="M10.7311 17.877C10.7311 17.877 11.0764 18.2223 11.0764 18.6827C11.0764 19.1432 11.0764 19.1432 10.8462 19.4885C10.8462 19.4885 11.7671 19.1432 10.7311 17.877Z" fill="#CE6B28"/>
    <path d="M10.9616 20.2943C10.9616 20.2943 11.0767 20.9849 10.3861 21.5604C9.69545 22.1359 9.23503 22.251 9.23503 22.251C9.23503 22.251 9.81055 22.1359 10.3861 21.6755C10.9616 21.2151 11.0767 20.5245 11.0767 20.5245C11.0767 20.5245 11.9975 20.6396 12.5731 20.5245C12.5731 20.4094 11.422 20.5245 10.9616 20.2943Z" fill="#CE6B28"/>
    <path d="M14.8753 22.4811L15.1055 23.402L8.77478 23.2869L14.7602 23.1718L14.8753 22.4811Z" fill="#ED823A"/>
    <path d="M18.2128 5.44572C18.2128 5.44572 18.2128 10.3952 17.0617 12.5822C15.9107 14.7692 14.2992 14.7692 14.2992 14.7692C14.2992 14.7692 15.6805 14.539 16.8315 12.0067C17.9826 9.47438 17.9826 5.21552 17.9826 5.21552L18.2128 5.44572Z" fill="#CE6B28"/>
    <defs>
        <radialGradient id="paint0_radial" cx="0" cy="0" r="1" gradientUnits="userSpaceOnUse" gradientTransform="translate(11.3679 10.5457) rotate(-114.394) scale(11.275 7.81942)">
            <stop stop-color="#EF893C"/>
            <stop offset="0.9" stop-color="#D97226"/>
        </radialGradient>
        <linearGradient id="paint1_linear" x1="3.71032" y1="4.91046" x2="5.85069" y2="4.91046" gradientUnits="userSpaceOnUse">
            <stop offset="0.1" stop-color="#D1722C"/>
            <stop offset="0.341" stop-color="#EF893C"/>
        </linearGradient>
        <linearGradient id="paint2_linear" x1="14.04" y1="1.79759" x2="10.5983" y2="13.1012" gradientUnits="userSpaceOnUse">
            <stop stop-color="white"/>
            <stop offset="1" stop-color="white" stop-opacity="0"/>
        </linearGradient>
        <linearGradient id="paint3_linear" x1="13.3432" y1="19.1452" x2="12.4233" y2="18.7738" gradientUnits="userSpaceOnUse">
            <stop stop-color="white"/>
            <stop offset="1" stop-color="white" stop-opacity="0"/>
        </linearGradient>
        <linearGradient id="paint4_linear" x1="13.8084" y1="21.3585" x2="11.3791" y2="21.7381" gradientUnits="userSpaceOnUse">
            <stop stop-color="white"/>
            <stop offset="1" stop-color="white" stop-opacity="0"/>
        </linearGradient>
        <linearGradient id="paint5_linear" x1="17.7449" y1="4.91" x2="19.9075" y2="4.91" gradientUnits="userSpaceOnUse">
            <stop offset="0.1" stop-color="#D1722C"/>
            <stop offset="0.341" stop-color="#EF893C"/>
        </linearGradient>
    </defs>
</svg>
