<svg width="14" height="18" viewBox="0 0 14 18" fill="none" xmlns="http://www.w3.org/2000/svg">
    <path d="M5.32411 8.46691C5.36355 8.78219 5.02833 9.00475 4.73256 8.83783C3.64805 8.24435 3.11566 7.15012 2.4058 6.20426C1.26214 7.91052 0.394531 9.56113 0.394531 11.323C0.394531 14.9025 3.09594 17.6288 6.90157 17.6288C10.7072 17.6288 13.6058 14.9025 13.6058 11.323C13.6058 6.83483 8.61707 6.05589 8.67622 0.380737C6.66495 1.71607 4.772 4.70202 5.32411 8.46691Z" fill="#FF793B"/>
    <path d="M6.90141 18C2.89859 18 5.71667e-08 15.1995 5.71667e-08 11.3233C5.71667e-08 9.37599 1.00563 7.6141 2.07042 6.00057C2.1493 5.8893 2.26761 5.83366 2.38592 5.83366C2.52394 5.83366 2.64225 5.8893 2.72113 5.98203C2.89859 6.20458 3.05634 6.44568 3.21408 6.68678C3.70704 7.41009 4.18028 8.0963 4.92958 8.50432C4.35775 4.66524 6.29014 1.49383 8.43944 0.0657724C8.55775 -0.00841262 8.71549 -0.0269589 8.85352 0.0472261C8.99155 0.102865 9.07042 0.232689 9.07042 0.381059C9.03099 3.25573 10.3718 4.83216 11.6535 6.33441C12.8169 7.68828 14 9.07925 14 11.3233C14 15.1253 10.9437 18 6.90141 18ZM2.42535 6.89079C1.53803 8.26322 0.788732 9.74692 0.788732 11.3233C0.788732 14.7544 3.35211 17.2582 6.90141 17.2582C10.4901 17.2582 13.2113 14.6988 13.2113 11.3233C13.2113 9.3389 12.2056 8.17049 11.0423 6.79806C9.83944 5.38855 8.49859 3.81212 8.30141 1.14146C6.60563 2.58806 5.24507 5.24018 5.71831 8.41159C5.75775 8.70833 5.61972 8.98652 5.36338 9.13489C5.10704 9.28326 4.79155 9.28326 4.53521 9.13489C3.62817 8.63414 3.09577 7.83665 2.56338 7.07626C2.50423 7.02062 2.46479 6.96498 2.42535 6.89079Z" fill="#C6490F"/>
    <path d="M11.1409 14.105C11.831 13.1035 12.2254 11.898 12.2254 10.5813L11.1409 14.105Z" fill="#C6490F"/>
    <path d="M11.1408 14.476C11.0619 14.476 10.9831 14.4574 10.9239 14.4203C10.7464 14.3091 10.6873 14.0865 10.8056 13.901C11.476 12.9366 11.8309 11.7868 11.8309 10.5813C11.8309 10.3772 12.0084 10.2103 12.2253 10.2103C12.4422 10.2103 12.6197 10.3772 12.6197 10.5813C12.6197 11.9351 12.2253 13.2148 11.476 14.309C11.3971 14.4203 11.2788 14.476 11.1408 14.476Z" fill="#C6490F"/>
    <path d="M9.93809 15.4033C10.0761 15.292 10.2339 15.1622 10.3522 15.0324L9.93809 15.4033Z" fill="#C6490F"/>
    <path d="M9.93788 15.7743C9.81957 15.7743 9.72098 15.7372 9.64211 15.6444C9.50408 15.4961 9.5238 15.255 9.68155 15.1251C9.79986 15.0139 9.9576 14.9026 10.0562 14.7913C10.1942 14.6429 10.4506 14.6244 10.6083 14.7542C10.7661 14.884 10.7858 15.1251 10.6477 15.2735C10.5097 15.4219 10.3322 15.5702 10.1942 15.6815C10.1153 15.7372 10.0365 15.7743 9.93788 15.7743Z" fill="#C6490F"/>
    <circle cx="7.25" cy="12" r="2" fill="white"/>
</svg>
