<svg viewBox="0 0 48 34" fill="none" xmlns="http://www.w3.org/2000/svg">
<path opacity="0.7" d="M43.7812 0.124512H21.1875C18.853 0.124512 16.9688 2.00879 16.9688 4.34325V12.7807C16.9688 13.4275 17.4187 13.9901 18.0375 14.1306C18.2905 14.2151 29.3718 16.9995 29.625 16.9995H35.5311L39.8062 22.1182C40.1718 22.5681 40.7905 22.7369 41.3531 22.54C41.9157 22.3431 42.2813 21.8088 42.2813 21.2182V16.9995H43.7813C46.1158 16.9995 48 15.115 48 12.7807V4.34325C47.9999 2.00879 46.1157 0.124512 43.7812 0.124512Z" fill="#718792"/>
<path d="M26.8124 11.3745H4.21874C1.88428 11.3745 0 13.2588 0 15.5933V24.0307C0 26.365 1.88428 28.2495 4.21874 28.2495H5.71874V32.4682C5.71874 33.0307 6.05624 33.537 6.59061 33.7619C7.09686 33.987 7.7157 33.8745 8.10926 33.4525L13.3406 28.2495H26.8124C29.1469 28.2495 31.0312 26.365 31.0312 24.0307V15.5933C31.0312 13.2588 29.1469 11.3745 26.8124 11.3745Z" fill="white"/>
<path d="M26.8124 11.3745H4.21874C1.88428 11.3745 0 13.2588 0 15.5933V24.0307C0 26.365 1.88428 28.2495 4.21874 28.2495H5.71874V32.4682C5.71874 33.0307 6.05624 33.537 6.59061 33.7619C7.09686 33.987 7.7157 33.8745 8.10926 33.4525L13.3406 28.2495H26.8124C29.1469 28.2495 31.0312 26.365 31.0312 24.0307V15.5933C31.0312 13.2588 29.1469 11.3745 26.8124 11.3745Z" fill="#718792" fill-opacity="0.3"/>
<path d="M38.0625 9.96874C38.8391 9.96874 39.4687 9.33915 39.4687 8.5625C39.4687 7.78585 38.8391 7.15625 38.0625 7.15625C37.2858 7.15625 36.6562 7.78585 36.6562 8.5625C36.6562 9.33915 37.2858 9.96874 38.0625 9.96874Z" fill="#F7F7F7"/>
<path d="M33.8437 8.56201C33.8437 9.34941 33.2251 9.96826 32.4375 9.96826C31.6499 9.96826 31.0312 9.34941 31.0312 8.56201C31.0312 7.77442 31.6499 7.15576 32.4375 7.15576C33.2251 7.15576 33.8437 7.77442 33.8437 8.56201Z" fill="#F7F7F7"/>
<path d="M26.8125 9.96874C27.5891 9.96874 28.2187 9.33915 28.2187 8.5625C28.2187 7.78585 27.5891 7.15625 26.8125 7.15625C26.0358 7.15625 25.4062 7.78585 25.4062 8.5625C25.4062 9.33915 26.0358 9.96874 26.8125 9.96874Z" fill="#F7F7F7"/>
<path d="M21.1875 21.2187C21.9641 21.2187 22.5937 20.5891 22.5937 19.8125C22.5937 19.0358 21.9641 18.4062 21.1875 18.4062C20.4108 18.4062 19.7812 19.0358 19.7812 19.8125C19.7812 20.5891 20.4108 21.2187 21.1875 21.2187Z" fill="#F7F7F7"/>
<path d="M16.9687 19.812C16.9687 20.5994 16.3501 21.2183 15.5625 21.2183C14.7749 21.2183 14.1562 20.5994 14.1562 19.812C14.1562 19.0244 14.7749 18.4058 15.5625 18.4058C16.3501 18.4058 16.9687 19.0244 16.9687 19.812Z" fill="#F7F7F7"/>
<path d="M9.9375 21.2187C10.7141 21.2187 11.3437 20.5891 11.3437 19.8125C11.3437 19.0358 10.7141 18.4062 9.9375 18.4062C9.16085 18.4062 8.53125 19.0358 8.53125 19.8125C8.53125 20.5891 9.16085 21.2187 9.9375 21.2187Z" fill="#F7F7F7"/>
</svg>
