<svg width="16" height="20" viewBox="0 0 16 20" fill="none" xmlns="http://www.w3.org/2000/svg">
    <path d="M5.93476 0.0488031C6.25363 -0.0616821 6.60193 0.0305521 6.89416 0.174672C7.09835 0.306136 7.30253 0.438997 7.5312 0.525008C7.54868 0.557874 7.58504 0.622906 7.60252 0.655073C7.59343 0.67675 7.57595 0.721504 7.56686 0.743181C7.72979 1.1138 7.83398 1.55294 7.67595 1.94236C7.56826 2.07383 7.38085 2.09418 7.22911 2.14508C7.22841 2.33319 7.25848 2.51926 7.27457 2.70597C7.59903 2.75842 7.8737 2.53255 8.19467 2.55493C8.23802 2.37521 8.27229 2.19256 8.32977 2.01642C8.3962 2.1332 8.39893 2.26753 8.39969 2.39899C8.48361 2.42277 8.56892 2.44444 8.65479 2.46535C8.65563 2.49759 8.65626 2.56192 8.65626 2.59409C10.0632 2.60248 11.4694 2.58772 12.8764 2.60178C12.8729 2.64989 12.866 2.74646 12.8632 2.79478C12.8996 2.79478 12.9737 2.79548 13.0106 2.79548C13.0092 2.53961 13.0106 2.28291 13.0099 2.02705C13.0456 2.02558 13.1155 2.02348 13.1505 2.02278C13.1513 2.22417 13.152 2.42556 13.154 2.62702C13.1847 2.66478 13.2463 2.74024 13.2772 2.778C13.3003 2.75065 13.3464 2.69695 13.3694 2.66961C13.4763 2.76967 13.4155 2.90673 13.4108 3.02966C13.8044 3.0254 14.2022 3.05197 14.5946 3.0198C14.624 2.99813 14.6827 2.95547 14.7121 2.93386C14.766 2.95477 14.8205 2.97582 14.8743 2.9975C15.0512 2.99316 15.2289 2.9926 15.4065 2.9919C15.4028 3.08351 15.4 3.17504 15.3965 3.26672C15.1679 3.26315 14.9385 3.25833 14.7134 3.29742C14.5679 3.17232 14.3728 3.21203 14.1973 3.20728C13.9274 3.21987 13.6489 3.17232 13.3875 3.25826C13.2322 3.30161 13.0617 3.29119 12.9246 3.20301C12.8916 3.28483 12.9421 3.46804 12.8042 3.46098C12.2616 3.46804 11.7196 3.45615 11.1777 3.46454C11.1036 3.5037 11.0288 3.54076 10.9548 3.57706C10.8764 3.81061 10.652 3.96648 10.4609 4.10913C10.4372 4.46786 10.5791 4.80281 10.6344 5.15098C10.5274 5.18168 10.4197 5.21328 10.3141 5.24825C10.1624 5.60628 10.2554 6.095 9.90432 6.34478C9.6351 6.50135 9.45693 6.84189 9.09386 6.78812C9.27847 6.94196 9.04351 6.89371 9.06799 6.77063C8.41137 6.71259 7.85825 6.3273 7.28764 6.03367C7.26107 6.19443 7.21918 6.35254 7.17576 6.50988C7.39253 6.55113 7.57155 6.71057 7.61001 6.93294C7.67923 7.4176 7.54078 7.89877 7.54287 8.3847C7.55826 8.67 7.43589 8.93146 7.28344 9.16432C7.14988 9.31536 6.9394 9.16005 6.77927 9.13774C6.74284 9.20837 6.70724 9.27907 6.67228 9.35032C6.71773 9.54046 6.73731 9.73835 6.80095 9.92436C7.15828 10.3194 7.48344 10.7475 7.73308 11.2195C7.99005 11.754 8.21905 12.3016 8.41913 12.8599C8.43864 12.9684 8.54074 13.0073 8.63038 13.0466C8.64227 13.1585 8.65416 13.2702 8.66535 13.3836C8.70031 13.4346 8.73597 13.4856 8.77234 13.5374C8.79401 14.2269 8.7094 14.9135 8.60227 15.5939C8.53598 15.901 8.71556 16.2009 8.64283 16.51C8.65122 16.6682 8.54227 16.7877 8.49109 16.9276C8.4813 17.2541 8.46522 17.5848 8.50102 17.9108C8.52605 18.15 8.72828 18.3037 8.86534 18.4821C9.01499 18.6409 9.14015 18.8541 9.36672 18.9107C9.58 18.9743 9.78349 19.0667 9.97145 19.1877C10.0288 19.3296 10.0183 19.4801 9.99103 19.6275C9.58125 19.703 9.16309 19.6653 8.74912 19.6717C8.43011 19.6884 8.14565 19.5171 7.83573 19.4813C7.53574 19.4738 7.17002 19.6226 6.9394 19.3541C7.03716 18.9816 7.04499 18.5814 7.22387 18.2338C7.28121 17.8402 7.17226 17.4408 7.1952 17.0437C7.16107 17.015 7.0924 16.9576 7.05814 16.9288C7.08275 16.6695 6.95472 16.4386 6.91199 16.1905C6.88416 15.828 6.85116 15.466 6.8092 15.1051C6.77633 14.9296 6.86724 14.7689 6.99101 14.6521C7.0022 14.4493 7.02961 14.2485 7.04905 14.0472C7.01898 13.9164 6.91479 13.8192 6.84766 13.7074C6.62319 13.8019 6.32041 13.7571 6.18684 13.5374C5.87014 13.0661 5.554 12.5948 5.23374 12.1262C5.10787 12.1179 4.97501 12.1311 4.85753 12.0808C4.72201 11.9417 4.65124 11.7564 4.56467 11.5872C4.44083 11.7263 4.44985 11.9395 4.30314 12.0662C3.99267 12.3641 3.91015 12.8019 3.74792 13.1836C3.62359 13.4311 3.69352 13.7297 3.55492 13.971C3.4808 14.101 3.29479 14.1268 3.24584 14.2752C3.18151 14.4352 3.10599 14.601 2.95565 14.6984C2.79272 14.8052 2.74943 15.0081 2.67678 15.1758C2.61035 15.3304 2.70894 15.4926 2.68587 15.6514C2.58237 16.1556 2.26141 16.5772 2.12645 17.071C2.06491 17.2934 1.97673 17.5437 1.718 17.5912C1.42361 18.117 1.26145 18.7604 1.42787 19.3525C1.52997 19.5385 1.52437 19.7476 1.49291 19.9525C1.02516 19.9889 0.545392 20.0518 0.0860393 19.9211C-0.0216487 19.7077 -0.00626469 19.4567 0.016112 19.2262C0.157994 18.6197 0.34617 18.024 0.46148 17.4115C0.31743 17.2835 0.351064 17.0878 0.353792 16.9164C0.348967 16.5968 0.566369 16.3409 0.717412 16.0787C0.774123 15.8094 0.747552 15.5201 0.886637 15.2731C1.05034 14.964 1.18872 14.6298 1.44123 14.3801C1.48941 14.1599 1.65178 13.9935 1.71737 13.7814C1.7873 13.594 1.66493 13.4038 1.68954 13.2123C1.74961 12.631 1.85527 12.0556 1.94687 11.4787C1.77352 11.334 1.8294 11.104 1.77415 10.9088C1.80142 10.8319 1.83569 10.7585 1.87695 10.6871C1.83359 10.6473 1.79101 10.6067 1.74758 10.5669C1.78954 10.3618 1.77765 9.9947 2.09232 10.0613C2.1119 9.38235 1.87625 8.72503 1.95527 8.04527C1.99722 8.09415 2.03841 8.14387 2.08044 8.19352L2.05806 7.96346C2.18952 7.89353 2.32938 7.83968 2.47622 7.81241C2.23707 7.78101 2.00422 7.72018 1.76982 7.66556C1.71318 7.51655 1.74479 7.35788 1.76562 7.20544C1.85653 6.69078 1.89009 6.16912 1.90897 5.64746C2.174 5.5553 2.4663 5.63355 2.72503 5.51041C2.64475 4.85798 2.62447 4.17696 2.85649 3.55104C3.0432 3.01813 3.39989 2.50416 3.95644 2.31683C4.21937 2.25396 4.55013 2.18326 4.73599 2.4385C4.78704 2.39165 4.83809 2.3434 4.88914 2.29655C4.46475 1.45364 4.97172 0.222223 5.93476 0.0488031ZM9.33106 3.7046C9.21917 3.77313 9.10939 3.85152 9.227 3.97599C9.16966 4.01019 9.11218 4.04312 9.05414 4.07452C8.96324 4.14445 8.75905 4.18423 8.78283 4.32563C8.88496 4.48962 8.97294 4.662 9.04582 4.84092C9.26882 4.65778 9.44644 4.4115 9.56671 4.15081C9.59188 4.12494 9.643 4.07319 9.6681 4.04795C9.65692 3.92837 9.63034 3.81152 9.58349 3.70111C9.49958 3.70257 9.41497 3.7039 9.33106 3.7046Z" fill="#010E28"/>
</svg>
