<svg width="32" height="33" viewBox="0 0 32 33" fill="none" xmlns="http://www.w3.org/2000/svg">
<path d="M29.1972 5.11281C27.8158 3.73146 26.1275 3.57797 25.2066 3.73146C24.8997 3.73146 24.5927 3.88494 24.4392 3.88494C24.4392 3.11752 24.4392 2.50359 24.4392 2.50359L24.5927 2.19662V1.73617L24.7462 0.815268C24.7462 0.815268 19.0673 0.508301 16.4581 0.508301H15.2302C12.621 0.661784 6.94208 0.968752 6.94208 0.968752L7.09556 2.19662L7.40253 2.50359C7.40253 2.50359 7.40253 2.96404 7.40253 3.73146C7.09556 3.88494 6.78859 3.73146 6.63511 3.73146C5.56073 3.57797 3.87241 3.88494 2.49105 5.11281C1.72364 5.88023 0.956218 7.10809 0.802734 9.25686C0.802734 9.41035 0.802734 9.71731 0.802734 9.8708C0.802734 10.1778 0.802734 10.4847 0.956218 10.9452C1.72364 16.0101 7.7095 18.4659 10.3187 19.2333C11.0861 20.0007 12.007 20.7681 13.5419 21.689L12.9279 22.7634C12.9279 22.7634 13.2349 23.0704 13.5419 23.5308C13.8488 23.9913 14.3093 24.4517 14.3093 24.9122C14.3093 26.1401 13.6954 25.9866 13.6954 26.2935C13.6954 26.6005 14.1558 26.754 14.3093 26.9075C14.3093 26.9075 14.3093 26.9075 14.3093 27.061C14.3093 28.7493 12.621 29.5167 11.5466 29.8237L11.0861 31.3585H20.1417L19.6812 29.8237C18.7603 29.5167 16.9185 28.7493 16.9185 27.061C17.072 26.9075 17.379 26.6005 17.379 26.447C17.379 26.447 17.379 26.447 17.379 26.2935C17.379 25.9866 16.765 26.1401 16.765 24.9122C16.765 24.4517 17.072 24.1448 17.379 23.6843L17.5324 23.5308C17.8394 23.0704 18.2999 22.7634 18.2999 22.7634L17.6859 21.689C19.2208 20.7681 20.1417 20.0007 20.9091 19.2333C22.5974 18.7728 25.3601 17.6985 27.5089 15.8567C28.8902 14.6288 30.1181 12.9405 30.4251 10.9452C31.1925 7.87551 30.1181 6.03371 29.1972 5.11281ZM2.64454 10.6382C2.49105 8.79641 2.79802 7.41506 3.71892 6.34068C4.17937 5.88022 4.79331 5.57326 5.25376 5.41977C5.10027 5.72674 4.94679 6.03371 4.94679 6.34068C4.94679 7.10809 5.56073 7.72203 6.32814 7.72203C6.78859 7.72203 7.24905 7.41506 7.40253 7.10809V7.26158C7.40253 9.71731 7.7095 12.787 8.16995 14.4753C8.47691 15.3962 8.6304 16.1636 8.93736 16.7776C6.48163 15.8567 3.10499 13.8614 2.64454 10.6382ZM22.7509 16.7776C23.0579 16.1636 23.2113 15.3962 23.5183 14.4753C23.9788 12.787 24.2857 9.71731 24.2857 7.26158C24.5927 7.56854 24.8997 7.72203 25.2066 7.72203C25.974 7.72203 26.588 7.10809 26.588 6.34068C26.588 6.03371 26.4345 5.72674 26.281 5.41977C26.588 5.41977 27.0484 5.57326 27.3554 5.88023C27.3554 5.88023 27.3554 5.88023 27.5089 5.88023C27.6624 6.03371 27.8158 6.18719 27.9693 6.34068C28.8902 7.26158 29.3507 8.79641 29.0437 10.6382C28.5833 13.8614 25.2066 15.8567 22.7509 16.7776Z" fill="#ED823A"/>
<path d="M7.40247 7.10809C7.40247 7.10809 7.40247 13.2474 8.9373 16.931C9.39775 17.8519 9.8582 18.6194 10.3187 19.2333C11.8535 20.9216 13.8488 21.8425 15.2301 21.8425C17.0719 21.8425 17.8393 21.8425 18.7602 21.2286C19.6811 20.6146 21.0625 19.3868 21.0625 19.3868C21.0625 19.3868 14.6162 18.7728 12.4674 14.3218C10.3187 9.87079 10.0117 2.3501 10.0117 2.3501L7.40247 2.65706V4.03842C7.40247 3.88493 8.9373 5.1128 7.40247 7.10809Z" fill="url(#paint0_radial)"/>
<path d="M7.40267 2.65714C14.3094 2.04321 24.2859 2.65714 24.2859 2.65714L24.5928 2.19669C24.5928 2.19669 22.1371 1.73624 15.9977 1.88972C9.85841 1.88972 7.0957 2.19669 7.0957 2.19669L7.40267 2.65714Z" fill="#CE6B28"/>
<path d="M11.7002 20.3076C11.7002 20.3076 12.7746 21.075 13.6955 21.6889C14.6164 22.3029 17.5326 21.9959 18.1465 21.6889C18.7604 21.382 19.9883 20.6145 20.6022 20.0006C21.2162 19.5402 21.3697 19.0797 21.3697 19.0797C21.3697 19.0797 17.2256 22.6098 11.7002 20.3076Z" fill="#CE6B28"/>
<path d="M18.6071 22.7634C18.6071 22.7634 18.1466 23.0704 17.8397 23.5308C17.2257 23.6843 15.8444 23.8378 13.6956 23.5308C13.3886 23.2239 13.0817 22.9169 13.0817 22.7634C13.2351 22.7634 13.6956 23.2239 15.6909 23.2239C17.5327 23.0704 18.6071 22.7634 18.6071 22.7634Z" fill="#CE6B28"/>
<path d="M17.8391 26.2936C17.6856 26.4471 17.3786 26.754 17.3786 26.9075C16.7647 26.9075 15.8438 27.061 14.4624 26.9075C14.309 26.754 14.002 26.4471 13.8485 26.2936C14.309 26.4471 15.9973 26.9075 17.8391 26.2936Z" fill="#CE6B28"/>
<path d="M20.2949 31.3584H11.3928L11.8533 29.8236C11.8533 29.8236 15.2299 30.2841 20.1414 29.8236L20.2949 31.3584Z" fill="#CE6B28"/>
<path d="M7.7096 6.64759C7.7096 6.80107 7.55612 7.10804 7.24915 7.26152V7.10804C7.09567 7.41501 6.7887 7.72197 6.32825 7.72197C5.56083 7.72197 4.9469 7.10804 4.9469 6.34062C4.9469 6.03365 5.10038 5.72669 5.25387 5.41972C5.56083 5.26624 5.8678 5.26624 5.8678 5.26624C5.25387 5.5732 5.25387 6.95455 6.48173 7.10804C7.86309 7.10804 7.86309 6.03365 7.7096 6.64759Z" fill="url(#paint1_linear)"/>
<path d="M10.4722 19.2332C7.70945 18.4658 1.72359 16.1636 1.10966 10.9451C1.10966 10.6381 0.956177 10.1777 0.956177 9.87073C1.10966 11.4056 2.03056 13.7078 4.33282 15.3961C7.86294 18.0054 9.70474 18.3123 9.70474 18.3123C9.70474 18.3123 10.1652 19.0797 10.4722 19.2332Z" fill="#CE6B28"/>
<path d="M7.86286 4.95929C7.86286 4.49883 7.40241 4.34535 7.40241 4.34535C7.40241 4.34535 5.5606 3.73142 3.41183 5.11277C1.57003 6.18715 0.956096 8.48941 0.802612 9.25682C0.802612 7.26154 1.72351 5.88019 2.49093 5.11277C3.87228 3.73142 5.5606 3.57793 6.4815 3.73142C6.78847 3.73142 7.09544 3.8849 7.24892 3.8849C7.40241 4.03838 7.55589 4.19187 7.70937 4.34535C8.01634 4.95929 7.86286 5.41974 7.86286 4.95929Z" fill="#FFA96E"/>
<path d="M24.7462 0.968798L24.5927 1.8897C23.8253 1.73622 22.2904 1.58273 19.3742 1.42925C14.9232 1.12228 8.63038 1.12228 6.78857 1.12228C6.78857 1.12228 12.4675 0.815314 15.0767 0.815314H16.3046C19.0673 0.661831 24.7462 0.968798 24.7462 0.968798Z" fill="#FFA96E"/>
<path d="M7.40251 6.49415C7.24903 6.9546 6.78858 7.10808 6.48161 7.10808C5.86768 7.10808 5.40723 6.64763 5.40723 6.03369C5.40723 5.57324 5.71419 5.26628 6.02116 5.11279C6.02116 5.26628 5.86768 5.41976 5.86768 5.57324C5.86768 6.18718 6.32813 6.49415 6.94206 6.49415C7.09555 6.64763 7.24903 6.64763 7.40251 6.49415Z" fill="#FFA96E"/>
<path d="M18.607 22.7633C18.3 22.9168 17.0722 23.3772 14.3094 23.0702C14.3094 23.0702 16.9187 23.0702 17.8396 22.6098C17.8396 22.6098 18.1465 22.4563 18.1465 22.3028C18.1465 22.1493 17.9931 21.5354 17.9931 21.5354L18.607 22.7633Z" fill="#FFA96E"/>
<path opacity="0.45" d="M10.3185 2.35011C10.3185 2.35011 17.3787 2.04315 24.2855 2.5036C24.2855 2.5036 24.2855 7.41507 24.132 9.41036C23.9785 11.4056 23.6716 16.6241 21.0623 18.4659C18.4531 20.3077 13.5416 16.6241 12.0068 12.0196C10.472 7.41507 10.3185 2.35011 10.3185 2.35011Z" fill="url(#paint2_linear)"/>
<path opacity="0.58" d="M17.8395 26.2935C17.5325 26.447 17.2256 26.447 16.6116 26.6005C15.9977 26.6005 15.9977 26.6005 15.9977 26.447C15.9977 26.2935 16.1512 26.1401 16.9186 24.7587C17.379 23.8378 17.686 23.6843 17.8395 23.6843C17.5325 24.1448 17.379 24.4517 17.2255 24.9122C17.0721 26.1401 17.686 25.9866 17.8395 26.2935Z" fill="url(#paint3_linear)"/>
<path opacity="0.58" d="M19.9884 29.8236C18.7606 30.1306 15.9979 30.1306 14.6165 30.1306C13.2351 29.9771 13.0817 29.8236 13.0817 29.8236C13.0817 29.8236 14.3095 29.8236 15.077 29.6701C15.8444 29.5166 16.6118 28.2888 16.7653 27.8283C16.9188 27.5214 17.0722 27.2144 17.2257 27.0609C17.2257 28.7492 18.914 29.5166 19.9884 29.8236Z" fill="url(#paint4_linear)"/>
<path d="M26.8947 15.2427C24.132 17.6984 21.8297 18.1589 21.8297 18.1589L22.7506 16.931C25.3598 15.8566 28.583 14.0148 29.0434 10.7917C29.3504 8.94988 28.89 7.41504 27.9691 6.49414C27.8156 6.34066 27.6621 6.18717 27.5086 6.03369C29.1969 7.10808 29.3504 8.48943 29.5039 9.56381C29.5039 10.4847 29.6574 12.787 26.8947 15.2427Z" fill="#CE6B28"/>
<path d="M24.2857 3.88501C24.2857 3.88501 23.5183 4.34546 23.5183 5.57333C23.5183 6.8012 23.9788 7.10816 24.4392 7.41513C24.8997 7.7221 24.8997 4.19198 24.2857 3.88501Z" fill="#ED823A"/>
<path d="M27.3553 16.4707C27.3553 16.4707 27.3553 16.4707 27.5088 16.3173C27.3553 16.3173 27.3553 16.3173 27.3553 16.4707Z" fill="#FFA96E"/>
<path d="M30.7318 10.9451C30.4248 12.9404 29.3504 14.6287 27.8156 15.8566C28.7365 14.9357 30.2713 12.9404 30.4248 11.4056C30.5783 9.56379 30.7318 6.6476 28.7365 5.11277C26.7412 3.57793 24.439 3.8849 24.439 3.8849C24.5924 3.8849 24.8994 3.73141 25.0529 3.73141C26.1273 3.57793 27.8156 3.8849 29.0435 5.11277C30.1179 6.03367 31.1922 7.87547 30.7318 10.9451Z" fill="#FFA96E"/>
<path d="M23.6718 6.64759C23.8252 7.26152 24.7461 7.72197 25.2066 7.72197C25.974 7.72197 26.5879 7.10804 26.5879 6.34062C26.5879 6.03365 26.4345 5.72669 26.281 5.41972C25.974 5.26624 25.667 5.26624 25.667 5.26624C26.281 5.41972 26.281 6.95455 25.0531 6.95455C24.1322 7.10804 23.8252 6.80107 23.6718 6.64759C23.6718 6.64759 23.6718 6.4941 23.6718 6.64759Z" fill="url(#paint5_linear)"/>
<path d="M24.1322 6.49415C24.2857 6.80111 24.5927 7.10808 25.0531 7.10808C25.667 7.10808 26.1275 6.64763 26.1275 6.03369C26.1275 5.57324 25.8205 5.26628 25.5136 5.11279C25.5136 5.26628 25.667 5.41976 25.667 5.57324C25.667 6.18718 25.2066 6.49415 24.5927 6.49415C24.2857 6.64763 24.2857 6.64763 24.1322 6.49415Z" fill="#FFA96E"/>
<path d="M7.86292 7.2616C7.86292 7.2616 7.86291 14.6288 10.4721 18.0054C13.0814 21.3821 17.5324 20.6147 17.5324 20.6147C17.5324 20.6147 12.6209 20.6147 10.6256 16.6241C8.63033 12.6335 7.86292 7.2616 7.86292 7.2616Z" fill="#CE6B28"/>
<path d="M13.0817 22.7635L13.6956 21.6891C13.6956 21.6891 14.9235 21.9961 15.9979 21.9961C17.0722 21.9961 17.8397 21.8426 17.8397 21.8426C17.8397 21.8426 17.2257 22.1495 15.6909 22.1495C14.0026 22.303 13.8491 22.1495 13.8491 22.1495L13.0817 22.7635Z" fill="#CE6B28"/>
<path d="M14.3094 23.8378C14.3094 23.8378 14.7699 24.2982 14.7699 24.9122C14.7699 25.5261 14.7699 25.5261 14.4629 25.9865C14.4629 25.9865 15.6908 25.5261 14.3094 23.8378Z" fill="#CE6B28"/>
<path d="M14.6165 27.0609C14.6165 27.0609 14.7699 27.9818 13.849 28.7492C12.9281 29.5166 12.3142 29.6701 12.3142 29.6701C12.3142 29.6701 13.0816 29.5166 13.849 28.9027C14.6165 28.2888 14.7699 27.3679 14.7699 27.3679C14.7699 27.3679 15.9978 27.5214 16.7652 27.3679C16.7652 27.2144 15.2304 27.3679 14.6165 27.0609Z" fill="#CE6B28"/>
<path d="M19.8348 29.9771L20.1418 31.2049L11.7002 31.0514L19.6813 30.898L19.8348 29.9771Z" fill="#ED823A"/>
<path d="M24.2857 7.26156C24.2857 7.26156 24.2857 13.8614 22.7509 16.7775C21.216 19.6937 19.0673 19.6937 19.0673 19.6937C19.0673 19.6937 20.9091 19.3868 22.4439 16.0101C23.9787 12.6335 23.9787 6.95459 23.9787 6.95459L24.2857 7.26156Z" fill="#CE6B28"/>
<defs>
<radialGradient id="paint0_radial" cx="0" cy="0" r="1" gradientUnits="userSpaceOnUse" gradientTransform="translate(15.1583 14.062) rotate(-114.394) scale(15.0344 10.4266)">
<stop stop-color="#EF893C"/>
<stop offset="0.9" stop-color="#D97226"/>
</radialGradient>
<linearGradient id="paint1_linear" x1="4.94736" y1="6.54782" x2="7.80139" y2="6.54782" gradientUnits="userSpaceOnUse">
<stop offset="0.1" stop-color="#D1722C"/>
<stop offset="0.341" stop-color="#EF893C"/>
</linearGradient>
<linearGradient id="paint2_linear" x1="18.7214" y1="2.39692" x2="14.1321" y2="17.4695" gradientUnits="userSpaceOnUse">
<stop stop-color="white"/>
<stop offset="1" stop-color="white" stop-opacity="0"/>
</linearGradient>
<linearGradient id="paint3_linear" x1="17.7921" y1="25.5289" x2="16.5654" y2="25.0338" gradientUnits="userSpaceOnUse">
<stop stop-color="white"/>
<stop offset="1" stop-color="white" stop-opacity="0"/>
</linearGradient>
<linearGradient id="paint4_linear" x1="18.4125" y1="28.48" x2="15.173" y2="28.9862" gradientUnits="userSpaceOnUse">
<stop stop-color="white"/>
<stop offset="1" stop-color="white" stop-opacity="0"/>
</linearGradient>
<linearGradient id="paint5_linear" x1="23.6615" y1="6.54721" x2="26.5451" y2="6.54721" gradientUnits="userSpaceOnUse">
<stop offset="0.1" stop-color="#D1722C"/>
<stop offset="0.341" stop-color="#EF893C"/>
</linearGradient>
</defs>
</svg>
