<svg xmlns="http://www.w3.org/2000/svg" width="16" height="16" viewBox="0 0 16 16" fill="none">
    <path fill-rule="evenodd" clip-rule="evenodd" d="M3.05066 9.55813C3.20869 9.65566 3.30925 9.75082 3.46009 9.87214L4.68835 11.0045C4.94454 11.2471 5.60057 11.906 5.85437 12.1963C6.02675 12.3961 6.10098 12.4175 6.22787 12.6125C6.18238 12.6292 5.60775 12.76 5.27256 12.8742C4.57821 13.1121 3.94373 13.4927 3.33798 13.2881C3.247 13.2572 2.83518 12.8671 2.64603 12.7339C2.5335 12.6554 2.42815 12.5816 2.29886 12.4912C1.93014 12.2343 1.82479 12.4127 2.31323 11.278C2.44012 10.9807 2.55026 10.7142 2.67237 10.424C2.78011 10.1766 2.92616 9.76509 3.05066 9.55813ZM11.8808 2.71662C12.1346 2.80464 12.7475 3.15195 12.8959 3.33987C13.0228 3.49688 12.9869 3.51115 12.939 3.73952L12.69 5.67826C12.3453 5.69016 12.4434 5.64972 12.2303 5.50699C11.8712 5.26673 10.6405 4.36277 10.2455 4.04639L9.48409 3.43979C9.53916 3.38745 9.46494 3.416 9.59184 3.38269L10.7171 3.13054C11.3037 2.98305 11.3947 2.94499 11.8808 2.71662ZM1.78648 3.10675C2.04507 2.96402 2.18154 3.07107 2.6173 2.75944C2.73462 2.67618 3.00278 2.68332 3.16559 2.70711C3.33319 2.7309 3.72346 3.05204 3.90063 3.16146C4.00359 3.22331 4.46808 3.57538 4.5423 3.69908L4.77215 4.06542C5.0882 4.07969 5.03313 4.06304 5.43058 4.35326L9.24467 6.85103C10.0635 7.41719 11.0212 7.99524 11.8449 8.56616L14.1936 10.0934C14.1266 10.2385 14.0476 10.738 14.0021 10.9379C13.7986 11.8561 13.5424 12.2438 13.1282 13.1264C12.532 13.1502 12.0627 13.1454 11.4809 13.1359C11.2918 13.1335 11.3397 13.1716 11.2367 13.074C10.8967 12.7458 10.2766 12.0274 9.93182 11.6943C9.81211 11.5801 9.70676 11.4731 9.58705 11.347C8.63412 10.3384 9.08425 10.6429 8.89989 10.3907L6.98447 8.58995C6.54392 8.16414 6.14886 7.7074 5.69395 7.22926C5.57663 7.10556 5.51917 6.99138 5.39706 6.87957L5.36354 6.84865C5.33002 6.81772 5.34438 6.82962 5.31326 6.79631L4.75539 6.1683C4.65723 6.07791 4.6668 6.08029 4.59497 5.99941L4.09457 5.48558C3.98443 5.37139 3.89824 5.25245 3.79289 5.12875L3.31404 4.62444C3.24221 4.55308 3.19193 4.53167 3.1201 4.45792C2.89264 4.22242 2.7011 3.99643 2.47125 3.76093C2.28928 3.573 1.84155 3.21142 1.78648 3.10675ZM4.08499 0.294975L0.153586 0.375855C-0.0595046 1.15373 0.151192 0.758846 0.153586 1.57241V3.04252C0.122461 3.46833 0.00992953 3.68243 0.00992953 4.25097C0.00992953 4.44127 -0.0331675 4.88136 0.0602095 5.03122C0.22302 5.29527 0.220626 5.52126 0.29006 5.90425C0.352312 6.24442 0.416957 6.20874 0.263723 6.46566L0.191895 7.11508L0.527094 7.44098L0.529488 8.01189C0.328369 8.19506 0.553431 8.06423 0.129644 8.36872L0.167952 10.0934L0.584557 10.3931L0.498363 11.8632C0.0578152 12.1772 0.153586 12.5555 0.167952 12.9456L0.220626 14.4109L0.124855 15.1627C1.1089 15.4077 0.893419 15.3315 2.01873 15.3315C3.01236 15.3315 2.88546 15.3411 3.86711 15.2221L3.89345 15.3886C4.04669 15.3791 4.20231 15.3696 4.35315 15.3553C4.77215 15.3149 4.60455 15.2673 4.74821 15.215C4.85116 15.1769 5.97408 15.4362 6.15604 15.4743C6.2566 15.3625 6.20633 15.4077 6.34519 15.3173C6.42181 15.4767 6.74504 15.8406 6.87672 16L7.28375 15.6218L7.99485 15.8953L8.20315 15.7217C8.28456 15.8168 8.33484 15.9358 8.4785 15.9548C8.68919 15.9833 8.72271 15.636 9.1896 15.6265L11.888 15.5361C11.9215 15.5028 11.943 15.4838 11.9813 15.4481L12.1202 15.3363C12.2974 15.4434 12.374 15.5456 12.6158 15.529C13.3604 15.479 12.9702 15.7074 13.9303 15.6574C14.0955 15.6479 14.0548 15.6075 14.2008 15.5575L14.5121 15.51C14.445 15.3292 14.4019 15.3553 14.2655 15.2197L15.975 15.5623C15.951 13.5641 15.9558 11.1258 15.9822 9.07047L15.5225 9.10378C15.5392 8.97056 15.7403 9.02052 15.7547 8.75171C15.7739 8.41392 15.7715 7.25543 15.7212 7.00803C15.6949 6.88195 15.3716 6.51323 15.2854 6.39905C15.3884 6.12073 15.398 6.13976 15.5895 5.91139C15.5727 5.76152 15.5392 5.72108 15.4746 5.55219L15.975 5.38805C15.9798 5.10259 16.0133 3.95361 15.9941 3.58965L15.7906 1.6295L15.9463 1.13946L15.9534 0.635147C15.5201 0.387749 15.5775 0.359203 15.2782 0.361582C15.0077 0.363961 14.6462 0.349688 14.3876 0.290217C14.0548 0.214095 14.1458 0.16176 13.7818 0.532858L13.6166 0.176033C13.0851 0.145109 11.4211 0 11.026 0C10.5208 0 10.5926 0.0380613 10.4227 0.60898L9.69718 0.682724L9.60141 0.371097L8.94299 0.363961L9.01242 0.287838C9.13932 0.166518 9.09383 0.214095 9.19439 0H6.54631C6.45772 0.16176 6.2997 0.283081 6.11055 0.34493C5.84718 0.432947 5.97647 0.292596 5.81127 0.440083C5.68677 0.551888 5.66522 0.544752 5.46889 0.539994C5.20791 0.535236 4.93975 0.525721 4.67877 0.516206C4.55906 0.511448 4.42738 0.523342 4.31006 0.497175C4.13048 0.454356 4.18316 0.409158 4.08499 0.294975Z" fill="#B73121"/>
</svg>
