<svg width="48" height="48" viewBox="0 0 48 48" fill="none" xmlns="http://www.w3.org/2000/svg">
<path d="M7 9H41C42.1046 9 43 9.89543 43 11V37C43 38.1046 42.1046 39 41 39H7C5.89543 39 5 38.1046 5 37V11C5 9.89543 5.89543 9 7 9Z" fill="white" stroke="#3BBBE9" stroke-width="2"/>
<path fill-rule="evenodd" clip-rule="evenodd" d="M7 8C5.34315 8 4 9.34315 4 11V37C4 38.6569 5.34314 40 7 40H41C42.6569 40 44 38.6569 44 37V11C44 9.34314 42.6569 8 41 8H7ZM6 12.7673V36.5061L19.0617 23.5241L6 12.7673ZM7.33403 38H40.666L27.3873 24.8015L24.0001 27.591L20.6128 24.8014L7.33403 38ZM42 36.5061V12.7675L28.9384 23.5241L42 36.5061ZM39.0684 10H8.93185L24.0001 22.4091L39.0684 10Z" fill="#3BBBE9"/>
</svg>
