<svg width="25" height="24" viewBox="0 0 25 24" fill="none" xmlns="http://www.w3.org/2000/svg">
    <path d="M22.8581 3.58212C21.771 2.50749 20.4423 2.38809 19.7175 2.50749C19.4759 2.50749 19.2343 2.6269 19.1136 2.6269C19.1136 2.02988 19.1136 1.55227 19.1136 1.55227L19.3551 1.31346V0.955254L19.4759 0.238837C19.4759 0.238837 15.0066 3.05176e-05 12.9532 3.05176e-05H11.9869C9.93341 3.05176e-05 5.46412 0.238837 5.46412 0.238837L5.58491 1.19406L5.8265 1.43287C5.8265 1.43287 5.8265 1.79108 5.8265 2.38809C5.46412 2.50749 5.22254 2.50749 5.10175 2.38809C4.25621 2.26869 2.9275 2.50749 1.84038 3.58212C1.23642 4.17913 0.632464 5.13436 0.511673 6.806C0.511673 6.9254 0.511673 7.16421 0.511673 7.28361C0.511673 7.52242 0.511673 7.76122 0.632464 8.11943C1.23642 12.0597 5.94729 13.9702 8.00074 14.5672C8.6047 15.1642 9.32945 15.7612 10.5374 16.4776L10.0542 17.3135C10.0542 17.3135 10.2958 17.5523 10.5374 17.9105C10.7789 18.2687 11.1413 18.6269 11.1413 18.9851C11.1413 19.9403 10.6582 19.8209 10.6582 20.0597C10.6582 20.2985 11.0205 20.4179 11.1413 20.5373C11.1413 20.5373 11.1413 20.5373 11.1413 20.6567C11.1413 21.9702 9.81262 22.5672 8.96708 22.806L8.6047 24H15.7314L15.369 22.806C14.6443 22.5672 13.1948 21.9702 13.1948 20.6567C13.3156 20.5373 13.5572 20.2985 13.5572 20.1791C13.5572 20.1791 13.5572 20.1791 13.5572 20.0597C13.5572 19.8209 13.074 19.9403 13.074 18.9851C13.074 18.6269 13.3156 18.3881 13.5572 18.0299L13.6779 17.9105C13.9195 17.5523 14.2819 17.3135 14.2819 17.3135L13.7987 16.4776C15.0066 15.7612 15.7314 15.1642 16.3354 14.5672C17.6641 14.209 19.8383 13.3732 21.5294 11.9403C22.6165 10.9851 23.5828 9.67167 23.8244 8.11943C24.4284 5.61197 23.5828 4.29854 22.8581 3.58212ZM1.96117 7.88063C1.84038 6.44779 2.08196 5.25376 2.80671 4.53734C3.16908 4.17913 3.65225 3.94033 4.01463 3.82093C3.89383 4.05973 3.77304 4.29854 3.77304 4.53734C3.77304 5.13436 4.25621 5.61197 4.86017 5.61197C5.22254 5.61197 5.58491 5.37316 5.70571 5.13436V5.25376C5.70571 7.28361 5.94729 9.55227 6.30966 10.9851C6.55125 11.7015 6.67204 12.2985 6.91362 12.7761C4.98096 11.8209 2.32354 10.2687 1.96117 7.88063ZM17.7849 12.6567C18.0264 12.1791 18.1472 11.5821 18.3888 10.8657C18.7512 9.55227 18.9928 7.16421 18.9928 5.25376C19.2343 5.49257 19.4759 5.61197 19.7175 5.61197C20.3215 5.61197 20.8046 5.13436 20.8046 4.53734C20.8046 4.29854 20.6838 4.05973 20.5631 3.82093C20.8046 3.82093 21.167 3.94033 21.4086 4.17913C21.4086 4.17913 21.4086 4.17913 21.5294 4.17913C21.6502 4.29854 21.771 4.41794 21.8918 4.53734C22.6165 5.25376 22.9789 6.44779 22.7373 7.88063C22.3749 10.2687 19.7175 11.8209 17.7849 12.6567Z" fill="#D4D4D4"/>
</svg>
