<svg width="20" height="24" viewBox="0 0 20 24" fill="none" xmlns="http://www.w3.org/2000/svg">
<path d="M7.60573 11.2896C7.66207 11.71 7.18319 12.0067 6.76066 11.7842C5.21136 10.9929 4.4508 9.5339 3.43672 8.27275C1.80291 10.5478 0.563477 12.7486 0.563477 15.0978C0.563477 19.8703 4.42263 23.5054 9.85925 23.5054C15.2959 23.5054 19.4367 19.8703 19.4367 15.0978C19.4367 9.11352 12.31 8.07493 12.3945 0.508057C9.52122 2.2885 6.817 6.26976 7.60573 11.2896Z" fill="#FF793B"/>
<path d="M9.85915 24C4.14084 24 8.16668e-08 20.266 8.16668e-08 15.0978C8.16668e-08 12.5013 1.43662 10.1521 2.95775 8.00076C3.07042 7.8524 3.23944 7.77821 3.40845 7.77821C3.60563 7.77821 3.77465 7.85239 3.88732 7.97604C4.14084 8.27278 4.3662 8.59424 4.59155 8.91571C5.29577 9.88012 5.97183 10.7951 7.04225 11.3391C6.22535 6.22032 8.98592 1.99178 12.0563 0.0876965C12.2254 -0.0112168 12.4507 -0.0359452 12.6479 0.0629682C12.8451 0.137153 12.9577 0.310252 12.9577 0.508078C12.9014 4.34097 14.8169 6.44288 16.6479 8.44588C18.3099 10.251 20 12.1057 20 15.0978C20 20.1671 15.6338 24 9.85915 24ZM3.46479 9.18773C2.19718 11.0176 1.12676 12.9959 1.12676 15.0978C1.12676 19.6725 4.78873 23.0109 9.85915 23.0109C14.9859 23.0109 18.8732 19.5984 18.8732 15.0978C18.8732 12.4519 17.4366 10.894 15.7746 9.06408C14.0563 7.18473 12.1408 5.08282 11.8592 1.52194C9.43662 3.45075 7.49296 6.9869 8.16901 11.2154C8.22535 11.6111 8.02817 11.982 7.66197 12.1799C7.29577 12.3777 6.84507 12.3777 6.47887 12.1799C5.1831 11.5122 4.42253 10.4489 3.66197 9.43501C3.57746 9.36082 3.52113 9.28664 3.46479 9.18773Z" fill="#C6490F"/>
<path d="M15.9155 18.807C16.9014 17.4717 17.4648 15.8644 17.4648 14.1086L15.9155 18.807Z" fill="#C6490F"/>
<path d="M15.9154 19.3016C15.8028 19.3016 15.6901 19.2769 15.6056 19.2274C15.3521 19.079 15.2675 18.7823 15.4366 18.535C16.3943 17.2491 16.9014 15.716 16.9014 14.1086C16.9014 13.8366 17.1549 13.6141 17.4647 13.6141C17.7746 13.6141 18.0281 13.8366 18.0281 14.1086C18.0281 15.9138 17.4647 17.6201 16.3943 19.079C16.2816 19.2274 16.1126 19.3016 15.9154 19.3016Z" fill="#C6490F"/>
<path d="M14.1973 20.538C14.3944 20.3897 14.6198 20.2166 14.7888 20.0435L14.1973 20.538Z" fill="#C6490F"/>
<path d="M14.197 21.0326C14.028 21.0326 13.8871 20.9832 13.7744 20.8595C13.5773 20.6617 13.6054 20.3402 13.8308 20.1671C13.9998 20.0188 14.2251 19.8704 14.366 19.722C14.5632 19.5242 14.9294 19.4995 15.1547 19.6726C15.3801 19.8457 15.4082 20.1671 15.2111 20.365C15.0139 20.5628 14.7604 20.7606 14.5632 20.909C14.4505 20.9832 14.3378 21.0326 14.197 21.0326Z" fill="#C6490F"/>
</svg>
