<svg width="46" height="30" viewBox="0 0 46 30" fill="none" xmlns="http://www.w3.org/2000/svg">
<path d="M0 0H46V30H0V0Z" fill="#000066"/>
<path d="M0 0V3.35156L40.8564 30H46V26.6484L5.14355 0H0ZM46 0V3.35156L5.14355 30H0V26.6484L40.8564 0H46Z" fill="#F7F7F7"/>
<path d="M19.1682 0V30H26.8318V0H19.1682ZM0 10.002V19.998H46V10.002H0Z" fill="#F7F7F7"/>
<path d="M0 12V18H46V12H0ZM20.7 0V30H25.3V0H20.7ZM0 30L15.3318 19.998H18.7639L3.42754 30H0ZM0 0L15.3318 10.002H11.9043L0 2.23828V0ZM27.2406 10.002L42.5725 0H46L30.6682 10.002H27.2406ZM46 30L30.6682 19.998H34.0957L46 27.7617V30Z" fill="#CC0000"/>
</svg>
