<svg viewBox="0 0 48 48" fill="none" xmlns="http://www.w3.org/2000/svg">
<g clip-path="url(#clip0)">
<path d="M45.4658 11.5132L42.4016 42.2828H5.59763L3.12891 12.1087L23.9996 23.7939L45.4658 11.5132Z" fill="white"/>
<path d="M44.4264 5.71716L23.9996 24.9055L3.57275 5.71716H23.9996H44.4264Z" fill="white"/>
<path d="M5.598 14.5775V42.2828H2.26303C1.01362 42.2828 0 41.2693 0 40.0198V10.4969L3.65625 10.5965L5.598 14.5775Z" fill="#F14336"/>
<path d="M48.0006 10.4969V40.0199C48.0006 41.2693 46.987 42.2829 45.7363 42.2829H42.4026V14.5775L44.2487 10.2158L48.0006 10.4969Z" fill="#D32E2A"/>
<path d="M48 7.98019V10.4969L42.402 14.5775L24 27.9901L5.598 14.5775L0 10.4969V7.98019C0 6.73079 1.01363 5.71716 2.26303 5.71716H3.57319L24 20.6055L44.4268 5.71716H45.7357C46.9864 5.71716 48 6.73069 48 7.98019Z" fill="#F14336"/>
<path d="M5.598 14.5774L0 13.7095V10.4969L5.598 14.5774Z" fill="#D32E2A"/>
</g>
<defs>
<clipPath id="clip0"></clipPath>
</defs>
</svg>
