<svg width="24" height="24" viewBox="0 0 24 24" fill="none" xmlns="http://www.w3.org/2000/svg">
    <circle cx="12" cy="12" r="10.5" fill="#FFE55A"/>
    <path fill-rule="evenodd" clip-rule="evenodd" d="M13.575 1.61734C8.52317 2.37725 4.65 6.73631 4.65 12C4.65 17.2637 8.52317 21.6228 13.575 22.3827C13.0612 22.4599 12.5353 22.5 12 22.5C6.20101 22.5 1.5 17.799 1.5 12C1.5 6.20101 6.20101 1.5 12 1.5C12.5353 1.5 13.0612 1.54006 13.575 1.61734Z" fill="#EDB107"/>
    <path d="M20.5015 12.9548C20.2489 12.7084 19.9184 12.5568 19.5689 12.5C18.2088 12.3296 17.5288 12.0264 16.5962 11.098C15.6638 10.1887 15.3532 9.56348 15.1392 8.23711C15.0992 7.86205 14.9355 7.50976 14.6729 7.23305C14.518 7.08003 14.3335 6.95854 14.1301 6.87562C13.9266 6.7927 13.7084 6.75 13.4879 6.75C13.2674 6.75 13.0491 6.7927 12.8457 6.87562C12.6423 6.95854 12.4578 7.08003 12.3029 7.23305C12.1459 7.38411 12.0212 7.56409 11.9362 7.76253C11.8511 7.96096 11.8073 8.1739 11.8073 8.38898C11.8073 8.60407 11.8511 8.81701 11.9362 9.01544C12.0212 9.21388 12.1459 9.39385 12.3029 9.54492C12.5696 9.80321 12.9197 9.96376 13.2938 9.99942H13.2745C14.6541 10.1699 15.3924 10.5867 16.2472 11.4394C17.102 12.273 17.568 12.9554 17.6848 14.3762V14.3571C17.7476 14.6976 17.9095 15.0134 18.1512 15.2667C18.3061 15.4198 18.4906 15.5413 18.6941 15.6243C18.8975 15.7073 19.1159 15.75 19.3364 15.75C19.557 15.75 19.7753 15.7073 19.9788 15.6243C20.1823 15.5413 20.3668 15.4198 20.5217 15.2667C20.8318 14.9567 21.0037 14.5397 20.9999 14.1067C20.9962 13.6736 20.817 13.2596 20.5015 12.9548ZM12.3026 12.9548C12.1456 13.1059 12.021 13.2858 11.9359 13.4843C11.8508 13.6827 11.807 13.8956 11.807 14.1107C11.807 14.3258 11.8508 14.5388 11.9359 14.7372C12.021 14.9356 12.1456 15.1156 12.3026 15.2667C12.4575 15.4198 12.642 15.5413 12.8455 15.6243C13.049 15.7073 13.2673 15.75 13.4879 15.75C13.7084 15.75 13.9268 15.7073 14.1302 15.6243C14.3337 15.5413 14.5183 15.4198 14.6732 15.2667C14.8301 15.1156 14.9548 14.9356 15.0399 14.7372C15.125 14.5388 15.1688 14.3258 15.1688 14.1107C15.1688 13.8956 15.125 13.6827 15.0399 13.4843C14.9548 13.2858 14.8301 13.1059 14.6732 12.9548C14.5183 12.8017 14.3337 12.6801 14.1302 12.5972C13.9268 12.5142 13.7084 12.4715 13.4879 12.4715C13.2673 12.4715 13.049 12.5142 12.8455 12.5972C12.642 12.6801 12.4575 12.8017 12.3026 12.9548ZM7.63989 15.74C7.86115 15.7428 8.08078 15.7028 8.28604 15.6222C8.4913 15.5416 8.6781 15.422 8.83559 15.2704C8.99308 15.1188 9.11813 14.9382 9.20348 14.7391C9.28883 14.54 9.33278 14.3264 9.33278 14.1106C9.33278 13.8948 9.28883 13.6811 9.20348 13.482C9.11813 13.2829 8.99308 13.1024 8.83559 12.9508C8.6781 12.7992 8.4913 12.6796 8.28604 12.599C8.08078 12.5184 7.86115 12.4783 7.63989 12.4812C7.20218 12.4891 6.78515 12.6642 6.47848 12.9689C6.17181 13.2736 6 13.6835 6 14.1104C6 14.5374 6.17181 14.9473 6.47848 15.252C6.78515 15.5567 7.20218 15.7321 7.63989 15.74Z" fill="#EDB107"/>
</svg>
