<svg width="24" height="24" viewBox="0 0 24 24" fill="none" xmlns="http://www.w3.org/2000/svg">
<g clip-path="url(#clip0)">
<path d="M12.7011 0.448803L15.8128 6.79188C15.9324 7.03125 16.1718 7.15093 16.4112 7.15093L23.3527 8.10837C23.9511 8.22805 24.1904 8.94614 23.8314 9.42486L18.8048 14.3318C18.5654 14.4515 18.5654 14.8105 18.5654 15.0499L19.7622 21.9913C19.8819 22.5897 19.1638 23.0685 18.6851 22.8291L12.4617 19.5977C12.2223 19.478 11.983 19.478 11.7436 19.5977L5.52021 22.8291C4.92181 23.0685 4.3234 22.5897 4.44309 21.9913L5.63989 15.0499C5.63989 14.8105 5.63989 14.5711 5.40053 14.3318L0.373938 9.42486C-0.104785 8.94614 0.134577 8.22805 0.852661 8.10837L7.79415 7.15093C8.03351 7.15093 8.27287 6.91156 8.39255 6.79188L11.5043 0.448803C11.6239 -0.149601 12.342 -0.149601 12.7011 0.448803Z" fill="#FFD700"/>
<path d="M7.07596 20.3157C6.83659 20.3157 6.71691 20.3157 6.59723 20.1961C6.35787 19.9567 6.11851 19.5977 6.23819 19.3583L7.07596 14.4514V14.3317L3.48553 10.861C3.24617 10.6216 3.12649 10.2626 3.24617 9.90351C3.36585 9.54447 3.60521 9.30511 3.96426 9.30511L8.87117 8.58702C8.87117 8.58702 8.99085 8.58702 8.99085 8.46734L11.1451 4.03915C11.2648 3.68011 11.6238 3.56042 11.9829 3.56042C12.3419 3.56042 12.701 3.79979 12.8206 4.03915L14.9749 8.46734L15.0946 8.58702L20.0015 9.30511C20.3605 9.30511 20.5999 9.54447 20.7196 9.90351C20.8392 10.2626 20.7196 10.6216 20.4802 10.861L16.8898 14.3317V14.4514L17.7275 19.3583C17.7275 19.7173 17.6079 20.0764 17.3685 20.1961C17.1291 20.4354 16.7701 20.4354 16.4111 20.3157L11.9829 18.0418H11.8632L7.435 20.3157C7.435 20.1961 7.19564 20.3157 7.07596 20.3157ZM11.9829 4.15883C11.9829 4.15883 11.8632 4.15883 11.8632 4.27851L9.58925 8.7067C9.46957 8.94606 9.23021 9.18542 8.87117 9.18542L3.96426 9.90351C3.84457 9.90351 3.84457 10.0232 3.84457 10.0232V10.1429L7.435 13.6136C7.67436 13.853 7.79404 14.0923 7.67436 14.4514L6.83659 19.3583C6.83659 19.478 6.83659 19.478 6.95627 19.478H7.07596L11.5041 17.204C11.7435 17.0844 12.1025 17.0844 12.3419 17.204L16.7701 19.478C16.8898 19.478 16.8898 19.478 16.8898 19.478L17.0095 19.3583L16.1717 14.4514C16.1717 14.212 16.1717 13.853 16.4111 13.6136L20.0015 10.1429C20.1212 10.0232 20.0015 10.0232 20.0015 10.0232C20.0015 10.0232 20.0015 9.90351 19.8818 9.90351L14.9749 9.18542C14.7355 9.18542 14.3765 8.94606 14.2568 8.7067L12.1025 4.27851C12.1025 4.15883 11.9829 4.15883 11.9829 4.15883Z" fill="#E59E00"/>
<path opacity="0.45" d="M5.52062 15.0499C5.52062 14.8105 5.52062 14.5711 5.28126 14.3318L0.254668 9.42486C-0.224056 8.94614 0.015306 8.22806 0.61371 8.10837L7.5552 7.15093C7.79456 7.15093 8.03392 6.91157 8.1536 6.79189L11.2653 0.448803C11.5047 -0.149601 12.3424 -0.149601 12.5818 0.448803L15.6935 6.79189C15.8132 7.03125 16.0525 7.15093 16.2919 7.15093L20.7201 7.74933L5.0419 17.9222L5.52062 15.0499Z" fill="white"/>
</g>
<defs>
<clipPath id="clip0">
<rect width="24" height="24" fill="white"/>
</clipPath>
</defs>
</svg>
