<?xml version="1.0" encoding="utf-8"?>
<!-- Generator: Adobe Illustrator 22.0.1, SVG Export Plug-In . SVG Version: 6.00 Build 0)  -->
<svg version="1.1" id="Layer_1" xmlns="http://www.w3.org/2000/svg" xmlns:xlink="http://www.w3.org/1999/xlink" x="0px" y="0px"
	 viewBox="0 0 24 24" style="enable-background:new 0 0 24 24;" xml:space="preserve">
	<g>
	<path class="st0" d="M12,21.9C11.8,21.9,0.1,8,0.1,8H7L12,21.9z" fill="#0AB0DD" />
	<polygon class="st1" points="12,2.8 7.1,8 5.2,2.8" fill="#30BFF2"/>
	<polygon class="st2" points="5.2,2.8 7.1,8 0.1,8" fill="#6BD2F7"/>
	<polygon class="st1" points="18.8,2.8 16.9,8 12,2.8" fill="#30BFF2"/>
	<polygon class="st2" points="23.9,8 16.9,8 18.8,2.8" fill="#6BD2F7"/>
	<path class="st0" d="M23.9,8L23.9,8c0,0-11.6,14-11.9,14l4.9-14H23.9z" fill="#0AB0DD"/>
	<polygon class="st1" points="16.6,8.9 12,22 7.4,8.9" fill="#30BFF2"/>
	<polygon class="st3" points="16.9,8 7.1,8 12,2.8" fill="#7AE0FC"/>
	<polygon class="st4" points="5.2,2.8 7.1,8 12,2.8 7.6,6.1" fill="#FFFFFF"/>
	<polygon class="st4" points="12,2.8 16.9,8 18.8,2.8 16.8,6.6" fill="#FFFFFF"/>
	<polygon class="st4" points="0.1,8 6.4,8.8 12,21.9 7.1,8" fill="#FFFFFF"/>
	<polygon class="st4" points="12,21.9 16.9,8 23,8 17.5,8.8" fill="#FFFFFF"/>
</g>
</svg>
