<svg width="22" height="16" viewBox="0 0 22 16" xmlns="http://www.w3.org/2000/svg">
<path d="M3.81972 10.9242C3.81972 10.9242 4.67968 10.4955 4.95103 10.4573C5.22237 10.4191 5.33926 10.5974 5.38101 11.0176L5.4478 15.2743C5.4478 15.2743 5.46867 15.6393 5.76924 15.6563C6.06981 15.6733 10.14 15.1597 10.14 15.1597C10.14 15.1597 10.7704 15.0282 10.8873 14.7226C11.0042 14.417 10.9123 14.1454 10.7913 13.9247C10.6702 13.704 10.0064 12.8043 9.97721 12.1507C9.94799 11.4971 10.2235 10.6483 11.0459 10.2706C11.8683 9.89289 12.8451 10.2112 13.4004 10.8351C13.9556 11.4589 13.8011 12.4733 13.7469 12.9146C13.6926 13.356 13.4004 14.0393 13.9598 14.3831C14.5191 14.7268 17.9423 13.39 17.9423 13.39C17.9423 13.39 18.4391 13.2414 18.4641 12.9741C18.4892 12.7067 17.4873 9.98626 17.4873 9.98626C17.4873 9.98626 17.3829 9.56185 17.7377 9.41331C18.0926 9.26477 18.7229 9.48971 19.5036 9.55336C20.2842 9.61703 20.9021 9.18838 21.2694 8.67909C21.6368 8.16981 21.808 7.52047 21.6451 6.64196C21.4823 5.76344 20.7727 5.11835 19.7708 4.82551C18.7689 4.53267 17.4539 5.44514 17.2201 5.51729C16.9863 5.58944 16.74 5.59368 16.6315 5.17352C16.5229 4.75336 16.548 0.704558 16.548 0.704558C16.548 0.704558 16.5689 0.47538 16.3643 0.369279C16.1598 0.263179 11.6178 0.904027 11.6178 0.904027C11.6178 0.904027 11.1169 1.04832 11.0918 1.43878C11.0668 1.82923 11.2505 2.21968 11.5719 2.72472C11.8933 3.22976 12.2482 3.90031 11.814 4.84673C11.4592 5.61915 10.5658 5.90774 9.92294 5.83984C9.39277 5.78466 8.67057 5.4027 8.26981 4.5836C7.86905 3.76451 8.25311 3.03453 8.36583 2.55496C8.47854 2.07538 8.29903 1.62551 7.81896 1.51517C7.33888 1.40482 5.50207 2.12206 5.50207 2.12206L3.81972 2.69925C3.81972 2.69925 3.54419 2.80111 3.55672 3.05151C3.56924 3.30191 4.45843 5.87379 4.45843 5.87379C4.45843 5.87379 4.60454 6.35761 4.37076 6.55283C4.13698 6.74806 2.79277 6.44673 2.32104 6.46371C1.84932 6.48069 1.05197 6.65045 0.521803 7.69872C-0.00836763 8.747 0.563549 10.0372 0.997704 10.4743C1.43186 10.9115 2.23338 11.2637 2.82617 11.2085C3.41896 11.1534 3.81972 10.9242 3.81972 10.9242Z"/>
<path d="M4.68801 6.20067C4.97606 6.3577 5.22653 6.502 5.4937 6.64629C5.73165 6.34921 5.96125 6.06486 6.19921 5.77202C5.86941 5.4707 5.53545 5.1821 5.22653 4.87229C4.80072 4.44364 4.39579 3.99802 3.98251 3.56088C3.94911 3.52693 3.91572 3.48873 3.88649 3.44629C3.65272 3.08979 3.71116 2.91579 4.0994 2.77998C4.45424 2.6569 4.81325 2.54656 5.16391 2.41499C5.30585 2.36406 5.36012 2.40226 5.43943 2.52534C5.94456 3.302 6.4622 4.07441 6.97568 4.84682C6.99655 4.88078 7.02994 4.91048 7.05499 4.94019C7.36808 4.72375 7.677 4.51154 7.99427 4.28661C8.30319 5.33064 8.9586 5.963 10.0022 6.05213C10.8747 6.12852 11.551 5.73807 11.9935 4.92322C12.2148 5.04205 12.4318 5.16088 12.6489 5.27971C12.9912 5.46645 13.3335 5.65319 13.68 5.83144C13.7927 5.88661 13.8261 5.95452 13.8178 6.07759C13.7927 6.5699 13.9096 7.01128 14.1935 7.43144C14.9616 8.5646 15.6963 9.72746 16.4478 10.8733C16.5271 10.9922 16.5313 11.0728 16.4478 11.1917C16.1848 11.5651 15.9343 11.9471 15.688 12.3333C15.6212 12.4394 15.5628 12.4521 15.45 12.4012C15.0117 12.2017 14.5692 12.0192 14.1309 11.8198C14.0641 11.7901 13.989 11.7179 13.9723 11.6543C13.5673 10.1901 12.1104 9.54072 10.7871 10.241C10.7704 10.2495 10.7495 10.258 10.7161 10.2707C10.3487 9.79961 10.1525 9.24788 10.0231 8.66645C9.97719 9.31579 10.0273 9.95239 10.1734 10.5848C10.1943 10.6739 10.1776 10.797 10.1316 10.8733C9.72672 11.5694 9.69749 12.2739 10.0732 12.9911C10.2318 13.2882 10.3988 13.581 10.5616 13.8781C10.595 13.9418 10.6284 14.0012 10.6576 14.0649C10.8914 14.5699 10.737 14.884 10.1859 14.9773C9.56391 15.0834 8.93355 15.1641 8.30736 15.2362C7.54759 15.3253 6.78782 15.3975 6.02805 15.4824C5.67738 15.5206 5.61894 15.4696 5.61477 15.1216C5.59807 13.8145 5.58972 12.5073 5.56467 11.1959C5.5605 11.0092 5.53127 10.8139 5.477 10.6357C5.38099 10.3216 5.17644 10.2198 4.85917 10.3131C4.72141 10.3556 4.58365 10.4107 4.45006 10.4659C4.31647 10.5211 4.18706 10.589 4.01591 10.6654C4.0493 10.3938 4.0827 10.1561 4.1161 9.89298C3.8197 9.92693 3.54 9.96937 3.26031 9.98635C2.52558 10.0288 1.79086 10.0627 1.05196 10.0924C0.985168 10.0967 0.926724 10.0712 0.897503 10.0203C0.521791 9.4134 0.39238 8.75982 0.580235 8.06804C1.11041 8.18688 1.62388 8.32269 2.14152 8.40757C2.83868 8.52216 3.54418 8.5943 4.24968 8.69192C4.39579 8.71314 4.47093 8.66645 4.5252 8.51791C4.62957 8.22507 4.75898 7.94497 4.87169 7.6691C3.98251 7.34231 2.98479 6.98157 2.09143 6.65054C2.0956 6.62507 2.37113 6.59536 2.45044 6.60385C2.94722 6.64629 3.44816 6.70146 3.94494 6.74391C4.0493 6.75239 4.15367 6.75239 4.25803 6.73542C4.55025 6.70147 4.66714 6.51048 4.68801 6.20067ZM12.0603 6.43833C12.148 6.59961 12.2273 6.76088 12.3191 6.91791C12.532 7.27441 12.7575 7.32534 13.1332 7.12162C12.8785 6.73542 12.4611 6.59961 12.0603 6.43833ZM14.9366 10.8182C15.1578 11.3275 15.1578 11.3275 15.6755 11.2129C15.7047 11.2044 15.7339 11.2001 15.7631 11.1959C15.4876 11.0686 15.2121 10.9413 14.9366 10.8182Z" fill="white"/>
<path d="M6.96313 1.78675C7.39729 1.6467 7.74378 1.62972 7.88155 1.69338C8.11115 1.79948 8.27396 2.02441 8.25726 2.31301C8.24056 2.61433 8.09445 2.94537 8.03183 3.24245C7.96921 3.53529 7.96086 3.83661 7.95669 4.03184C7.65194 3.28065 7.29293 2.60585 6.96313 1.78675Z" fill="white"/>
<path d="M14.0559 11.8792C14.3189 12.2187 14.5652 12.537 14.8491 12.902C14.5193 12.9529 14.2312 12.9953 13.9307 13.0378C13.9724 12.6388 14.01 12.2781 14.0559 11.8792Z" fill="white"/>
</svg>
