<svg width="24" height="24" viewBox="0 0 24 24" fill="none" xmlns="http://www.w3.org/2000/svg">
<g clip-path="url(#clip0)">
<path d="M8.90022 11.2C8.80022 11.2 8.70022 11.1 8.60022 11.1L8.80022 11C8.80022 11 8.80022 11.1 8.90022 11.2Z" fill="url(#paint0_linear)"/>
<path d="M22.0894 3.58206C21.0147 2.50744 19.7013 2.38804 18.9849 2.50744C18.7461 2.50744 18.5073 2.62684 18.3879 2.62684C18.3879 2.02983 18.3879 1.55223 18.3879 1.55223L18.5073 1.31342V0.955216L18.6267 0.238804C18.6267 0.238804 14.2088 0 12.179 0H11.2238C9.19395 0.119402 4.77608 0.358206 4.77608 0.358206L4.89548 1.31342L5.13428 1.55223C5.13428 1.55223 5.13428 1.91043 5.13428 2.50744C4.89548 2.62684 4.65668 2.50744 4.53727 2.50744C3.70146 2.38804 2.38804 2.62684 1.31342 3.58206C0.716411 4.17907 0.119402 5.13428 0 6.80591C0 6.92531 0 7.16412 0 7.28352C0 7.52232 -1.1565e-07 7.76113 0.119402 8.11933C0.716411 12.0596 5.37309 13.97 7.40292 14.567C7.99993 15.164 8.71634 15.7611 9.91036 16.4775L9.43275 17.3133C9.43275 17.3133 9.67156 17.5521 9.91036 17.9103C10.1492 18.2685 10.5074 18.6267 10.5074 18.9849C10.5074 19.9401 10.0298 19.8207 10.0298 20.0595C10.0298 20.2983 10.388 20.4177 10.5074 20.5371C10.5074 20.5371 10.5074 20.5371 10.5074 20.6565C10.5074 21.97 9.19395 22.567 8.35814 22.8058L7.99993 23.9998H15.0446L14.6864 22.8058C13.97 22.567 12.5372 21.97 12.5372 20.6565C12.6566 20.5371 12.8954 20.2983 12.8954 20.1789C12.8954 20.1789 12.8954 20.1789 12.8954 20.0595C12.8954 19.8207 12.4178 19.9401 12.4178 18.9849C12.4178 18.6267 12.6566 18.3879 12.8954 18.0297L13.0148 17.9103C13.2536 17.5521 13.6118 17.3133 13.6118 17.3133L13.1342 16.4775C14.3282 15.7611 15.0446 15.164 15.6417 14.567C16.9551 14.2088 19.1043 13.373 20.7759 11.9402C21.8506 10.985 22.8058 9.67156 23.0446 8.11933C23.6416 5.73129 22.8058 4.29847 22.0894 3.58206ZM1.43282 7.88053C1.31342 6.4477 1.55222 5.37309 2.26864 4.53727C2.62684 4.17907 3.10445 3.94026 3.46266 3.82086C3.34325 4.05967 3.22385 4.29847 3.22385 4.53727C3.22385 5.13428 3.70146 5.61189 4.29847 5.61189C4.65668 5.61189 5.01488 5.37309 5.13428 5.13428V5.25369C5.13428 7.16412 5.37309 9.55216 5.73129 10.8656C5.9701 11.582 6.0895 12.179 6.3283 12.6566C4.41787 11.9402 1.79103 10.388 1.43282 7.88053ZM17.0745 12.6566C17.3133 12.179 17.4327 11.582 17.6715 10.8656C18.0297 9.55216 18.2685 7.16412 18.2685 5.25369C18.5073 5.49249 18.7461 5.61189 18.9849 5.61189C19.5819 5.61189 20.0595 5.13428 20.0595 4.53727C20.0595 4.29847 19.9401 4.05967 19.8207 3.82086C20.0595 3.82086 20.4177 3.94026 20.6565 4.17907C20.6565 4.17907 20.6565 4.17907 20.7759 4.17907C20.8953 4.29847 21.0147 4.41787 21.1341 4.53727C21.8506 5.25369 22.2088 6.4477 21.97 7.88053C21.6117 10.388 18.9849 11.9402 17.0745 12.6566Z" fill="#ADCEE1"/>
<path d="M5.13379 5.1342C5.13379 5.1342 5.13379 9.91028 6.32781 12.7759C6.68601 13.4923 7.04422 14.0893 7.40243 14.567C8.59644 15.8804 10.1487 16.5968 11.2233 16.5968C12.6561 16.5968 13.2531 16.5968 13.9695 16.1192C14.6859 15.6416 15.7606 14.6864 15.7606 14.6864C15.7606 14.6864 10.7457 14.2087 9.07405 10.7461C7.40243 7.28343 7.16362 1.43274 7.16362 1.43274L5.13379 1.67154V2.74616C5.13379 2.62676 6.32781 3.58197 5.13379 5.1342Z" fill="url(#paint1_linear)"/>
<path d="M5.13382 1.67191C10.5069 1.19431 18.268 1.67191 18.268 1.67191L18.5068 1.31371C18.5068 1.31371 16.5964 0.955503 11.8203 1.0749C7.04425 1.19431 4.89502 1.31371 4.89502 1.31371L5.13382 1.67191Z" fill="#80A1AF"/>
<path d="M8.47546 15.4027C8.47546 15.4027 9.31128 15.9997 10.0277 16.4773C10.7441 16.955 13.0127 16.7161 13.4903 16.4773C13.968 16.2385 14.9232 15.6415 15.4008 15.1639C15.8784 14.8057 15.9978 14.4475 15.9978 14.4475C15.9978 14.4475 12.7739 17.1938 8.47546 15.4027Z" fill="#86A8BA"/>
<path d="M13.8497 17.3132C13.8497 17.3132 13.4915 17.552 13.2527 17.9102C12.7751 18.0296 11.7005 18.149 10.0289 17.9102C9.79007 17.6714 9.55127 17.4326 9.55127 17.3132C9.67067 17.3132 10.0289 17.6714 11.5811 17.6714C13.0139 17.552 13.8497 17.3132 13.8497 17.3132Z" fill="#80A1AF"/>
<path d="M13.2539 20.0593C13.1345 20.1787 12.8957 20.4175 12.8957 20.5369C12.4181 20.5369 11.7016 20.6563 10.627 20.5369C10.5076 20.4175 10.2688 20.1787 10.1494 20.0593C10.5076 20.1787 11.821 20.6563 13.2539 20.0593Z" fill="#80A1AF"/>
<path d="M15.1642 24.0001H8.23889L8.5971 22.806C8.5971 22.806 11.2239 23.1642 15.0448 22.806L15.1642 24.0001Z" fill="#80A1AF"/>
<path d="M5.3725 4.77603C5.3725 4.89544 5.2531 5.13424 5.0143 5.25364V5.13424C4.89489 5.37304 4.65609 5.61185 4.29788 5.61185C3.70087 5.61185 3.22327 5.13424 3.22327 4.53723C3.22327 4.29843 3.34267 4.05962 3.46207 3.82082C3.70087 3.70142 3.93968 3.70142 3.93968 3.70142C3.46207 3.94022 3.46207 5.01484 4.41729 5.13424C5.4919 5.13424 5.4919 4.29843 5.3725 4.77603Z" fill="url(#paint2_linear)"/>
<path d="M7.5223 14.5672C5.37307 13.9702 0.716395 12.1792 0.238787 8.1195C0.238787 7.8807 0.119385 7.5225 0.119385 7.28369C0.238787 8.47771 0.955198 10.2687 2.74623 11.5822C5.49247 13.612 6.92529 13.8508 6.92529 13.8508C6.92529 13.8508 7.2835 14.4478 7.5223 14.5672Z" fill="#86A8BA"/>
<path d="M5.49247 3.46273C5.49247 3.10452 5.13427 2.98512 5.13427 2.98512C5.13427 2.98512 3.70144 2.50751 2.02982 3.58213C0.596993 4.41794 0.119385 6.20897 0.119385 6.80598C0.119385 5.25376 0.835797 4.17914 1.43281 3.58213C2.50742 2.50751 3.82085 2.38811 4.53726 2.50751C4.77606 2.50751 5.01486 2.62691 5.13427 2.62691C5.25367 2.74632 5.37307 2.86572 5.49247 2.98512C5.61187 3.46273 5.49247 3.82093 5.49247 3.46273Z" fill="#CEE8F2"/>
<path d="M18.6263 0.358523L18.5069 1.07493C17.9099 0.955533 16.7158 0.836131 14.4472 0.716729C10.9846 0.477925 6.08907 0.477925 4.65625 0.477925C4.65625 0.477925 9.07412 0.239121 11.104 0.239121H12.0592C14.2084 0.119719 18.6263 0.358523 18.6263 0.358523Z" fill="#CEE8F2"/>
<path d="M5.13365 4.65714C5.01424 5.01534 4.65604 5.13474 4.41724 5.13474C3.93963 5.13474 3.58142 4.77654 3.58142 4.29893C3.58142 3.94073 3.82022 3.70192 4.05903 3.58252C4.05903 3.70192 3.93963 3.82132 3.93963 3.94072C3.93963 4.41833 4.29783 4.65714 4.77544 4.65714C4.89484 4.77654 5.01424 4.77654 5.13365 4.65714Z" fill="#CEE8F2"/>
<path d="M13.8522 17.3131C13.6134 17.4325 12.6581 17.7907 10.5089 17.5519C10.5089 17.5519 12.5387 17.5519 13.2552 17.1937C13.2552 17.1937 13.494 17.0743 13.494 16.9549C13.494 16.8355 13.3746 16.3579 13.3746 16.3579L13.8522 17.3131Z" fill="#CEE8F2"/>
<path opacity="0.45" d="M7.40283 1.4332C7.40283 1.4332 12.8953 1.1944 18.2684 1.5526C18.2684 1.5526 18.2684 5.37347 18.149 6.92569C18.0296 8.47792 17.7908 12.5376 15.761 13.9704C13.7311 15.4032 9.91027 12.5376 8.71625 8.95552C7.52223 5.37346 7.40283 1.4332 7.40283 1.4332Z" fill="url(#paint3_linear)"/>
<path opacity="0.58" d="M13.2553 20.0599C13.0165 20.1793 12.7777 20.1793 12.3001 20.2987C11.8225 20.2987 11.8225 20.2987 11.8225 20.1793C11.8225 20.0599 11.9419 19.9405 12.5389 18.8658C12.8971 18.1494 13.1359 18.03 13.2553 18.03C13.0165 18.3882 12.8971 18.627 12.7777 18.9852C12.6583 19.9405 13.1359 19.8211 13.2553 20.0599Z" fill="url(#paint4_linear)"/>
<path opacity="0.58" d="M14.9244 22.8056C13.9691 23.0444 11.8199 23.0444 10.7453 23.0444C9.67067 22.925 9.55127 22.8056 9.55127 22.8056C9.55127 22.8056 10.5065 22.8056 11.1035 22.6862C11.7005 22.5668 12.2975 21.6116 12.4169 21.2534C12.5363 21.0146 12.6557 20.7758 12.7751 20.6564C12.7751 21.9698 14.0885 22.5668 14.9244 22.8056Z" fill="url(#paint5_linear)"/>
<path d="M20.2984 11.4623C18.1492 13.3728 16.3582 13.731 16.3582 13.731L17.0746 12.7758C19.1044 11.9399 21.6118 10.5071 21.97 7.99968C22.2088 6.56685 21.8506 5.37284 21.1342 4.65642C21.0148 4.53702 20.8954 4.41762 20.776 4.29822C22.0894 5.13403 22.2088 6.20865 22.3282 7.04446C22.3282 7.76087 22.4477 9.5519 20.2984 11.4623Z" fill="#86A8BA"/>
<path d="M18.2688 2.6272C18.2688 2.6272 17.6718 2.9854 17.6718 3.94062C17.6718 4.89583 18.03 5.13464 18.3882 5.37344C18.7464 5.73165 18.7464 2.866 18.2688 2.6272Z" fill="#ADCEE1"/>
<path d="M20.6584 12.4179C20.6584 12.4179 20.6584 12.4179 20.7779 12.2985C20.6584 12.2985 20.6584 12.2985 20.6584 12.4179C20.6584 12.4179 20.6584 12.2985 20.6584 12.4179Z" fill="#CEE8F2"/>
<path d="M23.2838 8.11926C23.045 9.67149 22.2092 10.9849 21.0151 11.9401C21.7316 11.2237 22.8062 9.67149 23.045 8.47747C23.1644 7.04465 23.2838 4.77601 21.7316 3.58199C20.1793 2.38797 18.3883 2.62678 18.3883 2.62678C18.5077 2.62678 18.7465 2.50737 18.8659 2.50737C19.7017 2.38797 21.0151 2.62678 21.9704 3.58199C22.8062 4.2984 23.642 5.73123 23.2838 8.11926Z" fill="#CEE8F2"/>
<path d="M17.7922 4.77603C17.9116 5.25364 18.628 5.61185 18.9863 5.61185C19.5833 5.61185 20.0609 5.13424 20.0609 4.53723C20.0609 4.29843 19.9415 4.05962 19.8221 3.82082C19.5833 3.70142 19.3445 3.70142 19.3445 3.70142C19.8221 3.82082 19.8221 5.01484 18.8669 5.01484C18.1504 5.13424 17.9116 4.89544 17.7922 4.77603C17.7922 4.77603 17.7922 4.65663 17.7922 4.77603Z" fill="url(#paint6_linear)"/>
<path d="M18.1506 4.65714C18.27 4.89594 18.5088 5.13474 18.867 5.13474C19.3447 5.13474 19.7029 4.77654 19.7029 4.29893C19.7029 3.94073 19.4641 3.70192 19.2253 3.58252C19.2253 3.70192 19.3447 3.82132 19.3447 3.94072C19.3447 4.41833 18.9865 4.65714 18.5088 4.65714C18.27 4.77654 18.27 4.77654 18.1506 4.65714Z" fill="#CEE8F2"/>
<path d="M5.49329 5.2533C5.49329 5.2533 5.49329 10.9846 7.52312 13.6114C9.55295 16.2383 13.0156 15.6413 13.0156 15.6413C13.0156 15.6413 9.19475 15.6413 7.64252 12.5368C6.0903 9.43236 5.49329 5.2533 5.49329 5.2533Z" fill="#86A8BA"/>
<path d="M9.55127 17.3134L10.0289 16.4775C10.0289 16.4775 10.9841 16.7163 11.8199 16.7163C12.6557 16.7163 13.2527 16.5969 13.2527 16.5969C13.2527 16.5969 13.0139 16.8357 11.7005 16.8357C10.3871 16.9551 10.2677 16.8357 10.2677 16.8357L9.55127 17.3134Z" fill="#86A8BA"/>
<path d="M10.5073 18.1489C10.5073 18.1489 10.8655 18.5071 10.8655 18.9847C10.8655 19.4623 10.7461 19.1041 10.5073 19.7012C10.3879 19.7012 11.5819 19.4623 10.5073 18.1489Z" fill="#86A8BA"/>
<path d="M10.7464 20.6564C10.7464 20.6564 10.8658 21.3728 10.1493 21.9698C9.55233 22.5668 8.95532 22.6862 8.95532 22.6862C8.95532 22.6862 9.55233 22.5668 10.1493 22.0892C10.7464 21.6116 10.8658 20.8952 10.8658 20.8952C10.8658 20.8952 11.821 21.0146 12.418 20.8952C12.418 20.7758 11.224 20.8952 10.7464 20.6564Z" fill="#86A8BA"/>
<path d="M14.6844 22.925L15.0426 23.8803L8.47546 23.7609L14.6844 23.6415V22.925Z" fill="#ADCEE1"/>
<path d="M18.2694 5.25357C18.2694 5.25357 18.2694 10.3879 17.0754 12.6565C15.8813 14.9251 14.2097 14.9251 14.2097 14.9251C14.2097 14.9251 15.6425 14.6863 16.8366 12.0595C18.0306 9.43264 18.0306 5.01477 18.0306 5.01477L18.2694 5.25357Z" fill="#86A8BA"/>
<path d="M11.9415 4.29822C13.4938 4.29822 14.449 5.13403 14.449 6.20865C14.449 7.04446 13.7326 7.76087 13.255 8.23848L11.7027 9.6713H14.5684V10.9847H9.5535V9.91011L12.1803 7.52207C12.7774 7.04446 12.8968 6.68626 12.8968 6.20865C12.8968 5.73104 12.5385 5.49224 11.9415 5.49224C11.3445 5.49224 10.9863 5.85044 10.9863 6.44745H9.3147C9.3147 5.25343 10.3893 4.29822 11.9415 4.29822Z" fill="#8DB2C4"/>
<path d="M12.5386 5.85044C12.658 5.96985 12.658 6.08925 12.658 6.32805C12.658 6.68626 12.4191 7.04446 11.9415 7.64147L9.3147 10.0295V11.1041H9.5535V10.1489L12.1803 7.76087C12.7774 7.28327 12.8968 6.92506 12.8968 6.56685C12.8968 6.20865 12.7774 6.08925 12.5386 5.85044ZM11.9415 4.29822C10.3893 4.29822 9.3147 5.13403 9.3147 6.44745H9.5535C9.6729 5.25343 10.6281 4.41762 12.0609 4.41762C12.7774 4.41762 13.3744 4.53702 13.7326 4.89523C13.3744 4.53702 12.658 4.29822 11.9415 4.29822Z" fill="#80A1AF"/>
</g>
<defs>
<linearGradient id="paint0_linear" x1="8.72092" y1="11.1431" x2="8.69032" y2="10.9644" gradientUnits="userSpaceOnUse">
<stop stop-color="white"/>
<stop offset="1" stop-color="white" stop-opacity="0"/>
</linearGradient>
<linearGradient id="paint1_linear" x1="7.24589" y1="11.6854" x2="9.6953" y2="8.991" gradientUnits="userSpaceOnUse">
<stop offset="0.0435897" stop-color="#9DBACC"/>
<stop offset="0.9974" stop-color="#ADCEE1"/>
</linearGradient>
<linearGradient id="paint2_linear" x1="3.22601" y1="4.69711" x2="5.44569" y2="4.69711" gradientUnits="userSpaceOnUse">
<stop offset="0.0435897" stop-color="#9DBACC"/>
<stop offset="0.9974" stop-color="#ADCEE1"/>
</linearGradient>
<linearGradient id="paint3_linear" x1="13.9391" y1="1.46914" x2="10.37" y2="13.1915" gradientUnits="userSpaceOnUse">
<stop stop-color="white"/>
<stop offset="1" stop-color="white" stop-opacity="0"/>
</linearGradient>
<linearGradient id="paint4_linear" x1="13.2193" y1="19.4633" x2="12.2651" y2="19.0781" gradientUnits="userSpaceOnUse">
<stop stop-color="white"/>
<stop offset="1" stop-color="white" stop-opacity="0"/>
</linearGradient>
<linearGradient id="paint5_linear" x1="13.6977" y1="21.7611" x2="11.1784" y2="22.1547" gradientUnits="userSpaceOnUse">
<stop stop-color="white"/>
<stop offset="1" stop-color="white" stop-opacity="0"/>
</linearGradient>
<linearGradient id="paint6_linear" x1="17.7824" y1="4.69663" x2="20.0251" y2="4.69663" gradientUnits="userSpaceOnUse">
<stop offset="0.0435897" stop-color="#9DBACC"/>
<stop offset="0.9974" stop-color="#ADCEE1"/>
</linearGradient>
<clipPath id="clip0">
<rect width="24" height="24" fill="white"/>
</clipPath>
</defs>
</svg>
