<svg width="24" height="24" viewBox="0 0 24 24" fill="none" xmlns="http://www.w3.org/2000/svg">
<path d="M23.7972 6.82663L17.1733 0.202781C17.0435 0.0729842 16.8674 0 16.6838 0H7.31619C7.13253 0 6.95647 0.0729842 6.82667 0.202781L0.202781 6.82663C0.0729374 6.95647 0 7.13253 0 7.31619V16.6838C0 16.8674 0.0729374 17.0434 0.202781 17.1733L6.82667 23.7972C6.95652 23.927 7.13258 24 7.31619 24H16.6838C16.8674 24 17.0435 23.927 17.1733 23.7972L23.7972 17.1733C23.927 17.0434 24 16.8674 24 16.6838V7.31619C24 7.13253 23.927 6.95647 23.7972 6.82663Z" fill="#C1001F"/>
<path d="M12 0H7.31619C7.13253 0 6.95647 0.0729842 6.82667 0.202781L0.202781 6.82663C0.0729374 6.95647 0 7.13253 0 7.31619V16.6838C0 16.8674 0.0729374 17.0434 0.202781 17.1733L6.82667 23.7972C6.95652 23.927 7.13258 24 7.31619 24H12V0Z" fill="#E50027"/>
<path d="M5.07693 15.4615C3.93169 15.4615 3 14.5298 3 13.3845C3 13.0022 3.30998 12.6922 3.6923 12.6922C4.07461 12.6922 4.38459 13.0022 4.38459 13.3845C4.38459 13.7663 4.69514 14.0768 5.07689 14.0768C5.45864 14.0768 5.76918 13.7663 5.76918 13.3845C5.76918 13.0028 5.45864 12.6922 5.07689 12.6922C3.93169 12.6922 3 11.7605 3 10.6154C3 9.47015 3.93169 8.53842 5.07693 8.53842C6.22218 8.53842 7.15387 9.47011 7.15387 10.6154C7.15387 10.9977 6.84388 11.3076 6.46157 11.3076C6.07921 11.3076 5.76928 10.9977 5.76928 10.6154C5.76928 10.2336 5.45873 9.92306 5.07698 9.92306C4.69523 9.92306 4.38469 10.2336 4.38469 10.6154C4.38469 10.9971 4.69523 11.3076 5.07698 11.3076C6.22218 11.3076 7.15391 12.2393 7.15391 13.3846C7.15382 14.5298 6.22213 15.4615 5.07693 15.4615Z" fill="#EEF8FF"/>
<path d="M11.077 8.53842H8.30777C7.92542 8.53842 7.61548 8.8484 7.61548 9.23072C7.61548 9.61307 7.92546 9.92301 8.30777 9.92301H9.00007V14.7692C9.00007 15.1515 9.31005 15.4615 9.69236 15.4615C10.0747 15.4615 10.3847 15.1515 10.3847 14.7692V9.92301H11.077C11.4593 9.92301 11.7693 9.61303 11.7693 9.23072C11.7693 8.8484 11.4593 8.53842 11.077 8.53842Z" fill="#EEF8FF"/>
<path d="M14.7693 15.4615H13.8462C12.9555 15.4615 12.2308 14.7369 12.2308 13.8461V10.1539C12.2308 9.26314 12.9555 8.53845 13.8462 8.53845H14.7693C15.66 8.53845 16.3847 9.26309 16.3847 10.1539V13.8461C16.3847 14.7369 15.66 15.4615 14.7693 15.4615ZM13.8462 9.92309C13.719 9.92309 13.6155 10.0266 13.6155 10.1539V13.8461C13.6155 13.9734 13.719 14.0769 13.8462 14.0769H14.7693C14.8966 14.0769 15.0001 13.9734 15.0001 13.8461V10.1539C15.0001 10.0266 14.8966 9.92309 14.7693 9.92309H13.8462Z" fill="#EBDBDD"/>
<path d="M17.5386 15.4615C17.1562 15.4615 16.8463 15.1515 16.8463 14.7692V10.1539C16.8463 9.26314 17.571 8.53845 18.4617 8.53845H19.3848C20.2755 8.53845 21.0002 9.26309 21.0002 10.1539V11.0769C21.0002 11.9676 20.2755 12.6923 19.3848 12.6923H18.231V14.7692C18.2309 15.1515 17.9209 15.4615 17.5386 15.4615ZM18.2309 11.3077H19.3847C19.512 11.3077 19.6155 11.2042 19.6155 11.077V10.1539C19.6155 10.0266 19.5119 9.92313 19.3847 9.92313H18.4617C18.3344 9.92313 18.2309 10.0266 18.2309 10.1539V11.3077Z" fill="#EBDBDD"/>
</svg>
