<svg width="128" height="128" viewBox="0 0 128 128" fill="none" xmlns="http://www.w3.org/2000/svg">
<g clip-path="url(#clip0)">
<path d="M65.0761 113.036C92.3939 113.036 114.539 90.8911 114.539 63.5733C114.539 36.2555 92.3939 14.1101 65.0761 14.1101C37.7583 14.1101 15.6129 36.2555 15.6129 63.5733C15.6129 90.8911 37.7583 113.036 65.0761 113.036Z" fill="#7E7F81"/>
<path d="M55.9492 99.0255C77.6158 99.0255 95.18 81.4613 95.18 59.7947C95.18 38.1282 77.6158 20.564 55.9492 20.564C34.2827 20.564 16.7185 38.1282 16.7185 59.7947C16.7185 81.4613 34.2827 99.0255 55.9492 99.0255Z" fill="#929499"/>
<path d="M49.5299 88.2725C67.0358 88.2725 81.2272 74.0812 81.2272 56.5752C81.2272 39.0693 67.0358 24.8779 49.5299 24.8779C32.0239 24.8779 17.8326 39.0693 17.8326 56.5752C17.8326 74.0812 32.0239 88.2725 49.5299 88.2725Z" fill="#9EA3AF"/>
<path d="M114.539 110.886H108.088L105.937 108.735V102.284C105.937 101.097 104.974 100.133 103.786 100.133C102.599 100.133 101.636 101.097 101.636 102.284V108.735L99.4853 110.886H93.0336C91.8464 110.886 90.883 111.849 90.883 113.036C90.883 114.224 91.8464 115.187 93.0336 115.187H99.4853L101.636 117.338V123.789C101.636 124.976 102.599 125.94 103.786 125.94C104.974 125.94 105.937 124.976 105.937 123.789V117.338L108.088 115.187H114.539C115.726 115.187 116.69 114.224 116.69 113.036C116.69 111.849 115.726 110.886 114.539 110.886Z" fill="#F3D55B"/>
<path d="M11.3118 11.9594C12.4995 11.9594 13.4623 10.9965 13.4623 9.80878C13.4623 8.62105 12.4995 7.6582 11.3118 7.6582C10.124 7.6582 9.16118 8.62105 9.16118 9.80878C9.16118 10.9965 10.124 11.9594 11.3118 11.9594Z" fill="#F3D55B"/>
<path d="M17.7635 121.639C18.9512 121.639 19.914 120.676 19.914 119.488C19.914 118.3 18.9512 117.338 17.7635 117.338C16.5757 117.338 15.6129 118.3 15.6129 119.488C15.6129 120.676 16.5757 121.639 17.7635 121.639Z" fill="#F3D55B"/>
<path d="M7.0106 106.585C8.19833 106.585 9.16118 105.622 9.16118 104.434C9.16118 103.246 8.19833 102.283 7.0106 102.283C5.82288 102.283 4.86003 103.246 4.86003 104.434C4.86003 105.622 5.82288 106.585 7.0106 106.585Z" fill="#ECF0F1"/>
<path d="M30.6669 5.50769C31.8546 5.50769 32.8175 4.54485 32.8175 3.35712C32.8175 2.16939 31.8546 1.20654 30.6669 1.20654C29.4792 1.20654 28.5163 2.16939 28.5163 3.35712C28.5163 4.54485 29.4792 5.50769 30.6669 5.50769Z" fill="#F3D55B"/>
<path d="M116.69 11.9594C117.878 11.9594 118.84 10.9965 118.84 9.80878C118.84 8.62105 117.878 7.6582 116.69 7.6582C115.502 7.6582 114.539 8.62105 114.539 9.80878C114.539 10.9965 115.502 11.9594 116.69 11.9594Z" fill="#F3D55B"/>
<path d="M120.991 115.191C122.179 115.191 123.142 114.228 123.142 113.041C123.142 111.853 122.179 110.89 120.991 110.89C119.803 110.89 118.84 111.853 118.84 113.041C118.84 114.228 119.803 115.191 120.991 115.191Z" fill="#F3D55B"/>
<path d="M96.2594 88.036C97.4471 88.036 98.41 87.0732 98.41 85.8854C98.41 84.6977 97.4471 83.7349 96.2594 83.7349C95.0717 83.7349 94.1088 84.6977 94.1088 85.8854C94.1088 87.0732 95.0717 88.036 96.2594 88.036Z" fill="#F3D55B"/>
<path d="M30.6669 58.7345C31.8546 58.7345 32.8175 57.7717 32.8175 56.5839C32.8175 55.3962 31.8546 54.4333 30.6669 54.4333C29.4792 54.4333 28.5163 55.3962 28.5163 56.5839C28.5163 57.7717 29.4792 58.7345 30.6669 58.7345Z" fill="#F3D55B"/>
<path d="M64.0566 113.019C60.2436 121.74 57.2435 123.856 56.05 123.688C54.6564 123.503 51.7058 119.611 50.5252 106.219C49.4778 94.3458 50.1015 78.7993 52.2822 62.4377C57.1382 26.0091 67.1555 3.74209 71.9621 4.312C73.0782 4.46039 75.289 7.01957 76.7041 15.4971C78.1643 15.8477 79.5945 16.267 80.9945 16.7423C81.0999 16.4283 81.1579 16.095 81.1042 15.7423C79.5773 5.74858 76.7729 0.615159 72.5298 0.0495583C60.7941 -1.50101 51.4434 36.1641 48.0176 61.8699C45.796 78.5369 45.1659 94.421 46.2391 106.598C47.4305 120.11 50.5402 127.295 55.4801 127.953C55.7317 127.987 55.9812 128.002 56.2306 128.002C60.3533 128.002 64.3103 123.426 68.2975 114.056C68.4566 113.682 68.4652 113.297 68.4136 112.922C66.9727 113.015 65.5211 113.049 64.0566 113.019Z" fill="#ECF0F1"/>
</g>
<defs>
<clipPath id="clip0">
<rect width="128" height="128" fill="white"/>
</clipPath>
</defs>
</svg>
