<svg width="128" height="128" viewBox="0 0 128 128" fill="none" xmlns="http://www.w3.org/2000/svg">
<g clip-path="url(#clip0)">
<path d="M100.252 28.9707C100.414 29.1377 100.574 29.3061 100.732 29.4756C100.574 29.3061 100.414 29.1377 100.252 28.9707Z" fill="#FFD042"/>
<path d="M102.368 31.3081C102.665 31.6572 102.956 32.0108 103.243 32.3683C102.956 32.0108 102.665 31.6574 102.368 31.3081Z" fill="#FFD042"/>
<path d="M100.86 29.6123C101.163 29.9377 101.462 30.2673 101.757 30.6011C101.462 30.2673 101.163 29.9377 100.86 29.6123Z" fill="#FFD042"/>
<path d="M94.0193 23.5168C94.1734 23.6304 94.3273 23.7439 94.4801 23.859C94.3271 23.7437 94.1732 23.6302 94.0193 23.5168Z" fill="#FFD042"/>
<path d="M98.6071 27.3442C98.7695 27.4974 98.9303 27.6519 99.0906 27.8071C98.9303 27.6519 98.7695 27.4974 98.6071 27.3442Z" fill="#FFD042"/>
<path d="M94.8336 24.1304C95.0782 24.3184 95.3214 24.5085 95.5623 24.701C95.3214 24.5085 95.0782 24.3184 94.8336 24.1304Z" fill="#FFD042"/>
<path d="M103.31 32.4507C103.462 32.6422 103.614 32.8349 103.764 33.0289C103.614 32.8349 103.462 32.6422 103.31 32.4507Z" fill="#FFD042"/>
<path d="M95.8434 24.9275C96.1864 25.2058 96.5261 25.4879 96.8612 25.775C96.5259 25.4879 96.1864 25.2058 95.8434 24.9275Z" fill="#FFD042"/>
<path d="M97.593 26.4158C97.9147 26.7028 98.233 26.9936 98.5472 27.2888C98.2332 26.9934 97.9149 26.7026 97.593 26.4158Z" fill="#FFD042"/>
<path d="M96.886 25.7959C97.0473 25.9343 97.2071 26.0744 97.3668 26.2148C97.2071 26.0744 97.0473 25.9343 96.886 25.7959Z" fill="#FFD042"/>
<path d="M101.821 30.6741C101.979 30.8539 102.136 31.0348 102.291 31.217C102.136 31.035 101.979 30.8539 101.821 30.6741Z" fill="#FFD042"/>
<path d="M73.1175 111.327C72.341 111.457 71.5583 111.567 70.7698 111.66C71.5583 111.567 72.341 111.456 73.1175 111.327Z" fill="#FFD042"/>
<path d="M70.1703 111.729C69.9957 111.747 69.8203 111.763 69.6453 111.779C69.8203 111.763 69.9957 111.747 70.1703 111.729Z" fill="#FFD042"/>
<path d="M74.2171 111.13C73.9535 111.181 73.6897 111.23 73.4247 111.276C73.6897 111.23 73.9535 111.181 74.2171 111.13Z" fill="#FFD042"/>
<path d="M69.0011 111.836C68.8337 111.85 68.666 111.862 68.4982 111.874C68.666 111.862 68.8337 111.85 69.0011 111.836Z" fill="#FFD042"/>
<path d="M67.8103 111.918C67.6537 111.927 67.4971 111.936 67.3401 111.943C67.4971 111.936 67.6537 111.927 67.8103 111.918Z" fill="#FFD042"/>
<path d="M75.3204 110.908C75.0413 110.968 74.7614 111.025 74.4804 111.08C74.7614 111.025 75.0413 110.968 75.3204 110.908Z" fill="#FFD042"/>
<path d="M113.824 58.8596C113.837 59.0162 113.852 59.1726 113.863 59.3298C113.852 59.1726 113.837 59.0164 113.824 58.8596Z" fill="#FFD042"/>
<path d="M113.928 60.3447C113.934 60.4717 113.94 60.5989 113.946 60.7261C113.94 60.5989 113.934 60.4717 113.928 60.3447Z" fill="#FFD042"/>
<path d="M113.976 61.5193C113.979 61.6369 113.983 61.7545 113.986 61.8723C113.983 61.7545 113.979 61.6369 113.976 61.5193Z" fill="#FFD042"/>
<path d="M113.708 57.6514C113.73 57.8504 113.751 58.0497 113.77 58.2496C113.751 58.0497 113.73 57.8504 113.708 57.6514Z" fill="#FFD042"/>
<path d="M90.1646 20.9497C90.3065 21.0348 90.4482 21.1202 90.5892 21.2068C90.4482 21.1202 90.3065 21.0348 90.1646 20.9497Z" fill="#FFD042"/>
<path d="M77.1475 15.5186C77.2403 15.5422 77.3326 15.5669 77.4251 15.591C77.3326 15.5669 77.2403 15.5422 77.1475 15.5186Z" fill="#FFD042"/>
<path d="M75.8949 15.2175C75.9809 15.2369 76.067 15.2559 76.1528 15.2759C76.067 15.2561 75.9809 15.2371 75.8949 15.2175Z" fill="#FFD042"/>
<path d="M79.4507 16.1672C79.5536 16.1991 79.6561 16.2315 79.7588 16.264C79.6561 16.2315 79.5536 16.1989 79.4507 16.1672Z" fill="#FFD042"/>
<path d="M74.7978 14.9807C74.8793 14.9973 74.9603 15.0148 75.0416 15.0318C74.9601 15.0148 74.8791 14.9973 74.7978 14.9807Z" fill="#FFD042"/>
<path d="M93.0813 22.8433C93.2824 22.9841 93.4823 23.1266 93.6811 23.2706C93.4823 23.1266 93.2824 22.9841 93.0813 22.8433Z" fill="#FFD042"/>
<path d="M80.5253 16.5129C80.6114 16.5417 80.6982 16.5697 80.7842 16.5989C80.6982 16.5697 80.6114 16.5417 80.5253 16.5129Z" fill="#FFD042"/>
<path d="M69.9725 14.2498C70.0236 14.2549 70.0746 14.261 70.1257 14.2663C70.0746 14.261 70.0236 14.2549 69.9725 14.2498Z" fill="#FFD042"/>
<path d="M67.5027 14.063C67.5327 14.0644 67.5625 14.0667 67.5925 14.0681C67.5625 14.0667 67.5327 14.0644 67.5027 14.063Z" fill="#FFD042"/>
<path d="M72.4047 14.5564C72.4729 14.5668 72.5407 14.578 72.6089 14.5887C72.5407 14.578 72.4729 14.5668 72.4047 14.5564Z" fill="#FFD042"/>
<path d="M73.5101 14.7383C73.5971 14.7536 73.6843 14.7683 73.7711 14.784C73.6843 14.7683 73.5971 14.7534 73.5101 14.7383Z" fill="#FFD042"/>
<path d="M78.234 15.8101C78.3198 15.8339 78.4059 15.8572 78.4915 15.8817C78.4059 15.8572 78.3198 15.8339 78.234 15.8101Z" fill="#FFD042"/>
<path d="M81.7043 16.9231C81.8166 16.9637 81.9283 17.0054 82.0402 17.0468C81.9285 17.0052 81.8166 16.9637 81.7043 16.9231Z" fill="#FFD042"/>
<path d="M87.0834 19.2493C87.2445 19.3307 87.4047 19.4132 87.5646 19.4963C87.4045 19.4132 87.2442 19.3307 87.0834 19.2493Z" fill="#FFD042"/>
<path d="M88.1384 19.7991C88.2739 19.8718 88.4091 19.9448 88.5438 20.019C88.4091 19.9448 88.2739 19.8718 88.1384 19.7991Z" fill="#FFD042"/>
<path d="M92.1259 22.1904C92.2739 22.289 92.4217 22.3879 92.5687 22.4879C92.4217 22.3877 92.2739 22.289 92.1259 22.1904Z" fill="#FFD042"/>
<path d="M91.1528 21.5586C91.3435 21.6793 91.533 21.8011 91.7218 21.9245C91.533 21.8011 91.3435 21.6791 91.1528 21.5586Z" fill="#FFD042"/>
<path d="M89.1507 20.3579C89.3291 20.4592 89.5065 20.5619 89.6835 20.6652C89.5065 20.5619 89.3291 20.4592 89.1507 20.3579Z" fill="#FFD042"/>
<path d="M82.7673 17.323C82.8535 17.3565 82.9401 17.3889 83.026 17.423C82.9403 17.3891 82.8535 17.3565 82.7673 17.323Z" fill="#FFD042"/>
<path d="M86.0517 18.7422C86.1799 18.8032 86.3077 18.8649 86.4353 18.9272C86.3077 18.8649 86.1799 18.8032 86.0517 18.7422Z" fill="#FFD042"/>
<path d="M83.9057 17.7822C84.0261 17.8327 84.1464 17.8839 84.2664 17.9354C84.1464 17.8839 84.0264 17.8329 83.9057 17.7822Z" fill="#FFD042"/>
<path d="M84.9523 18.2354C85.0871 18.2954 85.2216 18.356 85.3556 18.4173C85.2214 18.356 85.0869 18.2954 84.9523 18.2354Z" fill="#FFD042"/>
<path d="M100.192 28.9085C99.8877 28.5942 99.5788 28.2843 99.2662 27.9783C99.5788 28.2845 99.8877 28.5942 100.192 28.9085Z" fill="#FFD042"/>
<path d="M105.274 35.0882C105.508 35.4259 105.739 35.7662 105.965 36.1098C105.561 35.4957 105.144 34.891 104.714 34.2966C104.902 34.5565 105.087 34.8189 105.27 35.0827C105.271 35.0845 105.272 35.0863 105.274 35.0882Z" fill="#FFD042"/>
<path d="M65 80.4999C58.3046 80.4999 51.9141 80.0518 46.0635 79.2392C46.4739 81.7139 47.0691 84.1261 47.8357 86.4606C35.9326 84.9843 26.0805 82.0257 20.1928 78.2233C20.1834 78.2172 20.1744 78.2112 20.1652 78.2051C19.9778 78.0838 19.7951 77.9613 19.6158 77.8382C19.5909 77.8211 19.5658 77.8041 19.5411 77.7872C19.3551 77.6584 19.1732 77.5289 18.9962 77.3982C18.979 77.3856 18.9625 77.3727 18.9453 77.3601C18.792 77.2463 18.6429 77.1316 18.4966 77.0167C18.457 76.9854 18.4173 76.9542 18.3781 76.9229C18.2181 76.7949 18.0609 76.6665 17.9094 76.5369C19.4408 81.8732 21.8518 86.8336 24.9797 91.2554C27.4227 92.3349 30.2231 93.3132 33.3197 94.1693C34.4001 94.468 35.5147 94.7524 36.6651 95.0201C37.3007 95.1679 37.9465 95.311 38.6023 95.4488C38.6023 95.4488 38.5992 95.4427 38.5937 95.4309C38.5825 95.4072 38.5604 95.3606 38.53 95.2941C38.4234 95.0615 38.2133 94.5856 37.9963 93.9984C37.9342 93.8306 37.8718 93.6538 37.8109 93.4709C37.7501 93.2879 37.6909 93.0991 37.6358 92.9072C37.5859 92.7342 37.54 92.5588 37.4984 92.3835C37.3781 91.8775 37.2977 91.3704 37.2979 90.9157C37.2979 90.8283 37.3009 90.7428 37.3073 90.6597C37.3187 90.5084 37.3424 90.3661 37.3769 90.2328C37.4091 90.1078 37.454 89.9929 37.5096 89.8873C37.5355 89.8379 37.5641 89.7908 37.5955 89.7464C37.8201 89.4294 38.1858 89.2385 38.7501 89.2495C38.8654 89.2518 38.981 89.256 39.0972 89.2624C39.1294 89.264 39.1619 89.2671 39.1942 89.2691C39.2781 89.2744 39.362 89.2795 39.4463 89.2867C39.4908 89.2905 39.5357 89.2959 39.5802 89.3001C39.6525 89.3071 39.7244 89.3138 39.7969 89.3222C39.8487 89.3283 39.9008 89.3357 39.9526 89.3424C40.0186 89.351 40.0845 89.3589 40.1509 89.3685C40.205 89.3763 40.2595 89.3857 40.3138 89.3943C40.3781 89.4045 40.4422 89.4141 40.5069 89.4253C40.5631 89.4351 40.6196 89.4461 40.676 89.4565C40.7393 89.4682 40.8024 89.4796 40.8659 89.4923C40.9237 89.5037 40.9816 89.5166 41.0396 89.5288C41.1019 89.5419 41.164 89.5547 41.2264 89.5686C41.2858 89.5819 41.3455 89.5964 41.4051 89.6105C41.4667 89.625 41.5282 89.6393 41.5901 89.6546C41.6507 89.6697 41.7117 89.6858 41.7726 89.7017C41.8334 89.7175 41.8941 89.733 41.9549 89.7495C42.0164 89.7663 42.0782 89.7838 42.1399 89.8012C42.2011 89.8183 42.2622 89.8353 42.3234 89.8532C42.3845 89.871 42.4455 89.8898 42.5066 89.9082C42.569 89.9269 42.6313 89.9455 42.694 89.9651C42.755 89.9841 42.8161 90.0039 42.8771 90.0237C42.9402 90.0439 43.0033 90.0641 43.0666 90.085C43.1278 90.1052 43.1891 90.1262 43.2505 90.147C43.3142 90.1687 43.3779 90.1901 43.4416 90.2124C43.5023 90.2334 43.5631 90.2552 43.624 90.2771C43.6893 90.3004 43.7544 90.3234 43.8198 90.3473C43.8796 90.3692 43.9394 90.3916 43.9994 90.4139C44.0662 90.4388 44.1327 90.4635 44.1997 90.489C44.2587 90.5115 44.3177 90.5343 44.3767 90.5572C44.4453 90.5837 44.5137 90.6103 44.5825 90.6374C44.6401 90.6601 44.6979 90.6834 44.7557 90.7064C44.8261 90.7346 44.8965 90.763 44.9672 90.7918C45.0235 90.8146 45.0799 90.8381 45.1362 90.8614C45.2093 90.8916 45.2824 90.9218 45.3555 90.9527C45.4092 90.9751 45.4631 90.9982 45.5168 91.0209C45.5931 91.0533 45.6697 91.0858 45.7463 91.1189C45.7973 91.1409 45.8486 91.1632 45.8998 91.1854C45.9796 91.2201 46.0597 91.255 46.1397 91.2904C46.1879 91.3116 46.2363 91.333 46.2847 91.3547C46.368 91.3918 46.4517 91.429 46.5354 91.4668C46.5809 91.4872 46.6264 91.5078 46.6722 91.5286C46.76 91.5684 46.8482 91.6085 46.9364 91.6489C46.9762 91.667 47.016 91.6854 47.0556 91.7038C47.1516 91.7479 47.2477 91.7924 47.3441 91.8373C47.3757 91.852 47.4072 91.8667 47.4388 91.8816C47.5433 91.9304 47.6483 91.9796 47.7532 92.029C47.7775 92.0405 47.802 92.0519 47.8263 92.0635C47.94 92.1172 48.0538 92.1713 48.1679 92.2256C48.1824 92.2326 48.1969 92.2395 48.2112 92.2463C49.0632 92.6528 49.9272 93.0766 50.8021 93.5023C49.6461 91.2518 48.6422 88.9104 47.8412 86.4743C53.2012 87.1382 58.9781 87.5 65 87.5C70.498 87.5 75.7921 87.1984 80.7504 86.6409L87.1454 85.7505C98.4325 83.8599 107.379 80.5687 112.092 76.533C110.561 81.8683 108.151 86.8279 105.025 91.2495C95.7375 95.3555 81.2688 98.2465 65 98.0001C60.0845 97.9256 55.2835 95.6832 50.771 93.4872C52.9109 97.6595 55.6312 101.485 58.8262 104.856C58.8348 104.857 58.8432 104.857 58.8515 104.858C58.8562 104.863 58.8613 104.867 58.866 104.873C60.8767 104.956 62.9234 105 65 105C76.3345 105 86.7856 103.712 95.2328 101.546C89.5298 106.026 82.8121 109.271 75.4795 110.873C97.5054 106.073 114 86.4647 114 63C114 64.6372 113.916 66.2548 113.759 67.8508C107.658 75.1551 88.1456 80.4999 65 80.4999Z" fill="#85CFE9"/>
<path d="M66.3952 14.0209C66.3068 14.0185 66.2182 14.0162 66.1295 14.0144C66.1365 14.0146 66.1434 14.0148 66.1502 14.015C66.2318 14.0167 66.3135 14.0185 66.3952 14.0209Z" fill="#FFD042"/>
<path d="M104.343 33.7917C104.359 33.8127 104.373 33.8344 104.389 33.8554C104.476 33.9728 104.563 34.09 104.649 34.2082C104.366 33.8192 104.078 33.4346 103.784 33.0544C103.972 33.2982 104.158 33.5446 104.342 33.7921C104.342 33.7919 104.343 33.7919 104.343 33.7917Z" fill="#FFD042"/>
<path d="M68.889 14.1533C68.8261 14.1484 68.7632 14.1431 68.7001 14.1384C68.735 14.1411 68.7697 14.1443 68.8046 14.147C68.833 14.1492 68.861 14.1513 68.889 14.1533Z" fill="#FFD042"/>
<path d="M106.824 37.4824C107.159 38.0322 107.488 38.5865 107.802 39.1498C98.7906 44.019 82.9932 47.2499 65.0002 47.2499C60.4916 47.2499 56.121 47.047 51.9603 46.6662C49.8576 50.2998 48.2083 54.2277 47.0897 58.3744C47.0933 58.3748 47.0968 58.3754 47.1005 58.3758C47.1003 58.3766 47.1001 58.3774 47.0999 58.3782C48.8039 58.6 50.5497 58.7923 52.3359 58.9505L52.3355 58.9491C61.6533 59.5806 67.7442 63.5255 73.4988 64.5561C75.0372 64.8317 76.1612 63.1437 75.2841 61.8501L73.5237 59.2539C90.9206 58.2394 105.293 54.1696 111.875 48.7032C112.714 51.4552 113.317 54.3092 113.662 57.2423C112.761 49.5456 110.077 42.3951 106.033 36.2129C106.307 36.6308 106.574 37.053 106.835 37.4799C106.831 37.481 106.828 37.4816 106.824 37.4824ZM67.4502 59.7333C66.0972 59.7333 65.0002 59.002 65.0002 58.1C65.0002 57.198 66.0972 56.4666 67.4502 56.4666C68.8032 56.4666 69.9002 57.198 69.9002 58.1C69.9002 59.002 68.8032 59.7333 67.4502 59.7333Z" fill="#85CFE9"/>
<path d="M71.3476 14.4084C71.2602 14.3972 71.1726 14.3866 71.0851 14.3757C71.1665 14.3857 71.248 14.3957 71.3292 14.4062C71.3354 14.407 71.3415 14.4078 71.3476 14.4084Z" fill="#FFD042"/>
<path d="M66.1735 111.985C66.305 111.982 66.4359 111.976 66.5672 111.972C66.4359 111.976 66.305 111.982 66.1735 111.985Z" fill="#FFD042"/>
<path d="M55.5208 111.08C55.239 111.025 54.9579 110.967 54.678 110.907C54.9581 110.967 55.239 111.025 55.5208 111.08Z" fill="#FF9300"/>
<path d="M63.8263 111.985C63.6948 111.982 63.564 111.976 63.4327 111.972C63.564 111.976 63.6948 111.982 63.8263 111.985Z" fill="#FF9300"/>
<path d="M56.576 111.276C56.3101 111.23 56.0451 111.181 55.7807 111.13C56.0451 111.181 56.3099 111.23 56.576 111.276Z" fill="#FF9300"/>
<path d="M59.2333 111.661C58.443 111.568 57.6582 111.457 56.8799 111.327C57.6584 111.457 58.443 111.568 59.2333 111.661Z" fill="#FF9300"/>
<path d="M61.502 111.874C61.334 111.862 61.1657 111.85 60.9981 111.836C61.1657 111.85 61.3338 111.862 61.502 111.874Z" fill="#FF9300"/>
<path d="M60.3565 111.78C60.1805 111.763 60.0045 111.747 59.8291 111.729C60.0045 111.747 60.1807 111.763 60.3565 111.78Z" fill="#FF9300"/>
<path d="M62.6601 111.943C62.5031 111.936 62.3465 111.927 62.1899 111.918C62.3465 111.927 62.5031 111.936 62.6601 111.943Z" fill="#FF9300"/>
<path d="M38.3208 104.088C37.5529 103.588 36.7999 103.067 36.0625 102.526C35.9814 102.467 35.9008 102.407 35.8199 102.348C35.4661 102.085 35.1145 101.819 34.7683 101.547C34.7679 101.547 34.7675 101.546 34.767 101.546C34.7672 101.546 34.7677 101.546 34.7679 101.546C35.1621 101.647 35.5621 101.746 35.9649 101.843C36.0268 101.858 36.0884 101.873 36.1507 101.888C36.567 101.987 36.9869 102.085 37.412 102.18C37.4135 102.18 37.4147 102.18 37.4161 102.18C43.7257 103.591 51.0034 104.526 58.826 104.856C55.631 101.484 52.9107 97.6591 50.7709 93.4868C49.9068 93.0662 49.0534 92.6474 48.2118 92.2461C48.1973 92.2391 48.1828 92.2322 48.1685 92.2254C48.0544 92.1711 47.9407 92.117 47.827 92.0633C47.8027 92.0519 47.7782 92.0403 47.7539 92.0288C47.6489 91.9792 47.544 91.9302 47.4395 91.8814C47.4078 91.8667 47.3762 91.8518 47.3447 91.8371C47.2484 91.7922 47.1522 91.7479 47.0562 91.7036C47.0164 91.6852 46.9766 91.6668 46.937 91.6487C46.8488 91.6082 46.7608 91.5682 46.6728 91.5284C46.6273 91.5078 46.5816 91.4872 46.536 91.4666C46.4523 91.4288 46.3688 91.3916 46.2853 91.3545C46.2369 91.333 46.1885 91.3114 46.1404 91.2901C46.0601 91.2548 45.9803 91.2199 45.9005 91.1852C45.8492 91.163 45.798 91.1405 45.7469 91.1187C45.6704 91.0856 45.5938 91.0531 45.5174 91.0206C45.4635 90.9978 45.4098 90.9749 45.3561 90.9525C45.2829 90.9216 45.2098 90.8914 45.1369 90.8612C45.0805 90.8379 45.024 90.8144 44.9678 90.7916C44.8972 90.7628 44.8267 90.7344 44.7563 90.7062C44.6985 90.6832 44.6407 90.6599 44.5832 90.6372C44.5144 90.6101 44.446 90.5835 44.3774 90.557C44.3184 90.5341 44.2594 90.5113 44.2004 90.4888C44.1334 90.4633 44.0668 90.4386 44.0001 90.4137C43.9403 90.3914 43.8802 90.369 43.8204 90.3471C43.7551 90.3232 43.6897 90.3001 43.6246 90.2769C43.5638 90.2552 43.5029 90.2334 43.4423 90.2121C43.3784 90.1899 43.3149 90.1685 43.2512 90.1468C43.1899 90.126 43.1285 90.105 43.0672 90.0848C43.0039 90.0637 42.9409 90.0437 42.8778 90.0235C42.8167 90.0039 42.7555 89.9841 42.6946 89.9649C42.6322 89.9453 42.5697 89.9267 42.5072 89.9079C42.4462 89.8896 42.3849 89.8708 42.3241 89.853C42.2626 89.8351 42.2016 89.8181 42.1405 89.801C42.0789 89.7836 42.017 89.7658 41.9555 89.7493C41.8945 89.7328 41.8339 89.7175 41.7732 89.7015C41.7124 89.6858 41.6513 89.6695 41.5907 89.6544C41.5288 89.6391 41.4674 89.625 41.4057 89.6103C41.3461 89.5962 41.2865 89.5817 41.2271 89.5684C41.1646 89.5543 41.1025 89.5417 41.0403 89.5286C40.9823 89.5164 40.9243 89.5035 40.8665 89.4921C40.803 89.4794 40.7399 89.4682 40.6766 89.4563C40.6203 89.4459 40.5637 89.4347 40.5076 89.4251C40.4431 89.4139 40.3788 89.4043 40.3145 89.3941C40.2601 89.3855 40.2056 89.3761 40.1515 89.3683C40.0852 89.3587 40.0194 89.3508 39.9533 89.3422C39.9014 89.3355 39.8492 89.3279 39.7975 89.322C39.725 89.3136 39.653 89.3071 39.5809 89.2999C39.5362 89.2956 39.4915 89.2903 39.447 89.2865C39.3626 89.2793 39.2787 89.274 39.1948 89.2689C39.1625 89.2669 39.1301 89.264 39.0978 89.2622C38.9817 89.256 38.8659 89.2515 38.7507 89.2493C38.1864 89.2383 37.8208 89.4292 37.5962 89.7462C37.5647 89.7908 37.5364 89.8379 37.5102 89.8871C37.4547 89.9927 37.41 90.1074 37.3775 90.2326C37.343 90.3661 37.3193 90.5082 37.3079 90.6595C37.3016 90.7426 37.2987 90.8281 37.2985 90.9155C37.2983 91.37 37.3787 91.8771 37.499 92.3833C37.5406 92.5586 37.5866 92.734 37.6364 92.9069C37.6917 93.0989 37.7507 93.2877 37.8116 93.4706C37.8724 93.6536 37.9349 93.8304 37.997 93.9982C38.214 94.5854 38.4241 95.0613 38.5307 95.2939C38.5611 95.3602 38.5831 95.407 38.5944 95.4306C38.6001 95.4425 38.6029 95.4486 38.6029 95.4486C37.9471 95.3106 37.3014 95.1677 36.6658 95.0199C35.5153 94.7522 34.4006 94.4678 33.3203 94.1691C30.2237 93.313 27.4234 92.3347 24.9803 91.2554C21.8523 86.8334 19.4415 81.873 17.91 76.5367C17.91 76.5367 17.91 76.5367 17.91 76.5365C18.0615 76.6661 18.2187 76.7945 18.3788 76.9225C18.418 76.9538 18.4576 76.985 18.4972 77.0162C18.6436 77.1314 18.7926 77.2459 18.946 77.3597C18.9631 77.3723 18.9797 77.3852 18.9968 77.3978C19.1738 77.5285 19.3557 77.6579 19.5417 77.7868C19.5664 77.8039 19.5915 77.8209 19.6164 77.8378C19.7957 77.9609 19.9784 78.0832 20.1659 78.2047C20.175 78.2106 20.1842 78.2167 20.1934 78.2229C26.0812 82.0253 35.9332 84.9839 47.8364 86.4602C47.0697 84.1257 46.4746 81.7135 46.0642 79.2388C33.5022 77.4942 23.4335 74.0658 18.1999 69.7642C18.1814 69.7489 18.1634 69.7336 18.1448 69.7185C17.9874 69.5881 17.8345 69.457 17.6861 69.3251C17.662 69.3039 17.6375 69.2826 17.6136 69.2612C17.4541 69.1176 17.2992 68.9733 17.1503 68.8279C17.1287 68.8069 17.1085 68.7857 17.087 68.7644C16.9637 68.6426 16.8445 68.5199 16.7287 68.3967C16.6932 68.359 16.6577 68.321 16.6228 68.283C16.4913 68.1397 16.3633 67.996 16.2422 67.8512C16.242 67.851 16.2418 67.8508 16.2416 67.8504C16.084 66.2548 16 64.6372 16 63C16 86.4653 32.4957 106.074 54.5224 110.873C48.6977 109.601 43.2624 107.29 38.4143 104.149C38.383 104.129 38.3518 104.108 38.3208 104.088ZM47.0334 94.0333C49.0071 95.1903 50.4021 96.5854 50.3 98.9333C50.198 101.281 40.8063 96.4833 40.5 94.0333C40.1938 91.5833 44.5409 92.5721 47.0334 94.0333Z" fill="#33B9E9"/>
<path d="M67.942 14.0886C68.1363 14.1003 68.3305 14.1125 68.5243 14.1262C68.3305 14.1125 68.1363 14.1001 67.942 14.0886Z" fill="#FF9300"/>
<path d="M65 14C65.2932 14 65.5858 14.0029 65.878 14.0082C65.5858 14.0029 65.2932 14 65 14Z" fill="#FF9300"/>
<path d="M61.441 14.1287C61.6752 14.1118 61.9098 14.0967 62.145 14.083C61.91 14.0967 61.6754 14.112 61.441 14.1287Z" fill="#FF9300"/>
<path d="M65.0001 14C64.7124 14 64.4253 14.0031 64.1387 14.008C64.1791 14.0073 64.2197 14.0076 64.2604 14.0067C64.5064 14.0024 64.753 14 65.0001 14Z" fill="#FF9300"/>
<path d="M106.824 37.4825C106.828 37.4819 106.831 37.481 106.835 37.4804C106.574 37.0537 106.306 36.6315 106.033 36.2134C106.011 36.1789 105.988 36.1446 105.965 36.1103C105.739 35.7665 105.508 35.4261 105.273 35.0886C105.814 35.8694 106.329 36.6693 106.824 37.4825Z" fill="#FF9300"/>
<path d="M86.9126 19.1742C86.9355 19.1856 86.9583 19.1968 86.9812 19.2083C87.145 19.2908 87.3079 19.3743 87.4704 19.4584C87.589 19.5196 87.7074 19.5811 87.8254 19.6432C87.9087 19.6871 87.9918 19.7314 88.0747 19.7759C88.2732 19.8818 88.4706 19.989 88.6674 20.0976C88.6899 20.1101 88.7123 20.1225 88.7348 20.135C88.8475 20.1975 88.961 20.2589 89.0731 20.3224C89.1129 20.3449 89.1546 20.3643 89.1944 20.3869C90.1946 20.9562 91.1719 21.5607 92.1266 22.1967C92.1395 22.2052 92.1517 22.2148 92.1646 22.2234C90.772 22.2859 89.3953 22.4088 88.0353 22.5854C87.0253 22.7636 85.9963 22.9304 84.9487 23.0856C73.6085 25.3018 63.6721 31.4313 56.5939 40.0078C56.5959 40.0078 56.5981 40.008 56.6002 40.0082C56.5998 40.0088 56.5994 40.0092 56.5988 40.0098C59.3315 40.167 62.1374 40.2499 64.9998 40.2499C68.546 40.2499 72.0072 40.1246 75.3482 39.8859C75.9864 39.8404 76.6202 39.7905 77.2494 39.7368L83.2188 39.0884C91.5478 37.9835 98.799 36.1372 104.342 33.7919C104.158 33.5445 103.972 33.2982 103.784 33.0543C103.777 33.0459 103.771 33.0373 103.764 33.0289C103.614 32.835 103.462 32.6423 103.309 32.4507C103.287 32.4232 103.265 32.3958 103.243 32.3685C102.956 32.011 102.665 31.6574 102.368 31.3082C102.343 31.2778 102.317 31.2474 102.291 31.217C102.136 31.0348 101.979 30.8538 101.821 30.6741C101.8 30.6496 101.778 30.6255 101.756 30.6012C101.462 30.2674 101.163 29.9381 100.86 29.6124C100.817 29.5669 100.775 29.521 100.732 29.4756C100.574 29.3062 100.414 29.1377 100.252 28.9707C100.232 28.9499 100.212 28.9295 100.192 28.9089C99.8876 28.5946 99.5787 28.2847 99.2661 27.9787C99.2077 27.9215 99.1493 27.8641 99.0905 27.8072C98.9303 27.652 98.7694 27.4972 98.6071 27.3443C98.5873 27.3255 98.5671 27.3074 98.5472 27.2888C98.233 26.9936 97.9147 26.7028 97.593 26.4158C97.5176 26.3486 97.4423 26.2816 97.3666 26.2149C97.2071 26.0744 97.0472 25.9341 96.8857 25.7959C96.8776 25.789 96.8694 25.782 96.8612 25.7751C96.526 25.4878 96.1863 25.2057 95.8435 24.9276C95.75 24.8519 95.6562 24.7763 95.5623 24.7012C95.3214 24.5087 95.0783 24.3186 94.8337 24.1305C94.7159 24.0399 94.5985 23.9488 94.4798 23.8594C94.3271 23.7443 94.1732 23.6307 94.019 23.5172C93.9067 23.4345 93.794 23.3525 93.6809 23.2708C93.4821 23.1269 93.2822 22.9846 93.0811 22.8435C92.9108 22.7242 92.7401 22.6052 92.5682 22.488C92.4214 22.3878 92.2734 22.2892 92.1254 22.1905C91.9913 22.1011 91.8565 22.0127 91.7213 21.9247C91.5325 21.8016 91.3428 21.6795 91.1523 21.5589C90.9653 21.4404 90.7777 21.3228 90.5888 21.2071C90.448 21.1205 90.3061 21.0352 90.1642 20.95C90.0045 20.8543 89.844 20.7597 89.6832 20.6656C89.5061 20.5621 89.3287 20.4596 89.1503 20.3584C88.9488 20.244 88.7466 20.1307 88.5435 20.019C88.4087 19.9451 88.2736 19.872 88.138 19.7991C87.9475 19.6969 87.756 19.5962 87.5641 19.4964C87.4042 19.4133 87.2438 19.3308 87.0829 19.2493C86.8677 19.1405 86.6519 19.0331 86.4349 18.9273C86.3073 18.8653 86.1794 18.8036 86.0512 18.7424C85.8203 18.6323 85.5882 18.5239 85.3552 18.4173C85.2211 18.3561 85.0865 18.2955 84.952 18.2354C84.7244 18.1338 84.4957 18.0337 84.2662 17.9353C84.1461 17.8839 84.0259 17.8328 83.9054 17.7822C83.6135 17.6599 83.3205 17.5394 83.0257 17.4228C82.9399 17.3887 82.8532 17.3563 82.767 17.3228C82.5255 17.2289 82.2831 17.1366 82.04 17.0464C81.9281 17.0049 81.8164 16.9635 81.7041 16.9226C81.3987 16.812 81.092 16.7034 80.7839 16.5984C80.698 16.5692 80.6112 16.5413 80.525 16.5125C80.2705 16.4275 80.015 16.3444 79.7586 16.2636C79.6559 16.2311 79.5534 16.1987 79.4505 16.1668C79.132 16.0686 78.8125 15.9733 78.4913 15.8816C78.4058 15.8571 78.3196 15.8338 78.2339 15.8099C77.9652 15.7348 77.6957 15.6617 77.425 15.5911C77.3325 15.5668 77.24 15.5421 77.1473 15.5186C76.817 15.4343 76.4854 15.3532 76.1526 15.2758C76.0669 15.2558 75.9807 15.2368 75.8948 15.2174C75.6112 15.1531 75.3268 15.0911 75.0413 15.0316C74.9601 15.0147 74.879 14.9971 74.7976 14.9806C74.4566 14.9114 74.1144 14.8461 73.771 14.784C73.6842 14.7683 73.5971 14.7536 73.5101 14.7383C73.2106 14.6858 72.9102 14.636 72.6087 14.589C72.5407 14.5784 72.4727 14.567 72.4045 14.5568C72.0538 14.5035 71.7016 14.4547 71.3484 14.4089C76.8801 15.1264 82.1196 16.7701 86.9126 19.1742Z" fill="#33B9E9"/>
<path d="M105.27 35.0829C105.086 34.8191 104.902 34.5567 104.713 34.2968C104.692 34.267 104.67 34.2376 104.649 34.208C104.563 34.0898 104.476 33.9726 104.389 33.8552C104.688 34.2597 104.983 34.6686 105.27 35.0829Z" fill="#FF9300"/>
<path d="M67.6378 14.0707C67.6227 14.0699 67.6076 14.0689 67.5925 14.0681C67.5625 14.0664 67.5327 14.0644 67.5027 14.063C67.3563 14.0556 67.2095 14.0503 67.0629 14.0442C67.2548 14.0522 67.4465 14.0605 67.6378 14.0707Z" fill="#FF9300"/>
<path d="M69.4227 14.1984C69.245 14.1825 69.0672 14.1674 68.889 14.1533C68.861 14.1511 68.8328 14.1492 68.8049 14.147C69.0111 14.1631 69.2171 14.18 69.4227 14.1984Z" fill="#FF9300"/>
<path d="M71.3293 14.4064C71.248 14.396 71.1666 14.386 71.0851 14.376C70.8926 14.3521 70.6999 14.329 70.5067 14.3074C70.7815 14.3382 71.0559 14.3711 71.3293 14.4064Z" fill="#FF9300"/>
<path d="M70.3457 14.29C70.2724 14.282 70.1989 14.2739 70.1256 14.2661C70.0746 14.2608 70.0235 14.2547 69.9725 14.2496C69.868 14.239 69.763 14.23 69.6583 14.22C69.888 14.2418 70.117 14.2651 70.3457 14.29Z" fill="#FF9300"/>
<path d="M66.7572 14.0316C66.6367 14.0273 66.5158 14.0242 66.395 14.0208C66.3133 14.0185 66.2316 14.0165 66.15 14.0146C66.3527 14.0195 66.5552 14.0244 66.7572 14.0316Z" fill="#FF9300"/>
<path d="M63.8851 14.0137C63.88 14.0137 63.8749 14.0139 63.8698 14.0141C63.7912 14.0159 63.7126 14.0176 63.634 14.0196C63.5127 14.0229 63.3912 14.0265 63.2701 14.0308C63.4747 14.0237 63.6797 14.0184 63.8851 14.0137Z" fill="#FF9300"/>
<path d="M62.9966 14.0417C62.846 14.0479 62.6953 14.0538 62.545 14.0611C62.4844 14.0642 62.4237 14.0677 62.3633 14.0709C62.574 14.0597 62.7853 14.0501 62.9966 14.0417Z" fill="#FF9300"/>
<path d="M65.0001 14C64.7531 14 64.5064 14.0025 64.2604 14.0067C64.5066 14.0033 64.7531 14 65.0001 14Z" fill="#FF7400"/>
<path d="M88.6674 20.0976C88.4706 19.989 88.2732 19.8818 88.0747 19.7759C88.273 19.882 88.4708 19.9888 88.6674 20.0976Z" fill="#FF7400"/>
<path d="M92.1648 22.2232C92.1519 22.2146 92.1397 22.205 92.1268 22.1964C91.1721 21.5605 90.1948 20.9559 89.1946 20.3867C89.1548 20.364 89.1131 20.3446 89.0733 20.3222C88.961 20.2587 88.8477 20.1972 88.735 20.1348C89.727 20.6856 90.6981 21.2697 91.6464 21.8857C90.4745 22.1356 89.2677 22.3677 88.0355 22.5852C89.3953 22.4086 90.7722 22.2857 92.1648 22.2232Z" fill="#16A5D9"/>
<path d="M86.9812 19.2084C86.9583 19.197 86.9354 19.1855 86.9126 19.1743C86.9354 19.1857 86.9583 19.197 86.9812 19.2084Z" fill="#FF7400"/>
<path d="M87.8255 19.643C87.7075 19.581 87.5891 19.5195 87.4705 19.4583C87.5891 19.5197 87.7075 19.5808 87.8255 19.643Z" fill="#FF7400"/>
<path d="M26.7347 34.2405C26.925 34.3159 27.1165 34.3908 27.3104 34.4649C27.4176 34.506 27.5258 34.5466 27.634 34.5872C27.8161 34.6556 28.0001 34.7234 28.1853 34.7906C28.2976 34.8314 28.4094 34.8722 28.5228 34.9127C28.7204 34.9831 28.9205 35.0527 29.1214 35.1219C29.222 35.1566 29.3213 35.1917 29.4227 35.226C29.7106 35.3236 30.0019 35.4202 30.2966 35.5154C30.4223 35.556 30.5505 35.5958 30.6773 35.636C30.8568 35.693 31.0365 35.7497 31.2184 35.8059C31.3748 35.8541 31.5328 35.9014 31.6908 35.949C31.8446 35.9951 31.9991 36.0411 32.1545 36.0868C32.327 36.1374 32.5001 36.1877 32.6745 36.2375C32.8133 36.2771 32.9534 36.3161 33.0936 36.3553C33.2837 36.4084 33.4736 36.4615 33.6659 36.5135C33.7633 36.5399 33.8623 36.5656 33.9603 36.5919C34.7241 36.7959 35.5049 36.9927 36.3025 37.1816C36.3728 37.1983 36.4426 37.215 36.5132 37.2316C36.775 37.2928 37.0386 37.3533 37.3038 37.4131C37.3666 37.4272 37.4295 37.4413 37.4926 37.4553C37.7772 37.5188 38.0633 37.5815 38.3518 37.643C38.355 37.6436 38.3581 37.6444 38.3613 37.645C43.8351 38.8112 49.9995 39.6287 56.5942 40.008C63.6725 31.4316 73.6089 25.3021 84.9491 23.0859C78.8258 23.993 72.0885 24.5002 65.0002 24.5002C55.2284 24.5002 46.1164 23.5406 38.3726 21.8903C41.6198 19.7812 45.1313 18.0452 48.8459 16.7424C48.4043 16.8958 47.9643 17.053 47.529 17.2194C47.2781 17.3151 47.0292 17.4148 46.7804 17.5144C46.1421 17.7704 45.5104 18.0397 44.8859 18.3217C44.6723 18.418 44.4574 18.5119 44.2454 18.6112C43.4631 18.9779 42.6901 19.3611 41.931 19.7674C41.8957 19.7861 41.8591 19.8031 41.824 19.8221C40.9828 20.2749 40.1566 20.7525 39.3458 21.2521C39.2815 21.2917 39.2191 21.3343 39.1549 21.3744C38.44 21.8196 37.7378 22.2837 37.0479 22.7641C36.9001 22.867 36.7544 22.9726 36.6078 23.0771C35.9818 23.5234 35.3664 23.9834 34.7627 24.4579C34.6351 24.5581 34.5067 24.6572 34.3801 24.7584C32.1878 26.5171 30.1487 28.4585 28.2888 30.5625C28.2177 30.6429 28.1485 30.7248 28.0779 30.8058C27.5297 31.4341 26.9974 32.0766 26.4815 32.7326C26.4049 32.83 26.328 32.9267 26.252 33.0245C26.0528 33.2818 25.8584 33.5433 25.6634 33.804C25.9278 33.9157 26.1969 34.0262 26.469 34.1356C26.5566 34.1707 26.6461 34.2054 26.7347 34.2405Z" fill="#16A5D9"/>
<path d="M53.0574 15.4728C52.9841 15.4912 52.909 15.5053 52.8357 15.5238C51.9294 15.7556 51.0346 16.0163 50.1491 16.2978C49.941 16.364 49.7369 16.4385 49.5301 16.5073C49.5096 16.514 49.4896 16.5214 49.4694 16.5281C50.7134 16.1108 51.9794 15.7415 53.2657 15.4236C53.1967 15.4405 53.1267 15.4554 53.0574 15.4728Z" fill="#FF7400"/>
<path d="M107.802 39.1499C107.488 38.5866 107.159 38.0322 106.824 37.4824C106.329 36.6694 105.814 35.8693 105.274 35.0884C105.272 35.0865 105.271 35.0847 105.27 35.0829C104.983 34.6686 104.688 34.2599 104.389 33.8552C104.373 33.8342 104.359 33.8125 104.343 33.7915C104.343 33.7917 104.342 33.7917 104.342 33.7919C98.7993 36.1372 91.5481 37.9835 83.2191 39.0884L77.2497 39.7368C76.6204 39.7907 75.9867 39.8403 75.3485 39.8859C72.0075 40.1245 68.5462 40.2499 65.0001 40.2499C62.1377 40.2499 59.332 40.167 56.599 40.0098C54.8797 42.0925 53.3252 44.3153 51.9646 46.6665C51.9193 46.6624 51.8746 46.6577 51.8293 46.6536C51.8732 46.6577 51.9163 46.6622 51.9601 46.6663C56.1209 47.047 60.4915 47.25 65.0001 47.25C82.9931 47.25 98.7905 44.019 107.802 39.1499Z" fill="#CCF2FF"/>
<path d="M26.0633 40.9673C25.97 40.9287 25.8761 40.8904 25.7838 40.8516C25.8761 40.8904 25.97 40.9287 26.0633 40.9673Z" fill="#FFEDB9"/>
<path d="M24.9325 40.4853C24.9201 40.4798 24.9074 40.4743 24.8951 40.4688C24.9074 40.4745 24.9201 40.4798 24.9325 40.4853Z" fill="#FFEDB9"/>
<path d="M24.063 40.0876C23.9782 40.0477 23.8949 40.0075 23.811 39.9673C23.8947 40.0075 23.978 40.0477 24.063 40.0876Z" fill="#FFEDB9"/>
<path d="M43.2313 45.5604C43.1209 45.5422 43.0102 45.5242 42.9002 45.5059C43.0102 45.5242 43.1209 45.5422 43.2313 45.5604Z" fill="#FFEDB9"/>
<path d="M27.0112 41.3476C26.9144 41.31 26.8191 41.2719 26.7233 41.2339C26.8191 41.2719 26.9144 41.31 27.0112 41.3476Z" fill="#FFEDB9"/>
<path d="M41.7845 45.313C41.6328 45.2861 41.4823 45.2583 41.3314 45.231C41.4821 45.2585 41.6326 45.2861 41.7845 45.313Z" fill="#FFEDB9"/>
<path d="M40.5071 45.0772C40.3582 45.0489 40.209 45.0207 40.061 44.9917C40.209 45.0207 40.358 45.0489 40.5071 45.0772Z" fill="#FFEDB9"/>
<path d="M22.198 39.1497C22.2025 39.1521 22.2076 39.1546 22.2123 39.157C22.2076 39.1546 22.2027 39.1521 22.198 39.1497Z" fill="#FFEDB9"/>
<path d="M37.6896 44.4991C37.5528 44.4689 37.4173 44.4381 37.2813 44.4075C37.4173 44.4381 37.5528 44.4689 37.6896 44.4991Z" fill="#FFEDB9"/>
<path d="M35.0752 43.8815C35.0135 43.866 34.9517 43.8507 34.8902 43.835C34.9515 43.8507 35.0135 43.866 35.0752 43.8815Z" fill="#FFEDB9"/>
<path d="M36.4836 44.224C36.3488 44.1924 36.2137 44.1607 36.0797 44.1287C36.2137 44.1607 36.3488 44.1924 36.4836 44.224Z" fill="#FFEDB9"/>
<path d="M39.0307 44.7855C38.9452 44.768 38.8594 44.7504 38.7743 44.7327C38.8594 44.7504 38.9452 44.768 39.0307 44.7855Z" fill="#FFEDB9"/>
<path d="M33.8482 43.5619C33.7248 43.5286 33.6028 43.4949 33.4803 43.4614C33.6028 43.4949 33.7248 43.5286 33.8482 43.5619Z" fill="#FFEDB9"/>
<path d="M44.7645 45.801C44.6026 45.7767 44.4405 45.7524 44.2796 45.7275C44.4405 45.7524 44.6026 45.7767 44.7645 45.801Z" fill="#FFEDB9"/>
<path d="M27.9972 41.7215C27.9758 41.7135 27.9539 41.7058 27.9325 41.698C27.9539 41.7058 27.9758 41.7135 27.9972 41.7215Z" fill="#FFEDB9"/>
<path d="M29.2374 42.1605C29.1314 42.1242 29.0251 42.088 28.9199 42.0513C29.0251 42.0878 29.1314 42.124 29.2374 42.1605Z" fill="#FFEDB9"/>
<path d="M30.2804 42.5084C30.171 42.4728 30.063 42.4371 29.9546 42.4014C30.0632 42.4369 30.1712 42.4728 30.2804 42.5084Z" fill="#FFEDB9"/>
<path d="M32.719 43.2487C32.5991 43.2146 32.4789 43.1805 32.3601 43.146C32.4789 43.1805 32.5991 43.2144 32.719 43.2487Z" fill="#FFEDB9"/>
<path d="M31.3868 42.8569C31.3484 42.8451 31.3096 42.8336 31.2713 42.8218C31.3096 42.8336 31.3484 42.8451 31.3868 42.8569Z" fill="#FFEDB9"/>
<path d="M23.2174 39.6773C23.1359 39.6366 23.054 39.596 22.9738 39.5552C23.0543 39.596 23.1359 39.6364 23.2174 39.6773Z" fill="#FFEDB9"/>
<path d="M23.7192 36.6161C23.7962 36.4956 23.8726 36.3748 23.9508 36.2549C24.4924 35.4221 25.0541 34.6034 25.6455 33.8076C25.6478 33.8047 25.6496 33.8016 25.6517 33.7988C25.9197 33.9121 26.1927 34.024 26.4687 34.1348C26.1966 34.0254 25.9275 33.9152 25.6631 33.8033C25.6592 33.8016 25.6553 33.8002 25.6515 33.7986C24.3871 35.4995 23.2368 37.2888 22.1978 39.1492C22.1982 39.1486 22.199 39.1473 22.199 39.1473C22.68 38.287 23.1904 37.4448 23.7192 36.6161Z" fill="#FFEDB9"/>
<path d="M49.2312 46.3864C49.0588 46.367 48.8865 46.3476 48.7152 46.3276C48.8865 46.3476 49.0588 46.367 49.2312 46.3864Z" fill="#FFEDB9"/>
<path d="M46.1043 45.9945C45.9413 45.9719 45.7794 45.9486 45.6173 45.9255C45.7794 45.9486 45.9413 45.9719 46.1043 45.9945Z" fill="#FFEDB9"/>
<path d="M50.6286 46.5368C50.4557 46.5192 50.2838 46.5008 50.1116 46.4827C50.2838 46.5008 50.4557 46.5192 50.6286 46.5368Z" fill="#FFEDB9"/>
<path d="M47.6409 46.1974C47.5146 46.1815 47.3878 46.1658 47.262 46.1497C47.388 46.1658 47.5146 46.1815 47.6409 46.1974Z" fill="#FFEDB9"/>
<path d="M37.4925 37.4551C37.4294 37.441 37.3665 37.4269 37.3037 37.4128C37.3665 37.4269 37.4294 37.441 37.4925 37.4551Z" fill="#FFEDB9"/>
<path d="M29.1217 35.1219C28.9208 35.0527 28.7206 34.983 28.5231 34.9126C28.7206 34.983 28.9208 35.0527 29.1217 35.1219Z" fill="#FFEDB9"/>
<path d="M30.2968 35.5154C30.0022 35.42 29.7108 35.3237 29.4229 35.2261C29.711 35.3237 30.0022 35.4202 30.2968 35.5154Z" fill="#FFEDB9"/>
<path d="M28.1857 34.7905C28.0005 34.7231 27.8166 34.6554 27.6345 34.5872C27.8164 34.6554 28.0003 34.7231 28.1857 34.7905Z" fill="#FFEDB9"/>
<path d="M33.9603 36.5916C33.8623 36.5655 33.7632 36.5397 33.6659 36.5132C33.7632 36.5397 33.8623 36.5655 33.9603 36.5916Z" fill="#FFEDB9"/>
<path d="M27.3106 34.4646C27.1167 34.3905 26.9252 34.3156 26.7349 34.2402C26.9252 34.3156 27.1167 34.3905 27.3106 34.4646Z" fill="#FFEDB9"/>
<path d="M36.5131 37.2312C36.4427 37.2146 36.3727 37.1979 36.3024 37.1812C36.3729 37.1979 36.4427 37.2146 36.5131 37.2312Z" fill="#FFEDB9"/>
<path d="M31.2188 35.8059C31.0369 35.7499 30.8572 35.6929 30.6777 35.636C30.8572 35.6929 31.0369 35.7499 31.2188 35.8059Z" fill="#FFEDB9"/>
<path d="M32.1547 36.0868C31.9994 36.0413 31.8448 35.9953 31.6911 35.949C31.8448 35.9953 31.9991 36.0413 32.1547 36.0868Z" fill="#FFEDB9"/>
<path d="M33.0938 36.3551C32.9538 36.3159 32.8135 36.2769 32.6747 36.2373C32.8137 36.2769 32.9538 36.3161 33.0938 36.3551Z" fill="#FFEDB9"/>
<path d="M38.3611 37.6449C38.3579 37.6443 38.3548 37.6434 38.3515 37.6428C38.3548 37.6434 38.3579 37.6443 38.3611 37.6449Z" fill="#FFEDB9"/>
<path d="M53.2657 15.4234C51.9792 15.7413 50.7134 16.1105 49.4694 16.528C49.2609 16.598 49.0531 16.6695 48.8459 16.7422C45.1313 18.045 41.6198 19.781 38.3725 21.89C46.1162 23.5403 55.2281 24.4999 64.9999 24.4999C72.0882 24.4999 78.8255 23.9927 84.9489 23.0856C85.9962 22.9305 87.0254 22.7634 88.0355 22.5854C89.2676 22.368 90.4744 22.136 91.6463 21.8859C90.698 21.27 89.7268 20.6858 88.7349 20.135C88.7125 20.1226 88.69 20.1101 88.6676 20.0976C88.4709 19.9888 88.2731 19.882 88.0749 19.7759C87.992 19.7314 87.9089 19.6871 87.8256 19.6432C87.7076 19.5809 87.5891 19.5199 87.4705 19.4584C87.308 19.3743 87.1451 19.2906 86.9813 19.2083C86.9585 19.1969 86.9356 19.1856 86.9127 19.1742C82.1197 16.7703 76.8802 15.1266 71.3489 14.4089C71.3485 14.4089 71.3483 14.4089 71.3479 14.4087C71.3418 14.4079 71.3356 14.4073 71.3295 14.4065C71.0561 14.3712 70.7817 14.3383 70.5067 14.3075C70.4532 14.3016 70.3995 14.296 70.346 14.2901C70.1174 14.2652 69.8883 14.2419 69.6586 14.2201C69.58 14.2127 69.5016 14.2056 69.423 14.1987C69.2174 14.1803 69.0114 14.1631 68.8052 14.1472C68.7703 14.1445 68.7356 14.1411 68.7007 14.1386C68.6421 14.1343 68.5831 14.1305 68.5243 14.1264C68.3305 14.1125 68.1364 14.1002 67.942 14.0888C67.8407 14.0829 67.7395 14.0766 67.638 14.0713C67.4467 14.061 67.255 14.0527 67.063 14.0447C66.9612 14.0404 66.8593 14.0357 66.7572 14.0321C66.5553 14.0249 66.3528 14.0198 66.1502 14.0151C66.1433 14.0149 66.1365 14.0147 66.1296 14.0145C66.0457 14.0125 65.962 14.0098 65.8781 14.0082C65.5857 14.0029 65.2931 14 64.9999 14C64.7529 14 64.5065 14.0033 64.2602 14.0067C64.2198 14.0074 64.1792 14.0071 64.1386 14.008C64.0538 14.0094 63.9695 14.012 63.885 14.0139C63.6798 14.0184 63.4746 14.0239 63.27 14.0308C63.1788 14.0341 63.0877 14.038 62.9967 14.0416C62.7851 14.0502 62.574 14.0596 62.3633 14.071C62.2906 14.0749 62.2178 14.079 62.1451 14.0831C61.9101 14.0968 61.6753 14.1119 61.4411 14.1288C61.4017 14.1317 61.3623 14.1341 61.3231 14.137C58.5667 14.3428 55.8749 14.7787 53.2657 15.4234Z" fill="#149AC9"/>
<path d="M73.5235 59.2541L75.2838 61.8503C76.1609 63.1439 75.0372 64.8319 73.4986 64.5563C67.7439 63.5257 61.653 59.5808 52.3353 58.9493L52.3357 58.9507C50.5494 58.7925 48.8036 58.6 47.0996 58.3784C46.1068 62.0585 45.5233 65.9067 45.4185 69.8753C45.4228 69.8759 45.4271 69.8765 45.4314 69.8771C45.4314 69.8787 45.4314 69.8804 45.4312 69.882C51.5015 70.6913 58.0985 71.1356 64.9995 71.1356C86.5228 71.1356 105.099 66.8187 113.908 60.5624C113.949 61.3726 114 62.1798 114 63C114 62.6231 113.994 62.2474 113.986 61.8726C113.983 61.7547 113.979 61.6371 113.976 61.5195C113.968 61.2545 113.958 60.9901 113.945 60.7264C113.94 60.5992 113.934 60.4718 113.927 60.345C113.909 60.0059 113.888 59.6674 113.863 59.3299C113.851 59.1727 113.837 59.0163 113.824 58.8597C113.807 58.6561 113.789 58.4526 113.77 58.2498C113.75 58.0501 113.73 57.8507 113.708 57.6516C113.693 57.515 113.677 57.3788 113.661 57.2427C113.316 54.3096 112.713 51.4554 111.875 48.7036C105.292 54.1698 90.9203 58.2396 73.5235 59.2541Z" fill="#33B9E9"/>
<path d="M16.1238 59.6888C16.1415 59.4236 16.1622 59.1594 16.1842 58.8954C16.2736 57.8235 16.3855 56.7582 16.5429 55.7071C16.5444 55.6967 16.5454 55.6861 16.547 55.6759C16.7148 54.5614 16.9276 53.4619 17.1691 52.3731C17.2067 52.203 17.2471 52.034 17.2865 51.8647C17.5352 50.7979 17.8094 49.7406 18.1258 48.7016C23.4795 53.1487 33.9898 56.6688 47.0897 58.3746C48.2084 54.2279 49.8576 50.3 51.9603 46.6664C51.9164 46.6623 51.8734 46.6579 51.8295 46.6538C51.4272 46.6166 51.0271 46.5776 50.629 46.537C50.456 46.5194 50.2841 46.5011 50.112 46.4829C49.8174 46.4516 49.5238 46.4198 49.2314 46.3867C49.0591 46.3673 48.8868 46.3481 48.7155 46.3279C48.3554 46.2859 47.9975 46.2424 47.641 46.1975C47.5146 46.1815 47.388 46.1658 47.262 46.1497C46.8737 46.0997 46.488 46.048 46.1044 45.9949C45.9415 45.9723 45.7796 45.949 45.6175 45.9259C45.3319 45.8851 45.0477 45.8436 44.7647 45.801C44.6028 45.7767 44.4407 45.7524 44.2798 45.7275C43.9282 45.6732 43.5789 45.6174 43.2316 45.5603C43.1211 45.5421 43.0105 45.5241 42.9004 45.5057C42.5258 45.4431 42.1542 45.3788 41.7847 45.313C41.633 45.2861 41.4825 45.2583 41.3316 45.2309C41.0554 45.1805 40.7806 45.1295 40.5074 45.0774C40.3586 45.049 40.2093 45.0208 40.0613 44.9919C39.7154 44.9243 39.372 44.8557 39.0311 44.7854C38.9455 44.7679 38.8598 44.7503 38.7746 44.7326C38.4098 44.6564 38.0486 44.5784 37.6899 44.4994C37.5531 44.4692 37.4175 44.4384 37.2816 44.4077C37.0139 44.3475 36.7483 44.2863 36.4841 44.2242C36.3493 44.1925 36.2142 44.1609 36.0802 44.1288C35.7423 44.0478 35.4071 43.9655 35.0753 43.8818C35.0137 43.8663 34.9518 43.851 34.8904 43.8353C34.5394 43.7458 34.1925 43.6546 33.8485 43.5621C33.7252 43.5288 33.6031 43.4951 33.4806 43.4616C33.2248 43.3916 32.971 43.3208 32.7193 43.2489C32.5994 43.2148 32.4792 43.1807 32.3603 43.1462C32.0326 43.051 31.7076 42.9547 31.3871 42.8569C31.3487 42.845 31.3099 42.8336 31.2715 42.8218C30.9369 42.7191 30.6074 42.6143 30.2807 42.5086C30.1713 42.473 30.0632 42.4373 29.9548 42.4016C29.7135 42.322 29.4744 42.2417 29.2376 42.1605C29.1316 42.1241 29.0253 42.088 28.9201 42.0512C28.6088 41.9426 28.3005 41.833 27.9975 41.7215C27.9761 41.7136 27.9542 41.7058 27.9328 41.698C27.6206 41.5829 27.3143 41.4659 27.0114 41.3479C26.9146 41.3103 26.8194 41.2721 26.7235 41.2342C26.5009 41.146 26.2809 41.0569 26.0634 40.9673C25.9701 40.9287 25.8762 40.8904 25.7839 40.8516C25.4958 40.7307 25.2112 40.6088 24.9325 40.4853C24.9201 40.4798 24.9074 40.4743 24.8952 40.4687C24.6124 40.3432 24.3362 40.2158 24.0632 40.0874C23.9785 40.0476 23.8952 40.0073 23.8113 39.9671C23.6106 39.8712 23.4127 39.7744 23.2175 39.6768C23.1361 39.6362 23.0542 39.5955 22.974 39.5547C22.7155 39.4232 22.4607 39.2909 22.2124 39.157C22.2077 39.1545 22.2028 39.1521 22.1981 39.1496C23.2369 37.2893 24.3874 35.4997 25.6518 33.799C25.6557 33.8007 25.6596 33.8023 25.6635 33.8037C25.8582 33.5428 26.0526 33.2815 26.2521 33.0242C26.328 32.9264 26.4052 32.8294 26.4816 32.7323C26.9977 32.0765 27.5297 31.434 28.0779 30.8055C28.1486 30.7247 28.2178 30.6426 28.2888 30.5622C30.1488 28.458 32.188 26.5168 34.3801 24.7581C34.5067 24.6567 34.6352 24.5578 34.7628 24.4576C35.3665 23.9831 35.9818 23.5231 36.6078 23.0768C36.7544 22.9723 36.9002 22.8667 37.048 22.7638C37.7379 22.2834 38.4398 21.8193 39.155 21.3741C39.2191 21.334 39.2816 21.2914 39.3459 21.2518C40.1566 20.7522 40.9829 20.2746 41.8241 19.8218C41.8592 19.8028 41.8959 19.7858 41.9311 19.7671C42.6901 19.361 43.4631 18.9776 44.2455 18.6109C44.4576 18.5116 44.6724 18.4177 44.886 18.3214C45.5107 18.0394 46.1422 17.7703 46.7804 17.5141C47.0293 17.4142 47.2782 17.3148 47.5291 17.2191C47.9646 17.0527 48.4044 16.8957 48.846 16.7421C49.0532 16.6694 49.261 16.5978 49.4695 16.528C49.4897 16.5212 49.5099 16.5139 49.5301 16.5071C49.737 16.4383 49.9411 16.3638 50.1492 16.2977C51.0346 16.0163 51.9293 15.7554 52.8358 15.5237C52.9091 15.5049 52.9842 15.491 53.0575 15.4726C53.1265 15.4553 53.1966 15.4406 53.266 15.4234C55.8752 14.7787 58.567 14.3428 61.3232 14.137C61.276 14.1404 61.2287 14.1435 61.1815 14.1472C60.8246 14.1747 60.4692 14.2068 60.1147 14.2419C60.027 14.2505 59.9394 14.2597 59.8518 14.2689C59.4984 14.3058 59.1458 14.3454 58.7946 14.3897C58.7444 14.3961 58.6946 14.4032 58.6445 14.4097C58.3307 14.4504 58.018 14.4945 57.706 14.541C57.6149 14.5547 57.5237 14.568 57.4328 14.582C57.1 14.6337 56.7685 14.6886 56.4379 14.7468C56.3389 14.7642 56.2403 14.7827 56.1415 14.8007C55.8609 14.852 55.581 14.9054 55.3021 14.9614C55.2241 14.9771 55.1457 14.9918 55.0679 15.0077C54.7511 15.0731 54.4356 15.1425 54.121 15.2139C54.0006 15.2413 53.8803 15.2689 53.7603 15.297C53.4565 15.3683 53.1537 15.4416 52.8521 15.5186C52.7351 15.5484 52.6188 15.58 52.5022 15.6106C52.2835 15.6682 52.0657 15.7272 51.8482 15.7877C51.7155 15.8246 51.5824 15.8609 51.4501 15.8991C51.1727 15.9788 50.8964 16.0612 50.621 16.1458C50.4687 16.1925 50.3168 16.2405 50.1653 16.2885C49.986 16.3454 49.8072 16.4036 49.6287 16.4626C49.3876 16.5423 49.1475 16.6237 48.908 16.707C48.7545 16.7603 48.6012 16.814 48.4485 16.8689C48.2725 16.932 48.0969 16.9957 47.9219 17.0608C47.7886 17.1104 47.6559 17.1617 47.523 17.2123C47.2277 17.325 46.9339 17.4404 46.6416 17.5586C46.5464 17.5972 46.4513 17.636 46.3566 17.6752C45.9625 17.8375 45.5709 18.0045 45.182 18.1766C45.1677 18.1829 45.1532 18.1891 45.1387 18.1956C44.9205 18.2926 44.703 18.3912 44.4864 18.4912C44.4686 18.4994 44.4509 18.508 44.4331 18.5161C44.0038 18.715 43.5779 18.92 43.1554 19.1307C43.1505 19.1331 43.1456 19.1356 43.1407 19.138C28.6839 26.3572 18.2979 40.51 16.3388 57.2408C16.3226 57.3778 16.3067 57.5148 16.2918 57.6522C16.2704 57.8509 16.2493 58.0495 16.2301 58.249C16.2105 58.4528 16.193 58.6571 16.1758 58.8615C16.1628 59.0173 16.1485 59.1727 16.1368 59.3286C16.1117 59.6663 16.0907 60.0053 16.0725 60.3448C16.0658 60.4718 16.0605 60.5992 16.0546 60.7264C16.0423 60.9902 16.0323 61.2545 16.0245 61.5196C16.0211 61.6372 16.0172 61.7546 16.0145 61.8726C16.0058 62.2474 16 62.6231 16 63.0002C16 61.886 16.0503 60.7841 16.1238 59.6888Z" fill="#33B9E9"/>
<path d="M65.0001 71.1355C58.099 71.1355 51.5018 70.691 45.4317 69.8819C45.4205 70.3098 45.4001 70.7357 45.4001 71.1665C45.4001 73.9152 45.6491 76.6032 46.0844 79.2286C33.5206 77.4842 23.437 74.0642 18.1991 69.7647C23.4327 74.0663 33.5014 77.4946 46.0634 79.2392C51.9142 80.0518 58.3044 80.5 64.9999 80.5C88.1454 80.5 107.658 75.1551 113.759 67.8508C113.916 66.2547 114 64.6373 114 63C114 62.1799 113.949 61.3726 113.909 60.5625C105.1 66.8184 86.5233 71.1355 65.0001 71.1355Z" fill="#16A5D9"/>
<path d="M16.241 67.851C16.2397 67.8381 16.2391 67.8253 16.2379 67.8124C16.1613 67.028 16.1017 66.2387 16.0617 65.4439C16.0221 64.6342 16 63.8197 16 63C16 64.6372 16.084 66.2548 16.241 67.851C16.241 67.8508 16.241 67.8508 16.241 67.851Z" fill="#FF7400"/>
<path d="M16.622 68.2836C16.4905 68.1403 16.3625 67.9966 16.2414 67.8518C16.3625 67.9966 16.4907 68.1405 16.622 68.2836Z" fill="#FF7400"/>
<path d="M17.6131 69.2614C17.4534 69.1178 17.2986 68.9735 17.1498 68.8281C17.2986 68.9735 17.4534 69.1178 17.6131 69.2614Z" fill="#FF7400"/>
<path d="M17.0868 68.7647C16.9635 68.6428 16.8442 68.5201 16.7285 68.397C16.844 68.5201 16.9635 68.6428 17.0868 68.7647Z" fill="#FF7400"/>
<path d="M18.1443 69.7191C17.9869 69.5889 17.8342 69.4576 17.6856 69.3257C17.834 69.4576 17.9869 69.5887 18.1443 69.7191Z" fill="#FF7400"/>
<path d="M105.025 91.2493C108.152 86.8276 110.561 81.868 112.092 76.5327C107.379 80.5687 98.4324 83.8598 87.1454 85.7502L80.7505 86.6406C75.7921 87.1984 70.4981 87.4999 65.0001 87.4999C58.9782 87.4999 53.2013 87.1382 47.8421 86.4744C48.6431 88.9103 49.647 91.2519 50.803 93.5024C49.9281 93.0767 49.0641 92.6529 48.2121 92.2464C49.0537 92.648 49.9073 93.0667 50.7711 93.4871C55.2836 95.6831 60.0846 97.9255 65.0001 98C81.2691 98.2464 95.7378 95.3552 105.025 91.2493Z" fill="#CCF2FF"/>
<path d="M45.356 90.9528C45.2827 90.922 45.2096 90.8918 45.1368 90.8616C45.2096 90.8918 45.2827 90.922 45.356 90.9528Z" fill="#FFEDB9"/>
<path d="M44.9675 90.7919C44.8968 90.7631 44.8264 90.7347 44.756 90.7065C44.8264 90.7347 44.8968 90.7629 44.9675 90.7919Z" fill="#FFEDB9"/>
<path d="M44.1998 90.4892C44.1329 90.4637 44.0663 90.439 43.9995 90.4141C44.0663 90.439 44.1329 90.4637 44.1998 90.4892Z" fill="#FFEDB9"/>
<path d="M45.747 91.119C45.6704 91.0859 45.5939 91.0535 45.5175 91.021C45.5939 91.0533 45.6702 91.0859 45.747 91.119Z" fill="#FFEDB9"/>
<path d="M44.5827 90.6371C44.5139 90.61 44.4453 90.5834 44.3769 90.5569C44.4455 90.5836 44.5139 90.6102 44.5827 90.6371Z" fill="#FFEDB9"/>
<path d="M46.1405 91.2905C46.0604 91.2552 45.9804 91.2203 45.9006 91.1855C45.9806 91.2203 46.0604 91.2552 46.1405 91.2905Z" fill="#FFEDB9"/>
<path d="M46.9369 91.6491C46.8487 91.6086 46.7607 91.5686 46.6727 91.5288C46.7607 91.5686 46.8487 91.6086 46.9369 91.6491Z" fill="#FFEDB9"/>
<path d="M46.5361 91.4668C46.4524 91.4291 46.3689 91.3919 46.2854 91.3547C46.3689 91.3919 46.4524 91.4291 46.5361 91.4668Z" fill="#FFEDB9"/>
<path d="M41.5899 89.6552C41.5281 89.6399 41.4666 89.6258 41.405 89.6111C41.4666 89.6258 41.5281 89.6399 41.5899 89.6552Z" fill="#FFEDB9"/>
<path d="M41.2266 89.5691C41.1642 89.555 41.1021 89.5424 41.0398 89.5293C41.1021 89.5424 41.1642 89.555 41.2266 89.5691Z" fill="#FFEDB9"/>
<path d="M41.9551 89.7497C41.894 89.7331 41.8334 89.7178 41.7728 89.7019C41.8336 89.7178 41.8942 89.7333 41.9551 89.7497Z" fill="#FFEDB9"/>
<path d="M47.3446 91.8371C47.2483 91.7922 47.1521 91.7479 47.0561 91.7036C47.1521 91.7479 47.2483 91.7922 47.3446 91.8371Z" fill="#FFEDB9"/>
<path d="M42.3238 89.8538C42.2623 89.8359 42.2013 89.8189 42.1402 89.8018C42.2013 89.8189 42.2625 89.8359 42.3238 89.8538Z" fill="#FFEDB9"/>
<path d="M43.442 90.2128C43.3781 90.1905 43.3146 90.1691 43.2509 90.1475C43.3146 90.1691 43.3783 90.1905 43.442 90.2128Z" fill="#FFEDB9"/>
<path d="M43.82 90.3476C43.7547 90.3237 43.6893 90.3006 43.6242 90.2773C43.6893 90.3006 43.7547 90.3237 43.82 90.3476Z" fill="#FFEDB9"/>
<path d="M42.6941 89.9657C42.6314 89.9461 42.5691 89.9275 42.5066 89.9087C42.5691 89.9275 42.6316 89.9461 42.6941 89.9657Z" fill="#FFEDB9"/>
<path d="M43.067 90.0854C43.0037 90.0644 42.9406 90.0444 42.8775 90.0242C42.9406 90.0444 43.0035 90.0644 43.067 90.0854Z" fill="#FFEDB9"/>
<path d="M37.5955 89.7467C37.82 89.4296 38.1857 89.2387 38.75 89.2497C38.8654 89.252 38.9811 89.2563 39.0971 89.2626C38.9809 89.2565 38.8654 89.252 38.75 89.2497C38.1859 89.2387 37.8202 89.4296 37.5955 89.7467Z" fill="#FFEDB9"/>
<path d="M37.6359 92.9075C37.6912 93.0994 37.7502 93.2882 37.811 93.4712C37.7502 93.2882 37.691 93.0994 37.6359 92.9075Z" fill="#FFEDB9"/>
<path d="M18.9453 77.3604C18.9625 77.373 18.979 77.3859 18.9962 77.3985C18.979 77.3859 18.9625 77.373 18.9453 77.3604Z" fill="#FFEDB9"/>
<path d="M19.5411 77.7874C19.5658 77.8045 19.5909 77.8214 19.6158 77.8384C19.5911 77.8214 19.5658 77.8045 19.5411 77.7874Z" fill="#FFEDB9"/>
<path d="M38.5299 95.2944C38.5603 95.3608 38.5824 95.4075 38.5936 95.4312C38.5824 95.4075 38.5603 95.3608 38.5299 95.2944Z" fill="#FFEDB9"/>
<path d="M18.3782 76.9231C18.4174 76.9543 18.457 76.9856 18.4967 77.0168C18.457 76.9856 18.4174 76.9543 18.3782 76.9231Z" fill="#FFEDB9"/>
<path d="M17.9094 76.5371C19.4408 81.8734 21.8516 86.8338 24.9797 91.2559C27.4227 92.3353 30.2231 93.3135 33.3197 94.1696C30.2231 93.3135 27.4227 92.3351 24.9797 91.2557C21.8518 86.8338 19.4408 81.8734 17.9094 76.5371Z" fill="#FFEDB9"/>
<path d="M20.1654 78.2051C20.1748 78.2112 20.1838 78.2171 20.193 78.2233C20.1838 78.2171 20.1746 78.2112 20.1654 78.2051Z" fill="#FFEDB9"/>
<path d="M40.8661 89.4928C40.8026 89.4801 40.7395 89.4689 40.6762 89.457C40.7395 89.4687 40.8026 89.4801 40.8661 89.4928Z" fill="#FFEDB9"/>
<path d="M37.4983 92.384C37.5399 92.5594 37.5859 92.7348 37.6357 92.9077C37.5859 92.7348 37.5399 92.5596 37.4983 92.384Z" fill="#FFEDB9"/>
<path d="M47.7539 92.0292C47.6489 91.9796 47.544 91.9306 47.4394 91.8818C47.5442 91.9306 47.6489 91.9796 47.7539 92.0292Z" fill="#FFEDB9"/>
<path d="M40.5072 89.4256C40.4427 89.4143 40.3784 89.4047 40.3141 89.3945C40.3784 89.4047 40.4425 89.4143 40.5072 89.4256Z" fill="#FFEDB9"/>
<path d="M48.1686 92.2256C48.0544 92.1713 47.9407 92.1172 47.827 92.0635C47.9407 92.1172 48.0544 92.1711 48.1686 92.2256Z" fill="#FFEDB9"/>
<path d="M40.1512 89.3692C40.0849 89.3596 40.0191 89.3516 39.953 89.343C40.0189 89.3514 40.0849 89.3594 40.1512 89.3692Z" fill="#FFEDB9"/>
<path d="M39.797 89.3226C39.7245 89.3142 39.6524 89.3077 39.5804 89.3005C39.6526 89.3075 39.7245 89.314 39.797 89.3226Z" fill="#FFEDB9"/>
<path d="M37.5095 89.8877C37.4539 89.9932 37.4092 90.108 37.3768 90.2331C37.409 90.1082 37.4539 89.9932 37.5095 89.8877Z" fill="#FFEDB9"/>
<path d="M39.4466 89.2871C39.3622 89.2799 39.2783 89.2746 39.1944 89.2695C39.2781 89.2746 39.362 89.2799 39.4466 89.2871Z" fill="#FFEDB9"/>
<path d="M67.34 111.943C67.497 111.936 67.6536 111.927 67.8102 111.918C68.0399 111.905 68.2693 111.891 68.4982 111.874C68.666 111.862 68.8337 111.85 69.0011 111.837C69.2163 111.819 69.4306 111.8 69.645 111.779C69.8202 111.763 69.9954 111.747 70.1699 111.729C70.3704 111.708 70.5699 111.684 70.7698 111.66C71.5583 111.567 72.341 111.457 73.1175 111.327C73.2198 111.31 73.3225 111.294 73.4248 111.276C73.6898 111.23 73.9535 111.181 74.2171 111.13C74.3049 111.114 74.3929 111.097 74.4807 111.08C74.7614 111.025 75.0415 110.968 75.3206 110.908C75.3737 110.896 75.4268 110.884 75.4797 110.873C82.8123 109.271 89.53 106.025 95.233 101.546C86.7858 103.711 76.3347 105 65.0002 105C62.9234 105 60.8767 104.956 58.8662 104.872C61.3681 107.508 64.1482 109.878 67.1791 111.907C66.4527 111.939 65.7342 112 65 112C65.3924 112 65.7834 111.994 66.1736 111.985C66.3051 111.982 66.4359 111.977 66.5672 111.972C66.8253 111.964 67.0829 111.955 67.34 111.943Z" fill="#16A5D9"/>
<path d="M61.1614 111.836C60.9466 111.819 60.7308 111.807 60.5168 111.787C59.2937 111.676 58.0836 111.519 56.8882 111.319C56.6901 111.286 56.4937 111.249 56.2967 111.214C53.7505 110.756 51.2711 110.108 48.8783 109.272C48.8022 109.246 48.725 109.222 48.649 109.195C47.4397 108.766 46.2527 108.29 45.089 107.77C45.0151 107.738 44.9416 107.704 44.8679 107.67C42.622 106.655 40.4654 105.476 38.4142 104.149C43.2625 107.29 48.6978 109.601 54.5223 110.873C54.5741 110.885 54.6258 110.896 54.6779 110.907C54.958 110.967 55.2389 111.025 55.5207 111.08C55.6072 111.097 55.6938 111.114 55.7806 111.13C56.045 111.181 56.31 111.23 56.5758 111.276C56.6769 111.294 56.7785 111.31 56.8798 111.327C57.6583 111.457 58.4429 111.568 59.2332 111.661C59.4317 111.684 59.6299 111.708 59.829 111.729C60.0044 111.747 60.1804 111.763 60.3564 111.78C60.5699 111.8 60.7837 111.819 60.998 111.837C61.1657 111.85 61.3337 111.863 61.5019 111.874C61.7308 111.89 61.9601 111.905 62.1898 111.918C62.3464 111.927 62.503 111.936 62.66 111.943C62.917 111.955 63.1747 111.964 63.4327 111.973C63.564 111.977 63.6949 111.982 63.8264 111.985C64.2165 111.994 64.6075 112 65.0001 112C63.7067 112 62.4293 111.935 61.1614 111.836Z" fill="#FF7400"/>
<path d="M36.1506 101.888C36.0885 101.873 36.0268 101.858 35.9648 101.843C36.0268 101.858 36.0885 101.873 36.1506 101.888Z" fill="#FF7400"/>
<path d="M37.4161 102.181C37.4146 102.181 37.4134 102.18 37.412 102.18C37.4134 102.18 37.4149 102.181 37.4161 102.181Z" fill="#FF7400"/>
<path d="M34.7672 101.546L34.7677 101.546L34.7672 101.546Z" fill="#FF7400"/>
<path d="M36.0626 102.526C36.8001 103.067 37.553 103.588 38.3209 104.088C37.5526 103.588 36.8001 103.067 36.0626 102.526Z" fill="#FF7400"/>
<path d="M34.7683 101.547C35.1147 101.819 35.4661 102.085 35.8199 102.348C35.4661 102.085 35.1147 101.819 34.7683 101.547Z" fill="#FF7400"/>
<path d="M45.4188 69.8751C45.5236 65.9065 46.1071 62.0586 47.0999 58.3783C47.1001 58.3775 47.1003 58.3767 47.1005 58.3759C47.0969 58.3754 47.0932 58.3748 47.0897 58.3744C33.9898 56.6686 23.4795 53.1484 18.1258 48.7014C17.8094 49.7404 17.5352 50.7976 17.2865 51.8646C17.2471 52.034 17.2067 52.2029 17.1691 52.3729C16.9276 53.4618 16.7148 54.5612 16.547 55.6758C16.5456 55.6862 16.5446 55.6968 16.5429 55.707C16.3855 56.758 16.2736 57.8236 16.1842 58.8953C16.1624 59.1592 16.1415 59.4234 16.1238 59.6886C16.0503 60.784 16 61.8859 16 63C16 62.1799 16.0511 61.3726 16.0913 60.5627C22.0732 64.8106 32.5653 68.1597 45.4188 69.8751Z" fill="#16A5D9"/>
<path d="M16.2381 67.8122C16.2393 67.8251 16.2397 67.838 16.2412 67.8508C16.2414 67.851 16.2416 67.8512 16.2418 67.8517C16.3628 67.9964 16.4909 68.1401 16.6223 68.2835C16.6573 68.3214 16.6928 68.3592 16.7283 68.3972C16.8441 68.5203 16.9633 68.643 17.0866 68.7649C17.1079 68.7859 17.1283 68.8071 17.1499 68.8284C17.2987 68.9737 17.4535 69.1181 17.6132 69.2616C17.6368 69.2831 17.6616 69.3043 17.6856 69.3255C17.8343 69.4574 17.9868 69.5887 18.1444 69.719C18.1628 69.7343 18.1807 69.7496 18.1995 69.7647C23.4374 74.0644 33.521 77.4842 46.0848 79.2286C45.6491 76.6032 45.4 73.9152 45.4 71.1665C45.4 70.7357 45.4205 70.3098 45.4317 69.8819C45.4317 69.8802 45.4317 69.8786 45.4319 69.877C45.4276 69.8764 45.4233 69.8758 45.419 69.8751C32.5657 68.1597 22.0734 64.8106 16.0915 60.5625C16.0511 61.3724 16 62.1797 16 62.9998C16 63.8196 16.0221 64.634 16.0619 65.4437C16.1017 66.2383 16.1615 67.0276 16.2381 67.8122Z" fill="#149AC9"/>
<path d="M51.9647 46.6667C53.3252 44.3155 54.8798 42.0928 56.5991 40.0101C56.5995 40.0095 56.5999 40.0088 56.6005 40.0084C56.5984 40.0082 56.5962 40.0082 56.5942 40.008C49.9992 39.6285 43.8348 38.811 38.3613 37.645C38.358 37.6444 38.3549 37.6436 38.3517 37.643C38.0632 37.5815 37.7771 37.5186 37.4925 37.4553C37.4294 37.4412 37.3666 37.4272 37.3037 37.4131C37.0385 37.3535 36.7747 37.293 36.5131 37.2316C36.4427 37.215 36.3727 37.1983 36.3024 37.1815C35.5048 36.9927 34.7242 36.7959 33.9602 36.5919C33.8622 36.5658 33.7632 36.5401 33.6658 36.5135C33.4735 36.4614 33.2836 36.4084 33.0936 36.3553C32.9533 36.3163 32.8134 36.2771 32.6744 36.2375C32.5 36.1877 32.3269 36.1374 32.1544 36.0868C31.999 36.0413 31.8447 35.9953 31.6907 35.949C31.5327 35.9016 31.3747 35.8541 31.2183 35.8059C31.0364 35.7499 30.8567 35.693 30.6772 35.636C30.5502 35.5958 30.422 35.5562 30.2965 35.5153C30.0019 35.42 29.7107 35.3236 29.4226 35.226C29.3212 35.1917 29.2219 35.1564 29.1213 35.1219C28.9204 35.0527 28.7201 34.9831 28.5227 34.9126C28.4094 34.8722 28.2975 34.8314 28.1852 34.7905C28 34.7232 27.816 34.6554 27.6339 34.5872C27.5255 34.5466 27.4175 34.5059 27.3103 34.4649C27.1164 34.3908 26.9249 34.3159 26.7346 34.2405C26.646 34.2054 26.5565 34.1707 26.4688 34.1354C26.1927 34.0245 25.9197 33.9126 25.6517 33.7993C25.6494 33.8022 25.6476 33.8052 25.6456 33.8081C25.0541 34.6039 24.4924 35.4226 23.9508 36.2554C23.8726 36.3751 23.7964 36.4962 23.7192 36.6166C23.1904 37.4455 22.68 38.2875 22.1992 39.1481C22.1992 39.1481 22.1984 39.1493 22.198 39.1499C22.2027 39.1524 22.2076 39.1548 22.2123 39.1575C22.4606 39.2914 22.7154 39.4237 22.9738 39.5552C23.0543 39.596 23.1361 39.6366 23.2174 39.6773C23.4126 39.7747 23.6104 39.8714 23.8111 39.9676C23.895 40.0078 23.9783 40.048 24.0631 40.0879C24.336 40.2163 24.6123 40.3435 24.895 40.4692C24.9075 40.4748 24.9201 40.4801 24.9324 40.4858C25.2111 40.6093 25.4957 40.7312 25.7838 40.8521C25.8763 40.8908 25.97 40.9292 26.0633 40.9678C26.2807 41.0574 26.5008 41.1465 26.7233 41.2347C26.8191 41.2726 26.9144 41.3106 27.0112 41.3484C27.3142 41.4664 27.6205 41.5834 27.9326 41.6985C27.9541 41.7065 27.9759 41.7142 27.9973 41.722C28.3005 41.8335 28.6086 41.9431 28.92 42.0517C29.0251 42.0885 29.1315 42.1246 29.2375 42.161C29.4743 42.242 29.7134 42.3225 29.9547 42.4021C30.0631 42.4378 30.1711 42.4737 30.2805 42.5091C30.6072 42.6148 30.9367 42.7196 31.2714 42.8223C31.3097 42.8341 31.3485 42.8455 31.3869 42.8574C31.7077 42.9552 32.0325 43.0515 32.3602 43.1467C32.4792 43.1812 32.5993 43.2153 32.7191 43.2494C32.9708 43.321 33.2246 43.3919 33.4804 43.4621C33.6029 43.4956 33.725 43.5293 33.8484 43.5626C34.1924 43.6551 34.5393 43.7463 34.8902 43.8357C34.9517 43.8515 35.0135 43.8668 35.0752 43.8823C35.407 43.966 35.7422 44.0483 36.0801 44.1293C36.214 44.1614 36.349 44.193 36.4839 44.2247C36.7479 44.2867 37.0138 44.3478 37.2814 44.4082C37.4174 44.4389 37.553 44.4697 37.6898 44.4999C38.0485 44.5791 38.4098 44.6571 38.7745 44.7331C38.8596 44.7508 38.9456 44.7684 39.0309 44.7859C39.3717 44.8562 39.7153 44.925 40.0611 44.9923C40.2092 45.0213 40.3584 45.0495 40.5073 45.0779C40.7804 45.13 41.0552 45.1812 41.3315 45.2314C41.4824 45.259 41.6328 45.2866 41.7845 45.3135C42.1539 45.3792 42.5256 45.4436 42.9003 45.5062C43.0103 45.5246 43.121 45.5426 43.2314 45.5607C43.5787 45.6177 43.9281 45.6734 44.2796 45.728C44.4407 45.7529 44.6028 45.777 44.7645 45.8015C45.0475 45.8439 45.3317 45.8856 45.6173 45.9264C45.7794 45.9495 45.9414 45.973 46.1043 45.9954C46.4879 46.0485 46.8736 46.1002 47.2619 46.1502C47.3879 46.1663 47.5145 46.182 47.6408 46.198C47.9971 46.2427 48.3552 46.2862 48.7154 46.3284C48.8867 46.3484 49.0592 46.3678 49.2313 46.3872C49.5237 46.4203 49.8173 46.4521 50.1119 46.4834C50.284 46.5015 50.4559 46.5199 50.6288 46.5375C51.0269 46.5779 51.4271 46.6169 51.8293 46.6543C51.8746 46.6579 51.9194 46.6624 51.9647 46.6667Z" fill="#85CFE9"/>
<path d="M67.179 111.907C64.1482 109.878 61.3681 107.508 58.8662 104.872C58.8615 104.867 58.8564 104.862 58.8517 104.857C58.8431 104.857 58.8348 104.856 58.8264 104.856C51.0037 104.527 43.726 103.591 37.4164 102.18C37.415 102.18 37.4138 102.18 37.4124 102.18C36.9873 102.085 36.5673 101.987 36.151 101.888C36.089 101.873 36.0273 101.858 35.9652 101.843C35.5622 101.746 35.1624 101.647 34.7682 101.546C34.768 101.546 34.7676 101.546 34.7674 101.546C34.7678 101.546 34.7682 101.547 34.7686 101.547C35.1151 101.819 35.4665 102.085 35.8203 102.348C35.9009 102.408 35.9818 102.467 36.0628 102.527C36.8005 103.067 37.553 103.589 38.3211 104.088C38.3523 104.108 38.3834 104.129 38.4146 104.149C40.4661 105.476 42.6225 106.655 44.8683 107.671C44.942 107.704 45.0153 107.738 45.0894 107.771C46.253 108.29 47.44 108.766 48.6495 109.195C48.7254 109.222 48.8026 109.246 48.8788 109.272C51.2718 110.108 53.7512 110.756 56.2972 111.214C56.4942 111.249 56.6906 111.286 56.8886 111.32C58.084 111.519 59.2941 111.676 60.5173 111.787C60.7313 111.807 60.9469 111.82 61.1618 111.836C62.4293 111.934 63.7068 112 65.0002 112C65.7344 112 66.4528 111.939 67.179 111.907Z" fill="#149AC9"/>
<path d="M50.3 98.9333C50.4021 96.5854 49.0071 95.1903 47.0334 94.0333C44.5409 92.5723 40.1938 91.5833 40.5 94.0333C40.8063 96.4833 50.198 101.281 50.3 98.9333Z" fill="#85CFE9"/>
<path d="M67.45 59.7335C68.8031 59.7335 69.9 59.0022 69.9 58.1001C69.9 57.1981 68.8031 56.4668 67.45 56.4668C66.0969 56.4668 65 57.1981 65 58.1001C65 59.0022 66.0969 59.7335 67.45 59.7335Z" fill="#33B9E9"/>
<path d="M114.539 110.886H108.088L105.937 108.735V102.284C105.937 101.097 104.974 100.133 103.786 100.133C102.599 100.133 101.636 101.097 101.636 102.284V108.735L99.4853 110.886H93.0336C91.8464 110.886 90.883 111.849 90.883 113.036C90.883 114.224 91.8464 115.187 93.0336 115.187H99.4853L101.636 117.338V123.789C101.636 124.976 102.599 125.94 103.786 125.94C104.974 125.94 105.937 124.976 105.937 123.789V117.338L108.088 115.187H114.539C115.726 115.187 116.69 114.224 116.69 113.036C116.69 111.849 115.726 110.886 114.539 110.886Z" fill="#F3D55B"/>
<path d="M11.3118 11.9594C12.4995 11.9594 13.4623 10.9965 13.4623 9.80878C13.4623 8.62105 12.4995 7.6582 11.3118 7.6582C10.124 7.6582 9.16118 8.62105 9.16118 9.80878C9.16118 10.9965 10.124 11.9594 11.3118 11.9594Z" fill="#F3D55B"/>
<path d="M17.7635 121.639C18.9512 121.639 19.914 120.676 19.914 119.488C19.914 118.3 18.9512 117.338 17.7635 117.338C16.5757 117.338 15.6129 118.3 15.6129 119.488C15.6129 120.676 16.5757 121.639 17.7635 121.639Z" fill="#F3D55B"/>
<path d="M7.0106 106.585C8.19833 106.585 9.16118 105.622 9.16118 104.434C9.16118 103.246 8.19833 102.283 7.0106 102.283C5.82288 102.283 4.86003 103.246 4.86003 104.434C4.86003 105.622 5.82288 106.585 7.0106 106.585Z" fill="#ECF0F1"/>
<path d="M30.6669 5.50769C31.8546 5.50769 32.8175 4.54485 32.8175 3.35712C32.8175 2.16939 31.8546 1.20654 30.6669 1.20654C29.4792 1.20654 28.5163 2.16939 28.5163 3.35712C28.5163 4.54485 29.4792 5.50769 30.6669 5.50769Z" fill="#F3D55B"/>
<path d="M116.69 11.9594C117.878 11.9594 118.84 10.9965 118.84 9.80878C118.84 8.62105 117.878 7.6582 116.69 7.6582C115.502 7.6582 114.539 8.62105 114.539 9.80878C114.539 10.9965 115.502 11.9594 116.69 11.9594Z" fill="#F3D55B"/>
<path d="M120.991 115.191C122.179 115.191 123.142 114.228 123.142 113.041C123.142 111.853 122.179 110.89 120.991 110.89C119.803 110.89 118.84 111.853 118.84 113.041C118.84 114.228 119.803 115.191 120.991 115.191Z" fill="#F3D55B"/>
<path d="M96.2594 88.036C97.4471 88.036 98.41 87.0732 98.41 85.8854C98.41 84.6977 97.4471 83.7349 96.2594 83.7349C95.0717 83.7349 94.1088 84.6977 94.1088 85.8854C94.1088 87.0732 95.0717 88.036 96.2594 88.036Z" fill="#85CFE9"/>
<path d="M30.6669 58.7345C31.8546 58.7345 32.8175 57.7717 32.8175 56.5839C32.8175 55.3962 31.8546 54.4333 30.6669 54.4333C29.4792 54.4333 28.5163 55.3962 28.5163 56.5839C28.5163 57.7717 29.4792 58.7345 30.6669 58.7345Z" fill="#85CFE9"/>
<path d="M64.0566 113.019C60.2436 121.74 57.2435 123.856 56.05 123.688C54.6564 123.503 51.7058 119.611 50.5252 106.219C49.4778 94.3458 50.1015 78.7993 52.2822 62.4377C57.1382 26.0091 67.1555 3.74209 71.9621 4.312C73.0782 4.46039 75.289 7.01957 76.7041 15.4971C78.1643 15.8477 79.5945 16.267 80.9945 16.7423C81.0999 16.4283 81.1579 16.095 81.1042 15.7423C79.5773 5.74858 76.7729 0.615159 72.5298 0.0495583C60.7941 -1.50101 51.4434 36.1641 48.0176 61.8699C45.796 78.5369 45.1659 94.421 46.2391 106.598C47.4305 120.11 50.5402 127.295 55.4801 127.953C55.7317 127.987 55.9812 128.002 56.2306 128.002C60.3533 128.002 64.3103 123.426 68.2975 114.056C68.4566 113.682 68.4652 113.297 68.4136 112.922C66.9727 113.015 65.5211 113.049 64.0566 113.019Z" fill="#ECF0F1"/>
</g>
<defs>
<clipPath id="clip0">
<rect width="128" height="128" fill="white"/>
</clipPath>
</defs>
</svg>
