<svg width="141" height="72" viewBox="0 0 141 72" fill="none" xmlns="http://www.w3.org/2000/svg">
<g clip-path="url(#clip0)">
<path d="M13.4496 3.27271H5.34837C4.58102 3.27271 3.8451 3.57859 3.3025 4.12308C2.75991 4.66756 2.45508 5.40604 2.45508 6.17606L2.45508 45.6617C2.45508 46.4317 2.75991 47.1702 3.3025 47.7147C3.8451 48.2592 4.58102 48.5651 5.34837 48.5651H12.8709V55.5331H2.45508V59.0172H13.4496C14.2169 59.0172 14.9528 58.7113 15.4954 58.1668C16.038 57.6223 16.3429 56.8838 16.3429 56.1138V6.17606C16.3429 5.40604 16.038 4.66756 15.4954 4.12308C14.9528 3.57859 14.2169 3.27271 13.4496 3.27271V3.27271ZM12.8709 45.0811H5.92703V6.75673H12.8709V45.0811Z" fill="#262424"/>
<path d="M37.7523 3.27271H29.6511C28.8838 3.27271 28.1478 3.57859 27.6052 4.12308C27.0626 4.66756 26.7578 5.40604 26.7578 6.17606V56.1138C26.7578 56.8838 27.0626 57.6223 27.6052 58.1668C28.1478 58.7113 28.8838 59.0172 29.6511 59.0172H37.7523C38.5197 59.0172 39.2556 58.7113 39.7982 58.1668C40.3408 57.6223 40.6456 56.8838 40.6456 56.1138V6.17606C40.6456 5.40604 40.3408 4.66756 39.7982 4.12308C39.2556 3.57859 38.5197 3.27271 37.7523 3.27271V3.27271ZM37.1736 55.5331H30.2298V6.75673H37.1736V55.5331Z" fill="#262424"/>
<path d="M62.057 20.6929H54.5345V3.27271H51.0625V59.0172H54.5345V24.1769H61.4784V59.0172H64.9503V24.1769V23.5962C64.9503 22.8262 64.6455 22.0877 64.1029 21.5432C63.5603 20.9987 62.8244 20.6929 62.057 20.6929Z" fill="#262424"/>
<path d="M86.3617 3.27271H75.3672V6.75673H85.7831V20.6929H78.2605C77.4931 20.6929 76.7572 20.9987 76.2146 21.5432C75.672 22.0877 75.3672 22.8262 75.3672 23.5962V24.1769V56.1138C75.3672 56.8838 75.672 57.6223 76.2146 58.1668C76.7572 58.7113 77.4931 59.0172 78.2605 59.0172H89.2551V6.17606C89.2551 5.40604 88.9502 4.66756 88.4076 4.12308C87.865 3.57859 87.1291 3.27271 86.3617 3.27271V3.27271ZM85.7831 55.5331H78.8392V24.1769H85.7831V55.5331Z" fill="#262424"/>
<path d="M102.563 3.27271H113.558V6.75673H103.142V59.0172H99.6699V6.17606C99.6699 5.40604 99.9748 4.66756 100.517 4.12308C101.06 3.57859 101.796 3.27271 102.563 3.27271V3.27271Z" fill="#262424"/>
<path d="M134.967 3.27271H134.389V55.5331H127.445V3.27271H123.973V59.0172H134.967C135.735 59.0172 136.47 58.7113 137.013 58.1668C137.556 57.6223 137.86 56.8838 137.86 56.1138V3.27271H134.967Z" fill="#262424"/>
<path d="M4.15444 64.611C4.39062 64.6075 4.62451 64.6579 4.83839 64.7585C5.05227 64.8591 5.24053 65.0073 5.38891 65.1917C5.68106 65.5422 5.83903 65.9859 5.83443 66.4428C5.82983 66.8998 5.66297 67.3401 5.36383 67.6847C5.21461 67.8588 5.02868 67.9973 4.81951 68.0904C4.61034 68.1835 4.38317 68.2287 4.15444 68.2228C3.92506 68.2293 3.69713 68.1843 3.48725 68.0912C3.27737 67.9982 3.09082 67.8593 2.94118 67.6847C2.64219 67.3404 2.4754 66.9004 2.4708 66.4438C2.4662 65.9872 2.6241 65.5439 2.91611 65.1936C3.06488 65.0085 3.25372 64.8599 3.46828 64.7589C3.68284 64.658 3.91749 64.6074 4.15444 64.611ZM4.15444 65.0427C3.98575 65.0419 3.81891 65.0778 3.6654 65.148C3.51189 65.2182 3.37536 65.3209 3.26523 65.4491C3.01932 65.7164 2.88593 66.0687 2.89296 66.4324C2.89193 66.6745 2.95022 66.9131 3.0627 67.1273C3.16752 67.3316 3.32634 67.503 3.52177 67.6228C3.71244 67.7387 3.93152 67.799 4.15444 67.797C4.37736 67.799 4.59644 67.7387 4.7871 67.6228C4.98253 67.503 5.14135 67.3316 5.24617 67.1273C5.35865 66.9131 5.41694 66.6745 5.41591 66.4324C5.42324 66.0683 5.28903 65.7156 5.04171 65.4491C4.932 65.3204 4.79556 65.2173 4.64196 65.1471C4.48835 65.0769 4.3213 65.0412 4.15251 65.0427H4.15444Z" fill="#262424"/>
<path d="M8.28125 64.6995H8.69596V65.3131C8.83944 65.0994 9.02771 64.9197 9.24761 64.7867C9.44693 64.6693 9.67426 64.6084 9.90535 64.6105C10.1343 64.6066 10.3588 64.6742 10.5477 64.8041C10.7338 64.9351 10.8774 65.1182 10.9604 65.3305C11.0654 65.6638 11.1104 66.0131 11.0935 66.3622V68.1255H10.6788V66.49C10.688 66.2258 10.6725 65.9615 10.6325 65.7002C10.6021 65.5044 10.507 65.3244 10.3625 65.1893C10.2091 65.0683 10.0173 65.0071 9.82241 65.017C9.57212 65.0169 9.33102 65.1116 9.14731 65.2822C8.95373 65.4552 8.81886 65.6846 8.76154 65.9383C8.71093 66.2466 8.6909 66.5591 8.70174 66.8713V68.1274H8.28125V64.6995Z" fill="#262424"/>
<path d="M13.6016 63.3755H14.0163V68.1273H13.6016V63.3755Z" fill="#262424"/>
<path d="M16.7046 63.2871C16.7501 63.2869 16.7952 63.2965 16.8368 63.3152C16.8784 63.3339 16.9155 63.3613 16.9457 63.3955C17.0101 63.4653 17.0459 63.5569 17.0459 63.652C17.0459 63.7471 17.0101 63.8387 16.9457 63.9084C16.9155 63.9427 16.8784 63.9701 16.8368 63.9887C16.7952 64.0074 16.7501 64.017 16.7046 64.0168C16.6593 64.017 16.6145 64.0074 16.5733 63.9887C16.532 63.97 16.4952 63.9426 16.4654 63.9084C16.401 63.8387 16.3652 63.7471 16.3652 63.652C16.3652 63.5569 16.401 63.4653 16.4654 63.3955C16.4952 63.3613 16.532 63.3339 16.5733 63.3152C16.6145 63.2965 16.6593 63.287 16.7046 63.2871ZM16.4982 64.7001H16.9225V68.128H16.4982V64.7001Z" fill="#262424"/>
<path d="M19.4551 64.6995H19.8698V65.3131C20.0133 65.0994 20.2015 64.9197 20.4214 64.7867C20.6208 64.6693 20.8481 64.6084 21.0792 64.6105C21.3081 64.6066 21.5326 64.6742 21.7215 64.8041C21.9076 64.9351 22.0512 65.1182 22.1343 65.3305C22.2392 65.6638 22.2843 66.0131 22.2674 66.3622V68.1255H21.8527V66.49C21.8618 66.2258 21.8463 65.9615 21.8064 65.7002C21.7748 65.5029 21.6776 65.3221 21.5305 65.1873C21.3787 65.0677 21.1891 65.0066 20.9962 65.015C20.746 65.0149 20.5048 65.1096 20.3211 65.2802C20.1283 65.4538 19.9935 65.683 19.9354 65.9364C19.8848 66.2446 19.8647 66.5571 19.8756 66.8693V68.1255H19.4551V64.6995Z" fill="#262424"/>
<path d="M27.5518 66.9916L27.9029 67.1852C27.8047 67.4002 27.6702 67.5967 27.5055 67.7659C27.3595 67.9098 27.1873 68.0241 26.9982 68.1027C26.7946 68.1812 26.5779 68.22 26.3598 68.2168C26.1256 68.2281 25.892 68.1842 25.6776 68.0888C25.4633 67.9934 25.2741 67.849 25.1253 67.6671C24.8369 67.3179 24.6799 66.8781 24.6817 66.4245C24.6795 66.0054 24.8151 65.5972 25.0674 65.2632C25.2101 65.0568 25.4017 64.8893 25.6249 64.7758C25.8482 64.6623 26.0961 64.6062 26.3463 64.6128C26.6035 64.6064 26.8584 64.6637 27.0882 64.7799C27.318 64.8961 27.5157 65.0674 27.6637 65.2787C27.9055 65.6207 28.0301 66.0324 28.0186 66.4516H25.1253C25.1192 66.8115 25.2472 67.1607 25.4841 67.431C25.5905 67.5543 25.7224 67.6529 25.8706 67.7197C26.0189 67.7866 26.1799 67.8202 26.3424 67.8181C26.5061 67.8179 26.6683 67.7871 26.8208 67.7272C26.9669 67.6729 27.1012 67.5907 27.2162 67.4852C27.352 67.3384 27.4651 67.1721 27.5518 66.9916ZM27.5518 66.0684C27.5117 65.8651 27.4295 65.6726 27.3107 65.5032C27.1993 65.3579 27.0552 65.2412 26.8902 65.1625C26.72 65.0776 26.5325 65.0332 26.3424 65.0328C26.1918 65.0304 26.0421 65.0579 25.9021 65.1138C25.7621 65.1696 25.6345 65.2526 25.5265 65.358C25.3362 65.5554 25.2029 65.8009 25.1407 66.0684H27.5518Z" fill="#262424"/>
<path d="M35.3457 64.7H35.7701V65.211C35.8736 65.0389 36.0091 64.8884 36.1693 64.7677C36.2974 64.6746 36.451 64.6232 36.6091 64.6206C36.7398 64.6253 36.8666 64.6662 36.9756 64.7387L36.7596 65.1103C36.6914 65.0748 36.6164 65.0544 36.5397 65.0503C36.3882 65.0555 36.2449 65.1202 36.1404 65.2303C35.9928 65.3874 35.8913 65.5823 35.8472 65.7936C35.7801 66.1846 35.7543 66.5816 35.7701 66.9781V68.1395H35.3457V64.7Z" fill="#262424"/>
<path d="M40.5334 64.611C40.7698 64.6075 41.004 64.6579 41.2182 64.7585C41.4324 64.8591 41.621 65.0072 41.7698 65.1917C42.0609 65.5428 42.2181 65.9864 42.2131 66.4432C42.2082 66.8999 42.0415 67.34 41.7428 67.6847C41.5896 67.8542 41.4028 67.9897 41.1944 68.0824C40.9859 68.1751 40.7604 68.223 40.5324 68.223C40.3044 68.223 40.0789 68.1751 39.8705 68.0824C39.662 67.9897 39.4752 67.8542 39.322 67.6847C39.0231 67.3404 38.8563 66.9004 38.8517 66.4438C38.8471 65.9872 39.005 65.5439 39.297 65.1936C39.4455 65.0087 39.634 64.8601 39.8482 64.7592C40.0624 64.6582 40.2967 64.6075 40.5334 64.611ZM40.5334 65.0426C40.3646 65.0412 40.1975 65.0769 40.0439 65.1471C39.8903 65.2173 39.7539 65.3204 39.6442 65.4491C39.3976 65.7159 39.264 66.0686 39.2719 66.4324C39.2699 66.6746 39.3282 66.9134 39.4416 67.1272C39.5452 67.3318 39.7035 67.5034 39.8988 67.6227C40.0906 67.7367 40.3095 67.7968 40.5324 67.7968C40.7554 67.7968 40.9742 67.7367 41.166 67.6227C41.3613 67.5034 41.5196 67.3318 41.6232 67.1272C41.7366 66.9134 41.7949 66.6746 41.7929 66.4324C41.8008 66.0686 41.6673 65.7159 41.4207 65.4491C41.3107 65.3212 41.1744 65.2187 41.0213 65.1486C40.8681 65.0784 40.7017 65.0423 40.5334 65.0426Z" fill="#262424"/>
<path d="M44.5996 63.3755H45.0143V68.1273H44.5996V63.3755Z" fill="#262424"/>
<path d="M50.2706 66.9911L50.6198 67.1847C50.5222 67.4001 50.3878 67.5967 50.2224 67.7654C50.0768 67.9097 49.9045 68.0241 49.7151 68.1022C49.5115 68.1809 49.2948 68.2196 49.0767 68.2164C48.8428 68.2275 48.6095 68.1835 48.3955 68.0881C48.1815 67.9927 47.9927 67.8483 47.8441 67.6667C47.5683 67.3301 47.4118 66.9112 47.3993 66.4756C47.3867 66.0401 47.5188 65.6127 47.7747 65.2607C47.9174 65.0544 48.1089 64.8869 48.3322 64.7733C48.5554 64.6598 48.8033 64.6038 49.0535 64.6104C49.3108 64.6037 49.5657 64.6611 49.7956 64.7772C50.0254 64.8934 50.2231 65.0648 50.3709 65.2762C50.6128 65.6183 50.7373 66.0299 50.7258 66.4492H47.8326C47.8265 66.8091 47.9544 67.1583 48.1913 67.4286C48.2979 67.5517 48.4298 67.6501 48.578 67.7169C48.7263 67.7838 48.8872 67.8175 49.0497 67.8157C49.21 67.8149 49.3689 67.7848 49.5184 67.7267C49.6649 67.6719 49.7997 67.5898 49.9157 67.4847C50.0571 67.3382 50.1767 67.172 50.2706 66.9911ZM50.2706 66.0679C50.2291 65.8648 50.1463 65.6724 50.0276 65.5027C49.9171 65.3574 49.7736 65.2406 49.609 65.162C49.4382 65.0769 49.2501 65.0325 49.0593 65.0323C48.9087 65.0299 48.7591 65.0574 48.619 65.1132C48.479 65.1691 48.3514 65.2521 48.2434 65.3575C48.0558 65.5555 47.9258 65.8011 47.8673 66.0679H50.2706Z" fill="#262424"/>
<path d="M53.1836 64.7H53.5983V65.331C53.7423 65.1094 53.9358 64.9244 54.1635 64.791C54.3816 64.6696 54.6277 64.6075 54.8771 64.611C55.0991 64.6088 55.319 64.6547 55.5218 64.7455C55.7245 64.8364 55.9053 64.9701 56.0518 65.1375C56.3737 65.4796 56.5489 65.9348 56.5398 66.4053C56.5513 66.88 56.3776 67.3405 56.0557 67.6885C55.9108 67.8561 55.7315 67.9901 55.53 68.0813C55.3285 68.1726 55.1097 68.2188 54.8887 68.217C54.6423 68.2197 54.3992 68.1611 54.1808 68.0466C53.9543 67.9207 53.757 67.7478 53.6022 67.5395V69.3822H53.1836V64.7ZM54.8424 65.0368C54.6714 65.034 54.5019 65.0683 54.3454 65.1375C54.1889 65.2066 54.0492 65.309 53.9358 65.4375C53.6885 65.7082 53.5563 66.0652 53.5674 66.4324C53.5642 66.6758 53.6205 66.9164 53.7314 67.133C53.8387 67.3393 54.0018 67.5111 54.202 67.6285C54.3968 67.7473 54.6203 67.8103 54.8482 67.8105C55.0709 67.8102 55.289 67.7465 55.477 67.6266C55.6753 67.499 55.8369 67.3215 55.9457 67.1117C56.0597 66.8987 56.1193 66.6606 56.1193 66.4188C56.1193 66.177 56.0597 65.9389 55.9457 65.7259C55.8397 65.5175 55.6789 65.3422 55.4809 65.2187C55.2909 65.0988 55.0707 65.0357 54.8463 65.0368H54.8424Z" fill="#262424"/>
<path d="M58.9414 63.3755H59.358V68.1273H58.9433L58.9414 63.3755Z" fill="#262424"/>
<path d="M65.1068 64.7001V68.128H64.6979V67.5473C64.5434 67.7559 64.3461 67.9288 64.1192 68.0544C63.9002 68.1689 63.6564 68.2274 63.4094 68.2247C63.1881 68.2268 62.969 68.1806 62.7672 68.0894C62.5653 67.9981 62.3857 67.864 62.2405 67.6963C61.9186 67.3483 61.7449 66.8878 61.7564 66.4131C61.7473 65.9426 61.9225 65.4874 62.2444 65.1453C62.3916 64.9782 62.5728 64.8448 62.7758 64.754C62.9788 64.6632 63.1988 64.6171 63.421 64.6188C63.6723 64.6153 63.9202 64.6773 64.1405 64.7988C64.3679 64.9318 64.5609 65.1168 64.7037 65.3388V64.7078L65.1068 64.7001ZM63.4499 65.0369C63.2236 65.0353 63.0015 65.0984 62.8096 65.2188C62.612 65.3428 62.4514 65.518 62.3447 65.7259C62.2307 65.939 62.1711 66.177 62.1711 66.4189C62.1711 66.6607 62.2307 66.8987 62.3447 67.1118C62.4533 67.3223 62.6157 67.5 62.8153 67.6267C63.0039 67.7468 63.2227 67.8106 63.4461 67.8105C63.6755 67.8091 63.9003 67.7454 64.0966 67.6261C64.2929 67.5068 64.4534 67.3365 64.561 67.1331C64.6727 66.9168 64.7291 66.676 64.7249 66.4324C64.7368 66.0651 64.6045 65.7079 64.3565 65.4375C64.2432 65.309 64.1035 65.2067 63.947 65.1375C63.7905 65.0684 63.6209 65.034 63.4499 65.0369Z" fill="#262424"/>
<path d="M67.377 64.7002H67.8148L68.9239 67.3403L69.9983 64.7002H70.44L68.5111 69.3823H68.0733L68.6944 67.8687L67.377 64.7002Z" fill="#262424"/>
<path d="M72.8003 63.2871C72.8459 63.2867 72.891 63.2961 72.9327 63.3149C72.9743 63.3336 73.0114 63.3611 73.0414 63.3955C73.1058 63.4653 73.1416 63.5569 73.1416 63.652C73.1416 63.7471 73.1058 63.8387 73.0414 63.9084C73.0114 63.9426 72.9744 63.97 72.933 63.9888C72.8916 64.0075 72.8467 64.0172 72.8013 64.0172C72.7558 64.0172 72.7109 64.0075 72.6695 63.9888C72.6281 63.97 72.5912 63.9426 72.5611 63.9084C72.4967 63.8387 72.4609 63.7471 72.4609 63.652C72.4609 63.5569 72.4967 63.4653 72.5611 63.3955C72.591 63.3614 72.6278 63.3341 72.669 63.3154C72.7103 63.2967 72.755 63.2871 72.8003 63.2871ZM72.5939 64.7001H73.0086V68.128H72.5939V64.7001Z" fill="#262424"/>
<path d="M75.5605 64.7H75.9752V65.3136C76.1186 65.1004 76.3061 64.9209 76.525 64.7871C76.7251 64.67 76.953 64.6092 77.1846 64.611C77.4129 64.6073 77.6367 64.675 77.825 64.8045C78.0112 64.9355 78.1547 65.1186 78.2378 65.331C78.3443 65.6639 78.3901 66.0134 78.3728 66.3627V68.126H77.9523V66.4904C77.9615 66.2263 77.946 65.9619 77.906 65.7007C77.8746 65.5029 77.7765 65.3219 77.6283 65.1878C77.4789 65.0706 77.2931 65.0102 77.1036 65.0174C76.8533 65.0173 76.6122 65.112 76.4285 65.2826C76.2352 65.4558 76.1003 65.6852 76.0428 65.9388C75.9941 66.2472 75.9747 66.5596 75.9849 66.8717V68.1279H75.5605V64.7Z" fill="#262424"/>
<path d="M83.7131 64.6999H84.1278V67.4329C84.1433 67.7887 84.103 68.1446 84.0082 68.4878C83.9105 68.7893 83.7105 69.0468 83.4431 69.2156C83.1525 69.3913 82.8178 69.48 82.4787 69.4711C82.2251 69.4743 81.973 69.4323 81.7341 69.3472C81.5325 69.2755 81.3488 69.1606 81.196 69.0104C81.0319 68.8306 80.9013 68.6228 80.8102 68.3968H81.2615C81.3675 68.6073 81.5324 68.7822 81.736 68.9001C81.9581 69.017 82.2068 69.0737 82.4574 69.0646C82.7066 69.0726 82.9534 69.0145 83.173 68.8962C83.3515 68.8014 83.4969 68.6542 83.5897 68.4742C83.6887 68.2126 83.7314 67.9329 83.7151 67.6536V67.4755C83.5663 67.6785 83.3719 67.8433 83.1477 67.9567C82.9234 68.07 82.6757 68.1286 82.4246 68.1278C82.1294 68.1287 81.8397 68.0476 81.5875 67.8936C81.3323 67.7423 81.123 67.5242 80.9818 67.2626C80.8389 66.9942 80.7659 66.6939 80.7697 66.3896C80.7675 66.0794 80.8438 65.7738 80.9915 65.5012C81.135 65.2332 81.3475 65.0086 81.6068 64.8509C81.8557 64.6953 82.1429 64.6121 82.4362 64.6109C82.6708 64.6096 82.9023 64.6647 83.1113 64.7715C83.3477 64.9009 83.5536 65.0798 83.7151 65.2961L83.7131 64.6999ZM82.4883 65.0367C82.2562 65.0373 82.0286 65.1012 81.8298 65.2215C81.6311 65.3418 81.4686 65.5141 81.3599 65.7199C81.2451 65.9319 81.186 66.1697 81.1882 66.4109C81.1822 66.5813 81.21 66.7511 81.2699 66.9106C81.3299 67.0701 81.4208 67.2161 81.5374 67.34C81.657 67.4625 81.8008 67.5584 81.9596 67.6218C82.1184 67.6851 82.2886 67.7144 82.4594 67.7078C82.6296 67.7156 82.7996 67.6872 82.9582 67.6245C83.1167 67.5618 83.2603 67.4662 83.3794 67.3439C83.4981 67.2135 83.5899 67.0609 83.6494 66.8948C83.709 66.7287 83.7353 66.5524 83.7266 66.3761C83.7312 66.1362 83.6769 65.8989 83.5685 65.6851C83.4639 65.4869 83.3076 65.321 83.1163 65.2051C82.9251 65.0892 82.706 65.0276 82.4825 65.027L82.4883 65.0367Z" fill="#262424"/>
<path d="M94.8693 65.4045L94.5394 65.6212C94.4129 65.431 94.2403 65.2761 94.038 65.1708C93.8356 65.0656 93.61 65.0134 93.3821 65.0193C93.2002 65.0145 93.0193 65.0479 92.8509 65.1172C92.6825 65.1865 92.5304 65.2903 92.4042 65.4219C92.278 65.551 92.1788 65.7042 92.1126 65.8724C92.0463 66.0406 92.0143 66.2205 92.0184 66.4013C92.0174 66.6476 92.0792 66.8902 92.1978 67.1058C92.3109 67.32 92.4812 67.4983 92.6897 67.6207C92.9025 67.7435 93.1444 67.8063 93.3898 67.8026C93.6171 67.805 93.8415 67.7513 94.0433 67.6464C94.245 67.5414 94.4181 67.3884 94.5472 67.2007L94.877 67.431C94.7258 67.6771 94.5112 67.8777 94.2559 68.0117C93.9801 68.1473 93.6756 68.2137 93.3686 68.2052C93.1329 68.2122 92.8983 68.1698 92.6798 68.0808C92.4613 67.9919 92.2637 67.8582 92.0994 67.6884C91.936 67.5231 91.8072 67.3266 91.7207 67.1105C91.6342 66.8944 91.5918 66.6631 91.596 66.4303C91.5945 66.1068 91.6755 65.7883 91.8313 65.5051C91.9817 65.2272 92.2061 64.9967 92.4794 64.8393C92.7599 64.6781 93.0782 64.5952 93.4014 64.5993C93.6116 64.5989 93.8203 64.6342 94.0187 64.7038C94.201 64.7651 94.3718 64.8567 94.524 64.9748C94.6649 65.095 94.782 65.2408 94.8693 65.4045Z" fill="#262424"/>
<path d="M98.8716 64.611C99.1081 64.6075 99.3423 64.6579 99.5565 64.7585C99.7707 64.8591 99.9593 65.0072 100.108 65.1917C100.399 65.5428 100.556 65.9864 100.551 66.4432C100.546 66.8999 100.38 67.34 100.081 67.6847C99.9279 67.8542 99.7411 67.9897 99.5326 68.0824C99.3242 68.1751 99.0987 68.223 98.8707 68.223C98.6427 68.223 98.4172 68.1751 98.2087 68.0824C98.0003 67.9897 97.8135 67.8542 97.6603 67.6847C97.3614 67.3405 97.1945 66.9007 97.1896 66.4441C97.1846 65.9876 97.3419 65.5443 97.6333 65.1936C97.7823 65.0087 97.9711 64.8602 98.1857 64.7593C98.4002 64.6584 98.6347 64.6077 98.8716 64.611ZM98.8716 65.0426C98.7032 65.0415 98.5365 65.0773 98.3832 65.1475C98.23 65.2177 98.0939 65.3206 97.9844 65.4491C97.7377 65.7159 97.6042 66.0686 97.6121 66.4324C97.6101 66.6746 97.6684 66.9134 97.7818 67.1272C97.8854 67.3318 98.0437 67.5034 98.239 67.6227C98.4308 67.7367 98.6497 67.7968 98.8726 67.7968C99.0955 67.7968 99.3144 67.7367 99.5062 67.6227C99.7015 67.5034 99.8598 67.3318 99.9634 67.1272C100.077 66.9134 100.135 66.6746 100.133 66.4324C100.141 66.0686 100.007 65.7159 99.7608 65.4491C99.6503 65.3209 99.5134 65.2181 99.3596 65.1479C99.2058 65.0778 99.0387 65.0419 98.8697 65.0426H98.8716Z" fill="#262424"/>
<path d="M102.996 64.6999H103.411V65.2922C103.526 65.1047 103.678 64.9422 103.856 64.8141C104.052 64.6826 104.282 64.6119 104.518 64.6109C104.671 64.6102 104.823 64.6439 104.962 64.7096C105.095 64.7681 105.213 64.8568 105.307 64.969C105.411 65.1084 105.49 65.2658 105.538 65.4335C105.656 65.1886 105.834 64.978 106.055 64.8218C106.251 64.6837 106.485 64.61 106.725 64.6109C106.931 64.6092 107.134 64.6721 107.303 64.7909C107.48 64.9144 107.615 65.0894 107.689 65.2922C107.787 65.605 107.829 65.9325 107.814 66.26V68.1317H107.39V66.2561C107.402 66.0016 107.378 65.7466 107.317 65.4993C107.269 65.3647 107.181 65.2484 107.064 65.1664C106.938 65.08 106.788 65.0359 106.636 65.0406C106.436 65.0413 106.242 65.1095 106.086 65.2341C105.918 65.363 105.791 65.5387 105.722 65.7393C105.628 66.082 105.589 66.4374 105.606 66.7923V68.1336H105.191V66.3722C105.204 66.0896 105.179 65.8064 105.118 65.5303C105.073 65.3849 104.982 65.2583 104.859 65.1698C104.735 65.0813 104.587 65.0359 104.435 65.0406C104.24 65.0411 104.051 65.1057 103.897 65.2245C103.729 65.3508 103.6 65.5227 103.526 65.72C103.433 66.0296 103.393 66.3529 103.407 66.6761V68.1278H102.992L102.996 64.6999Z" fill="#262424"/>
<path d="M110.369 64.7H110.784V65.2923C110.899 65.1048 111.051 64.9423 111.229 64.8142C111.425 64.6829 111.655 64.6123 111.891 64.611C112.045 64.6105 112.197 64.6442 112.337 64.7097C112.47 64.7682 112.587 64.857 112.68 64.9691C112.786 65.1076 112.865 65.2653 112.911 65.4336C113.029 65.1885 113.208 64.9779 113.43 64.8219C113.626 64.6842 113.859 64.6105 114.098 64.611C114.308 64.6075 114.515 64.6705 114.688 64.791C114.864 64.915 114.999 65.0898 115.074 65.2923C115.17 65.6053 115.212 65.9327 115.197 66.2601V68.1318H114.773V66.2562C114.786 66.0017 114.761 65.7466 114.699 65.4994C114.653 65.3641 114.564 65.2474 114.447 65.1665C114.322 65.0801 114.172 65.036 114.021 65.0407C113.82 65.0417 113.626 65.1098 113.469 65.2342C113.301 65.3636 113.174 65.5391 113.104 65.7394C113.011 66.0821 112.972 66.4374 112.989 66.7924V68.1337H112.574V66.3723C112.587 66.0898 112.563 65.8066 112.502 65.5304C112.458 65.3871 112.369 65.2622 112.248 65.1742C112.124 65.0837 111.973 65.0367 111.82 65.0407C111.625 65.0406 111.436 65.1053 111.282 65.2245C111.112 65.3498 110.984 65.5221 110.911 65.7201C110.816 66.0293 110.775 66.3528 110.79 66.6762V68.1279H110.375L110.369 64.7Z" fill="#262424"/>
<path d="M117.691 64.7002H118.105V66.3009C118.095 66.5714 118.115 66.8422 118.165 67.108C118.217 67.3084 118.337 67.4843 118.505 67.6055C118.679 67.7302 118.889 67.7947 119.103 67.7894C119.31 67.7939 119.512 67.7314 119.681 67.6113C119.841 67.496 119.958 67.3315 120.015 67.1429C120.07 66.8659 120.092 66.5831 120.079 66.3009V64.7002H120.501V66.3822C120.518 66.745 120.466 67.1077 120.347 67.4506C120.25 67.6813 120.087 67.8776 119.878 68.0139C119.638 68.1473 119.368 68.2172 119.093 68.2172C118.818 68.2172 118.548 68.1473 118.308 68.0139C118.097 67.8773 117.932 67.6795 117.835 67.4468C117.716 67.0946 117.663 66.7229 117.681 66.3512L117.691 64.7002Z" fill="#262424"/>
<path d="M123.113 64.6995H123.528V65.3131C123.672 65.0999 123.86 64.9203 124.08 64.7867C124.279 64.6696 124.506 64.6087 124.737 64.6105C124.966 64.6066 125.191 64.6742 125.38 64.8041C125.566 64.9351 125.709 65.1182 125.792 65.3305C125.897 65.6638 125.942 66.0131 125.926 66.3622V68.1255H125.515V66.49C125.524 66.2258 125.508 65.9615 125.468 65.7002C125.438 65.5027 125.34 65.3216 125.193 65.1873C125.041 65.0677 124.851 65.0066 124.658 65.015C124.409 65.015 124.168 65.1098 123.985 65.2802C123.792 65.4534 123.657 65.6828 123.599 65.9364C123.55 66.2447 123.53 66.5571 123.54 66.8693V68.1255H123.125L123.113 64.6995Z" fill="#262424"/>
<path d="M128.642 63.2871C128.688 63.2867 128.733 63.2961 128.774 63.3149C128.816 63.3336 128.853 63.3611 128.883 63.3955C128.948 63.4653 128.983 63.5569 128.983 63.652C128.983 63.7471 128.948 63.8387 128.883 63.9084C128.853 63.9426 128.816 63.97 128.775 63.9888C128.733 64.0075 128.688 64.0172 128.643 64.0172C128.598 64.0172 128.553 64.0075 128.511 63.9888C128.47 63.97 128.433 63.9426 128.403 63.9084C128.339 63.8387 128.303 63.7471 128.303 63.652C128.303 63.5569 128.339 63.4653 128.403 63.3955C128.433 63.3614 128.47 63.3341 128.511 63.3154C128.552 63.2967 128.597 63.2871 128.642 63.2871ZM128.436 64.7001H128.85V68.128H128.436V64.7001Z" fill="#262424"/>
<path d="M131.753 63.4268H132.167V64.7004H132.825V65.0875H132.167V68.1341H131.753V65.0817H131.186V64.6946H131.753V63.4268Z" fill="#262424"/>
<path d="M134.775 64.7002H135.213L136.33 67.3403L137.406 64.7002H137.848L135.919 69.3823H135.479L136.101 67.8687L134.775 64.7002Z" fill="#262424"/>
</g>
<defs>
<clipPath id="clip0">
<rect width="140.727" height="72" fill="white"/>
</clipPath>
</defs>
</svg>
