<svg width="296" height="88" viewBox="0 0 296 88" fill="none" xmlns="http://www.w3.org/2000/svg">
<path d="M25.4207 65.3506H13.4873V21.3984H25.4207V65.3506Z" fill="#559DD6"/>
<path d="M63.7905 21.5754L64.0028 45.7573L41.2253 20.7671L33.5117 23.4045V65.5276H44.7053L44.5066 41.469L67.3458 66.2606L74.984 63.6026V21.5754H63.7905Z" fill="#559DD6"/>
<path d="M102.962 48.1352L91.9128 20.7336L80.0342 23.3505L97.8795 65.5558H107.121L125.028 23.3505L114.17 20.7336L102.962 48.1352Z" fill="#559DD6"/>
<path d="M141.123 56.2734V47.1008H155.797V38.5172H141.123V30.6187H157.468V21.5762H129.539V65.5283H158.366L160.345 56.2734H141.123Z" fill="#559DD6"/>
<path d="M194.469 21.5754L194.675 45.7573L171.89 20.7671L164.184 23.4045V65.5276H175.377L175.172 41.469L198.018 66.2606L205.656 63.6026V21.5754H194.469Z" fill="#559DD6"/>
<path d="M11.9813 7.83398H0V19.8085H11.9813V7.83398Z" fill="#559DD6"/>
<path d="M231.721 59.1235C230.717 59.4914 229.689 59.7912 228.645 60.0209C227.396 60.3138 226.119 60.4632 224.836 60.4662C221.904 60.4662 219.596 59.6647 217.945 58.0754C216.294 56.4861 215.451 54.2735 215.451 51.4579C215.4 50.2607 215.597 49.0658 216.03 47.9483C216.463 46.8308 217.122 45.8147 217.965 44.9638C219.646 43.3242 221.986 42.5045 224.987 42.5045C226.074 42.5011 227.159 42.6021 228.227 42.8059C229.415 43.0688 230.566 43.4784 231.652 44.0253V48.0738H231.152C230.94 47.9163 230.618 47.6765 230.2 47.3888C229.815 47.1099 229.412 46.8559 228.994 46.6284C228.495 46.3613 227.969 46.1456 227.426 45.9845C226.807 45.8061 226.165 45.7185 225.521 45.7242C224.792 45.7141 224.066 45.8323 223.377 46.0735C222.734 46.3036 222.146 46.6652 221.651 47.1353C221.138 47.6339 220.743 48.2399 220.493 48.9096C220.2 49.7007 220.056 50.5391 220.068 51.3826C220.015 52.178 220.122 52.9762 220.383 53.7294C220.644 54.4826 221.054 55.1755 221.589 55.7668C222.596 56.7807 224.096 57.2945 226.076 57.2945C226.247 57.2945 226.432 57.2945 226.638 57.2945L227.206 57.2602V53.8487H223.781V50.5948H231.748V59.1235H231.721Z" fill="#7F8080"/>
<path d="M239.244 60.103H235.059V42.0659H239.244V60.103Z" fill="#7F8080"/>
<path d="M256.062 53.6085C256.108 54.5338 255.967 55.459 255.645 56.3279C255.324 57.1969 254.829 57.9916 254.192 58.6641C252.945 59.9017 251.191 60.5205 248.931 60.5205C246.67 60.5205 244.916 59.8971 243.676 58.6641C243.039 57.9923 242.545 57.1974 242.226 56.328C241.907 55.4586 241.769 54.5332 241.82 53.6085C241.769 52.6773 241.91 51.7456 242.234 50.8712C242.558 49.9968 243.058 49.1983 243.704 48.5255C244.413 47.886 245.242 47.3938 246.143 47.0775C247.043 46.7612 247.998 46.627 248.951 46.6827C251.235 46.6827 252.988 47.3015 254.212 48.5392C254.852 49.2123 255.346 50.0097 255.664 50.8817C255.982 51.7537 256.117 52.6819 256.062 53.6085ZM250.924 56.7665C251.209 56.4163 251.416 56.0102 251.534 55.5745C251.684 54.9396 251.751 54.288 251.733 53.6359C251.744 52.9885 251.677 52.3422 251.534 51.7109C251.426 51.2611 251.225 50.8388 250.945 50.471C250.719 50.1628 250.41 49.9252 250.054 49.7859C249.341 49.5443 248.568 49.5443 247.855 49.7859C247.497 49.9281 247.185 50.1649 246.951 50.471C246.66 50.8344 246.454 51.2579 246.348 51.7109C246.179 52.3569 246.101 53.0231 246.115 53.6907C246.104 54.3131 246.17 54.9345 246.314 55.5403C246.414 55.9958 246.612 56.4238 246.896 56.7939C247.128 57.0933 247.432 57.329 247.78 57.4789C248.155 57.6266 248.555 57.6987 248.958 57.6913C249.326 57.6911 249.69 57.6237 250.034 57.4926C250.392 57.337 250.7 57.0858 250.924 56.7665Z" fill="#7F8080"/>
<path d="M272.213 53.4239C272.289 55.2471 271.686 57.0336 270.521 58.4384C270.005 59.0543 269.357 59.5469 268.626 59.88C267.895 60.2131 267.098 60.3782 266.294 60.3633C265.65 60.3772 265.007 60.3011 264.383 60.1373C263.834 59.9806 263.309 59.7501 262.821 59.4522L262.65 60.1373H258.629V42.0659H262.821V48.4436C263.425 47.9549 264.082 47.5366 264.781 47.1969C265.502 46.8648 266.289 46.7008 267.082 46.7173C267.814 46.6787 268.543 46.821 269.206 47.1317C269.87 47.4423 270.446 47.9118 270.884 48.4984C271.85 49.9523 272.317 51.6813 272.213 53.4239ZM267.918 53.5129C267.974 52.5849 267.77 51.6598 267.329 50.8413C267.093 50.5107 266.773 50.2494 266.402 50.0843C266.031 49.9193 265.622 49.8566 265.219 49.9028C264.806 49.9054 264.395 49.9676 264 50.0877C263.584 50.2075 263.186 50.3802 262.814 50.6015V57.1231C263.092 57.222 263.379 57.2931 263.671 57.3355C263.995 57.3835 264.323 57.4041 264.65 57.3971C265.107 57.4341 265.567 57.3657 265.993 57.197C266.42 57.0284 266.802 56.764 267.11 56.4243C267.713 55.5764 267.999 54.5435 267.918 53.5061V53.5129Z" fill="#7F8080"/>
<path d="M282.709 58.7329L281.867 59.3425C281.572 59.5602 281.258 59.7506 280.928 59.9111C280.521 60.096 280.093 60.2317 279.654 60.3153C279.178 60.412 278.694 60.458 278.209 60.4523C277.063 60.4889 275.947 60.0787 275.098 59.3083C274.689 58.9398 274.365 58.4867 274.149 57.9804C273.932 57.4741 273.829 56.9267 273.845 56.3763C273.808 55.5523 274.031 54.7375 274.482 54.0472C274.944 53.412 275.572 52.9166 276.297 52.6155C277.215 52.2323 278.185 51.9854 279.174 51.8825C280.312 51.7249 281.497 51.6221 282.73 51.5536V51.4783C282.751 51.1709 282.678 50.8642 282.52 50.5997C282.362 50.3351 282.127 50.1253 281.846 49.9986C281.02 49.6868 280.139 49.5469 279.257 49.5876C278.507 49.5973 277.763 49.7221 277.051 49.9575C276.27 50.1973 275.681 50.3891 275.366 50.5192H274.989V47.3681C275.42 47.2585 276.14 47.1214 277.133 46.9639C278.121 46.8055 279.119 46.7254 280.12 46.7241C282.495 46.7241 284.207 47.0895 285.258 47.8202C285.791 48.2096 286.216 48.7284 286.493 49.3277C286.77 49.927 286.889 50.587 286.84 51.2454V60.1166H282.73V58.7466L282.709 58.7329ZM282.709 56.6777V53.9376L280.866 54.1294C280.364 54.1799 279.866 54.2739 279.38 54.4103C279.013 54.5097 278.681 54.7089 278.421 54.9857C278.192 55.2617 278.074 55.6137 278.092 55.9722C278.087 56.2024 278.11 56.4325 278.161 56.6572C278.228 56.8514 278.349 57.0225 278.51 57.1504C278.697 57.3048 278.914 57.4191 279.147 57.4861C279.527 57.5676 279.916 57.6021 280.305 57.5888C280.741 57.5854 281.173 57.5018 281.579 57.3422C281.986 57.1894 282.368 56.9745 282.709 56.7051V56.6777Z" fill="#7F8080"/>
<path d="M294.981 60.103H290.795V42.0659H294.981V60.103Z" fill="#7F8080"/>
<path d="M252.778 40.6888C252.322 32.2293 249.25 24.1204 243.986 17.4826C238.722 10.8448 231.526 6.00587 223.393 3.63455C215.26 1.26322 206.591 1.47657 198.584 4.24513C190.578 7.01368 183.629 12.2007 178.698 19.0895L178.472 19.4114L180.801 21.9187L181.136 21.4323C185.61 15.0291 191.97 10.1808 199.329 7.56301C206.688 4.94521 214.681 4.68826 222.194 6.82798C229.706 8.96769 236.364 13.3975 241.239 19.5001C246.115 25.6028 248.966 33.0743 249.394 40.8737L249.428 41.3533L252.771 41.1683L252.778 40.6888Z" fill="#559DD6"/>
<path d="M242.883 64.2813C239.6 69.0793 235.247 73.0494 230.169 75.8785C225.09 78.7076 219.423 80.3185 213.616 80.5841C207.808 80.8498 202.018 79.763 196.702 77.4094C191.387 75.0558 186.69 71.4997 182.983 67.0214L182.674 66.6515L180.078 68.7957L180.386 69.1588C184.427 74.0362 189.543 77.9097 195.334 80.4746C201.125 83.0395 207.432 84.2258 213.759 83.9403C220.086 83.6548 226.26 81.9052 231.796 78.8292C237.332 75.7532 242.079 71.4346 245.664 66.2131L245.931 65.8226L243.191 63.9182L242.883 64.2813Z" fill="#559DD6"/>
<path d="M16.0084 87.155V76.4547H12.0078V75.0229H21.5984V76.4547H17.6114V87.155H16.0084Z" fill="#559DD6"/>
<path d="M22.8252 87.1548V75.0159H24.3186V79.3659C24.6371 78.9788 25.0394 78.6691 25.4951 78.4602C25.9508 78.2514 26.448 78.1488 26.9491 78.1602C27.7484 78.1051 28.5395 78.3493 29.1687 78.8452C29.7098 79.3111 29.9839 80.2153 29.9839 81.5511V87.1274H28.4973V81.5786C28.4973 80.1537 27.8739 79.4412 26.6477 79.4412C25.0995 79.4412 24.3254 80.4071 24.3254 82.3389V87.1342H22.8252V87.1548Z" fill="#559DD6"/>
<path d="M38.0223 84.3259L39.5568 84.5177C39.0499 86.4084 37.7551 87.3537 35.6932 87.3537C34.9679 87.3688 34.2495 87.2115 33.5969 86.8948C32.9568 86.5681 32.4311 86.0544 32.0899 85.4219C31.6699 84.6253 31.4668 83.7323 31.5007 82.8325C31.4852 82.0151 31.6391 81.2034 31.9528 80.4485C32.2346 79.772 32.7116 79.1948 33.3229 78.7907C33.9991 78.3601 34.7891 78.1429 35.5904 78.1673C36.3682 78.1298 37.1378 78.3406 37.7879 78.7691C38.4381 79.1976 38.9352 79.8217 39.2074 80.5513C39.4821 81.3861 39.6096 82.2623 39.5842 83.1407H33.0421C33.0484 83.9397 33.3262 84.7127 33.8299 85.3329C34.1263 85.659 34.5049 85.8994 34.9261 86.0291C35.3473 86.1588 35.7956 86.1729 36.2241 86.07C36.6526 85.967 37.0456 85.7509 37.3619 85.444C37.6782 85.1372 37.9063 84.751 38.0223 84.3259ZM33.1243 81.9214H38.036C38.027 81.2171 37.7531 80.5421 37.2688 80.0307C37.0505 79.821 36.7928 79.6567 36.5105 79.5474C36.2283 79.438 35.9272 79.3857 35.6247 79.3936C35.3031 79.3822 34.9827 79.4371 34.6834 79.555C34.384 79.6728 34.1121 79.8511 33.8847 80.0786C33.4088 80.5756 33.1374 81.2334 33.1243 81.9214Z" fill="#559DD6"/>
<path d="M52.5779 82.401V80.9761H57.7225V85.4768C56.317 86.6722 54.5392 87.3407 52.6943 87.3675C51.8676 87.4171 51.0398 87.29 50.2661 86.9946C49.4924 86.6992 48.7905 86.2424 48.2072 85.6545C47.6238 85.0666 47.1724 84.3612 46.8831 83.5852C46.5937 82.8093 46.473 81.9805 46.529 81.1542C46.4828 79.5206 47.0222 77.9243 48.0497 76.6535C49.0636 75.4273 50.5844 74.8245 52.6053 74.8245C55.318 74.8245 56.9712 76.0256 57.5649 78.4278L56.1195 78.8182C55.9511 78.0307 55.503 77.3308 54.858 76.8484C54.2131 76.366 53.4152 76.1337 52.6121 76.1945C52.0034 76.1576 51.3939 76.2536 50.8261 76.476C50.2582 76.6984 49.7456 77.0419 49.3239 77.4824C48.5032 78.487 48.09 79.7633 48.1662 81.0583C48.1662 82.7618 48.5955 83.9994 49.4541 84.7712C50.3248 85.5426 51.4562 85.954 52.619 85.9221C53.9206 85.9652 55.1905 85.515 56.1743 84.6616V82.4079H52.6121L52.5779 82.401Z" fill="#559DD6"/>
<path d="M65.3679 86.0662C64.4834 86.8758 63.3334 87.3339 62.1345 87.3541C61.3811 87.3715 60.6403 87.1588 60.0109 86.7444C59.7132 86.5289 59.4756 86.2407 59.3209 85.9073C59.1662 85.574 59.0995 85.2065 59.1272 84.84C59.1067 84.313 59.2688 83.7952 59.5862 83.374C59.8762 82.9904 60.2643 82.6922 60.7096 82.5109C61.3143 82.2898 61.9454 82.1493 62.5867 82.093C63.4875 82.0105 64.3779 81.8384 65.2446 81.5792C65.2613 81.1671 65.2221 80.7546 65.1282 80.353C65.0249 80.0587 64.8146 79.8141 64.539 79.668C64.117 79.4482 63.6442 79.3442 63.1689 79.3665C62.6593 79.3461 62.1528 79.4545 61.6961 79.6817C61.2522 80.0132 60.9548 80.5046 60.8672 81.0517L59.4149 80.8462C59.7848 79.0446 61.1001 78.1472 63.3745 78.1472C64.124 78.1049 64.873 78.2411 65.5597 78.5445C66.0054 78.7483 66.3577 79.1129 66.5462 79.5652C66.7288 80.178 66.8076 80.8171 66.7791 81.4559V85.3264C66.7792 85.9567 66.9395 86.5766 67.2449 87.128H65.6625C65.5015 86.7946 65.4017 86.435 65.3679 86.0662ZM65.2446 82.7438C64.4568 83.0268 63.6381 83.2153 62.8059 83.3055C62.1668 83.3098 61.5474 83.5267 61.0453 83.922C60.8391 84.1684 60.7231 84.4777 60.7165 84.7989C60.7165 85.7306 61.3056 86.169 62.4839 86.169C64.3267 86.169 65.2241 85.2031 65.2241 83.2644V82.7232L65.2446 82.7438Z" fill="#559DD6"/>
<path d="M68.8057 87.1547V78.3588H70.1757V79.6056C70.4497 79.1485 70.8418 78.7738 71.3107 78.5206C71.7796 78.2675 72.3081 78.1453 72.8405 78.167C74.1376 78.167 74.9664 78.6808 75.3272 79.7083C75.6085 79.2336 76.0099 78.8412 76.4908 78.5706C76.9718 78.3001 77.5156 78.1609 78.0674 78.167C79.8942 78.167 80.8076 79.1535 80.8076 81.1264V87.1616H79.3279V81.6196C79.3279 80.181 78.8004 79.4549 77.7591 79.4549C76.3274 79.4549 75.6081 80.3249 75.6081 82.0512V87.1547H74.1216V81.4415C74.1216 80.1125 73.6009 79.448 72.5597 79.448C72.2588 79.4313 71.9581 79.4844 71.6812 79.6033C71.4043 79.7221 71.1587 79.9035 70.9635 80.1331C70.5055 80.8669 70.3032 81.7316 70.3881 82.5924V87.1547H68.8057Z" fill="#559DD6"/>
<path d="M88.6852 84.3257L90.2196 84.5175C89.7081 86.4083 88.418 87.3536 86.3492 87.3536C85.622 87.3664 84.9018 87.2092 84.2461 86.8946C83.6119 86.5621 83.0901 86.0497 82.7459 85.4218C82.3316 84.6233 82.131 83.7313 82.1636 82.8324C82.1468 82.0142 82.3032 81.2018 82.6225 80.4484C82.9057 79.7727 83.3824 79.1959 83.9926 78.7906C84.6717 78.361 85.4637 78.1439 86.267 78.1672C87.0977 78.1318 87.9168 78.3727 88.5961 78.8523C89.1768 79.2831 89.6234 79.8698 89.884 80.5443C90.1594 81.3788 90.2846 82.2555 90.2539 83.1338H83.6981C83.7044 83.9327 83.9822 84.7057 84.4859 85.3259C84.7823 85.652 85.1609 85.8925 85.5821 86.0221C86.0033 86.1518 86.4516 86.1659 86.8801 86.063C87.3086 85.9601 87.7016 85.7439 88.0179 85.4371C88.3342 85.1302 88.5623 84.7441 88.6783 84.3189L88.6852 84.3257ZM83.7871 81.9212H88.6988C88.6898 81.217 88.4159 80.5419 87.9316 80.0305C87.7141 79.8217 87.4575 79.6579 87.1766 79.5486C86.8956 79.4393 86.5958 79.3865 86.2944 79.3935C85.9728 79.382 85.6524 79.437 85.353 79.5548C85.0537 79.6727 84.7818 79.851 84.5544 80.0785C84.076 80.5744 83.8021 81.2324 83.7871 81.9212Z" fill="#559DD6"/>
<path d="M91.7939 87.1545V78.3586H93.164V79.6944C93.7189 78.6805 94.356 78.1667 95.0616 78.1667C95.6062 78.1773 96.1363 78.3437 96.5892 78.6463L96.0754 80.0164C95.7486 79.8115 95.3719 79.7001 94.9862 79.6944C93.8719 79.6944 93.3125 80.642 93.3079 82.5373V87.1476H91.7939V87.1545Z" fill="#559DD6"/>
<path d="M97.1252 76.6257V74.8926H98.7282V76.2627C98.7493 76.8135 98.6608 77.363 98.4679 77.8794C98.2355 78.3337 97.8424 78.6853 97.365 78.8658L97.0088 78.2767C97.3175 78.1336 97.5725 77.8955 97.7364 77.5973C97.9003 77.2991 97.9646 76.9562 97.9199 76.6189L97.1252 76.6257Z" fill="#559DD6"/>
<path d="M100.138 84.538L101.611 84.2982C101.775 85.5267 102.533 86.1387 103.885 86.1341C105.255 86.1341 105.94 85.6615 105.94 84.7641C105.947 84.6202 105.917 84.4769 105.853 84.3476C105.79 84.2183 105.695 84.107 105.577 84.0242C105.071 83.7624 104.532 83.5711 103.974 83.4556C103.07 83.2296 102.405 83.0378 101.974 82.8802C101.541 82.7136 101.16 82.4345 100.871 82.0719C100.559 81.6848 100.399 81.1981 100.419 80.7018C100.41 80.351 100.484 80.003 100.635 79.6864C100.786 79.3697 101.01 79.0933 101.289 78.8796C101.976 78.3842 102.813 78.1421 103.659 78.1945C105.755 78.1945 106.917 79.0166 107.146 80.6607L105.687 80.8662C105.543 79.9071 104.906 79.4208 103.762 79.4208C102.494 79.4208 101.864 79.7975 101.864 80.5511C101.857 80.6843 101.885 80.8171 101.943 80.9369C102.002 81.0568 102.09 81.1597 102.2 81.2361C102.748 81.5147 103.331 81.7197 103.933 81.8458C104.954 82.1267 105.652 82.3459 106.036 82.4829C106.431 82.6534 106.775 82.9223 107.036 83.2638C107.342 83.6536 107.499 84.139 107.481 84.6339C107.498 85.0311 107.417 85.4262 107.245 85.7846C107.073 86.143 106.815 86.4536 106.495 86.689C105.749 87.2136 104.851 87.4784 103.94 87.4426C101.72 87.3535 100.473 86.4082 100.138 84.538Z" fill="#559DD6"/>
<path d="M116.8 87.1548L113.58 75.0159H115.231L117.074 82.9692C117.286 83.9009 117.464 84.7229 117.588 85.4559L118.136 83.209L120.444 74.9885H122.383L124.116 81.1539C124.526 82.5631 124.842 83.998 125.061 85.4491C125.178 84.8736 125.376 83.9968 125.664 82.8117L127.569 75.0159H129.185L125.856 87.1548H124.308L121.753 77.8999L121.376 76.4819C121.259 76.9683 121.143 77.441 121.02 77.8999L118.451 87.1548H116.8Z" fill="#559DD6"/>
<path d="M129.672 82.757C129.672 81.1061 130.097 79.9347 130.933 79.2291C131.727 78.5396 132.744 78.1622 133.796 78.1673C134.355 78.1412 134.913 78.2374 135.432 78.4492C135.95 78.661 136.416 78.9832 136.796 79.3935C137.567 80.2945 137.964 81.4562 137.906 82.6406C137.906 84.2573 137.509 85.4492 136.714 86.2028C136.328 86.5796 135.87 86.8751 135.368 87.0716C134.865 87.2682 134.329 87.3617 133.789 87.3468C133.194 87.3928 132.597 87.292 132.05 87.0531C131.502 86.8142 131.022 86.4446 130.652 85.9767C129.991 85.0349 129.648 83.9071 129.672 82.757ZM131.213 82.757C131.17 83.6314 131.41 84.4964 131.898 85.2232C132.119 85.5205 132.409 85.7591 132.744 85.9179C133.078 86.0768 133.447 86.1511 133.817 86.1343C134.197 86.1584 134.577 86.0811 134.917 85.9101C135.258 85.7392 135.547 85.4809 135.755 85.1615C136.205 84.4247 136.426 83.5715 136.392 82.7091C136.413 81.8941 136.199 81.0903 135.776 80.3936C135.569 80.0668 135.278 79.8019 134.933 79.627C134.588 79.4522 134.202 79.3738 133.817 79.4003C133.437 79.3756 133.058 79.4504 132.717 79.6175C132.376 79.7845 132.084 80.0379 131.871 80.3525C131.411 81.0679 131.182 81.9071 131.213 82.757Z" fill="#559DD6"/>
<path d="M139.379 87.1545V78.3586H140.749V79.6944C141.311 78.6805 141.941 78.1667 142.647 78.1667C143.191 78.1785 143.721 78.3448 144.174 78.6463L143.667 80.0164C143.337 79.8131 142.959 79.702 142.571 79.6944C141.457 79.6944 140.897 80.642 140.893 82.5373V87.1476H139.399L139.379 87.1545Z" fill="#559DD6"/>
<path d="M144.76 87.1548V75.0159H146.246V87.1548H144.76Z" fill="#559DD6"/>
<path d="M153.997 87.1552V86.0454C153.742 86.4635 153.379 86.8054 152.946 87.0355C152.514 87.2656 152.028 87.3755 151.538 87.3539C151.004 87.3747 150.472 87.2668 149.988 87.039C149.504 86.8113 149.082 86.4705 148.757 86.0454C148.063 85.0981 147.708 83.9446 147.75 82.7709C147.661 81.5353 148.043 80.3119 148.819 79.3457C149.149 78.9711 149.558 78.6733 150.016 78.4733C150.474 78.2733 150.97 78.1759 151.47 78.188C151.943 78.1689 152.413 78.2694 152.837 78.4801C153.261 78.6909 153.624 79.0051 153.895 79.3937V75.0437H155.381V87.1826H154.011L153.997 87.1552ZM149.284 82.7709C149.25 83.6239 149.469 84.4679 149.915 85.196C150.099 85.4941 150.359 85.7383 150.668 85.9043C150.977 86.0702 151.325 86.152 151.675 86.1413C152.023 86.1578 152.37 86.0807 152.678 85.9181C152.987 85.7555 153.246 85.5132 153.429 85.2165C153.843 84.5172 154.048 83.7134 154.018 82.9011C154.061 82.0123 153.847 81.1298 153.401 80.3596C153.214 80.0556 152.949 79.807 152.633 79.6396C152.318 79.4723 151.963 79.3921 151.607 79.4074C150.058 79.4028 149.284 80.524 149.284 82.7709Z" fill="#559DD6"/>
</svg>
