<svg width="829" height="756" viewBox="0 0 829 756" fill="none" xmlns="http://www.w3.org/2000/svg">
<g opacity="0.08" clip-path="url(#clip0)">
    <metadata>
        <rdf:RDF xmlns:rdf="http://www.w3.org/1999/02/22-rdf-syntax-ns#"
                 xmlns:connect="http://www.w3.org/1999/08/29-svg-connections-in-RDF#">
            <rdf:Description about="#CableA">
                <connect:ends rdf:resource="#socket1"/>
                <connect:ends rdf:resource="#ComputerA"/>
            </rdf:Description>
            <rdf:Description about="#CableB">
                <connect:ends rdf:resource="#socket2"/>
                <connect:ends rdf:resource="#ComputerB"/>
            </rdf:Description>
            <rdf:Description about="#CableN">
                <connect:ends rdf:resource="#socket5"/>
                <connect:ends>Everything</connect:ends>
            </rdf:Description>
            <rdf:Description about="#Hub">
                <connect:ends rdf:resource="#socket1"/>
                <connect:ends rdf:resource="#socket2"/>
                <connect:ends rdf:resource="#socket3"/>
                <connect:ends rdf:resource="#socket4"/>
                <connect:ends rdf:resource="#socket5"/>
            </rdf:Description>
        </rdf:RDF>
    </metadata>
<path fill-rule="evenodd" clip-rule="evenodd" d="M795.622 816.29C767.224 838.526 767.224 881.106 795.622 903.342C815.028 918.481 842.953 918.481 862.358 903.342C890.757 881.106 890.757 838.526 862.358 816.29C842.953 801.151 815.028 801.151 795.622 816.29ZM1030.05 722.291C1041.26 720.553 1052.03 715.368 1060.67 706.736C1082.29 685.12 1082.29 650.072 1060.67 628.456C1039.04 606.839 1003.98 606.839 982.355 628.456C974.144 636.663 969.05 646.807 967.075 657.417C963.199 676.927 969.945 698.135 987.313 711.734C999.586 721.309 1015.27 724.828 1030.05 722.291ZM881.788 490.867C887.463 471.985 882.838 450.67 867.914 435.752C846.288 414.136 811.226 414.136 789.6 435.752C771.325 454.02 768.493 481.879 781.106 503.119C784.597 509.473 789.436 515.282 795.622 520.126C815.028 535.266 842.953 535.266 862.358 520.126C872.352 512.301 878.828 501.958 881.788 490.867ZM1060.68 513.717C1061.32 513.08 1061.93 512.431 1062.53 511.771C1080.18 495.612 1101.5 483.697 1118.42 483.697C1134.4 483.697 1154.32 494.336 1171.35 509.141C1172.63 510.727 1174 512.259 1175.47 513.73C1197.09 535.346 1232.16 535.346 1253.78 513.73C1275.41 492.113 1275.41 457.066 1253.78 435.449C1232.16 413.832 1197.09 413.832 1175.47 435.449C1173.75 437.167 1172.17 438.971 1170.72 440.845C1153.98 455.352 1135.05 465.719 1118.42 465.719C1100.99 465.719 1081.03 454.33 1063.71 438.721C1062.75 437.596 1061.74 436.5 1060.68 435.436C1039.05 413.819 1003.99 413.819 982.365 435.436C960.739 457.053 960.739 492.1 982.365 513.717C1003.99 535.333 1039.05 535.333 1060.68 513.717ZM774.715 661.632C772.529 679.926 779.498 699.109 795.622 711.734C815.028 726.873 842.953 726.873 862.358 711.734C890.757 689.498 890.757 646.918 862.358 624.682C852.207 616.763 839.724 612.986 827.348 613.352C787.205 607.69 765.653 592.785 739.778 566.49C713.382 540.105 698.435 516.99 691.898 477.388C692.572 464.603 688.811 451.613 680.615 441.117C658.37 412.731 615.772 412.731 593.527 441.117C578.855 460.514 578.855 488.428 593.527 507.825C604.383 521.678 620.087 528.771 635.907 529.102C678.061 536.58 698.466 546.959 728.892 577.372C756.761 605.229 768.18 626.144 774.715 661.632ZM789.069 319.686C771.33 303.312 749.765 291.616 733.15 291.616C716.072 291.616 694.944 303.313 677.227 319.688C654.271 344.063 614.69 342.749 593.527 315.744C578.855 296.347 578.855 268.434 593.527 249.037C596.053 245.813 598.841 242.956 601.832 240.465C617.243 223.237 628.076 203.454 628.076 186.586C628.076 169.719 617.244 149.937 601.834 132.709C598.842 130.218 596.053 127.36 593.527 124.137C578.855 104.739 578.855 76.8261 593.527 57.4288C615.772 29.0424 658.37 29.0424 680.615 57.4288C695.761 76.8261 695.761 104.739 680.615 124.137C678.78 126.478 676.806 128.627 674.717 130.582C658.284 148.334 646.535 169.945 646.535 186.586C646.535 203.69 658.283 224.857 674.714 242.588C675.572 243.391 676.41 244.226 677.228 245.094C694.923 261.468 715.611 273.165 733.15 273.165C750.685 273.165 771.37 261.472 789.063 245.102C812.017 220.717 851.606 222.029 872.771 249.037C887.917 268.434 887.917 296.347 872.771 315.744C851.608 342.75 812.025 344.064 789.069 319.686ZM473.655 518.678C458.423 535.926 447.748 556.304 447.748 572.167C447.748 589.26 459.481 610.413 475.897 628.137C500.209 651.093 498.87 690.601 471.88 711.734C452.475 726.873 424.55 726.873 405.144 711.734C401.88 709.178 398.991 706.354 396.478 703.323C396.807 703.761 397.144 704.199 397.582 704.637C397.819 705.11 398.174 705.465 398.529 705.82C398.884 706.175 399.239 706.529 399.475 707.003C381.49 689.971 360.191 677.67 342.205 677.67C325.424 677.67 305.758 688.379 288.59 703.648C286.141 706.556 283.342 709.27 280.195 711.734C260.79 726.873 232.865 726.873 213.459 711.734C185.061 689.498 185.061 646.918 213.459 624.682C232.865 609.543 260.79 609.543 280.195 624.682C283.907 627.589 287.134 630.843 289.876 634.354C306.873 649.028 326.696 659.219 342.205 659.219C359.373 659.219 380.634 647.398 398.408 630.887C399.307 629.914 400.246 628.965 401.227 628.043C417.597 610.36 429.289 589.691 429.289 572.167C429.289 555.452 418.651 535.875 403.462 518.757C376.757 496.182 377.318 454.862 405.144 433.074C424.55 417.935 452.475 417.935 471.88 433.074C499.674 454.837 500.266 496.086 473.655 518.678ZM395.216 701.798C395.292 701.875 395.366 701.952 395.437 702.028C395.221 701.752 395.009 701.474 394.799 701.194C394.937 701.396 395.075 701.597 395.216 701.798ZM663.571 624.682C691.969 646.918 691.969 689.498 663.571 711.734C644.165 726.873 616.24 726.873 596.834 711.734C568.436 689.498 568.436 646.918 596.834 624.682C616.24 609.543 644.165 609.543 663.571 624.682ZM284.153 420.86C308.526 443.808 307.207 483.363 280.195 504.513C260.79 519.653 232.865 519.653 213.459 504.513C186.452 483.366 185.129 443.82 209.491 420.871C225.885 403.134 237.598 381.564 237.598 364.947C237.598 347.871 225.887 326.742 209.495 309.028C185.129 286.079 186.45 246.529 213.459 225.381C232.865 210.715 260.79 210.715 280.195 225.381C283.423 227.908 286.284 230.698 288.778 233.692C306.011 249.092 325.799 259.918 342.671 259.918C359.539 259.918 379.322 249.098 396.552 233.703C399.048 230.706 401.912 227.912 405.144 225.381C424.55 210.715 452.475 210.715 471.88 225.381C500.279 247.617 500.279 290.197 471.88 312.433C452.475 327.572 424.55 327.572 405.144 312.433C402.796 310.594 400.642 308.617 398.683 306.523C380.926 290.105 359.315 278.369 342.671 278.369C325.559 278.369 304.379 290.114 286.64 306.542C285.843 307.392 285.014 308.223 284.154 309.033C267.765 326.724 256.057 347.411 256.057 364.947C256.057 382.483 267.765 403.169 284.153 420.86ZM21.2988 312.433C-7.09959 290.197 -7.09959 247.617 21.2988 225.381C40.7043 210.715 68.6293 210.715 88.0349 225.381C116.433 247.617 116.433 290.197 88.0349 312.433C68.6293 327.572 40.7043 327.572 21.2988 312.433Z" fill="#F5F7FA"/>
</g>
<defs>
<clipPath id="clip0">
<rect width="829" height="756" fill="white"/>
</clipPath>
</defs>
</svg>
