<svg width="52" height="80" viewBox="0 0 52 80" fill="none" xmlns="http://www.w3.org/2000/svg">
<g clip-path="url(#clip0)">
<path d="M14.6132 80H21.5166C21.5166 80 15.3304 75.6444 14.4338 68.8889C12.7304 56.0889 26.6269 47.1111 26.6269 47.1111C26.6269 47.1111 24.7442 56.8 32.4545 65.4222C39.5373 73.4222 30.4821 80 30.4821 80H38.1028C38.1028 80 51.1925 70.4 51.9994 57.9556C52.2683 54.1333 51.8201 48.8 49.6683 42.1333C46.889 33.6 40.8821 27.3778 40.8821 27.3778C40.8821 27.3778 40.9718 29.6889 39.5373 32.6222C37.9235 35.7333 36.1304 37.0667 36.1304 37.0667C36.1304 37.0667 39.5373 22.0444 30.9304 10.4C24.2959 1.24444 21.2476 0 21.2476 0C21.2476 0 25.9097 15.3778 9.86143 34.0444C-3.85581 50.0444 -0.448914 63.2 3.40626 69.1556C6.90281 74.7556 14.6132 80 14.6132 80Z" fill="#FF9F21"/>
</g>
<defs>
<clipPath id="clip0">
<rect width="52" height="80" fill="white"/>
</clipPath>
</defs>
</svg>
