<svg width="54" height="81" viewBox="0 0 54 81" fill="none" xmlns="http://www.w3.org/2000/svg">
<path d="M43.1649 25.3924C42.6363 21.7806 40.9626 11.0335 40.9626 11.0335L38.9365 8.39075C38.9365 8.39075 36.2938 8.39075 35.6771 8.39075C35.6771 8.65502 35.6771 8.8312 35.589 9.00739C35.7652 9.09548 35.8533 9.18357 35.9414 9.18357C35.7652 9.53593 35.1486 11.3859 35.1486 11.3859C35.1486 11.3859 34.8843 13.5881 34.8843 13.8524C34.7081 13.8524 32.0654 13.8524 31.0083 13.8524H28.8941C28.0132 13.8524 27.1323 13.8524 26.2513 13.8524H25.2823V14.2048H23.1681C22.6396 14.2048 22.1991 14.6452 22.1991 15.1738V17.4641C22.1991 17.9927 22.6396 18.4332 23.1681 18.4332H24.93C24.93 19.5783 24.93 21.6044 24.93 22.9258C24.5776 23.4544 23.8729 24.5115 23.8729 24.5115C23.8729 24.5115 23.8729 25.1281 23.8729 25.3924C23.1681 25.3924 22.3753 25.3924 21.6706 25.3924C21.4063 25.3924 21.2301 25.4805 20.9659 25.6566C20.3492 26.0971 19.7326 26.5375 19.116 26.978C18.7636 27.2423 18.5874 27.5066 18.5874 27.947C18.5874 29.0922 18.5874 30.2374 18.5874 31.3826C18.5874 31.7349 18.6755 32.0873 18.9398 32.3516C19.6445 33.1444 20.2611 33.9372 20.9659 34.73C21.1421 34.9062 21.2301 35.0824 21.2301 35.3467C21.2301 36.4919 21.2301 37.549 21.2301 38.6941C21.2301 38.8703 21.2301 39.0465 21.3182 39.1346C21.4063 39.487 21.5825 39.9274 21.6706 40.2798C21.9349 41.6893 21.9349 43.0987 21.4944 44.5082C21.4063 44.7724 21.3182 45.1248 21.3182 45.3891C21.3182 46.6224 21.3182 47.9437 21.3182 49.177C21.3182 49.2651 21.3182 49.3532 21.3182 49.5294C21.4944 50.146 21.6706 50.7627 21.8468 51.3793C22.023 52.6126 22.023 53.8458 21.5825 54.991C21.4944 55.3434 21.3182 55.6077 21.3182 55.96C21.3182 57.1052 21.3182 58.3385 21.3182 59.4837C21.3182 59.748 21.4063 59.9241 21.4063 60.1884C21.4944 60.6289 21.6706 61.0693 21.7587 61.5098C21.9349 62.2145 21.9349 62.9193 21.9349 63.624C21.9349 64.2406 21.8468 64.8573 21.5825 65.4739C21.4063 65.9144 21.3182 66.4429 21.3182 66.9715C21.3182 67.9405 21.3182 68.9095 21.3182 69.8785C21.3182 70.0546 21.2301 70.2308 21.1421 70.407C20.4373 71.4641 19.6445 72.4331 18.9398 73.4902C18.7636 73.8426 18.7636 74.0188 18.7636 74.1949C18.7636 75.252 18.7636 76.3091 18.7636 77.3662C18.7636 77.8067 18.9398 78.071 19.204 78.3352C19.9088 78.8638 20.6135 79.3042 21.2301 79.8328C21.3182 79.9209 21.4944 80.009 21.6706 80.009C22.1991 80.0971 35.9414 80.0971 36.9104 80.009C37.0866 80.009 37.3508 79.9209 37.527 79.7447C38.2318 79.3042 38.9365 78.7757 39.5531 78.2471C39.8174 78.071 39.9055 77.8067 39.9055 77.4543C39.9055 76.3972 39.9055 75.4282 39.9055 74.3711C39.9055 74.0188 39.8174 73.6664 39.6412 73.4021C38.9365 72.4331 38.2318 71.5522 37.6151 70.5832C37.4389 70.407 37.4389 70.1427 37.4389 69.9666C37.4389 68.8214 37.4389 67.7643 37.4389 66.6191C37.4389 66.4429 37.4389 66.2667 37.3508 66.0905C37.1747 65.6501 37.0866 65.2096 36.9104 64.7692C36.7342 64.0644 36.6461 63.2716 36.7342 62.4788C36.8223 61.686 36.9985 60.9812 37.3508 60.1884C37.3508 60.1003 37.4389 60.0122 37.4389 59.8361C37.4389 58.5147 37.4389 57.2814 37.4389 55.96C37.4389 55.8719 37.4389 55.7839 37.3508 55.6958C37.1747 55.1672 36.9985 54.7268 36.8223 54.1982C36.6461 53.4935 36.6461 52.8768 36.6461 52.1721C36.6461 51.2912 36.9104 50.4984 37.2628 49.7056C37.3508 49.5294 37.3508 49.3532 37.3508 49.177C37.3508 47.9437 37.3508 46.7105 37.3508 45.3891C37.3508 45.301 37.3508 45.2129 37.3508 45.1248C37.2628 44.8605 37.1747 44.5963 37.0866 44.332C36.7342 43.5392 36.7342 42.8344 36.6461 41.9535C36.6461 40.9845 36.9104 40.0155 37.2628 39.1346C37.3508 38.9584 37.3508 38.6941 37.3508 38.518C37.3508 37.4609 37.3508 36.3157 37.3508 35.2586C37.3508 34.9943 37.4389 34.8181 37.527 34.6419C38.2318 33.8491 38.8484 33.0563 39.5531 32.1754C39.8174 31.9111 39.9055 31.5588 39.9055 31.1183C39.9055 30.1493 39.9055 28.0351 39.9055 27.947C40.346 27.8589 41.7554 27.4185 42.1078 27.2423C42.1959 27.3304 45.6314 32.8801 45.6314 32.8801C45.6314 32.8801 45.7195 37.3728 45.7195 40.0155C45.7195 43.8915 45.7195 47.7676 45.7195 51.5555C45.7195 54.2863 45.7195 56.929 45.7195 59.6599C45.7195 59.748 45.7195 59.9241 45.7195 60.0122C45.7195 60.4527 45.5433 60.6289 45.1029 60.8051C44.0458 61.1574 42.9887 61.4217 41.9316 61.7741C41.403 61.9502 40.8745 62.1264 40.346 62.2145C40.434 62.3907 40.434 62.5669 40.5221 62.7431C42.284 62.2145 44.0458 61.7741 45.8076 61.2455C45.9838 61.1574 46.16 60.9812 46.2481 60.8051C46.4242 60.5408 46.4242 60.2765 46.4242 60.0122C46.4242 57.7219 46.4242 55.4315 46.4242 53.1411C46.4242 48.5604 46.4242 44.0677 46.4242 39.487C46.4242 36.9323 46.4242 31.1183 46.4242 31.1183C46.4242 31.1183 44.3981 27.7708 43.1649 25.3924ZM35.1486 25.4805C35.1486 25.3043 35.1486 20.9878 35.1486 20.8116C35.4128 20.9878 35.6771 21.3402 35.6771 21.3402C35.6771 21.3402 37.0866 25.3924 37.1747 25.4805C36.4699 25.4805 35.7652 25.4805 35.1486 25.4805ZM36.4699 13.9405C36.4699 13.9405 36.1176 13.9405 35.8533 13.9405C35.8533 13.8524 36.1176 11.6501 36.1176 11.6501L37.0866 9.44784H37.7913L39.6412 12.0906C39.6412 12.0906 41.315 20.6354 41.7554 22.9258C41.6673 22.8377 36.4699 13.9405 36.4699 13.9405Z" fill="#628B48"/>
<path d="M13.1256 3.19336L8.80913 5.74801V0.726807H5.81402V5.74801L1.49755 3.19336L0 5.8361L4.31647 8.30266L0 10.8573L1.49755 13.412L5.81402 10.9454V15.9666H8.80913V10.9454L13.1256 13.412L14.6232 10.8573L10.3067 8.30266L14.6232 5.8361L13.1256 3.19336Z" fill="#628B48"/>
<path d="M12.6851 30.9421L10.571 32.0873V29.7089H9.16149V32.0873L7.13539 30.9421L6.43066 32.1754L8.45676 33.3206L6.43066 34.4658L7.13539 35.6991L9.16149 34.5539V36.9323H10.571V34.5539L12.6851 35.6991L13.3899 34.4658L11.2757 33.3206L13.3899 32.1754L12.6851 30.9421Z" fill="#628B48"/>
<path d="M54 9.44785L52.9429 7.68602L49.9478 9.44785V5.92419H47.8337V9.44785L44.7505 7.68602L43.6934 9.44785L46.7766 11.2097L43.6934 12.9715L44.7505 14.8214L47.8337 13.0596V16.5832H49.9478V13.0596L52.9429 14.8214L54 12.9715L51.0049 11.2097L54 9.44785Z" fill="#628B48"/>
</svg>
