<svg width="38" height="81" viewBox="0 0 38 81" fill="none" xmlns="http://www.w3.org/2000/svg">
<path d="M28.8515 7.44256L37.9117 6.12312L37.296 1.98886L28.5876 3.3083V0.845337H9.9395H8.62005C7.47654 0.845337 6.42098 1.81293 6.42098 3.04441V3.48423C6.42098 4.71571 7.38857 5.6833 8.62005 5.6833H9.9395V16.7666C9.49968 17.2944 8.35616 18.8777 8.18024 18.8777C7.03672 18.8777 0.0876465 18.8777 0.0876465 18.8777V60.6602C0.439498 61.1879 1.40709 61.6277 2.8145 62.0676C5.71728 62.8592 10.3793 63.475 15.6571 63.475C20.9349 63.475 25.5969 62.9472 28.4997 62.0676C30.083 61.6277 31.1386 61.012 31.4025 60.3963C31.4025 44.6509 31.4904 23.8037 31.4904 19.5814C32.6339 20.725 35.1849 21.5166 35.1849 21.5166L36.4164 64.4426L35.3608 65.5861C35.3608 65.5861 35.5367 66.1139 35.7126 66.7296C36.3284 66.1139 37.9997 64.4426 37.9997 64.4426L36.7682 21.5166C36.6802 21.5166 28.9395 7.53052 28.8515 7.44256ZM27.5321 49.5768C27.0923 55.9981 23.046 58.637 20.1432 59.7805C23.3978 56.0861 22.0784 51.2481 19.3515 47.5537C16.8006 44.0352 15.833 40.1648 15.833 40.1648C15.833 40.1648 14.0738 43.5074 11.171 50.0166C8.97191 54.9426 11.2589 58.4611 12.5784 59.8685C10.3793 59.0768 7.91635 57.4055 6.24505 53.887C5.54135 52.4796 3.60617 47.1139 8.62005 40.1648C15.5691 30.7527 14.1617 23.3639 14.1617 23.3639C15.2173 23.9796 16.0969 24.8592 16.8006 25.7389C18.8238 28.4657 19.7914 31.7203 19.7914 34.975C19.7914 36.9102 19.9673 38.4935 20.3191 39.4611C20.583 40.2527 21.2867 40.6926 21.2867 40.6926C21.2867 40.6926 22.6062 39.3731 22.4302 36.7342C22.4302 36.5583 22.3423 35.6787 22.3423 35.6787C22.3423 35.6787 25.421 38.5815 26.5645 42.6277C27.5321 45.5305 27.708 47.9055 27.5321 49.5768ZM23.8376 18.9657L21.4626 16.6787V13.512H25.2451C26.1247 14.3916 28.6756 16.9426 30.6108 18.9657H23.8376Z" fill="#3BBBE9"/>
<path d="M28.5 68.3129C25.5972 69.1046 20.9352 69.7204 15.6574 69.7204C10.3796 69.7204 5.71759 69.1926 2.81481 68.3129C1.40741 67.8731 0.439815 67.4333 0 66.9055V76.6694C0 76.6694 0 76.6694 0 76.7574V76.8454C0.087963 77.5491 1.14352 78.1648 2.90278 78.6926C5.71759 79.4842 10.3796 80.1 15.5694 80.1C20.7593 80.1 25.4213 79.5722 28.2361 78.6926C30.0833 78.1648 31.1389 77.4611 31.1389 76.7574C31.1389 74.7342 31.1389 71.1278 31.1389 66.7296C31.1389 67.3454 30.0833 67.8731 28.5 68.3129Z" fill="#3BBBE9"/>
</svg>
