<svg width="80" height="56" viewBox="0 0 80 56" fill="none" xmlns="http://www.w3.org/2000/svg">
<path d="M25.5205 19.3732C25.4584 19.0007 25.4584 18.6281 25.3963 18.2556C24.7754 18.2556 24.0924 18.2556 23.4093 18.2556C23.4093 18.6281 23.4093 19.0007 23.4093 19.4353C22.7884 19.4353 22.2295 19.4353 21.6086 19.4353C21.5465 19.0628 21.4844 18.7523 21.4223 18.3176C20.8014 18.3176 20.2426 18.3176 19.5595 18.3176C19.5595 18.6902 19.5595 19.0628 19.5595 19.4353C18.9386 19.4974 18.3797 19.4974 17.7588 19.4353C17.6967 19.0628 17.6346 18.6902 17.5725 18.3176C17.0137 18.3176 16.3927 18.3176 15.7097 18.3176C15.7097 18.6902 15.7097 19.0628 15.7097 19.4353C15.3992 19.4353 15.0888 19.4353 14.7783 19.4974C14.4678 19.4974 14.2195 19.4974 13.8469 19.5595C13.7848 19.187 13.7227 18.8144 13.6606 18.3797C13.0397 18.3797 12.4808 18.3797 11.7978 18.3797C11.7978 18.7523 11.7978 19.1249 11.7978 19.5595C11.1769 19.5595 10.618 19.5595 9.93499 19.5595C9.8729 19.187 9.81081 18.8144 9.74871 18.4418C9.18987 18.4418 8.63103 18.4418 8.01009 18.4418C8.01009 18.8144 7.948 19.187 7.948 19.5595C7.51334 19.5595 7.14078 19.5595 6.76821 19.5595C6.45775 18.3176 6.14728 17.0758 5.83681 15.7718C5.15378 15.7718 4.47075 15.7718 3.78772 15.7718C3.10469 15.7718 2.35956 15.7718 1.67653 15.7718C1.24187 15.7718 1.17978 15.7097 1.17978 15.2751C1.17978 14.7783 1.17978 14.2816 1.17978 13.8469C1.05559 13.7848 1.05559 13.7848 0.993499 13.7848C0.186281 13.7227 0.186281 13.7227 0.124187 12.9155C0.124187 11.4252 0 9.8729 0 8.38265C0 7.32706 0.0620937 6.20937 0.124187 5.15378C0.186281 4.53284 0.310469 4.40865 0.931406 4.40865C1.55234 4.40865 2.11119 4.40865 2.79422 4.40865C2.79422 4.03609 2.79422 3.78772 2.79422 3.53934C2.79422 2.48375 3.29097 1.86281 4.28447 1.42816C4.59493 1.30397 4.9054 1.17978 5.15378 1.11769C5.71262 0.931406 5.83681 0.993499 6.14728 1.49025C6.51984 2.23537 6.8924 3.04259 7.26496 3.78772C7.32706 3.9119 7.38915 4.03609 7.51334 4.28447C7.69962 4.28447 7.8859 4.28447 8.13428 4.28447C11.1148 4.28447 14.0332 4.22237 17.0137 4.22237C19.8079 4.22237 22.6642 4.16028 25.4584 4.09819C25.7689 4.09819 26.0173 4.03609 26.3277 3.9119C26.6382 3.78772 26.9487 3.72562 27.3212 3.72562C29.184 3.66353 31.0469 3.66353 32.8476 3.66353C36.7595 3.60144 40.7956 3.60144 44.8317 3.60144C49.054 3.60144 53.2143 3.53934 57.4367 3.53934C59.2374 3.53934 61.0381 3.47725 62.8388 3.41515C62.963 3.41515 63.0251 3.41515 63.2114 3.41515C63.2114 3.16678 63.2114 2.9805 63.2735 2.79422C63.3356 2.23537 63.584 1.92491 64.2049 1.80072C64.3912 1.80072 64.5775 1.80072 64.7637 1.80072C66.0056 1.80072 67.2475 1.80072 68.5515 1.73862C68.8619 1.73862 69.1724 1.61444 69.4829 1.61444C69.8554 1.61444 70.228 1.67653 70.5385 1.67653C70.6627 1.49025 70.7247 1.30397 70.8489 1.11769C71.2836 0.49675 71.9666 0.558843 72.6497 0.620937C72.8359 0.620937 72.9601 0.683031 73.1464 0.683031C73.2085 0.434656 73.2085 0.248375 73.2706 0.0620937C73.519 0.0620937 73.7673 0 74.0778 0C74.0778 0.434656 74.0778 0.807218 74.0778 1.11769C74.0778 1.61444 74.0778 2.04909 74.0778 2.54584C74.0778 3.10469 73.9536 3.16678 73.3948 3.16678C72.7117 3.16678 72.0287 3.10469 71.3457 3.04259C71.1594 3.04259 70.911 3.10469 70.7247 3.10469C70.7247 3.16678 70.7247 3.22887 70.7247 3.22887C70.8489 3.29097 70.911 3.35306 71.0352 3.35306C71.9666 3.35306 72.8359 3.35306 73.7673 3.35306C74.5746 3.35306 75.1955 3.53934 75.8164 4.03609C76.6236 4.71912 77.1825 5.40215 77.493 6.45775C78.1139 8.69312 78.7969 10.9285 79.4179 13.226C79.6662 14.2195 79.7904 15.3371 79.9767 16.3306C80.0388 16.7032 79.9767 17.0758 79.7904 17.3862C79.5421 17.8209 79.2937 18.1935 79.0453 18.6281C78.859 18.9386 78.5486 19.1249 78.2381 19.2491C77.1825 19.6216 76.1269 19.9942 75.1334 20.4288C74.4504 20.7393 73.7673 21.1119 73.1464 21.4223C72.4013 21.7949 72.0287 22.4158 71.7803 23.161C71.7182 23.2851 71.7182 23.4714 71.7182 23.6577C71.7803 24.4028 71.9045 25.0859 72.215 25.831C73.5811 28.9357 74.9471 32.1025 76.0027 35.2692C77.0583 38.3739 77.9897 41.4786 78.6727 44.7075C79.1695 47.0049 79.542 49.3645 79.9146 51.662C80.0388 52.2829 79.9767 52.9659 79.6041 53.5869C79.48 53.8353 79.2316 54.0836 79.3558 54.4562C79.3558 54.5183 79.1695 54.7046 79.1074 54.7667C78.4865 55.4497 77.6792 55.636 76.8099 55.7602C75.0713 55.9464 73.3948 55.8223 71.6562 55.636C69.1724 55.4497 66.6887 55.1392 64.2049 54.9529C62.5284 54.8288 60.7897 54.8288 59.1132 54.7667C58.3681 54.7667 57.623 54.7046 56.9399 54.4562C56.4432 54.2699 56.3811 54.0215 56.7537 53.7111C57.002 53.4627 57.3125 53.2764 57.623 53.028C57.7472 52.9038 57.9334 52.8418 57.9955 52.6555C58.1197 52.0345 58.4302 51.4757 58.306 50.7927C57.7472 47.5017 56.8158 44.2728 56.0706 40.9819C56.0085 40.7335 55.8843 40.5472 55.7602 40.3609C54.7667 38.9949 54.4562 37.4425 54.5183 35.8281C54.5183 35.145 54.5183 34.5241 54.2699 33.9032C54.0215 33.2822 53.7111 32.7234 53.2143 32.2266C53.0901 32.1025 52.9038 32.0404 52.7176 31.9783C51.662 31.6678 50.6064 31.4815 49.4887 31.5436C46.8187 31.6678 44.1486 31.4815 41.4786 31.2952C39.6158 31.171 37.753 31.109 35.9523 30.9848C35.083 30.9227 34.2757 30.9227 33.4685 30.488C32.4129 29.9292 31.7299 29.0599 31.4194 27.9422C30.9848 26.0794 30.5501 24.2786 30.1155 22.4158C29.9292 21.7328 29.7429 21.1119 29.5566 20.4288C29.5566 20.3667 29.4945 20.2426 29.4324 20.1805C28.8736 19.87 28.3768 19.3732 27.6317 19.3732C26.9487 19.4353 26.2656 19.3732 25.5205 19.3732ZM44.8938 19.9942C44.5833 19.9942 44.397 19.9942 44.1486 19.9942C42.1616 19.9942 40.1746 20.0563 38.1255 20.0563C36.9458 20.0563 35.8281 20.0563 34.6483 20.1184C34.462 20.1184 34.1515 20.1805 34.0274 20.3046C33.5927 20.6151 33.158 20.9877 32.7855 21.3602C32.5371 21.6086 32.3508 21.9191 32.2266 22.2916C32.1025 22.7263 31.9783 23.223 31.9783 23.6577C31.9783 25.21 32.3508 26.7003 32.9718 28.1285C33.2822 28.8736 33.9032 29.2461 34.6483 29.3082C36.3248 29.4324 38.0634 29.5566 39.74 29.6187C41.1681 29.6808 42.5342 29.805 43.9624 29.8671C45.2663 29.9292 46.5703 29.9913 47.8743 29.9292C48.7436 29.8671 49.5508 29.7429 50.2959 29.3082C51.4757 28.6252 52.0966 27.5696 51.662 26.0794C51.3515 25.0238 51.041 23.9682 50.7306 22.9126C50.5443 22.4158 50.358 21.857 50.1717 21.3602C49.8613 20.6772 49.6129 20.4909 48.8678 20.6151C48.2468 20.6772 47.6259 20.8014 47.067 20.8635C46.384 20.9256 46.2598 21.1119 46.1977 21.7949C46.1356 22.8505 46.1356 23.9061 45.9494 24.8996C45.7631 26.0794 45.4526 27.2591 44.5212 28.1285C44.0244 28.5631 43.4035 28.8736 42.7205 28.8115C42.5963 28.8115 42.5342 28.6873 42.41 28.5631C42.5342 28.4389 42.5963 28.3768 42.7205 28.2526C42.7205 28.2526 42.7826 28.2526 42.8447 28.2526C43.2793 28.2526 43.6519 28.0043 43.8382 27.6317C44.0865 27.197 44.3349 26.7624 44.4591 26.2656C44.7696 24.7754 44.8317 23.2851 44.5212 21.7949C44.4591 21.4844 44.4591 21.236 44.397 20.8635C44.5833 20.7393 44.7696 20.6772 44.9559 20.553C44.9559 20.4288 44.9559 20.3046 44.8938 19.9942Z" fill="#9ACA3C"/>
</svg>
