<svg width="80" height="60" viewBox="0 0 80 60" fill="none" xmlns="http://www.w3.org/2000/svg">
<g clip-path="url(#clip0)">
<path d="M78.5333 49.6667C77.6 43.9333 75.8 38.4 72.9333 33.3334C71.2667 30.3333 68.4667 28.3333 69.4 23.4C70.2667 19 75.7333 18.2667 76.6667 17.6C78.5333 16.2667 77.9333 12.4667 77.9333 12.4667L76.6 9.53335L80 7.86668L78.8 5.26668L75.4 6.93335L73.8 3.46668L71.6 1.66668H71.2667H69.2C69.2 1.66668 69.2 1.66668 69.2 1.60002L69.6667 -0.0666504H66L65.5333 1.60002H39.2667L39 2.86668H28.0667L27.8 1.60002H6.4L4.73333 0.73335C3.86667 0.73335 3 0.73335 2 0.73335V2.40002H0V20.4H4H20.5333C22.1333 20.4 23.4667 21.7333 23.4667 23.3333V28.2667C23.4667 30.1334 25 31.6667 26.8667 31.6667H48.2667C48.9333 31.6667 49.5333 32.1334 49.7333 32.8C50.3333 35.0667 51.6667 40.1334 52.4667 43.8667C53.4 48.3334 54.3333 56.6 54.3333 56.6L52.1333 57.9333L52.5333 60.0667C52.5333 60.0667 77.8 54.6 78.3333 54.5334C79.2667 54.4 79 54.3333 78.8667 52.4667C78.7333 51.4667 78.6667 50.5334 78.5333 49.6667ZM46.9333 28.7333H28.0667C27.2667 28.7333 26.6 28.0667 26.6 27.2667V22.8667C26.6 21.5333 27.6667 20.4667 29 20.4667H45.8667C46.6 20.4667 47.2 20.9333 47.3333 21.6667L48.4 27C48.6 27.8667 47.8667 28.7333 46.9333 28.7333Z" fill="#F0533B"/>
</g>
<defs>
<clipPath id="clip0">
<rect width="80" height="60" fill="white"/>
</clipPath>
</defs>
</svg>
