<svg width="57" height="80" viewBox="0 0 57 80" fill="none" xmlns="http://www.w3.org/2000/svg">
<path d="M53.2613 28.8889L56.0454 23.3422L56.9735 17.2178L57 8.96891L55.2588 2.79113L53.0403 0.488912L49.7347 0.204468L47.746 1.07558C47.746 1.07558 45.5452 3.35113 45.4568 3.30669L43.7068 2.34669L41.2585 6.88002L42.0098 7.28891C40.9315 8.88002 32.4376 20.9867 31.7747 21.8222C31.4212 22.2845 24.3768 24.3022 23.378 26.1511L0 69.3867L19.0383 79.7956L42.4163 36.5511C43.4151 34.7022 41.3115 27.7867 41.4529 27.3245C42.0274 25.4667 46.9505 13.36 48.1084 10.6222L48.6122 10.8978L51.0605 6.36447L49.8054 5.68002C50.0617 5.60002 51.6969 5.19113 51.6969 5.19113C51.6969 5.19113 52.3244 11.84 52.1741 12.3111C51.9001 12.8178 48.0554 20.72 48.0554 20.72L43.8659 32.6756C43.8659 32.6756 44.953 36.8622 44.9884 37.2089C45.1209 37.1734 48.5945 37.3334 48.6829 37.3778C48.7801 36.9956 48.8332 36.7022 48.9746 36.2311C49.0895 36.6222 49.3723 37.1022 49.6021 37.6622L53.2613 28.8889Z" fill="#E1306C"/>
</svg>
