<svg width="80" height="40" viewBox="0 0 80 40" fill="none" xmlns="http://www.w3.org/2000/svg">
<g clip-path="url(#clip0)">
<path d="M79.9102 4.75556C79.7768 4.44444 79.5546 4.31111 79.2879 4.22222C79.1991 4.22222 79.1102 4.22222 79.0213 4.22222C78.9324 4.22222 78.7991 4.17778 78.7102 4.22222L57.4657 5.91111H57.4213C57.0657 5.91111 56.7102 5.95556 56.3546 5.91111C55.3324 5.82222 54.3546 5.51111 53.4213 5.06667C52.799 4.75556 52.1768 4.4 51.5546 4C51.2435 3.82222 50.5768 3.51111 50.5768 3.51111H48.0435V2.62222C47.7324 2.48889 47.4657 2.31111 47.199 2.17778C46.1768 1.64444 45.199 1.11111 44.1768 0.577778C44.0879 0.533333 43.9546 0.488889 43.8657 0.488889C43.2435 0.488889 42.5768 0.488889 41.9546 0.488889C41.9102 0.488889 41.8213 0.488889 41.7768 0.488889C41.7324 0.755556 41.6435 1.02222 41.9546 1.28889C41.8657 1.55556 41.8657 1.55556 41.7768 1.77778H22.9768V3.11111H8.6657C8.48793 2.84444 8.2657 2.57778 8.04348 2.35556C7.77681 2.04444 7.59904 1.68889 7.51015 1.33333C7.51015 1.28889 7.4657 1.24444 7.4657 1.2C7.37681 0.844444 7.24348 0.533333 7.15459 0.177778C7.11015 0 7.11015 0 6.88793 0C6.44348 0 5.99904 0 5.55459 0C5.42126 0 5.33237 0.0444444 5.28792 0.177778C5.19904 0.444444 5.0657 0.666667 4.97681 0.933333C4.75459 1.68889 4.48792 2.4 4.2657 3.15556H3.82126V7.73333H-0.0454102V10H3.82126V12.5778H9.37681V14.1333H10.0879V22.4H13.3324V14.1778H14.0435V12.6222H21.5102L21.0657 15.6889L21.6435 15.7333C21.6435 15.7778 21.6435 15.7778 21.6435 15.8222C21.1546 18.1778 20.6657 20.4889 20.1768 22.8444C19.6879 25.2444 19.1546 27.6444 18.6657 30C18.1768 32.3111 17.6879 34.5778 17.2435 36.8889C17.199 37.1556 17.1101 37.3778 16.8879 37.4667L16.8435 37.5111C16.5324 37.7333 16.3101 38.0444 16.2657 38.4444C16.2213 38.9778 16.4435 38.8444 18.2213 39.1111C19.1101 39.2444 19.9546 39.6 20.799 40C20.9768 40.0889 21.1102 40.0889 21.199 40C21.3324 39.9111 21.4213 39.7778 21.4213 39.6444C21.4657 39.3778 21.5102 39.1111 21.5546 38.8444C21.9102 37.1556 22.2657 35.4222 22.6213 33.7333C23.199 31.0222 23.7768 28.2667 24.3546 25.5556C24.9324 22.6667 25.5546 19.8222 26.1768 16.9333C26.2213 16.7111 26.2657 16.4889 26.3102 16.2667L30.1324 16.6222C30.3102 16.6222 30.4435 16.7111 30.5324 16.8889C30.7546 17.2444 31.0213 17.6 31.2435 17.9556C31.3768 18.1778 31.599 18.3111 31.8657 18.3111C33.1546 18.3111 34.4879 18.3111 35.7768 18.3111C36.0879 18.3111 36.3546 18.3111 36.6657 18.3111C36.9324 18.3111 37.1546 18.2222 37.3768 18.0889C37.7768 17.7778 38.2213 17.5111 38.6213 17.2444C38.8879 17.0667 38.9324 17.0667 39.199 17.2444C39.2879 17.3333 39.3324 17.4222 39.3768 17.5111C40.399 19.7778 41.3768 22.0889 42.399 24.3556C42.5324 24.6222 42.6657 24.8889 42.7102 25.2C42.7102 25.3778 42.7546 25.6 42.7546 25.7778C42.7102 26.1333 42.8879 26.2667 43.2435 26.0444C43.4657 25.9111 43.7324 25.8222 43.9546 25.6889C45.3768 24.9333 46.7546 24.1778 48.1768 23.4222C48.399 23.2889 48.399 23.2444 48.2657 23.0222C48.1324 22.8 47.999 22.6222 47.8657 22.4C46.4879 20.2667 45.1102 18.0889 43.7324 15.9556C43.5546 15.6889 42.6657 13.5111 43.599 12.3111C44.2213 11.4667 45.2879 11.2 46.2213 11.2H53.2879C53.3324 11.2 53.3768 11.2 53.4657 11.2C54.2657 11.3333 55.1102 11.5111 55.9102 11.6889L76.3991 17.3778H78.8435C79.0657 17.3778 79.2435 17.3333 79.4213 17.2444C79.5546 17.2 79.7324 17.1556 79.8213 17.0222C79.9546 16.8444 79.9991 16.6667 80.0435 16.4444C80.0435 16.4 80.0435 16.3111 80.0879 16.2667C80.0879 16.2222 80.0879 16.2222 80.0879 16.1778C80.0879 16.1778 80.0879 16.1778 80.0879 16.1333C80.0879 12.5778 80.0879 9.06667 80.0879 5.51111C80.0879 5.46667 80.0879 5.46667 80.0879 5.42222C79.9991 5.11111 79.9546 4.93333 79.9102 4.75556ZM30.4879 14.7556C30.4879 14.4444 30.6213 14.3111 30.9324 14.3111C31.199 14.3111 37.4213 14.3111 37.5102 14.3111C37.6435 14.3111 37.8657 14.3111 37.9546 14.4C38.0435 14.5778 38.1768 14.8 38.2657 15.0222C38.4435 15.3778 38.5768 15.6444 38.7546 16C38.799 16.0889 38.799 16.1778 38.799 16.2667C38.399 16.5778 37.4657 17.1556 37.0213 17.4667H32.1324L30.5768 15.2V15.1556C30.4435 15.0667 30.4879 14.8889 30.4879 14.7556ZM62.2213 12.1333L59.3768 11.4222C58.7991 11.2889 58.3991 10.7556 58.3991 10.1333V8.8C58.3991 8.08889 58.9324 7.51111 59.6435 7.46667L62.4435 7.28889C63.1991 7.24444 63.8213 7.82222 63.8213 8.57778L63.8657 10.8444C63.8657 11.6889 63.0657 12.3556 62.2213 12.1333ZM76.6213 13.0222C76.6213 14.1333 75.7324 15.0667 74.5768 15.0667H73.5546C73.3768 15.0667 73.1546 15.0222 72.9768 14.9778L67.3324 13.2889C66.4879 13.0222 65.8657 12.2222 65.8657 11.3333V8.88889C65.8657 7.82222 66.6657 6.93333 67.7324 6.84444L74.3991 6.31111C75.5991 6.22222 76.5768 7.15555 76.5768 8.35555V13.0222H76.6213Z" fill="#9B5DE5"/>
</g>
<defs>
<clipPath id="clip0">
<rect width="80" height="40" fill="white"/>
</clipPath>
</defs>
</svg>
