<svg width="20" height="81" viewBox="0 0 20 81" fill="none" xmlns="http://www.w3.org/2000/svg">
<path d="M4.86835 40.1737C5.65306 40.2172 6.43778 40.5653 7.04811 41.1743C8.00721 42.1748 8.22518 43.6539 7.61485 44.8719C7.39687 45.3505 7.09171 45.6985 6.74294 45.9595C6.48137 46.177 6.13261 46.3075 5.82744 46.3945C5.69666 46.438 5.52228 46.438 5.3479 46.4815C5.12992 46.525 4.86835 46.5685 4.60678 46.7425C4.3888 46.8295 4.21442 46.96 3.99645 47.1775C3.25533 47.8301 2.07826 47.3951 1.16276 45.9595C0.988375 45.6985 0.639612 46.2205 0.552421 46.3945C0.37804 46.9165 0.596018 48.3086 1.86028 49.3526C3.5169 50.7012 7.09171 50.1357 7.09171 50.1357C7.09171 50.1357 5.74025 56.3129 5.74025 63.2732C5.69666 70.2336 6.91732 75.4103 6.91732 75.4103C6.91732 75.4103 5.56587 76.7153 5.3043 77.1504C5.26071 77.2374 5.12992 77.4984 5.12992 77.8899L5.26071 80.5L14.8517 80.0215L14.7209 77.4114C14.6773 77.2374 14.6337 77.0633 14.5901 77.0198C14.3285 76.6283 13.0207 75.2798 13.0207 75.2798C13.0207 75.2798 14.4157 70.1466 14.4593 63.1862C14.5029 56.2259 13.5874 49.7442 13.5874 49.7442C13.5874 49.7442 17.075 49.9182 18.4701 48.9176C19.3856 48.3086 19.6907 47.2646 19.3856 46.6555C19.0368 46.003 18.6444 45.742 18.1649 45.394C17.7289 45.0895 17.2494 45.829 17.2494 46.1335C17.2494 46.3945 16.5955 47.395 15.7672 46.786C14.9824 46.2205 14.1105 46.1335 14.1105 46.1335C14.1105 46.1335 14.6773 43.5234 14.4157 36.3456L13.849 27.6452C12.8027 14.4641 14.9824 0.5 14.9824 0.5C13.1514 2.19657 8.22518 5.89424 6.52497 12.463C4.56318 19.7713 4.86835 40.1737 4.86835 40.1737Z" fill="#BE7C4D"/>
</svg>
