<svg width="80" height="70" viewBox="0 0 80 70" fill="none" xmlns="http://www.w3.org/2000/svg">
<path d="M79.8004 22.5117C79.4926 21.5775 79.1078 20.7212 78.8 19.787C78.7231 19.5534 78.6461 19.242 78.6461 19.0085V2.50434C78.6461 2.50434 78.6461 0.947346 77.107 0.246699C76.1066 -0.220399 74.5676 0.0909999 73.875 0.246699C71.3356 0.791647 68.873 1.41444 66.3336 1.95939C65.2562 2.19294 64.1789 2.42649 63.0246 2.50434H52.8668V4.29488C50.2504 4.29488 47.634 4.29488 44.9406 4.29488V1.41444H39.6309V4.29488C35.6293 4.37273 15.9293 4.29488 15.9293 4.29488V0.168849H10.8504H9.38828V9.19941L0 9.12156V15.2717H9.38828V15.3495V20.9547V31.8537C9.38828 31.8537 10.4656 36.6803 10.4656 39.7943C10.3887 42.9862 10.5426 44.7767 10.3117 47.9685C10.2348 49.0584 10.1578 50.1483 10.0809 51.2382C10.0039 52.1724 10.0039 53.1066 9.92695 53.963C9.92695 54.3522 10.0039 54.7415 10.2348 55.0529C10.6965 55.5978 11.2352 55.5978 11.8508 55.4421C12.6973 55.2086 13.0051 54.5079 13.0051 53.8073C13.0051 53.0288 12.9281 52.2503 12.8512 51.3939C12.7742 50.5376 12.7742 49.6812 12.6973 48.8249C12.5434 46.9565 12.4664 45.0103 12.3895 43.1419C12.3125 35.6683 13.5438 31.7758 13.5438 31.7758V20.8769H16.7758C20.0078 20.8769 23.2398 20.8769 26.3949 20.8769C26.5488 20.8769 26.7027 20.8769 26.8566 20.9547L28.3957 22.9009H29.0883V28.039C29.0883 29.4403 30.2426 30.6081 31.6277 30.6081H43.8633V37.7702V43.2976V43.609H45.4793V69.5329C45.4793 69.6107 45.4023 69.7664 45.4023 69.8443C45.4023 69.8443 45.4023 69.9221 45.4023 70H45.4793H55.0984V43.609H61.8703V42.9862C61.8703 42.6748 61.8703 42.5191 61.8703 42.2855C61.8703 41.0399 61.8703 39.7165 61.8703 38.4709C61.8703 38.2373 61.8703 38.0038 61.8703 37.7702C61.8703 37.6145 61.8703 37.4588 61.7934 37.3031C61.2547 34.8898 60.4852 32.4765 59.5617 30.2188C59.177 29.2846 58.0996 26.9491 59.1 24.1465C60.1004 21.4997 63.0246 21.1104 63.1785 21.0326H74.1059C74.1059 22.7453 74.1059 24.3801 74.1059 26.0928C74.2598 26.0928 74.4137 26.0928 74.5676 26.0928C75.4141 26.0928 76.3375 26.0928 77.184 26.0928C77.9535 26.0928 78.6461 25.7814 79.1848 25.2364C80.0313 24.4579 80.1852 23.5237 79.8004 22.5117ZM33.1668 28.039C32.3203 28.039 31.7047 27.3384 31.7047 26.5599V22.9788H32.3203L34.1672 20.7212H43.8633V28.039H33.1668ZM77.2609 18.1521H74.6445L74.5676 2.66004L76.0297 2.34864C76.7223 2.34864 77.2609 2.89359 77.2609 3.59423V18.1521Z" fill="#C3BF6D"/>
</svg>
