<svg width="80" height="75" viewBox="0 0 80 75" fill="none" xmlns="http://www.w3.org/2000/svg">
<path d="M79.0187 32.6583C75.412 29.6583 71.5706 26.7917 67.5781 24.3583C65.0451 22.85 62.3611 21.7667 59.4842 21.425C54.2923 20.8833 49.0585 20.6417 43.7744 20.5917C39.7064 20.575 35.7727 20.6667 31.797 19.2583C29.1214 18.3 27.2678 16.925 26.0013 14.475C24.8102 12.2083 23.1831 10.575 21.061 8.97499C17.2699 5.92499 14.3846 3.77499 11.1051 1.04999C10.1573 0.44999 9.62047 -0.233343 8.94947 0.533324C8.38751 1.17499 9.16755 1.96666 9.37724 2.37499C12.0864 6.40832 14.7285 10.375 17.446 14.4083C18.0499 15.2667 18.5867 15.9583 19.8448 15.6917C20.0881 15.675 20.5829 15.8833 20.6584 16.0583C20.7339 16.2333 20.5829 16.6667 20.3565 16.925C19.9119 17.5583 19.2913 18.1417 18.9138 18.8333C18.5364 19.525 18.008 19.7417 17.3286 19.6083C16.5989 19.5417 16.4395 19.0667 16.4563 18.4C16.3808 17.3167 15.844 16.6333 14.8543 16.3417C14.1078 16.0333 13.2942 15.6667 12.5393 15.3583C8.90754 13.6833 5.20865 12.075 1.64396 10.45C0.696172 9.96666 9.02638e-06 10.375 9.02638e-06 11.275C-0.033541 11.7 0.369059 12.15 0.754884 12.4917C3.48082 15.075 6.45 17.5167 9.11722 20.1667C11.9941 23.1 15.2401 25.3417 18.9893 26.8917C19.9203 27.25 20.8262 28.0333 21.4385 28.8917C22.9147 30.9583 24.1644 33.1583 25.4141 35.3667C25.4896 35.5417 25.5651 35.8417 25.5819 36.075C25.6993 37.75 25.8084 39.3167 25.9258 40.9916C26.1522 44.2333 26.1439 47.4833 26.7226 50.575C28.6769 61.0416 34.7327 68.7583 43.4473 74.4833C43.8247 74.7 44.3783 74.8416 44.8648 74.8083C46.3074 74.5916 47.7752 73.0416 48.094 71.6333C48.4546 69.9166 47.5907 68.8333 46.3074 67.8417C39.589 62.825 35.7727 56.0417 34.4726 47.9333C33.9191 44.4167 33.6171 41 33.1894 37.475C33.181 37.3583 33.0971 36.1583 32.7784 35.0917C35.7308 34.825 38.1799 32.55 38.3896 29.4583C38.4315 29.1583 38.3477 28.8583 38.3896 28.5583C39.3626 28.6083 40.3942 28.6 41.3588 28.5333C43.4641 28.325 45.6364 28.175 47.8088 28.025C53.4787 27.6333 58.9222 28.275 64.1393 30.8667C67.4691 32.5 70.757 34.4417 73.6507 36.7167C75.1269 37.8833 76.6199 38.375 78.4316 37.4667C80.2097 36.6167 80.5704 34 79.0187 32.6583ZM31.9899 32.375C30.1615 32.2583 28.7775 30.7333 28.9621 28.9667C29.0795 27.15 30.6144 25.775 32.3925 25.9583C34.221 26.075 35.605 27.6 35.4204 29.3667C35.3617 31.1167 33.8184 32.4917 31.9899 32.375Z" fill="#C55A18"/>
</svg>
