<svg width="30" height="81" viewBox="0 0 30 81" fill="none" xmlns="http://www.w3.org/2000/svg">
<path d="M14.8792 77.7355C15.9264 76.6161 19.2694 72.8183 21.8472 67.7012C24.8278 61.7847 25.9958 58.3067 26.3583 57.1074C26.6806 56.1079 27.1639 54.6288 26.6403 53.6693C24.7069 50.3513 24.7472 46.3935 27.6472 43.0355C28.7347 41.7962 29.2583 41.3165 29.2583 41.3165C29.2583 41.3165 29.4597 38.8379 29.5 38.3982C29.5 37.9984 29.3389 37.9584 29.0167 37.9184C28.6944 37.8784 28.2514 37.7985 28.2514 37.7985L28.2514 35.0001C28.2514 35.0001 28.1306 24.1664 20.3167 13.8923C10.9722 1.61936 0.5 0.499999 0.5 0.499999C0.5 0.499999 10.9319 7.85576 13.9931 19.7289C16.9333 31.0824 13.3083 39.5975 13.3083 39.5975C13.3083 39.5975 12.5833 39.6774 12.4625 39.6774C12.3417 39.6774 12.1806 39.7174 12.0597 39.9972C11.9389 40.2371 11.5361 41.7162 11.4556 42.116C11.3347 42.6357 11.7375 42.8756 12.1806 43.0755C12.8653 43.3553 16.4097 44.2748 17.1347 47.5529C17.6181 49.7516 16.7319 51.3507 14.7583 52.55C14.2347 52.8698 13.55 52.9498 13.9125 53.7493C14.9597 55.988 14.1944 58.7864 12.1 60.0657C10.9319 60.7852 9.96527 60.7053 10.4083 61.9446C11.0528 63.7835 9.5625 65.9423 7.70972 66.342C7.26666 66.422 4.93055 66.8218 3.60139 67.6613C0.580552 69.5402 -0.386117 72.9382 1.54722 75.8965C2.35277 77.1758 3.0375 77.9354 3.31944 78.7349C3.48055 79.1746 3.56111 79.7343 3.56111 80.1341C3.56111 80.3739 3.7625 80.5339 4.00416 80.4939C5.65555 80.214 11.4153 79.1746 12.5028 78.9748C13.5097 78.8548 13.8319 78.8148 14.8792 77.7355ZM2.99722 75.4168C1.62778 73.298 2.27222 70.4597 4.40694 69.1004C6.54166 67.7412 9.40139 68.3809 10.7708 70.4996C12.1403 72.6184 11.4958 75.4568 9.36111 76.816C7.22639 78.2152 4.36666 77.5756 2.99722 75.4168Z" fill="#FF0000"/>
</svg>
