<svg width="80" height="75" viewBox="0 0 80 75" fill="none" xmlns="http://www.w3.org/2000/svg">
<g clip-path="url(#clip0)">
<path d="M21.9591 41.9167V37.5C21.9591 37.3334 21.9591 37.1667 21.8774 37L19.755 28.3334V13.1667C19.755 12.75 19.6734 12.3334 19.4285 12L12.9795 1.00003C12.2448 -0.0833004 10.857 -0.333301 9.87744 0.4167C9.63254 0.583366 9.46927 0.750033 9.30601 1.00003L2.7754 12C2.61213 12.4167 2.44886 12.75 2.44886 13.1667V28.3334L0.408049 36.9167C0.408049 37.0834 0.326416 37.25 0.326416 37.4167V72.75C0.326416 74 1.30601 75 2.44886 75H19.755C20.9795 75 21.8774 74 21.8774 72.8334V41.9167H21.9591Z" fill="#DABFFF"/>
<path d="M50.8573 41.9167V37.5C50.8573 37.3334 50.8573 37.1667 50.7756 37L48.6532 28.3334V13.1667C48.6532 12.75 48.5715 12.3334 48.3266 12L41.8777 1.00003C41.143 -0.0833004 39.7552 -0.333301 38.7756 0.4167C38.5307 0.583366 38.3675 0.750033 38.2042 1.00003L31.7552 12C31.592 12.3334 31.4287 12.75 31.4287 13.1667V28.3334L29.3062 36.9167C29.3062 37.0834 29.2246 37.25 29.2246 37.4167V72.75C29.2246 74 30.2042 74.9167 31.3471 74.9167H48.6532C49.8777 74.9167 50.7756 73.9167 50.7756 72.75V41.9167H50.8573Z" fill="#DABFFF"/>
<path d="M79.6737 41.9167V37.5C79.6737 37.3334 79.6737 37.1667 79.592 37L77.5512 28.3334V13.1667C77.5512 12.75 77.4696 12.3334 77.2247 12L70.6941 1.00003C69.9594 -0.0833004 68.5716 -0.333301 67.592 0.4167C67.3471 0.583366 67.1839 0.750033 67.0206 1.00003L60.5716 12C60.4084 12.3334 60.2451 12.75 60.2451 13.1667V28.3334L58.1226 36.9167C58.1226 37.0834 58.041 37.25 58.041 37.4167V72.75C58.041 74 59.0206 74.9167 60.1635 74.9167H77.5512C78.7757 74.9167 79.6737 73.9167 79.6737 72.75V41.9167Z" fill="#DABFFF"/>
</g>
<defs>
<clipPath id="clip0">
<rect width="80" height="75" fill="white"/>
</clipPath>
</defs>
</svg>
