<svg width="24" height="24" viewBox="-42 -42 108 108" fill="none" xmlns="http://www.w3.org/2000/svg">
<path d="M12.0005 0C5.37501 0 0 5.36803 0 11.9937C0 18.6257 5.37501 24 12.0005 24C18.6296 24 24 18.6257 24 11.9937C24 5.36803 18.6296 0 12.0005 0ZM12.8557 18.6708C12.5769 18.9189 12.2539 19.0436 11.888 19.0436C11.5094 19.0436 11.1792 18.921 10.8973 18.6758C10.615 18.431 10.4735 18.0881 10.4735 17.6476C10.4735 17.2569 10.6104 16.9279 10.8833 16.6615C11.1562 16.395 11.4909 16.2616 11.888 16.2616C12.2788 16.2616 12.6077 16.395 12.8747 16.6615C13.1412 16.9279 13.2749 17.2569 13.2749 17.6476C13.2744 18.0818 13.1348 18.4229 12.8557 18.6708ZM16.3309 10.0553C16.1169 10.4524 15.8625 10.7948 15.5676 11.0835C15.2734 11.3721 14.7445 11.8573 13.981 12.5394C13.7704 12.7319 13.601 12.9008 13.4741 13.0462C13.3472 13.1922 13.2523 13.3254 13.1904 13.4465C13.128 13.5675 13.0802 13.6886 13.0463 13.8097C13.0124 13.9302 12.9614 14.143 12.8922 14.447C12.7748 15.0921 12.4057 15.4146 11.7854 15.4146C11.4628 15.4146 11.1918 15.3093 10.9709 15.0984C10.7509 14.8875 10.6411 14.5744 10.6411 14.1588C10.6411 13.638 10.722 13.1867 10.8833 12.805C11.0436 12.4232 11.2582 12.0885 11.5248 11.7999C11.7918 11.5112 12.1513 11.1688 12.6045 10.7717C13.0015 10.4243 13.2884 10.1623 13.4651 9.98565C13.6421 9.80858 13.7908 9.61162 13.9114 9.39478C14.0329 9.17748 14.0926 8.94212 14.0926 8.68782C14.0926 8.19137 13.9087 7.77307 13.5392 7.43201C13.1701 7.09095 12.6939 6.92017 12.1107 6.92017C11.4281 6.92017 10.9258 7.09227 10.6032 7.43651C10.2806 7.78073 10.0083 8.28758 9.78462 8.95753C9.57319 9.65865 9.17294 10.0092 8.58428 10.0092C8.23686 10.0092 7.9437 9.88673 7.70472 9.64186C7.46619 9.397 7.34693 9.13185 7.34693 8.84637C7.34693 8.25728 7.53621 7.66008 7.91436 7.05521C8.29294 6.45034 8.84499 5.94935 9.57092 5.5527C10.2964 5.15562 11.1435 4.95683 12.1107 4.95683C13.0102 4.95683 13.8039 5.12306 14.4924 5.45511C15.1809 5.78668 15.713 6.238 16.0884 6.80896C16.4634 7.37948 16.6514 7.99976 16.6514 8.66971C16.6523 9.19605 16.5451 9.6582 16.3309 10.0553Z" fill="#C6973A"/>
</svg>
